<?xml version="1.0" encoding="UTF-8" standalone="no"?>
<!-- Created with Inkscape (http://www.inkscape.org/) -->

<svg
   xmlns:dc="http://purl.org/dc/elements/1.1/"
   xmlns:cc="http://creativecommons.org/ns#"
   xmlns:rdf="http://www.w3.org/1999/02/22-rdf-syntax-ns#"
   xmlns:svg="http://www.w3.org/2000/svg"
   xmlns="http://www.w3.org/2000/svg"
   xmlns:sodipodi="http://sodipodi.sourceforge.net/DTD/sodipodi-0.dtd"
   xmlns:inkscape="http://www.inkscape.org/namespaces/inkscape"
   version="1.0"
   width="1000"
   height="1000"
   id="svg5496"
   sodipodi:version="0.32"
   inkscape:version="0.47pre4 r22446"
   sodipodi:docname="ayn+yaa.fina.svg"
   inkscape:output_extension="org.inkscape.output.svg.inkscape">
  <metadata
     id="metadata5594">
    <rdf:RDF>
      <cc:Work
         rdf:about="">
        <dc:format>image/svg+xml</dc:format>
        <dc:type
           rdf:resource="http://purl.org/dc/dcmitype/StillImage" />
        <dc:title />
      </cc:Work>
    </rdf:RDF>
  </metadata>
  <sodipodi:namedview
     inkscape:window-height="725"
     inkscape:pageshadow="2"
     inkscape:pageopacity="0.0"
     borderopacity="1.0"
     bordercolor="#666666"
     pagecolor="#ffffff"
     id="base"
     showgrid="false"
     showguides="true"
     inkscape:guide-bbox="true"
     inkscape:zoom="0.454"
     inkscape:cx="110.13216"
     inkscape:cy="500"
     inkscape:window-x="0"
     inkscape:window-y="24"
     inkscape:current-layer="svg5496"
     inkscape:window-width="1280"
     inkscape:window-maximized="1">
    <sodipodi:guide
       orientation="horizontal"
       position="200"
       id="guide5596" />
  </sodipodi:namedview>
  <defs
     id="defs5498">
    <inkscape:perspective
       sodipodi:type="inkscape:persp3d"
       inkscape:vp_x="0 : 500 : 1"
       inkscape:vp_y="0 : 1000 : 0"
       inkscape:vp_z="1000 : 500 : 1"
       inkscape:persp3d-origin="500 : 333.33333 : 1"
       id="perspective3712" />
    <inkscape:perspective
       id="perspective3692"
       inkscape:persp3d-origin="0.5 : 0.33333333 : 1"
       inkscape:vp_z="1 : 0.5 : 1"
       inkscape:vp_y="0 : 1000 : 0"
       inkscape:vp_x="0 : 0.5 : 1"
       sodipodi:type="inkscape:persp3d" />
    <inkscape:perspective
       id="perspective3831"
       inkscape:persp3d-origin="0.5 : 0.33333333 : 1"
       inkscape:vp_z="1 : 0.5 : 1"
       inkscape:vp_y="0 : 1000 : 0"
       inkscape:vp_x="0 : 0.5 : 1"
       sodipodi:type="inkscape:persp3d" />
  </defs>
  <g
     id="layer1" />
  <path
     style="color:#000000;fill:#ff0000;fill-opacity:0.60784314;stroke:#000000;stroke-width:1;stroke-linecap:butt;stroke-linejoin:miter;stroke-miterlimit:4;stroke-opacity:1;stroke-dasharray:none;stroke-dashoffset:0;marker:none;visibility:visible;display:inline;overflow:visible;enable-background:accumulate"
     d="m 508.63355,507.99149 c -0.197,6.8355 3.712,13.3999 10.04,14.807 29.389,6.5348 50.419,19.9425 70.408,33.6429 -69.096,28.0665 -136.108,57.3477 -192.795,97.5128 -6.096,4.3195 -12.309,9.4706 -13.373,21.6885 -1.431,16.4489 -4.367,33.543 -1.195,47.9611 1.319,6.0019 5.905,8.7857 12.141,9.348 70.932,6.3969 139.501,13.109 194.223,42.4856 5.93,3.1832 5.476,6.5055 0.994,9.5595 -84.125,57.3122 -190.664,93.9736 -293.898,110.0447 -112.88099,17.5735 -199.426997,-16.1341 -225.993997,-79.8443 -34.86,-83.5995 -2.958,-155.0627 26.992,-220.0115 10.951007,-23.7473 -10.748,-27.9643 -20.169,-11.5912 -45.467,78.9979 -79.9539998,192.3047 -73.3679998,251.4528 17.5909998,157.9703 165.4080068,175.07751 266.4199968,160.0582 137.831,-20.4937 327.831,-106.6194 355.267,-149.7911 6.558,-10.3216 23.077,-75.8835 14.273,-100.0184 -13.883,-38.0476 -86.47,-63.6142 -138.566,-71.5993 -5.684,-0.8715 -2.757,-4.4341 1.139,-7.49 38.366,-25.2606 96.198,-41.8054 148.635,-59.5665 5.12,-1.7343 9.114,-2.1035 13.251,0.6476 57.849,38.4596 86.696,67.0275 163.304,73.3482 l 0,-90.4368 c -39.027,-0.9585 -60.224,-5.4899 -89.888,-27.4459 20.352,-15.0541 39.552,-35.3004 46.991,-52.7336 9.854,-23.0931 -4.347,-42.1073 -17.119,-57.8888 -31.326,-38.7082 -73.273,-56.725 -114.561,-55.0017 -72.353,2.9871 -133.672,40.2144 -143.152,110.8622 z"
     id="path3681"
     sodipodi:nodetypes="cscsssssscsssssssscsscccsssc" />
</svg>
