<?xml version="1.0" encoding="UTF-8" standalone="no"?>
<!-- Created with Inkscape (http://www.inkscape.org/) -->

<svg
   xmlns:dc="http://purl.org/dc/elements/1.1/"
   xmlns:cc="http://creativecommons.org/ns#"
   xmlns:rdf="http://www.w3.org/1999/02/22-rdf-syntax-ns#"
   xmlns:svg="http://www.w3.org/2000/svg"
   xmlns="http://www.w3.org/2000/svg"
   xmlns:sodipodi="http://sodipodi.sourceforge.net/DTD/sodipodi-0.dtd"
   xmlns:inkscape="http://www.inkscape.org/namespaces/inkscape"
   version="1.0"
   width="1000"
   height="1000"
   id="svg5496"
   sodipodi:version="0.32"
   inkscape:version="0.47pre0 r21549"
   sodipodi:docname="New document 6"
   inkscape:output_extension="org.inkscape.output.svg.inkscape">
  <metadata
     id="metadata5594">
    <rdf:RDF>
      <cc:Work
         rdf:about="">
        <dc:format>image/svg+xml</dc:format>
        <dc:type
           rdf:resource="http://purl.org/dc/dcmitype/StillImage" />
        <dc:title></dc:title>
      </cc:Work>
    </rdf:RDF>
  </metadata>
  <sodipodi:namedview
     inkscape:window-height="721"
     inkscape:pageshadow="2"
     inkscape:pageopacity="0.0"
     borderopacity="1.0"
     bordercolor="#666666"
     pagecolor="#ffffff"
     id="base"
     showgrid="false"
     showguides="true"
     inkscape:guide-bbox="true"
     inkscape:zoom="0.454"
     inkscape:cx="500"
     inkscape:cy="500"
     inkscape:window-x="0"
     inkscape:window-y="28"
     inkscape:current-layer="svg5496"
     inkscape:window-width="1280"
     inkscape:window-maximized="1">
    <sodipodi:guide
       orientation="horizontal"
       position="200"
       id="guide5596" />
  </sodipodi:namedview>
  <defs
     id="defs5498">
    <inkscape:perspective
       sodipodi:type="inkscape:persp3d"
       inkscape:vp_x="0 : 500 : 1"
       inkscape:vp_y="0 : 1000 : 0"
       inkscape:vp_z="1000 : 500 : 1"
       inkscape:persp3d-origin="500 : 333.33333 : 1"
       id="perspective2877" />
    <inkscape:perspective
       id="perspective2866"
       inkscape:persp3d-origin="0.5 : 0.33333333 : 1"
       inkscape:vp_z="1 : 0.5 : 1"
       inkscape:vp_y="0 : 1000 : 0"
       inkscape:vp_x="0 : 0.5 : 1"
       sodipodi:type="inkscape:persp3d" />
  </defs>
  <g
     id="layer1" />
  <path
     style="color:#000000;fill:#000000;stroke:#000000;stroke-width:1px;stroke-linecap:butt;stroke-linejoin:miter;stroke-miterlimit:4;stroke-opacity:1;stroke-dasharray:none;stroke-dashoffset:0;marker:none;visibility:visible;display:inline;overflow:visible;enable-background:accumulate;fill-opacity:1"
     d="m 979.59808,415.03719 -0.52246,41.56727 c -0.0935,7.43945 -5.07902,14.3406 -11.37569,17.28991 -148.49505,69.55397 -339.50467,126.42499 -448.89569,177.29208 65.41697,10.52019 137.19782,28.57672 153.3669,54.14283 7.40733,11.71225 2.57056,74.43012 -19.43777,103.16507 C 609.20585,865.3256 393.19656,1007.3525 208.94734,997.68384 -0.29906758,986.78511 -13.505308,793.63797 12.701832,710.32437 c 18.49986,-58.81182 59.96906,-138.94586 98.122758,-196.24551 9.38078,-14.08816 37.93552,-9.44418 21.02631,17.13255 -30.94508,48.63732 -97.559138,144.38096 -72.423948,223.50181 32.31642,101.726 143.697368,133.64142 185.342978,132.38784 132.84914,-3.98234 283.72314,-49.67339 372.28168,-126.33889 5.37134,-4.64998 6.02282,-7.68012 0.0288,-11.94885 -25.96744,-18.49298 -143.52563,-30.24608 -215.76316,-35.93132 -8.9079,-0.70107 -12.00209,-2.31596 -8.38949,-11.24 10.45596,-25.82889 25.74162,-48.19568 39.37133,-71.68295 2.99971,-5.16921 5.60605,-8.13762 10.56788,-11.02909 54.66442,-31.85531 116.50841,-61.812 198.61032,-93.81495 -25.33681,-27.57071 -70.35008,-63.84578 -61.19884,-107.46777 15.8421,-75.51587 128.96106,-181.50707 190.36098,-190.64441 37.41999,-5.56872 119.43798,37.72889 151.65995,72.11067 7.3786,7.87318 1.75324,16.9096 -8.46949,13.50654 -80.02631,-26.64014 -198.88426,-10.22608 -266.43647,61.08819 -2.66457,2.81297 -2.27046,5.52058 -0.31263,8.6137 14.98758,23.67843 53.66742,60.71308 136.3021,76.37107 50.99188,9.66218 128.5703,-32.33422 180.69575,-58.30172 6.61592,-3.29587 15.66431,3.11995 15.51944,14.64591 z"
     id="path2856"
     sodipodi:nodetypes="csscsssssssssssssscsssssssss" />
</svg>
