<?xml version="1.0" encoding="UTF-8" standalone="no"?>
<!-- Created with Inkscape (http://www.inkscape.org/) -->

<svg
   xmlns:dc="http://purl.org/dc/elements/1.1/"
   xmlns:cc="http://creativecommons.org/ns#"
   xmlns:rdf="http://www.w3.org/1999/02/22-rdf-syntax-ns#"
   xmlns:svg="http://www.w3.org/2000/svg"
   xmlns="http://www.w3.org/2000/svg"
   xmlns:sodipodi="http://sodipodi.sourceforge.net/DTD/sodipodi-0.dtd"
   xmlns:inkscape="http://www.inkscape.org/namespaces/inkscape"
   version="1.0"
   width="1000"
   height="1000"
   id="svg5496"
   sodipodi:version="0.32"
   inkscape:version="0.47pre0 r21549"
   sodipodi:docname="New document 10"
   inkscape:output_extension="org.inkscape.output.svg.inkscape">
  <metadata
     id="metadata5594">
    <rdf:RDF>
      <cc:Work
         rdf:about="">
        <dc:format>image/svg+xml</dc:format>
        <dc:type
           rdf:resource="http://purl.org/dc/dcmitype/StillImage" />
        <dc:title></dc:title>
      </cc:Work>
    </rdf:RDF>
  </metadata>
  <sodipodi:namedview
     inkscape:window-height="721"
     inkscape:pageshadow="2"
     inkscape:pageopacity="0.0"
     borderopacity="1.0"
     bordercolor="#666666"
     pagecolor="#ffffff"
     id="base"
     showgrid="false"
     showguides="true"
     inkscape:guide-bbox="true"
     inkscape:zoom="0.454"
     inkscape:cx="110.13216"
     inkscape:cy="500"
     inkscape:window-x="0"
     inkscape:window-y="28"
     inkscape:current-layer="svg5496"
     inkscape:window-width="1280"
     inkscape:window-maximized="1">
    <sodipodi:guide
       orientation="horizontal"
       position="200"
       id="guide5596" />
  </sodipodi:namedview>
  <defs
     id="defs5498">
    <inkscape:perspective
       sodipodi:type="inkscape:persp3d"
       inkscape:vp_x="0 : 500 : 1"
       inkscape:vp_y="0 : 1000 : 0"
       inkscape:vp_z="1000 : 500 : 1"
       inkscape:persp3d-origin="500 : 333.33333 : 1"
       id="perspective3712" />
    <inkscape:perspective
       id="perspective3692"
       inkscape:persp3d-origin="0.5 : 0.33333333 : 1"
       inkscape:vp_z="1 : 0.5 : 1"
       inkscape:vp_y="0 : 1000 : 0"
       inkscape:vp_x="0 : 0.5 : 1"
       sodipodi:type="inkscape:persp3d" />
  </defs>
  <g
     id="layer1" />
  <path
     style="color:#000000;fill:#000000;fill-opacity:1;stroke:#000000;stroke-width:1px;stroke-linecap:butt;stroke-linejoin:miter;stroke-miterlimit:4;stroke-opacity:1;stroke-dasharray:none;stroke-dashoffset:0;marker:none;visibility:visible;display:inline;overflow:visible;enable-background:accumulate"
     d="m 683.16647,394.46964 c -49.414,-0.4674 -99.06129,21.91 -132.65625,51.15631 -14.17468,12.3399 -22.52367,34.3987 -23.88378,61.3428 -0.35654,7.0631 -1.0438,7.4052 5.50061,8.8669 33.52294,7.4872 52.6529,20.3639 75.29753,37.8428 -72.07375,27.4692 -142.83744,54.8157 -202.35186,95.0725 -6.4005,4.3294 -12.93815,9.516 -14.3125,22.125 -1.85026,16.9752 -5.26953,34.5837 -2.3125,49.5625 1.23092,6.2352 5.91005,9.2163 12.34375,9.9375 73.19626,8.2055 148.07878,16.7733 204,48.375 6.05932,3.4242 5.5158,6.8492 0.8125,9.9063 -88.26597,57.3707 -199.24478,92.8865 -306.34375,107.1874 -117.10732,15.6376 -205.836357,-21.1559 -231.874997,-87.625 -34.16749,-87.2196 0.42025,-160.3933 32.843747,-226.875 11.85517,-24.3079 -10.483487,-29.1548 -20.593747,-12.4374 -48.78166,80.6599 -86.9831704,197.0398 -81.5000004,258.3437 14.6442304,163.7277 167.0972374,184.73175 271.8749974,171.4687 142.96906,-18.0974 341.35334,-102.8845 370.6875,-146.9062 7.01341,-10.525 25.56342,-77.9421 17,-103.0938 -13.49996,-39.6508 -85.90975,-67.6689 -139.59375,-77.0937 -5.85878,-1.0286 -2.75101,-4.6464 1.34375,-7.7187 40.23635,-25.2575 105.65327,-43.2984 157.33314,-65.6264 5.13222,-2.2173 9.89601,-2.5031 13.68623,0.9668 47.17443,43.1537 88.11719,85.7154 187.48063,94.4096 l 1.0937,-96.0938 c -55.9278,-0.2142 -91.78014,-14.8036 -121.95932,-38.1706 19.24167,-8.187 36.33422,-15.6982 53.17812,-27.0794 2.87156,-1.8265 3.75301,-4.9231 4.46875,-8.375 4.87344,-23.5035 -4.95921,-54.6505 -18.4375,-72.1875 -31.38283,-40.83321 -72.18197,-56.89401 -113.125,-57.28131 z"
     id="path3681"
     sodipodi:nodetypes="cssscsssssscsssssssscssccccssc" />
</svg>
