<?xml version="1.0" encoding="UTF-8" standalone="no"?>
<!-- Created with Inkscape (http://www.inkscape.org/) -->

<svg
   xmlns:dc="http://purl.org/dc/elements/1.1/"
   xmlns:cc="http://creativecommons.org/ns#"
   xmlns:rdf="http://www.w3.org/1999/02/22-rdf-syntax-ns#"
   xmlns:svg="http://www.w3.org/2000/svg"
   xmlns="http://www.w3.org/2000/svg"
   xmlns:sodipodi="http://sodipodi.sourceforge.net/DTD/sodipodi-0.dtd"
   xmlns:inkscape="http://www.inkscape.org/namespaces/inkscape"
   version="1.0"
   width="1000"
   height="1000"
   id="svg5496"
   sodipodi:version="0.32"
   inkscape:version="0.47pre4 r22446"
   sodipodi:docname="ayn+meem.init.svg"
   inkscape:output_extension="org.inkscape.output.svg.inkscape">
  <metadata
     id="metadata5594">
    <rdf:RDF>
      <cc:Work
         rdf:about="">
        <dc:format>image/svg+xml</dc:format>
        <dc:type
           rdf:resource="http://purl.org/dc/dcmitype/StillImage" />
      </cc:Work>
    </rdf:RDF>
  </metadata>
  <sodipodi:namedview
     inkscape:pageshadow="2"
     inkscape:pageopacity="0.0"
     guidetolerance="10.0"
     gridtolerance="10.0"
     objecttolerance="10.0"
     borderopacity="1.0"
     bordercolor="#666666"
     pagecolor="#ffffff"
     id="base"
     showgrid="false"
     showguides="true"
     inkscape:guide-bbox="true"
     inkscape:zoom="0.6675088"
     inkscape:cx="368.64407"
     inkscape:cy="500"
     inkscape:window-x="0"
     inkscape:window-y="24"
     inkscape:current-layer="svg5496"
     inkscape:window-width="1280"
     inkscape:window-height="725"
     inkscape:window-maximized="1">
    <sodipodi:guide
       orientation="horizontal"
       position="200"
       id="guide5596" />
  </sodipodi:namedview>
  <defs
     id="defs5498">
    <inkscape:perspective
       sodipodi:type="inkscape:persp3d"
       inkscape:vp_x="0 : 500 : 1"
       inkscape:vp_y="0 : 1000 : 0"
       inkscape:vp_z="1000 : 500 : 1"
       inkscape:persp3d-origin="500 : 333.33333 : 1"
       id="perspective8" />
    <inkscape:perspective
       id="perspective2388"
       inkscape:persp3d-origin="372.04724 : 350.78739 : 1"
       inkscape:vp_z="744.09448 : 526.18109 : 1"
       inkscape:vp_y="0 : 1000 : 0"
       inkscape:vp_x="0 : 526.18109 : 1"
       sodipodi:type="inkscape:persp3d" />
    <inkscape:perspective
       id="perspective3740"
       inkscape:persp3d-origin="0.5 : 0.33333333 : 1"
       inkscape:vp_z="1 : 0.5 : 1"
       inkscape:vp_y="0 : 1000 : 0"
       inkscape:vp_x="0 : 0.5 : 1"
       sodipodi:type="inkscape:persp3d" />
    <inkscape:perspective
       id="perspective4613"
       inkscape:persp3d-origin="0.5 : 0.33333333 : 1"
       inkscape:vp_z="1 : 0.5 : 1"
       inkscape:vp_y="0 : 1000 : 0"
       inkscape:vp_x="0 : 0.5 : 1"
       sodipodi:type="inkscape:persp3d" />
  </defs>
  <g
     id="layer1"
     transform="translate(47.058824,228.29074)" />
  <path
     style="fill:#ff0000;fill-opacity:0.60784314;fill-rule:evenodd;stroke:#000000;stroke-width:1;stroke-linecap:butt;stroke-linejoin:miter;stroke-miterlimit:4;stroke-opacity:1;stroke-dasharray:none"
     d="m 250.771,361.582 c -15.551,38.22 -34.514,85.525 51.892,145.508 -49.295,26.863 -111.332,35.054 -176.106,71.735 C 87.385,601.008 77.232,647.232 74.165,687.103 61.045,701.055 28.4,708.847 -0.08,709.876 L 0,800 c 29.46,-6.21 68.534,-57.035 81.968,-87.032 28.107,24.671 135.248,69.471 167.651,53.335 25.564,-12.73 42.353,-57.636 39.378,-90.544 -1.596,-17.653 -21.018,-53.786 -51.197,-83.489 106.688,-39.717 237.97,-77.651 345.158,-119.775 3.571,-1.403 12.015,-9.708 14.123,-13.871 l 30.931,-48.357 c 7.809,-12.208 -6.113,-30.366 -25.33,-20.709 -61.265,30.788 -120.991,63.028 -181.75,58.238 -77.369,-15.207 -119.533,-57.854 -135.017,-82.998 -2.533,-4.113 -0.898,-8.583 2.536,-11.662 97.983,-62.322 185.352,-58.002 236.338,-40.868 7.808,2.623 22.672,-4.53 12.688,-17.729 C 516.623,266.964 484.153,226.19 432.925,225.11 348.439,223.328 269.759,314.917 250.772,361.582 l 0,0 z m -23.239,333.756 c -26.513,-2.992 -89.087,-30.236 -119.03,-52.374 -3.919,-2.898 -4.158,-8.085 -1.279,-11.112 20.272,-12.689 40.511,-8.331 60.825,1.086 26.624,12.343 51.636,35.556 59.484,62.4 z"
     id="path2394-0-5"
     sodipodi:nodetypes="ccsccccsscscsscscsssscccscc" />
</svg>
