<?xml version="1.0" encoding="UTF-8" standalone="no"?>
<!-- Created with Inkscape (http://www.inkscape.org/) -->

<svg
   xmlns:dc="http://purl.org/dc/elements/1.1/"
   xmlns:cc="http://creativecommons.org/ns#"
   xmlns:rdf="http://www.w3.org/1999/02/22-rdf-syntax-ns#"
   xmlns:svg="http://www.w3.org/2000/svg"
   xmlns="http://www.w3.org/2000/svg"
   xmlns:sodipodi="http://sodipodi.sourceforge.net/DTD/sodipodi-0.dtd"
   xmlns:inkscape="http://www.inkscape.org/namespaces/inkscape"
   version="1.0"
   width="1000"
   height="1000"
   id="svg5496"
   sodipodi:version="0.32"
   inkscape:version="0.47pre4 r22446"
   sodipodi:docname="ayn+yaa.isol.svg"
   inkscape:output_extension="org.inkscape.output.svg.inkscape">
  <metadata
     id="metadata5594">
    <rdf:RDF>
      <cc:Work
         rdf:about="">
        <dc:format>image/svg+xml</dc:format>
        <dc:type
           rdf:resource="http://purl.org/dc/dcmitype/StillImage" />
        <dc:title />
      </cc:Work>
    </rdf:RDF>
  </metadata>
  <sodipodi:namedview
     inkscape:window-height="725"
     inkscape:pageshadow="2"
     inkscape:pageopacity="0.0"
     borderopacity="1.0"
     bordercolor="#666666"
     pagecolor="#ffffff"
     id="base"
     showgrid="false"
     showguides="true"
     inkscape:guide-bbox="true"
     inkscape:zoom="0.908"
     inkscape:cx="519.50754"
     inkscape:cy="320.79754"
     inkscape:window-x="0"
     inkscape:window-y="24"
     inkscape:current-layer="svg5496"
     inkscape:window-width="1280"
     inkscape:window-maximized="1">
    <sodipodi:guide
       orientation="horizontal"
       position="200"
       id="guide5596" />
  </sodipodi:namedview>
  <defs
     id="defs5498">
    <inkscape:perspective
       sodipodi:type="inkscape:persp3d"
       inkscape:vp_x="0 : 500 : 1"
       inkscape:vp_y="0 : 1000 : 0"
       inkscape:vp_z="1000 : 500 : 1"
       inkscape:persp3d-origin="500 : 333.33333 : 1"
       id="perspective2877" />
    <inkscape:perspective
       id="perspective2866"
       inkscape:persp3d-origin="0.5 : 0.33333333 : 1"
       inkscape:vp_z="1 : 0.5 : 1"
       inkscape:vp_y="0 : 1000 : 0"
       inkscape:vp_x="0 : 0.5 : 1"
       sodipodi:type="inkscape:persp3d" />
    <inkscape:perspective
       id="perspective3815"
       inkscape:persp3d-origin="0.5 : 0.33333333 : 1"
       inkscape:vp_z="1 : 0.5 : 1"
       inkscape:vp_y="0 : 1000 : 0"
       inkscape:vp_x="0 : 0.5 : 1"
       sodipodi:type="inkscape:persp3d" />
    <inkscape:perspective
       sodipodi:type="inkscape:persp3d"
       inkscape:vp_x="0 : 0.5 : 1"
       inkscape:vp_y="0 : 1000 : 0"
       inkscape:vp_z="1 : 0.5 : 1"
       inkscape:persp3d-origin="0.5 : 0.33333333 : 1"
       id="perspective2974" />
    <inkscape:perspective
       id="perspective2986"
       inkscape:persp3d-origin="500 : 333.33333 : 1"
       inkscape:vp_z="1000 : 500 : 1"
       inkscape:vp_y="0 : 1000 : 0"
       inkscape:vp_x="0 : 500 : 1"
       sodipodi:type="inkscape:persp3d" />
  </defs>
  <g
     id="layer1" />
  <path
     style="color:#000000;fill:#ff0000;fill-opacity:0.60784314;stroke:#000000;stroke-width:1;stroke-linecap:butt;stroke-linejoin:miter;stroke-miterlimit:4;stroke-opacity:1;stroke-dasharray:none;stroke-dashoffset:0;marker:none;visibility:visible;display:inline;overflow:visible;enable-background:accumulate"
     d="m 934.43076,480.79469 c -2.775,6.5629 -4.77,13.9421 -10.893,16.5593 -147.386,62.9998 -325.16,121.0829 -429.928,169.8006 64.844,3.5018 131.4,27.3691 146.887,51.8548 7.093,11.2174 2.46,71.2851 -18.618,98.8059 -41.687,54.4297 -248.57,190.45511 -425.03299,181.1951 C -3.5582351,988.57219 -12.742235,804.59489 8.8937649,723.79349 25.149767,663.08429 51.719767,596.56229 102.86977,535.84039 c 10.443,-12.3974 36.332,-9.045 20.137,16.4086 -26.117003,33.7087 -48.604003,69.0526 -59.402003,105.6109 -34.25,115.9575 16.01,230.8973 167.550993,235.2405 125.638,3.6009 271.733,-47.5745 356.549,-121.0003 5.146,-4.4536 5.769,-7.3556 0.03,-11.444 -24.87,-17.7116 -137.461,-28.968 -206.646,-34.413 -8.532,-0.6715 -11.494,-2.2181 -8.035,-10.7652 10.013,-24.7374 24.655,-46.159 37.709,-68.6539 2.872,-4.9506 9.751,-12.9065 14.504,-15.6758 52.354,-30.5093 107.202,-54.0873 185.834,-84.738 -24.267,-26.4056 -69.568,-65.5303 -60.804,-107.309 15.172,-72.3249 123.511,-173.8374 182.317,-182.5886 35.839,-5.3335 114.392,36.1346 145.252,69.0635 7.067,7.5406 1.679,16.195 -8.112,12.9359 -76.644,-25.5145 -190.48,-9.794 -255.178,58.5069 -2.551,2.6939 0.02,9.6697 1.892,12.6322 14.354,22.6778 51.4,58.1475 130.543,73.1438 48.837,9.254 146.894,-48.5281 196.818,-73.3985 6.336,-3.1564 19.164,3.8592 14.864,14.0271 l -24.262,57.3712 z"
     id="path2856-7"
     sodipodi:nodetypes="cscssssscsssssssscssssssssss" />
  <path
     sodipodi:nodetypes="csssssssssssscs"
     id="path2837"
     d="m 493.60976,667.15459 c 64.74429,4.75156 131.4,27.3691 146.887,51.8548 7.093,11.2174 2.46,71.2851 -18.618,98.8059 -41.687,54.4297 -248.57,190.45511 -425.03299,181.1951 C -3.5582351,988.57219 -12.742235,804.59489 8.8937649,723.79349 25.149767,663.08429 54.886133,595.25453 106.03607,534.53257 c 10.44307,-12.39734 28.16982,-0.25802 16.28237,15.16961 -26.000049,33.7431 -47.915673,71.59941 -58.713673,108.15771 -34.25,115.9575 16.01,230.8973 167.550993,235.2405 125.638,3.6009 271.733,-47.5745 356.549,-121.0003 5.146,-4.4536 5.769,-7.3556 0.03,-11.444 -24.87,-17.7116 -137.461,-28.968 -206.646,-34.413 -8.532,-0.6715 -11.49437,-2.21825 -8.035,-10.7652 7.70034,-19.02498 28.48788,-53.18741 28.48788,-53.18741 0,0 53.02512,1.99876 92.06812,4.86411 z"
     style="color:#000000;fill:#ff0000;fill-opacity:0.60784314;stroke:#000000;stroke-width:1;stroke-linecap:butt;stroke-linejoin:miter;stroke-miterlimit:4;stroke-opacity:1;stroke-dasharray:none;stroke-dashoffset:0;marker:none;visibility:visible;display:inline;overflow:visible;enable-background:accumulate" />
  <g
     id="layer1-2"
     transform="translate(-213.65639,-96.916297)" />
  <path
     sodipodi:nodetypes="csscsscssssssssss"
     id="path2839"
     d="m 934.43076,480.79469 c -2.775,6.5629 -4.77,13.9421 -10.893,16.5593 -147.386,62.9998 -324.90433,121.64381 -429.928,169.8006 -57.07807,26.17216 -107.6131,43.34674 -91.89644,-5.1478 3.0498,-5.03987 6.09075,-10.08357 9.04944,-15.1828 2.87233,-4.95041 9.751,-12.9065 14.504,-15.6758 52.354,-30.5093 107.202,-54.0873 185.834,-84.738 -24.267,-26.4056 -69.568,-65.5303 -60.804,-107.309 15.172,-72.3249 123.511,-173.8374 182.317,-182.5886 35.839,-5.3335 114.392,36.1346 145.252,69.0635 7.067,7.5406 1.679,16.195 -8.112,12.9359 -76.644,-25.5145 -190.48,-9.794 -255.178,58.5069 -2.551,2.6939 0.02,9.6697 1.892,12.6322 14.354,22.6778 51.4,58.1475 130.543,73.1438 48.837,9.254 146.894,-48.5281 196.818,-73.3985 6.336,-3.1564 19.164,3.8592 14.864,14.0271 l -24.262,57.3712 z"
     style="color:#000000;fill:#ff0000;fill-opacity:0.60784314;stroke:#000000;stroke-width:1;stroke-linecap:butt;stroke-linejoin:miter;stroke-miterlimit:4;stroke-opacity:1;stroke-dasharray:none;stroke-dashoffset:0;marker:none;visibility:visible;display:inline;overflow:visible;enable-background:accumulate" />
</svg>
