<?xml version="1.0" encoding="UTF-8" standalone="no"?>
<!-- Created with Inkscape (http://www.inkscape.org/) -->

<svg
   xmlns:dc="http://purl.org/dc/elements/1.1/"
   xmlns:cc="http://creativecommons.org/ns#"
   xmlns:rdf="http://www.w3.org/1999/02/22-rdf-syntax-ns#"
   xmlns:svg="http://www.w3.org/2000/svg"
   xmlns="http://www.w3.org/2000/svg"
   xmlns:sodipodi="http://sodipodi.sourceforge.net/DTD/sodipodi-0.dtd"
   xmlns:inkscape="http://www.inkscape.org/namespaces/inkscape"
   version="1.0"
   width="1000"
   height="1000"
   id="svg5496"
   sodipodi:version="0.32"
   inkscape:version="0.47pre0 r21549"
   sodipodi:docname="New document 1"
   inkscape:output_extension="org.inkscape.output.svg.inkscape">
  <metadata
     id="metadata5594">
    <rdf:RDF>
      <cc:Work
         rdf:about="">
        <dc:format>image/svg+xml</dc:format>
        <dc:type
           rdf:resource="http://purl.org/dc/dcmitype/StillImage" />
        <dc:title></dc:title>
      </cc:Work>
    </rdf:RDF>
  </metadata>
  <sodipodi:namedview
     inkscape:window-height="721"
     inkscape:pageshadow="2"
     inkscape:pageopacity="0.0"
     borderopacity="1.0"
     bordercolor="#666666"
     pagecolor="#ffffff"
     id="base"
     showgrid="false"
     showguides="true"
     inkscape:guide-bbox="true"
     inkscape:zoom="0.32102648"
     inkscape:cx="466.44193"
     inkscape:cy="514.06545"
     inkscape:window-x="0"
     inkscape:window-y="28"
     inkscape:current-layer="svg5496"
     inkscape:window-width="1280"
     inkscape:window-maximized="1">
    <sodipodi:guide
       orientation="horizontal"
       position="200"
       id="guide5596" />
  </sodipodi:namedview>
  <defs
     id="defs5498">
    <inkscape:perspective
       sodipodi:type="inkscape:persp3d"
       inkscape:vp_x="0 : 500 : 1"
       inkscape:vp_y="0 : 1000 : 0"
       inkscape:vp_z="1000 : 500 : 1"
       inkscape:persp3d-origin="500 : 333.33333 : 1"
       id="perspective8" />
    <inkscape:perspective
       id="perspective2822"
       inkscape:persp3d-origin="0.5 : 0.33333333 : 1"
       inkscape:vp_z="1 : 0.5 : 1"
       inkscape:vp_y="0 : 1000 : 0"
       inkscape:vp_x="0 : 0.5 : 1"
       sodipodi:type="inkscape:persp3d" />
    <inkscape:perspective
       id="perspective2836"
       inkscape:persp3d-origin="0.5 : 0.33333333 : 1"
       inkscape:vp_z="1 : 0.5 : 1"
       inkscape:vp_y="0 : 1000 : 0"
       inkscape:vp_x="0 : 0.5 : 1"
       sodipodi:type="inkscape:persp3d" />
    <inkscape:perspective
       id="perspective2850"
       inkscape:persp3d-origin="0.5 : 0.33333333 : 1"
       inkscape:vp_z="1 : 0.5 : 1"
       inkscape:vp_y="0 : 1000 : 0"
       inkscape:vp_x="0 : 0.5 : 1"
       sodipodi:type="inkscape:persp3d" />
    <inkscape:perspective
       sodipodi:type="inkscape:persp3d"
       inkscape:vp_x="0 : 526.18109 : 1"
       inkscape:vp_y="0 : 1000 : 0"
       inkscape:vp_z="744.09448 : 526.18109 : 1"
       inkscape:persp3d-origin="372.04724 : 350.78739 : 1"
       id="perspective2388" />
    <inkscape:perspective
       id="perspective8-5"
       inkscape:persp3d-origin="500 : 333.33333 : 1"
       inkscape:vp_z="1000 : 500 : 1"
       inkscape:vp_y="0 : 1000 : 0"
       inkscape:vp_x="0 : 500 : 1"
       sodipodi:type="inkscape:persp3d" />
  </defs>
  <g
     id="layer1" />
  <path
     style="color:#000000;fill:#000000;stroke:#000000;stroke-width:1px;stroke-linecap:butt;stroke-linejoin:miter;stroke-miterlimit:4;stroke-opacity:1;stroke-dasharray:none;stroke-dashoffset:0;marker:none;visibility:visible;display:inline;overflow:visible;enable-background:accumulate;fill-opacity:1"
     d="m 578.7565,351.23778 c -8.099,18.68092 -16.74094,33.80155 -30.08703,54.20671 -2.69513,4.12066 -8.7326,10.12279 -12.95791,11.2956 -111.69795,31.00374 -348.69779,89.72667 -395.12503,121.04586 -5.18917,3.50054 -2.73665,7.46463 2.47111,9.1587 145.87084,47.4513 296.04717,57.72786 434.77473,64.74957 4.51209,0.22838 9.47748,2.18548 7.67623,12.37071 -4.27104,24.15072 -12.22516,46.09159 -21.6658,67.14054 -2.39843,5.34757 -6.06468,7.66972 -11.58811,6.72468 C 348.40338,663.14619 178.5028,749.03945 -1.3439972,800 l -1.10131,-91.40969 C 83.180133,697.45165 165.18746,681.48884 246.45336,664.53745 223.90037,648.02823 106.48755,620.26938 19.593303,614.26462 c -5.93516,-0.41014 -6.91168,-3.55405 -4.68155,-8.57085 9.02615,-20.30478 17.85425,-38.76472 37.53963,-56.97816 42.30256,-39.13945 113.549147,-70.85099 190.052867,-102.17303 -44.59809,-34.6325 -80.70628,-58.65704 -51.28354,-137.79768 17.25212,-46.40436 110.63937,-139.17341 179.29261,-133.65042 65.92293,5.30333 97.77818,52.31288 115.88145,73.945 8.59676,10.27252 3.71886,13.63187 -4.95262,10.71861 -30.22284,-10.15365 -70.72012,-21.16584 -111.54655,-19.98435 -53.62934,1.55198 -105.98664,20.32696 -135.1006,65.14307 8.60941,16.14238 51.18998,75.80322 121.54622,79.30662 83.1072,4.13834 158.46933,-28.68494 212.49422,-47.6803 7.00127,-2.46168 15.25646,2.38818 9.92106,14.69465 z"
     id="path4817"
     sodipodi:nodetypes="csssssssscccssscssssscsss" />
</svg>
