<?xml version="1.0" encoding="UTF-8" standalone="no"?>
<!-- Created with Inkscape (http://www.inkscape.org/) -->

<svg
   xmlns:dc="http://purl.org/dc/elements/1.1/"
   xmlns:cc="http://creativecommons.org/ns#"
   xmlns:rdf="http://www.w3.org/1999/02/22-rdf-syntax-ns#"
   xmlns:svg="http://www.w3.org/2000/svg"
   xmlns="http://www.w3.org/2000/svg"
   xmlns:sodipodi="http://sodipodi.sourceforge.net/DTD/sodipodi-0.dtd"
   xmlns:inkscape="http://www.inkscape.org/namespaces/inkscape"
   version="1.0"
   width="1000"
   height="1000"
   id="svg5496"
   sodipodi:version="0.32"
   inkscape:version="0.47pre4 r22446"
   sodipodi:docname="ayn+meem.init.svg"
   inkscape:output_extension="org.inkscape.output.svg.inkscape">
  <metadata
     id="metadata5594">
    <rdf:RDF>
      <cc:Work
         rdf:about="">
        <dc:format>image/svg+xml</dc:format>
        <dc:type
           rdf:resource="http://purl.org/dc/dcmitype/StillImage" />
      </cc:Work>
    </rdf:RDF>
  </metadata>
  <sodipodi:namedview
     inkscape:pageshadow="2"
     inkscape:pageopacity="0.0"
     guidetolerance="10.0"
     gridtolerance="10.0"
     objecttolerance="10.0"
     borderopacity="1.0"
     bordercolor="#666666"
     pagecolor="#ffffff"
     id="base"
     showgrid="false"
     showguides="true"
     inkscape:guide-bbox="true"
     inkscape:zoom="0.6675088"
     inkscape:cx="368.64407"
     inkscape:cy="500"
     inkscape:window-x="0"
     inkscape:window-y="26"
     inkscape:current-layer="svg5496"
     inkscape:window-width="1280"
     inkscape:window-height="722"
     inkscape:window-maximized="1">
    <sodipodi:guide
       orientation="horizontal"
       position="200"
       id="guide5596" />
  </sodipodi:namedview>
  <defs
     id="defs5498">
    <inkscape:perspective
       sodipodi:type="inkscape:persp3d"
       inkscape:vp_x="0 : 500 : 1"
       inkscape:vp_y="0 : 1000 : 0"
       inkscape:vp_z="1000 : 500 : 1"
       inkscape:persp3d-origin="500 : 333.33333 : 1"
       id="perspective8" />
    <inkscape:perspective
       id="perspective2388"
       inkscape:persp3d-origin="372.04724 : 350.78739 : 1"
       inkscape:vp_z="744.09448 : 526.18109 : 1"
       inkscape:vp_y="0 : 1000 : 0"
       inkscape:vp_x="0 : 526.18109 : 1"
       sodipodi:type="inkscape:persp3d" />
    <inkscape:perspective
       id="perspective3740"
       inkscape:persp3d-origin="0.5 : 0.33333333 : 1"
       inkscape:vp_z="1 : 0.5 : 1"
       inkscape:vp_y="0 : 1000 : 0"
       inkscape:vp_x="0 : 0.5 : 1"
       sodipodi:type="inkscape:persp3d" />
  </defs>
  <g
     id="layer1"
     transform="translate(47.058824,228.29074)" />
  <path
     style="fill:#000000;fill-opacity:1;fill-rule:evenodd;stroke:#000000;stroke-width:1.06970440999999994px;stroke-linecap:butt;stroke-linejoin:miter;stroke-opacity:1"
     d="m 436.23854,206.1151 c -55.7182,0.4645 -135.8919,46.7512 -192.4062,145.5045 -17.6139,45.1342 -27.3436,92.3401 51.8024,148.5025 -52.5402,28.6309 -110.8913,35.4196 -179.9304,74.5156 C 73.9536,598.2806 63.1337,647.5482 59.863,690.0436 45.8796,704.9143 26.1508,711.3869 0.6021,714.0863 L 0,800 c 31.3992,-6.6172 57.2929,-50.6459 70.4678,-76.4382 59.37114,28.2362 157.39974,60.9711 191.93464,43.7739 27.2477,-13.5683 33.6647,-49.6573 27.7295,-94.5619 -4.5654,-34.5425 -21.7542,-59.916 -46.7994,-83.8065 113.7119,-42.3314 244.5731,-82.7617 358.8155,-127.6589 3.8062,-1.4959 12.8064,-10.3479 15.0534,-14.7855 l 32.3201,-63.8391 c 3.8151,-7.534 -0.044,-15.535 -8.871,-12.3639 -68.7773,24.7064 -146.4355,69.7671 -211.1939,64.6638 -82.4621,-6.4987 -127.1328,-57.0219 -137.1619,-83.8202 -1.8045,-4.8223 -0.9574,-9.1475 2.702,-12.4289 81.1285,-59.304 186.5487,-57.9368 240.8905,-39.6751 8.3224,2.7967 24.164,-4.8272 13.5244,-18.895 -22.2286,-29.391 -56.9145,-70.2724 -111.4355,-73.9988 -0.5648,-0.032 -1.1417,-0.045 -1.7376,-0.051 l 0,4e-4 z m -294.5609,413.8222 c 41.7989,1.0063 90.8593,34.957 96.5372,71.7619 -28.2569,-3.1902 -105.9552,-20.5737 -137.87074,-44.1686 -4.1771,-3.088 -4.4307,-8.6177 -1.3617,-11.8446 11.105,-11.487 26.33904,-16.1426 42.69524,-15.7487 z"
     id="path2394-0"
     sodipodi:nodetypes="cccsccccsscsccccscsscccccscc" />
</svg>
