<?xml version="1.0" encoding="UTF-8" standalone="no"?>
<!-- Created with Inkscape (http://www.inkscape.org/) -->
<svg
   xmlns:dc="http://purl.org/dc/elements/1.1/"
   xmlns:cc="http://creativecommons.org/ns#"
   xmlns:rdf="http://www.w3.org/1999/02/22-rdf-syntax-ns#"
   xmlns:svg="http://www.w3.org/2000/svg"
   xmlns="http://www.w3.org/2000/svg"
   xmlns:sodipodi="http://sodipodi.sourceforge.net/DTD/sodipodi-0.dtd"
   xmlns:inkscape="http://www.inkscape.org/namespaces/inkscape"
   version="1.0"
   width="1000"
   height="1000"
   id="svg5496"
   sodipodi:version="0.32"
   inkscape:version="0.46"
   sodipodi:docname="ayn.isol.svg"
   inkscape:output_extension="org.inkscape.output.svg.inkscape">
  <metadata
     id="metadata5594">
    <rdf:RDF>
      <cc:Work
         rdf:about="">
        <dc:format>image/svg+xml</dc:format>
        <dc:type
           rdf:resource="http://purl.org/dc/dcmitype/StillImage" />
      </cc:Work>
    </rdf:RDF>
  </metadata>
  <sodipodi:namedview
     inkscape:pageshadow="2"
     inkscape:pageopacity="0.0"
     guidetolerance="10.0"
     gridtolerance="10.0"
     objecttolerance="10.0"
     borderopacity="1.0"
     bordercolor="#666666"
     pagecolor="#ffffff"
     id="base"
     showgrid="false"
     showguides="true"
     inkscape:guide-bbox="true"
     inkscape:zoom="0.454"
     inkscape:cx="433.9412"
     inkscape:cy="593.18166"
     inkscape:window-x="0"
     inkscape:window-y="25"
     inkscape:current-layer="svg5496">
    <sodipodi:guide
       orientation="horizontal"
       position="200"
       id="guide5596" />
  </sodipodi:namedview>
  <defs
     id="defs5498">
    <inkscape:perspective
       sodipodi:type="inkscape:persp3d"
       inkscape:vp_x="0 : 500 : 1"
       inkscape:vp_y="0 : 1000 : 0"
       inkscape:vp_z="1000 : 500 : 1"
       inkscape:persp3d-origin="500 : 333.33333 : 1"
       id="perspective2424" />
  </defs>
  <g
     id="layer1"
     transform="translate(-165.19824,11.013216)" />
  <path
     style="fill:#000000;fill-rule:evenodd;stroke:#000000;stroke-width:1px;stroke-linecap:butt;stroke-linejoin:miter;stroke-opacity:1"
     d="M 213.17676,25.388216 C 207.38164,25.489078 201.77059,26.363498 196.48926,28.169466 C 153.46226,42.882698 101.09961,102.15228 79.770512,141.76322 C 65.200082,168.82242 54.043712,193.37897 49.083012,228.32572 C 47.205892,241.54947 49.745522,251.07713 56.520512,261.35697 C 67.840232,278.53266 91.987972,304.06324 158.95801,335.32572 C 87.768452,402.26179 33.050902,491.56737 8.5830121,620.54447 C -14.736278,743.467 -6.9537179,928.49794 203.80176,979.73197 C 280.88484,998.47064 385.7806,1002.9732 451.64551,1000.107 C 504.47776,997.78392 631.43007,950.07483 674.73926,922.23197 C 689.69051,912.62001 686.20497,903.27844 671.36426,904.20072 C 523.50671,913.38945 384.1291,919.13321 227.30176,886.41947 C 76.397972,854.82647 16.133072,738.52001 34.801762,627.85697 C 50.890172,532.48907 94.819292,439.57876 202.27051,369.85697 C 273.8251,323.4274 334.84349,286.34594 413.61426,255.66947 C 416.46853,254.55791 419.94888,250.58603 423.11426,246.10697 C 432.43073,232.92402 448.04499,200.67922 456.05176,179.10697 C 459.16599,170.71641 453.90265,164.57281 445.33301,168.38822 C 383.10292,196.09455 293.55228,256.95255 255.27051,261.13065 C 204.2107,266.70335 129.2974,243.10401 89.145512,195.60697 C 86.794722,192.82614 83.636442,186.5256 87.426762,182.20072 C 169.2847,88.797949 269.72567,89.316462 315.05176,106.88822 C 325.22012,110.83023 332.03166,106.10675 325.64551,96.169466 C 304.11178,62.661481 253.74258,24.68218 213.17676,25.388216 z"
     id="path2427"
     sodipodi:nodetypes="csssscsscsscsssssssssssc" />
</svg>
