<?xml version="1.0" encoding="UTF-8" standalone="no"?>
<!-- Created with Inkscape (http://www.inkscape.org/) -->
<svg
   xmlns:dc="http://purl.org/dc/elements/1.1/"
   xmlns:cc="http://creativecommons.org/ns#"
   xmlns:rdf="http://www.w3.org/1999/02/22-rdf-syntax-ns#"
   xmlns:svg="http://www.w3.org/2000/svg"
   xmlns="http://www.w3.org/2000/svg"
   xmlns:sodipodi="http://sodipodi.sourceforge.net/DTD/sodipodi-0.dtd"
   xmlns:inkscape="http://www.inkscape.org/namespaces/inkscape"
   version="1.0"
   width="1000"
   height="1000"
   id="svg5496"
   sodipodi:version="0.32"
   inkscape:version="0.46"
   sodipodi:docname="ayn.fina.svg"
   inkscape:output_extension="org.inkscape.output.svg.inkscape">
  <metadata
     id="metadata5594">
    <rdf:RDF>
      <cc:Work
         rdf:about="">
        <dc:format>image/svg+xml</dc:format>
        <dc:type
           rdf:resource="http://purl.org/dc/dcmitype/StillImage" />
      </cc:Work>
    </rdf:RDF>
  </metadata>
  <sodipodi:namedview
     inkscape:pageshadow="2"
     inkscape:pageopacity="0.0"
     guidetolerance="10.0"
     gridtolerance="10.0"
     objecttolerance="10.0"
     borderopacity="1.0"
     bordercolor="#666666"
     pagecolor="#ffffff"
     id="base"
     showgrid="false"
     showguides="true"
     inkscape:guide-bbox="true"
     inkscape:zoom="0.32102648"
     inkscape:cx="463.99753"
     inkscape:cy="720.39081"
     inkscape:window-x="0"
     inkscape:window-y="25"
     inkscape:current-layer="svg5496">
    <sodipodi:guide
       orientation="horizontal"
       position="200"
       id="guide5596" />
  </sodipodi:namedview>
  <defs
     id="defs5498">
    <inkscape:perspective
       sodipodi:type="inkscape:persp3d"
       inkscape:vp_x="0 : 500 : 1"
       inkscape:vp_y="0 : 1000 : 0"
       inkscape:vp_z="1000 : 500 : 1"
       inkscape:persp3d-origin="500 : 333.33333 : 1"
       id="perspective2455" />
  </defs>
  <g
     id="layer1"
     transform="translate(-164,0)" />
  <g
     id="g2457"
     transform="translate(-122.14978,-984.5815)" />
  <g
     id="g2459"
     transform="translate(-164,0)" />
  <path
     style="fill:#000000;fill-rule:evenodd;stroke:#000000;stroke-width:1px;stroke-linecap:butt;stroke-linejoin:miter;stroke-opacity:1"
     d="M 281.15625,126.03125 C 248.60555,126.05854 216.93618,136.37297 182.40625,154.65625 C 151.80341,173.17328 128.49297,200.62708 121.03125,229.03125 C 116.7381,245.37379 135.7452,247.1893 143.25,247.9375 C 172.83121,250.86484 191.75341,259.9207 209.02531,275.2335 C 212.08255,277.94397 210.68944,281.17081 208.1682,282.96826 C 194.75655,292.52972 184.85314,302.14228 172.3125,313.21875 C 95.21052,381.31877 35.6241,473.30633 9.78125,609.53125 C -13.53804,732.45378 -5.75548,917.48472 205,968.71875 C 282.08308,987.45742 386.97884,991.95998 452.84375,989.09375 C 505.676,986.7707 632.62831,939.06161 675.9375,911.21875 C 690.88875,901.60679 687.40321,892.26522 672.5625,893.1875 C 524.70495,902.37623 385.32734,908.11999 228.5,875.40625 C 77.59621,843.81325 17.33131,727.50679 36,616.84375 C 52.08841,521.47585 96.01753,428.56554 203.46875,358.84375 C 222.20358,346.6873 241.75529,334.20142 259.46585,326.09479 C 265.07688,323.52646 269.03625,322.58793 273.48009,326.22012 C 330.44372,372.7796 402.86856,427.97448 459.78125,422.9375 L 457.4375,326.78125 C 429.33029,325.83976 394.42246,316.84704 363.40625,297.34375 C 360.7184,295.65358 358.61633,292.07809 361.6875,290.21875 C 387.21277,274.7653 422.65178,248.60239 426.28125,213.46875 C 428.44319,192.54099 407.85749,171.68472 382.40625,156.3125 C 350.16513,138.16039 318.30786,127.42649 287.6875,126.15625 C 285.50866,126.06586 283.3263,126.02943 281.15625,126.03125 z"
     id="path2427"
     sodipodi:nodetypes="ccscssssscsscssssccssscsc" />
</svg>
