<?xml version="1.0" encoding="UTF-8" standalone="no"?>
<!-- Created with Inkscape (http://www.inkscape.org/) -->

<svg
   xmlns:dc="http://purl.org/dc/elements/1.1/"
   xmlns:cc="http://creativecommons.org/ns#"
   xmlns:rdf="http://www.w3.org/1999/02/22-rdf-syntax-ns#"
   xmlns:svg="http://www.w3.org/2000/svg"
   xmlns="http://www.w3.org/2000/svg"
   xmlns:sodipodi="http://sodipodi.sourceforge.net/DTD/sodipodi-0.dtd"
   xmlns:inkscape="http://www.inkscape.org/namespaces/inkscape"
   version="1.0"
   width="1000"
   height="1000"
   id="svg5496"
   sodipodi:version="0.32"
   inkscape:version="0.47pre4 r22446"
   sodipodi:docname="baa+baa.isol.svg"
   inkscape:output_extension="org.inkscape.output.svg.inkscape">
  <metadata
     id="metadata5594">
    <rdf:RDF>
      <cc:Work
         rdf:about="">
        <dc:format>image/svg+xml</dc:format>
        <dc:type
           rdf:resource="http://purl.org/dc/dcmitype/StillImage" />
        <dc:title />
      </cc:Work>
    </rdf:RDF>
  </metadata>
  <sodipodi:namedview
     inkscape:pageshadow="2"
     inkscape:pageopacity="0.0"
     borderopacity="1.0"
     bordercolor="#666666"
     pagecolor="#ffffff"
     id="base"
     showgrid="false"
     showguides="true"
     inkscape:guide-bbox="true"
     inkscape:zoom="0.454"
     inkscape:cx="819.15975"
     inkscape:cy="475.24146"
     inkscape:window-x="0"
     inkscape:window-y="24"
     inkscape:current-layer="svg5496"
     inkscape:window-maximized="1"
     inkscape:window-width="1280"
     inkscape:window-height="725">
    <sodipodi:guide
       orientation="horizontal"
       position="200"
       id="guide5596" />
  </sodipodi:namedview>
  <defs
     id="defs5498">
    <inkscape:perspective
       sodipodi:type="inkscape:persp3d"
       inkscape:vp_x="0 : 500 : 1"
       inkscape:vp_y="0 : 1000 : 0"
       inkscape:vp_z="1000 : 500 : 1"
       inkscape:persp3d-origin="500 : 333.33333 : 1"
       id="perspective3664" />
    <inkscape:perspective
       id="perspective3653"
       inkscape:persp3d-origin="0.5 : 0.33333333 : 1"
       inkscape:vp_z="1 : 0.5 : 1"
       inkscape:vp_y="0 : 1000 : 0"
       inkscape:vp_x="0 : 0.5 : 1"
       sodipodi:type="inkscape:persp3d" />
    <inkscape:perspective
       id="perspective4548"
       inkscape:persp3d-origin="0.5 : 0.33333333 : 1"
       inkscape:vp_z="1 : 0.5 : 1"
       inkscape:vp_y="0 : 1000 : 0"
       inkscape:vp_x="0 : 0.5 : 1"
       sodipodi:type="inkscape:persp3d" />
  </defs>
  <g
     id="layer1" />
  <path
     style="color:#000000;fill:#000000;stroke:#000000;stroke-width:1px;stroke-linecap:butt;stroke-linejoin:miter;stroke-miterlimit:4;stroke-opacity:1;stroke-dasharray:none;stroke-dashoffset:0;marker:none;visibility:visible;display:inline;overflow:visible;enable-background:accumulate"
     d="m 929.18078,590.99339 c -11.7033,25.90748 -24.60083,52.66907 -35.26543,79.22589 -1.02698,2.55738 0.37382,3.32216 2.22771,4.80344 4.55171,3.63688 10.28426,9.87585 13.10668,16.39172 0.52945,1.2223 -1.13608,2.19228 -6.68335,2.63423 -41.96655,3.34347 -118.79101,-13.44169 -138.40302,-25.81543 -5.19713,-3.279 -4.96303,-6.35379 -4.1448,-11.37782 2.09582,-10.20936 4.05545,-19.59463 6.1856,-29.92184 1.76856,-8.57416 -9.90654,-11.42089 -15.48866,-3.79928 -33.64484,45.93739 -51.28148,70.54549 -140.41666,92.23751 -58.88593,14.33054 -147.99199,29.55383 -250.12212,27.1933 -119.97432,-3.96207 -308.784567,-29.90347 -313.71517,-143.4588 -1.306843,-30.09753 14.298227,-60.93248 41.127075,-97.74074 4.85641,-6.66284 0.0712,-18.33703 -9.88758,-8.51904 C 44.292909,525.7822 -18.623364,629.17587 7.0152871,710.9809 27.125635,775.14683 101.09441,832.15018 294.4141,842.78149 c 169.57644,9.32558 332.84366,-34.58637 429.88174,-82.90419 4.08623,-2.03464 6.27549,-1.32362 9.72447,1.00288 33.44626,22.56113 119.50336,42.9048 159.50981,36.27752 11.16257,-1.84914 37.53847,-49.35368 49.78763,-100.12926 9.72007,-40.29194 12.41948,-82.57152 -9.87219,-106.24417 -2.11376,-2.24472 -3.00699,-2.57523 -4.26478,0.20912 z"
     id="path3726"
     sodipodi:nodetypes="cssssscssscsssssssssss" />
  <path
     style="color:#000000;fill:#ff0000;fill-opacity:0.60784314;stroke:#000000;stroke-width:1px;stroke-linecap:butt;stroke-linejoin:miter;stroke-miterlimit:4;stroke-opacity:1;stroke-dasharray:none;stroke-dashoffset:0;marker:none;visibility:visible;display:inline;overflow:visible;enable-background:accumulate"
     d="m 917.5493,557.05696 c -10.4022,26.4568 -21.9547,53.82591 -31.2873,80.87961 -0.8987,2.6052 0.5384,3.2995 2.4635,4.6869 4.7267,3.4063 10.7621,9.3529 13.9046,15.7205 0.5896,1.1945 -1.0258,2.2461 -6.5442,2.9629 -41.7488,5.4236 -83.4127,5.4279 -142.1051,-20.0203 -5.6379,-2.4445 -5.2724,-6.0994 -4.7047,-11.1579 1.5862,-10.3009 3.8522,-12.6492 4.6919,-23.1602 2.0808,-26.04601 -25.1851,-26.79451 -29.203,-9.3806 -13.0919,56.7421 -31.5792,73.4388 -119.5271,99.5309 -58.1015,17.2373 -143.505,32.5564 -258.9308,41.7689 -128.6143,10.2651 -276.317003,-18.9391 -302.582903,-132.1094 -6.811,-29.34601 11.6392,-61.04771 33.0819,-93.38191 10.2214,-15.4133 -7.1205,-24.5986 -16.5793,-14.2982 -31.7311,34.5543 -80.0139,140.94481 -50.3440999,221.37561 23.2721999,63.0881 92.5788029,118.5681 286.1879029,119.5853 169.8303,0.8924 324.7936,-42.1915 430.4154,-119.6954 3.6802,-2.7005 6.202,-1.6336 9.7623,0.5187 34.5254,20.8723 118.9111,43.9997 151.492,31.2717 18.1087,-7.0743 39.4823,-38.5736 49.1946,-89.8949 7.7071,-40.725 8.3034,-83.08641 -15.1365,-105.62281 -2.2225,-2.137 -3.1312,-2.4227 -4.2491,0.4206 z"
     id="path3726-0"
     sodipodi:nodetypes="cssssscsssssssssssssss" />
</svg>
