<?xml version="1.0" encoding="UTF-8" standalone="no"?>
<!-- Created with Inkscape (http://www.inkscape.org/) -->

<svg
   xmlns:dc="http://purl.org/dc/elements/1.1/"
   xmlns:cc="http://creativecommons.org/ns#"
   xmlns:rdf="http://www.w3.org/1999/02/22-rdf-syntax-ns#"
   xmlns:svg="http://www.w3.org/2000/svg"
   xmlns="http://www.w3.org/2000/svg"
   xmlns:sodipodi="http://sodipodi.sourceforge.net/DTD/sodipodi-0.dtd"
   xmlns:inkscape="http://www.inkscape.org/namespaces/inkscape"
   version="1.0"
   width="1000"
   height="1000"
   id="svg5496"
   sodipodi:version="0.32"
   inkscape:version="0.47pre4 r22446"
   sodipodi:docname="baa+meem+haa.init.svg"
   inkscape:output_extension="org.inkscape.output.svg.inkscape">
  <metadata
     id="metadata5594">
    <rdf:RDF>
      <cc:Work
         rdf:about="">
        <dc:format>image/svg+xml</dc:format>
        <dc:type
           rdf:resource="http://purl.org/dc/dcmitype/StillImage" />
        <dc:title />
      </cc:Work>
    </rdf:RDF>
  </metadata>
  <sodipodi:namedview
     inkscape:window-height="703"
     inkscape:pageshadow="2"
     inkscape:pageopacity="0.0"
     borderopacity="1.0"
     bordercolor="#666666"
     pagecolor="#ffffff"
     id="base"
     showgrid="false"
     showguides="true"
     inkscape:guide-bbox="true"
     inkscape:zoom="0.64205296"
     inkscape:cx="107.5884"
     inkscape:cy="439.10115"
     inkscape:window-x="0"
     inkscape:window-y="0"
     inkscape:current-layer="svg5496"
     inkscape:window-width="947"
     inkscape:window-maximized="1">
    <sodipodi:guide
       orientation="horizontal"
       position="200"
       id="guide5596" />
  </sodipodi:namedview>
  <defs
     id="defs5498">
    <inkscape:perspective
       sodipodi:type="inkscape:persp3d"
       inkscape:vp_x="0 : 500 : 1"
       inkscape:vp_y="0 : 1000 : 0"
       inkscape:vp_z="1000 : 500 : 1"
       inkscape:persp3d-origin="500 : 333.33333 : 1"
       id="perspective8" />
    <inkscape:perspective
       id="perspective2822"
       inkscape:persp3d-origin="0.5 : 0.33333333 : 1"
       inkscape:vp_z="1 : 0.5 : 1"
       inkscape:vp_y="0 : 1000 : 0"
       inkscape:vp_x="0 : 0.5 : 1"
       sodipodi:type="inkscape:persp3d" />
    <inkscape:perspective
       id="perspective4951"
       inkscape:persp3d-origin="0.5 : 0.33333333 : 1"
       inkscape:vp_z="1 : 0.5 : 1"
       inkscape:vp_y="0 : 1000 : 0"
       inkscape:vp_x="0 : 0.5 : 1"
       sodipodi:type="inkscape:persp3d" />
    <inkscape:perspective
       id="perspective2854"
       inkscape:persp3d-origin="0.5 : 0.33333333 : 1"
       inkscape:vp_z="1 : 0.5 : 1"
       inkscape:vp_y="0 : 1000 : 0"
       inkscape:vp_x="0 : 0.5 : 1"
       sodipodi:type="inkscape:persp3d" />
  </defs>
  <g
     id="layer1" />
  <path
     style="color:#000000;fill:#ff0000;fill-opacity:0.60784314;stroke:#000000;stroke-width:1;stroke-linecap:butt;stroke-linejoin:miter;stroke-miterlimit:4;stroke-opacity:1;stroke-dasharray:none;stroke-dashoffset:0;marker:none;visibility:visible;display:inline;overflow:visible;enable-background:accumulate"
     d="m 411.5866,140.838 c -40.1182,6.625 -95.0503,41.46 -130.863,122.25 -16.9969,38.342 -17.5512,103.156 2.4516,161.304 C 181.0162,455.728 79.4308,521.294 56.561,533.22 26.33,548.985 6.4085,570.69 -0.1904,615.066 c -0.615,4.136 2.6654,7.855 6.5236,7.94 60.2484,1.343 123.8354,8.136 234.5159,39.983 C 161.3433,684.386 88.594099,700.364 0.035,709.116 L 0,800 c 168.7113,-52.14 325.2327,-127.689 490.3633,-102.897 5.9687,0.896 7.3413,-1.424 11.5519,-5.174 25.0097,-22.274 34.2433,-37.948 46.2352,-59.122 7.9981,-14.121 -2.1868,-22.029 -12.344,-21.354 -161.8519,10.742 -297.0598,-29.225 -407.0146,-57.02 -2.7372,-0.693 -6.9407,-2.158 -4.6491,-3.456 169.6923,-96.145 228.3557,-67.881 330.3002,-17.879 5.361,2.63 10.19,1.236 11.4801,-2.883 l 25.3678,-69.503 c 2.139,-6.828 -1.3753,-10.816 -3.4527,-12.918 -23.0598,-23.332 -56.0032,-32.916 -85.4041,-39.952 -58.914,-14.098 -88.9016,-94.48 -93.7873,-119.394 -1.209,-6.165 -0.7772,-12.442 3.2789,-16.485 74.2122,-73.948 127.4498,-28.971 152.8336,-7.873 7.5606,6.284 13.49,4.748 18.0993,-8.446 8.2452,-23.601 14.9345,-43.21 21.5229,-68.435 0.8244,-3.156 -0.3867,-8.606 -2.2707,-10.845 -23.8725,-26.835 -61.0487,-39.671 -90.5241,-35.526 z"
     id="path2828-7"
     sodipodi:nodetypes="cscssscccsssssssccssssssscc" />
  <path
     sodipodi:nodetypes="csscssssssss"
     id="path2825"
     d="m 56.561,533.22 c -30.261789,15.7054 -50.1525,37.47 -56.7514,81.846 -0.615,4.136 2.6654,7.855 6.5236,7.94 60.2484,1.343 123.8354,8.136 234.5159,39.983 C 161.3433,684.386 88.595186,700.37502 0.035,709.116 -38.808609,712.9499 -30.021733,809.28909 0,800 168.69395,747.80406 325.2327,672.311 490.3633,697.103 c 5.9687,0.896 7.3413,-1.424 11.5519,-5.174 25.0097,-22.274 34.2433,-37.948 46.2352,-59.122 7.9981,-14.121 -2.1868,-22.029 -12.344,-21.354 C 373.9545,622.195 238.73481,582.27444 128.7918,554.433 100.72493,547.32548 66.873998,527.86771 56.561,533.22 z"
     style="color:#000000;fill:#ff0000;fill-opacity:0.60784314;stroke:#000000;stroke-width:1;stroke-linecap:butt;stroke-linejoin:miter;stroke-miterlimit:4;stroke-opacity:1;stroke-dasharray:none;stroke-dashoffset:0;marker:none;visibility:visible;display:inline;overflow:visible;enable-background:accumulate" />
  <path
     style="color:#000000;fill:#ff0000;fill-opacity:0.60784314;stroke:#000000;stroke-width:1;stroke-linecap:butt;stroke-linejoin:miter;stroke-miterlimit:4;stroke-opacity:1;stroke-dasharray:none;stroke-dashoffset:0;marker:none;visibility:visible;display:inline;overflow:visible;enable-background:accumulate"
     d="M 283.1752,424.392 C 180.9281,455.43402 79.13447,520.75789 56.561,533.22 c -21.640132,11.94685 14.666088,47.7466 67.5817,17.757 169.68069,-96.16548 228.3557,-67.881 330.3002,-17.879 5.361,2.63 10.19,1.236 11.4801,-2.883 l 25.3678,-69.503 c 2.139,-6.828 -1.3753,-10.816 -3.4527,-12.918 -23.0598,-23.332 -55.90951,-33.33142 -85.4041,-39.952 -34.38181,-7.7176 -89.98524,7.6626 -119.2588,16.55 z"
     id="path2827"
     sodipodi:nodetypes="csssccsss" />
  <path
     sodipodi:nodetypes="csssssssscc"
     id="path2829"
     d="m 411.5866,140.838 c -40.1182,6.625 -95.0503,41.46 -130.863,122.25 -16.9969,38.342 -17.81328,103.24736 2.4516,161.304 24.9995,71.62079 162.05867,-9.32232 119.2588,-16.55 -54.73992,-9.24401 -88.9016,-94.48 -93.7873,-119.394 -1.209,-6.165 -0.7772,-12.442 3.2789,-16.485 74.2122,-73.948 127.4498,-28.971 152.8336,-7.873 7.5606,6.284 13.49,4.748 18.0993,-8.446 8.2452,-23.601 14.9345,-43.21 21.5229,-68.435 0.8244,-3.156 -0.3867,-8.606 -2.2707,-10.845 -23.8725,-26.835 -61.0487,-39.671 -90.5241,-35.526 z"
     style="color:#000000;fill:#ff0000;fill-opacity:0.60784314;stroke:#000000;stroke-width:1;stroke-linecap:butt;stroke-linejoin:miter;stroke-miterlimit:4;stroke-opacity:1;stroke-dasharray:none;stroke-dashoffset:0;marker:none;visibility:visible;display:inline;overflow:visible;enable-background:accumulate" />
</svg>
