<?xml version="1.0" encoding="UTF-8" standalone="no"?>
<!-- Created with Inkscape (http://www.inkscape.org/) -->

<svg
   xmlns:dc="http://purl.org/dc/elements/1.1/"
   xmlns:cc="http://creativecommons.org/ns#"
   xmlns:rdf="http://www.w3.org/1999/02/22-rdf-syntax-ns#"
   xmlns:svg="http://www.w3.org/2000/svg"
   xmlns="http://www.w3.org/2000/svg"
   xmlns:sodipodi="http://sodipodi.sourceforge.net/DTD/sodipodi-0.dtd"
   xmlns:inkscape="http://www.inkscape.org/namespaces/inkscape"
   version="1.0"
   width="1000"
   height="1000"
   id="svg5496"
   sodipodi:version="0.32"
   inkscape:version="0.47pre4 r22446"
   sodipodi:docname="baa+noon.fina.svg"
   inkscape:output_extension="org.inkscape.output.svg.inkscape">
  <metadata
     id="metadata5594">
    <rdf:RDF>
      <cc:Work
         rdf:about="">
        <dc:format>image/svg+xml</dc:format>
        <dc:type
           rdf:resource="http://purl.org/dc/dcmitype/StillImage" />
        <dc:title />
      </cc:Work>
    </rdf:RDF>
  </metadata>
  <sodipodi:namedview
     inkscape:window-height="725"
     inkscape:pageshadow="2"
     inkscape:pageopacity="0.0"
     borderopacity="1.0"
     bordercolor="#666666"
     pagecolor="#ffffff"
     id="base"
     showgrid="false"
     showguides="true"
     inkscape:guide-bbox="true"
     inkscape:zoom="0.454"
     inkscape:cx="580.89573"
     inkscape:cy="556.39976"
     inkscape:window-x="0"
     inkscape:window-y="24"
     inkscape:current-layer="svg5496"
     inkscape:window-width="1280"
     inkscape:window-maximized="1">
    <sodipodi:guide
       orientation="horizontal"
       position="200"
       id="guide5596" />
  </sodipodi:namedview>
  <defs
     id="defs5498">
    <inkscape:perspective
       sodipodi:type="inkscape:persp3d"
       inkscape:vp_x="0 : 500 : 1"
       inkscape:vp_y="0 : 1000 : 0"
       inkscape:vp_z="1000 : 500 : 1"
       inkscape:persp3d-origin="500 : 333.33333 : 1"
       id="perspective8" />
    <inkscape:perspective
       id="perspective2822"
       inkscape:persp3d-origin="0.5 : 0.33333333 : 1"
       inkscape:vp_z="1 : 0.5 : 1"
       inkscape:vp_y="0 : 1000 : 0"
       inkscape:vp_x="0 : 0.5 : 1"
       sodipodi:type="inkscape:persp3d" />
    <inkscape:perspective
       id="perspective4152"
       inkscape:persp3d-origin="0.5 : 0.33333333 : 1"
       inkscape:vp_z="1 : 0.5 : 1"
       inkscape:vp_y="0 : 1000 : 0"
       inkscape:vp_x="0 : 0.5 : 1"
       sodipodi:type="inkscape:persp3d" />
  </defs>
  <g
     id="layer1"
     transform="translate(40.281938,293.33895)" />
  <path
     style="color:#000000;fill:#ff0000;fill-opacity:0.60784314;stroke:#000000;stroke-width:1;stroke-linecap:butt;stroke-linejoin:miter;stroke-miterlimit:4;stroke-opacity:1;stroke-dasharray:none;stroke-dashoffset:0;marker:none;visibility:visible;display:inline;overflow:visible;enable-background:accumulate"
     d="m 708.2156,800 c -30.1849,-3.5911 -47.4443,-12.1521 -60.73784,-35.8023 -14.1627,-25.1969 -26.87528,-71.8389 -41.08079,-166.5853 -0.57023,-3.80319 -2.08095,-3.87279 -3.77961,-0.61409 -11.59022,22.23489 -37.16121,60.66549 -88.12882,68.36399 -3.89778,0.5887 -3.41906,1.4527 -3.30041,4.9775 1.23463,36.6537 2.69077,91.6532 -17.51766,148.5917 -32.11826,90.4956 -118.08908,176.4398 -280.9927,182.0317 -228.342565,7.8023 -227.234355,-156.207 -201.225105,-239.9762 13.66485,-44.0111 27.6362,-89.1621 53.987975,-130.4746 13.93021,-21.8388 31.41059,-16.4891 19.3871,6.8117 -14.64868,28.3882 -67.223225,121.8485 -39.814115,190.9282 17.312125,43.6319 76.056085,86.2029 172.931635,79.42 141.40284,-9.9003 229.27124,-67.2057 255.71043,-117.1901 0.8367,-1.5819 1.54721,-3.9793 1.90822,-5.7264 5.03108,-24.3465 -9.11926,-113.0832 -37.73852,-162.084 -3.2791,-5.6143 -0.3846,-8.7133 0.72089,-12.9007 l 17.50746,-66.31489 c 1.40698,-5.3294 1.17476,-5.8436 5.94541,-3.3931 15.08323,7.7477 26.35964,39.7458 36.10274,42.5877 60.66705,10.8935 93.64448,-22.5262 115.92049,-72.5963 7.39402,-16.7624 23.94947,-17.0353 25.93689,3.3796 3.95094,40.5842 15.12271,134.93809 28.71663,164.15759 9.7255,20.9046 19.2239,29.7087 39.6602,33.5335 L 708.2156,800 z"
     id="path2828-0"
     sodipodi:nodetypes="cssssssssssssssssssccsscc" />
</svg>
