<?xml version="1.0" encoding="UTF-8" standalone="no"?>
<!-- Created with Inkscape (http://www.inkscape.org/) -->

<svg
   xmlns:dc="http://purl.org/dc/elements/1.1/"
   xmlns:cc="http://creativecommons.org/ns#"
   xmlns:rdf="http://www.w3.org/1999/02/22-rdf-syntax-ns#"
   xmlns:svg="http://www.w3.org/2000/svg"
   xmlns="http://www.w3.org/2000/svg"
   xmlns:sodipodi="http://sodipodi.sourceforge.net/DTD/sodipodi-0.dtd"
   xmlns:inkscape="http://www.inkscape.org/namespaces/inkscape"
   version="1.0"
   width="1000"
   height="1000"
   id="svg5496"
   sodipodi:version="0.32"
   inkscape:version="0.47pre4 r22446"
   sodipodi:docname="baa+meem.init.svg"
   inkscape:output_extension="org.inkscape.output.svg.inkscape">
  <metadata
     id="metadata5594">
    <rdf:RDF>
      <cc:Work
         rdf:about="">
        <dc:format>image/svg+xml</dc:format>
        <dc:type
           rdf:resource="http://purl.org/dc/dcmitype/StillImage" />
      </cc:Work>
    </rdf:RDF>
  </metadata>
  <sodipodi:namedview
     inkscape:pageshadow="2"
     inkscape:pageopacity="0.0"
     guidetolerance="10.0"
     gridtolerance="10.0"
     objecttolerance="10.0"
     borderopacity="1.0"
     bordercolor="#666666"
     pagecolor="#ffffff"
     id="base"
     showgrid="false"
     showguides="true"
     inkscape:guide-bbox="true"
     inkscape:zoom="0.236"
     inkscape:cx="500"
     inkscape:cy="500"
     inkscape:window-x="0"
     inkscape:window-y="24"
     inkscape:current-layer="svg5496"
     inkscape:window-width="1280"
     inkscape:window-height="725"
     inkscape:window-maximized="1">
    <sodipodi:guide
       orientation="horizontal"
       position="200"
       id="guide5596" />
  </sodipodi:namedview>
  <defs
     id="defs5498">
    <inkscape:perspective
       sodipodi:type="inkscape:persp3d"
       inkscape:vp_x="0 : 500 : 1"
       inkscape:vp_y="0 : 1000 : 0"
       inkscape:vp_z="1000 : 500 : 1"
       inkscape:persp3d-origin="500 : 333.33333 : 1"
       id="perspective8" />
    <inkscape:perspective
       id="perspective2388"
       inkscape:persp3d-origin="372.04724 : 350.78739 : 1"
       inkscape:vp_z="744.09448 : 526.18109 : 1"
       inkscape:vp_y="0 : 1000 : 0"
       inkscape:vp_x="0 : 526.18109 : 1"
       sodipodi:type="inkscape:persp3d" />
    <inkscape:perspective
       id="perspective4796"
       inkscape:persp3d-origin="0.5 : 0.33333333 : 1"
       inkscape:vp_z="1 : 0.5 : 1"
       inkscape:vp_y="0 : 1000 : 0"
       inkscape:vp_x="0 : 0.5 : 1"
       sodipodi:type="inkscape:persp3d" />
  </defs>
  <g
     id="layer1"
     transform="matrix(1.3,0,0,1.3,-443.77435,124.22907)" />
  <path
     style="fill:#ff0000;fill-opacity:0.60784314;fill-rule:evenodd;stroke:#000000;stroke-width:1;stroke-linecap:butt;stroke-linejoin:miter;stroke-miterlimit:4;stroke-opacity:1;stroke-dasharray:none"
     d="m 331.4018,451.22643 c 6.7532,5.8531 10.5486,3.8852 14.0311,-1.3363 14.5391,-21.799 22.5533,-44.903 28.2307,-68.4745 2.5145,-10.4396 -3.9103,-17.2367 -10.1907,-23.73 -24.5249,-25.3561 -56.4495,-33.8395 -88.2207,-33.2147 -32.1925,0.6331 -87.5017,37.0044 -125.1876,88.4727 -17.7959,24.3043 -30.6237,53.274 -37.1475,81.04427 -15.8072,67.2889 -0.766,140.77 23.9117,172.0311 C 113.857,688.0454 51.8557,712.9118 0.4061,709.7018 L 0,800 c 78.6715,-3.3444 120.0803,-58.9071 170.0439,-59.4652 41.7558,-2.1001 57.5939,11.3715 116.2578,39.4208 11.8782,5.6794 14.0213,-2.3207 15.7015,-8.0178 l 21.3808,-72.4941 c 2.8383,-9.6237 -5.3701,-19.6489 -12.3608,-24.7215 -39.2396,-28.4738 -76.6313,-36.1998 -108.24,-58.7971 -18.1499,-12.9756 -52.2879,-63.3882 -60.3633,-102.2226 -0.7958,-3.8272 -0.3646,-7.9193 1.3888,-11.7232 16.1845,-35.11107 45.0324,-58.81817 74.0078,-73.46997 35.9955,-18.2015 75.4056,-10.3739 113.5853,22.7171 z"
     id="path2394-6"
     sodipodi:nodetypes="cssssssccccsssssssss" />
</svg>
