<?xml version="1.0" encoding="UTF-8" standalone="no"?>
<!-- Created with Inkscape (http://www.inkscape.org/) -->

<svg
   xmlns:dc="http://purl.org/dc/elements/1.1/"
   xmlns:cc="http://creativecommons.org/ns#"
   xmlns:rdf="http://www.w3.org/1999/02/22-rdf-syntax-ns#"
   xmlns:svg="http://www.w3.org/2000/svg"
   xmlns="http://www.w3.org/2000/svg"
   xmlns:sodipodi="http://sodipodi.sourceforge.net/DTD/sodipodi-0.dtd"
   xmlns:inkscape="http://www.inkscape.org/namespaces/inkscape"
   version="1.0"
   width="1000"
   height="1000"
   id="svg5496"
   sodipodi:version="0.32"
   inkscape:version="0.47pre4 r22446"
   sodipodi:docname="baa+daal.isol.svg"
   inkscape:output_extension="org.inkscape.output.svg.inkscape">
  <metadata
     id="metadata5594">
    <rdf:RDF>
      <cc:Work
         rdf:about="">
        <dc:format>image/svg+xml</dc:format>
        <dc:type
           rdf:resource="http://purl.org/dc/dcmitype/StillImage" />
      </cc:Work>
    </rdf:RDF>
  </metadata>
  <sodipodi:namedview
     inkscape:pageshadow="2"
     inkscape:pageopacity="0.0"
     guidetolerance="10.0"
     gridtolerance="10.0"
     objecttolerance="10.0"
     borderopacity="1.0"
     bordercolor="#666666"
     pagecolor="#ffffff"
     id="base"
     showgrid="false"
     showguides="true"
     inkscape:guide-bbox="true"
     inkscape:zoom="0.908"
     inkscape:cx="160.29664"
     inkscape:cy="207.28506"
     inkscape:window-x="0"
     inkscape:window-y="0"
     inkscape:current-layer="svg5496"
     inkscape:window-width="1278"
     inkscape:window-height="767"
     inkscape:window-maximized="1">
    <sodipodi:guide
       orientation="horizontal"
       position="200"
       id="guide5596" />
  </sodipodi:namedview>
  <defs
     id="defs5498">
    <inkscape:perspective
       sodipodi:type="inkscape:persp3d"
       inkscape:vp_x="0 : 500 : 1"
       inkscape:vp_y="0 : 1000 : 0"
       inkscape:vp_z="1000 : 500 : 1"
       inkscape:persp3d-origin="500 : 333.33333 : 1"
       id="perspective2426" />
    <inkscape:perspective
       id="perspective3768"
       inkscape:persp3d-origin="0.5 : 0.33333333 : 1"
       inkscape:vp_z="1 : 0.5 : 1"
       inkscape:vp_y="0 : 1000 : 0"
       inkscape:vp_x="0 : 0.5 : 1"
       sodipodi:type="inkscape:persp3d" />
    <inkscape:perspective
       id="perspective2825"
       inkscape:persp3d-origin="0.5 : 0.33333333 : 1"
       inkscape:vp_z="1 : 0.5 : 1"
       inkscape:vp_y="0 : 1000 : 0"
       inkscape:vp_x="0 : 0.5 : 1"
       sodipodi:type="inkscape:persp3d" />
  </defs>
  <path
     style="fill:#ff0000;fill-opacity:0.60784314;fill-rule:evenodd;stroke:#000000;stroke-width:0;stroke-linecap:butt;stroke-linejoin:miter;stroke-miterlimit:4;stroke-opacity:1;stroke-dasharray:none"
     d="m 412.29341,686.80326 c -42.58218,-24.63435 -97.738,-239.352 -126.153,-367.3594 -4.594,-20.6931 -16.918,-19.1625 -19.857,-12.2647 -10.943,25.6799 -16.355,43.1702 -20.237,60.6764 -2.719,12.2529 -2.453,25.5751 0.01,37.5219 18.656,90.3313 58.218,183.8458 40.08,213.6774 -14.322,23.5543 -36.893,45.6791 -113.636,66.4407 -46.731,12.6426 -92.07102,20.9833 -120.39402,3.826 -14.466,-8.7632 -18.426,-21.1332 -22.687,-32.706 -3.44802,-9.3665 -13.57602,-4.7366 -14.69102,-1.1681 -24.944,79.7598 -13.88608817,126.00083 14.00302,137.5862 55.567598,23.08325 184.59402,-14.1643 236.26102,-66.1515 17.131,-19.7392 32.376,-74.7594 37.09,-98.754 0.871,-4.4343 6.341,-3.5447 7.457,-0.5723 26.88,71.629 50.57463,178.04936 146.953,168.2913 52.7875,-5.3446 -16.93541,-93.27155 -44.199,-109.0439 z"
     id="path2418-4-9"
     sodipodi:nodetypes="csssssssssscssss" />
  <g
     id="layer1"
     transform="translate(-50.660793,19.87494)" />
  <g
     id="layer1-3"
     transform="translate(-50.62283,19.807276)" />
  <path
     sodipodi:nodetypes="csssssssscc"
     id="path2815"
     d="m 460.94141,603.06216 c -1.402,5.0808 0.08,7.7964 3.456,11.3194 14.512,15.1398 38.54,52.2189 35.728,63.91 -1.054,4.3807 -3.638,6.7684 -7.621,8.3304 -20.616,8.0872 -61.52493,11.24193 -80.211,0.1813 -29.91039,-17.70451 -63.13753,57.79644 -28.77001,87.3801 15.8795,13.66911 39.40067,25.48535 72.96901,21.6638 48.53066,-5.52493 63.037,-38.2766 70.203,-91.2429 7.889,-58.3211 -0.515,-140.5578 -26.911,-184.6134 -7.413,-12.3721 -14.023,-7.3346 -17.006,-1.805 -8.503,29.2228 -16.841,55.6327 -21.837,84.8763 z"
     style="fill:#ff0000;fill-opacity:0.60784314;fill-rule:evenodd;stroke:#000000;stroke-width:0;stroke-linecap:butt;stroke-linejoin:miter;stroke-miterlimit:4;stroke-opacity:1;stroke-dasharray:none" />
</svg>
