<?xml version="1.0" encoding="UTF-8" standalone="no"?>
<!-- Created with Inkscape (http://www.inkscape.org/) -->

<svg
   xmlns:dc="http://purl.org/dc/elements/1.1/"
   xmlns:cc="http://creativecommons.org/ns#"
   xmlns:rdf="http://www.w3.org/1999/02/22-rdf-syntax-ns#"
   xmlns:svg="http://www.w3.org/2000/svg"
   xmlns="http://www.w3.org/2000/svg"
   xmlns:sodipodi="http://sodipodi.sourceforge.net/DTD/sodipodi-0.dtd"
   xmlns:inkscape="http://www.inkscape.org/namespaces/inkscape"
   version="1.0"
   width="1000"
   height="1000"
   id="svg5496"
   sodipodi:version="0.32"
   inkscape:version="0.47pre4 r22446"
   sodipodi:docname="baa+baa+meem.init.svg"
   inkscape:output_extension="org.inkscape.output.svg.inkscape">
  <metadata
     id="metadata5594">
    <rdf:RDF>
      <cc:Work
         rdf:about="">
        <dc:format>image/svg+xml</dc:format>
        <dc:type
           rdf:resource="http://purl.org/dc/dcmitype/StillImage" />
      </cc:Work>
    </rdf:RDF>
  </metadata>
  <sodipodi:namedview
     inkscape:window-height="725"
     inkscape:window-width="1280"
     inkscape:pageshadow="2"
     inkscape:pageopacity="0.0"
     guidetolerance="10.0"
     gridtolerance="10.0"
     objecttolerance="10.0"
     borderopacity="1.0"
     bordercolor="#666666"
     pagecolor="#ffffff"
     id="base"
     showgrid="false"
     showguides="true"
     inkscape:guide-bbox="true"
     inkscape:zoom="0.64205296"
     inkscape:cx="152.86313"
     inkscape:cy="461.73996"
     inkscape:window-x="0"
     inkscape:window-y="24"
     inkscape:current-layer="svg5496"
     inkscape:window-maximized="0">
    <sodipodi:guide
       orientation="horizontal"
       position="200"
       id="guide5596" />
  </sodipodi:namedview>
  <defs
     id="defs5498">
    <inkscape:perspective
       sodipodi:type="inkscape:persp3d"
       inkscape:vp_x="0 : 500 : 1"
       inkscape:vp_y="0 : 1000 : 0"
       inkscape:vp_z="1000 : 500 : 1"
       inkscape:persp3d-origin="500 : 333.33333 : 1"
       id="perspective3206" />
    <inkscape:perspective
       id="perspective3215"
       inkscape:persp3d-origin="372.04724 : 350.78739 : 1"
       inkscape:vp_z="744.09448 : 526.18109 : 1"
       inkscape:vp_y="0 : 1000 : 0"
       inkscape:vp_x="0 : 526.18109 : 1"
       sodipodi:type="inkscape:persp3d" />
    <inkscape:perspective
       id="perspective7915"
       inkscape:persp3d-origin="0.5 : 0.33333333 : 1"
       inkscape:vp_z="1 : 0.5 : 1"
       inkscape:vp_y="0 : 1000 : 0"
       inkscape:vp_x="0 : 0.5 : 1"
       sodipodi:type="inkscape:persp3d" />
    <inkscape:perspective
       sodipodi:type="inkscape:persp3d"
       inkscape:vp_x="0 : 0.5 : 1"
       inkscape:vp_y="0 : 1000 : 0"
       inkscape:vp_z="1 : 0.5 : 1"
       inkscape:persp3d-origin="0.5 : 0.33333333 : 1"
       id="perspective2974" />
    <inkscape:perspective
       id="perspective2986"
       inkscape:persp3d-origin="500 : 333.33333 : 1"
       inkscape:vp_z="1000 : 500 : 1"
       inkscape:vp_y="0 : 1000 : 0"
       inkscape:vp_x="0 : 500 : 1"
       sodipodi:type="inkscape:persp3d" />
    <inkscape:perspective
       id="perspective2844"
       inkscape:persp3d-origin="0.5 : 0.33333333 : 1"
       inkscape:vp_z="1 : 0.5 : 1"
       inkscape:vp_y="0 : 1000 : 0"
       inkscape:vp_x="0 : 0.5 : 1"
       sodipodi:type="inkscape:persp3d" />
  </defs>
  <path
     style="fill:#ff0000;fill-opacity:0.60784314;fill-rule:evenodd;stroke:#000000;stroke-width:1;stroke-linecap:butt;stroke-linejoin:miter;stroke-miterlimit:4;stroke-opacity:1;stroke-dasharray:none"
     d="m 380.4551,466.0354 c -26.81148,0.51788 -46.98083,-13.38737 -66.8629,-34.2609 -21.97553,-23.07137 -28.8148,-47.6482 -56.9291,-49.7568 -27.7203,-2.0791 -112.04081,39.92681 -140.615,139.8589 -4.97809,17.40979 8.13466,10.30508 21.567,-5.4858 23.70523,-27.86757 50.2832,-43.53821 79.158,-50.22 10.97066,-2.53867 26.58402,-2.04341 33.572,6.954 28.32212,36.46629 70.42838,79.43271 106.763,81.1646 7.9026,0.37668 19.51264,-2.87462 28.80743,-45.22019 6.79703,-30.96623 5.43162,-43.2442 -5.46043,-43.03381 z"
     id="path2862"
     sodipodi:nodetypes="csssssssss" />
  <g
     id="layer1" />
  <g
     id="layer1-0"
     transform="translate(27.008758,-395.69443)" />
  <path
     sodipodi:nodetypes="cssszssssssssss"
     id="path2858"
     d="m 116.0481,521.8766 c -14.09672,47.66187 -16.0968,88.5685 -6.0948,136.8299 2.1198,10.2284 -0.6266,14.2736 -5.9376,18.0446 -21.1614,15.024 -42.940999,29.5705 -103.9487,33.4192 -23.84507,1.50428 -24.903223,25.59752 -23.434963,47.97295 C -21.899702,780.51868 -18.998007,801.30788 0,800 c 45.11122,-3.1056 129.1718,-65.8108 167.3242,-63.0149 29.6313,2.1714 73.3598,30.6948 106.7028,52.3864 4.9651,3.2301 12.8398,7.8204 18.5504,-4.9841 10.2256,-22.9282 16.7896,-41.5661 25.801,-67.3001 6.9175,-19.7546 -2.3441,-26.1287 -17.0912,-32.2979 -42.5492,-17.7998 -75.7768,-24.6907 -110.5292,-53.605 -29.7133,-24.7217 -46.2961,-62.9473 -56.5871,-95.4646 -1.267,-4.0032 -1.58567,-13.32636 3.4442,-19.329 30.57468,-36.48781 -1.95583,-60.82077 -21.567,5.4858 z"
     style="fill:#ff0000;fill-opacity:0.60784314;fill-rule:evenodd;stroke:#000000;stroke-width:1;stroke-linecap:butt;stroke-linejoin:miter;stroke-miterlimit:4;stroke-opacity:1;stroke-dasharray:none" />
  <path
     sodipodi:nodetypes="cssssss"
     id="path2864"
     d="m 380.4551,466.0354 c -18.09157,0.17005 -25.51574,16.91981 -31.02883,38.16055 -10.2464,39.47719 -5.85685,49.00817 7.68183,50.09345 31.02337,2.48689 56.68022,-17.36829 73.1862,-43.9778 15.89442,-25.62359 26.5652,-65.79957 35.4171,-106.05318 3.54218,-16.10791 -15.419,-25.31995 -21.48514,-7.25649 -12.81194,38.15079 -36.65923,68.77864 -63.77116,69.03347 z"
     style="fill:#ff0000;fill-opacity:0.60784314;fill-rule:evenodd;stroke:#000000;stroke-width:1;stroke-linecap:butt;stroke-linejoin:miter;stroke-miterlimit:4;stroke-opacity:1;stroke-dasharray:none" />
</svg>
