<?xml version="1.0" encoding="UTF-8" standalone="no"?>
<!-- Created with Inkscape (http://www.inkscape.org/) -->
<svg
   xmlns:dc="http://purl.org/dc/elements/1.1/"
   xmlns:cc="http://creativecommons.org/ns#"
   xmlns:rdf="http://www.w3.org/1999/02/22-rdf-syntax-ns#"
   xmlns:svg="http://www.w3.org/2000/svg"
   xmlns="http://www.w3.org/2000/svg"
   xmlns:sodipodi="http://sodipodi.sourceforge.net/DTD/sodipodi-0.dtd"
   xmlns:inkscape="http://www.inkscape.org/namespaces/inkscape"
   version="1.0"
   width="1000"
   height="1000"
   id="svg5496"
   sodipodi:version="0.32"
   inkscape:version="0.46"
   sodipodi:docname="baa+haa.init.svg"
   inkscape:output_extension="org.inkscape.output.svg.inkscape">
  <metadata
     id="metadata5594">
    <rdf:RDF>
      <cc:Work
         rdf:about="">
        <dc:format>image/svg+xml</dc:format>
        <dc:type
           rdf:resource="http://purl.org/dc/dcmitype/StillImage" />
      </cc:Work>
    </rdf:RDF>
  </metadata>
  <sodipodi:namedview
     inkscape:pageshadow="2"
     inkscape:pageopacity="0.0"
     guidetolerance="10.0"
     gridtolerance="10.0"
     objecttolerance="10.0"
     borderopacity="1.0"
     bordercolor="#666666"
     pagecolor="#ffffff"
     id="base"
     showgrid="false"
     showguides="true"
     inkscape:guide-bbox="true"
     inkscape:zoom="0.51"
     inkscape:cx="500"
     inkscape:cy="500"
     inkscape:window-x="0"
     inkscape:window-y="25"
     inkscape:current-layer="svg5496">
    <sodipodi:guide
       orientation="horizontal"
       position="200"
       id="guide5596" />
  </sodipodi:namedview>
  <defs
     id="defs5498">
    <inkscape:perspective
       sodipodi:type="inkscape:persp3d"
       inkscape:vp_x="0 : 500 : 1"
       inkscape:vp_y="0 : 1000 : 0"
       inkscape:vp_z="1000 : 500 : 1"
       inkscape:persp3d-origin="500 : 333.33333 : 1"
       id="perspective8" />
    <inkscape:perspective
       id="perspective2477"
       inkscape:persp3d-origin="372.04724 : 350.78739 : 1"
       inkscape:vp_z="744.09448 : 526.18109 : 1"
       inkscape:vp_y="0 : 1000 : 0"
       inkscape:vp_x="0 : 526.18109 : 1"
       sodipodi:type="inkscape:persp3d" />
    <inkscape:perspective
       id="perspective2574"
       inkscape:persp3d-origin="372.04724 : 350.78739 : 1"
       inkscape:vp_z="744.09448 : 526.18109 : 1"
       inkscape:vp_y="0 : 1000 : 0"
       inkscape:vp_x="0 : 526.18109 : 1"
       sodipodi:type="inkscape:persp3d" />
  </defs>
  <g
     id="layer1"
     transform="matrix(1.3,0,0,1.3,15.063458,-240)" />
  <path
     style="fill:#000000;fill-rule:evenodd;stroke:#000000;stroke-width:1px;stroke-linecap:butt;stroke-linejoin:miter;stroke-opacity:1"
     d="M 449.84003,418.12438 C 449.99178,445.32406 484.2145,438.80749 484.19945,416.63125 C 484.16825,370.66138 473.87611,194.51034 419.11077,196.5107 C 380.00324,197.90215 372.00444,266.36528 346.36004,301.99113 C 325.66085,330.74696 289.0888,376.94118 243.51286,401.78382 C 74.738523,493.77972 -0.29023345,485.31159 -0.94671045,601.46171 C 84.818827,596.86567 163.74104,615.47051 232.6293,640.12874 C 238.35495,642.17822 236.69055,645.40008 231.72828,647.43495 C 167.37092,673.82597 90.725949,690.72746 14.643004,695.72512 L 6.3467115,800 C 138.46935,755.0076 343.39419,649.23037 540.60045,683.11737 C 548.3686,684.45221 557.49267,677.08715 560.07422,670.03786 L 578.84762,618.77431 C 584.29823,603.89063 572.96659,595.11758 562.42419,594.65597 C 423.69785,588.58169 304.15991,559.81845 173.59857,521.24612 C 166.90963,519.26998 169.06082,515.52404 173.5964,512.86339 C 211.27088,490.76285 252.10436,462.30806 294.75275,421.67725 C 325.1087,392.75736 361.78478,346.95612 385.14552,317.10389 C 391.70085,308.72696 401.0264,308.97769 405.59193,309.53904 C 437.17841,313.42274 449.56405,368.65764 449.84003,418.12438 z"
     id="path2483"
     sodipodi:nodetypes="csssscssccssssssssss" />
</svg>
