<?xml version="1.0" encoding="UTF-8" standalone="no"?>
<!-- Created with Inkscape (http://www.inkscape.org/) -->

<svg
   xmlns:dc="http://purl.org/dc/elements/1.1/"
   xmlns:cc="http://creativecommons.org/ns#"
   xmlns:rdf="http://www.w3.org/1999/02/22-rdf-syntax-ns#"
   xmlns:svg="http://www.w3.org/2000/svg"
   xmlns="http://www.w3.org/2000/svg"
   xmlns:sodipodi="http://sodipodi.sourceforge.net/DTD/sodipodi-0.dtd"
   xmlns:inkscape="http://www.inkscape.org/namespaces/inkscape"
   version="1.0"
   width="1000"
   height="1000"
   id="svg5496"
   sodipodi:version="0.32"
   inkscape:version="0.47pre4 r22446"
   sodipodi:docname="New document 9"
   inkscape:output_extension="org.inkscape.output.svg.inkscape">
  <metadata
     id="metadata5594">
    <rdf:RDF>
      <cc:Work
         rdf:about="">
        <dc:format>image/svg+xml</dc:format>
        <dc:type
           rdf:resource="http://purl.org/dc/dcmitype/StillImage" />
        <dc:title></dc:title>
      </cc:Work>
    </rdf:RDF>
  </metadata>
  <sodipodi:namedview
     inkscape:window-height="618"
     inkscape:window-width="641"
     inkscape:pageshadow="2"
     inkscape:pageopacity="0.0"
     borderopacity="1.0"
     bordercolor="#666666"
     pagecolor="#ffffff"
     id="base"
     showgrid="false"
     showguides="true"
     inkscape:guide-bbox="true"
     inkscape:zoom="0.454"
     inkscape:cx="500"
     inkscape:cy="500"
     inkscape:window-x="0"
     inkscape:window-y="25"
     inkscape:current-layer="svg5496"
     inkscape:window-maximized="0">
    <sodipodi:guide
       orientation="horizontal"
       position="200"
       id="guide5596" />
  </sodipodi:namedview>
  <defs
     id="defs5498">
    <inkscape:perspective
       sodipodi:type="inkscape:persp3d"
       inkscape:vp_x="0 : 500 : 1"
       inkscape:vp_y="0 : 1000 : 0"
       inkscape:vp_z="1000 : 500 : 1"
       inkscape:persp3d-origin="500 : 333.33333 : 1"
       id="perspective3831" />
    <inkscape:perspective
       id="perspective3820"
       inkscape:persp3d-origin="0.5 : 0.33333333 : 1"
       inkscape:vp_z="1 : 0.5 : 1"
       inkscape:vp_y="0 : 1000 : 0"
       inkscape:vp_x="0 : 0.5 : 1"
       sodipodi:type="inkscape:persp3d" />
  </defs>
  <g
     id="layer1" />
  <path
     style="fill:#ff0000;fill-opacity:0.60784314;fill-rule:evenodd;stroke:#000000;stroke-width:1;stroke-linecap:butt;stroke-linejoin:miter;stroke-miterlimit:4;stroke-opacity:1;stroke-dasharray:none"
     d="m 289.491,741.2706 c -40.191,8.432 -83.725,29.5316 -106.786,62.5401 -40.074,57.3612 -29.881,161.9366 -6.91,222.6612 1.791,4.734 3.965,9.2952 0,13.107 l -43.538,41.8516 c -3.483,3.3473 -8.681,10.7827 -13.266,3.6662 C 47.25,973.74 62.399,878.4692 90.28,758.3187 59.638,780.8938 24.165,795.5189 0,800 l -0.185,-89.9157 c 28.514,-2.3605 75.695,-12.2882 104.955,-31.45789 32.169,-21.0754 43.559,-36.3852 61.899,-78.1394 4.416,-10.0541 9.686,-11.4701 15.626,-9.8413 5.939,1.6288 10.074,6.8007 8.834,17.0928 -5.521,45.8393 -34.156,84.53959 -60.798,120.39389 -9.128,24.4497 -43.14,120.5603 -16.455,172.5967 28.039,-77.5085 76.288,-166.3993 142.479,-214.79669 34.346,-25.1138 74.256,-39.092 120.506,-32.7933 39.799,5.4202 44.75,60.18949 98.552,66.10099 -0.188,19.0444 -0.01,67.6372 0.13,91.0352 -41.865,-1.4875 -67.344,-23.7335 -87.985,-43.4266 -34.513,-32.9271 -52.814,-35.072 -98.067,-25.5781 z"
     id="path5189"
     sodipodi:nodetypes="cssssscccsszsccssccss" />
</svg>
