<?xml version="1.0" encoding="UTF-8" standalone="no"?>
<!-- Created with Inkscape (http://www.inkscape.org/) -->

<svg
   xmlns:dc="http://purl.org/dc/elements/1.1/"
   xmlns:cc="http://creativecommons.org/ns#"
   xmlns:rdf="http://www.w3.org/1999/02/22-rdf-syntax-ns#"
   xmlns:svg="http://www.w3.org/2000/svg"
   xmlns="http://www.w3.org/2000/svg"
   xmlns:sodipodi="http://sodipodi.sourceforge.net/DTD/sodipodi-0.dtd"
   xmlns:inkscape="http://www.inkscape.org/namespaces/inkscape"
   version="1.0"
   width="1000"
   height="1000"
   id="svg5496"
   sodipodi:version="0.32"
   inkscape:version="0.47pre4 r22446"
   sodipodi:docname="baa+heh.init.svg"
   inkscape:output_extension="org.inkscape.output.svg.inkscape">
  <metadata
     id="metadata5594">
    <rdf:RDF>
      <cc:Work
         rdf:about="">
        <dc:format>image/svg+xml</dc:format>
        <dc:type
           rdf:resource="http://purl.org/dc/dcmitype/StillImage" />
      </cc:Work>
    </rdf:RDF>
  </metadata>
  <sodipodi:namedview
     inkscape:pageshadow="2"
     inkscape:pageopacity="0.0"
     guidetolerance="10.0"
     gridtolerance="10.0"
     objecttolerance="10.0"
     borderopacity="1.0"
     bordercolor="#666666"
     pagecolor="#ffffff"
     id="base"
     showgrid="false"
     showguides="true"
     inkscape:guide-bbox="true"
     inkscape:zoom="0.236"
     inkscape:cx="500"
     inkscape:cy="500"
     inkscape:window-x="0"
     inkscape:window-y="0"
     inkscape:current-layer="svg5496"
     inkscape:window-width="1214"
     inkscape:window-height="767"
     inkscape:window-maximized="1">
    <sodipodi:guide
       orientation="horizontal"
       position="200"
       id="guide5596" />
  </sodipodi:namedview>
  <defs
     id="defs5498">
    <inkscape:perspective
       sodipodi:type="inkscape:persp3d"
       inkscape:vp_x="0 : 500 : 1"
       inkscape:vp_y="0 : 1000 : 0"
       inkscape:vp_z="1000 : 500 : 1"
       inkscape:persp3d-origin="500 : 333.33333 : 1"
       id="perspective5174" />
    <inkscape:perspective
       id="perspective5183"
       inkscape:persp3d-origin="372.04724 : 350.78739 : 1"
       inkscape:vp_z="744.09448 : 526.18109 : 1"
       inkscape:vp_y="0 : 1000 : 0"
       inkscape:vp_x="0 : 526.18109 : 1"
       sodipodi:type="inkscape:persp3d" />
    <inkscape:perspective
       id="perspective3763"
       inkscape:persp3d-origin="0.5 : 0.33333333 : 1"
       inkscape:vp_z="1 : 0.5 : 1"
       inkscape:vp_y="0 : 1000 : 0"
       inkscape:vp_x="0 : 0.5 : 1"
       sodipodi:type="inkscape:persp3d" />
  </defs>
  <g
     id="layer1"
     transform="matrix(1.3,0,0,1.3,-336.89526,441.51112)" />
  <path
     style="fill:#000000;fill-rule:evenodd;stroke:#000000;stroke-width:1px;stroke-linecap:butt;stroke-linejoin:miter;stroke-opacity:1"
     d="M 456.80875,732.1707 C 439.46689,697.06634 418.07388,685.39384 376.33106,687.35503 C 282.02947,691.83995 200.68769,741.15835 181.44206,784.81434 C 139.89959,879.04753 161.1587,963.13265 185.99774,1028.7973 C 187.93417,1033.9165 189.31772,1038.0355 185.99775,1042.9706 L 148.53979,1098.6513 C 145.62429,1102.9851 143.37311,1111.159 137.40364,1104.2195 C 66.239985,1021.4913 64.227546,893.98582 94.377589,764.06059 C 61.24207,788.47232 18.505494,797.1104 0.2264659,800 L 0.2264659,702.81176 C 38.478018,696.24984 75.635619,682.39994 107.0323,661.30427 C 132.59677,644.1273 149.75894,604.16365 171.82446,574.74599 C 187.28329,554.13635 204.13734,568.09817 196.62771,581.32645 C 177.11341,615.70103 150.79477,668.95274 132.40428,724.41148 C 111.63259,787.05102 100.5803,852.11134 113.48621,888.58302 C 114.02124,890.09498 115.74031,889.88813 116.49077,888.00545 C 175.4478,740.10098 238.25913,670.85037 309.56513,632.24109 C 373.53069,597.60636 432.38882,588.81835 480.947,607.73511 C 498.02001,614.38623 518.00426,628.12364 519.07092,651.70724 C 520.00237,672.30104 511.21219,701.24826 486.67389,729.63977 C 476.45628,741.46182 463.66628,742.09019 456.80875,732.1707 z"
     id="path5189"
     sodipodi:nodetypes="csssssscccssssssssssc" />
  <path
     style="fill:#ff0000;fill-opacity:0.60784314;fill-rule:evenodd;stroke:#000000;stroke-width:0.92476678px;stroke-linecap:butt;stroke-linejoin:miter;stroke-opacity:1"
     d="m 422.23199,737.2737 c -16.037,-32.4633 -35.82,-43.2577 -74.423,-41.444 -87.207,4.1475 -162.43,49.7555 -180.227,90.1271 -38.417,87.14369 -18.758,164.90279 4.213,225.6274 1.791,4.734 3.07,8.5431 0,13.107 l -34.64,51.4916 c -2.696,4.0078 -4.778,11.5667 -10.299,5.1493 C 61.047,1004.8278 59.186,886.91499 87.067,766.7645 56.425,789.3396 16.903,797.3278 0,800 l 0,-89.8765 c 35.374,-6.0682 69.735,-18.8761 98.77,-38.3848 23.64099,-15.8846 39.51299,-52.8417 59.91799,-80.0461 14.296,-19.0592 29.882,-6.1478 22.937,6.0853 -18.046,31.7885 -42.385,81.0339 -59.391,132.3204 -19.21,57.9269 -29.42999,118.0925 -17.495,151.82029 0.495,1.3983 2.084,1.207 2.778,-0.5341 54.521,-136.77709 112.608,-200.81779 178.549,-236.52229 59.153,-32.0292 113.584,-40.156 158.488,-22.6624 15.789,6.1507 34.27,18.8546 35.256,40.664 0.861,19.0444 -7.267,45.8138 -29.959,72.0694 -9.45,10.9326 -21.277,11.5138 -27.619,2.3405 z"
     id="path5189-9"
     sodipodi:nodetypes="csssssscccssssssssssc" />
</svg>
