<?xml version="1.0" encoding="UTF-8" standalone="no"?>
<!-- Created with Inkscape (http://www.inkscape.org/) -->

<svg
   xmlns:dc="http://purl.org/dc/elements/1.1/"
   xmlns:cc="http://creativecommons.org/ns#"
   xmlns:rdf="http://www.w3.org/1999/02/22-rdf-syntax-ns#"
   xmlns:svg="http://www.w3.org/2000/svg"
   xmlns="http://www.w3.org/2000/svg"
   xmlns:sodipodi="http://sodipodi.sourceforge.net/DTD/sodipodi-0.dtd"
   xmlns:inkscape="http://www.inkscape.org/namespaces/inkscape"
   version="1.0"
   width="1000"
   height="1000"
   id="svg5496"
   sodipodi:version="0.32"
   inkscape:version="0.47pre4 r22446"
   sodipodi:docname="baa+baa+yaa.isol.svg"
   inkscape:output_extension="org.inkscape.output.svg.inkscape">
  <metadata
     id="metadata5594">
    <rdf:RDF>
      <cc:Work
         rdf:about="">
        <dc:format>image/svg+xml</dc:format>
        <dc:type
           rdf:resource="http://purl.org/dc/dcmitype/StillImage" />
        <dc:title />
      </cc:Work>
    </rdf:RDF>
  </metadata>
  <sodipodi:namedview
     inkscape:window-height="725"
     inkscape:pageshadow="2"
     inkscape:pageopacity="0.0"
     borderopacity="1.0"
     bordercolor="#666666"
     pagecolor="#ffffff"
     id="base"
     showgrid="false"
     showguides="true"
     inkscape:guide-bbox="true"
     inkscape:zoom="0.64205296"
     inkscape:cx="574.7845"
     inkscape:cy="460.24418"
     inkscape:window-x="0"
     inkscape:window-y="24"
     inkscape:current-layer="svg5496"
     inkscape:window-maximized="1"
     inkscape:window-width="1280">
    <sodipodi:guide
       orientation="horizontal"
       position="200"
       id="guide5596" />
  </sodipodi:namedview>
  <defs
     id="defs5498">
    <inkscape:perspective
       sodipodi:type="inkscape:persp3d"
       inkscape:vp_x="0 : 500 : 1"
       inkscape:vp_y="0 : 1000 : 0"
       inkscape:vp_z="1000 : 500 : 1"
       inkscape:persp3d-origin="500 : 333.33333 : 1"
       id="perspective2837" />
    <inkscape:perspective
       id="perspective2826"
       inkscape:persp3d-origin="0.5 : 0.33333333 : 1"
       inkscape:vp_z="1 : 0.5 : 1"
       inkscape:vp_y="0 : 1000 : 0"
       inkscape:vp_x="0 : 0.5 : 1"
       sodipodi:type="inkscape:persp3d" />
    <inkscape:perspective
       id="perspective8938"
       inkscape:persp3d-origin="0.5 : 0.33333333 : 1"
       inkscape:vp_z="1 : 0.5 : 1"
       inkscape:vp_y="0 : 1000 : 0"
       inkscape:vp_x="0 : 0.5 : 1"
       sodipodi:type="inkscape:persp3d" />
  </defs>
  <g
     id="layer1"
     transform="translate(-327.51072,281.64098)" />
  <path
     style="fill:#ff0000;fill-opacity:0.60784314;stroke:#000000;stroke-width:1;stroke-miterlimit:4;stroke-opacity:1;stroke-dasharray:none"
     d="m 680.33429,518.41803 c -0.0358,18.008 -24.9623,63.0933 -61.66586,64.0072 -54.08927,1.347 -91.49491,-82.4172 -115.9799,-84.6339 -48.71072,-4.4099 -87.85622,29.128 -132.31469,78.2386 -51.61024,57.0107 -97.31919,144.9226 -55.27612,171.3348 46.21038,29.0303 159.27494,20.5325 200.84405,38.834 3.0527,1.344 2.12715,4.227 1.32445,5.1539 -33.02717,38.1376 -183.32279,112.2076 -303.48254,114.9806 -85.79835,1.9799 -155.928865,-26.3615 -177.267135,-109.9105 -12.91284,-50.5596 6.651,-119.3607 34.64321,-181.3454 4.20482,-9.3109 -11.26663,-20.125 -19.15052,-5.7467 -31.60622,57.6414 -49.2686699,134.5353 -51.9119699,198.4157 -4.19918,101.4813 42.3492099,203.07207 217.2537949,192.58737 118.88187,-7.12647 245.24741,-76.53687 305.8655,-133.43627 22.96061,-21.5521 53.75857,-88.5579 41.5009,-121.3055 -7.68241,-20.5242 -30.85632,-32.3752 -56.93151,-34.9921 -48.85094,-4.9027 -156.7536,-6.3275 -164.43913,-38.8386 -6.83468,-28.9119 68.50757,-106.3507 128.85395,-103.4227 40.00471,1.9409 76.61577,89.1205 139.74115,87.8743 51.01484,-1.0072 82.51637,-86.2896 87.99145,-132.6544 2.62998,-22.2716 -19.57014,-19.684 -19.59908,-5.1404 z"
     id="path2848-0"
     sodipodi:nodetypes="cssssssssssssssssssss" />
</svg>
