<?xml version="1.0" encoding="UTF-8" standalone="no"?>
<!-- Created with Inkscape (http://www.inkscape.org/) -->

<svg
   xmlns:dc="http://purl.org/dc/elements/1.1/"
   xmlns:cc="http://creativecommons.org/ns#"
   xmlns:rdf="http://www.w3.org/1999/02/22-rdf-syntax-ns#"
   xmlns:svg="http://www.w3.org/2000/svg"
   xmlns="http://www.w3.org/2000/svg"
   xmlns:sodipodi="http://sodipodi.sourceforge.net/DTD/sodipodi-0.dtd"
   xmlns:inkscape="http://www.inkscape.org/namespaces/inkscape"
   version="1.0"
   width="1000"
   height="1000"
   id="svg5496"
   sodipodi:version="0.32"
   inkscape:version="0.47pre4 r22446"
   sodipodi:docname="baa+noon.isol.svg"
   inkscape:output_extension="org.inkscape.output.svg.inkscape">
  <metadata
     id="metadata5594">
    <rdf:RDF>
      <cc:Work
         rdf:about="">
        <dc:format>image/svg+xml</dc:format>
        <dc:type
           rdf:resource="http://purl.org/dc/dcmitype/StillImage" />
      </cc:Work>
    </rdf:RDF>
  </metadata>
  <sodipodi:namedview
     inkscape:pageshadow="2"
     inkscape:pageopacity="0.0"
     guidetolerance="10.0"
     gridtolerance="10.0"
     objecttolerance="10.0"
     borderopacity="1.0"
     bordercolor="#666666"
     pagecolor="#ffffff"
     id="base"
     showgrid="false"
     showguides="true"
     inkscape:guide-bbox="true"
     inkscape:zoom="0.472"
     inkscape:cx="515.30002"
     inkscape:cy="378.51785"
     inkscape:window-x="0"
     inkscape:window-y="0"
     inkscape:current-layer="svg5496"
     inkscape:window-width="1278"
     inkscape:window-height="767"
     inkscape:window-maximized="1">
    <sodipodi:guide
       orientation="horizontal"
       position="200"
       id="guide5596" />
  </sodipodi:namedview>
  <defs
     id="defs5498">
    <inkscape:perspective
       sodipodi:type="inkscape:persp3d"
       inkscape:vp_x="0 : 500 : 1"
       inkscape:vp_y="0 : 1000 : 0"
       inkscape:vp_z="1000 : 500 : 1"
       inkscape:persp3d-origin="500 : 333.33333 : 1"
       id="perspective3413" />
    <inkscape:perspective
       id="perspective3422"
       inkscape:persp3d-origin="372.04724 : 350.78739 : 1"
       inkscape:vp_z="744.09448 : 526.18109 : 1"
       inkscape:vp_y="0 : 1000 : 0"
       inkscape:vp_x="0 : 526.18109 : 1"
       sodipodi:type="inkscape:persp3d" />
    <inkscape:perspective
       id="perspective4345"
       inkscape:persp3d-origin="0.5 : 0.33333333 : 1"
       inkscape:vp_z="1 : 0.5 : 1"
       inkscape:vp_y="0 : 1000 : 0"
       inkscape:vp_x="0 : 0.5 : 1"
       sodipodi:type="inkscape:persp3d" />
    <inkscape:perspective
       id="perspective4367"
       inkscape:persp3d-origin="0.5 : 0.33333333 : 1"
       inkscape:vp_z="1 : 0.5 : 1"
       inkscape:vp_y="0 : 1000 : 0"
       inkscape:vp_x="0 : 0.5 : 1"
       sodipodi:type="inkscape:persp3d" />
  </defs>
  <g
     id="layer1"
     transform="matrix(1.3,0,0,1.3,-1.5766886,-596.74525)" />
  <path
     sodipodi:nodetypes="cssssssssssssssssssss"
     id="path2817"
     d="m 612.08521,500.66962 c 8.79,92.3975 -11.411,158.1548 -95.18,176.6123 -4.117,0.9071 -3.951,3.4144 -4.465,7.0089 -9.166,64.1097 -28.367,149.7523 -51.796,187.6684 -42.472,68.7358 -136.507,135.64178 -263.778,134.93968 -130.504998,-0.72 -199.554999,-82.55768 -195.560999,-173.60618 2.75,-62.6921 47.193,-171.8189 70.542001,-212.4626 6.135,-10.6806 24.858998,-4.7786 17.64,11.1625 -15.626,34.5025 -42.881035,89.57655 -46.055001,131.3487 -4.911611,64.64107 44.098001,132.3393 165.741999,134.7328 115.97,2.2818 225.485,-63.7149 252.886,-107.1665 2.704,-4.2881 3.933,-8.459 4.599,-13.3186 8.606,-62.7551 -6.55,-121.328 -33.357,-177.4874 -2.589,-5.4202 -4.301,-10.0135 -2.671,-15.7753 5.902,-20.8507 21.272,-52.9275 27.206,-65.6143 2.427,-5.1879 5.952,-7.4329 10.822,-3.1994 13.46,11.6992 22.504,25.389 31.617,43.0673 3.141,6.0901 7.674,9.1479 13.621,11.6263 16.185,6.7469 48.854,2.6439 58.744,-6.2403 10.468,-9.4016 15.65,-39.0171 17.418,-62.001 1.461,-18.9823 20.737,-14.8423 22.026,-1.2953 z"
     style="fill:#ff0000;fill-opacity:0.60784314;fill-rule:evenodd;stroke:#000000;stroke-width:1;stroke-linecap:butt;stroke-linejoin:miter;stroke-miterlimit:4;stroke-opacity:1;stroke-dasharray:none" />
  <path
     style="fill:#ff0000;fill-opacity:0.60784314;fill-rule:evenodd;stroke:#000000;stroke-width:1;stroke-linecap:butt;stroke-linejoin:miter;stroke-miterlimit:4;stroke-opacity:1;stroke-dasharray:none"
     d="m 512.44021,684.29082 c -9.16254,64.11019 -28.367,149.7523 -51.796,187.6684 -42.472,68.7358 -136.507,135.64178 -263.778,134.93968 -130.504998,-0.72 -199.554999,-82.55768 -195.560999,-173.60618 2.75,-62.6921 47.193,-171.8189 70.542001,-212.4626 6.135,-10.6806 24.858998,-4.7786 17.64,11.1625 -15.626,34.5025 -42.881035,89.57655 -46.055001,131.3487 -4.911611,64.64107 44.098001,132.3393 165.741999,134.7328 115.97,2.2818 225.485,-63.7149 252.886,-107.1665 2.704,-4.2881 3.933,-8.459 4.599,-13.3186 8.606,-62.7551 -6.55,-121.328 -33.357,-177.4874 -2.589,-5.4202 -4.301,-10.0135 -2.671,-15.7753 5.902,-20.8507 21.272,-52.9275 27.206,-65.6143 2.427,-5.1879 5.952,-7.4329 10.822,-3.1994 13.46,11.6992 22.31884,25.48636 31.617,43.0673 17.00188,32.14712 16.83513,93.02708 12.164,125.7109 z"
     id="path2819"
     sodipodi:nodetypes="csssssssssssssss" />
  <path
     sodipodi:nodetypes="csssssss"
     id="path2821"
     d="m 612.08521,500.66962 c 8.79,92.3975 -11.41028,158.15806 -95.18,176.6123 -20.66999,4.55354 -44.40567,-30.06092 -45.72971,-63.39595 -1.42774,-35.94575 20.7039,-70.49002 29.10071,-55.30605 3.31583,5.99603 7.674,9.1479 13.621,11.6263 16.185,6.7469 48.854,2.6439 58.744,-6.2403 10.468,-9.4016 15.65,-39.0171 17.418,-62.001 1.461,-18.9823 20.737,-14.8423 22.026,-1.2953 z"
     style="fill:#ff0000;fill-opacity:0.60784314;fill-rule:evenodd;stroke:#000000;stroke-width:1;stroke-linecap:butt;stroke-linejoin:miter;stroke-miterlimit:4;stroke-opacity:1;stroke-dasharray:none" />
</svg>
