<?xml version="1.0" encoding="UTF-8" standalone="no"?>
<!-- Created with Inkscape (http://www.inkscape.org/) -->

<svg
   xmlns:dc="http://purl.org/dc/elements/1.1/"
   xmlns:cc="http://creativecommons.org/ns#"
   xmlns:rdf="http://www.w3.org/1999/02/22-rdf-syntax-ns#"
   xmlns:svg="http://www.w3.org/2000/svg"
   xmlns="http://www.w3.org/2000/svg"
   xmlns:sodipodi="http://sodipodi.sourceforge.net/DTD/sodipodi-0.dtd"
   xmlns:inkscape="http://www.inkscape.org/namespaces/inkscape"
   version="1.0"
   width="1000"
   height="1000"
   id="svg5496"
   sodipodi:version="0.32"
   inkscape:version="0.47pre4 r22446"
   sodipodi:docname="baa+meem+alef.fina.svg"
   inkscape:output_extension="org.inkscape.output.svg.inkscape">
  <metadata
     id="metadata5594">
    <rdf:RDF>
      <cc:Work
         rdf:about="">
        <dc:format>image/svg+xml</dc:format>
        <dc:type
           rdf:resource="http://purl.org/dc/dcmitype/StillImage" />
        <dc:title />
      </cc:Work>
    </rdf:RDF>
  </metadata>
  <sodipodi:namedview
     inkscape:window-height="743"
     inkscape:window-width="673"
     inkscape:pageshadow="2"
     inkscape:pageopacity="0.0"
     borderopacity="1.0"
     bordercolor="#666666"
     pagecolor="#ffffff"
     id="base"
     showgrid="false"
     showguides="true"
     inkscape:guide-bbox="true"
     inkscape:zoom="0.2495149"
     inkscape:cx="231.27754"
     inkscape:cy="271.57001"
     inkscape:window-x="0"
     inkscape:window-y="25"
     inkscape:current-layer="svg5496"
     inkscape:window-maximized="0">
    <sodipodi:guide
       orientation="horizontal"
       position="200"
       id="guide5596" />
  </sodipodi:namedview>
  <defs
     id="defs5498">
    <inkscape:perspective
       sodipodi:type="inkscape:persp3d"
       inkscape:vp_x="0 : 500 : 1"
       inkscape:vp_y="0 : 1000 : 0"
       inkscape:vp_z="1000 : 500 : 1"
       inkscape:persp3d-origin="500 : 333.33333 : 1"
       id="perspective3747" />
    <inkscape:perspective
       id="perspective3736"
       inkscape:persp3d-origin="0.5 : 0.33333333 : 1"
       inkscape:vp_z="1 : 0.5 : 1"
       inkscape:vp_y="0 : 1000 : 0"
       inkscape:vp_x="0 : 0.5 : 1"
       sodipodi:type="inkscape:persp3d" />
  </defs>
  <g
     id="layer1" />
  <path
     style="fill:#ff0000;fill-opacity:0.60784314;fill-rule:evenodd;stroke:#000000;stroke-width:1px;stroke-linecap:butt;stroke-linejoin:miter;stroke-opacity:1"
     d="m 338.42031,805.047 c 14.69863,2.93106 18.481,11.146 16.2445,19.549 l -21.5498,80.971 c -3.7344,14.031 -16.7954,10.977 -25.6057,10.187 -61.0011,-5.475 -162.1423,-45.785 -202.0185,-132.042 C 72.969707,713.366 67.679707,569.962 56.643807,463.453 41.447007,316.786 39.867307,256.04 2.6173069,93.944 1.1303069,87.473 0.13840687,79.173 2.0666069,74.946 12.024207,53.119 18.750507,41.847 30.150307,21.532 c 4.9344,-8.792999 9.9478,-4.785 12.1145,0.826 32.2252,83.445 39.4913,204.675 51.2019,330.731 13.227603,142.386 17.509273,346.41298 71.284703,375.947 46.95228,25.78668 57.49573,52.84488 173.6689,76.011 z"
     id="path2405"
     sodipodi:nodetypes="cssssssssssss" />
  <path
     sodipodi:nodetypes="ccsssssss"
     id="path2826"
     d="m 202.43231,681.79 c 0.51514,86.4911 75.2687,112.797 135.988,123.257 14.5484,3.612 18.481,11.146 16.2445,19.549 l -21.5498,80.971 c -3.7344,14.031 -16.98334,12.13916 -25.6057,10.187 -133.6861,-30.26746 -273.368497,-261.01315 -142.7579,-186.718 15.52341,8.83017 13.4054,1.89 13.5959,-1.734 1.149,-21.856 3.66278,-42.37482 17.4221,-83.794 6.385,-19.22055 6.52362,14.89748 6.6629,38.282 z"
     style="fill:#ff0000;fill-opacity:0.60784314;fill-rule:evenodd;stroke:#000000;stroke-width:1px;stroke-linecap:butt;stroke-linejoin:miter;stroke-opacity:1" />
  <path
     style="fill:#ff0000;fill-opacity:0.60784314;fill-rule:evenodd;stroke:#000000;stroke-width:1px;stroke-linecap:butt;stroke-linejoin:miter;stroke-opacity:1"
     d="m 330.26601,632.834 c -46.5739,-5.804 -115.3067,24.976 -127.8337,48.956 0.32272,25.27858 6.06943,45.9936 17.53036,61.51932 52.59784,71.25242 -49.60867,101.36258 -41.61536,-16.00732 1.48705,-21.83512 3.6351,-42.384 17.4221,-83.794 12.8597,-38.626 88.2301,-101.895 162.1462,-100.826 34.6987,0.502 30.21924,53.3777 103.6404,86.723 68.22626,30.98597 23.57016,97.86319 -0.3216,90.595 -91.73529,-27.90707 -100.6558,-83.389 -130.9684,-87.166 z"
     id="path2828"
     sodipodi:nodetypes="ccsssssss" />
</svg>
