<?xml version="1.0" encoding="UTF-8" standalone="no"?>
<!-- Created with Inkscape (http://www.inkscape.org/) -->

<svg
   xmlns:dc="http://purl.org/dc/elements/1.1/"
   xmlns:cc="http://creativecommons.org/ns#"
   xmlns:rdf="http://www.w3.org/1999/02/22-rdf-syntax-ns#"
   xmlns:svg="http://www.w3.org/2000/svg"
   xmlns="http://www.w3.org/2000/svg"
   xmlns:sodipodi="http://sodipodi.sourceforge.net/DTD/sodipodi-0.dtd"
   xmlns:inkscape="http://www.inkscape.org/namespaces/inkscape"
   version="1.0"
   width="1000"
   height="1000"
   id="svg5496"
   sodipodi:version="0.32"
   inkscape:version="0.47pre4 r22446"
   sodipodi:docname="baa+haa.isol.svg"
   inkscape:output_extension="org.inkscape.output.svg.inkscape">
  <metadata
     id="metadata5594">
    <rdf:RDF>
      <cc:Work
         rdf:about="">
        <dc:format>image/svg+xml</dc:format>
        <dc:type
           rdf:resource="http://purl.org/dc/dcmitype/StillImage" />
      </cc:Work>
    </rdf:RDF>
  </metadata>
  <sodipodi:namedview
     inkscape:pageshadow="2"
     inkscape:pageopacity="0.0"
     guidetolerance="10.0"
     gridtolerance="10.0"
     objecttolerance="10.0"
     borderopacity="1.0"
     bordercolor="#666666"
     pagecolor="#ffffff"
     id="base"
     showgrid="false"
     showguides="true"
     inkscape:guide-bbox="true"
     inkscape:zoom="0.454"
     inkscape:cx="509.20257"
     inkscape:cy="546.26663"
     inkscape:window-x="0"
     inkscape:window-y="24"
     inkscape:current-layer="svg5496"
     inkscape:window-width="1280"
     inkscape:window-height="725"
     inkscape:window-maximized="1">
    <sodipodi:guide
       orientation="horizontal"
       position="200"
       id="guide5596" />
  </sodipodi:namedview>
  <defs
     id="defs5498">
    <inkscape:perspective
       sodipodi:type="inkscape:persp3d"
       inkscape:vp_x="0 : 500 : 1"
       inkscape:vp_y="0 : 1000 : 0"
       inkscape:vp_z="1000 : 500 : 1"
       inkscape:persp3d-origin="500 : 333.33333 : 1"
       id="perspective3282" />
    <inkscape:perspective
       id="perspective3291"
       inkscape:persp3d-origin="372.04724 : 350.78739 : 1"
       inkscape:vp_z="744.09448 : 526.18109 : 1"
       inkscape:vp_y="0 : 1000 : 0"
       inkscape:vp_x="0 : 526.18109 : 1"
       sodipodi:type="inkscape:persp3d" />
    <inkscape:perspective
       sodipodi:type="inkscape:persp3d"
       inkscape:vp_x="0 : 526.18109 : 1"
       inkscape:vp_y="0 : 1000 : 0"
       inkscape:vp_z="744.09448 : 526.18109 : 1"
       inkscape:persp3d-origin="372.04724 : 350.78739 : 1"
       id="perspective2574" />
    <inkscape:perspective
       sodipodi:type="inkscape:persp3d"
       inkscape:vp_x="0 : 526.18109 : 1"
       inkscape:vp_y="0 : 1000 : 0"
       inkscape:vp_z="744.09448 : 526.18109 : 1"
       inkscape:persp3d-origin="372.04724 : 350.78739 : 1"
       id="perspective2477" />
    <inkscape:perspective
       id="perspective8"
       inkscape:persp3d-origin="500 : 333.33333 : 1"
       inkscape:vp_z="1000 : 500 : 1"
       inkscape:vp_y="0 : 1000 : 0"
       inkscape:vp_x="0 : 500 : 1"
       sodipodi:type="inkscape:persp3d" />
    <inkscape:perspective
       id="perspective6124"
       inkscape:persp3d-origin="0.5 : 0.33333333 : 1"
       inkscape:vp_z="1 : 0.5 : 1"
       inkscape:vp_y="0 : 1000 : 0"
       inkscape:vp_x="0 : 0.5 : 1"
       sodipodi:type="inkscape:persp3d" />
  </defs>
  <g
     id="layer1"
     transform="matrix(1.3,0,0,1.3,6.3679104,-283.88005)" />
  <g
     id="g3371"
     transform="matrix(1.3,0,0,1.3,214.2626,-869.8597)">
    <g
       id="g3373" />
  </g>
  <path
     style="fill:#ff0000;fill-opacity:0.60784314;fill-rule:evenodd;stroke:#000000;stroke-width:1;stroke-linecap:butt;stroke-linejoin:miter;stroke-miterlimit:4;stroke-opacity:1;stroke-dasharray:none"
     d="m 134.34383,257.3632 c 150.65664,9.443 266.46895,5.5774 408.96265,-5.3339 4.5475,-0.3482 10.0201,2.2927 8.3344,8.561 0,0 -8.1635,38.5129 -15.269,56.7778 -3.1882,8.1955 -8.8367,9.7618 -13.9751,10.3876 -51.498,6.272 -141.5169,23.5235 -218.87386,54.6713 -100.88793,40.6224 -234.88518,136.8344 -237.61028,278.0029 -2.34207,121.3268 55.89439,185.547 133.89434,216.0382 136.3172,53.28821 378.8203,33.3947 479.2547,21.1606 15.303,-1.8519 12.3816,17.9812 4.6201,21.3084 -88.4305,37.90861 -198.6674,84.2693 -301.7094,79.48491 C 255.37356,992.54381 75.57975,975.34991 33.989549,798.3483 3.7378492,669.6018 61.51429,456.2267 242.69994,341.8039 L 1.7072692,339.8434 C -0.40878078,282.1019 27.946849,257.5021 90.78517,220.3008 180.80551,168.6942 264.29245,124.3601 300.08373,34.659897 c 23.15179,-59.852306 40.20865,-108.885436 70.10075,-108.718666 29.8943,0.1668 53.8186,45.78191 63.1056,102.797166 5.3517,32.8556 3.3658,67.4207 2.0468,95.120703 -1.4007,29.4165 -23.5729,26.8733 -26.0222,7.4867 -4.5264,-36.058903 -15.4525,-109.395399 -49.8498,-109.285399 -17.6969,0.056 -27.5403,22.804296 -46.90346,62.541796 C 276.1484,159.3299 211.00728,210.2148 135.90668,252.8924 c -2.3751,1.2441 -5.35617,4.233 -1.56285,4.4708 z"
     id="path3297"
     sodipodi:nodetypes="cssssssssssscccczssssscs" />
</svg>
