<?xml version="1.0" encoding="UTF-8" standalone="no"?>
<!-- Created with Inkscape (http://www.inkscape.org/) -->
<svg
   xmlns:dc="http://purl.org/dc/elements/1.1/"
   xmlns:cc="http://creativecommons.org/ns#"
   xmlns:rdf="http://www.w3.org/1999/02/22-rdf-syntax-ns#"
   xmlns:svg="http://www.w3.org/2000/svg"
   xmlns="http://www.w3.org/2000/svg"
   xmlns:sodipodi="http://sodipodi.sourceforge.net/DTD/sodipodi-0.dtd"
   xmlns:inkscape="http://www.inkscape.org/namespaces/inkscape"
   version="1.0"
   width="1000"
   height="1000"
   id="svg5496"
   sodipodi:version="0.32"
   inkscape:version="0.46"
   sodipodi:docname="baa+daal.isol.svg"
   inkscape:output_extension="org.inkscape.output.svg.inkscape">
  <metadata
     id="metadata5594">
    <rdf:RDF>
      <cc:Work
         rdf:about="">
        <dc:format>image/svg+xml</dc:format>
        <dc:type
           rdf:resource="http://purl.org/dc/dcmitype/StillImage" />
      </cc:Work>
    </rdf:RDF>
  </metadata>
  <sodipodi:namedview
     inkscape:pageshadow="2"
     inkscape:pageopacity="0.0"
     guidetolerance="10.0"
     gridtolerance="10.0"
     objecttolerance="10.0"
     borderopacity="1.0"
     bordercolor="#666666"
     pagecolor="#ffffff"
     id="base"
     showgrid="false"
     showguides="true"
     inkscape:guide-bbox="true"
     inkscape:zoom="0.908"
     inkscape:cx="366.27653"
     inkscape:cy="378.30118"
     inkscape:window-x="0"
     inkscape:window-y="25"
     inkscape:current-layer="svg5496">
    <sodipodi:guide
       orientation="horizontal"
       position="200"
       id="guide5596" />
  </sodipodi:namedview>
  <defs
     id="defs5498">
    <inkscape:perspective
       sodipodi:type="inkscape:persp3d"
       inkscape:vp_x="0 : 500 : 1"
       inkscape:vp_y="0 : 1000 : 0"
       inkscape:vp_z="1000 : 500 : 1"
       inkscape:persp3d-origin="500 : 333.33333 : 1"
       id="perspective2426" />
  </defs>
  <g
     id="layer1"
     transform="translate(-50.660793,19.87494)" />
  <path
     style="fill:#000000;fill-rule:evenodd;stroke:#000000;stroke-width:1px;stroke-linecap:butt;stroke-linejoin:miter;stroke-opacity:1"
     d="M 461.93509,541.75559 C 451.05733,561.91971 439.5971,596.26121 433.53326,618.23229 C 432.21113,623.02275 433.60863,625.58301 436.79253,628.90471 C 450.47505,643.17938 463.90257,683.10813 461.25091,694.13116 C 460.25735,698.26143 457.82041,700.51262 454.066,701.98536 C 434.62777,709.61041 405.12496,707.88451 387.66521,697.18771 C 348.09577,672.9453 295.51364,471.51417 268.72248,350.82207 C 264.39154,331.3115 252.77132,332.75455 250.00001,339.2582 C 239.6827,363.47056 234.58028,379.96125 230.91919,396.46708 C 228.35674,408.01972 228.60613,420.58059 230.93248,431.84467 C 248.52227,517.0138 285.82491,605.18413 268.72248,633.31106 C 255.21892,655.51922 233.22709,670.70122 160.87051,690.27639 C 116.81,702.19641 74.061647,710.06049 47.356837,693.88375 C 33.717047,685.62129 27.145167,673.95828 23.127757,663.04674 C 19.876287,654.21555 13.166757,658.58081 12.114537,661.94542 C -11.403403,737.14716 4.467037,778.08579 30.286347,790.24939 C 52.320477,800.62976 101.32827,801.35107 168.28636,776.33618 C 199.85532,764.54232 234.11914,755.24427 261.56388,723.61943 C 277.71512,705.0082 282.15198,664.48917 286.5966,641.86576 C 287.41799,637.68487 289.73702,638.52366 290.78868,641.32613 C 316.13221,708.8617 339.4462,809.69717 429.34267,800 C 475.12957,795.03946 486.89271,763.91085 493.64825,713.97149 C 501.08678,658.98323 493.63087,584.70799 472.28947,544.87684 C 469.77516,540.18419 464.74766,536.54192 461.93509,541.75559 z"
     id="path2418"
     sodipodi:nodetypes="csssssssssssssssssssssss" />
</svg>
