<?xml version="1.0" encoding="UTF-8" standalone="no"?>
<!-- Created with Inkscape (http://www.inkscape.org/) -->

<svg
   xmlns:dc="http://purl.org/dc/elements/1.1/"
   xmlns:cc="http://creativecommons.org/ns#"
   xmlns:rdf="http://www.w3.org/1999/02/22-rdf-syntax-ns#"
   xmlns:svg="http://www.w3.org/2000/svg"
   xmlns="http://www.w3.org/2000/svg"
   xmlns:sodipodi="http://sodipodi.sourceforge.net/DTD/sodipodi-0.dtd"
   xmlns:inkscape="http://www.inkscape.org/namespaces/inkscape"
   version="1.0"
   width="1000"
   height="1000"
   id="svg5496"
   sodipodi:version="0.32"
   inkscape:version="0.47pre4 r22446"
   sodipodi:docname="baa+baa.init.alt.svg"
   inkscape:output_extension="org.inkscape.output.svg.inkscape">
  <metadata
     id="metadata5594">
    <rdf:RDF>
      <cc:Work
         rdf:about="">
        <dc:format>image/svg+xml</dc:format>
        <dc:type
           rdf:resource="http://purl.org/dc/dcmitype/StillImage" />
        <dc:title />
      </cc:Work>
    </rdf:RDF>
  </metadata>
  <sodipodi:namedview
     inkscape:window-height="725"
     inkscape:pageshadow="2"
     inkscape:pageopacity="0.0"
     borderopacity="1.0"
     bordercolor="#666666"
     pagecolor="#ffffff"
     id="base"
     showgrid="false"
     showguides="true"
     inkscape:guide-bbox="true"
     inkscape:zoom="0.908"
     inkscape:cx="303.39358"
     inkscape:cy="324.63709"
     inkscape:window-x="0"
     inkscape:window-y="24"
     inkscape:current-layer="svg5496"
     inkscape:window-width="1280"
     inkscape:window-maximized="1">
    <sodipodi:guide
       orientation="horizontal"
       position="200"
       id="guide5596" />
  </sodipodi:namedview>
  <defs
     id="defs5498">
    <inkscape:perspective
       sodipodi:type="inkscape:persp3d"
       inkscape:vp_x="0 : 500 : 1"
       inkscape:vp_y="0 : 1000 : 0"
       inkscape:vp_z="1000 : 500 : 1"
       inkscape:persp3d-origin="500 : 333.33333 : 1"
       id="perspective4275" />
    <inkscape:perspective
       id="perspective4264"
       inkscape:persp3d-origin="0.5 : 0.33333333 : 1"
       inkscape:vp_z="1 : 0.5 : 1"
       inkscape:vp_y="0 : 1000 : 0"
       inkscape:vp_x="0 : 0.5 : 1"
       sodipodi:type="inkscape:persp3d" />
    <inkscape:perspective
       id="perspective4172"
       inkscape:persp3d-origin="0.5 : 0.33333333 : 1"
       inkscape:vp_z="1 : 0.5 : 1"
       inkscape:vp_y="0 : 1000 : 0"
       inkscape:vp_x="0 : 0.5 : 1"
       sodipodi:type="inkscape:persp3d" />
    <inkscape:perspective
       id="perspective4366"
       inkscape:persp3d-origin="0.5 : 0.33333333 : 1"
       inkscape:vp_z="1 : 0.5 : 1"
       inkscape:vp_y="0 : 1000 : 0"
       inkscape:vp_x="0 : 0.5 : 1"
       sodipodi:type="inkscape:persp3d" />
    <inkscape:perspective
       id="perspective2836"
       inkscape:persp3d-origin="0.5 : 0.33333333 : 1"
       inkscape:vp_z="1 : 0.5 : 1"
       inkscape:vp_y="0 : 1000 : 0"
       inkscape:vp_x="0 : 0.5 : 1"
       sodipodi:type="inkscape:persp3d" />
    <inkscape:perspective
       id="perspective2841"
       inkscape:persp3d-origin="0.5 : 0.33333333 : 1"
       inkscape:vp_z="1 : 0.5 : 1"
       inkscape:vp_y="0 : 1000 : 0"
       inkscape:vp_x="0 : 0.5 : 1"
       sodipodi:type="inkscape:persp3d" />
  </defs>
  <g
     id="layer1" />
  <path
     style="color:#000000;fill:#ff0000;fill-opacity:0.60784314;stroke:#000000;stroke-width:0;stroke-linecap:butt;stroke-linejoin:miter;stroke-miterlimit:4;stroke-opacity:1;stroke-dasharray:none;stroke-dashoffset:0;marker:none;visibility:visible;display:inline;overflow:visible;enable-background:accumulate"
     d="m 287.407,549.9463 -24.134,82.9839 c 12.167,11.6379 26.218,35.807 26.772,57.9402 -10.753,4.8617 -29.492,4.9229 -49.178,0.1638 C 151.009,669.3107 108.633,445.9575 90.305,386.47728 88.51,380.6523 79.714,376.16442 76.44,384.33763 c 0,0 -17.659,37.40267 -26.3,58.32317 -3.182,7.704 -5.928,11.8097 -1.932,26.4234 13.783,50.4032 44.242,140.3898 36.866,168.4376 -6.061,23.0431 -9.001,52.0167 -84.815,71.0119 L 0,800 c 23.94,-1.8429 63.137,-20.1276 101.635,-150.4028 48.213,105.5815 80.572,157.6721 151.056,153.5812 39.188,-2.2745 63.961,-58.6593 73.288,-107.125 9.381,-48.7454 -0.129,-125.6916 -25.401,-150.4463 -6.321,-6.1917 -9.643,-7.79 -13.171,4.3392 z"
     id="path4254"
     sodipodi:nodetypes="cccsssssscccssss" />
  <path
     sodipodi:nodetypes="csscssssss"
     id="path2827"
     d="m 287.407,549.9463 -21.2855,73.18943 c -1.63568,5.62423 -1.20156,11.31475 2.16963,15.1873 8.51071,9.7764 20.99971,37.82252 21.75387,52.54737 -10.753,4.8617 -29.40388,4.51137 -49.178,0.1638 -12.95169,-2.84758 -15.96006,25.36978 -15.31126,53.55599 0.59864,26.00725 -0.30603,60.69957 27.13526,58.58821 39.13465,-3.04158 59.961,-58.6593 69.288,-107.125 9.381,-48.7454 -0.41214,-125.6916 -21.401,-150.4463 -5.72224,-6.74893 -9.64346,-7.79013 -13.171,4.3392 z"
     style="color:#000000;fill:#ff0000;fill-opacity:0.60784314;stroke:#000000;stroke-width:0;stroke-linecap:butt;stroke-linejoin:miter;stroke-miterlimit:4;stroke-opacity:1;stroke-dasharray:none;stroke-dashoffset:0;marker:none;visibility:visible;display:inline;overflow:visible;enable-background:accumulate" />
  <path
     style="color:#000000;fill:#ff0000;fill-opacity:0.60784314;stroke:#000000;stroke-width:0;stroke-linecap:butt;stroke-linejoin:miter;stroke-miterlimit:4;stroke-opacity:1;stroke-dasharray:none;stroke-dashoffset:0;marker:none;visibility:visible;display:inline;overflow:visible;enable-background:accumulate"
     d="M 240.867,691.0342 C 150.86473,669.96548 108.633,445.9575 90.305,386.47728 88.51,380.6523 79.714,376.16442 76.44,384.33763 c 0,0 -17.659,37.40267 -26.3,58.32317 -3.182,7.704 -5.928,11.8097 -1.932,26.4234 C 61.991,519.4874 92.45,609.474 85.074,637.5218 79.013,660.5649 72.853588,690.61453 0.25899997,710.18568 -20.962024,715.90676 -26.339594,721.04441 -19.954086,754.88898 -13.568578,788.73355 -6.3543314,800 -3.3972473e-8,800 22.483325,800 64.499816,775.58926 102.99782,645.31406 c 41.5936,105.5815 80.54352,163.11241 149.69318,157.86434 10.39951,-0.78926 16.10428,-12.30802 14.58083,-60.58785 -1.52345,-48.27983 -16.8456,-49.31862 -26.40483,-51.55635 z"
     id="path2830"
     sodipodi:nodetypes="csssssszscszs" />
</svg>
