<?xml version="1.0" encoding="UTF-8" standalone="no"?>
<!-- Created with Inkscape (http://www.inkscape.org/) -->

<svg
   xmlns:dc="http://purl.org/dc/elements/1.1/"
   xmlns:cc="http://creativecommons.org/ns#"
   xmlns:rdf="http://www.w3.org/1999/02/22-rdf-syntax-ns#"
   xmlns:svg="http://www.w3.org/2000/svg"
   xmlns="http://www.w3.org/2000/svg"
   xmlns:sodipodi="http://sodipodi.sourceforge.net/DTD/sodipodi-0.dtd"
   xmlns:inkscape="http://www.inkscape.org/namespaces/inkscape"
   version="1.0"
   width="1000"
   height="1000"
   id="svg5496"
   sodipodi:version="0.32"
   inkscape:version="0.47pre4 r22446"
   sodipodi:docname="baa+heh.medi.svg"
   inkscape:output_extension="org.inkscape.output.svg.inkscape">
  <metadata
     id="metadata5594">
    <rdf:RDF>
      <cc:Work
         rdf:about="">
        <dc:format>image/svg+xml</dc:format>
        <dc:type
           rdf:resource="http://purl.org/dc/dcmitype/StillImage" />
        <dc:title />
      </cc:Work>
    </rdf:RDF>
  </metadata>
  <sodipodi:namedview
     inkscape:window-height="767"
     inkscape:window-width="1278"
     inkscape:pageshadow="2"
     inkscape:pageopacity="0.0"
     borderopacity="1.0"
     bordercolor="#666666"
     pagecolor="#ffffff"
     id="base"
     showgrid="false"
     showguides="true"
     inkscape:guide-bbox="true"
     inkscape:zoom="1.2841059"
     inkscape:cx="153.18166"
     inkscape:cy="241.67592"
     inkscape:window-x="0"
     inkscape:window-y="0"
     inkscape:current-layer="svg5496"
     inkscape:window-maximized="1">
    <sodipodi:guide
       orientation="horizontal"
       position="200"
       id="guide5596" />
  </sodipodi:namedview>
  <defs
     id="defs5498">
    <inkscape:perspective
       sodipodi:type="inkscape:persp3d"
       inkscape:vp_x="0 : 500 : 1"
       inkscape:vp_y="0 : 1000 : 0"
       inkscape:vp_z="1000 : 500 : 1"
       inkscape:persp3d-origin="500 : 333.33333 : 1"
       id="perspective3831" />
    <inkscape:perspective
       id="perspective3820"
       inkscape:persp3d-origin="0.5 : 0.33333333 : 1"
       inkscape:vp_z="1 : 0.5 : 1"
       inkscape:vp_y="0 : 1000 : 0"
       inkscape:vp_x="0 : 0.5 : 1"
       sodipodi:type="inkscape:persp3d" />
    <inkscape:perspective
       id="perspective2840"
       inkscape:persp3d-origin="0.5 : 0.33333333 : 1"
       inkscape:vp_z="1 : 0.5 : 1"
       inkscape:vp_y="0 : 1000 : 0"
       inkscape:vp_x="0 : 0.5 : 1"
       sodipodi:type="inkscape:persp3d" />
    <inkscape:perspective
       id="perspective2840-3"
       inkscape:persp3d-origin="0.5 : 0.33333333 : 1"
       inkscape:vp_z="1 : 0.5 : 1"
       inkscape:vp_y="0 : 1000 : 0"
       inkscape:vp_x="0 : 0.5 : 1"
       sodipodi:type="inkscape:persp3d" />
  </defs>
  <path
     sodipodi:nodetypes="csssscszscssssss"
     id="path2821"
     d="m 178.55572,788.60221 c -39.28797,79.01613 -20.40998,166.00433 -1.29361,222.32379 1.62684,4.7929 3.07,8.543 0,13.107 l -34.64,51.491 c -2.696,4.008 -4.778,11.567 -10.299,5.15 -65.808992,-76.505 -67.669992,-194.41675 -39.788992,-314.56775 -30.642,22.575 -55.57516,30.44632 -72.45899,33.236 C 7.1649377,801.47537 -2.6035323,758.26607 -4.6682923,735.53953 -6.735362,712.7876 0.79277762,712.40322 20.075128,709.46525 c 71.94486,-10.96193 107.808982,-57.428 144.079982,-118.431 14.296,-19.059 29.882,-6.148 22.937,6.085 -18.046,31.789 -42.385,81.034 -59.391,132.321 -19.21,57.927 -29.429992,118.092 -17.495,151.82 0.495,1.398 2.08401,1.20701 2.778,-0.534 16.89069,-42.37368 34.05352,-77.8083 51.82627,-107.49829 28.4682,-47.55713 35.45186,-28.282 13.74534,15.37425 z"
     style="fill:#ff0000;fill-opacity:0.60784314;fill-rule:evenodd;stroke:#000000;stroke-width:0.92476678px;stroke-linecap:butt;stroke-linejoin:miter;stroke-opacity:1" />
  <path
     style="fill:#ff0000;fill-opacity:0.60784314;fill-rule:evenodd;stroke:#000000;stroke-width:1;stroke-linecap:butt;stroke-linejoin:miter;stroke-miterlimit:4;stroke-opacity:1;stroke-dasharray:none"
     d="m 289.491,721.2706 c -40.191,8.432 -83.72507,29.53155 -106.786,62.5401 -8.13137,11.63893 -14.2719,25.19923 -18.4984,39.9878 -6.0382,21.12774 -31.17021,9.40745 -19.33684,-15.15417 26.90049,-55.83531 65.43537,-109.04084 111.48524,-142.71192 34.34621,-25.11351 74.256,-39.092 120.506,-32.7933 39.799,5.4202 44.72178,60.46705 98.552,66.10099 24.98368,2.61482 14.35754,91.57178 0.13,91.0352 -41.86136,-1.57877 -67.344,-23.7335 -87.985,-43.4266 -34.513,-32.9271 -52.814,-35.072 -98.067,-25.5781 z"
     id="path2819"
     sodipodi:nodetypes="csssssssss" />
  <g
     id="layer1"
     transform="translate(0,-20)" />
</svg>
