<?xml version="1.0" encoding="UTF-8" standalone="no"?>
<!-- Created with Inkscape (http://www.inkscape.org/) -->

<svg
   xmlns:dc="http://purl.org/dc/elements/1.1/"
   xmlns:cc="http://creativecommons.org/ns#"
   xmlns:rdf="http://www.w3.org/1999/02/22-rdf-syntax-ns#"
   xmlns:svg="http://www.w3.org/2000/svg"
   xmlns="http://www.w3.org/2000/svg"
   xmlns:sodipodi="http://sodipodi.sourceforge.net/DTD/sodipodi-0.dtd"
   xmlns:inkscape="http://www.inkscape.org/namespaces/inkscape"
   version="1.0"
   width="1000"
   height="1000"
   id="svg5496"
   sodipodi:version="0.32"
   inkscape:version="0.47pre4 r22446"
   sodipodi:docname="baa+baa.isol.svg"
   inkscape:output_extension="org.inkscape.output.svg.inkscape">
  <metadata
     id="metadata5594">
    <rdf:RDF>
      <cc:Work
         rdf:about="">
        <dc:format>image/svg+xml</dc:format>
        <dc:type
           rdf:resource="http://purl.org/dc/dcmitype/StillImage" />
        <dc:title />
      </cc:Work>
    </rdf:RDF>
  </metadata>
  <sodipodi:namedview
     inkscape:pageshadow="2"
     inkscape:pageopacity="0.0"
     borderopacity="1.0"
     bordercolor="#666666"
     pagecolor="#ffffff"
     id="base"
     showgrid="false"
     showguides="true"
     inkscape:guide-bbox="true"
     inkscape:zoom="0.63386836"
     inkscape:cx="749.14909"
     inkscape:cy="176.38159"
     inkscape:window-x="0"
     inkscape:window-y="0"
     inkscape:current-layer="svg5496"
     inkscape:window-maximized="1"
     inkscape:window-width="1278"
     inkscape:window-height="767">
    <sodipodi:guide
       orientation="horizontal"
       position="200"
       id="guide5596" />
  </sodipodi:namedview>
  <defs
     id="defs5498">
    <inkscape:perspective
       sodipodi:type="inkscape:persp3d"
       inkscape:vp_x="0 : 500 : 1"
       inkscape:vp_y="0 : 1000 : 0"
       inkscape:vp_z="1000 : 500 : 1"
       inkscape:persp3d-origin="500 : 333.33333 : 1"
       id="perspective3664" />
    <inkscape:perspective
       id="perspective3653"
       inkscape:persp3d-origin="0.5 : 0.33333333 : 1"
       inkscape:vp_z="1 : 0.5 : 1"
       inkscape:vp_y="0 : 1000 : 0"
       inkscape:vp_x="0 : 0.5 : 1"
       sodipodi:type="inkscape:persp3d" />
    <inkscape:perspective
       id="perspective4548"
       inkscape:persp3d-origin="0.5 : 0.33333333 : 1"
       inkscape:vp_z="1 : 0.5 : 1"
       inkscape:vp_y="0 : 1000 : 0"
       inkscape:vp_x="0 : 0.5 : 1"
       sodipodi:type="inkscape:persp3d" />
    <inkscape:perspective
       id="perspective3796"
       inkscape:persp3d-origin="0.5 : 0.33333333 : 1"
       inkscape:vp_z="1 : 0.5 : 1"
       inkscape:vp_y="0 : 1000 : 0"
       inkscape:vp_x="0 : 0.5 : 1"
       sodipodi:type="inkscape:persp3d" />
    <inkscape:perspective
       sodipodi:type="inkscape:persp3d"
       inkscape:vp_x="0 : 0.5 : 1"
       inkscape:vp_y="0 : 1000 : 0"
       inkscape:vp_z="1 : 0.5 : 1"
       inkscape:persp3d-origin="0.5 : 0.33333333 : 1"
       id="perspective2974" />
    <inkscape:perspective
       id="perspective2986"
       inkscape:persp3d-origin="500 : 333.33333 : 1"
       inkscape:vp_z="1000 : 500 : 1"
       inkscape:vp_y="0 : 1000 : 0"
       inkscape:vp_x="0 : 500 : 1"
       sodipodi:type="inkscape:persp3d" />
  </defs>
  <path
     style="color:#000000;fill:#ff0000;fill-opacity:0.60784314;stroke:#000000;stroke-width:0.98898274px;stroke-linecap:butt;stroke-linejoin:miter;stroke-miterlimit:4;stroke-opacity:1;stroke-dasharray:none;stroke-dashoffset:0;marker:none;visibility:visible;display:inline;overflow:visible;enable-background:accumulate"
     d="m 726.07279,619.79716 c -5.49896,-2.4841 -4.943,-6.2812 -4.214,-11.3168 1.905,-10.2391 4.2,-12.5062 5.383,-22.9816 2.929,-25.9575 -23.696,-27.6646 -28.222,-10.402 -14.748,56.2484 -33.394,72.2851 -120.257,95.2692 -57.383,15.184 -147.109,33.2307 -254.528,32.6389 -61.697,-0.3399 -178.527,-2.5175 -242.328002,-48.4562 -47.536,-34.2268 -61.168409,-94.14457 -14.297541,-148.66352 10.995407,-12.78957 -5.802817,-25.34451 -15.452031,-15.03762 -31.717944,33.87977 -63.640428,108.85714 -45.7674284,181.92354 15.9450004,65.1805 75.9010004,123.6146 265.2620024,125.5792 163.013,1.6912 318.922,-26.7452 424.828,-100.4893 3.689,-2.5694 5.83775,-0.90517 9.523,0.8616 15.74587,7.54882 25.29427,-21.18779 29.77459,-36.30918 5.22051,-17.61961 9.44607,-33.96512 -9.70459,-42.61622 z"
     id="path2838"
     sodipodi:nodetypes="ccsssssssssssss" />
  <path
     sodipodi:nodetypes="csssssssssss"
     id="path2816"
     d="m 874.70479,532.81826 c -8.49,27.9229 -17.399,54.8698 -25.974,83.7963 -0.781,2.6349 0.413,3.3166 2.247,4.7708 4.503,3.5706 16.953,14.2122 19.807,20.6866 0.534,1.2145 -1.081,2.2087 -6.5,2.731 -40.993,3.9524 -81.89362,1.84751 -138.212,-25.0058 -14.85474,-7.08292 -27.41894,9.9211 -32.18187,26.71761 -6.85282,24.16655 -7.18575,38.97145 12.11187,52.20779 32.68389,22.41806 114.718,48.1555 147.001,36.5808 17.944,-6.4334 32.603,-41.3428 43.862,-86.0222 10.117,-40.1501 4.143,-93.3864 -17.994,-116.7338 -2.099,-2.2139 -3.281,-2.642 -4.167,0.2709 z"
     style="color:#000000;fill:#ff0000;fill-opacity:0.60784314;stroke:#000000;stroke-width:0.98898274px;stroke-linecap:butt;stroke-linejoin:miter;stroke-miterlimit:4;stroke-opacity:1;stroke-dasharray:none;stroke-dashoffset:0;marker:none;visibility:visible;display:inline;overflow:visible;enable-background:accumulate" />
  <g
     id="layer1"
     transform="translate(8.8105729,-237.88546)" />
</svg>
