<?xml version="1.0" encoding="UTF-8" standalone="no"?>
<!-- Created with Inkscape (http://www.inkscape.org/) -->

<svg
   xmlns:dc="http://purl.org/dc/elements/1.1/"
   xmlns:cc="http://creativecommons.org/ns#"
   xmlns:rdf="http://www.w3.org/1999/02/22-rdf-syntax-ns#"
   xmlns:svg="http://www.w3.org/2000/svg"
   xmlns="http://www.w3.org/2000/svg"
   xmlns:sodipodi="http://sodipodi.sourceforge.net/DTD/sodipodi-0.dtd"
   xmlns:inkscape="http://www.inkscape.org/namespaces/inkscape"
   version="1.0"
   width="1000"
   height="1000"
   id="svg5496"
   sodipodi:version="0.32"
   inkscape:version="0.47pre0 r21549"
   sodipodi:docname="baa+yaa.isol.svg"
   inkscape:output_extension="org.inkscape.output.svg.inkscape">
  <metadata
     id="metadata5594">
    <rdf:RDF>
      <cc:Work
         rdf:about="">
        <dc:format>image/svg+xml</dc:format>
        <dc:type
           rdf:resource="http://purl.org/dc/dcmitype/StillImage" />
        <dc:title></dc:title>
      </cc:Work>
    </rdf:RDF>
  </metadata>
  <sodipodi:namedview
     inkscape:window-height="717"
     inkscape:pageshadow="2"
     inkscape:pageopacity="0.0"
     borderopacity="1.0"
     bordercolor="#666666"
     pagecolor="#ffffff"
     id="base"
     showgrid="false"
     showguides="true"
     inkscape:guide-bbox="true"
     inkscape:zoom="0.64205296"
     inkscape:cx="574.7845"
     inkscape:cy="460.24418"
     inkscape:window-x="0"
     inkscape:window-y="28"
     inkscape:current-layer="svg5496"
     inkscape:window-maximized="1">
    <sodipodi:guide
       orientation="horizontal"
       position="200"
       id="guide5596" />
  </sodipodi:namedview>
  <defs
     id="defs5498">
    <inkscape:perspective
       sodipodi:type="inkscape:persp3d"
       inkscape:vp_x="0 : 500 : 1"
       inkscape:vp_y="0 : 1000 : 0"
       inkscape:vp_z="1000 : 500 : 1"
       inkscape:persp3d-origin="500 : 333.33333 : 1"
       id="perspective2837" />
    <inkscape:perspective
       id="perspective2826"
       inkscape:persp3d-origin="0.5 : 0.33333333 : 1"
       inkscape:vp_z="1 : 0.5 : 1"
       inkscape:vp_y="0 : 1000 : 0"
       inkscape:vp_x="0 : 0.5 : 1"
       sodipodi:type="inkscape:persp3d" />
  </defs>
  <g
     id="layer1"
     transform="translate(-327.51072,281.64098)" />
  <path
     style="fill:#000000;stroke:#000000;stroke-width:1px;stroke-opacity:1"
     d="m 723.15008,488.13878 c -4.43911,18.45494 -30.1458,68.41991 -68.8326,69.38326 -57.01194,1.41967 -96.40011,-87.3457 -122.2467,-89.20705 -37.92127,-2.73091 -92.60342,30.70191 -139.46414,82.46609 -54.39893,60.09116 -97.47723,143.94736 -65.93234,185.70572 26.97718,35.71173 174.91141,18.44622 214.25286,50.519 2.72487,2.22143 2.36346,4.57549 1.39601,5.43231 C 505.594,824.96693 354.20776,896.00906 227.55536,898.93174 137.12102,901.01864 66.986844,870.09139 40.709854,783.08232 c -17.44528,-57.76526 7.0104,-125.80994 36.51511,-191.14397 4.43202,-9.81409 -7.65927,-21.21233 -15.96916,-6.05727 C 27.941794,646.63709 7.7494943,727.8472 2.3227243,795.01797 -6.5771957,905.17831 46.960214,1009.0627 231.3155,998.01155 356.62097,990.5001 491.92255,913.69506 555.816,859.47312 c 25.30778,-21.47696 43.69023,-96.72913 30.7702,-131.24623 -8.09745,-21.6331 -38.91479,-32.20719 -60.00761,-36.88283 -50.52289,-11.19937 -150.13127,-7.75596 -162.45935,-39.65902 -7.17039,-18.55581 31.94466,-81.41931 133.25991,-105.17621 41.1011,-9.63759 92.35748,103.5419 145.37445,107.37886 47.97388,3.47198 107.03111,-110.48307 107.37878,-159.69163 0.21553,-30.5052 -23.75621,-19.46926 -26.9823,-6.05728 z"
     id="path2848"
     sodipodi:nodetypes="cssssssssssssssssssss" />
</svg>
