<?xml version="1.0" encoding="UTF-8" standalone="no"?>
<!-- Created with Inkscape (http://www.inkscape.org/) -->

<svg
   xmlns:dc="http://purl.org/dc/elements/1.1/"
   xmlns:cc="http://creativecommons.org/ns#"
   xmlns:rdf="http://www.w3.org/1999/02/22-rdf-syntax-ns#"
   xmlns:svg="http://www.w3.org/2000/svg"
   xmlns="http://www.w3.org/2000/svg"
   xmlns:sodipodi="http://sodipodi.sourceforge.net/DTD/sodipodi-0.dtd"
   xmlns:inkscape="http://www.inkscape.org/namespaces/inkscape"
   version="1.0"
   width="1000"
   height="1000"
   id="svg5496"
   sodipodi:version="0.32"
   inkscape:version="0.47pre4 r22446"
   sodipodi:docname="baa+baa+meem.init.svg"
   inkscape:output_extension="org.inkscape.output.svg.inkscape">
  <metadata
     id="metadata5594">
    <rdf:RDF>
      <cc:Work
         rdf:about="">
        <dc:format>image/svg+xml</dc:format>
        <dc:type
           rdf:resource="http://purl.org/dc/dcmitype/StillImage" />
      </cc:Work>
    </rdf:RDF>
  </metadata>
  <sodipodi:namedview
     inkscape:window-height="618"
     inkscape:window-width="641"
     inkscape:pageshadow="2"
     inkscape:pageopacity="0.0"
     guidetolerance="10.0"
     gridtolerance="10.0"
     objecttolerance="10.0"
     borderopacity="1.0"
     bordercolor="#666666"
     pagecolor="#ffffff"
     id="base"
     showgrid="false"
     showguides="true"
     inkscape:guide-bbox="true"
     inkscape:zoom="0.64205296"
     inkscape:cx="373.19852"
     inkscape:cy="516.98272"
     inkscape:window-x="0"
     inkscape:window-y="25"
     inkscape:current-layer="svg5496"
     inkscape:window-maximized="0">
    <sodipodi:guide
       orientation="horizontal"
       position="200"
       id="guide5596" />
  </sodipodi:namedview>
  <defs
     id="defs5498">
    <inkscape:perspective
       sodipodi:type="inkscape:persp3d"
       inkscape:vp_x="0 : 500 : 1"
       inkscape:vp_y="0 : 1000 : 0"
       inkscape:vp_z="1000 : 500 : 1"
       inkscape:persp3d-origin="500 : 333.33333 : 1"
       id="perspective3206" />
    <inkscape:perspective
       id="perspective3215"
       inkscape:persp3d-origin="372.04724 : 350.78739 : 1"
       inkscape:vp_z="744.09448 : 526.18109 : 1"
       inkscape:vp_y="0 : 1000 : 0"
       inkscape:vp_x="0 : 526.18109 : 1"
       sodipodi:type="inkscape:persp3d" />
    <inkscape:perspective
       id="perspective7915"
       inkscape:persp3d-origin="0.5 : 0.33333333 : 1"
       inkscape:vp_z="1 : 0.5 : 1"
       inkscape:vp_y="0 : 1000 : 0"
       inkscape:vp_x="0 : 0.5 : 1"
       sodipodi:type="inkscape:persp3d" />
  </defs>
  <g
     id="layer1" />
  <path
     style="fill:#ff0000;fill-opacity:0.60784314;fill-rule:evenodd;stroke:#000000;stroke-width:1;stroke-linecap:butt;stroke-linejoin:miter;stroke-miterlimit:4;stroke-opacity:1;stroke-dasharray:none"
     d="m 445.1995,394.2763 c -11.9621,38.4952 -34.8521,70.3064 -64.7444,71.7591 -26.6962,1.2859 -46.9808,-13.3874 -66.8629,-34.2609 -21.9755,-23.0714 -28.8148,-47.6482 -56.9291,-49.7568 -27.7203,-2.0791 -112.2093,39.8779 -140.615,139.8589 -13.5839,47.8127 -16.0968,88.5685 -6.0948,136.8299 2.1198,10.2284 -0.6266,14.2736 -5.9376,18.0446 C 82.8543,691.7751 61.0438,705.8216 0.067,710.1703 L 0,800 c 41.8625,-0.5372 129.1718,-65.8108 167.3242,-63.0149 29.6313,2.1714 73.3598,30.6948 106.7028,52.3864 4.9651,3.2301 12.8398,7.8204 18.5504,-4.9841 10.2256,-22.9282 16.7896,-41.5661 25.801,-67.3001 6.9175,-19.7546 -2.3441,-26.1287 -17.0912,-32.2979 -42.5492,-17.7998 -75.7768,-24.6907 -110.5292,-53.605 -29.7133,-24.7217 -46.2961,-62.9473 -56.5871,-95.4646 -1.267,-4.0032 -1.6518,-13.3823 3.4442,-19.329 23.8074,-27.7809 50.2832,-40.4232 79.158,-50.22 10.6635,-3.618 30.584,-2.0434 37.572,6.954 28.3221,36.4663 66.4477,78.9154 102.763,81.1646 31.0692,1.9243 56.6802,-17.3683 73.1862,-43.9778 15.8944,-25.6236 34.2196,-66.218 35.4171,-107.416 0.4232,-14.7452 -14.9458,-26.5314 -20.5117,-8.6193 l -2e-4,0 z"
     id="path3221"
     sodipodi:nodetypes="cssssssccssssssssssssssc" />
</svg>
