<?xml version="1.0" encoding="UTF-8" standalone="no"?>
<!-- Created with Inkscape (http://www.inkscape.org/) -->
<svg
   xmlns:dc="http://purl.org/dc/elements/1.1/"
   xmlns:cc="http://creativecommons.org/ns#"
   xmlns:rdf="http://www.w3.org/1999/02/22-rdf-syntax-ns#"
   xmlns:svg="http://www.w3.org/2000/svg"
   xmlns="http://www.w3.org/2000/svg"
   xmlns:sodipodi="http://sodipodi.sourceforge.net/DTD/sodipodi-0.dtd"
   xmlns:inkscape="http://www.inkscape.org/namespaces/inkscape"
   version="1.0"
   width="1000"
   height="1000"
   id="svg5496"
   sodipodi:version="0.32"
   inkscape:version="0.46"
   sodipodi:docname="baa+noon.isol.svg"
   inkscape:output_extension="org.inkscape.output.svg.inkscape">
  <metadata
     id="metadata5594">
    <rdf:RDF>
      <cc:Work
         rdf:about="">
        <dc:format>image/svg+xml</dc:format>
        <dc:type
           rdf:resource="http://purl.org/dc/dcmitype/StillImage" />
      </cc:Work>
    </rdf:RDF>
  </metadata>
  <sodipodi:namedview
     inkscape:pageshadow="2"
     inkscape:pageopacity="0.0"
     guidetolerance="10.0"
     gridtolerance="10.0"
     objecttolerance="10.0"
     borderopacity="1.0"
     bordercolor="#666666"
     pagecolor="#ffffff"
     id="base"
     showgrid="false"
     showguides="true"
     inkscape:guide-bbox="true"
     inkscape:zoom="0.236"
     inkscape:cx="500"
     inkscape:cy="500"
     inkscape:window-x="0"
     inkscape:window-y="25"
     inkscape:current-layer="svg5496">
    <sodipodi:guide
       orientation="horizontal"
       position="200"
       id="guide5596" />
  </sodipodi:namedview>
  <defs
     id="defs5498">
    <inkscape:perspective
       sodipodi:type="inkscape:persp3d"
       inkscape:vp_x="0 : 500 : 1"
       inkscape:vp_y="0 : 1000 : 0"
       inkscape:vp_z="1000 : 500 : 1"
       inkscape:persp3d-origin="500 : 333.33333 : 1"
       id="perspective3413" />
    <inkscape:perspective
       id="perspective3422"
       inkscape:persp3d-origin="372.04724 : 350.78739 : 1"
       inkscape:vp_z="744.09448 : 526.18109 : 1"
       inkscape:vp_y="0 : 1000 : 0"
       inkscape:vp_x="0 : 526.18109 : 1"
       sodipodi:type="inkscape:persp3d" />
  </defs>
  <g
     id="layer1"
     transform="matrix(1.3,0,0,1.3,-1.5766886,-596.74525)" />
  <path
     style="fill:#000000;fill-rule:evenodd;stroke:#000000;stroke-width:1px;stroke-linecap:butt;stroke-linejoin:miter;stroke-opacity:1"
     d="M 669.89909,246.89461 C 679.61227,349.00495 657.28929,421.67473 564.71416,442.07246 C 560.16444,443.07493 560.34816,445.84568 559.78012,449.81804 C 549.64898,520.66707 528.43177,615.31219 502.54023,657.21402 C 455.60306,733.17525 351.68148,807.11435 211.03345,806.33855 C 66.810901,805.54295 0.22340544,717.96685 -0.45801556,614.48311 C -0.95413456,538.61877 47.068594,424.60257 72.872645,379.68646 C 79.653692,367.88296 94.560532,379.61244 90.053263,389.70849 C 72.989606,427.93025 41.465035,485.7471 41.470716,537.17842 C 41.47862,608.82024 90.203387,683.42915 224.63477,686.07415 C 352.79682,688.59575 473.82276,615.66145 504.104,567.64232 C 507.09228,562.90357 508.45005,558.29414 509.18662,552.92376 C 518.69864,483.57176 501.94825,418.84185 472.322,356.77897 C 469.46253,350.78879 467.56911,345.71282 469.37172,339.34525 C 475.89487,316.30271 492.8798,280.85399 499.43779,266.83383 C 502.11965,261.10036 506.01548,258.61963 511.39773,263.29796 C 526.27222,276.22708 536.26598,291.35584 546.3379,310.89246 C 549.80767,317.62281 554.81845,321.0019 561.38959,323.74103 C 579.27659,331.19709 615.38064,326.66267 626.31055,316.84472 C 637.8772,306.45481 643.6047,273.72633 645.55988,248.32632 C 647.17468,227.3485 668.47498,231.9236 669.89909,246.89461 z"
     id="path3428"
     sodipodi:nodetypes="cssssssssssssssssssss" />
</svg>
