<?xml version="1.0" encoding="UTF-8" standalone="no"?>
<!-- Created with Inkscape (http://www.inkscape.org/) -->

<svg
   xmlns:dc="http://purl.org/dc/elements/1.1/"
   xmlns:cc="http://creativecommons.org/ns#"
   xmlns:rdf="http://www.w3.org/1999/02/22-rdf-syntax-ns#"
   xmlns:svg="http://www.w3.org/2000/svg"
   xmlns="http://www.w3.org/2000/svg"
   xmlns:sodipodi="http://sodipodi.sourceforge.net/DTD/sodipodi-0.dtd"
   xmlns:inkscape="http://www.inkscape.org/namespaces/inkscape"
   version="1.0"
   width="1000"
   height="1000"
   id="svg5496"
   sodipodi:version="0.32"
   inkscape:version="0.47pre4 r22446"
   sodipodi:docname="baa+seen.init.alt.svg"
   inkscape:output_extension="org.inkscape.output.svg.inkscape">
  <metadata
     id="metadata5594">
    <rdf:RDF>
      <cc:Work
         rdf:about="">
        <dc:format>image/svg+xml</dc:format>
        <dc:type
           rdf:resource="http://purl.org/dc/dcmitype/StillImage" />
        <dc:title />
      </cc:Work>
    </rdf:RDF>
  </metadata>
  <sodipodi:namedview
     inkscape:window-height="618"
     inkscape:pageshadow="2"
     inkscape:pageopacity="0.0"
     borderopacity="1.0"
     bordercolor="#666666"
     pagecolor="#ffffff"
     id="base"
     showgrid="false"
     showguides="true"
     inkscape:guide-bbox="true"
     inkscape:zoom="0.60057299"
     inkscape:cx="140.00519"
     inkscape:cy="287.16383"
     inkscape:window-x="686"
     inkscape:window-y="34"
     inkscape:current-layer="svg5496"
     inkscape:window-maximized="0"
     inkscape:window-width="641">
    <sodipodi:guide
       orientation="horizontal"
       position="200"
       id="guide5596" />
  </sodipodi:namedview>
  <defs
     id="defs5498">
    <inkscape:perspective
       sodipodi:type="inkscape:persp3d"
       inkscape:vp_x="0 : 500 : 1"
       inkscape:vp_y="0 : 1000 : 0"
       inkscape:vp_z="1000 : 500 : 1"
       inkscape:persp3d-origin="500 : 333.33333 : 1"
       id="perspective3749" />
    <inkscape:perspective
       id="perspective3738"
       inkscape:persp3d-origin="0.5 : 0.33333333 : 1"
       inkscape:vp_z="1 : 0.5 : 1"
       inkscape:vp_y="0 : 1000 : 0"
       inkscape:vp_x="0 : 0.5 : 1"
       sodipodi:type="inkscape:persp3d" />
    <inkscape:perspective
       sodipodi:type="inkscape:persp3d"
       inkscape:vp_x="0 : 526.18109 : 1"
       inkscape:vp_y="0 : 1000 : 0"
       inkscape:vp_z="744.09448 : 526.18109 : 1"
       inkscape:persp3d-origin="372.04724 : 350.78739 : 1"
       id="perspective2388" />
    <inkscape:perspective
       id="perspective8"
       inkscape:persp3d-origin="500 : 333.33333 : 1"
       inkscape:vp_z="1000 : 500 : 1"
       inkscape:vp_y="0 : 1000 : 0"
       inkscape:vp_x="0 : 500 : 1"
       sodipodi:type="inkscape:persp3d" />
    <inkscape:perspective
       id="perspective4535"
       inkscape:persp3d-origin="0.5 : 0.33333333 : 1"
       inkscape:vp_z="1 : 0.5 : 1"
       inkscape:vp_y="0 : 1000 : 0"
       inkscape:vp_x="0 : 0.5 : 1"
       sodipodi:type="inkscape:persp3d" />
  </defs>
  <path
     style="color:#000000;fill:#ff0000;fill-opacity:0.60784314;stroke:#000000;stroke-width:1;stroke-linecap:butt;stroke-linejoin:miter;stroke-miterlimit:4;stroke-opacity:1;stroke-dasharray:none;stroke-dashoffset:0;marker:none;visibility:visible;display:inline;overflow:visible;enable-background:accumulate"
     d="m 293.0567,622.428 c -3.82454,-5.4926 -11.1688,-3.102 -12.8641,1.819 -10.157,29.476 -25.3524,83.138 -39.5536,89.803 -28.2953,13.278 -73.055,-13.208 -86.0623,-26.438 -4.4661,-4.542 -6.1549,-14.475 -4.3511,-23.949 1.8861,-9.905 4.71967,-17.15595 8.97642,-28.01153 5.63717,-14.37594 -13.23812,-22.66124 -20.40961,-4.85708 -18.459,45.8269 -38.62895,85.55545 -138.84441,78.76961 -20.755754,-1.40542 -23.528236,7.17917 -21.264902,33.92541 C -19.053569,770.23566 -8.3212817,800.68835 0,800 44.559632,796.31397 62.624422,784.03068 92.857179,752.57556 120.21775,784.5612 159.05188,810.43679 199.6151,805.894 c 35.64242,-3.9917 68.3181,-77.404 84.8544,-113.879 2.1134,-4.662 4.76051,-4.59886 6.4823,0.06 6.72464,18.1957 19.89862,-44.09267 2.1049,-69.647 z"
     id="path2819"
     sodipodi:nodetypes="cssssssszscssss" />
  <g
     id="layer1"
     transform="translate(-502.20264,128.25)" />
  <path
     style="color:#000000;fill:#ff0000;fill-opacity:0.60784314;stroke:#000000;stroke-width:1;stroke-linecap:butt;stroke-linejoin:miter;stroke-miterlimit:4;stroke-opacity:1;stroke-dasharray:none;stroke-dashoffset:0;marker:none;visibility:visible;display:inline;overflow:visible;enable-background:accumulate"
     d="m 382.2064,369.676 c -2.5852,0.03 -4.9051,1.513 -5.9693,5.088 -8.6078,28.923 -14.4683,61.534 -18.0795,88.962 -0.2706,2.054 -0.2702,4.219 1.2052,6.939 21.4131,39.482 37.7146,79.469 49.4601,116.878 13.3677,42.574 23.5786,88.864 23.2196,113.153 -0.038,2.502 -0.8425,4.932 -1.9065,5.766 -30.528,23.916 -99.68884,-24.01215 -137.0793,-84.034 -6.4538,-10.3601 -25.06908,11.0676 -2.1049,69.647 12.95945,33.05832 69.503,103.266 123.7785,93.545 18.9851,-3.4 45.1441,-80.802 45.1774,-123.745 0.022,-28.402 -1.5899,-62.024 -7.6486,-96.36 -13.3373,-75.59 -40.102,-154.771 -61.0708,-190.273 -1.9227,-3.256 -5.658,-5.608 -8.982,-5.569 l 0,0 0,0 4e-4,0 -3e-4,0.003 z"
     id="path2833"
     sodipodi:nodetypes="cssssssssssssccccc" />
</svg>
