<?xml version="1.0" encoding="UTF-8" standalone="no"?>
<!-- Created with Inkscape (http://www.inkscape.org/) -->

<svg
   xmlns:dc="http://purl.org/dc/elements/1.1/"
   xmlns:cc="http://creativecommons.org/ns#"
   xmlns:rdf="http://www.w3.org/1999/02/22-rdf-syntax-ns#"
   xmlns:svg="http://www.w3.org/2000/svg"
   xmlns="http://www.w3.org/2000/svg"
   xmlns:sodipodi="http://sodipodi.sourceforge.net/DTD/sodipodi-0.dtd"
   xmlns:inkscape="http://www.inkscape.org/namespaces/inkscape"
   version="1.0"
   width="1000"
   height="1000"
   id="svg5496"
   sodipodi:version="0.32"
   inkscape:version="0.47pre0 r21549"
   sodipodi:docname="New document 1"
   inkscape:output_extension="org.inkscape.output.svg.inkscape">
  <metadata
     id="metadata5594">
    <rdf:RDF>
      <cc:Work
         rdf:about="">
        <dc:format>image/svg+xml</dc:format>
        <dc:type
           rdf:resource="http://purl.org/dc/dcmitype/StillImage" />
        <dc:title></dc:title>
      </cc:Work>
    </rdf:RDF>
  </metadata>
  <sodipodi:namedview
     inkscape:window-height="721"
     inkscape:pageshadow="2"
     inkscape:pageopacity="0.0"
     borderopacity="1.0"
     bordercolor="#666666"
     pagecolor="#ffffff"
     id="base"
     showgrid="false"
     showguides="true"
     inkscape:guide-bbox="true"
     inkscape:zoom="0.45254834"
     inkscape:cx="124.90195"
     inkscape:cy="762.45632"
     inkscape:window-x="0"
     inkscape:window-y="28"
     inkscape:current-layer="svg5496"
     inkscape:window-width="1280"
     inkscape:window-maximized="1">
    <sodipodi:guide
       orientation="horizontal"
       position="200"
       id="guide5596" />
  </sodipodi:namedview>
  <defs
     id="defs5498">
    <inkscape:perspective
       sodipodi:type="inkscape:persp3d"
       inkscape:vp_x="0 : 500 : 1"
       inkscape:vp_y="0 : 1000 : 0"
       inkscape:vp_z="1000 : 500 : 1"
       inkscape:persp3d-origin="500 : 333.33333 : 1"
       id="perspective8" />
    <inkscape:perspective
       id="perspective2822"
       inkscape:persp3d-origin="0.5 : 0.33333333 : 1"
       inkscape:vp_z="1 : 0.5 : 1"
       inkscape:vp_y="0 : 1000 : 0"
       inkscape:vp_x="0 : 0.5 : 1"
       sodipodi:type="inkscape:persp3d" />
    <inkscape:perspective
       id="perspective2836"
       inkscape:persp3d-origin="0.5 : 0.33333333 : 1"
       inkscape:vp_z="1 : 0.5 : 1"
       inkscape:vp_y="0 : 1000 : 0"
       inkscape:vp_x="0 : 0.5 : 1"
       sodipodi:type="inkscape:persp3d" />
    <inkscape:perspective
       sodipodi:type="inkscape:persp3d"
       inkscape:vp_x="0 : 0.5 : 1"
       inkscape:vp_y="0 : 1000 : 0"
       inkscape:vp_z="1 : 0.5 : 1"
       inkscape:persp3d-origin="0.5 : 0.33333333 : 1"
       id="perspective2838" />
    <inkscape:perspective
       id="perspective2849"
       inkscape:persp3d-origin="500 : 333.33333 : 1"
       inkscape:vp_z="1000 : 500 : 1"
       inkscape:vp_y="0 : 1000 : 0"
       inkscape:vp_x="0 : 500 : 1"
       sodipodi:type="inkscape:persp3d" />
    <inkscape:perspective
       id="perspective3696"
       inkscape:persp3d-origin="0.5 : 0.33333333 : 1"
       inkscape:vp_z="1 : 0.5 : 1"
       inkscape:vp_y="0 : 1000 : 0"
       inkscape:vp_x="0 : 0.5 : 1"
       sodipodi:type="inkscape:persp3d" />
  </defs>
  <g
     id="layer1" />
  <path
     style="color:#000000;fill:#000000;stroke:#000000;stroke-width:1px;stroke-linecap:butt;stroke-linejoin:miter;stroke-miterlimit:4;stroke-opacity:1;stroke-dasharray:none;stroke-dashoffset:0;marker:none;visibility:visible;display:inline;overflow:visible;enable-background:accumulate;fill-opacity:1"
     d="m 398.74623,312.21875 c -10.01617,-0.13015 -20.4449,4.08601 -30.75,13.40625 -46.79709,50.19615 -92.57514,89.54177 -154.14719,122.57865 -46.06435,24.71612 -105.92663,45.23406 -153.321556,62.10576 -33.31905,11.86095 -58.3711196,73.18135 -62.7218396,94.08677 -1.2137,5.83187 0.42857,9.24555 6.03125,10 96.1950656,12.95347 187.8073456,29.18186 279.1593356,44.07257 -94.36293,21.312 -188.099008,44.16991 -284.6874956,45.5625 l 0,95.96875 C 105.65793,776.17627 204.49214,734.90542 304.52748,707.84375 c 81.23958,-21.97702 163.27895,-34.58372 251.28125,-20.90625 7.436,1.15571 10.6576,-1.18401 13.5,-7.5625 l 30,-67.34375 c 6.0153,-13.49847 -0.57959,-22.42554 -16.75,-21.84375 -54.8855,1.9747 -106.7614,3.48851 -159.125,-0.625 -106.76582,-8.38718 -179.93014,-21.61905 -285.75879,-48.375 85.46199,-40.95043 99.79604,-51.04669 152.77172,-87.48492 30.29844,-20.84015 56.81719,-57.97983 88.51832,-50.82758 40.92697,9.23373 40.8843,104.47447 128.71875,97.21875 85.63223,-7.02816 93.82431,-134.99334 90.03125,-171.25 -1.35936,-12.99363 -15.15046,-16.90139 -18.78125,2.21875 -6.66209,35.08331 -16.62229,77.49655 -56.875,78.4375 -49.66082,1.13505 -63.36436,-42.55206 -83.4375,-71.25 -11.44833,-16.36732 -25.23598,-25.84104 -39.875,-26.03125 z"
     id="path3686-7"
     sodipodi:nodetypes="ccsssscccssccsscsscsscsc" />
</svg>
