<?xml version="1.0" encoding="UTF-8" standalone="no"?>
<!-- Created with Inkscape (http://www.inkscape.org/) -->

<svg
   xmlns:dc="http://purl.org/dc/elements/1.1/"
   xmlns:cc="http://creativecommons.org/ns#"
   xmlns:rdf="http://www.w3.org/1999/02/22-rdf-syntax-ns#"
   xmlns:svg="http://www.w3.org/2000/svg"
   xmlns="http://www.w3.org/2000/svg"
   xmlns:sodipodi="http://sodipodi.sourceforge.net/DTD/sodipodi-0.dtd"
   xmlns:inkscape="http://www.inkscape.org/namespaces/inkscape"
   version="1.0"
   width="1000"
   height="1000"
   id="svg5496"
   sodipodi:version="0.32"
   inkscape:version="0.47pre4 r22446"
   sodipodi:docname="baa+haa+meem.init.svg"
   inkscape:output_extension="org.inkscape.output.svg.inkscape">
  <metadata
     id="metadata5594">
    <rdf:RDF>
      <cc:Work
         rdf:about="">
        <dc:format>image/svg+xml</dc:format>
        <dc:type
           rdf:resource="http://purl.org/dc/dcmitype/StillImage" />
      </cc:Work>
    </rdf:RDF>
  </metadata>
  <sodipodi:namedview
     inkscape:pageshadow="2"
     inkscape:pageopacity="0.0"
     guidetolerance="10.0"
     gridtolerance="10.0"
     objecttolerance="10.0"
     borderopacity="1.0"
     bordercolor="#666666"
     pagecolor="#ffffff"
     id="base"
     showgrid="false"
     showguides="true"
     inkscape:guide-bbox="true"
     inkscape:zoom="0.472"
     inkscape:cx="78.551554"
     inkscape:cy="268.2326"
     inkscape:window-x="0"
     inkscape:window-y="0"
     inkscape:current-layer="svg5496"
     inkscape:window-width="1278"
     inkscape:window-height="767"
     inkscape:window-maximized="1">
    <sodipodi:guide
       orientation="horizontal"
       position="200"
       id="guide5596" />
  </sodipodi:namedview>
  <defs
     id="defs5498">
    <inkscape:perspective
       sodipodi:type="inkscape:persp3d"
       inkscape:vp_x="0 : 500 : 1"
       inkscape:vp_y="0 : 1000 : 0"
       inkscape:vp_z="1000 : 500 : 1"
       inkscape:persp3d-origin="500 : 333.33333 : 1"
       id="perspective8" />
    <inkscape:perspective
       id="perspective2388"
       inkscape:persp3d-origin="372.04724 : 350.78739 : 1"
       inkscape:vp_z="744.09448 : 526.18109 : 1"
       inkscape:vp_y="0 : 1000 : 0"
       inkscape:vp_x="0 : 526.18109 : 1"
       sodipodi:type="inkscape:persp3d" />
    <inkscape:perspective
       id="perspective2823"
       inkscape:persp3d-origin="0.5 : 0.33333333 : 1"
       inkscape:vp_z="1 : 0.5 : 1"
       inkscape:vp_y="0 : 1000 : 0"
       inkscape:vp_x="0 : 0.5 : 1"
       sodipodi:type="inkscape:persp3d" />
    <inkscape:perspective
       id="perspective9304"
       inkscape:persp3d-origin="0.5 : 0.33333333 : 1"
       inkscape:vp_z="1 : 0.5 : 1"
       inkscape:vp_y="0 : 1000 : 0"
       inkscape:vp_x="0 : 0.5 : 1"
       sodipodi:type="inkscape:persp3d" />
    <inkscape:perspective
       sodipodi:type="inkscape:persp3d"
       inkscape:vp_x="0 : 0.5 : 1"
       inkscape:vp_y="0 : 1000 : 0"
       inkscape:vp_z="1 : 0.5 : 1"
       inkscape:persp3d-origin="0.5 : 0.33333333 : 1"
       id="perspective2974" />
    <inkscape:perspective
       id="perspective2986"
       inkscape:persp3d-origin="500 : 333.33333 : 1"
       inkscape:vp_z="1000 : 500 : 1"
       inkscape:vp_y="0 : 1000 : 0"
       inkscape:vp_x="0 : 500 : 1"
       sodipodi:type="inkscape:persp3d" />
  </defs>
  <path
     style="fill:#ff0000;fill-opacity:0.60784314;stroke:#000000;stroke-width:1;stroke-linecap:butt;stroke-linejoin:miter;stroke-miterlimit:4;stroke-opacity:1;stroke-dasharray:none"
     d="m 146.8571,410.0419 c -12.11615,9.29691 -29.5281,51.4236 -39.4563,79.2902 -1.9827,5.5646 0.2652,7.3558 5.2614,6.9002 81.3966,-7.4225 147.8109,8.1758 227.1449,44.9761 -72.1905,8.3394 -159.0487,25.6847 -198.3608,51.5184 24.30688,50.52072 90.0845,20.74118 131.2206,9.7504 134.04113,-35.81324 230.4655,-18.1434 360.078,-1.942 6.8974,0.8622 11.4405,1.9809 16.5729,-3.0572 12.3884,-12.1607 31.3776,-50.357 39.7189,-65.6993 5.0007,-9.1979 -1.8401,-15.7208 -15.75,-18.7299 C 517.656,506.9947 419.62672,471.94481 288.414,424.3358 217.78849,398.71015 160.26051,399.75726 146.8571,410.0419 z"
     id="path2862"
     sodipodi:nodetypes="cssccsssscss" />
  <g
     id="layer1"
     transform="translate(36.680537,237.63108)" />
  <g
     id="layer1-9"
     transform="translate(-274.69163,-250.53639)" />
  <path
     sodipodi:nodetypes="cssscsssscssssc"
     id="path2854"
     d="M 141.4463,592.7268 C 124.76633,604.43836 100.7877,680.0802 92.416799,688.3221 78.961799,701.5697 36.069606,711.06553 -0.014,709.2084 -28.141904,707.76073 -39.092552,799.67452 0,800 24.561645,800.2045 67.257399,776.1748 95.612699,721.1985 147.786,760.1474 247.1527,800.0053 273.3059,788.242 c 7.5851,-3.4117 36.1528,-44.8909 48.1554,-74.4821 8.1153,-20.0079 -11.44974,-72.01555 -48.7944,-111.2827 -25.4892,-26.80138 -108.41756,-25.76118 -131.2206,-9.7504 z m 139.5208,110.6169 c 1.1586,4.8015 -2.0079,8.2623 -7.0376,6.7947 -47.0891,-13.7386 -107.5293,-44.0502 -122.3451,-56.5055 -4.4345,-3.7281 -3.4185,-8.5845 0.9502,-12.4108 9.817,-8.5986 24.2798,-14.4562 37.9812,-10.9629 38.6506,9.8547 84.9671,50.3572 90.4513,73.0845 z"
     style="fill:#ff0000;fill-opacity:0.60784314;stroke:#000000;stroke-width:1;stroke-linecap:butt;stroke-linejoin:miter;stroke-miterlimit:4;stroke-opacity:1;stroke-dasharray:none" />
  <path
     sodipodi:nodetypes="cssscssssssc"
     id="path2864"
     d="m 534.0589,203.9522 c -46.2067,-1.3441 -70.1646,68.9112 -149.1233,117.7839 -89.7287,55.5391 -218.8524,73.7991 -238.0785,88.3058 -12.1913,9.1989 -29.5281,51.4236 -39.4563,79.2902 -1.9827,5.5646 0.2652,7.3558 5.2614,6.9002 94.80792,-43.04901 116.29991,-53.64882 175.7518,-71.8965 104.0483,-31.93575 178.34417,-122.80837 205.9212,-120.8009 53.96226,3.92818 51.28851,58.53071 45.76434,99.34755 -2.70355,19.97588 17.44075,23.06282 21.65805,5.06143 4.58784,-19.58298 32.38316,-116.9802 12.14371,-177.25628 -5.68995,-16.94552 -23.1935,-26.2511 -39.8427,-26.7354 l 3e-4,0 z"
     style="fill:#ff0000;fill-opacity:0.60784314;stroke:#000000;stroke-width:1;stroke-linecap:butt;stroke-linejoin:miter;stroke-miterlimit:4;stroke-opacity:1;stroke-dasharray:none" />
</svg>
