<?xml version="1.0" encoding="UTF-8" standalone="no"?>
<!-- Created with Inkscape (http://www.inkscape.org/) -->

<svg
   xmlns:dc="http://purl.org/dc/elements/1.1/"
   xmlns:cc="http://creativecommons.org/ns#"
   xmlns:rdf="http://www.w3.org/1999/02/22-rdf-syntax-ns#"
   xmlns:svg="http://www.w3.org/2000/svg"
   xmlns="http://www.w3.org/2000/svg"
   xmlns:sodipodi="http://sodipodi.sourceforge.net/DTD/sodipodi-0.dtd"
   xmlns:inkscape="http://www.inkscape.org/namespaces/inkscape"
   version="1.0"
   width="1000"
   height="1000"
   id="svg5496"
   sodipodi:version="0.32"
   inkscape:version="0.47pre4 r22446"
   sodipodi:docname="baa+baa+haa.init.svg"
   inkscape:output_extension="org.inkscape.output.svg.inkscape">
  <metadata
     id="metadata5594">
    <rdf:RDF>
      <cc:Work
         rdf:about="">
        <dc:format>image/svg+xml</dc:format>
        <dc:type
           rdf:resource="http://purl.org/dc/dcmitype/StillImage" />
        <dc:title />
      </cc:Work>
    </rdf:RDF>
  </metadata>
  <sodipodi:namedview
     inkscape:window-height="725"
     inkscape:pageshadow="2"
     inkscape:pageopacity="0.0"
     borderopacity="1.0"
     bordercolor="#666666"
     pagecolor="#ffffff"
     id="base"
     showgrid="false"
     showguides="true"
     inkscape:guide-bbox="true"
     inkscape:zoom="0.64"
     inkscape:cx="52.918132"
     inkscape:cy="251.10725"
     inkscape:window-x="0"
     inkscape:window-y="24"
     inkscape:current-layer="svg5496"
     inkscape:window-width="1280"
     inkscape:window-maximized="1">
    <sodipodi:guide
       orientation="horizontal"
       position="200"
       id="guide5596" />
  </sodipodi:namedview>
  <defs
     id="defs5498">
    <inkscape:perspective
       sodipodi:type="inkscape:persp3d"
       inkscape:vp_x="0 : 500 : 1"
       inkscape:vp_y="0 : 1000 : 0"
       inkscape:vp_z="1000 : 500 : 1"
       inkscape:persp3d-origin="500 : 333.33333 : 1"
       id="perspective8" />
    <inkscape:perspective
       id="perspective2822"
       inkscape:persp3d-origin="0.5 : 0.33333333 : 1"
       inkscape:vp_z="1 : 0.5 : 1"
       inkscape:vp_y="0 : 1000 : 0"
       inkscape:vp_x="0 : 0.5 : 1"
       sodipodi:type="inkscape:persp3d" />
    <inkscape:perspective
       id="perspective2836"
       inkscape:persp3d-origin="0.5 : 0.33333333 : 1"
       inkscape:vp_z="1 : 0.5 : 1"
       inkscape:vp_y="0 : 1000 : 0"
       inkscape:vp_x="0 : 0.5 : 1"
       sodipodi:type="inkscape:persp3d" />
    <inkscape:perspective
       sodipodi:type="inkscape:persp3d"
       inkscape:vp_x="0 : 0.5 : 1"
       inkscape:vp_y="0 : 1000 : 0"
       inkscape:vp_z="1 : 0.5 : 1"
       inkscape:persp3d-origin="0.5 : 0.33333333 : 1"
       id="perspective2838" />
    <inkscape:perspective
       id="perspective2849"
       inkscape:persp3d-origin="500 : 333.33333 : 1"
       inkscape:vp_z="1000 : 500 : 1"
       inkscape:vp_y="0 : 1000 : 0"
       inkscape:vp_x="0 : 500 : 1"
       sodipodi:type="inkscape:persp3d" />
    <inkscape:perspective
       id="perspective3696"
       inkscape:persp3d-origin="0.5 : 0.33333333 : 1"
       inkscape:vp_z="1 : 0.5 : 1"
       inkscape:vp_y="0 : 1000 : 0"
       inkscape:vp_x="0 : 0.5 : 1"
       sodipodi:type="inkscape:persp3d" />
    <inkscape:perspective
       id="perspective5170"
       inkscape:persp3d-origin="0.5 : 0.33333333 : 1"
       inkscape:vp_z="1 : 0.5 : 1"
       inkscape:vp_y="0 : 1000 : 0"
       inkscape:vp_x="0 : 0.5 : 1"
       sodipodi:type="inkscape:persp3d" />
    <inkscape:perspective
       sodipodi:type="inkscape:persp3d"
       inkscape:vp_x="0 : 0.5 : 1"
       inkscape:vp_y="0 : 1000 : 0"
       inkscape:vp_z="1 : 0.5 : 1"
       inkscape:persp3d-origin="0.5 : 0.33333333 : 1"
       id="perspective2974" />
    <inkscape:perspective
       id="perspective2986"
       inkscape:persp3d-origin="500 : 333.33333 : 1"
       inkscape:vp_z="1000 : 500 : 1"
       inkscape:vp_y="0 : 1000 : 0"
       inkscape:vp_x="0 : 500 : 1"
       sodipodi:type="inkscape:persp3d" />
  </defs>
  <g
     id="layer1" />
  <path
     style="color:#000000;fill:#ff0000;fill-opacity:0.60784314;stroke:#000000;stroke-width:1;stroke-linecap:butt;stroke-linejoin:miter;stroke-miterlimit:4;stroke-opacity:1;stroke-dasharray:none;stroke-dashoffset:0;marker:none;visibility:visible;display:inline;overflow:visible;enable-background:accumulate"
     d="m 417.24,332.20099 c -9.839,-0.671 -20.32,2.907 -30.957,11.509 -48.733,46.802 -84.51,84.026 -158.198,112.12501 -48.09,18.338 -106.589,38.711 -154.098,52.721 -33.399,9.848 -61.359,68.769 -66.773,89.083 -1.509,5.668 -0.11,9.284 5.387,10.158 94.59,15.041 165.508,28.669 255.963,52.654 -89.54,22.397 -209.225,47.26 -268.096,48.857 L 0,800 c 102.078,-14.3 203.306,-69.405 303.119,-90.571 81.056,-17.189 172.616,-25.123 258.384,-6.894 7.248,1.539 10.541,-0.586 13.682,-6.701 l 32.422,-55.079 c 6.646,-12.942 0.648,-22.075 -15.279,-22.383 -54.064,-1.041 -114.637,-5.295 -165.89,-12.183 -104.502,-14.049 -170.542,-36.197 -278.289,-63.086 86.239,-35.613 100.88,-44.759 154.938,-77.7 30.918,-18.841 57.973,-58.04201 88.748,-49.28801 39.732,11.302 35.546,109.05901 122.287,106.69901 84.564,-2.255 99.57,-127.60801 97.812,-163.45601 -0.628,-12.848 -13.974,-17.439 -18.583,1.161 -8.455,34.126 -20.552,75.27901 -60.173,74.01601 -62.31,-2.616 -64.111,-44.24001 -82.285,-73.54401 -10.364,-16.711 -19.272,-27.807 -33.653,-28.79 z"
     id="path3686-7-1-3"
     sodipodi:nodetypes="ccsssscccssccsscsscsscsc" />
  <g
     id="layer1-9"
     transform="translate(-174.44951,-319.56169)" />
  <path
     sodipodi:nodetypes="csscssssccssss"
     id="path2840"
     d="M 65.976806,519.60454 C 43.547104,513.45991 12.628,577.325 7.214,597.639 c -1.509,5.668 -0.11,9.284 5.387,10.158 94.59,15.041 165.508,28.669 255.963,52.654 C 179.024,682.848 59.348577,708.3967 0.468,709.308 -46.284581,710.03159 -29.341598,804.24328 0,800 c 102.01004,-14.75235 203.306,-69.405 303.119,-90.571 81.056,-17.189 172.616,-25.123 258.384,-6.894 7.248,1.539 10.541,-0.586 13.682,-6.701 l 32.422,-55.079 c 6.646,-12.942 0.648,-22.075 -15.279,-22.383 -54.064,-1.041 -114.637,-5.295 -165.89,-12.183 C 321.936,592.14 255.77989,569.75003 148.149,543.103 109.56663,533.55086 89.519216,526.05399 65.976806,519.60454 z"
     style="color:#000000;fill:#ff0000;fill-opacity:0.60784314;stroke:#000000;stroke-width:1;stroke-linecap:butt;stroke-linejoin:miter;stroke-miterlimit:4;stroke-opacity:1;stroke-dasharray:none;stroke-dashoffset:0;marker:none;visibility:visible;display:inline;overflow:visible;enable-background:accumulate" />
  <path
     style="color:#000000;fill:#ff0000;fill-opacity:0.60784314;stroke:#000000;stroke-width:1;stroke-linecap:butt;stroke-linejoin:miter;stroke-miterlimit:4;stroke-opacity:1;stroke-dasharray:none;stroke-dashoffset:0;marker:none;visibility:visible;display:inline;overflow:visible;enable-background:accumulate"
     d="m 386.283,343.70999 c -49.37363,46.0754 -86.28729,79.74715 -158.198,112.12501 -48.09,21.65256 -106.68619,38.38553 -154.098,52.721 -32.570359,9.848 -56.779176,59.62758 -48.067023,70.34113 3.700588,4.5507 9.193889,6.10036 14.502049,4.63373 C 111.73922,563.82614 224.55665,519.81708 303.087,465.403 c 29.37191,-21.17067 57.38217,-55.60605 88.748,-49.28801 28.68346,5.77773 35.58718,109.86246 122.287,106.69901 21.97081,-0.80166 34.87779,-87.8459 19.056,-88.279 -53.4936,-1.46431 -58.60875,-29.57366 -82.285,-73.54401 -15.35781,-28.52177 -36.9621,-39.18562 -64.61,-17.281 z"
     id="path2842"
     sodipodi:nodetypes="csssscssssc" />
  <path
     sodipodi:nodetypes="cssss"
     id="path2844"
     d="m 514.122,522.814 c 84.56936,-1.98559 100.38053,-124.06341 99.3745,-159.94038 -0.43421,-15.48465 -20.12677,-21.34536 -22.48925,-1.0851 -4.07204,34.92119 -20.23795,74.59031 -57.82925,72.74648 -41.25856,-2.02371 -49.63212,88.99689 -19.056,88.279 z"
     style="color:#000000;fill:#ff0000;fill-opacity:0.60784314;stroke:#000000;stroke-width:1;stroke-linecap:butt;stroke-linejoin:miter;stroke-miterlimit:4;stroke-opacity:1;stroke-dasharray:none;stroke-dashoffset:0;marker:none;visibility:visible;display:inline;overflow:visible;enable-background:accumulate" />
</svg>
