<?xml version="1.0" encoding="UTF-8" standalone="no"?>
<!-- Created with Inkscape (http://www.inkscape.org/) -->

<svg
   xmlns:dc="http://purl.org/dc/elements/1.1/"
   xmlns:cc="http://creativecommons.org/ns#"
   xmlns:rdf="http://www.w3.org/1999/02/22-rdf-syntax-ns#"
   xmlns:svg="http://www.w3.org/2000/svg"
   xmlns="http://www.w3.org/2000/svg"
   xmlns:sodipodi="http://sodipodi.sourceforge.net/DTD/sodipodi-0.dtd"
   xmlns:inkscape="http://www.inkscape.org/namespaces/inkscape"
   version="1.0"
   width="1000"
   height="1000"
   id="svg5496"
   sodipodi:version="0.32"
   inkscape:version="0.47pre4 r22446"
   sodipodi:docname="baa+baa+yaa.isol.svg"
   inkscape:output_extension="org.inkscape.output.svg.inkscape">
  <metadata
     id="metadata5594">
    <rdf:RDF>
      <cc:Work
         rdf:about="">
        <dc:format>image/svg+xml</dc:format>
        <dc:type
           rdf:resource="http://purl.org/dc/dcmitype/StillImage" />
        <dc:title />
      </cc:Work>
    </rdf:RDF>
  </metadata>
  <sodipodi:namedview
     inkscape:window-height="725"
     inkscape:pageshadow="2"
     inkscape:pageopacity="0.0"
     borderopacity="1.0"
     bordercolor="#666666"
     pagecolor="#ffffff"
     id="base"
     showgrid="false"
     showguides="true"
     inkscape:guide-bbox="true"
     inkscape:zoom="0.64205296"
     inkscape:cx="382.10608"
     inkscape:cy="310.6182"
     inkscape:window-x="0"
     inkscape:window-y="24"
     inkscape:current-layer="svg5496"
     inkscape:window-maximized="1"
     inkscape:window-width="1280">
    <sodipodi:guide
       orientation="horizontal"
       position="200"
       id="guide5596" />
  </sodipodi:namedview>
  <defs
     id="defs5498">
    <inkscape:perspective
       sodipodi:type="inkscape:persp3d"
       inkscape:vp_x="0 : 500 : 1"
       inkscape:vp_y="0 : 1000 : 0"
       inkscape:vp_z="1000 : 500 : 1"
       inkscape:persp3d-origin="500 : 333.33333 : 1"
       id="perspective2837" />
    <inkscape:perspective
       id="perspective2826"
       inkscape:persp3d-origin="0.5 : 0.33333333 : 1"
       inkscape:vp_z="1 : 0.5 : 1"
       inkscape:vp_y="0 : 1000 : 0"
       inkscape:vp_x="0 : 0.5 : 1"
       sodipodi:type="inkscape:persp3d" />
    <inkscape:perspective
       id="perspective8938"
       inkscape:persp3d-origin="0.5 : 0.33333333 : 1"
       inkscape:vp_z="1 : 0.5 : 1"
       inkscape:vp_y="0 : 1000 : 0"
       inkscape:vp_x="0 : 0.5 : 1"
       sodipodi:type="inkscape:persp3d" />
    <inkscape:perspective
       sodipodi:type="inkscape:persp3d"
       inkscape:vp_x="0 : 0.5 : 1"
       inkscape:vp_y="0 : 1000 : 0"
       inkscape:vp_z="1 : 0.5 : 1"
       inkscape:persp3d-origin="0.5 : 0.33333333 : 1"
       id="perspective2974" />
    <inkscape:perspective
       id="perspective2986"
       inkscape:persp3d-origin="500 : 333.33333 : 1"
       inkscape:vp_z="1000 : 500 : 1"
       inkscape:vp_y="0 : 1000 : 0"
       inkscape:vp_x="0 : 500 : 1"
       sodipodi:type="inkscape:persp3d" />
    <inkscape:perspective
       id="perspective2847"
       inkscape:persp3d-origin="0.5 : 0.33333333 : 1"
       inkscape:vp_z="1 : 0.5 : 1"
       inkscape:vp_y="0 : 1000 : 0"
       inkscape:vp_x="0 : 0.5 : 1"
       sodipodi:type="inkscape:persp3d" />
  </defs>
  <g
     id="layer1"
     transform="translate(-327.51072,281.64098)" />
  <path
     style="fill:#ff0000;fill-opacity:0.60784314;stroke:#000000;stroke-width:1;stroke-miterlimit:4;stroke-opacity:1;stroke-dasharray:none"
     d="m 680.33429,518.41803 c -0.0358,18.008 -24.9623,63.0933 -61.66586,64.0072 -54.08927,1.347 -91.49491,-82.4172 -115.9799,-84.6339 -48.71072,-4.4099 -87.85622,29.128 -132.31469,78.2386 -51.61024,57.0107 -97.31919,144.9226 -55.27612,171.3348 46.21038,29.0303 159.27494,20.5325 200.84405,38.834 3.0527,1.344 2.12715,4.227 1.32445,5.1539 -33.02717,38.1376 -183.32279,112.2076 -303.48254,114.9806 -85.79835,1.9799 -155.928865,-26.3615 -177.267135,-109.9105 -12.91284,-50.5596 6.651,-119.3607 34.64321,-181.3454 4.20482,-9.3109 -11.26663,-20.125 -19.15052,-5.7467 -31.60622,57.6414 -49.2686699,134.5353 -51.9119699,198.4157 -4.19918,101.4813 42.3492099,203.07207 217.2537949,192.58737 118.88187,-7.12647 245.24741,-76.53687 305.8655,-133.43627 22.96061,-21.5521 53.75857,-88.5579 41.5009,-121.3055 -7.68241,-20.5242 -30.85632,-32.3752 -56.93151,-34.9921 -48.85094,-4.9027 -156.7536,-6.3275 -164.43913,-38.8386 -6.83468,-28.9119 68.50757,-106.3507 128.85395,-103.4227 40.00471,1.9409 76.61577,89.1205 139.74115,87.8743 51.01484,-1.0072 82.51637,-86.2896 87.99145,-132.6544 2.62998,-22.2716 -19.57014,-19.684 -19.59908,-5.1404 z"
     id="path2848-0"
     sodipodi:nodetypes="cssssssssssssssssssss" />
  <g
     id="layer1-6"
     transform="translate(179.64414,-286.66915)" />
  <path
     sodipodi:nodetypes="cssssssssssssss"
     id="path2837"
     d="m 315.09772,747.36473 c 45.95935,29.42218 159.27494,20.5325 200.84405,38.834 3.0527,1.344 2.12715,4.227 1.32445,5.1539 -33.02717,38.1376 -183.32279,112.2076 -303.48254,114.9806 C 127.98533,908.31313 57.854815,879.97173 36.516545,796.42273 23.603705,745.86313 41.931924,683.79205 69.602251,621.59938 76.779116,605.46844 58.454406,595.19661 50.841107,609.72001 20.336265,667.9121 2.7405651,743.86593 0.0972651,807.74633 c -4.19918,101.4813 42.3492099,203.07207 217.2537949,192.58737 118.88187,-7.12647 245.24741,-76.53687 305.8655,-133.43627 22.96061,-21.5521 53.75857,-88.5579 41.5009,-121.3055 -7.68241,-20.5242 -30.85632,-32.3752 -56.93151,-34.9921 -48.85094,-4.9027 -156.37428,-6.22821 -164.43913,-38.8386 -2.92815,-11.84002 -15.53559,-12.02003 -24.92744,-2.84304 -17.49328,17.09308 -31.30936,60.52942 -3.32166,78.44654 z"
     style="fill:#ff0000;fill-opacity:0.60784314;stroke:#000000;stroke-width:1;stroke-miterlimit:4;stroke-opacity:1;stroke-dasharray:none" />
  <path
     style="fill:#ff0000;fill-opacity:0.60784314;stroke:#000000;stroke-width:1;stroke-miterlimit:4;stroke-opacity:1;stroke-dasharray:none"
     d="m 618.66843,582.42523 c -53.93894,2.81254 -91.49491,-82.4172 -115.9799,-84.6339 -48.71072,-4.4099 -87.85622,29.128 -132.31469,78.2386 -51.61024,57.0107 -96.94799,144.35697 -55.27612,171.3348 21.77595,14.09746 36.87769,-40.88247 28.2491,-75.6035 -7.16465,-28.83024 68.50757,-106.3507 128.85395,-103.4227 40.00471,1.9409 76.63399,89.57905 139.74115,87.8743 14.03424,-0.37912 24.52665,-10.37527 25.15696,-42.224 0.52771,-26.66432 -6.88953,-32.16538 -18.43045,-31.5636 z"
     id="path2861"
     sodipodi:nodetypes="cssssssss" />
  <path
     sodipodi:nodetypes="csssss"
     id="path2863"
     d="m 679.45819,518.41803 c -3.33083,17.5138 -25.11343,63.7495 -60.78976,64.0072 -27.52242,0.1988 -25.14431,17.78651 -26.63603,36.37 -1.75454,21.85761 3.90485,37.62308 19.90952,37.4176 51.01854,-0.65501 82.61098,-86.11866 88.86755,-133.04378 2.66627,-19.99739 -18.40212,-20.25796 -21.35128,-4.75102 z"
     style="fill:#ff0000;fill-opacity:0.60784314;stroke:#000000;stroke-width:1;stroke-miterlimit:4;stroke-opacity:1;stroke-dasharray:none" />
</svg>
