<?xml version="1.0" encoding="UTF-8" standalone="no"?>
<!-- Created with Inkscape (http://www.inkscape.org/) -->

<svg
   xmlns:dc="http://purl.org/dc/elements/1.1/"
   xmlns:cc="http://creativecommons.org/ns#"
   xmlns:rdf="http://www.w3.org/1999/02/22-rdf-syntax-ns#"
   xmlns:svg="http://www.w3.org/2000/svg"
   xmlns="http://www.w3.org/2000/svg"
   xmlns:sodipodi="http://sodipodi.sourceforge.net/DTD/sodipodi-0.dtd"
   xmlns:inkscape="http://www.inkscape.org/namespaces/inkscape"
   version="1.0"
   width="1000"
   height="1000"
   id="svg5496"
   sodipodi:version="0.32"
   inkscape:version="0.47pre4 r22446"
   sodipodi:docname="baa+raa.fina.svg"
   inkscape:output_extension="org.inkscape.output.svg.inkscape">
  <metadata
     id="metadata5594">
    <rdf:RDF>
      <cc:Work
         rdf:about="">
        <dc:format>image/svg+xml</dc:format>
        <dc:type
           rdf:resource="http://purl.org/dc/dcmitype/StillImage" />
        <dc:title />
      </cc:Work>
    </rdf:RDF>
  </metadata>
  <sodipodi:namedview
     inkscape:window-height="725"
     inkscape:pageshadow="2"
     inkscape:pageopacity="0.0"
     borderopacity="1.0"
     bordercolor="#666666"
     pagecolor="#ffffff"
     id="base"
     showgrid="false"
     showguides="true"
     inkscape:guide-bbox="true"
     inkscape:zoom="0.64205296"
     inkscape:cx="500"
     inkscape:cy="323.78855"
     inkscape:window-x="0"
     inkscape:window-y="24"
     inkscape:current-layer="svg5496"
     inkscape:window-width="1280"
     inkscape:window-maximized="1">
    <sodipodi:guide
       orientation="horizontal"
       position="200"
       id="guide5596" />
  </sodipodi:namedview>
  <defs
     id="defs5498">
    <inkscape:perspective
       sodipodi:type="inkscape:persp3d"
       inkscape:vp_x="0 : 500 : 1"
       inkscape:vp_y="0 : 1000 : 0"
       inkscape:vp_z="1000 : 500 : 1"
       inkscape:persp3d-origin="500 : 333.33333 : 1"
       id="perspective2849" />
    <inkscape:perspective
       id="perspective2838"
       inkscape:persp3d-origin="0.5 : 0.33333333 : 1"
       inkscape:vp_z="1 : 0.5 : 1"
       inkscape:vp_y="0 : 1000 : 0"
       inkscape:vp_x="0 : 0.5 : 1"
       sodipodi:type="inkscape:persp3d" />
    <inkscape:perspective
       id="perspective4181"
       inkscape:persp3d-origin="0.5 : 0.33333333 : 1"
       inkscape:vp_z="1 : 0.5 : 1"
       inkscape:vp_y="0 : 1000 : 0"
       inkscape:vp_x="0 : 0.5 : 1"
       sodipodi:type="inkscape:persp3d" />
    <inkscape:perspective
       id="perspective4203"
       inkscape:persp3d-origin="0.5 : 0.33333333 : 1"
       inkscape:vp_z="1 : 0.5 : 1"
       inkscape:vp_y="0 : 1000 : 0"
       inkscape:vp_x="0 : 0.5 : 1"
       sodipodi:type="inkscape:persp3d" />
  </defs>
  <g
     id="layer1" />
  <path
     style="color:#000000;fill:#ff0000;fill-opacity:0.60784314;stroke:#000000;stroke-width:1;stroke-linecap:butt;stroke-linejoin:miter;stroke-miterlimit:4;stroke-opacity:1;stroke-dasharray:none;stroke-dashoffset:0;marker:none;visibility:visible;display:inline;overflow:visible;enable-background:accumulate"
     d="m 618.20398,709.3368 c -73.0921,-26.041 -61.4486,-85.8794 -78.5025,-207.5462 -1.7677,-12.693 -18.8767,-16.3088 -23.3448,-1.6497 -22.0433,72.3192 -42.4353,103.0997 -117.787,99.9556 -19.8159,-0.8269 -24.1771,-29.8941 -37.8164,-39.8735 -3.9653,-2.9013 -9.1078,-3.5907 -10.5054,1.1834 -10.0521,34.335 -19.8588,67.4523 -28.8143,101.5348 -0.6927,2.6366 -0.6666,3.7383 0.8541,5.7713 15.8211,21.1499 43.8939,60.3744 44.1951,100.759 0.013,1.6878 -0.9194,3.5669 -1.5967,4.7077 -31.0614,52.3199 -108.14049,135.6108 -184.97759,156.0178 -55.8803,14.8412 -108.436805,5.168 -164.185505,2.61 -18.5955002,-0.8534 -17.7667002,11.6292 -9.2981001,15.0453 60.9497001,24.5878 144.5216051,57.9548 194.7433051,47.7794 59.0387,-11.9618 163.13699,-126.832 181.95229,-208.7629 9.356,-40.7407 10.4982,-70.1958 12.9922,-95.8058 0.3213,-3.2976 0.06,-3.8844 3.2779,-4.4551 36.6991,-6.5458 73.9465,-4.4008 110.6628,-84.7303 1.7008,-3.7212 3.9087,-3.4627 4.2408,0.4115 11.3529,132.4368 18.0758,188.7222 104.0369,197.7109 l -0.1271,-90.6632 z"
     id="path2828-4"
     sodipodi:nodetypes="csssssssssssssssssscc" />
</svg>
