<?xml version="1.0" encoding="UTF-8" standalone="no"?>
<!-- Created with Inkscape (http://www.inkscape.org/) -->

<svg
   xmlns:dc="http://purl.org/dc/elements/1.1/"
   xmlns:cc="http://creativecommons.org/ns#"
   xmlns:rdf="http://www.w3.org/1999/02/22-rdf-syntax-ns#"
   xmlns:svg="http://www.w3.org/2000/svg"
   xmlns="http://www.w3.org/2000/svg"
   xmlns:sodipodi="http://sodipodi.sourceforge.net/DTD/sodipodi-0.dtd"
   xmlns:inkscape="http://www.inkscape.org/namespaces/inkscape"
   version="1.0"
   width="1000"
   height="1000"
   id="svg5496"
   sodipodi:version="0.32"
   inkscape:version="0.47pre4 r22446"
   sodipodi:docname="baa+noon.fina.svg"
   inkscape:output_extension="org.inkscape.output.svg.inkscape">
  <metadata
     id="metadata5594">
    <rdf:RDF>
      <cc:Work
         rdf:about="">
        <dc:format>image/svg+xml</dc:format>
        <dc:type
           rdf:resource="http://purl.org/dc/dcmitype/StillImage" />
        <dc:title />
      </cc:Work>
    </rdf:RDF>
  </metadata>
  <sodipodi:namedview
     inkscape:window-height="767"
     inkscape:pageshadow="2"
     inkscape:pageopacity="0.0"
     borderopacity="1.0"
     bordercolor="#666666"
     pagecolor="#ffffff"
     id="base"
     showgrid="false"
     showguides="true"
     inkscape:guide-bbox="true"
     inkscape:zoom="0.7695536"
     inkscape:cx="688.10544"
     inkscape:cy="268.24301"
     inkscape:window-x="0"
     inkscape:window-y="0"
     inkscape:current-layer="svg5496"
     inkscape:window-width="1278"
     inkscape:window-maximized="1">
    <sodipodi:guide
       orientation="horizontal"
       position="200"
       id="guide5596" />
  </sodipodi:namedview>
  <defs
     id="defs5498">
    <inkscape:perspective
       sodipodi:type="inkscape:persp3d"
       inkscape:vp_x="0 : 500 : 1"
       inkscape:vp_y="0 : 1000 : 0"
       inkscape:vp_z="1000 : 500 : 1"
       inkscape:persp3d-origin="500 : 333.33333 : 1"
       id="perspective8" />
    <inkscape:perspective
       id="perspective2822"
       inkscape:persp3d-origin="0.5 : 0.33333333 : 1"
       inkscape:vp_z="1 : 0.5 : 1"
       inkscape:vp_y="0 : 1000 : 0"
       inkscape:vp_x="0 : 0.5 : 1"
       sodipodi:type="inkscape:persp3d" />
    <inkscape:perspective
       id="perspective4152"
       inkscape:persp3d-origin="0.5 : 0.33333333 : 1"
       inkscape:vp_z="1 : 0.5 : 1"
       inkscape:vp_y="0 : 1000 : 0"
       inkscape:vp_x="0 : 0.5 : 1"
       sodipodi:type="inkscape:persp3d" />
  </defs>
  <g
     id="layer1"
     transform="translate(40.281938,293.33895)" />
  <path
     sodipodi:nodetypes="csssssscssszs"
     id="path2820"
     d="m 708.2156,800 c -30.06038,-4.39054 -47.4443,-12.1521 -60.73784,-35.8023 -14.1627,-25.1969 -26.87528,-71.8389 -41.08079,-166.5853 -0.57023,-3.80319 -2.08095,-3.87279 -3.77961,-0.61409 -11.59022,22.23489 -37.08315,61.21551 -88.12882,68.36399 -33.50456,4.69201 -39.11872,-20.1274 -42.02311,-39.36196 -3.82095,-25.30462 3.76263,-47.32206 25.63646,-43.34953 60.11565,10.91766 93.64448,-22.5262 115.92049,-72.5963 7.39402,-16.7624 23.94947,-17.0353 25.93689,3.3796 3.95094,40.5842 15.12271,134.93809 28.71663,164.15759 9.7255,20.9046 19.13871,30.2253 39.6602,33.5335 13.93829,2.24695 25.31541,12.07203 20.67021,41.21368 C 724.3611,781.48052 717.26044,801.32107 708.2156,800 z"
     style="color:#000000;fill:#ff0000;fill-opacity:0.60784314;stroke:#000000;stroke-width:0;stroke-linecap:butt;stroke-linejoin:miter;stroke-miterlimit:4;stroke-opacity:1;stroke-dasharray:none;stroke-dashoffset:0;marker:none;visibility:visible;display:inline;overflow:visible;enable-background:accumulate" />
  <path
     style="color:#000000;fill:#ff0000;fill-opacity:0.60784314;stroke:#000000;stroke-width:0;stroke-linecap:butt;stroke-linejoin:miter;stroke-miterlimit:4;stroke-opacity:1;stroke-dasharray:none;stroke-dashoffset:0;marker:none;visibility:visible;display:inline;overflow:visible;enable-background:accumulate"
     d="m 511.18813,670.3398 c 1.63971,36.63473 2.69077,91.6532 -17.51766,148.5917 -32.11826,90.4956 -118.04479,178.18637 -280.9927,182.0317 C 104.04591,1003.5268 32.337042,969.45942 10.602125,898.10057 -19.277951,800 31.260909,688.80641 70.947248,623.90447 c 7.948778,-12.99921 24.252,-3.8239 16.083135,11.21699 C 71.78426,663.19332 17.604515,759.1726 45.013625,828.2523 c 17.312125,43.6319 76.056075,86.2028 172.931635,79.42 141.40283,-9.9004 229.27124,-67.2057 255.71043,-117.1901 0.8367,-1.5819 1.54721,-3.9793 1.90822,-5.7264 5.03108,-24.3465 -9.11926,-113.0832 -37.73852,-162.084 -3.2791,-5.6143 -0.38782,-8.71415 0.72089,-12.9007 0,0 11.05907,-41.75965 16.58861,-62.63948 1.41108,-5.32831 6.0208,-8.04204 11.45852,-4.08224 8.62347,6.2797 22.57395,35.84431 38.00367,48.23426 24.67928,19.81728 4.87299,50.98731 6.59105,79.05616 z"
     id="path2818"
     sodipodi:nodetypes="cssssssssssssssc" />
</svg>
