<?xml version="1.0" encoding="UTF-8" standalone="no"?>
<!-- Created with Inkscape (http://www.inkscape.org/) -->

<svg
   xmlns:dc="http://purl.org/dc/elements/1.1/"
   xmlns:cc="http://creativecommons.org/ns#"
   xmlns:rdf="http://www.w3.org/1999/02/22-rdf-syntax-ns#"
   xmlns:svg="http://www.w3.org/2000/svg"
   xmlns="http://www.w3.org/2000/svg"
   xmlns:sodipodi="http://sodipodi.sourceforge.net/DTD/sodipodi-0.dtd"
   xmlns:inkscape="http://www.inkscape.org/namespaces/inkscape"
   version="1.0"
   width="1000"
   height="1000"
   id="svg5496"
   sodipodi:version="0.32"
   inkscape:version="0.47pre0 r21549"
   sodipodi:docname="baa+meem.fina.svg"
   inkscape:output_extension="org.inkscape.output.svg.inkscape">
  <metadata
     id="metadata5594">
    <rdf:RDF>
      <cc:Work
         rdf:about="">
        <dc:format>image/svg+xml</dc:format>
        <dc:type
           rdf:resource="http://purl.org/dc/dcmitype/StillImage" />
        <dc:title />
      </cc:Work>
    </rdf:RDF>
  </metadata>
  <sodipodi:namedview
     inkscape:pageshadow="2"
     inkscape:pageopacity="0.0"
     borderopacity="1.0"
     bordercolor="#666666"
     pagecolor="#ffffff"
     id="base"
     showgrid="false"
     showguides="true"
     inkscape:guide-bbox="true"
     inkscape:zoom="0.454"
     inkscape:cx="500"
     inkscape:cy="500"
     inkscape:window-x="391"
     inkscape:window-y="52"
     inkscape:current-layer="svg5496"
     inkscape:window-maximized="0"
     inkscape:window-width="879"
     inkscape:window-height="569">
    <sodipodi:guide
       orientation="horizontal"
       position="200"
       id="guide5596" />
  </sodipodi:namedview>
  <defs
     id="defs5498">
    <inkscape:perspective
       sodipodi:type="inkscape:persp3d"
       inkscape:vp_x="0 : 500 : 1"
       inkscape:vp_y="0 : 1000 : 0"
       inkscape:vp_z="1000 : 500 : 1"
       inkscape:persp3d-origin="500 : 333.33333 : 1"
       id="perspective2866" />
    <inkscape:perspective
       id="perspective2855"
       inkscape:persp3d-origin="0.5 : 0.33333333 : 1"
       inkscape:vp_z="1 : 0.5 : 1"
       inkscape:vp_y="0 : 1000 : 0"
       inkscape:vp_x="0 : 0.5 : 1"
       sodipodi:type="inkscape:persp3d" />
  </defs>
  <g
     id="layer1" />
  <path
     style="color:#000000;fill:#000000;stroke:#000000;stroke-width:1px;stroke-linecap:butt;stroke-linejoin:miter;stroke-miterlimit:4;stroke-opacity:1;stroke-dasharray:none;stroke-dashoffset:0;marker:none;visibility:visible;display:inline;overflow:visible;enable-background:accumulate;fill-opacity:1"
     d="m 522.05345,185.71188 c -75.6685,-5.79594 -80.7113,-95.200974 -139.7457,-100.676434 -82.4367,-7.64602 -232.6581,109.870654 -239.3647,118.686964 -25.5435,33.57858 -40.5113,64.37957 -52.072103,96.00757 -1.2549,3.4333 0.094,7.26403 4.9471,9.48135 14.313603,6.54032 27.115903,13.58442 38.314503,21.16306 -26.4133,6.25966 -105.893003,10.67114 -132.4536027,138.37715 -21.8414013,105.01573 54.5676997,292.14631 63.6485997,499.25367 2.2618,51.58399 27.2305,31.63035 29.7356,-7.60806 9.714303,-152.16218 -39.4138,-322.26451 -60.6749,-488.88728 -0.7619,-5.97119 -0.2857,-10.1996 3.9487,-13.38335 64.073303,-48.17453 174.131303,-63.03581 266.869703,-39.10804 3.4136,0.88075 7.1021,0.32548 9.2301,-2.99863 l 46.292,-72.31327 c 3.9761,-6.21112 1.7057,-15.58035 -2.5035,-19.14654 -63.7229,-53.98819 -108.27,-77.25352 -160.4833,-102.96073 40.8446,-32.96618 129.9293,-74.4859 185.9459,-40.41486 46.5472,28.31152 50.184,104.89949 131.7577,105.84902 l 6.6079,-101.32159 z"
     id="path2842"
     sodipodi:nodetypes="csssscssssssssscscc" />
</svg>
