<?xml version="1.0" encoding="UTF-8" standalone="no"?>
<!-- Created with Inkscape (http://www.inkscape.org/) -->

<svg
   xmlns:dc="http://purl.org/dc/elements/1.1/"
   xmlns:cc="http://creativecommons.org/ns#"
   xmlns:rdf="http://www.w3.org/1999/02/22-rdf-syntax-ns#"
   xmlns:svg="http://www.w3.org/2000/svg"
   xmlns="http://www.w3.org/2000/svg"
   xmlns:sodipodi="http://sodipodi.sourceforge.net/DTD/sodipodi-0.dtd"
   xmlns:inkscape="http://www.inkscape.org/namespaces/inkscape"
   version="1.0"
   width="1000"
   height="1000"
   id="svg5496"
   sodipodi:version="0.32"
   inkscape:version="0.47pre4 r22446"
   sodipodi:docname="baa+daal.isol.svg"
   inkscape:output_extension="org.inkscape.output.svg.inkscape">
  <metadata
     id="metadata5594">
    <rdf:RDF>
      <cc:Work
         rdf:about="">
        <dc:format>image/svg+xml</dc:format>
        <dc:type
           rdf:resource="http://purl.org/dc/dcmitype/StillImage" />
      </cc:Work>
    </rdf:RDF>
  </metadata>
  <sodipodi:namedview
     inkscape:pageshadow="2"
     inkscape:pageopacity="0.0"
     guidetolerance="10.0"
     gridtolerance="10.0"
     objecttolerance="10.0"
     borderopacity="1.0"
     bordercolor="#666666"
     pagecolor="#ffffff"
     id="base"
     showgrid="false"
     showguides="true"
     inkscape:guide-bbox="true"
     inkscape:zoom="0.908"
     inkscape:cx="366.27653"
     inkscape:cy="378.30118"
     inkscape:window-x="0"
     inkscape:window-y="24"
     inkscape:current-layer="svg5496"
     inkscape:window-width="1280"
     inkscape:window-height="725"
     inkscape:window-maximized="1">
    <sodipodi:guide
       orientation="horizontal"
       position="200"
       id="guide5596" />
  </sodipodi:namedview>
  <defs
     id="defs5498">
    <inkscape:perspective
       sodipodi:type="inkscape:persp3d"
       inkscape:vp_x="0 : 500 : 1"
       inkscape:vp_y="0 : 1000 : 0"
       inkscape:vp_z="1000 : 500 : 1"
       inkscape:persp3d-origin="500 : 333.33333 : 1"
       id="perspective2426" />
    <inkscape:perspective
       id="perspective3768"
       inkscape:persp3d-origin="0.5 : 0.33333333 : 1"
       inkscape:vp_z="1 : 0.5 : 1"
       inkscape:vp_y="0 : 1000 : 0"
       inkscape:vp_x="0 : 0.5 : 1"
       sodipodi:type="inkscape:persp3d" />
  </defs>
  <g
     id="layer1"
     transform="translate(-50.660793,19.87494)" />
  <path
     style="fill:#ff0000;fill-opacity:0.60784314;fill-rule:evenodd;stroke:#000000;stroke-width:1;stroke-linecap:butt;stroke-linejoin:miter;stroke-miterlimit:4;stroke-opacity:1;stroke-dasharray:none"
     d="m 460.90342,603.12982 c -1.402,5.0808 0.08,7.7964 3.456,11.3194 14.512,15.1398 38.54,52.2189 35.728,63.91 -1.054,4.3807 -3.638,6.7684 -7.621,8.3304 -20.616,8.0872 -61.695,11.5264 -80.211,0.1813 -41.969,-25.7118 -97.738,-239.352 -126.153,-367.3594 -4.594,-20.6931 -16.918,-19.1625 -19.857,-12.2647 -10.943,25.6799 -16.355,43.1702 -20.237,60.6764 -2.719,12.2529 -2.453,25.5751 0.01,37.5219 18.656,90.3313 58.218,183.8458 40.08,213.6774 -14.322,23.5543 -36.893,45.6791 -113.636,66.4407 -46.731,12.6426 -92.071003,20.9833 -120.394003,3.826 -14.466,-8.7632 -18.426,-21.1332 -22.687,-32.706 -3.448,-9.3665 -13.576,-4.7366 -14.691,-1.1681 -24.943999,79.7598 -13.3810002,124.6853 14.003,137.5862 69.955001,20.8562 184.594003,-14.1643 236.261003,-66.1515 17.131,-19.7392 32.376,-74.7594 37.09,-98.754 0.871,-4.4343 6.341,-3.5447 7.457,-0.5723 26.88,71.629 51.608,178.5761 146.953,168.2913 48.561,-5.2613 63.037,-38.2766 70.203,-91.2429 7.889,-58.3211 -0.515,-140.5578 -26.911,-184.6134 -7.413,-12.3721 -14.023,-7.3346 -17.006,-1.805 -8.503,29.2228 -16.841,55.6327 -21.837,84.8763 z"
     id="path2418-4"
     sodipodi:nodetypes="csssssssssssssccssssscc" />
</svg>
