<?xml version="1.0" encoding="UTF-8" standalone="no"?>
<!-- Created with Inkscape (http://www.inkscape.org/) -->
<svg
   xmlns:dc="http://purl.org/dc/elements/1.1/"
   xmlns:cc="http://creativecommons.org/ns#"
   xmlns:rdf="http://www.w3.org/1999/02/22-rdf-syntax-ns#"
   xmlns:svg="http://www.w3.org/2000/svg"
   xmlns="http://www.w3.org/2000/svg"
   xmlns:sodipodi="http://sodipodi.sourceforge.net/DTD/sodipodi-0.dtd"
   xmlns:inkscape="http://www.inkscape.org/namespaces/inkscape"
   version="1.0"
   width="1000"
   height="1000"
   id="svg5496"
   sodipodi:version="0.32"
   inkscape:version="0.46"
   sodipodi:docname="baa+baa+meem.init.svg"
   inkscape:output_extension="org.inkscape.output.svg.inkscape">
  <metadata
     id="metadata5594">
    <rdf:RDF>
      <cc:Work
         rdf:about="">
        <dc:format>image/svg+xml</dc:format>
        <dc:type
           rdf:resource="http://purl.org/dc/dcmitype/StillImage" />
      </cc:Work>
    </rdf:RDF>
  </metadata>
  <sodipodi:namedview
     inkscape:window-height="618"
     inkscape:window-width="641"
     inkscape:pageshadow="2"
     inkscape:pageopacity="0.0"
     guidetolerance="10.0"
     gridtolerance="10.0"
     objecttolerance="10.0"
     borderopacity="1.0"
     bordercolor="#666666"
     pagecolor="#ffffff"
     id="base"
     showgrid="false"
     showguides="true"
     inkscape:guide-bbox="true"
     inkscape:zoom="0.64205296"
     inkscape:cx="373.19852"
     inkscape:cy="516.98272"
     inkscape:window-x="0"
     inkscape:window-y="25"
     inkscape:current-layer="svg5496">
    <sodipodi:guide
       orientation="horizontal"
       position="200"
       id="guide5596" />
  </sodipodi:namedview>
  <defs
     id="defs5498">
    <inkscape:perspective
       sodipodi:type="inkscape:persp3d"
       inkscape:vp_x="0 : 500 : 1"
       inkscape:vp_y="0 : 1000 : 0"
       inkscape:vp_z="1000 : 500 : 1"
       inkscape:persp3d-origin="500 : 333.33333 : 1"
       id="perspective3206" />
    <inkscape:perspective
       id="perspective3215"
       inkscape:persp3d-origin="372.04724 : 350.78739 : 1"
       inkscape:vp_z="744.09448 : 526.18109 : 1"
       inkscape:vp_y="0 : 1000 : 0"
       inkscape:vp_x="0 : 526.18109 : 1"
       sodipodi:type="inkscape:persp3d" />
  </defs>
  <g
     id="layer1" />
  <path
     style="fill:#000000;fill-opacity:1;fill-rule:evenodd;stroke:#000000;stroke-width:1px;stroke-linecap:butt;stroke-linejoin:miter;stroke-opacity:1"
     d="M 471.14494,381.53486 C 458.03201,421.78658 435.58259,459.09189 404.17227,460.18881 C 376.12067,461.15644 352.98756,441.22853 332.40906,419.02469 C 309.6636,394.48275 288.26085,366.77767 273.34194,365.95982 C 238.12315,364.02915 154.94119,406.22642 123.67985,510.80769 C 108.73012,560.82028 103.40714,603.55249 113.21827,654.3745 C 115.29758,665.14541 112.3558,669.35406 106.72461,673.23759 C 84.288028,688.71091 34.356428,707.5756 -0.9596021,717.90847 L 0.8651279,800 C 57.612738,779.09824 141.15183,731.59644 174.44044,737.42451 C 205.17452,742.80534 259.47002,774.84351 293.58949,798.94591 C 296.62061,801.08713 302.30273,800.0152 304.5865,795.68919 C 316.88819,772.38684 326.41873,746.88848 333.34497,718.69533 C 337.61417,701.31762 325.15728,692.32639 317.90355,688.76397 C 274.4271,667.41201 242.11439,655.7918 200.56441,626.66088 C 184.76331,615.58264 152.8519,559.89739 142.51161,525.60397 C 141.2386,521.38207 140.96889,511.52779 146.40537,505.35642 C 171.80322,476.52532 199.84365,459.42902 230.30496,449.5554 C 241.55441,445.90904 256.10431,445.95797 262.97892,455.74973 C 295.74384,502.418 333.58507,554.42894 374.19032,552.47092 C 406.8433,550.89636 436.11584,530.87348 453.82985,503.16792 C 470.8876,476.48877 490.71245,434.12397 492.56061,390.87989 C 493.21619,375.40227 477.24643,362.80559 471.14494,381.53486 z"
     id="path3221"
     sodipodi:nodetypes="cssssssccssssssssssssss" />
</svg>
