<?xml version="1.0" encoding="UTF-8" standalone="no"?>
<!-- Created with Inkscape (http://www.inkscape.org/) -->

<svg
   xmlns:dc="http://purl.org/dc/elements/1.1/"
   xmlns:cc="http://creativecommons.org/ns#"
   xmlns:rdf="http://www.w3.org/1999/02/22-rdf-syntax-ns#"
   xmlns:svg="http://www.w3.org/2000/svg"
   xmlns="http://www.w3.org/2000/svg"
   xmlns:sodipodi="http://sodipodi.sourceforge.net/DTD/sodipodi-0.dtd"
   xmlns:inkscape="http://www.inkscape.org/namespaces/inkscape"
   version="1.0"
   width="1000"
   height="1000"
   id="svg5496"
   sodipodi:version="0.32"
   inkscape:version="0.47pre4 r22446"
   sodipodi:docname="baa+seen.init.svg"
   inkscape:output_extension="org.inkscape.output.svg.inkscape">
  <metadata
     id="metadata5594">
    <rdf:RDF>
      <cc:Work
         rdf:about="">
        <dc:format>image/svg+xml</dc:format>
        <dc:type
           rdf:resource="http://purl.org/dc/dcmitype/StillImage" />
      </cc:Work>
    </rdf:RDF>
  </metadata>
  <sodipodi:namedview
     inkscape:pageshadow="2"
     inkscape:pageopacity="0.0"
     guidetolerance="10.0"
     gridtolerance="10.0"
     objecttolerance="10.0"
     borderopacity="1.0"
     bordercolor="#666666"
     pagecolor="#ffffff"
     id="base"
     showgrid="false"
     showguides="true"
     inkscape:guide-bbox="true"
     inkscape:zoom="0.36062446"
     inkscape:cx="493.772"
     inkscape:cy="410.23625"
     inkscape:window-x="0"
     inkscape:window-y="24"
     inkscape:current-layer="svg5496"
     inkscape:window-width="640"
     inkscape:window-height="480"
     inkscape:window-maximized="0">
    <sodipodi:guide
       orientation="horizontal"
       position="200"
       id="guide5596" />
  </sodipodi:namedview>
  <defs
     id="defs5498">
    <inkscape:perspective
       sodipodi:type="inkscape:persp3d"
       inkscape:vp_x="0 : 500 : 1"
       inkscape:vp_y="0 : 1000 : 0"
       inkscape:vp_z="1000 : 500 : 1"
       inkscape:persp3d-origin="500 : 333.33333 : 1"
       id="perspective8" />
    <inkscape:perspective
       id="perspective2388"
       inkscape:persp3d-origin="372.04724 : 350.78739 : 1"
       inkscape:vp_z="744.09448 : 526.18109 : 1"
       inkscape:vp_y="0 : 1000 : 0"
       inkscape:vp_x="0 : 526.18109 : 1"
       sodipodi:type="inkscape:persp3d" />
    <inkscape:perspective
       id="perspective4613"
       inkscape:persp3d-origin="372.04724 : 350.78739 : 1"
       inkscape:vp_z="744.09448 : 526.18109 : 1"
       inkscape:vp_y="0 : 1000 : 0"
       inkscape:vp_x="0 : 526.18109 : 1"
       sodipodi:type="inkscape:persp3d" />
    <inkscape:perspective
       id="perspective4379"
       inkscape:persp3d-origin="0.5 : 0.33333333 : 1"
       inkscape:vp_z="1 : 0.5 : 1"
       inkscape:vp_y="0 : 1000 : 0"
       inkscape:vp_x="0 : 0.5 : 1"
       sodipodi:type="inkscape:persp3d" />
    <inkscape:perspective
       id="perspective4401"
       inkscape:persp3d-origin="0.5 : 0.33333333 : 1"
       inkscape:vp_z="1 : 0.5 : 1"
       inkscape:vp_y="0 : 1000 : 0"
       inkscape:vp_x="0 : 0.5 : 1"
       sodipodi:type="inkscape:persp3d" />
    <inkscape:perspective
       id="perspective4401-9"
       inkscape:persp3d-origin="0.5 : 0.33333333 : 1"
       inkscape:vp_z="1 : 0.5 : 1"
       inkscape:vp_y="0 : 1000 : 0"
       inkscape:vp_x="0 : 0.5 : 1"
       sodipodi:type="inkscape:persp3d" />
    <inkscape:perspective
       id="perspective4441"
       inkscape:persp3d-origin="0.5 : 0.33333333 : 1"
       inkscape:vp_z="1 : 0.5 : 1"
       inkscape:vp_y="0 : 1000 : 0"
       inkscape:vp_x="0 : 0.5 : 1"
       sodipodi:type="inkscape:persp3d" />
  </defs>
  <g
     id="layer1"
     transform="matrix(1.3,0,0,1.3,-244.36598,-182.55101)"
     style="stroke:#000000;stroke-opacity:1;fill:#000000;fill-opacity:1" />
  <path
     style="fill:#ff0000;fill-opacity:0.60784314;fill-rule:evenodd;stroke:#000000;stroke-width:1;stroke-linecap:butt;stroke-linejoin:miter;stroke-miterlimit:4;stroke-opacity:1;stroke-dasharray:none"
     d="m 580.037,302.83832 c -4.54,-8.69181 -9.649,-6.95688 -12.828,-0.47941 -8.191,16.69593 -25.12,49.59108 -31.918,68.69789 -2.04,5.73022 -3.06,10.25034 1.57,18.2196 29.304,50.4366 87.437,167.7834 83.711,259.8197 -0.357,8.8279 -3.224,10.8313 -6.956,9.7785 -11.106,-3.1321 -85.678,-37.5616 -115.661,-97.0465 -5.582,-11.0752 -11.496,-13.3798 -16.957,0.2439 l -35.079,87.5019 c -2.7,6.7353 -10.366,15.3027 -20.856,16.4442 -17.189,1.8703 -59.095,-9.7312 -74.798,-27.602 -3.833,-4.361 -3.049,-9.2974 -2.777,-13.029 1.303,-17.7862 6.855,-26.3308 10.971,-38.661 4.703,-14.0874 -11.349,-20.6504 -19.324,-4.2604 -24.052,49.4309 -66.727,101.5614 -124.356,102.2232 -37.109,0.4261 -59.003,-19.33 -69.133,-34.7634 -4.402,-6.7062 2.748,-26.8254 10.719,-44.0629 4.217,-9.1207 -12.597,-18.8776 -20.094,-4.8668 C 98.243001,671.9178 46.466,697.8941 0.36,709.3663 L 0,800 c 38.847,-14.8579 81.317001,-47.0113 102.86,-74.4412 1.354,-1.7247 3.312,-1.6923 4.927,0.4241 19.638,25.7244 36.429,53.4166 80.163,54.3804 43.734,0.9638 78.042,-30.9523 105.056,-66.1169 27.63,31.0718 56.078,47.9007 92.024,50.8554 15.152,1.2454 33.227,1.858 40.392,-8.0121 13.344,-18.3782 47.585,-78.3413 58.649,-107.4656 2.292,-6.0359 6.626,-6.6617 8.115,-1.8908 10.427,33.4034 58.508,70.6534 114.929,88.4103 4.218,1.3276 11.019,0.3701 13.559,-1.6518 16.609,-13.2144 36.302,-54.3658 40.1,-80.2992 13.882,-94.7794 -48.34,-289.32215 -80.737,-351.35428 z"
     id="path2394-6"
     sodipodi:nodetypes="csssssssssssssssscccsszcssssssss" />
</svg>
