<?xml version="1.0" encoding="UTF-8" standalone="no"?>
<!-- Created with Inkscape (http://www.inkscape.org/) -->

<svg
   xmlns:dc="http://purl.org/dc/elements/1.1/"
   xmlns:cc="http://creativecommons.org/ns#"
   xmlns:rdf="http://www.w3.org/1999/02/22-rdf-syntax-ns#"
   xmlns:svg="http://www.w3.org/2000/svg"
   xmlns="http://www.w3.org/2000/svg"
   xmlns:sodipodi="http://sodipodi.sourceforge.net/DTD/sodipodi-0.dtd"
   xmlns:inkscape="http://www.inkscape.org/namespaces/inkscape"
   version="1.0"
   width="1000"
   height="1000"
   id="svg5496"
   sodipodi:version="0.32"
   inkscape:version="0.47pre0 r21549"
   sodipodi:docname="baa+meem+haa.init.svg"
   inkscape:output_extension="org.inkscape.output.svg.inkscape">
  <metadata
     id="metadata5594">
    <rdf:RDF>
      <cc:Work
         rdf:about="">
        <dc:format>image/svg+xml</dc:format>
        <dc:type
           rdf:resource="http://purl.org/dc/dcmitype/StillImage" />
        <dc:title></dc:title>
      </cc:Work>
    </rdf:RDF>
  </metadata>
  <sodipodi:namedview
     inkscape:window-height="721"
     inkscape:pageshadow="2"
     inkscape:pageopacity="0.0"
     borderopacity="1.0"
     bordercolor="#666666"
     pagecolor="#ffffff"
     id="base"
     showgrid="false"
     showguides="true"
     inkscape:guide-bbox="true"
     inkscape:zoom="0.64205296"
     inkscape:cx="268.12888"
     inkscape:cy="565.57089"
     inkscape:window-x="0"
     inkscape:window-y="28"
     inkscape:current-layer="svg5496"
     inkscape:window-width="1280"
     inkscape:window-maximized="1">
    <sodipodi:guide
       orientation="horizontal"
       position="200"
       id="guide5596" />
  </sodipodi:namedview>
  <defs
     id="defs5498">
    <inkscape:perspective
       sodipodi:type="inkscape:persp3d"
       inkscape:vp_x="0 : 500 : 1"
       inkscape:vp_y="0 : 1000 : 0"
       inkscape:vp_z="1000 : 500 : 1"
       inkscape:persp3d-origin="500 : 333.33333 : 1"
       id="perspective8" />
    <inkscape:perspective
       id="perspective2822"
       inkscape:persp3d-origin="0.5 : 0.33333333 : 1"
       inkscape:vp_z="1 : 0.5 : 1"
       inkscape:vp_y="0 : 1000 : 0"
       inkscape:vp_x="0 : 0.5 : 1"
       sodipodi:type="inkscape:persp3d" />
  </defs>
  <g
     id="layer1" />
  <path
     style="color:#000000;fill:#000000;fill-opacity:1;stroke:#000000;stroke-width:1px;stroke-linecap:butt;stroke-linejoin:miter;stroke-miterlimit:4;stroke-opacity:1;stroke-dasharray:none;stroke-dashoffset:0;marker:none;visibility:visible;display:inline;overflow:visible;enable-background:accumulate"
     d="m 429.37042,95.314998 c -42.00159,7.730382 -99.0154,45.372812 -135.06439,130.903752 -17.10901,40.59336 -16.44041,108.66604 5.6875,169.34375 -106.67591,34.87788 -212.089356,105.69119 -235.874996,118.65625 -31.44274,17.13879 -47.98979,60.0022 -65.1551258,89.57138 -2.204852,3.79811 0.49045499,4.64867 4.543807,4.66452 C 66.801954,608.70225 143.30612,615.63042 260.14978,646.9375 177.07109,670.94165 94.876664,693.22536 2.4310342,702 l 0,98 C 178.59428,741.98956 384.08905,648.73388 526.71228,681.6875 c 6.17683,1.42718 8.31201,-1.0469 12.03125,-5.65625 19.16469,-23.75132 31.34689,-44.25231 43.53125,-66.71875 8.12657,-14.98439 -2.72161,-23.09143 -13.375,-22.1875 -169.75876,14.4039 -316.68382,-23.68287 -432.6875,-50.75 -2.88762,-0.67377 -3.16279,-3.40474 -0.78125,-4.8125 176.34405,-104.23976 241.85458,-74.32343 349.875,-23.78125 5.68052,2.65788 10.72468,1.1004 12,-3.25 l 21.9375,-74.84375 c 2.11451,-7.21304 -1.37759,-11.65625 -3.875,-13.5 C 485.34875,394.025 454.82446,388.1106 424.91166,375.88 366.0199,351.80061 329.72989,278.38091 324.11853,252.3125 c -1.38857,-6.45084 -1.05628,-13.05259 3.125,-17.375 76.50572,-79.08801 133.28035,-32.88412 160.34375,-11.21875 8.06091,6.45309 13.40815,4.41648 18.84375,-9.21875 9.19081,-23.05521 14.32928,-48.03622 21.28125,-72.28125 0.94404,-3.29234 -0.57221,-9.02816 -2.59375,-11.34375 -25.58721,-27.71986 -64.87494,-40.482153 -95.74811,-35.560002 z"
     id="path2828"
     sodipodi:nodetypes="cscssscccsssssssccssssssscc" />
</svg>
