<?xml version="1.0" encoding="UTF-8" standalone="no"?>
<!-- Created with Inkscape (http://www.inkscape.org/) -->
<svg
   xmlns:dc="http://purl.org/dc/elements/1.1/"
   xmlns:cc="http://creativecommons.org/ns#"
   xmlns:rdf="http://www.w3.org/1999/02/22-rdf-syntax-ns#"
   xmlns:svg="http://www.w3.org/2000/svg"
   xmlns="http://www.w3.org/2000/svg"
   xmlns:sodipodi="http://sodipodi.sourceforge.net/DTD/sodipodi-0.dtd"
   xmlns:inkscape="http://www.inkscape.org/namespaces/inkscape"
   version="1.0"
   width="1000"
   height="1000"
   id="svg5496"
   sodipodi:version="0.32"
   inkscape:version="0.46"
   sodipodi:docname="baa+seen.init.svg"
   inkscape:output_extension="org.inkscape.output.svg.inkscape">
  <metadata
     id="metadata5594">
    <rdf:RDF>
      <cc:Work
         rdf:about="">
        <dc:format>image/svg+xml</dc:format>
        <dc:type
           rdf:resource="http://purl.org/dc/dcmitype/StillImage" />
      </cc:Work>
    </rdf:RDF>
  </metadata>
  <sodipodi:namedview
     inkscape:pageshadow="2"
     inkscape:pageopacity="0.0"
     guidetolerance="10.0"
     gridtolerance="10.0"
     objecttolerance="10.0"
     borderopacity="1.0"
     bordercolor="#666666"
     pagecolor="#ffffff"
     id="base"
     showgrid="false"
     showguides="true"
     inkscape:guide-bbox="true"
     inkscape:zoom="0.72124892"
     inkscape:cx="493.772"
     inkscape:cy="410.23625"
     inkscape:window-x="0"
     inkscape:window-y="25"
     inkscape:current-layer="svg5496">
    <sodipodi:guide
       orientation="horizontal"
       position="200"
       id="guide5596" />
  </sodipodi:namedview>
  <defs
     id="defs5498">
    <inkscape:perspective
       sodipodi:type="inkscape:persp3d"
       inkscape:vp_x="0 : 500 : 1"
       inkscape:vp_y="0 : 1000 : 0"
       inkscape:vp_z="1000 : 500 : 1"
       inkscape:persp3d-origin="500 : 333.33333 : 1"
       id="perspective8" />
    <inkscape:perspective
       id="perspective2388"
       inkscape:persp3d-origin="372.04724 : 350.78739 : 1"
       inkscape:vp_z="744.09448 : 526.18109 : 1"
       inkscape:vp_y="0 : 1000 : 0"
       inkscape:vp_x="0 : 526.18109 : 1"
       sodipodi:type="inkscape:persp3d" />
    <inkscape:perspective
       id="perspective4613"
       inkscape:persp3d-origin="372.04724 : 350.78739 : 1"
       inkscape:vp_z="744.09448 : 526.18109 : 1"
       inkscape:vp_y="0 : 1000 : 0"
       inkscape:vp_x="0 : 526.18109 : 1"
       sodipodi:type="inkscape:persp3d" />
  </defs>
  <g
     id="layer1"
     transform="matrix(1.3,0,0,1.3,-244.36598,-182.55101)"
     style="stroke:#000000;stroke-opacity:1;fill:#000000;fill-opacity:1" />
  <path
     style="fill:#000000;fill-opacity:1;fill-rule:evenodd;stroke:#000000;stroke-width:1px;stroke-linecap:butt;stroke-linejoin:miter;stroke-opacity:1"
     d="M 614.59885,280.89196 C 609.84895,271.79734 604.50319,273.61267 601.17768,280.39033 C 592.60606,297.86 572.70619,339.38729 565.59256,359.37957 C 563.45915,365.37535 563.32064,369.63026 567.23502,378.44346 C 600.63085,453.63399 660.91262,546.89487 657.01341,643.19625 C 656.6394,652.43336 653.64058,654.52961 649.73459,653.42801 C 638.11381,650.15064 560.0861,614.12571 528.71348,551.88409 C 522.87233,540.29555 516.68497,537.88421 510.97033,552.13912 L 474.26608,643.69614 C 471.44079,650.7437 463.41997,659.7082 452.44387,660.90243 C 434.45714,662.85942 390.61009,650.72035 374.17884,632.02137 C 370.16915,627.45829 370.98813,622.29321 371.27408,618.38858 C 372.637,599.77814 378.44621,590.83759 382.75296,577.93601 C 387.67351,563.19569 370.87795,556.32842 362.53326,573.47809 C 337.36656,625.19974 299.4689,675.57045 232.41436,684.71829 C 216.8242,686.84515 172.31487,662.14581 166.35564,644.06413 C 163.72827,636.09212 162.95356,615.99558 171.29371,597.95929 C 175.70669,588.41586 158.11205,578.2068 150.26804,592.86686 C 100.55032,679.36932 62.832687,688.92247 2.8743435,699.98156 L 1.4037555,800 C 47.540841,786.77321 90.448035,751.517 115.69381,717.40333 C 117.05909,715.55848 119.16027,715.63266 120.85069,717.84709 C 141.39796,744.7637 165.87593,772.13013 200.47679,779.4533 C 236.01656,786.97519 284.08803,752.16636 316.18059,699.51658 C 322.27646,689.51593 322.0326,694.66464 322.10943,700.01984 C 322.81368,749.10666 398.80604,765.54396 419.66155,768.58433 C 432.53089,770.46046 449.69511,770.62274 457.19349,760.29524 C 471.15553,741.06537 502.60897,674.22275 514.18542,643.74874 C 516.58456,637.4332 521.11931,636.77837 522.67757,641.77036 C 533.58773,676.72172 583.89659,715.69811 642.93197,734.27791 C 647.34569,735.66701 654.46153,734.66518 657.12054,732.54946 C 674.49784,718.72271 695.1044,675.66431 699.07853,648.52911 C 713.60292,549.35716 648.49816,345.79883 614.59885,280.89196 z"
     id="path2394"
     sodipodi:nodetypes="csssssssssssssssscccsszssssssssss" />
</svg>
