<?xml version="1.0" encoding="UTF-8" standalone="no"?>
<!-- Created with Inkscape (http://www.inkscape.org/) -->

<svg
   xmlns:dc="http://purl.org/dc/elements/1.1/"
   xmlns:cc="http://creativecommons.org/ns#"
   xmlns:rdf="http://www.w3.org/1999/02/22-rdf-syntax-ns#"
   xmlns:svg="http://www.w3.org/2000/svg"
   xmlns="http://www.w3.org/2000/svg"
   xmlns:sodipodi="http://sodipodi.sourceforge.net/DTD/sodipodi-0.dtd"
   xmlns:inkscape="http://www.inkscape.org/namespaces/inkscape"
   version="1.0"
   width="1000"
   height="1000"
   id="svg5496"
   sodipodi:version="0.32"
   inkscape:version="0.47pre4 r22446"
   sodipodi:docname="baa+yaa.isol.svg"
   inkscape:output_extension="org.inkscape.output.svg.inkscape">
  <metadata
     id="metadata5594">
    <rdf:RDF>
      <cc:Work
         rdf:about="">
        <dc:format>image/svg+xml</dc:format>
        <dc:type
           rdf:resource="http://purl.org/dc/dcmitype/StillImage" />
        <dc:title />
      </cc:Work>
    </rdf:RDF>
  </metadata>
  <sodipodi:namedview
     inkscape:window-height="767"
     inkscape:pageshadow="2"
     inkscape:pageopacity="0.0"
     borderopacity="1.0"
     bordercolor="#666666"
     pagecolor="#ffffff"
     id="base"
     showgrid="false"
     showguides="true"
     inkscape:guide-bbox="true"
     inkscape:zoom="0.52171679"
     inkscape:cx="509.02534"
     inkscape:cy="283.48543"
     inkscape:window-x="0"
     inkscape:window-y="0"
     inkscape:current-layer="svg5496"
     inkscape:window-width="1278"
     inkscape:window-maximized="1">
    <sodipodi:guide
       orientation="horizontal"
       position="200"
       id="guide5596" />
  </sodipodi:namedview>
  <defs
     id="defs5498">
    <inkscape:perspective
       sodipodi:type="inkscape:persp3d"
       inkscape:vp_x="0 : 500 : 1"
       inkscape:vp_y="0 : 1000 : 0"
       inkscape:vp_z="1000 : 500 : 1"
       inkscape:persp3d-origin="500 : 333.33333 : 1"
       id="perspective8" />
    <inkscape:perspective
       id="perspective2822"
       inkscape:persp3d-origin="0.5 : 0.33333333 : 1"
       inkscape:vp_z="1 : 0.5 : 1"
       inkscape:vp_y="0 : 1000 : 0"
       inkscape:vp_x="0 : 0.5 : 1"
       sodipodi:type="inkscape:persp3d" />
    <inkscape:perspective
       id="perspective4461"
       inkscape:persp3d-origin="0.5 : 0.33333333 : 1"
       inkscape:vp_z="1 : 0.5 : 1"
       inkscape:vp_y="0 : 1000 : 0"
       inkscape:vp_x="0 : 0.5 : 1"
       sodipodi:type="inkscape:persp3d" />
    <inkscape:perspective
       id="perspective4483"
       inkscape:persp3d-origin="0.5 : 0.33333333 : 1"
       inkscape:vp_z="1 : 0.5 : 1"
       inkscape:vp_y="0 : 1000 : 0"
       inkscape:vp_x="0 : 0.5 : 1"
       sodipodi:type="inkscape:persp3d" />
    <inkscape:perspective
       id="perspective2834"
       inkscape:persp3d-origin="0.5 : 0.33333333 : 1"
       inkscape:vp_z="1 : 0.5 : 1"
       inkscape:vp_y="0 : 1000 : 0"
       inkscape:vp_x="0 : 0.5 : 1"
       sodipodi:type="inkscape:persp3d" />
  </defs>
  <path
     sodipodi:nodetypes="csssssssssssssss"
     id="path2826"
     d="m 404.24172,664.57157 c -4.98913,0.42482 -8.4698,1.004 -10.2532,4.58 l -28.174,56.492 c -2.5077,5.028 -1.0495,9.361 4.624,9.498 84.5979,2.036 156.68575,16.86848 191.8482,35.164 8.42307,4.38264 13.73279,8.3129 2.4372,21.426 -20.70535,24.03693 -136.2022,98.62 -274.092,110.985 -162.6873,14.585 -235.034456,-63.30299 -248.242508,-137.007 -14.379148,-80.23899 54.55796,-162.44691 74.784778,-185.41155 12.75542,-14.48195 -6.111,-26.41065 -15.63068,-15.85272 C 49.799878,621.83237 -8.8378877,722.08857 2.0662123,822.50057 14.234912,934.55657 88.948812,1026.3185 277.58032,1003.0465 c 99.1554,-12.23295 222.7425,-68.18093 288.0744,-125.33293 29.8883,-26.146 60.0188,-105.932 47.3628,-138.374 -14.2067,-36.42 -55.46772,-57.60958 -87.0082,-65.789 -36.31543,-9.41771 -83.63569,-12.22592 -121.7676,-8.979 z"
     style="color:#000000;fill:#ff0000;fill-opacity:0.60784314;stroke:#000000;stroke-width:0;stroke-linecap:butt;stroke-linejoin:miter;stroke-miterlimit:4;stroke-opacity:1;stroke-dasharray:none;stroke-dashoffset:0;marker:none;visibility:visible;display:inline;overflow:visible;enable-background:accumulate" />
  <g
     id="layer1"
     transform="translate(-233.62559,666.61168)" />
  <path
     style="color:#000000;fill:#ff0000;fill-opacity:0.60784314;stroke:#000000;stroke-width:0;stroke-linecap:butt;stroke-linejoin:miter;stroke-miterlimit:4;stroke-opacity:1;stroke-dasharray:none;stroke-dashoffset:0;marker:none;visibility:visible;display:inline;overflow:visible;enable-background:accumulate"
     d="m 483.86512,331.77457 c -2.635,10.297 -16.4409,49.556 -25.2704,76.766 -2.7808,8.57 -5.0863,15.428 4.3155,21.908 32.189,26.275 86.0942,86.197 81.799,164.011 -33.3051,44.376 -99.9416,64.993 -140.4675,70.112 -4.9682,0.628 -8.4698,1.004 -10.2532,4.58 l -28.174,56.492 c -2.5077,5.028 -1.04599,9.7163 4.624,9.498 65.8311,-2.53455 117.12354,-26.99901 154.7759,-69.388 36.86854,-41.50657 60.2786,-109.342 46.8858,-191.92 -7.6654,-47.264 -40.5032,-120.269 -71.1941,-149.187 -6.1962,-5.838 -13.3634,-7.243 -17.041,7.128 z"
     id="path2829"
     sodipodi:nodetypes="csccssssssss" />
</svg>
