<?xml version="1.0" encoding="UTF-8" standalone="no"?>
<!-- Created with Inkscape (http://www.inkscape.org/) -->

<svg
   xmlns:dc="http://purl.org/dc/elements/1.1/"
   xmlns:cc="http://creativecommons.org/ns#"
   xmlns:rdf="http://www.w3.org/1999/02/22-rdf-syntax-ns#"
   xmlns:svg="http://www.w3.org/2000/svg"
   xmlns="http://www.w3.org/2000/svg"
   xmlns:sodipodi="http://sodipodi.sourceforge.net/DTD/sodipodi-0.dtd"
   xmlns:inkscape="http://www.inkscape.org/namespaces/inkscape"
   version="1.0"
   width="1000"
   height="1000"
   id="svg5496"
   sodipodi:version="0.32"
   inkscape:version="0.47pre4 r22446"
   sodipodi:docname="baa+yaa.isol.svg"
   inkscape:output_extension="org.inkscape.output.svg.inkscape">
  <metadata
     id="metadata5594">
    <rdf:RDF>
      <cc:Work
         rdf:about="">
        <dc:format>image/svg+xml</dc:format>
        <dc:type
           rdf:resource="http://purl.org/dc/dcmitype/StillImage" />
        <dc:title />
      </cc:Work>
    </rdf:RDF>
  </metadata>
  <sodipodi:namedview
     inkscape:window-height="725"
     inkscape:pageshadow="2"
     inkscape:pageopacity="0.0"
     borderopacity="1.0"
     bordercolor="#666666"
     pagecolor="#ffffff"
     id="base"
     showgrid="false"
     showguides="true"
     inkscape:guide-bbox="true"
     inkscape:zoom="0.32102648"
     inkscape:cx="558.92955"
     inkscape:cy="232.03475"
     inkscape:window-x="0"
     inkscape:window-y="24"
     inkscape:current-layer="svg5496"
     inkscape:window-width="1280"
     inkscape:window-maximized="1">
    <sodipodi:guide
       orientation="horizontal"
       position="200"
       id="guide5596" />
  </sodipodi:namedview>
  <defs
     id="defs5498">
    <inkscape:perspective
       sodipodi:type="inkscape:persp3d"
       inkscape:vp_x="0 : 500 : 1"
       inkscape:vp_y="0 : 1000 : 0"
       inkscape:vp_z="1000 : 500 : 1"
       inkscape:persp3d-origin="500 : 333.33333 : 1"
       id="perspective8" />
    <inkscape:perspective
       id="perspective2822"
       inkscape:persp3d-origin="0.5 : 0.33333333 : 1"
       inkscape:vp_z="1 : 0.5 : 1"
       inkscape:vp_y="0 : 1000 : 0"
       inkscape:vp_x="0 : 0.5 : 1"
       sodipodi:type="inkscape:persp3d" />
    <inkscape:perspective
       id="perspective4461"
       inkscape:persp3d-origin="0.5 : 0.33333333 : 1"
       inkscape:vp_z="1 : 0.5 : 1"
       inkscape:vp_y="0 : 1000 : 0"
       inkscape:vp_x="0 : 0.5 : 1"
       sodipodi:type="inkscape:persp3d" />
    <inkscape:perspective
       id="perspective4483"
       inkscape:persp3d-origin="0.5 : 0.33333333 : 1"
       inkscape:vp_z="1 : 0.5 : 1"
       inkscape:vp_y="0 : 1000 : 0"
       inkscape:vp_x="0 : 0.5 : 1"
       sodipodi:type="inkscape:persp3d" />
  </defs>
  <g
     id="layer1"
     transform="translate(-233.62559,666.61168)" />
  <path
     style="color:#000000;fill:#ff0000;fill-opacity:0.60784314;stroke:#000000;stroke-width:1;stroke-linecap:butt;stroke-linejoin:miter;stroke-miterlimit:4;stroke-opacity:1;stroke-dasharray:none;stroke-dashoffset:0;marker:none;visibility:visible;display:inline;overflow:visible;enable-background:accumulate"
     d="m 483.86512,331.77457 c -2.635,10.297 -16.4409,49.556 -25.2704,76.766 -2.7808,8.57 -5.0863,15.428 4.3155,21.908 32.189,26.275 86.0942,86.197 81.799,164.011 -33.3051,44.376 -99.9416,64.993 -140.4675,70.112 -4.9682,0.628 -8.4698,1.004 -10.2532,4.58 l -28.174,56.492 c -2.5077,5.028 -1.0495,9.361 4.624,9.498 84.5979,2.036 147.8762,16.868 191.8482,35.164 8.7667,3.647 15.0195,9.542 2.4372,21.426 -25.449,24.037 -136.2022,98.62 -274.092,110.985 -162.6873,14.585 -235.034408,-63.303 -248.242508,-137.007 -14.3791,-80.239 53.4161,-167.829 75.311408,-191.146 7.9625,-8.48 -4.2386,-19.623 -13.7582,-9.065 -51.743708,57.387 -112.7805077,156.59 -101.8764077,257.002 12.1686997,112.056 86.8825997,203.81793 275.5141077,180.54593 99.1554,-12.23295 222.7425,-68.18093 288.0744,-125.33293 29.8883,-26.146 60.0188,-105.932 47.3628,-138.374 -14.2067,-36.42 -55.6227,-57.015 -87.0082,-65.789 -4.4381,-1.241 -3.6672,-4.636 -0.7949,-7.797 37.3374,-41.09 60.2786,-109.342 46.8858,-191.92 -7.6654,-47.264 -40.5032,-120.269 -71.1941,-149.187 -6.1962,-5.838 -13.3634,-7.243 -17.041,7.128 z"
     id="path2828"
     sodipodi:nodetypes="csccsssssssssssssssssss" />
</svg>
