<?xml version="1.0" encoding="UTF-8" standalone="no"?>
<!-- Created with Inkscape (http://www.inkscape.org/) -->

<svg
   xmlns:dc="http://purl.org/dc/elements/1.1/"
   xmlns:cc="http://creativecommons.org/ns#"
   xmlns:rdf="http://www.w3.org/1999/02/22-rdf-syntax-ns#"
   xmlns:svg="http://www.w3.org/2000/svg"
   xmlns="http://www.w3.org/2000/svg"
   xmlns:sodipodi="http://sodipodi.sourceforge.net/DTD/sodipodi-0.dtd"
   xmlns:inkscape="http://www.inkscape.org/namespaces/inkscape"
   version="1.0"
   width="1000"
   height="1000"
   id="svg5496"
   sodipodi:version="0.32"
   inkscape:version="0.47pre4 r22446"
   sodipodi:docname="baa+haa+meem.init.svg"
   inkscape:output_extension="org.inkscape.output.svg.inkscape">
  <metadata
     id="metadata5594">
    <rdf:RDF>
      <cc:Work
         rdf:about="">
        <dc:format>image/svg+xml</dc:format>
        <dc:type
           rdf:resource="http://purl.org/dc/dcmitype/StillImage" />
      </cc:Work>
    </rdf:RDF>
  </metadata>
  <sodipodi:namedview
     inkscape:pageshadow="2"
     inkscape:pageopacity="0.0"
     guidetolerance="10.0"
     gridtolerance="10.0"
     objecttolerance="10.0"
     borderopacity="1.0"
     bordercolor="#666666"
     pagecolor="#ffffff"
     id="base"
     showgrid="false"
     showguides="true"
     inkscape:guide-bbox="true"
     inkscape:zoom="0.6675088"
     inkscape:cx="187.85448"
     inkscape:cy="452.7585"
     inkscape:window-x="0"
     inkscape:window-y="24"
     inkscape:current-layer="svg5496"
     inkscape:window-width="1280"
     inkscape:window-height="725"
     inkscape:window-maximized="1">
    <sodipodi:guide
       orientation="horizontal"
       position="200"
       id="guide5596" />
  </sodipodi:namedview>
  <defs
     id="defs5498">
    <inkscape:perspective
       sodipodi:type="inkscape:persp3d"
       inkscape:vp_x="0 : 500 : 1"
       inkscape:vp_y="0 : 1000 : 0"
       inkscape:vp_z="1000 : 500 : 1"
       inkscape:persp3d-origin="500 : 333.33333 : 1"
       id="perspective8" />
    <inkscape:perspective
       id="perspective2388"
       inkscape:persp3d-origin="372.04724 : 350.78739 : 1"
       inkscape:vp_z="744.09448 : 526.18109 : 1"
       inkscape:vp_y="0 : 1000 : 0"
       inkscape:vp_x="0 : 526.18109 : 1"
       sodipodi:type="inkscape:persp3d" />
    <inkscape:perspective
       id="perspective2823"
       inkscape:persp3d-origin="0.5 : 0.33333333 : 1"
       inkscape:vp_z="1 : 0.5 : 1"
       inkscape:vp_y="0 : 1000 : 0"
       inkscape:vp_x="0 : 0.5 : 1"
       sodipodi:type="inkscape:persp3d" />
    <inkscape:perspective
       id="perspective9304"
       inkscape:persp3d-origin="0.5 : 0.33333333 : 1"
       inkscape:vp_z="1 : 0.5 : 1"
       inkscape:vp_y="0 : 1000 : 0"
       inkscape:vp_x="0 : 0.5 : 1"
       sodipodi:type="inkscape:persp3d" />
  </defs>
  <g
     id="layer1"
     transform="translate(36.680537,237.63108)" />
  <path
     style="fill:#ff0000;fill-opacity:0.60784314;stroke:#000000;stroke-width:1;stroke-linecap:butt;stroke-linejoin:miter;stroke-miterlimit:4;stroke-opacity:1;stroke-dasharray:none"
     d="m 534.0589,203.9522 c -46.2067,-1.3441 -70.1646,68.9112 -149.1233,117.7839 -89.7287,55.5391 -218.8524,73.7991 -238.0785,88.3058 -12.1913,9.1989 -29.5281,51.4236 -39.4563,79.2902 -1.9827,5.5646 0.2652,7.3558 5.2614,6.9002 81.3966,-7.4225 147.8109,8.1758 227.1449,44.9761 -72.1905,8.3394 -159.0487,25.6847 -198.3608,51.5184 -17.0383,11.1967 -40.6586,87.3534 -49.029501,95.5953 C 78.961799,701.5697 36.1175,709.6466 -0.014,709.2084 L 0,800 c 24.5586,0.4882 67.257399,-23.8252 95.612699,-78.8015 52.173301,38.9489 151.540001,78.8068 177.693201,67.0435 7.5851,-3.4117 36.1528,-44.8909 48.1554,-74.4821 8.1153,-20.0079 -11.6002,-71.8722 -48.7944,-111.2827 134.2125,-35.1852 230.4655,-18.1434 360.078,-1.942 6.8974,0.8622 11.4405,1.9809 16.5729,-3.0572 12.3884,-12.1607 31.3776,-50.357 39.7189,-65.6993 5.0007,-9.1979 -1.8401,-15.7208 -15.75,-18.7299 -155.6307,-6.0541 -253.5486,-41.41 -384.8727,-88.713 100.9364,-29.9918 178.3327,-122.6441 205.9212,-120.8009 41.9774,2.8046 45.586,72.8718 42.8512,98.0234 -2.4616,22.6387 21.9584,26.0674 29.8678,3.0752 8.1655,-23.7362 27.0865,-113.6698 6.8471,-173.9459 -5.69,-16.9455 -23.1935,-26.2511 -39.8427,-26.7354 l 3e-4,0 z M 280.9671,703.3437 c 1.1586,4.8015 -2.0079,8.2623 -7.0376,6.7947 -47.0891,-13.7386 -107.5293,-44.0502 -122.3451,-56.5055 -4.4345,-3.7281 -3.4185,-8.5845 0.9502,-12.4108 9.817,-8.5986 24.2798,-14.4562 37.9812,-10.9629 38.6506,9.8547 84.9671,50.3572 90.4513,73.0845 z"
     id="path2394-7"
     sodipodi:nodetypes="csssscsscccsscsssccsssssccssssc" />
</svg>
