<?xml version="1.0" encoding="UTF-8" standalone="no"?>
<!-- Created with Inkscape (http://www.inkscape.org/) -->

<svg
   xmlns:dc="http://purl.org/dc/elements/1.1/"
   xmlns:cc="http://creativecommons.org/ns#"
   xmlns:rdf="http://www.w3.org/1999/02/22-rdf-syntax-ns#"
   xmlns:svg="http://www.w3.org/2000/svg"
   xmlns="http://www.w3.org/2000/svg"
   xmlns:sodipodi="http://sodipodi.sourceforge.net/DTD/sodipodi-0.dtd"
   xmlns:inkscape="http://www.inkscape.org/namespaces/inkscape"
   version="1.0"
   width="1000"
   height="1000"
   id="svg5496"
   sodipodi:version="0.32"
   inkscape:version="0.47pre0 r21549"
   sodipodi:docname="baa+haa+meem.init.svg"
   inkscape:output_extension="org.inkscape.output.svg.inkscape">
  <metadata
     id="metadata5594">
    <rdf:RDF>
      <cc:Work
         rdf:about="">
        <dc:format>image/svg+xml</dc:format>
        <dc:type
           rdf:resource="http://purl.org/dc/dcmitype/StillImage" />
      </cc:Work>
    </rdf:RDF>
  </metadata>
  <sodipodi:namedview
     inkscape:pageshadow="2"
     inkscape:pageopacity="0.0"
     guidetolerance="10.0"
     gridtolerance="10.0"
     objecttolerance="10.0"
     borderopacity="1.0"
     bordercolor="#666666"
     pagecolor="#ffffff"
     id="base"
     showgrid="false"
     showguides="true"
     inkscape:guide-bbox="true"
     inkscape:zoom="0.6675088"
     inkscape:cx="187.85448"
     inkscape:cy="452.7585"
     inkscape:window-x="0"
     inkscape:window-y="28"
     inkscape:current-layer="svg5496"
     inkscape:window-width="1280"
     inkscape:window-height="721"
     inkscape:window-maximized="1">
    <sodipodi:guide
       orientation="horizontal"
       position="200"
       id="guide5596" />
  </sodipodi:namedview>
  <defs
     id="defs5498">
    <inkscape:perspective
       sodipodi:type="inkscape:persp3d"
       inkscape:vp_x="0 : 500 : 1"
       inkscape:vp_y="0 : 1000 : 0"
       inkscape:vp_z="1000 : 500 : 1"
       inkscape:persp3d-origin="500 : 333.33333 : 1"
       id="perspective8" />
    <inkscape:perspective
       id="perspective2388"
       inkscape:persp3d-origin="372.04724 : 350.78739 : 1"
       inkscape:vp_z="744.09448 : 526.18109 : 1"
       inkscape:vp_y="0 : 1000 : 0"
       inkscape:vp_x="0 : 526.18109 : 1"
       sodipodi:type="inkscape:persp3d" />
    <inkscape:perspective
       id="perspective2823"
       inkscape:persp3d-origin="0.5 : 0.33333333 : 1"
       inkscape:vp_z="1 : 0.5 : 1"
       inkscape:vp_y="0 : 1000 : 0"
       inkscape:vp_x="0 : 0.5 : 1"
       sodipodi:type="inkscape:persp3d" />
  </defs>
  <g
     id="layer1"
     transform="translate(36.680537,237.63108)" />
  <path
     style="fill:#000000;stroke:#000000;stroke-width:1px;stroke-linecap:butt;stroke-linejoin:miter;stroke-opacity:1;fill-opacity:1"
     d="m 567.84518,184.16198 c -54.37184,-0.72001 -75.09849,67.63185 -158.46355,117.52886 -94.73585,56.70285 -230.10375,73.79204 -250.44321,88.66842 -12.8975,9.4333 -31.75515,57.52095 -42.5762,86.51883 -2.16086,5.7906 0.17435,7.83003 5.39665,7.30062 87.20253,-8.84003 148.39259,6.96992 230.81405,46.70578 -73.82467,12.37228 -160.61465,24.0936 -202.14396,50.50663 -17.99919,11.44766 -43.89733,90.75068 -52.783142,99.24243 -14.28252,13.64912 -67.122549,25.49865 -97.82480247,26.48105 L 1.0620263,800 C 31.789218,796.93424 59.899675,775.17017 101.46305,709.7197 c 53.9737,41.56015 158.47342,86.01113 186.01706,74.1127 7.98842,-3.45088 36.36675,-42.24536 49.38458,-73.01502 8.80197,-20.80484 -11.01459,-75.37016 -49.31073,-117.17957 140.95531,-34.71628 245.67278,-16.46638 376.75767,1.49135 7.20537,0.98708 11.93759,2.25061 17.38542,-2.93991 13.14977,-12.52869 33.57985,-50.09931 42.54536,-66.01969 5.37487,-9.54436 -1.67992,-16.47502 -16.18466,-19.83997 -20.43528,-4.74077 -34.63688,-4.91847 -51.13998,-5.91798 -128.95348,-7.85545 -248.81469,-49.79467 -351.46418,-92.24019 102.0558,-31.20411 191.14855,-123.36703 218.68088,-125.15814 33.87749,-2.2039 45.09131,84.97936 41.83807,111.24905 -2.92823,23.64521 18.22928,20.07375 28.41477,4.98392 22.75494,-33.71149 32.24262,-126.51686 12.00904,-189.89045 -5.68826,-17.81618 -21.11467,-25.61582 -38.55117,-25.19382 z M 294.66383,699.28885 c 1.13722,5.0412 -2.22926,8.61223 -7.46828,6.99858 -49.04821,-15.1071 -111.80508,-47.76007 -127.11033,-61.02131 -4.58107,-3.96927 -3.44239,-9.03386 1.1875,-12.96875 10.4042,-8.84239 25.62582,-14.74477 39.90516,-10.87643 40.28067,10.91222 88.10307,54.00615 93.48595,77.86791 z"
     id="path2394"
     sodipodi:nodetypes="csssscsscccsscssssscssssccsssss" />
</svg>
