<?xml version="1.0" encoding="UTF-8" standalone="no"?>
<!-- Created with Inkscape (http://www.inkscape.org/) -->
<svg
   xmlns:dc="http://purl.org/dc/elements/1.1/"
   xmlns:cc="http://creativecommons.org/ns#"
   xmlns:rdf="http://www.w3.org/1999/02/22-rdf-syntax-ns#"
   xmlns:svg="http://www.w3.org/2000/svg"
   xmlns="http://www.w3.org/2000/svg"
   xmlns:sodipodi="http://sodipodi.sourceforge.net/DTD/sodipodi-0.dtd"
   xmlns:inkscape="http://www.inkscape.org/namespaces/inkscape"
   version="1.0"
   width="1000"
   height="1000"
   id="svg5496"
   sodipodi:version="0.32"
   inkscape:version="0.46"
   sodipodi:docname="baa+baa.init.svg"
   inkscape:output_extension="org.inkscape.output.svg.inkscape">
  <metadata
     id="metadata5594">
    <rdf:RDF>
      <cc:Work
         rdf:about="">
        <dc:format>image/svg+xml</dc:format>
        <dc:type
           rdf:resource="http://purl.org/dc/dcmitype/StillImage" />
      </cc:Work>
    </rdf:RDF>
  </metadata>
  <sodipodi:namedview
     inkscape:pageshadow="2"
     inkscape:pageopacity="0.0"
     guidetolerance="10.0"
     gridtolerance="10.0"
     objecttolerance="10.0"
     borderopacity="1.0"
     bordercolor="#666666"
     pagecolor="#ffffff"
     id="base"
     showgrid="false"
     showguides="true"
     inkscape:guide-bbox="true"
     inkscape:zoom="0.908"
     inkscape:cx="434.72203"
     inkscape:cy="460.50896"
     inkscape:window-x="0"
     inkscape:window-y="25"
     inkscape:current-layer="svg5496">
    <sodipodi:guide
       orientation="horizontal"
       position="200"
       id="guide5596" />
  </sodipodi:namedview>
  <defs
     id="defs5498">
    <inkscape:perspective
       sodipodi:type="inkscape:persp3d"
       inkscape:vp_x="0 : 500 : 1"
       inkscape:vp_y="0 : 1000 : 0"
       inkscape:vp_z="1000 : 500 : 1"
       inkscape:persp3d-origin="500 : 333.33333 : 1"
       id="perspective8" />
    <inkscape:perspective
       id="perspective2388"
       inkscape:persp3d-origin="372.04724 : 350.78739 : 1"
       inkscape:vp_z="744.09448 : 526.18109 : 1"
       inkscape:vp_y="0 : 1000 : 0"
       inkscape:vp_x="0 : 526.18109 : 1"
       sodipodi:type="inkscape:persp3d" />
  </defs>
  <g
     id="layer1"
     transform="translate(-305.06608,166.74009)" />
  <path
     style="fill:#000000;fill-rule:evenodd;stroke:#000000;stroke-width:1px;stroke-linecap:butt;stroke-linejoin:miter;stroke-opacity:1"
     d="M 389.86784,541.74009 C 412.03993,584.32802 418.98438,621.84787 417.34621,652.95722 C 415.0558,696.4529 395.98775,727.41708 378.30396,742.18062 C 346.403,768.81356 307.53421,772.30468 272.31547,764.14749 C 226.1646,753.45827 184.46817,721.27072 163.82159,692.07049 C 120.45007,729.76967 63.425181,772.47543 1.1013205,800 L 1.3766505,706.11233 C 73.992831,686.49719 137.00074,653.56646 184.7467,597.35683 C 188.95422,592.40347 194.03953,593.65361 197.00868,598.42475 C 206.35921,613.45015 228.8426,646.32974 267.61917,664.54128 C 294.07282,676.96533 328.10974,682.56395 370.73238,671.00771 C 372.57725,670.50751 374.25863,668.64377 373.92229,666.38006 C 372.36701,655.84355 363.98753,644.71334 358.14782,638.08211 C 355.18585,634.71867 355.59117,631.03602 356.27753,628.19383 L 376.78964,543.25441 C 379.12567,533.58106 386.72229,535.69815 389.86784,541.74009 z"
     id="path2394"
     sodipodi:nodetypes="cssscccsssssssss" />
</svg>
