<?xml version="1.0" encoding="UTF-8" standalone="no"?>
<!-- Created with Inkscape (http://www.inkscape.org/) -->

<svg
   xmlns:dc="http://purl.org/dc/elements/1.1/"
   xmlns:cc="http://creativecommons.org/ns#"
   xmlns:rdf="http://www.w3.org/1999/02/22-rdf-syntax-ns#"
   xmlns:svg="http://www.w3.org/2000/svg"
   xmlns="http://www.w3.org/2000/svg"
   xmlns:sodipodi="http://sodipodi.sourceforge.net/DTD/sodipodi-0.dtd"
   xmlns:inkscape="http://www.inkscape.org/namespaces/inkscape"
   version="1.0"
   width="1000"
   height="1000"
   id="svg5496"
   sodipodi:version="0.32"
   inkscape:version="0.47pre4 r22446"
   sodipodi:docname="baa+meem.fina.svg"
   inkscape:output_extension="org.inkscape.output.svg.inkscape">
  <metadata
     id="metadata5594">
    <rdf:RDF>
      <cc:Work
         rdf:about="">
        <dc:format>image/svg+xml</dc:format>
        <dc:type
           rdf:resource="http://purl.org/dc/dcmitype/StillImage" />
        <dc:title />
      </cc:Work>
    </rdf:RDF>
  </metadata>
  <sodipodi:namedview
     inkscape:pageshadow="2"
     inkscape:pageopacity="0.0"
     borderopacity="1.0"
     bordercolor="#666666"
     pagecolor="#ffffff"
     id="base"
     showgrid="false"
     showguides="true"
     inkscape:guide-bbox="true"
     inkscape:zoom="0.227"
     inkscape:cx="500"
     inkscape:cy="294.85224"
     inkscape:window-x="391"
     inkscape:window-y="52"
     inkscape:current-layer="svg5496"
     inkscape:window-maximized="0"
     inkscape:window-width="879"
     inkscape:window-height="569">
    <sodipodi:guide
       orientation="horizontal"
       position="200"
       id="guide5596" />
  </sodipodi:namedview>
  <defs
     id="defs5498">
    <inkscape:perspective
       sodipodi:type="inkscape:persp3d"
       inkscape:vp_x="0 : 500 : 1"
       inkscape:vp_y="0 : 1000 : 0"
       inkscape:vp_z="1000 : 500 : 1"
       inkscape:persp3d-origin="500 : 333.33333 : 1"
       id="perspective2866" />
    <inkscape:perspective
       id="perspective2855"
       inkscape:persp3d-origin="0.5 : 0.33333333 : 1"
       inkscape:vp_z="1 : 0.5 : 1"
       inkscape:vp_y="0 : 1000 : 0"
       inkscape:vp_x="0 : 0.5 : 1"
       sodipodi:type="inkscape:persp3d" />
    <inkscape:perspective
       id="perspective4476"
       inkscape:persp3d-origin="0.5 : 0.33333333 : 1"
       inkscape:vp_z="1 : 0.5 : 1"
       inkscape:vp_y="0 : 1000 : 0"
       inkscape:vp_x="0 : 0.5 : 1"
       sodipodi:type="inkscape:persp3d" />
  </defs>
  <g
     id="layer1" />
  <path
     style="color:#000000;fill:#ff0000;fill-opacity:0.60784314;stroke:#000000;stroke-width:1;stroke-linecap:butt;stroke-linejoin:miter;stroke-miterlimit:4;stroke-opacity:1;stroke-dasharray:none;stroke-dashoffset:0;marker:none;visibility:visible;display:inline;overflow:visible;enable-background:accumulate"
     d="m 480.03115,709.15071 c -32.868,-31.902 -61.32,-97.8793 -107.364,-98.8982 -80.522,-1.7818 -226.621,102.26329 -233.125,110.85489 -24.775,32.7228 -38.747,65.8553 -49.923002,96.6497 -1.213,3.3428 0.103,7.0656 4.833,9.213 9.006002,4.0889 21.577002,9.4309 29.331002,13.9408 -23.491,4.9381 -106.751002,49.2969 -120.5620017,141.4735 -12.479,83.2833 59.6299997,257.5402 73.0169997,471.2831 2.456,39.7434 35.697002,37.5043 34.912002,-7.4668 -2.589,-148.3085 -53.574002,-317.6288 -76.102002,-461.205 -0.912,-5.7848 0.04,-9.5112 3.812,-13.0286 62.226002,-58.0916 182.162002,-71.9627 265.141002,-33.2809 3.108,1.4491 8.609,-2.4994 10.018,-6.0726 l 30.224,-76.668 c 2.631,-6.6747 1.625,-15.1611 -2.477,-18.621 -62.111,-52.3817 -103.499,-68.9171 -154.351,-93.8112 39.662,-32.1607 132.235,-74.74869 186.806,-41.72629 40.136,24.28759 49.651,83.96579 105.878,98.21289 0.366,-39.5943 -0.965,-39.6654 -0.07,-90.84929 l 0,0 0,0 0,0 0,0 z"
     id="path2842-0"
     sodipodi:nodetypes="csssscssssssssscscccccc" />
</svg>
