<?xml version="1.0" encoding="UTF-8" standalone="no"?>
<!-- Created with Inkscape (http://www.inkscape.org/) -->

<svg
   xmlns:dc="http://purl.org/dc/elements/1.1/"
   xmlns:cc="http://creativecommons.org/ns#"
   xmlns:rdf="http://www.w3.org/1999/02/22-rdf-syntax-ns#"
   xmlns:svg="http://www.w3.org/2000/svg"
   xmlns="http://www.w3.org/2000/svg"
   xmlns:sodipodi="http://sodipodi.sourceforge.net/DTD/sodipodi-0.dtd"
   xmlns:inkscape="http://www.inkscape.org/namespaces/inkscape"
   version="1.0"
   width="1000"
   height="1000"
   id="svg5496"
   sodipodi:version="0.32"
   inkscape:version="0.47pre0 r21549"
   sodipodi:docname="New document 4"
   inkscape:output_extension="org.inkscape.output.svg.inkscape">
  <metadata
     id="metadata5594">
    <rdf:RDF>
      <cc:Work
         rdf:about="">
        <dc:format>image/svg+xml</dc:format>
        <dc:type
           rdf:resource="http://purl.org/dc/dcmitype/StillImage" />
        <dc:title></dc:title>
      </cc:Work>
    </rdf:RDF>
  </metadata>
  <sodipodi:namedview
     inkscape:window-height="721"
     inkscape:pageshadow="2"
     inkscape:pageopacity="0.0"
     borderopacity="1.0"
     bordercolor="#666666"
     pagecolor="#ffffff"
     id="base"
     showgrid="false"
     showguides="true"
     inkscape:guide-bbox="true"
     inkscape:zoom="0.64205296"
     inkscape:cx="500"
     inkscape:cy="323.78855"
     inkscape:window-x="0"
     inkscape:window-y="28"
     inkscape:current-layer="svg5496"
     inkscape:window-width="1280"
     inkscape:window-maximized="1">
    <sodipodi:guide
       orientation="horizontal"
       position="200"
       id="guide5596" />
  </sodipodi:namedview>
  <defs
     id="defs5498">
    <inkscape:perspective
       sodipodi:type="inkscape:persp3d"
       inkscape:vp_x="0 : 500 : 1"
       inkscape:vp_y="0 : 1000 : 0"
       inkscape:vp_z="1000 : 500 : 1"
       inkscape:persp3d-origin="500 : 333.33333 : 1"
       id="perspective2849" />
    <inkscape:perspective
       id="perspective2838"
       inkscape:persp3d-origin="0.5 : 0.33333333 : 1"
       inkscape:vp_z="1 : 0.5 : 1"
       inkscape:vp_y="0 : 1000 : 0"
       inkscape:vp_x="0 : 0.5 : 1"
       sodipodi:type="inkscape:persp3d" />
  </defs>
  <g
     id="layer1" />
  <path
     style="color:#000000;fill:#000000;stroke:#000000;stroke-width:1px;stroke-linecap:butt;stroke-linejoin:miter;stroke-miterlimit:4;stroke-opacity:1;stroke-dasharray:none;stroke-dashoffset:0;marker:none;visibility:visible;display:inline;overflow:visible;enable-background:accumulate;fill-opacity:1"
     d="m 633.45484,708.88603 c -75.09583,-26.28209 -60.46903,-88.52755 -78.65395,-213.18334 -1.88537,-13.00477 -19.44928,-16.61406 -23.94662,-1.55751 -22.18738,74.28055 -45.95602,105.97601 -123.2375,103.18463 -20.32332,-0.73407 -24.96208,-30.51368 -39.00462,-40.66805 -4.08259,-2.95218 -9.35948,-3.62941 -10.7652,1.27378 -10.10992,35.26364 -19.97544,69.27761 -28.96242,104.27613 -0.69525,2.70754 -0.66214,3.83696 0.90887,5.9128 16.34377,21.59578 45.35394,61.65425 45.89454,103.06171 0.0226,1.73055 -0.92215,3.6626 -1.61013,4.83636 -31.54916,53.82543 -110.10565,139.67202 -188.77516,161.0378 -57.21276,15.53836 -111.15816,5.92145 -168.33594,3.61844 -19.07223,-0.76819 -18.15063,12.02619 -9.44761,15.48056 62.63717,24.8617 148.52084,58.59556 199.95841,47.87366 60.46776,-12.60412 166.54788,-130.98606 185.3702,-215.10369 9.35949,-41.8279 10.36154,-72.03688 12.77198,-98.31103 0.31037,-3.38307 0.0398,-3.98323 3.33545,-4.58697 37.59257,-6.92237 75.79721,-4.93676 112.98394,-87.5151 1.72267,-3.82544 3.98806,-3.57301 4.35085,0.39773 C 538.69098,734.64548 549.40125,794.66981 628.78232,800 l 4.67252,-91.11397 z"
     id="path2828"
     sodipodi:nodetypes="csssssssssssssssssscc" />
</svg>
