<?xml version="1.0" encoding="UTF-8" standalone="no"?>
<!-- Created with Inkscape (http://www.inkscape.org/) -->

<svg
   xmlns:dc="http://purl.org/dc/elements/1.1/"
   xmlns:cc="http://creativecommons.org/ns#"
   xmlns:rdf="http://www.w3.org/1999/02/22-rdf-syntax-ns#"
   xmlns:svg="http://www.w3.org/2000/svg"
   xmlns="http://www.w3.org/2000/svg"
   xmlns:sodipodi="http://sodipodi.sourceforge.net/DTD/sodipodi-0.dtd"
   xmlns:inkscape="http://www.inkscape.org/namespaces/inkscape"
   version="1.0"
   width="1000"
   height="1000"
   id="svg5496"
   sodipodi:version="0.32"
   inkscape:version="0.47pre4 r22446"
   sodipodi:docname="baa+raa.fina.svg"
   inkscape:output_extension="org.inkscape.output.svg.inkscape">
  <metadata
     id="metadata5594">
    <rdf:RDF>
      <cc:Work
         rdf:about="">
        <dc:format>image/svg+xml</dc:format>
        <dc:type
           rdf:resource="http://purl.org/dc/dcmitype/StillImage" />
        <dc:title />
      </cc:Work>
    </rdf:RDF>
  </metadata>
  <sodipodi:namedview
     inkscape:window-height="767"
     inkscape:pageshadow="2"
     inkscape:pageopacity="0.0"
     borderopacity="1.0"
     bordercolor="#666666"
     pagecolor="#ffffff"
     id="base"
     showgrid="false"
     showguides="true"
     inkscape:guide-bbox="true"
     inkscape:zoom="0.53159731"
     inkscape:cx="463.43051"
     inkscape:cy="336.12339"
     inkscape:window-x="0"
     inkscape:window-y="0"
     inkscape:current-layer="svg5496"
     inkscape:window-width="1278"
     inkscape:window-maximized="1">
    <sodipodi:guide
       orientation="horizontal"
       position="200"
       id="guide5596" />
  </sodipodi:namedview>
  <defs
     id="defs5498">
    <inkscape:perspective
       sodipodi:type="inkscape:persp3d"
       inkscape:vp_x="0 : 500 : 1"
       inkscape:vp_y="0 : 1000 : 0"
       inkscape:vp_z="1000 : 500 : 1"
       inkscape:persp3d-origin="500 : 333.33333 : 1"
       id="perspective2849" />
    <inkscape:perspective
       id="perspective2838"
       inkscape:persp3d-origin="0.5 : 0.33333333 : 1"
       inkscape:vp_z="1 : 0.5 : 1"
       inkscape:vp_y="0 : 1000 : 0"
       inkscape:vp_x="0 : 0.5 : 1"
       sodipodi:type="inkscape:persp3d" />
    <inkscape:perspective
       id="perspective4181"
       inkscape:persp3d-origin="0.5 : 0.33333333 : 1"
       inkscape:vp_z="1 : 0.5 : 1"
       inkscape:vp_y="0 : 1000 : 0"
       inkscape:vp_x="0 : 0.5 : 1"
       sodipodi:type="inkscape:persp3d" />
    <inkscape:perspective
       id="perspective4203"
       inkscape:persp3d-origin="0.5 : 0.33333333 : 1"
       inkscape:vp_z="1 : 0.5 : 1"
       inkscape:vp_y="0 : 1000 : 0"
       inkscape:vp_x="0 : 0.5 : 1"
       sodipodi:type="inkscape:persp3d" />
  </defs>
  <g
     id="layer1" />
  <path
     style="color:#000000;fill:#ff0000;fill-opacity:0.60784314;stroke:#000000;stroke-width:1;stroke-linecap:butt;stroke-linejoin:miter;stroke-miterlimit:4;stroke-opacity:1;stroke-dasharray:none;stroke-dashoffset:0;marker:none;visibility:visible;display:inline;overflow:visible;enable-background:accumulate"
     d="m 618.20398,709.3368 c -73.16403,-25.83554 -61.4486,-85.8794 -78.5025,-207.5462 -1.7677,-12.693 -18.8767,-16.3088 -23.3448,-1.6497 -22.0433,72.3192 -42.4353,103.09972 -117.787,99.9556 -4.70641,-0.19638 -8.38893,-2.18027 -11.83521,-4.73415 -35.26403,-26.13257 -52.99302,99.79039 12.65611,91.24555 31.27546,-4.07079 73.9465,-4.4008 110.6628,-84.7303 1.7008,-3.7212 3.9087,-3.4627 4.2408,0.4115 11.3529,132.4368 18.09159,188.57738 104.0369,197.7109 10.68446,1.13545 21.74296,-25.65091 25.99702,-52.26593 4.25407,-26.61503 -14.14099,-34.16581 -26.12412,-38.39727 z"
     id="path2819"
     sodipodi:nodetypes="csssssssszs" />
  <path
     sodipodi:nodetypes="cssssssssssssss"
     id="path2817"
     d="m 377.78884,584.31113 c -5.13198,-8.98476 -10.02546,-18.95907 -17.03556,-24.08813 -3.96531,-2.90129 -9.10773,-3.59068 -10.5054,1.1834 -10.05203,34.33502 -19.8588,67.4523 -28.8143,101.5348 -0.6927,2.6366 -0.6666,3.7383 0.8541,5.7713 15.8211,21.1499 43.8939,60.3744 44.1951,100.759 0.013,1.6878 -0.9194,3.5669 -1.5967,4.7077 -31.0614,52.3199 -108.14049,135.6108 -184.97759,156.0178 -55.8803,14.8412 -109.604933,8.28301 -167.300513,1.44187 -18.4855764,-2.19189 -14.6516224,12.79716 -6.1830921,16.21343 60.9497701,24.58763 144.5216051,57.9548 194.7433051,47.7794 59.0387,-11.9618 163.13699,-126.832 181.95229,-208.7629 9.356,-40.7407 10.51381,-70.19429 12.9922,-95.8058 2.59188,-26.7844 5.88868,-51.55616 4.92065,-71.77328 -0.65584,-13.69725 -15.89758,-22.11608 -23.24449,-34.97859 z"
     style="color:#000000;fill:#ff0000;fill-opacity:0.60784314;stroke:#000000;stroke-width:1;stroke-linecap:butt;stroke-linejoin:miter;stroke-miterlimit:4;stroke-opacity:1;stroke-dasharray:none;stroke-dashoffset:0;marker:none;visibility:visible;display:inline;overflow:visible;enable-background:accumulate" />
</svg>
