<?xml version="1.0" encoding="UTF-8" standalone="no"?>
<!-- Created with Inkscape (http://www.inkscape.org/) -->

<svg
   xmlns:dc="http://purl.org/dc/elements/1.1/"
   xmlns:cc="http://creativecommons.org/ns#"
   xmlns:rdf="http://www.w3.org/1999/02/22-rdf-syntax-ns#"
   xmlns:svg="http://www.w3.org/2000/svg"
   xmlns="http://www.w3.org/2000/svg"
   xmlns:sodipodi="http://sodipodi.sourceforge.net/DTD/sodipodi-0.dtd"
   xmlns:inkscape="http://www.inkscape.org/namespaces/inkscape"
   version="1.0"
   width="1000"
   height="1000"
   id="svg5496"
   sodipodi:version="0.32"
   inkscape:version="0.47pre4 r22446"
   sodipodi:docname="baa.medi.alt.svg"
   inkscape:output_extension="org.inkscape.output.svg.inkscape">
  <metadata
     id="metadata5594">
    <rdf:RDF>
      <cc:Work
         rdf:about="">
        <dc:format>image/svg+xml</dc:format>
        <dc:type
           rdf:resource="http://purl.org/dc/dcmitype/StillImage" />
        <dc:title />
      </cc:Work>
    </rdf:RDF>
  </metadata>
  <sodipodi:namedview
     inkscape:window-height="725"
     inkscape:pageshadow="2"
     inkscape:pageopacity="0.0"
     borderopacity="1.0"
     bordercolor="#666666"
     pagecolor="#ffffff"
     id="base"
     showgrid="false"
     showguides="true"
     inkscape:guide-bbox="true"
     inkscape:zoom="5.1364236"
     inkscape:cx="127.65866"
     inkscape:cy="234.7495"
     inkscape:window-x="0"
     inkscape:window-y="24"
     inkscape:current-layer="svg5496"
     inkscape:window-width="1280"
     inkscape:window-maximized="1">
    <sodipodi:guide
       orientation="horizontal"
       position="200"
       id="guide5596" />
  </sodipodi:namedview>
  <defs
     id="defs5498">
    <inkscape:perspective
       sodipodi:type="inkscape:persp3d"
       inkscape:vp_x="0 : 500 : 1"
       inkscape:vp_y="0 : 1000 : 0"
       inkscape:vp_z="1000 : 500 : 1"
       inkscape:persp3d-origin="500 : 333.33333 : 1"
       id="perspective8" />
    <inkscape:perspective
       id="perspective2822"
       inkscape:persp3d-origin="0.5 : 0.33333333 : 1"
       inkscape:vp_z="1 : 0.5 : 1"
       inkscape:vp_y="0 : 1000 : 0"
       inkscape:vp_x="0 : 0.5 : 1"
       sodipodi:type="inkscape:persp3d" />
    <inkscape:perspective
       id="perspective3720"
       inkscape:persp3d-origin="0.5 : 0.33333333 : 1"
       inkscape:vp_z="1 : 0.5 : 1"
       inkscape:vp_y="0 : 1000 : 0"
       inkscape:vp_x="0 : 0.5 : 1"
       sodipodi:type="inkscape:persp3d" />
    <inkscape:perspective
       sodipodi:type="inkscape:persp3d"
       inkscape:vp_x="0 : 0.5 : 1"
       inkscape:vp_y="0 : 1000 : 0"
       inkscape:vp_z="1 : 0.5 : 1"
       inkscape:persp3d-origin="0.5 : 0.33333333 : 1"
       id="perspective5481" />
    <inkscape:perspective
       id="perspective2437"
       inkscape:persp3d-origin="500 : 333.33333 : 1"
       inkscape:vp_z="1000 : 500 : 1"
       inkscape:vp_y="0 : 1000 : 0"
       inkscape:vp_x="0 : 500 : 1"
       sodipodi:type="inkscape:persp3d" />
  </defs>
  <g
     id="layer1" />
  <path
     style="color:#000000;fill:#ff0000;fill-opacity:0.60784314;stroke:#000000;stroke-width:1;stroke-linecap:butt;stroke-linejoin:miter;stroke-miterlimit:4;stroke-opacity:1;stroke-dasharray:none;stroke-dashoffset:0;marker:none;visibility:visible;display:inline;overflow:visible;enable-background:accumulate"
     d="m 76.1816,434.0422 c -8.9041,13.3279 -18.2575,31.8232 -24.3146,44.449 -2.136,4.4523 -1.8947,9.2282 -1.1491,13.8419 8.4118,52.0462 20.6069,114.3097 28.742,148.7291 0.724,3.0632 0.5727,4.6316 -0.811,7.2729 -17.7097,33.8051 -51.7083,57.9604 -79.3888,59.2529 L 0,800 c 45.9038,-7.1852 68.6638,-87.6868 84.3662,-128.0847 1.1094,-3.5394 2.2651,-2.6377 3.1387,0.8017 24.2465,94.762 71.3987,119.7048 102.111,127.1094 l -0.1613,-89.9095 C 173.9816,708.3934 152.8307,686.1072 143.6812,666.0717 123.8322,622.6061 106.08,514.4201 88.7191,442.9723 86.8347,435.2169 80.9326,426.9307 76.1816,434.0422 z"
     id="path2828-2"
     sodipodi:nodetypes="cssssccccccsss" />
  <g
     id="layer1-0"
     transform="matrix(1.3,0,0,1.3,679.32162,-159.74322)" />
  <path
     sodipodi:nodetypes="csssssssccszssss"
     id="path2836"
     d="m 76.456931,434.11489 c -8.9041,13.3279 -18.2575,31.8232 -24.3146,44.449 -2.136,4.4523 -1.8947,9.2282 -1.1491,13.8419 8.4118,52.0462 20.6069,114.3097 28.742,148.7291 0.724,3.0632 0.5727,4.6316 -0.811,7.2729 -17.7097,33.8051 -51.482776,56.01861 -78.99942463,61.58916 -16.81772437,3.40462 -24.76846637,14.29747 -22.44192237,29.67094 2.326543,15.37346 11.601279,62.13661 22.79244639,60.4048 45.91593261,-7.10538 68.66380061,-87.6868 84.36620061,-128.0847 1.1094,-3.5394 2.2651,-2.6377 3.1387,0.8017 24.246499,94.762 71.466509,119.45093 102.110999,127.1094 6.28901,1.57171 14.01067,-17.11366 19.69066,-48.44627 5.67999,-31.33261 -3.31164,-37.25616 -19.85196,-41.46323 -18.72442,-4.7626 -36.6239,-23.8097 -45.7734,-43.8452 -19.849,-43.4656 -37.6012,-151.6516 -54.962099,-223.0994 -1.8844,-7.7554 -7.7865,-16.0416 -12.5375,-8.9301 z"
     style="color:#000000;fill:#ff0000;fill-opacity:0.60784314;stroke:#000000;stroke-width:1;stroke-linecap:butt;stroke-linejoin:miter;stroke-miterlimit:4;stroke-opacity:1;stroke-dasharray:none;stroke-dashoffset:0;marker:none;visibility:visible;display:inline;overflow:visible;enable-background:accumulate" />
</svg>
