<?xml version="1.0" encoding="UTF-8" standalone="no"?>
<!-- Created with Inkscape (http://www.inkscape.org/) -->

<svg
   xmlns:dc="http://purl.org/dc/elements/1.1/"
   xmlns:cc="http://creativecommons.org/ns#"
   xmlns:rdf="http://www.w3.org/1999/02/22-rdf-syntax-ns#"
   xmlns:svg="http://www.w3.org/2000/svg"
   xmlns="http://www.w3.org/2000/svg"
   xmlns:sodipodi="http://sodipodi.sourceforge.net/DTD/sodipodi-0.dtd"
   xmlns:inkscape="http://www.inkscape.org/namespaces/inkscape"
   version="1.0"
   width="1000"
   height="1000"
   id="svg5496"
   sodipodi:version="0.32"
   inkscape:version="0.47pre4 r22446"
   sodipodi:docname="faa+haa.init.svg"
   inkscape:output_extension="org.inkscape.output.svg.inkscape">
  <metadata
     id="metadata5594">
    <rdf:RDF>
      <cc:Work
         rdf:about="">
        <dc:format>image/svg+xml</dc:format>
        <dc:type
           rdf:resource="http://purl.org/dc/dcmitype/StillImage" />
      </cc:Work>
    </rdf:RDF>
  </metadata>
  <sodipodi:namedview
     inkscape:pageshadow="2"
     inkscape:pageopacity="0.0"
     guidetolerance="10.0"
     gridtolerance="10.0"
     objecttolerance="10.0"
     borderopacity="1.0"
     bordercolor="#666666"
     pagecolor="#ffffff"
     id="base"
     showgrid="false"
     showguides="true"
     inkscape:guide-bbox="true"
     inkscape:zoom="0.40417484"
     inkscape:cx="129.38663"
     inkscape:cy="473.59186"
     inkscape:window-x="0"
     inkscape:window-y="0"
     inkscape:current-layer="svg5496"
     inkscape:window-width="1278"
     inkscape:window-height="767"
     inkscape:window-maximized="1">
    <sodipodi:guide
       orientation="horizontal"
       position="200"
       id="guide5596" />
  </sodipodi:namedview>
  <defs
     id="defs5498">
    <inkscape:perspective
       sodipodi:type="inkscape:persp3d"
       inkscape:vp_x="0 : 500 : 1"
       inkscape:vp_y="0 : 1000 : 0"
       inkscape:vp_z="1000 : 500 : 1"
       inkscape:persp3d-origin="500 : 333.33333 : 1"
       id="perspective4311" />
    <inkscape:perspective
       id="perspective4320"
       inkscape:persp3d-origin="372.04724 : 350.78739 : 1"
       inkscape:vp_z="744.09448 : 526.18109 : 1"
       inkscape:vp_y="0 : 1000 : 0"
       inkscape:vp_x="0 : 526.18109 : 1"
       sodipodi:type="inkscape:persp3d" />
    <inkscape:perspective
       id="perspective5203"
       inkscape:persp3d-origin="0.5 : 0.33333333 : 1"
       inkscape:vp_z="1 : 0.5 : 1"
       inkscape:vp_y="0 : 1000 : 0"
       inkscape:vp_x="0 : 0.5 : 1"
       sodipodi:type="inkscape:persp3d" />
  </defs>
  <path
     sodipodi:nodetypes="cccssccccsss"
     id="path2816"
     d="m 44.5052,518.339 c -28.794436,7.95736 -44.723,53.758 -43.7497,75.609 76.6867,16.805 156.3416,28.813 230.9421,57.505 C 167.4123,677.99 43.325229,702.30365 -0.086,709.342 -51.125529,717.61715 -23.928357,805.90214 0,800 c 61.255642,-15.10925 176.5567,-60.999 240.5275,-83.75 82.4461,-29.323 169.0754,-44.215 283.3174,-38.615 11.2139,0.01 18.4043,-3.8 19.1698,-8.706 l 24.2964,-58.673 c -0.9548,-13.222 -8.55153,-15.24389 -16.8334,-15.12 C 406.13877,597.29511 288.18288,583.26665 188.5276,546.895 133.2464,526.71876 79.359206,508.70708 44.5052,518.339 z"
     style="fill:#ff0000;fill-opacity:0.60784314;fill-rule:evenodd;stroke:#000000;stroke-width:1;stroke-linecap:butt;stroke-linejoin:miter;stroke-miterlimit:4;stroke-opacity:1;stroke-dasharray:none" />
  <g
     id="layer1"
     transform="matrix(1.3,0,0,1.3,-366.76721,-80.8757)" />
  <path
     style="fill:#ff0000;fill-opacity:0.60784314;fill-rule:evenodd;stroke:#000000;stroke-width:1;stroke-linecap:butt;stroke-linejoin:miter;stroke-miterlimit:4;stroke-opacity:1;stroke-dasharray:none"
     d="m 140.2934,186.71101 c -23.434,0.217 -65.7259,49.15 -80.8962,106.80799 -18.1302,68.908 -22.1764,143.309 37.6102,151.366 37.8357,5.1 77.4608,-33.21 95.9575,-64.225 3.413,-5.725 12.8877,-3.308 18.8587,3.41 10.1672,14.612 16.9506,26.907 19.3763,41.702 -20.2327,64.32 -105.3775,70.352 -186.6947,92.567 -28.818,7.872 -44.723,53.758 -43.7497,75.609 51.41952,5.17619 150.64306,-21.54088 187.7721,-47.053 C 223.48379,522.8759 258.471,469.597 258.0563,405.76 257.3781,301.34 201.8447,186.13201 140.2938,186.71101 l -4e-4,0 z M 106.8568,291.259 c 1.633,-0.07 3.2727,0.03 4.9386,0.212 11.4266,1.286 26.0283,10.629 38.3297,23.851 -6.3245,17.564 -20.6192,24.41 -33.6653,24.15 -21.1643,-0.412 -29.9428,-26.093 -30.0351,-35.979 6.5712,-8.933 13.3546,-11.956 20.4321,-12.234 z"
     id="path2818"
     sodipodi:nodetypes="csccccccsscccccccc" />
</svg>
