<?xml version="1.0" encoding="UTF-8" standalone="no"?>
<!-- Created with Inkscape (http://www.inkscape.org/) -->

<svg
   xmlns:dc="http://purl.org/dc/elements/1.1/"
   xmlns:cc="http://creativecommons.org/ns#"
   xmlns:rdf="http://www.w3.org/1999/02/22-rdf-syntax-ns#"
   xmlns:svg="http://www.w3.org/2000/svg"
   xmlns="http://www.w3.org/2000/svg"
   xmlns:sodipodi="http://sodipodi.sourceforge.net/DTD/sodipodi-0.dtd"
   xmlns:inkscape="http://www.inkscape.org/namespaces/inkscape"
   version="1.0"
   width="1000"
   height="1000"
   id="svg5496"
   sodipodi:version="0.32"
   inkscape:version="0.47pre4 r22446"
   sodipodi:docname="faa+meem.init.svg"
   inkscape:output_extension="org.inkscape.output.svg.inkscape">
  <metadata
     id="metadata5594">
    <rdf:RDF>
      <cc:Work
         rdf:about="">
        <dc:format>image/svg+xml</dc:format>
        <dc:type
           rdf:resource="http://purl.org/dc/dcmitype/StillImage" />
      </cc:Work>
    </rdf:RDF>
  </metadata>
  <sodipodi:namedview
     inkscape:pageshadow="2"
     inkscape:pageopacity="0.0"
     guidetolerance="10.0"
     gridtolerance="10.0"
     objecttolerance="10.0"
     borderopacity="1.0"
     bordercolor="#666666"
     pagecolor="#ffffff"
     id="base"
     showgrid="false"
     showguides="true"
     inkscape:guide-bbox="true"
     inkscape:zoom="0.6675088"
     inkscape:cx="258.47458"
     inkscape:cy="411.01695"
     inkscape:window-x="0"
     inkscape:window-y="0"
     inkscape:current-layer="svg5496"
     inkscape:window-width="1278"
     inkscape:window-height="767"
     inkscape:window-maximized="1">
    <sodipodi:guide
       orientation="horizontal"
       position="200"
       id="guide5596" />
  </sodipodi:namedview>
  <defs
     id="defs5498">
    <inkscape:perspective
       sodipodi:type="inkscape:persp3d"
       inkscape:vp_x="0 : 500 : 1"
       inkscape:vp_y="0 : 1000 : 0"
       inkscape:vp_z="1000 : 500 : 1"
       inkscape:persp3d-origin="500 : 333.33333 : 1"
       id="perspective8" />
    <inkscape:perspective
       id="perspective2388"
       inkscape:persp3d-origin="372.04724 : 350.78739 : 1"
       inkscape:vp_z="744.09448 : 526.18109 : 1"
       inkscape:vp_y="0 : 1000 : 0"
       inkscape:vp_x="0 : 526.18109 : 1"
       sodipodi:type="inkscape:persp3d" />
    <inkscape:perspective
       id="perspective6489"
       inkscape:persp3d-origin="0.5 : 0.33333333 : 1"
       inkscape:vp_z="1 : 0.5 : 1"
       inkscape:vp_y="0 : 1000 : 0"
       inkscape:vp_x="0 : 0.5 : 1"
       sodipodi:type="inkscape:persp3d" />
    <inkscape:perspective
       id="perspective2824"
       inkscape:persp3d-origin="0.5 : 0.33333333 : 1"
       inkscape:vp_z="1 : 0.5 : 1"
       inkscape:vp_y="0 : 1000 : 0"
       inkscape:vp_x="0 : 0.5 : 1"
       sodipodi:type="inkscape:persp3d" />
  </defs>
  <path
     style="fill:#ff0000;fill-opacity:0.60784314;fill-rule:evenodd;stroke:#000000;stroke-width:0;stroke-linecap:butt;stroke-linejoin:miter;stroke-opacity:1"
     d="M 183.79876,542.03974 C 127.46671,557.9497 114.03293,638.82614 98.089356,667.29051 86.613227,687.77907 19.27175,709.11727 -0.34,709.8884 -38.94072,711.40617 -26.827572,801.5613 0,800 c 21.304714,-1.23989 93.618,-53.5272 118.588,-97.6334 47.93,26.4952 84.406,46.2038 132.058,55.3339 9.17,1.757 23.468,-3.0492 29.752,-9.4374 15.703,-15.9639 36.442,-53.835 41.997,-85.1773 5.98,-33.7372 -4.95728,-70.7623 -21.804,-92.7583 -26.92843,-35.15923 -66.28336,-42.55307 -116.79224,-28.28776 z M 233.349,608.1479 c 24.54,13.041 44.654,37.3871 46.847,52.731 0.794,5.5584 -3.229,7.9317 -9.33,7.1234 -26.343,-3.4902 -89.742,-25.6595 -108.328,-42.6071 -6.041,-4.7825 -7.394,-8.8836 -2.617,-13.2514 20.04,-17.7482 49.435,-16.7464 73.428,-3.9959 z"
     id="path2827"
     sodipodi:nodetypes="cssscsscsscssccs" />
  <g
     id="layer1"
     transform="translate(-271.00568,94.17625)" />
  <path
     sodipodi:nodetypes="csscscsscssccscsc"
     id="path2829"
     d="m 242.909,221.59485 c -40.244,1.9576 -77.215,63.53926 -93.564,110.26844 -16.507,47.18106 -21.027,136.55711 46.304,144.73501 25.816,3.1357 68.584,7.883 93.071,-55.7702 14.725,1.8763 32.02,36.3254 34.799,65.0379 0.298,3.0764 -1.06,6.4932 -3.534,8.7603 -39.64443,45.16784 -87.27164,30.73291 -136.18624,47.41344 -44.90143,15.31198 81.74139,57.26728 116.79224,28.28776 16.19856,-13.39272 40.09,-37.5188 48.545,-74.4325 12.615,-55.0782 0.22225,-151.1106 -31.582,-209.08115 -15.33219,-27.94645 -47.017,-66.56291 -74.645,-65.219 z m -28.742,106.76669 c 13.769,0.032 27.415,9.79551 37.85,26.16011 3.11,4.8761 2.206,8.5268 -2.507,11.4187 -20.895,12.8218 -45.557,13.5211 -64.041,-3.7157 -4.484,-4.1809 -5.646,-9.951 -2.175,-14.8321 9.384,-13.1966 20.164,-19.05601 30.873,-19.03101 z"
     style="fill:#ff0000;fill-opacity:0.60784314;fill-rule:evenodd;stroke:#000000;stroke-width:0;stroke-linecap:butt;stroke-linejoin:miter;stroke-opacity:1" />
</svg>
