<?xml version="1.0" encoding="UTF-8" standalone="no"?>
<!-- Created with Inkscape (http://www.inkscape.org/) -->

<svg
   xmlns:dc="http://purl.org/dc/elements/1.1/"
   xmlns:cc="http://creativecommons.org/ns#"
   xmlns:rdf="http://www.w3.org/1999/02/22-rdf-syntax-ns#"
   xmlns:svg="http://www.w3.org/2000/svg"
   xmlns="http://www.w3.org/2000/svg"
   xmlns:sodipodi="http://sodipodi.sourceforge.net/DTD/sodipodi-0.dtd"
   xmlns:inkscape="http://www.inkscape.org/namespaces/inkscape"
   version="1.0"
   width="1000"
   height="1000"
   id="svg5496"
   sodipodi:version="0.32"
   inkscape:version="0.47pre4 r22446"
   sodipodi:docname="faa+yaa.isol.svg"
   inkscape:output_extension="org.inkscape.output.svg.inkscape">
  <metadata
     id="metadata5594">
    <rdf:RDF>
      <cc:Work
         rdf:about="">
        <dc:format>image/svg+xml</dc:format>
        <dc:type
           rdf:resource="http://purl.org/dc/dcmitype/StillImage" />
      </cc:Work>
    </rdf:RDF>
  </metadata>
  <sodipodi:namedview
     inkscape:pageshadow="2"
     inkscape:pageopacity="0.0"
     guidetolerance="10.0"
     gridtolerance="10.0"
     objecttolerance="10.0"
     borderopacity="1.0"
     bordercolor="#666666"
     pagecolor="#ffffff"
     id="base"
     showgrid="false"
     showguides="true"
     inkscape:guide-bbox="true"
     inkscape:zoom="0.2674115"
     inkscape:cx="471.54999"
     inkscape:cy="346.27541"
     inkscape:window-x="0"
     inkscape:window-y="0"
     inkscape:current-layer="svg5496"
     inkscape:window-width="1278"
     inkscape:window-height="767"
     inkscape:window-maximized="1">
    <sodipodi:guide
       orientation="horizontal"
       position="200"
       id="guide5596" />
  </sodipodi:namedview>
  <defs
     id="defs5498">
    <inkscape:perspective
       sodipodi:type="inkscape:persp3d"
       inkscape:vp_x="0 : 500 : 1"
       inkscape:vp_y="0 : 1000 : 0"
       inkscape:vp_z="1000 : 500 : 1"
       inkscape:persp3d-origin="500 : 333.33333 : 1"
       id="perspective8" />
    <inkscape:perspective
       id="perspective2388"
       inkscape:persp3d-origin="372.04724 : 350.78739 : 1"
       inkscape:vp_z="744.09448 : 526.18109 : 1"
       inkscape:vp_y="0 : 1000 : 0"
       inkscape:vp_x="0 : 526.18109 : 1"
       sodipodi:type="inkscape:persp3d" />
    <inkscape:perspective
       id="perspective3718"
       inkscape:persp3d-origin="0.5 : 0.33333333 : 1"
       inkscape:vp_z="1 : 0.5 : 1"
       inkscape:vp_y="0 : 1000 : 0"
       inkscape:vp_x="0 : 0.5 : 1"
       sodipodi:type="inkscape:persp3d" />
    <inkscape:perspective
       id="perspective5161"
       inkscape:persp3d-origin="0.5 : 0.33333333 : 1"
       inkscape:vp_z="1 : 0.5 : 1"
       inkscape:vp_y="0 : 1000 : 0"
       inkscape:vp_x="0 : 0.5 : 1"
       sodipodi:type="inkscape:persp3d" />
    <inkscape:perspective
       id="perspective2834"
       inkscape:persp3d-origin="0.5 : 0.33333333 : 1"
       inkscape:vp_z="1 : 0.5 : 1"
       inkscape:vp_y="0 : 1000 : 0"
       inkscape:vp_x="0 : 0.5 : 1"
       sodipodi:type="inkscape:persp3d" />
    <inkscape:perspective
       id="perspective2839"
       inkscape:persp3d-origin="0.5 : 0.33333333 : 1"
       inkscape:vp_z="1 : 0.5 : 1"
       inkscape:vp_y="0 : 1000 : 0"
       inkscape:vp_x="0 : 0.5 : 1"
       sodipodi:type="inkscape:persp3d" />
    <inkscape:perspective
       id="perspective2846"
       inkscape:persp3d-origin="0.5 : 0.33333333 : 1"
       inkscape:vp_z="1 : 0.5 : 1"
       inkscape:vp_y="0 : 1000 : 0"
       inkscape:vp_x="0 : 0.5 : 1"
       sodipodi:type="inkscape:persp3d" />
  </defs>
  <g
     style="fill:#ff0000;stroke:#000000;stroke-opacity:1;fill-opacity:0.60784316"
     transform="translate(-1.2243872,-0.40665644)"
     id="g2848">
    <g
       style="fill:#ff0000;stroke:#000000;stroke-opacity:1;fill-opacity:0.60784316"
       id="g2850"
       transform="translate(-103.52423,266.51982)" />
    <g
       id="g2852"
       transform="matrix(0.95833401,0,0,0.95833401,12.094957,39.760454)"
       style="fill:#ff0000;stroke:#000000;stroke-opacity:1;fill-opacity:0.60784316">
      <path
         sodipodi:nodetypes="cccsssssssssssss"
         id="path2856"
         d="m 422.15031,646.125 c -2.60992,0.20582 -9.47224,4.00344 -10.80029,6.59166 -14.27213,19.22986 -21.61659,39.00407 -25.57471,57.68959 -1.78424,3.47727 2.32294,10.6847 7.29731,11.02916 56.49271,3.912 124.37725,10.08591 181.34078,39.29643 6.48694,3.32647 2.81655,9.69488 -2.7741,14.93541 C 531.94108,812.87939 390.95352,891.77144 244.49494,889.39227 132.00474,887.56491 52.53195,830.41811 49.25,742.34375 c -1.92289,-51.6025 34.45168,-116.32251 75.1174,-173.12421 8.53166,-11.91698 -6.45327,-29.63999 -18.53052,-14.52815 -41.410609,51.81565 -80.16706,131.67474 -95.27438,183.90236 -37.971264,131.27072 26.334471,275.90195 215.75,264.15625 157.10416,-9.74205 313.66788,-94.76917 379.40625,-167.63859 23.61027,-26.17142 32.62546,-96.22073 20.375,-114.86141 -16.27742,-24.76821 -60.9903,-43.693 -78.75,-49.53125 C 508.70454,658.01666 441.84006,644.57223 422.15031,646.125 z"
         style="fill:#ff0000;stroke:#000000;stroke-width:0;stroke-linecap:butt;stroke-linejoin:miter;stroke-opacity:1;fill-opacity:0.60784316" />
      <g
         transform="translate(-103.52423,266.51982)"
         id="g2854"
         style="fill:#ff0000;stroke:#000000;stroke-opacity:1;fill-opacity:0.60784316" />
    </g>
  </g>
  <g
     id="layer1"
     transform="translate(-103.52423,266.51982)" />
  <g
     id="g2858"
     transform="translate(-1.2243872,-0.40665644)"
     style="fill:#ff0000;stroke:#000000;stroke-opacity:1;fill-opacity:0.60784316">
    <g
       transform="translate(-103.52423,266.51982)"
       id="g2860"
       style="fill:#ff0000;stroke:#000000;stroke-opacity:1;fill-opacity:0.60784316" />
    <g
       style="fill:#ff0000;stroke:#000000;stroke-opacity:1;fill-opacity:0.60784316"
       transform="matrix(0.95833401,0,0,0.95833401,12.094957,39.760454)"
       id="g2862">
      <g
         style="fill:#ff0000;stroke:#000000;stroke-opacity:1;fill-opacity:0.60784316"
         id="g2864"
         transform="translate(-103.52423,266.51982)" />
      <path
         style="fill:#ff0000;stroke:#000000;stroke-width:0;stroke-linecap:butt;stroke-linejoin:miter;stroke-opacity:1;fill-opacity:0.60784316"
         d="m 503,302.625 c -1.35995,3.5e-4 -2.72535,0.096 -4.09375,0.25 -32.00912,3.60282 -73.22749,57.30792 -93.625,110.65625 -21.87186,61.13614 -21.02743,130.80014 49.5625,147.03125 24.86298,5.71687 62.10321,-6.94448 92.4375,-66.65625 16.85837,8.96297 46.14865,55.51963 35.25,78.0625 -15.26285,31.56982 -89.47634,66.4401 -160.38094,74.15625 -2.60281,0.28325 -9.47224,4.00344 -10.80029,6.59166 -14.27213,19.22986 -21.61659,39.00407 -25.57471,57.68959 -1.78424,3.47727 2.31224,10.97574 7.29731,11.02916 45.56935,0.48834 128.37605,-25.73691 154.27113,-50.71666 32.04354,-30.91088 60.64137,-58.48839 60.96875,-170.6875 C 608.50618,433.65471 559.66449,302.61032 503,302.625 z m -47.5625,103.4375 c 13.11929,-0.50445 26.14455,9.19609 40.84375,21.15625 2.93302,2.38649 2.83647,6.47706 0.71875,8.78125 -19.98823,21.74829 -47.47006,16.6281 -66.4375,3.40625 -4.56147,-3.17972 -7.67025,-9.09044 -2.78125,-15.40625 9.65299,-12.47011 18.67989,-17.59235 27.65625,-17.9375 z"
         id="path2866"
         sodipodi:nodetypes="cscscssccsssccssssc" />
    </g>
  </g>
</svg>
