<?xml version="1.0" encoding="UTF-8" standalone="no"?>
<!-- Created with Inkscape (http://www.inkscape.org/) -->

<svg
   xmlns:dc="http://purl.org/dc/elements/1.1/"
   xmlns:cc="http://creativecommons.org/ns#"
   xmlns:rdf="http://www.w3.org/1999/02/22-rdf-syntax-ns#"
   xmlns:svg="http://www.w3.org/2000/svg"
   xmlns="http://www.w3.org/2000/svg"
   xmlns:sodipodi="http://sodipodi.sourceforge.net/DTD/sodipodi-0.dtd"
   xmlns:inkscape="http://www.inkscape.org/namespaces/inkscape"
   version="1.0"
   width="1000"
   height="1000"
   id="svg5496"
   sodipodi:version="0.32"
   inkscape:version="0.47pre4 r22446"
   sodipodi:docname="faa+yaa.fina.svg"
   inkscape:output_extension="org.inkscape.output.svg.inkscape">
  <metadata
     id="metadata5594">
    <rdf:RDF>
      <cc:Work
         rdf:about="">
        <dc:format>image/svg+xml</dc:format>
        <dc:type
           rdf:resource="http://purl.org/dc/dcmitype/StillImage" />
      </cc:Work>
    </rdf:RDF>
  </metadata>
  <sodipodi:namedview
     inkscape:pageshadow="2"
     inkscape:pageopacity="0.0"
     guidetolerance="10.0"
     gridtolerance="10.0"
     objecttolerance="10.0"
     borderopacity="1.0"
     bordercolor="#666666"
     pagecolor="#ffffff"
     id="base"
     showgrid="false"
     showguides="true"
     inkscape:guide-bbox="true"
     inkscape:zoom="0.3023409"
     inkscape:cx="643.17771"
     inkscape:cy="428.42535"
     inkscape:window-x="0"
     inkscape:window-y="0"
     inkscape:current-layer="svg5496"
     inkscape:window-height="767"
     inkscape:window-maximized="1"
     inkscape:window-width="1278">
    <sodipodi:guide
       orientation="horizontal"
       position="200"
       id="guide5596" />
  </sodipodi:namedview>
  <defs
     id="defs5498">
    <inkscape:perspective
       sodipodi:type="inkscape:persp3d"
       inkscape:vp_x="0 : 500 : 1"
       inkscape:vp_y="0 : 1000 : 0"
       inkscape:vp_z="1000 : 500 : 1"
       inkscape:persp3d-origin="500 : 333.33333 : 1"
       id="perspective8" />
    <inkscape:perspective
       id="perspective2388"
       inkscape:persp3d-origin="372.04724 : 350.78739 : 1"
       inkscape:vp_z="744.09448 : 526.18109 : 1"
       inkscape:vp_y="0 : 1000 : 0"
       inkscape:vp_x="0 : 526.18109 : 1"
       sodipodi:type="inkscape:persp3d" />
    <inkscape:perspective
       sodipodi:type="inkscape:persp3d"
       inkscape:vp_x="0 : 526.18109 : 1"
       inkscape:vp_y="0 : 1000 : 0"
       inkscape:vp_z="744.09448 : 526.18109 : 1"
       inkscape:persp3d-origin="372.04724 : 350.78739 : 1"
       id="perspective2506" />
    <inkscape:perspective
       id="perspective2504"
       inkscape:persp3d-origin="500 : 333.33333 : 1"
       inkscape:vp_z="1000 : 500 : 1"
       inkscape:vp_y="0 : 1000 : 0"
       inkscape:vp_x="0 : 500 : 1"
       sodipodi:type="inkscape:persp3d" />
    <inkscape:perspective
       id="perspective5923"
       inkscape:persp3d-origin="372.04724 : 350.78739 : 1"
       inkscape:vp_z="744.09448 : 526.18109 : 1"
       inkscape:vp_y="0 : 1000 : 0"
       inkscape:vp_x="0 : 526.18109 : 1"
       sodipodi:type="inkscape:persp3d" />
    <inkscape:perspective
       id="perspective4683"
       inkscape:persp3d-origin="0.5 : 0.33333333 : 1"
       inkscape:vp_z="1 : 0.5 : 1"
       inkscape:vp_y="0 : 1000 : 0"
       inkscape:vp_x="0 : 0.5 : 1"
       sodipodi:type="inkscape:persp3d" />
    <inkscape:perspective
       id="perspective4707"
       inkscape:persp3d-origin="0.5 : 0.33333333 : 1"
       inkscape:vp_z="1 : 0.5 : 1"
       inkscape:vp_y="0 : 1000 : 0"
       inkscape:vp_x="0 : 0.5 : 1"
       sodipodi:type="inkscape:persp3d" />
    <inkscape:perspective
       id="perspective2834"
       inkscape:persp3d-origin="0.5 : 0.33333333 : 1"
       inkscape:vp_z="1 : 0.5 : 1"
       inkscape:vp_y="0 : 1000 : 0"
       inkscape:vp_x="0 : 0.5 : 1"
       sodipodi:type="inkscape:persp3d" />
    <inkscape:perspective
       id="perspective2847"
       inkscape:persp3d-origin="0.5 : 0.33333333 : 1"
       inkscape:vp_z="1 : 0.5 : 1"
       inkscape:vp_y="0 : 1000 : 0"
       inkscape:vp_x="0 : 0.5 : 1"
       sodipodi:type="inkscape:persp3d" />
    <inkscape:perspective
       id="perspective2876"
       inkscape:persp3d-origin="0.5 : 0.33333333 : 1"
       inkscape:vp_z="1 : 0.5 : 1"
       inkscape:vp_y="0 : 1000 : 0"
       inkscape:vp_x="0 : 0.5 : 1"
       sodipodi:type="inkscape:persp3d" />
    <inkscape:perspective
       id="perspective2890"
       inkscape:persp3d-origin="0.5 : 0.33333333 : 1"
       inkscape:vp_z="1 : 0.5 : 1"
       inkscape:vp_y="0 : 1000 : 0"
       inkscape:vp_x="0 : 0.5 : 1"
       sodipodi:type="inkscape:persp3d" />
  </defs>
  <path
     sodipodi:nodetypes="cssssssssssssssss"
     id="path2871"
     d="m 399.78037,692.21211 c -4.59441,-0.42606 -5.042,-0.5735 -7.214,4.2045 -7.748,17.0424 -18.739,37.9858 -22.121,54.4491 -0.867,4.2136 -1.263,5.8966 2.266,6.4874 38.158,6.3861 111.17801,18.2977 168.01801,58.3176 1.876,1.3201 1.949,3.4028 -0.08,4.6147 -76.605,45.7911 -194.85201,82.3189 -305.12701,79.1942 -117.383,-3.3266 -180.006998,-47.3292 -190.695998,-119.0588 -7.055,-47.3414 22.893205,-113.87906 60.662258,-164.90039 9.64592,-13.03044 -7.83909,-26.98349 -17.74537,-13.58886 -21.935741,29.66009 -54.909888,81.75635 -76.435928,164.19475 -21.321,81.6554 -17.3089999,163.036 80.96004,211.55314 41.158998,20.32104 96.335658,20.20614 150.456998,17.89234 125.42142,-5.36203 276.56211,-71.01257 325.46501,-126.40798 10.29485,-11.66163 28.011,-74.452 23.825,-87.2658 -8.25,-25.2691 -51.47463,-46.48355 -80.313,-62.6438 -28.36163,-15.8931 -86.92193,-24.72382 -111.92101,-27.0421 z"
     style="fill:#ff0000;fill-opacity:0.60784314;stroke:#000000;stroke-width:0;stroke-linecap:butt;stroke-linejoin:miter;stroke-miterlimit:4;stroke-opacity:1;stroke-dasharray:none" />
  <g
     id="layer1"
     transform="translate(-129.95595,237.88546)" />
  <path
     style="fill:#ff0000;fill-opacity:0.60784314;stroke:#000000;stroke-width:0;stroke-linecap:butt;stroke-linejoin:miter;stroke-miterlimit:4;stroke-opacity:1;stroke-dasharray:none"
     d="m 477.04638,372.90451 c -46.38401,1.8309 -114.93101,139.8015 -96.88701,189.3152 11.971,32.8468 76.18501,45.1266 145.35201,49.3096 1.656,23.8337 3.227,46.7432 -4.299,51.4848 -25.647,16.158 -62.219,31.1843 -121.43201,29.198 -4.613,-0.1548 -5.042,-0.5735 -7.214,4.2045 -7.748,17.0424 -18.739,37.9858 -22.121,54.4491 -0.867,4.2136 -1.2918,6.11035 2.266,6.4874 59.6108,6.31745 113.13487,-13.84355 138.05601,-43.0766 18.39735,-21.58049 40.285,-59.5911 47.398,-100.5144 14.504,0.4919 28.38437,-0.89293 39.097,-1.3323 11.86384,-0.48658 24.95997,-18.01819 27.83387,-51.91055 2.87391,-33.89237 -7.90622,-38.39197 -27.83387,-39.01175 -9.17507,-0.28536 -18.887,-0.8548 -34.811,-1.7107 -7.192,-60.5285 -22.195,-104.7176 -55.526,-134.63 -8.156,-7.3197 -15.906,-12.8139 -29.879,-12.2623 z m -53.98001,111.3893 c 1.822,-13.8549 14.43301,-26.7936 26.60901,-27.1795 27.601,4.0346 44.023,39.2065 54.66,58.6641 -17.71,-1.3738 -83.53801,-14.2404 -81.26901,-31.4846 z"
     id="path2873"
     sodipodi:nodetypes="cscsssssscszscsscccc" />
</svg>
