<?xml version="1.0" encoding="UTF-8" standalone="no"?>
<!-- Created with Inkscape (http://www.inkscape.org/) -->
<svg
   xmlns:dc="http://purl.org/dc/elements/1.1/"
   xmlns:cc="http://creativecommons.org/ns#"
   xmlns:rdf="http://www.w3.org/1999/02/22-rdf-syntax-ns#"
   xmlns:svg="http://www.w3.org/2000/svg"
   xmlns="http://www.w3.org/2000/svg"
   xmlns:sodipodi="http://sodipodi.sourceforge.net/DTD/sodipodi-0.dtd"
   xmlns:inkscape="http://www.inkscape.org/namespaces/inkscape"
   version="1.0"
   width="1000"
   height="1000"
   id="svg5496"
   sodipodi:version="0.32"
   inkscape:version="0.46"
   sodipodi:docname="faa+yaa.fina.svg"
   inkscape:output_extension="org.inkscape.output.svg.inkscape">
  <metadata
     id="metadata5594">
    <rdf:RDF>
      <cc:Work
         rdf:about="">
        <dc:format>image/svg+xml</dc:format>
        <dc:type
           rdf:resource="http://purl.org/dc/dcmitype/StillImage" />
      </cc:Work>
    </rdf:RDF>
  </metadata>
  <sodipodi:namedview
     inkscape:pageshadow="2"
     inkscape:pageopacity="0.0"
     guidetolerance="10.0"
     gridtolerance="10.0"
     objecttolerance="10.0"
     borderopacity="1.0"
     bordercolor="#666666"
     pagecolor="#ffffff"
     id="base"
     showgrid="false"
     showguides="true"
     inkscape:guide-bbox="true"
     inkscape:zoom="0.64205296"
     inkscape:cx="778.04172"
     inkscape:cy="173.50739"
     inkscape:window-x="0"
     inkscape:window-y="28"
     inkscape:current-layer="svg5496"
     inkscape:window-height="717"
     inkscape:window-maximized="1">
    <sodipodi:guide
       orientation="horizontal"
       position="200"
       id="guide5596" />
  </sodipodi:namedview>
  <defs
     id="defs5498">
    <inkscape:perspective
       sodipodi:type="inkscape:persp3d"
       inkscape:vp_x="0 : 500 : 1"
       inkscape:vp_y="0 : 1000 : 0"
       inkscape:vp_z="1000 : 500 : 1"
       inkscape:persp3d-origin="500 : 333.33333 : 1"
       id="perspective8" />
    <inkscape:perspective
       id="perspective2388"
       inkscape:persp3d-origin="372.04724 : 350.78739 : 1"
       inkscape:vp_z="744.09448 : 526.18109 : 1"
       inkscape:vp_y="0 : 1000 : 0"
       inkscape:vp_x="0 : 526.18109 : 1"
       sodipodi:type="inkscape:persp3d" />
    <inkscape:perspective
       sodipodi:type="inkscape:persp3d"
       inkscape:vp_x="0 : 526.18109 : 1"
       inkscape:vp_y="0 : 1000 : 0"
       inkscape:vp_z="744.09448 : 526.18109 : 1"
       inkscape:persp3d-origin="372.04724 : 350.78739 : 1"
       id="perspective2506" />
    <inkscape:perspective
       id="perspective2504"
       inkscape:persp3d-origin="500 : 333.33333 : 1"
       inkscape:vp_z="1000 : 500 : 1"
       inkscape:vp_y="0 : 1000 : 0"
       inkscape:vp_x="0 : 500 : 1"
       sodipodi:type="inkscape:persp3d" />
    <inkscape:perspective
       id="perspective5923"
       inkscape:persp3d-origin="372.04724 : 350.78739 : 1"
       inkscape:vp_z="744.09448 : 526.18109 : 1"
       inkscape:vp_y="0 : 1000 : 0"
       inkscape:vp_x="0 : 526.18109 : 1"
       sodipodi:type="inkscape:persp3d" />
  </defs>
  <g
     id="layer1"
     transform="translate(-129.95595,237.88546)" />
  <path
     style="fill:#000000;fill-opacity:1;stroke:#000000;stroke-width:1px;stroke-linecap:butt;stroke-linejoin:miter;stroke-opacity:1"
     d="M 599.10655,709.67812 C 590.2207,621.07638 544.35571,546.59433 517.09406,545.685 C 476.97654,544.34685 382.80412,684.76565 404.21906,748.23562 C 414.00775,777.24751 494.73424,794.0287 567.73155,800 C 569.35669,828.5892 565.3227,848.4081 557.2628,853.25 C 529.79688,869.7499 486.541,886.83293 424.0128,883.40625 C 419.14099,883.13927 418.69672,882.68709 416.29405,887.6875 C 407.72393,905.52345 399.95714,923.27177 396.0128,940.59375 C 395.00336,945.02685 394.54582,946.79657 398.2628,947.5 C 438.44368,955.10412 523.75072,971.62193 582.91905,1015.1875 C 584.87084,1016.6246 584.90143,1018.8272 582.73155,1020.0625 C 500.75141,1066.7347 366.4754,1104.6185 250.0128,1098.8438 C 126.04059,1092.6966 60.894526,1042.6789 51.207796,966.63876 C 44.814556,916.45222 72.214686,848.07712 115.52029,789.57249 C 126.41236,774.85762 112.99098,770.24018 103.5128,782.78125 C 74.715546,820.88438 36.381986,887.07449 16.106556,950.78125 C -10.946244,1035.783 -5.8395541,1122.6822 96.919056,1176.1562 C 139.9586,1198.5534 198.42419,1202.8392 255.5128,1198.4375 C 386.26501,1188.3137 548.55562,1119.1117 602.41905,1065.8125 C 614.10633,1054.2477 633.55341,994.10358 629.41905,980.46875 C 621.26603,953.58046 576.35511,929.69618 545.9503,912.46875 C 543.50756,911.08469 542.82815,909.66709 545.0753,907.1875 C 565.20449,884.97597 588.98316,845.11759 597.41905,802.03125 C 612.73388,802.87629 627.44355,802.12075 638.7628,801.5 L 636.5753,712.23812 C 627.69987,712.71805 617.08072,712.52327 599.10655,709.67812 z M 457.55312,662.18592 C 459.79003,647.58541 473.40612,634.19537 486.28156,634.06031 C 502.9966,633.88497 529.99553,676.91791 540.80172,697.71831 C 522.11659,695.86942 454.76904,680.35791 457.55312,662.18592 z"
     id="path2394"
     sodipodi:nodetypes="ccscssssssssssssscsssscccccscs" />
</svg>
