<?xml version="1.0" encoding="UTF-8" standalone="no"?>
<!-- Created with Inkscape (http://www.inkscape.org/) -->

<svg
   xmlns:dc="http://purl.org/dc/elements/1.1/"
   xmlns:cc="http://creativecommons.org/ns#"
   xmlns:rdf="http://www.w3.org/1999/02/22-rdf-syntax-ns#"
   xmlns:svg="http://www.w3.org/2000/svg"
   xmlns="http://www.w3.org/2000/svg"
   xmlns:sodipodi="http://sodipodi.sourceforge.net/DTD/sodipodi-0.dtd"
   xmlns:inkscape="http://www.inkscape.org/namespaces/inkscape"
   version="1.0"
   width="1000"
   height="1000"
   id="svg5496"
   sodipodi:version="0.32"
   inkscape:version="0.47pre0 r21549"
   sodipodi:docname="faa+meem.init.svg"
   inkscape:output_extension="org.inkscape.output.svg.inkscape">
  <metadata
     id="metadata5594">
    <rdf:RDF>
      <cc:Work
         rdf:about="">
        <dc:format>image/svg+xml</dc:format>
        <dc:type
           rdf:resource="http://purl.org/dc/dcmitype/StillImage" />
      </cc:Work>
    </rdf:RDF>
  </metadata>
  <sodipodi:namedview
     inkscape:pageshadow="2"
     inkscape:pageopacity="0.0"
     guidetolerance="10.0"
     gridtolerance="10.0"
     objecttolerance="10.0"
     borderopacity="1.0"
     bordercolor="#666666"
     pagecolor="#ffffff"
     id="base"
     showgrid="false"
     showguides="true"
     inkscape:guide-bbox="true"
     inkscape:zoom="0.236"
     inkscape:cx="500"
     inkscape:cy="500"
     inkscape:window-x="0"
     inkscape:window-y="25"
     inkscape:current-layer="svg5496">
    <sodipodi:guide
       orientation="horizontal"
       position="200"
       id="guide5596" />
  </sodipodi:namedview>
  <defs
     id="defs5498">
    <inkscape:perspective
       sodipodi:type="inkscape:persp3d"
       inkscape:vp_x="0 : 500 : 1"
       inkscape:vp_y="0 : 1000 : 0"
       inkscape:vp_z="1000 : 500 : 1"
       inkscape:persp3d-origin="500 : 333.33333 : 1"
       id="perspective8" />
    <inkscape:perspective
       id="perspective2388"
       inkscape:persp3d-origin="372.04724 : 350.78739 : 1"
       inkscape:vp_z="744.09448 : 526.18109 : 1"
       inkscape:vp_y="0 : 1000 : 0"
       inkscape:vp_x="0 : 526.18109 : 1"
       sodipodi:type="inkscape:persp3d" />
  </defs>
  <g
     id="layer1"
     transform="translate(-271.00568,34.17625)" />
  <path
     style="fill:#000000;fill-rule:evenodd;stroke:#000000;stroke-width:1px;stroke-linecap:butt;stroke-linejoin:miter;stroke-opacity:1"
     d="M 254.28125 206.5 C 202.51937 220.81883 169.00666 277.62763 152.09375 325.96875 C 135.01734 374.77717 134.65855 463.00871 204.3125 471.46875 C 231.01899 474.71247 275.26158 481.69257 300.59375 415.84375 C 315.82654 417.78467 333.71902 453.42209 336.59375 483.125 C 336.90177 486.30759 335.49634 489.84221 332.9375 492.1875 C 295.09259 526.84147 217.3659 527.53655 174.4375 562.25 C 136.19613 593.17335 120.89224 633.53745 112.59375 678.96875 C 75.213657 703.41268 21.87211 714.74949 1.5625 714.875 L 1.375 800 C 23.43071 799.014 98.761497 752.72132 124.59375 707.09375 C 175.94922 731.03872 248.34505 775.78294 290.34375 764.71875 C 296.93427 762.98254 334.30469 712.04461 341.90625 669.15625 C 348.09212 634.25533 329.40091 593.93496 312.875 570.5 C 328.48327 555.3168 354.34778 531.68706 363.09375 493.5 C 376.14344 436.5219 369.99331 333.93869 329.34375 273.96875 C 310.84168 246.67281 283.19204 207.73749 254.28125 206.5 z M 223.46875 320.1875 C 237.71216 320.2208 251.82978 330.32092 262.625 347.25 C 265.84163 352.29432 264.90646 356.07096 260.03125 359.0625 C 238.41525 372.32659 212.90307 373.05011 193.78125 355.21875 C 189.1431 350.89361 187.94064 344.92444 191.53125 339.875 C 201.23894 326.22317 212.39054 320.1616 223.46875 320.1875 z M 203.40625 598.6875 C 214.87093 598.80656 228.16992 602.12227 243.3125 609.625 C 286.4634 631.00508 298.12649 662.65806 299.46875 675.6875 C 284.18865 680.22233 169.21617 639.84475 161.25 620.09375 C 170.26528 607.17019 184.29844 598.48907 203.40625 598.6875 z "
     id="path2394" />
</svg>
