<?xml version="1.0" encoding="UTF-8" standalone="no"?>
<!-- Created with Inkscape (http://www.inkscape.org/) -->

<svg
   xmlns:dc="http://purl.org/dc/elements/1.1/"
   xmlns:cc="http://creativecommons.org/ns#"
   xmlns:rdf="http://www.w3.org/1999/02/22-rdf-syntax-ns#"
   xmlns:svg="http://www.w3.org/2000/svg"
   xmlns="http://www.w3.org/2000/svg"
   xmlns:sodipodi="http://sodipodi.sourceforge.net/DTD/sodipodi-0.dtd"
   xmlns:inkscape="http://www.inkscape.org/namespaces/inkscape"
   version="1.0"
   width="1000"
   height="1000"
   id="svg5496"
   sodipodi:version="0.32"
   inkscape:version="0.47pre4 r22446"
   sodipodi:docname="faa.isol.svg"
   inkscape:output_extension="org.inkscape.output.svg.inkscape">
  <metadata
     id="metadata5594">
    <rdf:RDF>
      <cc:Work
         rdf:about="">
        <dc:format>image/svg+xml</dc:format>
        <dc:type
           rdf:resource="http://purl.org/dc/dcmitype/StillImage" />
      </cc:Work>
    </rdf:RDF>
  </metadata>
  <sodipodi:namedview
     inkscape:pageshadow="2"
     inkscape:pageopacity="0.0"
     guidetolerance="10.0"
     gridtolerance="10.0"
     objecttolerance="10.0"
     borderopacity="1.0"
     bordercolor="#666666"
     pagecolor="#ffffff"
     id="base"
     showgrid="false"
     showguides="true"
     inkscape:guide-bbox="true"
     inkscape:zoom="0.236"
     inkscape:cx="500"
     inkscape:cy="500"
     inkscape:window-x="0"
     inkscape:window-y="24"
     inkscape:current-layer="svg5496"
     inkscape:window-width="1280"
     inkscape:window-height="725"
     inkscape:window-maximized="1">
    <sodipodi:guide
       orientation="horizontal"
       position="200"
       id="guide5596" />
  </sodipodi:namedview>
  <defs
     id="defs5498">
    <inkscape:perspective
       sodipodi:type="inkscape:persp3d"
       inkscape:vp_x="0 : 500 : 1"
       inkscape:vp_y="0 : 1000 : 0"
       inkscape:vp_z="1000 : 500 : 1"
       inkscape:persp3d-origin="500 : 333.33333 : 1"
       id="perspective3382" />
    <inkscape:perspective
       id="perspective3391"
       inkscape:persp3d-origin="372.04724 : 350.78739 : 1"
       inkscape:vp_z="744.09448 : 526.18109 : 1"
       inkscape:vp_y="0 : 1000 : 0"
       inkscape:vp_x="0 : 526.18109 : 1"
       sodipodi:type="inkscape:persp3d" />
    <inkscape:perspective
       id="perspective4099"
       inkscape:persp3d-origin="0.5 : 0.33333333 : 1"
       inkscape:vp_z="1 : 0.5 : 1"
       inkscape:vp_y="0 : 1000 : 0"
       inkscape:vp_x="0 : 0.5 : 1"
       sodipodi:type="inkscape:persp3d" />
  </defs>
  <g
     id="layer1"
     transform="matrix(1.3,0,0,1.3,-45.841058,-260.90308)" />
  <path
     style="fill:#ff0000;fill-opacity:0.60784314;fill-rule:evenodd;stroke:#000000;stroke-width:1;stroke-linecap:butt;stroke-linejoin:miter;stroke-miterlimit:4;stroke-opacity:1;stroke-dasharray:none"
     d="m 734.95396,286.2812 c -25.5206,0.1259 -61.2054,57.38891 -83.0972,111.98111 -22.0921,55.0916 -26.6713,99.4885 18.0015,128.3145 67.8535,33.123 116.1198,-14.7504 128.7691,-48.7073 1.0873,-2.9718 1.399,-6.5768 5.4873,-4.4659 14.5624,12.3019 23.3124,24.7963 26.2475,41.3571 -18.3851,90.1633 -346.1807,167.3774 -431.0202,179.5845 -164.213,23.6277 -338.927202,-3.7122 -361.579002,-101.7469 -5.4843,-23.735 7.6717,-72.2736 35.1959,-112.2544 9.3223,-13.5413 -9.8949,-28.2389 -21.2825,-14.2849 -65.9971,103.3395 -123.7838,338.78454 220.101502,332.29714 220.5334,-4.1834 525.9042,-91.99794 577.5149,-220.13164 27.2562,-67.669 -4.6053,-257.6213 -84.2586,-288.4483 -9.6138,-3.64561 -19.9516,-3.57511 -30.0802,-3.49501 z m 10.3495,141.07481 c -13.7036,16.5244 -40.54,17.4167 -55.8593,1.6096 -4.5383,-4.6828 -3.8013,-8.5903 -1.0398,-14.0234 14.9733,-27.4085 32.8026,-23.8111 55.6486,-6.1078 6.1546,5.2416 6.4656,13.1278 1.2505,18.5216 z"
     id="path3397-2"
     sodipodi:nodetypes="csccccscsccscccsccc" />
</svg>
