<?xml version="1.0" encoding="UTF-8" standalone="no"?>
<!-- Created with Inkscape (http://www.inkscape.org/) -->

<svg
   xmlns:dc="http://purl.org/dc/elements/1.1/"
   xmlns:cc="http://creativecommons.org/ns#"
   xmlns:rdf="http://www.w3.org/1999/02/22-rdf-syntax-ns#"
   xmlns:svg="http://www.w3.org/2000/svg"
   xmlns="http://www.w3.org/2000/svg"
   xmlns:sodipodi="http://sodipodi.sourceforge.net/DTD/sodipodi-0.dtd"
   xmlns:inkscape="http://www.inkscape.org/namespaces/inkscape"
   version="1.0"
   width="1000"
   height="1000"
   id="svg5496"
   sodipodi:version="0.32"
   inkscape:version="0.47pre0 r21549"
   sodipodi:docname="faa.isol.svg"
   inkscape:output_extension="org.inkscape.output.svg.inkscape">
  <metadata
     id="metadata5594">
    <rdf:RDF>
      <cc:Work
         rdf:about="">
        <dc:format>image/svg+xml</dc:format>
        <dc:type
           rdf:resource="http://purl.org/dc/dcmitype/StillImage" />
      </cc:Work>
    </rdf:RDF>
  </metadata>
  <sodipodi:namedview
     inkscape:pageshadow="2"
     inkscape:pageopacity="0.0"
     guidetolerance="10.0"
     gridtolerance="10.0"
     objecttolerance="10.0"
     borderopacity="1.0"
     bordercolor="#666666"
     pagecolor="#ffffff"
     id="base"
     showgrid="false"
     showguides="true"
     inkscape:guide-bbox="true"
     inkscape:zoom="0.236"
     inkscape:cx="500"
     inkscape:cy="500"
     inkscape:window-x="0"
     inkscape:window-y="25"
     inkscape:current-layer="svg5496">
    <sodipodi:guide
       orientation="horizontal"
       position="200"
       id="guide5596" />
  </sodipodi:namedview>
  <defs
     id="defs5498">
    <inkscape:perspective
       sodipodi:type="inkscape:persp3d"
       inkscape:vp_x="0 : 500 : 1"
       inkscape:vp_y="0 : 1000 : 0"
       inkscape:vp_z="1000 : 500 : 1"
       inkscape:persp3d-origin="500 : 333.33333 : 1"
       id="perspective3382" />
    <inkscape:perspective
       id="perspective3391"
       inkscape:persp3d-origin="372.04724 : 350.78739 : 1"
       inkscape:vp_z="744.09448 : 526.18109 : 1"
       inkscape:vp_y="0 : 1000 : 0"
       inkscape:vp_x="0 : 526.18109 : 1"
       sodipodi:type="inkscape:persp3d" />
  </defs>
  <g
     id="layer1"
     transform="matrix(1.3,0,0,1.3,-45.841058,-260.90308)" />
  <path
     style="fill:#000000;fill-rule:evenodd;stroke:#000000;stroke-width:1px;stroke-linecap:butt;stroke-linejoin:miter;stroke-opacity:1"
     d="M 796.4375 236.46875 C 795.01224 236.46817 793.57865 236.49249 792.125 236.5 C 764.65711 236.64188 726.24949 289.40141 702.6875 350.90625 C 678.90989 412.97393 673.98124 462.99266 722.0625 495.46875 C 795.09296 532.78598 847.04203 478.85058 860.65625 440.59375 C 861.82656 437.24573 862.16211 433.18427 866.5625 435.5625 C 882.23594 449.42195 891.65345 463.49864 894.8125 482.15625 C 875.02468 583.73662 522.78249 671.85775 430.90625 681.15625 C 238.84711 700.59393 73.036344 682.79231 48.65625 572.34375 C 42.753616 545.60318 61.906953 490.91829 91.53125 445.875 C 101.56488 430.61902 80.881348 414.06028 68.625 429.78125 C -17.494443 540.38813 -85.248128 807.30889 284.875 800 C 522.23463 795.28703 859.639 698.0151 915.1875 553.65625 C 944.52326 477.41876 910.23086 275.1678 824.5 240.4375 C 815.71484 236.87856 806.41433 236.47282 796.4375 236.46875 z M 766.46875 348.03125 C 781.84317 348.12861 808.27545 370.25043 815.59375 379.8125 C 802.94269 391.48099 791.54333 398.53067 776.6875 399.40625 C 758.54709 400.47541 739.91732 393.09597 737.125 383.03125 C 734.87621 374.9256 753.39668 349.17612 765.03125 348.09375 C 765.5032 348.04984 765.9728 348.02811 766.46875 348.03125 z "
     id="path3397" />
</svg>
