<?xml version="1.0" encoding="UTF-8" standalone="no"?>
<!-- Created with Inkscape (http://www.inkscape.org/) -->

<svg
   xmlns:dc="http://purl.org/dc/elements/1.1/"
   xmlns:cc="http://creativecommons.org/ns#"
   xmlns:rdf="http://www.w3.org/1999/02/22-rdf-syntax-ns#"
   xmlns:svg="http://www.w3.org/2000/svg"
   xmlns="http://www.w3.org/2000/svg"
   xmlns:sodipodi="http://sodipodi.sourceforge.net/DTD/sodipodi-0.dtd"
   xmlns:inkscape="http://www.inkscape.org/namespaces/inkscape"
   version="1.0"
   width="1000"
   height="1000"
   id="svg5496"
   sodipodi:version="0.32"
   inkscape:version="0.47pre4 r22446"
   sodipodi:docname="faa.init.svg"
   inkscape:output_extension="org.inkscape.output.svg.inkscape">
  <metadata
     id="metadata5594">
    <rdf:RDF>
      <cc:Work
         rdf:about="">
        <dc:format>image/svg+xml</dc:format>
        <dc:type
           rdf:resource="http://purl.org/dc/dcmitype/StillImage" />
      </cc:Work>
    </rdf:RDF>
  </metadata>
  <sodipodi:namedview
     inkscape:pageshadow="2"
     inkscape:pageopacity="0.0"
     guidetolerance="10.0"
     gridtolerance="10.0"
     objecttolerance="10.0"
     borderopacity="1.0"
     bordercolor="#666666"
     pagecolor="#ffffff"
     id="base"
     showgrid="false"
     showguides="true"
     inkscape:guide-bbox="true"
     inkscape:zoom="1.6086783"
     inkscape:cx="116.14773"
     inkscape:cy="404.65562"
     inkscape:window-x="0"
     inkscape:window-y="0"
     inkscape:current-layer="svg5496"
     inkscape:window-width="1278"
     inkscape:window-height="767"
     inkscape:window-maximized="1">
    <sodipodi:guide
       orientation="horizontal"
       position="200"
       id="guide5596" />
  </sodipodi:namedview>
  <defs
     id="defs5498">
    <inkscape:perspective
       sodipodi:type="inkscape:persp3d"
       inkscape:vp_x="0 : 500 : 1"
       inkscape:vp_y="0 : 1000 : 0"
       inkscape:vp_z="1000 : 500 : 1"
       inkscape:persp3d-origin="500 : 333.33333 : 1"
       id="perspective8" />
    <inkscape:perspective
       id="perspective2474"
       inkscape:persp3d-origin="372.04724 : 350.78739 : 1"
       inkscape:vp_z="744.09448 : 526.18109 : 1"
       inkscape:vp_y="0 : 1000 : 0"
       inkscape:vp_x="0 : 526.18109 : 1"
       sodipodi:type="inkscape:persp3d" />
    <inkscape:perspective
       id="perspective7719"
       inkscape:persp3d-origin="0.5 : 0.33333333 : 1"
       inkscape:vp_z="1 : 0.5 : 1"
       inkscape:vp_y="0 : 1000 : 0"
       inkscape:vp_x="0 : 0.5 : 1"
       sodipodi:type="inkscape:persp3d" />
  </defs>
  <path
     sodipodi:nodetypes="ccssscssssccccssccc"
     id="path2816"
     d="M 115.1885,390.6902 C 72.3518,390.2447 14.5002,492.5602 9.3309,560.9776 c -2.7938,36.9791 6.14127,67.09176 28.4214,78.1587 48.02557,23.85516 103.6962,9.062 124.0725,-44.5288 1.585,-4.1685 9.0076,-8.0417 13.3978,-0.4516 4.2603,7.3655 11.3927,25.6165 12.8559,44.2879 C 158.68545,663.43023 77.449427,699.75436 -0.01,707.1787 -31.662659,710.21255 -26.515742,803.14254 0,800 43.974859,794.78828 79.3097,787.7128 120.8812,768.2066 187.7227,736.8434 227.4131,691.8493 231.9774,604.9946 238.4991,480.8935 145.9799,391.0123 115.1909,390.6902 l -0.002,0 -4e-4,0 z m -33.088,108.6275 c 14.255399,-0.3305 36.0269,19.8368 41.2328,35.0597 0.431,1.2602 -4.8674,5.1794 -6.6093,5.9465 -18.397401,8.1014 -37.0724,10.7951 -60.3352,3.4623 -1.9172,-0.6043 -2.4426,-4.1056 -1.8366,-6.1419 0.90303,-18.67404 11.3318,-37.9508 27.5483,-38.3266 z"
     style="fill:#ff0000;fill-opacity:0.60784314;fill-rule:evenodd;stroke:#000000;stroke-width:0.96343607px;stroke-linecap:butt;stroke-linejoin:miter;stroke-opacity:1" />
  <g
     id="layer1"
     transform="matrix(1.3,0,0,1.3,-373.75769,162.55296)" />
</svg>
