<?xml version="1.0" encoding="UTF-8" standalone="no"?>
<!-- Created with Inkscape (http://www.inkscape.org/) -->
<svg
   xmlns:dc="http://purl.org/dc/elements/1.1/"
   xmlns:cc="http://creativecommons.org/ns#"
   xmlns:rdf="http://www.w3.org/1999/02/22-rdf-syntax-ns#"
   xmlns:svg="http://www.w3.org/2000/svg"
   xmlns="http://www.w3.org/2000/svg"
   xmlns:sodipodi="http://sodipodi.sourceforge.net/DTD/sodipodi-0.dtd"
   xmlns:inkscape="http://www.inkscape.org/namespaces/inkscape"
   version="1.0"
   width="1000"
   height="1000"
   id="svg5496"
   sodipodi:version="0.32"
   inkscape:version="0.46"
   sodipodi:docname="haa+raa.isol.svg"
   inkscape:output_extension="org.inkscape.output.svg.inkscape">
  <metadata
     id="metadata5594">
    <rdf:RDF>
      <cc:Work
         rdf:about="">
        <dc:format>image/svg+xml</dc:format>
        <dc:type
           rdf:resource="http://purl.org/dc/dcmitype/StillImage" />
      </cc:Work>
    </rdf:RDF>
  </metadata>
  <sodipodi:namedview
     inkscape:pageshadow="2"
     inkscape:pageopacity="0.0"
     guidetolerance="10.0"
     gridtolerance="10.0"
     objecttolerance="10.0"
     borderopacity="1.0"
     bordercolor="#666666"
     pagecolor="#ffffff"
     id="base"
     showgrid="false"
     showguides="true"
     inkscape:guide-bbox="true"
     inkscape:zoom="0.32102648"
     inkscape:cx="195.14116"
     inkscape:cy="621.92806"
     inkscape:window-x="0"
     inkscape:window-y="25"
     inkscape:current-layer="svg5496">
    <sodipodi:guide
       orientation="horizontal"
       position="200"
       id="guide5596" />
  </sodipodi:namedview>
  <defs
     id="defs5498">
    <inkscape:perspective
       sodipodi:type="inkscape:persp3d"
       inkscape:vp_x="0 : 500 : 1"
       inkscape:vp_y="0 : 1000 : 0"
       inkscape:vp_z="1000 : 500 : 1"
       inkscape:persp3d-origin="500 : 333.33333 : 1"
       id="perspective8" />
    <inkscape:perspective
       id="perspective2388"
       inkscape:persp3d-origin="372.04724 : 350.78739 : 1"
       inkscape:vp_z="744.09448 : 526.18109 : 1"
       inkscape:vp_y="0 : 1000 : 0"
       inkscape:vp_x="0 : 526.18109 : 1"
       sodipodi:type="inkscape:persp3d" />
  </defs>
  <g
     id="layer1"
     transform="translate(163.45964,296.77129)" />
  <path
     style="fill:#000000;fill-rule:evenodd;stroke:#000000;stroke-width:1px;stroke-linecap:butt;stroke-linejoin:miter;stroke-opacity:1"
     d="M 907.40237,681.13253 C 908.61491,675.10216 904.76862,670.76479 895.8385,670.9453 C 831.05498,672.25478 751.53422,657.4673 683.33629,637.82721 C 624.86776,620.98906 564.72277,585.63024 510.2418,563.00492 C 465.04263,546.49365 407.02469,559.94084 372.57447,592.50537 C 356.57695,610.39418 346.73267,636.2235 334.48706,672.83922 C 332.67204,678.26634 336.38162,680.55548 340.77242,678.92988 C 387.34179,661.68854 426.89532,651.5503 461.60513,651.59594 C 501.08485,651.64784 534.6984,664.589 572.37851,690.14108 C 580.10555,695.38103 577.50832,697.51724 570.67881,698.589 C 522.11009,706.21092 412.93748,738.47395 369.53578,752.33293 C 365.81943,753.51963 364.33567,755.07491 363.42075,756.98123 L 342.77419,800 C 340.97595,803.74678 341.95529,806.89912 344.74826,808.21691 C 356.29066,813.66289 381.36465,834.19637 384.69363,840.38028 C 386.66524,844.04273 385.39305,846.28885 383.81689,849.55569 C 342.2145,935.78333 288.06295,980.42512 222.17098,1016.0209 C 191.52145,1032.5783 155.6555,1048.3508 132.69183,1048.292 C 96.627487,1048.1995 49.824252,1030.5727 7.6926923,1009.1097 C -1.6389077,1004.3559 -8.0842277,1018.8526 -0.47128771,1024.0641 C 62.95226,1067.4813 152.32715,1115.7049 176.6755,1111.7493 C 226.29282,1103.6885 283.73583,1078.5007 330.83146,1017.5644 C 366.43379,971.49911 399.53025,900.63026 410.43101,818.5224 C 411.39261,811.25503 418.07177,805.63112 423.10507,803.6748 C 486.94917,778.86015 582.53386,755.72859 660.18318,743.0982 C 724.48357,732.59435 814.28718,742.75198 864.66876,758.67853 C 870.05118,760.38001 873.6547,760.34685 876.62961,755.87173 C 890.97899,734.28617 902.74632,704.28869 907.40237,681.13253 z"
     id="path2394"
     sodipodi:nodetypes="cssccsssssssssssssssssssssss" />
</svg>
