<?xml version="1.0" encoding="UTF-8" standalone="no"?>
<!-- Created with Inkscape (http://www.inkscape.org/) -->

<svg
   xmlns:dc="http://purl.org/dc/elements/1.1/"
   xmlns:cc="http://creativecommons.org/ns#"
   xmlns:rdf="http://www.w3.org/1999/02/22-rdf-syntax-ns#"
   xmlns:svg="http://www.w3.org/2000/svg"
   xmlns="http://www.w3.org/2000/svg"
   xmlns:sodipodi="http://sodipodi.sourceforge.net/DTD/sodipodi-0.dtd"
   xmlns:inkscape="http://www.inkscape.org/namespaces/inkscape"
   version="1.0"
   width="1000"
   height="1000"
   id="svg5496"
   sodipodi:version="0.32"
   inkscape:version="0.47pre4 r22446"
   sodipodi:docname="haa+meem.init.svg"
   inkscape:output_extension="org.inkscape.output.svg.inkscape">
  <metadata
     id="metadata5594">
    <rdf:RDF>
      <cc:Work
         rdf:about="">
        <dc:format>image/svg+xml</dc:format>
        <dc:type
           rdf:resource="http://purl.org/dc/dcmitype/StillImage" />
      </cc:Work>
    </rdf:RDF>
  </metadata>
  <sodipodi:namedview
     inkscape:pageshadow="2"
     inkscape:pageopacity="0.0"
     guidetolerance="10.0"
     gridtolerance="10.0"
     objecttolerance="10.0"
     borderopacity="1.0"
     bordercolor="#666666"
     pagecolor="#ffffff"
     id="base"
     showgrid="false"
     showguides="true"
     inkscape:guide-bbox="true"
     inkscape:zoom="0.236"
     inkscape:cx="368.64407"
     inkscape:cy="500"
     inkscape:window-x="0"
     inkscape:window-y="24"
     inkscape:current-layer="svg5496"
     inkscape:window-width="1280"
     inkscape:window-height="725"
     inkscape:window-maximized="1">
    <sodipodi:guide
       orientation="horizontal"
       position="200"
       id="guide5596" />
  </sodipodi:namedview>
  <defs
     id="defs5498">
    <inkscape:perspective
       sodipodi:type="inkscape:persp3d"
       inkscape:vp_x="0 : 500 : 1"
       inkscape:vp_y="0 : 1000 : 0"
       inkscape:vp_z="1000 : 500 : 1"
       inkscape:persp3d-origin="500 : 333.33333 : 1"
       id="perspective4915" />
    <inkscape:perspective
       id="perspective4924"
       inkscape:persp3d-origin="372.04724 : 350.78739 : 1"
       inkscape:vp_z="744.09448 : 526.18109 : 1"
       inkscape:vp_y="0 : 1000 : 0"
       inkscape:vp_x="0 : 526.18109 : 1"
       sodipodi:type="inkscape:persp3d" />
    <inkscape:perspective
       id="perspective3868"
       inkscape:persp3d-origin="0.5 : 0.33333333 : 1"
       inkscape:vp_z="1 : 0.5 : 1"
       inkscape:vp_y="0 : 1000 : 0"
       inkscape:vp_x="0 : 0.5 : 1"
       sodipodi:type="inkscape:persp3d" />
  </defs>
  <g
     id="layer1"
     transform="matrix(1.3,0,0,1.3,-607.02832,-67.621141)" />
  <path
     style="fill:#ff0000;fill-opacity:0.60784314;fill-rule:evenodd;stroke:#000000;stroke-width:1;stroke-linecap:butt;stroke-linejoin:miter;stroke-miterlimit:4;stroke-opacity:1;stroke-dasharray:none"
     d="m 256.362,374.0809 c -37.112,-0.3472 -80.781,20.5666 -117.421,67.229 -4.941,6.2918 -5.046,16.7297 4.602,15.2256 118.423,-18.4621 170.637,28.9356 207.254,56.3405 -65.099,0.7293 -155.637,10.1758 -210.916,45.3443 -20.11,12.7927 -55.258,51.6182 -55.768,107.0268 -0.02,3.0405 -0.904,7.4317 -3.368,9.4511 -25.133,20.6003 -65.062,31.3657 -80.385,34.754 L 0,800 c 18.328,-9.2317 70.93,-37.0412 97.009,-108.1765 57.033,37.9906 132.202,75.7943 161.073,46.748 35.743,-35.9602 42.008,-109.7168 -2.046,-169.4553 106.9,-22.5807 203.287,-9.917 351.517,36.0962 5.702,2.1764 11.569,-0.4775 14.34,-4.8573 12.654,-19.9944 23.554,-34.4619 27.551,-59.3464 0.785,-4.8929 -3.826,-8.4653 -7.009,-8.9488 -68.009,-10.3317 -131.958,-30.3932 -190.331,-59.2893 -71.243,-35.2675 -121.726,-90.8661 -184.453,-97.9242 -3.682,-0.4867 -7.45,-0.7296 -11.289,-0.7655 z m -102.71,218.2453 c 15.81,0.5462 31.866,6.5143 37.172,9.6938 27.184,16.2816 46.691,41.7255 57.386,71.082 -53.749,-7.9298 -112.043,-39.9584 -128.331,-63.9113 6.072,-13.5969 19.822,-17.3462 33.773,-16.8645 z"
     id="path4930-2"
     sodipodi:nodetypes="ccscccscccsccccssccccccc" />
</svg>
