<?xml version="1.0" encoding="UTF-8" standalone="no"?>
<!-- Created with Inkscape (http://www.inkscape.org/) -->

<svg
   xmlns:dc="http://purl.org/dc/elements/1.1/"
   xmlns:cc="http://creativecommons.org/ns#"
   xmlns:rdf="http://www.w3.org/1999/02/22-rdf-syntax-ns#"
   xmlns:svg="http://www.w3.org/2000/svg"
   xmlns="http://www.w3.org/2000/svg"
   xmlns:sodipodi="http://sodipodi.sourceforge.net/DTD/sodipodi-0.dtd"
   xmlns:inkscape="http://www.inkscape.org/namespaces/inkscape"
   version="1.0"
   width="1000"
   height="1000"
   id="svg5496"
   sodipodi:version="0.32"
   inkscape:version="0.47pre0 r21549"
   sodipodi:docname="haa+meem.init.svg"
   inkscape:output_extension="org.inkscape.output.svg.inkscape">
  <metadata
     id="metadata5594">
    <rdf:RDF>
      <cc:Work
         rdf:about="">
        <dc:format>image/svg+xml</dc:format>
        <dc:type
           rdf:resource="http://purl.org/dc/dcmitype/StillImage" />
      </cc:Work>
    </rdf:RDF>
  </metadata>
  <sodipodi:namedview
     inkscape:pageshadow="2"
     inkscape:pageopacity="0.0"
     guidetolerance="10.0"
     gridtolerance="10.0"
     objecttolerance="10.0"
     borderopacity="1.0"
     bordercolor="#666666"
     pagecolor="#ffffff"
     id="base"
     showgrid="false"
     showguides="true"
     inkscape:guide-bbox="true"
     inkscape:zoom="0.236"
     inkscape:cx="368.64407"
     inkscape:cy="500"
     inkscape:window-x="0"
     inkscape:window-y="25"
     inkscape:current-layer="svg5496">
    <sodipodi:guide
       orientation="horizontal"
       position="200"
       id="guide5596" />
  </sodipodi:namedview>
  <defs
     id="defs5498">
    <inkscape:perspective
       sodipodi:type="inkscape:persp3d"
       inkscape:vp_x="0 : 500 : 1"
       inkscape:vp_y="0 : 1000 : 0"
       inkscape:vp_z="1000 : 500 : 1"
       inkscape:persp3d-origin="500 : 333.33333 : 1"
       id="perspective4915" />
    <inkscape:perspective
       id="perspective4924"
       inkscape:persp3d-origin="372.04724 : 350.78739 : 1"
       inkscape:vp_z="744.09448 : 526.18109 : 1"
       inkscape:vp_y="0 : 1000 : 0"
       inkscape:vp_x="0 : 526.18109 : 1"
       sodipodi:type="inkscape:persp3d" />
  </defs>
  <g
     id="layer1"
     transform="matrix(1.3,0,0,1.3,-607.02832,-67.621141)" />
  <path
     style="fill:#000000;fill-rule:evenodd;stroke:#000000;stroke-width:1px;stroke-linecap:butt;stroke-linejoin:miter;stroke-opacity:1"
     d="M 264.875 334.84375 C 224.67891 335.65215 178.05963 359.69743 139.875 411.40625 C 134.72614 418.37874 134.94496 429.68697 145.34375 427.75 C 272.98631 403.97405 331.03791 453.643 371.5625 482.15625 C 312.40148 492.60862 203.36086 498.14508 144.625 538 C 123.25954 552.49742 86.565347 600.00279 87.78125 660.03125 C 87.848382 663.32519 87.040516 668.10944 84.4375 670.375 C 57.880567 693.48926 18.141536 705.93484 1.65625 710.09375 L 0.75 800 C 20.301206 789.41644 75.001951 764.78391 100.96875 686.90625 C 163.9384 726.23267 255.87278 752.39679 278.375 729.5625 C 316.94715 690.42112 320.35759 609.38926 270.75 546.09375 C 387.91937 510.2438 497.41884 519.95192 652.53125 573.96875 C 658.77735 576.14391 665.04508 573.08227 667.90625 568.25 C 680.96743 546.19085 692.30756 530.17328 695.84375 503.09375 C 696.53912 497.76911 691.43118 494.04609 687.96875 493.625 C 624.32453 485.8848 553.7453 461.6859 488.65625 434.4375 C 410.48954 401.65612 345.26968 340.95492 277.125 335.3125 C 273.12066 334.90305 269.03322 334.76012 264.875 334.84375 z M 160.625 574.5 C 177.76139 574.58657 195.33822 580.53844 201.1875 583.8125 C 231.14212 600.57917 253.07665 627.51464 265.59375 658.96875 C 207.14006 652.09575 142.99593 619.2666 124.59375 593.84375 C 130.73539 578.92322 145.50466 574.42361 160.625 574.5 z "
     id="path4930" />
</svg>
