<?xml version="1.0" encoding="UTF-8" standalone="no"?>
<!-- Created with Inkscape (http://www.inkscape.org/) -->

<svg
   xmlns:dc="http://purl.org/dc/elements/1.1/"
   xmlns:cc="http://creativecommons.org/ns#"
   xmlns:rdf="http://www.w3.org/1999/02/22-rdf-syntax-ns#"
   xmlns:svg="http://www.w3.org/2000/svg"
   xmlns="http://www.w3.org/2000/svg"
   xmlns:sodipodi="http://sodipodi.sourceforge.net/DTD/sodipodi-0.dtd"
   xmlns:inkscape="http://www.inkscape.org/namespaces/inkscape"
   version="1.0"
   width="1000"
   height="1000"
   id="svg5496"
   sodipodi:version="0.32"
   inkscape:version="0.47pre0 r21549"
   sodipodi:docname="haa+haa.init.svg"
   inkscape:output_extension="org.inkscape.output.svg.inkscape">
  <metadata
     id="metadata5594">
    <rdf:RDF>
      <cc:Work
         rdf:about="">
        <dc:format>image/svg+xml</dc:format>
        <dc:type
           rdf:resource="http://purl.org/dc/dcmitype/StillImage" />
        <dc:title></dc:title>
      </cc:Work>
    </rdf:RDF>
  </metadata>
  <sodipodi:namedview
     inkscape:window-height="721"
     inkscape:pageshadow="2"
     inkscape:pageopacity="0.0"
     borderopacity="1.0"
     bordercolor="#666666"
     pagecolor="#ffffff"
     id="base"
     showgrid="false"
     showguides="true"
     inkscape:guide-bbox="true"
     inkscape:zoom="0.454"
     inkscape:cx="270.97489"
     inkscape:cy="594.36145"
     inkscape:window-x="0"
     inkscape:window-y="28"
     inkscape:current-layer="svg5496"
     inkscape:window-width="1280"
     inkscape:window-maximized="1">
    <sodipodi:guide
       orientation="horizontal"
       position="200"
       id="guide5596" />
  </sodipodi:namedview>
  <defs
     id="defs5498">
    <inkscape:perspective
       sodipodi:type="inkscape:persp3d"
       inkscape:vp_x="0 : 500 : 1"
       inkscape:vp_y="0 : 1000 : 0"
       inkscape:vp_z="1000 : 500 : 1"
       inkscape:persp3d-origin="500 : 333.33333 : 1"
       id="perspective8" />
    <inkscape:perspective
       id="perspective2822"
       inkscape:persp3d-origin="0.5 : 0.33333333 : 1"
       inkscape:vp_z="1 : 0.5 : 1"
       inkscape:vp_y="0 : 1000 : 0"
       inkscape:vp_x="0 : 0.5 : 1"
       sodipodi:type="inkscape:persp3d" />
  </defs>
  <g
     id="layer1" />
  <path
     style="color:#000000;fill:#000000;stroke:#000000;stroke-width:1px;stroke-linecap:butt;stroke-linejoin:miter;stroke-miterlimit:4;stroke-opacity:1;stroke-dasharray:none;stroke-dashoffset:0;marker:none;visibility:visible;display:inline;overflow:visible;enable-background:accumulate;fill-opacity:1"
     d="m 139.82317,384.53642 c 5.39039,-30.06001 46.02857,-89.92805 105.49621,-92.77676 58.79435,-2.81646 124.38593,53.84808 174.0676,76.85402 84.89319,39.31123 152.0105,64.84925 245.52431,86.24382 2.44032,0.55831 5.84846,1.26672 2.60911,7.77963 -8.81342,17.7199 -22.86757,36.3357 -34.69988,52.32621 -3.43182,4.63787 -3.75033,4.54715 -8.76896,3.2647 -174.3579,-44.55489 -307.41777,-26.30919 -448.9778,25.38998 -7.2145,2.63292 -6.50965,4.66669 0.15075,6.98724 130.16098,45.34956 262.10925,85.98843 385.40352,86.9164 4.10499,0.0309 4.51713,4.71271 2.07158,7.86453 l -42.06878,54.21794 c -2.47228,3.18626 -2.72834,3.06729 -6.27278,2.47794 C 345.69702,674.0379 168.25792,735.37365 2.5920197,800 l 1.423891,-98.91852 C 79.941122,694.15599 154.69317,681.9573 232.29325,656.8738 c 6.49158,-2.09834 5.66671,-3.61359 1.24497,-5.6582 -76.21276,-35.24071 -161.721048,-46.2487 -218.116953,-52.18312 -3.31616,-0.34896 -4.490161,-0.93958 -3.857034,-4.0447 7.805852,-38.28312 45.408559,-68.68558 142.689577,-98.1981 56.16379,-17.03863 131.18098,-35.07859 234.51626,-50.82207 6.34511,-0.9667 7.22247,-3.96715 1.68952,-6.96844 -147.3248,-79.91495 -176.18822,-70.2773 -237.43337,-48.91072 -7.93585,2.76857 -15.10663,5.06343 -13.20305,-5.55203 z"
     id="path2828"
     sodipodi:nodetypes="cssssssssssssccsssssssss" />
</svg>
