<?xml version="1.0" encoding="UTF-8" standalone="no"?>
<!-- Created with Inkscape (http://www.inkscape.org/) -->

<svg
   xmlns:dc="http://purl.org/dc/elements/1.1/"
   xmlns:cc="http://creativecommons.org/ns#"
   xmlns:rdf="http://www.w3.org/1999/02/22-rdf-syntax-ns#"
   xmlns:svg="http://www.w3.org/2000/svg"
   xmlns="http://www.w3.org/2000/svg"
   xmlns:sodipodi="http://sodipodi.sourceforge.net/DTD/sodipodi-0.dtd"
   xmlns:inkscape="http://www.inkscape.org/namespaces/inkscape"
   version="1.0"
   width="1000"
   height="1000"
   id="svg5496"
   sodipodi:version="0.32"
   inkscape:version="0.47pre4 r22446"
   sodipodi:docname="haa+yaa.isol.svg"
   inkscape:output_extension="org.inkscape.output.svg.inkscape">
  <metadata
     id="metadata5594">
    <rdf:RDF>
      <cc:Work
         rdf:about="">
        <dc:format>image/svg+xml</dc:format>
        <dc:type
           rdf:resource="http://purl.org/dc/dcmitype/StillImage" />
        <dc:title />
      </cc:Work>
    </rdf:RDF>
  </metadata>
  <sodipodi:namedview
     inkscape:window-height="767"
     inkscape:pageshadow="2"
     inkscape:pageopacity="0.0"
     borderopacity="1.0"
     bordercolor="#666666"
     pagecolor="#ffffff"
     id="base"
     showgrid="false"
     showguides="true"
     inkscape:guide-bbox="true"
     inkscape:zoom="0.27660659"
     inkscape:cx="508.15642"
     inkscape:cy="341.95077"
     inkscape:window-x="0"
     inkscape:window-y="0"
     inkscape:current-layer="svg5496"
     inkscape:window-width="1278"
     inkscape:window-maximized="1">
    <sodipodi:guide
       orientation="horizontal"
       position="200"
       id="guide5596" />
  </sodipodi:namedview>
  <defs
     id="defs5498">
    <inkscape:perspective
       sodipodi:type="inkscape:persp3d"
       inkscape:vp_x="0 : 500 : 1"
       inkscape:vp_y="0 : 1000 : 0"
       inkscape:vp_z="1000 : 500 : 1"
       inkscape:persp3d-origin="500 : 333.33333 : 1"
       id="perspective2918" />
    <inkscape:perspective
       id="perspective2907"
       inkscape:persp3d-origin="0.5 : 0.33333333 : 1"
       inkscape:vp_z="1 : 0.5 : 1"
       inkscape:vp_y="0 : 1000 : 0"
       inkscape:vp_x="0 : 0.5 : 1"
       sodipodi:type="inkscape:persp3d" />
    <inkscape:perspective
       id="perspective8266"
       inkscape:persp3d-origin="0.5 : 0.33333333 : 1"
       inkscape:vp_z="1 : 0.5 : 1"
       inkscape:vp_y="0 : 1000 : 0"
       inkscape:vp_x="0 : 0.5 : 1"
       sodipodi:type="inkscape:persp3d" />
    <inkscape:perspective
       sodipodi:type="inkscape:persp3d"
       inkscape:vp_x="0 : 0.5 : 1"
       inkscape:vp_y="0 : 1000 : 0"
       inkscape:vp_z="1 : 0.5 : 1"
       inkscape:persp3d-origin="0.5 : 0.33333333 : 1"
       id="perspective2834" />
    <inkscape:perspective
       sodipodi:type="inkscape:persp3d"
       inkscape:vp_x="0 : 0.5 : 1"
       inkscape:vp_y="0 : 1000 : 0"
       inkscape:vp_z="1 : 0.5 : 1"
       inkscape:persp3d-origin="0.5 : 0.33333333 : 1"
       id="perspective4483" />
    <inkscape:perspective
       sodipodi:type="inkscape:persp3d"
       inkscape:vp_x="0 : 0.5 : 1"
       inkscape:vp_y="0 : 1000 : 0"
       inkscape:vp_z="1 : 0.5 : 1"
       inkscape:persp3d-origin="0.5 : 0.33333333 : 1"
       id="perspective4461" />
    <inkscape:perspective
       sodipodi:type="inkscape:persp3d"
       inkscape:vp_x="0 : 0.5 : 1"
       inkscape:vp_y="0 : 1000 : 0"
       inkscape:vp_z="1 : 0.5 : 1"
       inkscape:persp3d-origin="0.5 : 0.33333333 : 1"
       id="perspective2822" />
    <inkscape:perspective
       id="perspective8"
       inkscape:persp3d-origin="500 : 333.33333 : 1"
       inkscape:vp_z="1000 : 500 : 1"
       inkscape:vp_y="0 : 1000 : 0"
       inkscape:vp_x="0 : 500 : 1"
       sodipodi:type="inkscape:persp3d" />
  </defs>
  <path
     sodipodi:nodetypes="cssssssssssssssc"
     id="path2857"
     d="m 371.93011,664.62054 c -8.52306,16.43758 -15.53199,31.73793 -20.26562,50.53699 -1.88506,7.4863 0.0253,18.7484 7.48458,19.5023 58.7872,5.9414 126.57402,14.0026 189.84074,48.8866 3.19797,1.7632 5.29798,3.4637 2.05296,5.9803 -105.60609,81.9032 -248.30003,122.8549 -343.07483,116.7503 C 96.355757,899.08763 32.22114,830.53103 33.221237,749.97083 33.86154,698.39293 67.558785,643.6304 94.091367,596.69659 102.05049,582.6176 84.582199,569.8419 75.273583,584.58115 22.478142,668.17743 -0.78273333,747.52216 0.57946667,830.53853 2.3535417,939.58804 94.772607,995.46263 198.91463,998.68733 c 155.24808,4.82317 353.20376,-119.655 375.4613,-164.7992 11.05604,-22.4245 24.37021,-53.9079 27.11575,-83.386 0.92077,-9.8858 -1.93937,-14.0154 -9.03882,-20.2325 -35.90861,-31.4456 -102.86466,-44.38714 -161.61624,-56.6661 -20.46327,-4.27678 -42.40903,-8.19098 -58.90651,-8.98299 z"
     style="color:#000000;fill:#ff0000;fill-opacity:0.60784314;stroke:#000000;stroke-width:0;stroke-linecap:butt;stroke-linejoin:miter;stroke-miterlimit:4;stroke-opacity:1;stroke-dasharray:none;stroke-dashoffset:0;marker:none;visibility:visible;display:inline;overflow:visible;enable-background:accumulate" />
  <g
     id="layer1" />
  <g
     id="layer1-1"
     transform="translate(-409.83059,309.19995)" />
  <path
     style="color:#000000;fill:#ff0000;fill-opacity:0.60784314;stroke:#000000;stroke-width:0;stroke-linecap:butt;stroke-linejoin:miter;stroke-miterlimit:4;stroke-opacity:1;stroke-dasharray:none;stroke-dashoffset:0;marker:none;visibility:visible;display:inline;overflow:visible;enable-background:accumulate"
     d="m 399.01357,626.67123 c -5.71073,2.474 -10.23401,6.0999 -13.01715,11.4012 -14.8785,28.3391 -27.19286,48.7331 -34.33193,77.0851 -1.88506,7.4863 -0.002,19.30401 7.48458,19.5023 11.11352,0.29435 46.59353,-17.41383 56.75869,-43.84596 7.00933,-18.22611 5.92558,-24.75567 14.11636,-28.77604 80.10083,-39.3168 175.41157,-60.5527 238.72601,-66.8364 99.02053,-9.8274 163.82474,0.8161 235.26403,15.3246 4.9265,1.0002 7.1447,1.7071 9.7539,-2.2872 11.7001,-17.9109 24.9299,-38.43727 36.3115,-60.34056 3.5558,-6.84294 -3.1806,-10.90728 -12.6681,-13.32343 -81.86307,-5.35915 -145.48907,-19.8561 -221.83155,-52.14049 -32.41914,-14.72851 -82.10304,-46.02696 -123.92084,-66.29902 -22.37527,-10.84686 -44.8698,-13.02492 -62.18696,-7.69609 -57.80197,17.78682 -78.29667,50.60179 -94.06945,86.38711 -3.66074,8.30549 -0.90175,16.81252 7.9677,13.63787 96.76254,-34.63442 148.97484,-4.39776 203.97521,31.13734 3.40572,2.20039 7.97344,4.10884 3.81609,5.08422 -91.42375,13.22258 -173.80427,43.94145 -252.14809,81.98545 z"
     id="path2859"
     sodipodi:nodetypes="csssssssssccssssscc" />
</svg>
