<?xml version="1.0" encoding="UTF-8" standalone="no"?>
<!-- Created with Inkscape (http://www.inkscape.org/) -->

<svg
   xmlns:dc="http://purl.org/dc/elements/1.1/"
   xmlns:cc="http://creativecommons.org/ns#"
   xmlns:rdf="http://www.w3.org/1999/02/22-rdf-syntax-ns#"
   xmlns:svg="http://www.w3.org/2000/svg"
   xmlns="http://www.w3.org/2000/svg"
   xmlns:sodipodi="http://sodipodi.sourceforge.net/DTD/sodipodi-0.dtd"
   xmlns:inkscape="http://www.inkscape.org/namespaces/inkscape"
   version="1.0"
   width="1000"
   height="1000"
   id="svg5496"
   sodipodi:version="0.32"
   inkscape:version="0.47pre4 r22446"
   sodipodi:docname="haa+raa.isol.svg"
   inkscape:output_extension="org.inkscape.output.svg.inkscape">
  <metadata
     id="metadata5594">
    <rdf:RDF>
      <cc:Work
         rdf:about="">
        <dc:format>image/svg+xml</dc:format>
        <dc:type
           rdf:resource="http://purl.org/dc/dcmitype/StillImage" />
      </cc:Work>
    </rdf:RDF>
  </metadata>
  <sodipodi:namedview
     inkscape:pageshadow="2"
     inkscape:pageopacity="0.0"
     guidetolerance="10.0"
     gridtolerance="10.0"
     objecttolerance="10.0"
     borderopacity="1.0"
     bordercolor="#666666"
     pagecolor="#ffffff"
     id="base"
     showgrid="false"
     showguides="true"
     inkscape:guide-bbox="true"
     inkscape:zoom="0.68073745"
     inkscape:cx="409.8336"
     inkscape:cy="283.72734"
     inkscape:window-x="0"
     inkscape:window-y="0"
     inkscape:current-layer="svg5496"
     inkscape:window-width="1278"
     inkscape:window-height="767"
     inkscape:window-maximized="1">
    <sodipodi:guide
       orientation="horizontal"
       position="200"
       id="guide5596" />
  </sodipodi:namedview>
  <defs
     id="defs5498">
    <inkscape:perspective
       sodipodi:type="inkscape:persp3d"
       inkscape:vp_x="0 : 500 : 1"
       inkscape:vp_y="0 : 1000 : 0"
       inkscape:vp_z="1000 : 500 : 1"
       inkscape:persp3d-origin="500 : 333.33333 : 1"
       id="perspective8" />
    <inkscape:perspective
       id="perspective2388"
       inkscape:persp3d-origin="372.04724 : 350.78739 : 1"
       inkscape:vp_z="744.09448 : 526.18109 : 1"
       inkscape:vp_y="0 : 1000 : 0"
       inkscape:vp_x="0 : 526.18109 : 1"
       sodipodi:type="inkscape:persp3d" />
    <inkscape:perspective
       id="perspective4800"
       inkscape:persp3d-origin="0.5 : 0.33333333 : 1"
       inkscape:vp_z="1 : 0.5 : 1"
       inkscape:vp_y="0 : 1000 : 0"
       inkscape:vp_x="0 : 0.5 : 1"
       sodipodi:type="inkscape:persp3d" />
  </defs>
  <g
     id="layer1"
     transform="translate(163.45964,236.77129)" />
  <path
     sodipodi:nodetypes="csssssssssssss"
     id="path2816"
     d="m 374.36456,688.20741 c -3.60468,1.18756 -5.1674,2.456 -6.1341,4.273 l -21.8185,40.992 c -1.9002,3.57 -1.0758,6.676 1.5867,8.069 11.0026,5.764 34.5514,26.746 37.538,32.892 1.7687,3.643 0.4407,5.774 -1.2243,8.888 -43.945,82.158 -98.4077,123.371 -163.9197,155.314 -30.4728,14.85799 -65.986,28.74099 -88.3123,27.75399 -35.063504,-1.548 -79.858604,-20.586 -119.955804,-43.16299 -8.881,-5 -15.7354,8.835 -8.5438,14.21 59.911,44.78699 144.861204,95.29699 168.696604,92.43799 48.5719,-5.829 105.447,-27.994 153.7089,-85.336 36.484,-43.34999 71.53873,-111.06773 85.4615,-190.31399 7.19242,-40.93813 -27.19859,-69.27349 -37.0832,-66.017 z"
     style="fill:#ff0000;fill-opacity:0.60784314;fill-rule:evenodd;stroke:#000000;stroke-width:0;stroke-linecap:butt;stroke-linejoin:miter;stroke-miterlimit:4;stroke-opacity:1;stroke-dasharray:none" />
  <path
     sodipodi:nodetypes="cssccssssssssscsss"
     id="path2820"
     d="m 900.24344,640.76441 c 1.4235,-5.814 -2.1409,-10.187 -10.8314,-10.374 -63.0453,-1.351 -139.76828,-18.95 -205.28508,-40.81099 -56.1696,-18.741 -113.2193,-55.558 -165.2773,-79.765 -43.2807,-17.886 -100.2392,-7.161 -135.056,23.109 -16.2798,16.745 -26.8983,41.462 -40.2884,76.56899 -1.9848,5.204 1.5294,7.58 5.8647,6.176 45.9802,-14.877 84.8508,-23.13299 118.5991,-21.68299 38.386,1.648 70.5459,15.59599 106.1491,41.96599 7.3009,5.409 4.6891,7.381 -1.9949,8.146 -47.5347,5.444 -154.9957,32.392 -197.7587,44.11 -3.6616,1.005 -5.23487,2.42214 -6.1341,4.273 -2.98876,6.15169 23.05647,57.40003 29.08212,57.6875 2.1379,0.10199 4.26758,-0.98444 6.42296,-1.81948 81.06908,-31.40796 167.90358,-45.46197 253.61422,-57.34702 62.9479,-7.607 149.85708,5.906 198.20038,23.434 5.1647,1.872 8.67,1.986 11.7439,-2.245 14.827,-20.407 27.4842,-49.099 32.9494,-71.426 z"
     style="fill:#ff0000;fill-opacity:0.60784314;fill-rule:evenodd;stroke:#000000;stroke-width:0;stroke-linecap:butt;stroke-linejoin:miter;stroke-miterlimit:4;stroke-opacity:1;stroke-dasharray:none" />
</svg>
