<?xml version="1.0" encoding="UTF-8" standalone="no"?>
<!-- Created with Inkscape (http://www.inkscape.org/) -->

<svg
   xmlns:dc="http://purl.org/dc/elements/1.1/"
   xmlns:cc="http://creativecommons.org/ns#"
   xmlns:rdf="http://www.w3.org/1999/02/22-rdf-syntax-ns#"
   xmlns:svg="http://www.w3.org/2000/svg"
   xmlns="http://www.w3.org/2000/svg"
   xmlns:sodipodi="http://sodipodi.sourceforge.net/DTD/sodipodi-0.dtd"
   xmlns:inkscape="http://www.inkscape.org/namespaces/inkscape"
   version="1.0"
   width="1000"
   height="1000"
   id="svg5496"
   sodipodi:version="0.32"
   inkscape:version="0.47pre4 r22446"
   sodipodi:docname="haa+yaa.isol.svg"
   inkscape:output_extension="org.inkscape.output.svg.inkscape">
  <metadata
     id="metadata5594">
    <rdf:RDF>
      <cc:Work
         rdf:about="">
        <dc:format>image/svg+xml</dc:format>
        <dc:type
           rdf:resource="http://purl.org/dc/dcmitype/StillImage" />
        <dc:title />
      </cc:Work>
    </rdf:RDF>
  </metadata>
  <sodipodi:namedview
     inkscape:window-height="725"
     inkscape:pageshadow="2"
     inkscape:pageopacity="0.0"
     borderopacity="1.0"
     bordercolor="#666666"
     pagecolor="#ffffff"
     id="base"
     showgrid="false"
     showguides="true"
     inkscape:guide-bbox="true"
     inkscape:zoom="0.454"
     inkscape:cx="492.22164"
     inkscape:cy="370.9322"
     inkscape:window-x="0"
     inkscape:window-y="24"
     inkscape:current-layer="svg5496"
     inkscape:window-width="1280"
     inkscape:window-maximized="1">
    <sodipodi:guide
       orientation="horizontal"
       position="200"
       id="guide5596" />
  </sodipodi:namedview>
  <defs
     id="defs5498">
    <inkscape:perspective
       sodipodi:type="inkscape:persp3d"
       inkscape:vp_x="0 : 500 : 1"
       inkscape:vp_y="0 : 1000 : 0"
       inkscape:vp_z="1000 : 500 : 1"
       inkscape:persp3d-origin="500 : 333.33333 : 1"
       id="perspective2918" />
    <inkscape:perspective
       id="perspective2907"
       inkscape:persp3d-origin="0.5 : 0.33333333 : 1"
       inkscape:vp_z="1 : 0.5 : 1"
       inkscape:vp_y="0 : 1000 : 0"
       inkscape:vp_x="0 : 0.5 : 1"
       sodipodi:type="inkscape:persp3d" />
    <inkscape:perspective
       id="perspective8266"
       inkscape:persp3d-origin="0.5 : 0.33333333 : 1"
       inkscape:vp_z="1 : 0.5 : 1"
       inkscape:vp_y="0 : 1000 : 0"
       inkscape:vp_x="0 : 0.5 : 1"
       sodipodi:type="inkscape:persp3d" />
  </defs>
  <g
     id="layer1" />
  <path
     style="color:#000000;fill:#ff0000;fill-opacity:0.60784314;stroke:#000000;stroke-width:1;stroke-linecap:butt;stroke-linejoin:miter;stroke-miterlimit:4;stroke-opacity:1;stroke-dasharray:none;stroke-dashoffset:0;marker:none;visibility:visible;display:inline;overflow:visible;enable-background:accumulate"
     d="m 399.01357,626.67123 c -5.71073,2.474 -10.23401,6.0999 -13.01715,11.4012 -14.8785,28.3391 -27.19286,48.7331 -34.33193,77.0851 -1.88506,7.4863 0.0253,18.7484 7.48458,19.5023 58.7872,5.9414 126.57402,14.0026 189.84074,48.8866 3.19797,1.7632 5.29798,3.4637 2.05296,5.9803 -105.60609,81.9032 -248.30003,122.8549 -343.07483,116.7503 -111.612183,-7.1894 -175.746793,-75.746 -174.746703,-156.3062 0.64031,-51.5779 32.952749,-103.6572 59.85777,-155.6786 5.47581,-10.5876 -5.28006,-24.62753 -15.464341,-8.5089 -63.128529,99.9139 -78.39739933,178.2033 -77.03519933,244.7552 2.23188003,109.0411 94.19314033,164.9241 198.33516333,168.1488 155.24808,4.82317 353.20376,-119.655 375.4613,-164.7992 11.05604,-22.4245 24.37021,-53.9079 27.11575,-83.386 0.92077,-9.8858 -1.93937,-14.0154 -9.03882,-20.2325 -35.90861,-31.4456 -102.98694,-43.7721 -161.61624,-56.6661 -8.9169,-1.9611 -8.12469,-7.9778 -0.8125,-11.5657 80.89685,-39.6956 175.41157,-60.5527 238.72601,-66.8364 99.02053,-9.8274 163.82474,0.8161 235.26403,15.3246 4.9265,1.0002 7.1447,1.7071 9.7539,-2.2872 11.7001,-17.9109 24.9299,-38.43727 36.3115,-60.34056 3.5558,-6.84294 -3.1806,-10.90728 -12.6681,-13.32343 -81.86307,-5.35915 -145.48907,-19.8561 -221.83155,-52.14049 -32.41914,-14.72851 -82.10304,-46.02696 -123.92084,-66.29902 -22.37527,-10.84686 -44.8698,-13.02492 -62.18696,-7.69609 -57.80197,17.78682 -78.29667,50.60179 -94.06945,86.38711 -3.66074,8.30549 -0.90175,16.81252 7.9677,13.63787 96.76254,-34.63442 148.97484,-4.39776 203.97521,31.13734 3.40572,2.20039 7.97344,4.10884 3.81609,5.08422 -91.42375,13.22258 -173.80427,43.94145 -252.14809,81.98545 z"
     id="path2929"
     sodipodi:nodetypes="cssssssssssssssssssssccssssscc" />
</svg>
