<?xml version="1.0" encoding="UTF-8" standalone="no"?>
<!-- Created with Inkscape (http://www.inkscape.org/) -->

<svg
   xmlns:dc="http://purl.org/dc/elements/1.1/"
   xmlns:cc="http://creativecommons.org/ns#"
   xmlns:rdf="http://www.w3.org/1999/02/22-rdf-syntax-ns#"
   xmlns:svg="http://www.w3.org/2000/svg"
   xmlns="http://www.w3.org/2000/svg"
   xmlns:sodipodi="http://sodipodi.sourceforge.net/DTD/sodipodi-0.dtd"
   xmlns:inkscape="http://www.inkscape.org/namespaces/inkscape"
   version="1.0"
   width="1000"
   height="1000"
   id="svg5496"
   sodipodi:version="0.32"
   inkscape:version="0.47pre4 r22446"
   sodipodi:docname="haa.isol.fina.svg"
   inkscape:output_extension="org.inkscape.output.svg.inkscape">
  <metadata
     id="metadata5594">
    <rdf:RDF>
      <cc:Work
         rdf:about="">
        <dc:format>image/svg+xml</dc:format>
        <dc:type
           rdf:resource="http://purl.org/dc/dcmitype/StillImage" />
      </cc:Work>
    </rdf:RDF>
  </metadata>
  <sodipodi:namedview
     inkscape:pageshadow="2"
     inkscape:pageopacity="0.0"
     guidetolerance="10.0"
     gridtolerance="10.0"
     objecttolerance="10.0"
     borderopacity="1.0"
     bordercolor="#666666"
     pagecolor="#ffffff"
     id="base"
     showgrid="false"
     showguides="true"
     inkscape:guide-bbox="true"
     inkscape:zoom="0.64205296"
     inkscape:cx="330.27406"
     inkscape:cy="319.74084"
     inkscape:window-x="0"
     inkscape:window-y="24"
     inkscape:current-layer="svg5496"
     inkscape:window-width="1280"
     inkscape:window-height="727"
     inkscape:window-maximized="1">
    <sodipodi:guide
       orientation="horizontal"
       position="200"
       id="guide5596" />
  </sodipodi:namedview>
  <defs
     id="defs5498">
    <inkscape:perspective
       sodipodi:type="inkscape:persp3d"
       inkscape:vp_x="0 : 500 : 1"
       inkscape:vp_y="0 : 1000 : 0"
       inkscape:vp_z="1000 : 500 : 1"
       inkscape:persp3d-origin="500 : 333.33333 : 1"
       id="perspective8" />
    <inkscape:perspective
       id="perspective2388"
       inkscape:persp3d-origin="372.04724 : 350.78739 : 1"
       inkscape:vp_z="744.09448 : 526.18109 : 1"
       inkscape:vp_y="0 : 1000 : 0"
       inkscape:vp_x="0 : 526.18109 : 1"
       sodipodi:type="inkscape:persp3d" />
    <inkscape:perspective
       id="perspective5485"
       inkscape:persp3d-origin="0.5 : 0.33333333 : 1"
       inkscape:vp_z="1 : 0.5 : 1"
       inkscape:vp_y="0 : 1000 : 0"
       inkscape:vp_x="0 : 0.5 : 1"
       sodipodi:type="inkscape:persp3d" />
  </defs>
  <g
     id="layer1"
     transform="translate(-141.0553,90.740596)" />
  <path
     style="fill:#000000;fill-rule:evenodd;stroke:#000000;stroke-width:1px;stroke-linecap:butt;stroke-linejoin:miter;stroke-opacity:1"
     d="M 603.56025,241.82207 L 572.54863,302.71899 C 569.72359,308.26647 566.32425,311.01982 560.67384,311.43896 C 436.28527,320.66591 308.79059,338.9085 216.92789,386.91366 C 92.286002,452.04841 34.165722,574.40063 55.100322,683.57069 C 68.167432,751.71324 112.49315,814.91399 191.48773,857.52469 C 310.74498,921.85358 575.95279,928.15174 702.66772,893.85561 C 715.11641,890.4863 719.84806,905.14788 709.99906,909.66768 C 644.03112,939.941 527.54318,1000.1631 504.38596,1001.0382 C 359.74859,1002.1504 183.98235,988.18197 83.502132,902.36804 C -12.111498,820.71037 -10.798708,703.97063 20.197112,593.04671 C 51.198392,482.10326 131.10501,383.25385 281.85219,305.49831 C 195.43294,267.97317 133.45632,269.86254 52.528142,298.46461 C 44.261162,301.38637 40.226182,299.10931 41.949302,291.99934 C 52.127152,250.00316 77.825742,204.39355 124.68577,189.02544 C 184.52767,169.39984 243.81762,196.5604 302.74974,211.36003 C 401.03197,237.40751 504.07855,245.87102 582.1155,229.24833 C 598.16541,225.82953 607.02516,235.01808 603.56025,241.82207 z"
     id="path2394"
     sodipodi:nodetypes="cssssssscsscssscss" />
  <path
     style="fill:#000000;fill-rule:evenodd;stroke:#000000;stroke-width:1px;stroke-linecap:butt;stroke-linejoin:miter;stroke-opacity:1"
     d="M 616.65395,396.48949 L 616.65395,497.81108 C 522.10719,502.44157 441.43679,473.96644 406.85219,434.48509 C 372.26758,395.00374 415.95122,306.13823 426.12531,274.79346 L 450.35439,282.50271 C 447.59054,311.22809 431.05801,346.45316 471.83016,369.50712 C 512.25092,392.36238 561.34298,398.57082 616.65395,396.48949 z"
     id="path2408"
     sodipodi:nodetypes="cczccsc" />
  <path
     style="fill:#ff0000;fill-opacity:0.60784314;fill-rule:evenodd;stroke:#000000;stroke-width:1;stroke-linecap:butt;stroke-linejoin:miter;stroke-miterlimit:4;stroke-opacity:1;stroke-dasharray:none"
     d="m 596.28975,232.68785 -27.23374,60.9446 c -2.48089,5.5519 -5.70573,8.426 -11.32008,9.1685 -123.59488,16.34431 -246.24856,42.01541 -334.8044,94.40981 -125.604782,74.3144 -174.664483,192.08 -147.098773,296.7893 17.20617,65.3584 62.925973,125.0097 146.024123,157.7699 110.4045,43.5253 324.98404,51.6603 473.28918,27.0628 33.41848,-5.5427 29.82458,25.8126 14.62845,30.3021 -79.17348,23.391 -114.31216,44.5355 -145.25843,59.02477 -8.73205,4.0884 -11.56542,6.3943 -20.83245,7.2629 -143.99267,13.4958 -320.5967,6.5563 -426.134,-70.75987 C 17.123837,831.09126 11.301917,717.71376 35.463457,608.21726 59.629257,498.70136 137.78269,378.80476 295.32414,298.81925 c -98.15868,-9.8554 -171.72879,-13.2077 -224.895973,15.66431 -7.67334,4.1669 -17.08793,2.9479 -16.86603,-4.1685 4.06119,-137.92202 149.097173,-106.22081 244.307013,-86.36611 99.6919,19.4414 169.81142,24.4899 276.24729,-2.1906 15.88664,-3.9823 25.21612,4.1201 22.17331,10.9295 z"
     id="path2394-1"
     sodipodi:nodetypes="cssssssssssscsccss" />
</svg>
