<?xml version="1.0" encoding="UTF-8" standalone="no"?>
<!-- Created with Inkscape (http://www.inkscape.org/) -->

<svg
   xmlns:dc="http://purl.org/dc/elements/1.1/"
   xmlns:cc="http://creativecommons.org/ns#"
   xmlns:rdf="http://www.w3.org/1999/02/22-rdf-syntax-ns#"
   xmlns:svg="http://www.w3.org/2000/svg"
   xmlns="http://www.w3.org/2000/svg"
   xmlns:sodipodi="http://sodipodi.sourceforge.net/DTD/sodipodi-0.dtd"
   xmlns:inkscape="http://www.inkscape.org/namespaces/inkscape"
   version="1.0"
   width="1000"
   height="1000"
   id="svg5496"
   sodipodi:version="0.32"
   inkscape:version="0.47pre4 r22446"
   sodipodi:docname="haa.medi.alt.svg"
   inkscape:output_extension="org.inkscape.output.svg.inkscape">
  <metadata
     id="metadata5594">
    <rdf:RDF>
      <cc:Work
         rdf:about="">
        <dc:format>image/svg+xml</dc:format>
        <dc:type
           rdf:resource="http://purl.org/dc/dcmitype/StillImage" />
      </cc:Work>
    </rdf:RDF>
  </metadata>
  <sodipodi:namedview
     inkscape:pageshadow="2"
     inkscape:pageopacity="0.0"
     guidetolerance="10.0"
     gridtolerance="10.0"
     objecttolerance="10.0"
     borderopacity="1.0"
     bordercolor="#666666"
     pagecolor="#ffffff"
     id="base"
     showgrid="false"
     showguides="true"
     inkscape:guide-bbox="true"
     inkscape:zoom="1.0752022"
     inkscape:cx="266.84"
     inkscape:cy="402.17367"
     inkscape:window-x="0"
     inkscape:window-y="0"
     inkscape:current-layer="svg5496"
     inkscape:window-width="1278"
     inkscape:window-height="767"
     inkscape:window-maximized="1">
    <sodipodi:guide
       orientation="horizontal"
       position="200"
       id="guide5596" />
  </sodipodi:namedview>
  <defs
     id="defs5498">
    <inkscape:perspective
       sodipodi:type="inkscape:persp3d"
       inkscape:vp_x="0 : 500 : 1"
       inkscape:vp_y="0 : 1000 : 0"
       inkscape:vp_z="1000 : 500 : 1"
       inkscape:persp3d-origin="500 : 333.33333 : 1"
       id="perspective4356" />
    <inkscape:perspective
       id="perspective4365"
       inkscape:persp3d-origin="372.04724 : 350.78739 : 1"
       inkscape:vp_z="744.09448 : 526.18109 : 1"
       inkscape:vp_y="0 : 1000 : 0"
       inkscape:vp_x="0 : 526.18109 : 1"
       sodipodi:type="inkscape:persp3d" />
    <inkscape:perspective
       id="perspective5325"
       inkscape:persp3d-origin="0.5 : 0.33333333 : 1"
       inkscape:vp_z="1 : 0.5 : 1"
       inkscape:vp_y="0 : 1000 : 0"
       inkscape:vp_x="0 : 0.5 : 1"
       sodipodi:type="inkscape:persp3d" />
  </defs>
  <path
     sodipodi:nodetypes="cccscsssscsccsssscccsc"
     id="path2816"
     d="M 115.58661,518.9177 C 64.7495,547.2516 10.4084,641.4261 -3.2838,702.9072 -14.712594,734.68233 -15.942252,766.98542 0,800 c 75.2067,-0.4214 152.15621,-34.5391 214.71091,-61.7497 37.4926,-16.309 79.2621,-37.2416 119.6669,-52.8555 -11.5374,71.9082 -12.132,112.7239 45.1822,117.0182 42.7642,3.2042 101.65097,1.91225 144.6294,1.8042 22.24996,-0.0559 27.41444,-89.98882 -0.2668,-90.05 -76.40543,-0.16886 -117.5311,1.0293 -136.3524,-10.7287 -11.3868,-7.1137 -17.565,-15.8613 -18.7845,-29.0757 39.9184,-12.3302 71.7727,-11.0561 114.9144,-9.0878 6.7207,0.3066 14.6913,0.8701 18.1891,-8.2244 l 20.9802,-62.2062 c 3.9939,-10.3839 -2.2811,-13.6154 -7.1983,-13.4216 -46.7112,1.8411 -59.6054,2.749 -95.2365,-0.8424 -97.6726,-9.8447 -176.778,-46.2459 -242.0364,-65.3071 -19.5346,-5.7058 -44.5288,-6.5455 -62.8116,3.6444 z m 126.8272,125.3814 c -59.7359,26.7027 -141.7,57.8958 -207.33171,62.4736 -5.773,-0.2775 -14.8685,-1.3148 -17.434,-4.5424 9.3548,-34.8939 50.2492,-82.4876 78.3313,-88.6089 39.76961,-8.669 82.89951,7.8559 146.43441,30.6777 z"
     style="fill:#ff0000;fill-opacity:0.60784314;fill-rule:evenodd;stroke:#000000;stroke-width:0.94921172px;stroke-linecap:butt;stroke-linejoin:miter;stroke-opacity:1" />
  <g
     id="layer1"
     transform="matrix(1.3,0,0,1.3,-524.88053,-98.056251)" />
</svg>
