<?xml version="1.0" encoding="UTF-8" standalone="no"?>
<!-- Created with Inkscape (http://www.inkscape.org/) -->

<svg
   xmlns:dc="http://purl.org/dc/elements/1.1/"
   xmlns:cc="http://creativecommons.org/ns#"
   xmlns:rdf="http://www.w3.org/1999/02/22-rdf-syntax-ns#"
   xmlns:svg="http://www.w3.org/2000/svg"
   xmlns="http://www.w3.org/2000/svg"
   xmlns:sodipodi="http://sodipodi.sourceforge.net/DTD/sodipodi-0.dtd"
   xmlns:inkscape="http://www.inkscape.org/namespaces/inkscape"
   version="1.0"
   width="1000"
   height="1000"
   id="svg5496"
   sodipodi:version="0.32"
   inkscape:version="0.47pre4 r22446"
   sodipodi:docname="New document 47"
   inkscape:output_extension="org.inkscape.output.svg.inkscape">
  <metadata
     id="metadata5594">
    <rdf:RDF>
      <cc:Work
         rdf:about="">
        <dc:format>image/svg+xml</dc:format>
        <dc:type
           rdf:resource="http://purl.org/dc/dcmitype/StillImage" />
        <dc:title></dc:title>
      </cc:Work>
    </rdf:RDF>
  </metadata>
  <sodipodi:namedview
     inkscape:window-height="618"
     inkscape:window-width="641"
     inkscape:pageshadow="2"
     inkscape:pageopacity="0.0"
     borderopacity="1.0"
     bordercolor="#666666"
     pagecolor="#ffffff"
     id="base"
     showgrid="false"
     showguides="true"
     inkscape:guide-bbox="true"
     inkscape:zoom="0.454"
     inkscape:cx="500"
     inkscape:cy="500"
     inkscape:window-x="0"
     inkscape:window-y="25"
     inkscape:current-layer="svg5496"
     inkscape:window-maximized="0">
    <sodipodi:guide
       orientation="horizontal"
       position="200"
       id="guide5596" />
  </sodipodi:namedview>
  <defs
     id="defs5498">
    <inkscape:perspective
       sodipodi:type="inkscape:persp3d"
       inkscape:vp_x="0 : 500 : 1"
       inkscape:vp_y="0 : 1000 : 0"
       inkscape:vp_z="1000 : 500 : 1"
       inkscape:persp3d-origin="500 : 333.33333 : 1"
       id="perspective5423" />
    <inkscape:perspective
       id="perspective5442"
       inkscape:persp3d-origin="0.5 : 0.33333333 : 1"
       inkscape:vp_z="1 : 0.5 : 1"
       inkscape:vp_y="0 : 1000 : 0"
       inkscape:vp_x="0 : 0.5 : 1"
       sodipodi:type="inkscape:persp3d" />
  </defs>
  <g
     id="layer1" />
  <path
     style="fill:#ff0000;fill-opacity:0.60784314;fill-rule:evenodd;stroke:#000000;stroke-width:1;stroke-linecap:butt;stroke-linejoin:miter;stroke-miterlimit:4;stroke-opacity:1;stroke-dasharray:none"
     d="m 572.62781,250.74702 -27.23374,60.9446 c -2.48089,5.5519 -5.70573,8.426 -11.32008,9.1685 -123.59488,16.34431 -246.24856,42.01541 -334.8044,94.40981 -125.60478,74.3144 -174.66448,192.08 -147.09877,296.7893 17.20617,65.3584 62.92597,125.0097 146.02412,157.7699 110.4045,43.5253 324.98404,51.6603 473.28918,27.0628 33.41848,-5.5427 29.82458,25.8126 14.62845,30.3021 -79.17348,23.391 -114.31216,44.5355 -145.25843,59.02477 -8.73205,4.0884 -11.56542,6.3943 -20.83245,7.2629 -143.99267,13.4958 -320.5967,6.5563 -426.134,-70.75987 C -6.5381,849.15043 -12.36002,735.77293 11.80152,626.27643 35.96732,516.76053 114.12075,396.86393 271.6622,316.87842 c -98.15868,-9.8554 -171.72879,-13.2077 -224.89597,15.66431 -7.67334,4.1669 -17.08793,2.9479 -16.86603,-4.1685 4.06119,-137.92202 149.09717,-106.22081 244.30701,-86.36611 99.6919,19.4414 169.81142,24.4899 276.24729,-2.1906 15.88664,-3.9823 25.21612,4.1201 22.17331,10.9295 z"
     id="path2394-1"
     sodipodi:nodetypes="cssssssssssscsccss" />
</svg>
