<?xml version="1.0" encoding="UTF-8" standalone="no"?>
<!-- Created with Inkscape (http://www.inkscape.org/) -->

<svg
   xmlns:dc="http://purl.org/dc/elements/1.1/"
   xmlns:cc="http://creativecommons.org/ns#"
   xmlns:rdf="http://www.w3.org/1999/02/22-rdf-syntax-ns#"
   xmlns:svg="http://www.w3.org/2000/svg"
   xmlns="http://www.w3.org/2000/svg"
   xmlns:sodipodi="http://sodipodi.sourceforge.net/DTD/sodipodi-0.dtd"
   xmlns:inkscape="http://www.inkscape.org/namespaces/inkscape"
   version="1.0"
   width="1000"
   height="1000"
   id="svg5496"
   sodipodi:version="0.32"
   inkscape:version="0.47pre4 r22446"
   sodipodi:docname="haa.medi.svg"
   inkscape:output_extension="org.inkscape.output.svg.inkscape">
  <metadata
     id="metadata5594">
    <rdf:RDF>
      <cc:Work
         rdf:about="">
        <dc:format>image/svg+xml</dc:format>
        <dc:type
           rdf:resource="http://purl.org/dc/dcmitype/StillImage" />
      </cc:Work>
    </rdf:RDF>
  </metadata>
  <sodipodi:namedview
     inkscape:pageshadow="2"
     inkscape:pageopacity="0.0"
     guidetolerance="10.0"
     gridtolerance="10.0"
     objecttolerance="10.0"
     borderopacity="1.0"
     bordercolor="#666666"
     pagecolor="#ffffff"
     id="base"
     showgrid="false"
     showguides="true"
     inkscape:guide-bbox="true"
     inkscape:zoom="0.99523487"
     inkscape:cx="365.1924"
     inkscape:cy="362.47853"
     inkscape:window-x="0"
     inkscape:window-y="0"
     inkscape:current-layer="svg5496"
     inkscape:window-width="1278"
     inkscape:window-height="767"
     inkscape:window-maximized="1">
    <sodipodi:guide
       orientation="horizontal"
       position="200"
       id="guide5596" />
  </sodipodi:namedview>
  <defs
     id="defs5498">
    <inkscape:perspective
       sodipodi:type="inkscape:persp3d"
       inkscape:vp_x="0 : 500 : 1"
       inkscape:vp_y="0 : 1000 : 0"
       inkscape:vp_z="1000 : 500 : 1"
       inkscape:persp3d-origin="500 : 333.33333 : 1"
       id="perspective8" />
    <inkscape:perspective
       id="perspective2388"
       inkscape:persp3d-origin="372.04724 : 350.78739 : 1"
       inkscape:vp_z="744.09448 : 526.18109 : 1"
       inkscape:vp_y="0 : 1000 : 0"
       inkscape:vp_x="0 : 526.18109 : 1"
       sodipodi:type="inkscape:persp3d" />
    <inkscape:perspective
       sodipodi:type="inkscape:persp3d"
       inkscape:vp_x="0 : 526.18109 : 1"
       inkscape:vp_y="0 : 1000 : 0"
       inkscape:vp_z="744.09448 : 526.18109 : 1"
       inkscape:persp3d-origin="372.04724 : 350.78739 : 1"
       id="perspective4365" />
    <inkscape:perspective
       id="perspective4356"
       inkscape:persp3d-origin="500 : 333.33333 : 1"
       inkscape:vp_z="1000 : 500 : 1"
       inkscape:vp_y="0 : 1000 : 0"
       inkscape:vp_x="0 : 500 : 1"
       sodipodi:type="inkscape:persp3d" />
    <inkscape:perspective
       id="perspective5369"
       inkscape:persp3d-origin="0.5 : 0.33333333 : 1"
       inkscape:vp_z="1 : 0.5 : 1"
       inkscape:vp_y="0 : 1000 : 0"
       inkscape:vp_x="0 : 0.5 : 1"
       sodipodi:type="inkscape:persp3d" />
    <inkscape:perspective
       id="perspective5403"
       inkscape:persp3d-origin="0.5 : 0.33333333 : 1"
       inkscape:vp_z="1 : 0.5 : 1"
       inkscape:vp_y="0 : 1000 : 0"
       inkscape:vp_x="0 : 0.5 : 1"
       sodipodi:type="inkscape:persp3d" />
  </defs>
  <path
     style="fill:#ff0000;fill-opacity:0.60784314;fill-rule:evenodd;stroke:#000000;stroke-width:0.97332972px;stroke-linecap:butt;stroke-linejoin:miter;stroke-opacity:1"
     d="m 118.5703,489.53213 c -39.603396,0 -107.2098,18.91499 -128.2531,97.45808 -4.88,18.21469 10.5314,16.99449 20.513,11.78169 51.136004,-26.70519 99.7072,-22.89569 200.481,22.1403 11.0991,4.9602 10.19235,11.11972 2.6446,13.2266 C 172.32046,645.76089 96.32456,687.01896 -0.4259,709.2142 -40.828329,718.4828 -26.252553,806.08342 0,800 c 62.973887,-14.59273 150.9508,-72.9503 233.8809,-97.0077 60.7415,-17.6207 125.9486,-29.0354 191.9395,-32.1191 -16.4435,54.2856 -40.974,105.7231 34.9255,128.8444 27.8829,8.494 99.65747,7.98201 124.3617,8.1349 24.57757,0.1521 41.35918,-89.32434 0.045,-90.5965 -50.6981,-1.56112 -146.8097,3.54 -122.3585,-48.0922 26.8434,0.9493 55.4334,3.1011 86.6438,6.0848 3.9891,0.3815 9.8988,-1.6138 12.0765,-6.1436 10.2983,-21.4206 16.218,-50.5229 23.6472,-73.3071 3.0378,-9.31639 -6.2304,-12.40899 -11.4606,-11.72679 -69.8491,9.11109 -123.3798,1.6535 -180.9066,-7.5127 -44.4529,-7.0829 -88.9875,-22.2197 -129.2765,-37.0234 -50.2533,-18.4649 -110.5689,-50.00288 -144.9475,-50.00288 l -1e-4,0 z"
     id="path2821"
     sodipodi:nodetypes="cssssssscssscssssssss" />
  <g
     id="layer1"
     transform="translate(-239.8556,169.40625)" />
</svg>
