<?xml version="1.0" encoding="UTF-8" standalone="no"?>
<!-- Created with Inkscape (http://www.inkscape.org/) -->

<svg
   xmlns:dc="http://purl.org/dc/elements/1.1/"
   xmlns:cc="http://creativecommons.org/ns#"
   xmlns:rdf="http://www.w3.org/1999/02/22-rdf-syntax-ns#"
   xmlns:svg="http://www.w3.org/2000/svg"
   xmlns="http://www.w3.org/2000/svg"
   xmlns:sodipodi="http://sodipodi.sourceforge.net/DTD/sodipodi-0.dtd"
   xmlns:inkscape="http://www.inkscape.org/namespaces/inkscape"
   version="1.0"
   width="1000"
   height="1000"
   id="svg5496"
   sodipodi:version="0.32"
   inkscape:version="0.47pre0 r21549"
   sodipodi:docname="haa.alt.medi.svg"
   inkscape:output_extension="org.inkscape.output.svg.inkscape">
  <metadata
     id="metadata5594">
    <rdf:RDF>
      <cc:Work
         rdf:about="">
        <dc:format>image/svg+xml</dc:format>
        <dc:type
           rdf:resource="http://purl.org/dc/dcmitype/StillImage" />
      </cc:Work>
    </rdf:RDF>
  </metadata>
  <sodipodi:namedview
     inkscape:pageshadow="2"
     inkscape:pageopacity="0.0"
     guidetolerance="10.0"
     gridtolerance="10.0"
     objecttolerance="10.0"
     borderopacity="1.0"
     bordercolor="#666666"
     pagecolor="#ffffff"
     id="base"
     showgrid="false"
     showguides="true"
     inkscape:guide-bbox="true"
     inkscape:zoom="0.236"
     inkscape:cx="500"
     inkscape:cy="500"
     inkscape:window-x="0"
     inkscape:window-y="25"
     inkscape:current-layer="svg5496">
    <sodipodi:guide
       orientation="horizontal"
       position="200"
       id="guide5596" />
  </sodipodi:namedview>
  <defs
     id="defs5498">
    <inkscape:perspective
       sodipodi:type="inkscape:persp3d"
       inkscape:vp_x="0 : 500 : 1"
       inkscape:vp_y="0 : 1000 : 0"
       inkscape:vp_z="1000 : 500 : 1"
       inkscape:persp3d-origin="500 : 333.33333 : 1"
       id="perspective4356" />
    <inkscape:perspective
       id="perspective4365"
       inkscape:persp3d-origin="372.04724 : 350.78739 : 1"
       inkscape:vp_z="744.09448 : 526.18109 : 1"
       inkscape:vp_y="0 : 1000 : 0"
       inkscape:vp_x="0 : 526.18109 : 1"
       sodipodi:type="inkscape:persp3d" />
  </defs>
  <g
     id="layer1"
     transform="matrix(1.3,0,0,1.3,-524.88053,-98.056251)" />
  <path
     style="fill:#000000;fill-opacity:1;fill-rule:evenodd;stroke:#000000;stroke-width:1px;stroke-linecap:butt;stroke-linejoin:miter;stroke-opacity:1"
     d="M 180.53125 477.1875 C 178.43756 477.20107 176.45481 477.28483 174.53125 477.46875 C 81.216651 486.3914 15.658093 610.34075 2.71875 673.65625 L 2 776 C 81.182819 778.7906 184.70175 747.04648 251.71875 721.09375 C 291.88576 705.53883 333.57854 686.72939 376.78125 672.03125 C 375.74458 713.18812 374.86976 757.25193 385.6875 774.5625 C 391.15684 783.31458 407.11696 799.14006 424.375 799.59375 C 482.28283 801.11605 583.19877 801.74737 595.0625 800 L 594 704.6875 C 548.77134 705.6457 476.55085 701.47868 444.09375 701.8125 C 436.61159 701.89316 428.84154 697.58615 427.21875 695.84375 C 417.55909 685.47209 415.45182 673.57487 415.09375 660.40625 C 457.6431 649.14383 501.58094 643.71138 546.78125 650.75 C 553.78439 651.84053 562.20819 652.29759 566.28125 642.875 L 592.4375 582.25 C 597.08812 571.49143 590.59514 567.28667 585.4375 567.8125 C 539.10963 572.536 516.37307 569.8452 478.875 565.6875 C 389.91746 555.82407 245.43565 476.7666 180.53125 477.1875 z M 131.28125 582.46875 C 156.69286 582.6957 185.57404 587.16755 214.25 592.40625 C 250.86487 599.0953 286.48915 607.89191 310.875 617.4375 C 279.23292 632.58404 237.91179 645.09988 196.90625 654.75 C 127.50057 671.08372 62.288754 681.09898 42.9375 679.375 C 36.872545 678.83468 27.342887 677.35163 24.78125 673.84375 C 36.128976 637.51574 77.136976 587.7471 107.15625 583.78125 C 114.71777 582.7823 122.81071 582.3931 131.28125 582.46875 z "
     id="path4373" />
</svg>
