<?xml version="1.0" encoding="UTF-8" standalone="no"?>
<!-- Created with Inkscape (http://www.inkscape.org/) -->
<svg
   xmlns:dc="http://purl.org/dc/elements/1.1/"
   xmlns:cc="http://creativecommons.org/ns#"
   xmlns:rdf="http://www.w3.org/1999/02/22-rdf-syntax-ns#"
   xmlns:svg="http://www.w3.org/2000/svg"
   xmlns="http://www.w3.org/2000/svg"
   xmlns:sodipodi="http://sodipodi.sourceforge.net/DTD/sodipodi-0.dtd"
   xmlns:inkscape="http://www.inkscape.org/namespaces/inkscape"
   version="1.0"
   width="1000"
   height="1000"
   id="svg5496"
   sodipodi:version="0.32"
   inkscape:version="0.46"
   sodipodi:docname="haa.isol.fina.svg"
   inkscape:output_extension="org.inkscape.output.svg.inkscape">
  <metadata
     id="metadata5594">
    <rdf:RDF>
      <cc:Work
         rdf:about="">
        <dc:format>image/svg+xml</dc:format>
        <dc:type
           rdf:resource="http://purl.org/dc/dcmitype/StillImage" />
      </cc:Work>
    </rdf:RDF>
  </metadata>
  <sodipodi:namedview
     inkscape:pageshadow="2"
     inkscape:pageopacity="0.0"
     guidetolerance="10.0"
     gridtolerance="10.0"
     objecttolerance="10.0"
     borderopacity="1.0"
     bordercolor="#666666"
     pagecolor="#ffffff"
     id="base"
     showgrid="false"
     showguides="true"
     inkscape:guide-bbox="true"
     inkscape:zoom="0.64205296"
     inkscape:cx="330.27406"
     inkscape:cy="444.34115"
     inkscape:window-x="0"
     inkscape:window-y="25"
     inkscape:current-layer="svg5496">
    <sodipodi:guide
       orientation="horizontal"
       position="200"
       id="guide5596" />
  </sodipodi:namedview>
  <defs
     id="defs5498">
    <inkscape:perspective
       sodipodi:type="inkscape:persp3d"
       inkscape:vp_x="0 : 500 : 1"
       inkscape:vp_y="0 : 1000 : 0"
       inkscape:vp_z="1000 : 500 : 1"
       inkscape:persp3d-origin="500 : 333.33333 : 1"
       id="perspective8" />
    <inkscape:perspective
       id="perspective2388"
       inkscape:persp3d-origin="372.04724 : 350.78739 : 1"
       inkscape:vp_z="744.09448 : 526.18109 : 1"
       inkscape:vp_y="0 : 1000 : 0"
       inkscape:vp_x="0 : 526.18109 : 1"
       sodipodi:type="inkscape:persp3d" />
  </defs>
  <g
     id="layer1"
     transform="translate(-141.0553,90.740596)" />
  <path
     style="fill:#000000;fill-rule:evenodd;stroke:#000000;stroke-width:1px;stroke-linecap:butt;stroke-linejoin:miter;stroke-opacity:1"
     d="M 603.56025,241.82207 L 572.54863,302.71899 C 569.72359,308.26647 566.32425,311.01982 560.67384,311.43896 C 436.28527,320.66591 308.79059,338.9085 216.92789,386.91366 C 92.286002,452.04841 34.165722,574.40063 55.100322,683.57069 C 68.167432,751.71324 112.49315,814.91399 191.48773,857.52469 C 310.74498,921.85358 575.95279,928.15174 702.66772,893.85561 C 715.11641,890.4863 719.84806,905.14788 709.99906,909.66768 C 644.03112,939.941 527.54318,1000.1631 504.38596,1001.0382 C 359.74859,1002.1504 183.98235,988.18197 83.502132,902.36804 C -12.111498,820.71037 -10.798708,703.97063 20.197112,593.04671 C 51.198392,482.10326 131.10501,383.25385 281.85219,305.49831 C 195.43294,267.97317 133.45632,269.86254 52.528142,298.46461 C 44.261162,301.38637 40.226182,299.10931 41.949302,291.99934 C 52.127152,250.00316 77.825742,204.39355 124.68577,189.02544 C 184.52767,169.39984 243.81762,196.5604 302.74974,211.36003 C 401.03197,237.40751 504.07855,245.87102 582.1155,229.24833 C 598.16541,225.82953 607.02516,235.01808 603.56025,241.82207 z"
     id="path2394"
     sodipodi:nodetypes="cssssssscsscssscss" />
  <path
     style="fill:#000000;fill-rule:evenodd;stroke:#000000;stroke-width:1px;stroke-linecap:butt;stroke-linejoin:miter;stroke-opacity:1"
     d="M 616.65395,396.48949 L 616.65395,497.81108 C 522.10719,502.44157 441.43679,473.96644 406.85219,434.48509 C 372.26758,395.00374 415.95122,306.13823 426.12531,274.79346 L 450.35439,282.50271 C 447.59054,311.22809 431.05801,346.45316 471.83016,369.50712 C 512.25092,392.36238 561.34298,398.57082 616.65395,396.48949 z"
     id="path2408"
     sodipodi:nodetypes="cczccsc" />
</svg>
