<?xml version="1.0" encoding="UTF-8" standalone="no"?>
<!-- Created with Inkscape (http://www.inkscape.org/) -->

<svg
   xmlns:dc="http://purl.org/dc/elements/1.1/"
   xmlns:cc="http://creativecommons.org/ns#"
   xmlns:rdf="http://www.w3.org/1999/02/22-rdf-syntax-ns#"
   xmlns:svg="http://www.w3.org/2000/svg"
   xmlns="http://www.w3.org/2000/svg"
   xmlns:sodipodi="http://sodipodi.sourceforge.net/DTD/sodipodi-0.dtd"
   xmlns:inkscape="http://www.inkscape.org/namespaces/inkscape"
   version="1.0"
   width="1000"
   height="1000"
   id="svg5496"
   sodipodi:version="0.32"
   inkscape:version="0.47pre4 r22446"
   sodipodi:docname="New document 9"
   inkscape:output_extension="org.inkscape.output.svg.inkscape">
  <metadata
     id="metadata5594">
    <rdf:RDF>
      <cc:Work
         rdf:about="">
        <dc:format>image/svg+xml</dc:format>
        <dc:type
           rdf:resource="http://purl.org/dc/dcmitype/StillImage" />
        <dc:title></dc:title>
      </cc:Work>
    </rdf:RDF>
  </metadata>
  <sodipodi:namedview
     inkscape:window-height="618"
     inkscape:window-width="641"
     inkscape:pageshadow="2"
     inkscape:pageopacity="0.0"
     borderopacity="1.0"
     bordercolor="#666666"
     pagecolor="#ffffff"
     id="base"
     showgrid="false"
     showguides="true"
     inkscape:guide-bbox="true"
     inkscape:zoom="0.454"
     inkscape:cx="500"
     inkscape:cy="500"
     inkscape:window-x="0"
     inkscape:window-y="26"
     inkscape:current-layer="svg5496"
     inkscape:window-maximized="0">
    <sodipodi:guide
       orientation="horizontal"
       position="200"
       id="guide5596" />
  </sodipodi:namedview>
  <defs
     id="defs5498">
    <inkscape:perspective
       sodipodi:type="inkscape:persp3d"
       inkscape:vp_x="0 : 500 : 1"
       inkscape:vp_y="0 : 1000 : 0"
       inkscape:vp_z="1000 : 500 : 1"
       inkscape:persp3d-origin="500 : 333.33333 : 1"
       id="perspective3817" />
    <inkscape:perspective
       id="perspective3804"
       inkscape:persp3d-origin="0.5 : 0.33333333 : 1"
       inkscape:vp_z="1 : 0.5 : 1"
       inkscape:vp_y="0 : 1000 : 0"
       inkscape:vp_x="0 : 0.5 : 1"
       sodipodi:type="inkscape:persp3d" />
  </defs>
  <g
     id="layer1" />
  <g
     id="g3020"
     transform="matrix(1.1697252,-0.24275411,0.24275411,1.1697252,-170.45893,-132.77235)"
     style="fill:#000000;fill-opacity:1">
    <g
       id="layer1-5"
       style="fill:#000000;fill-opacity:1" />
    <path
       sodipodi:nodetypes="cccccsssssszsssss"
       id="path2574"
       d="m 215.74925,733.55869 c -2.68673,4.75172 -8.30452,12.11825 -15.28156,14.39278 C 139.34072,754.1644 51.096281,783.62804 16.361141,798 1.7071513,802.28176 -2.2931717,790.87127 2.4837813,780.84605 12.899363,765.89426 31.485658,752.83813 52.596472,742.10509 34.084794,729.77605 13.223838,708.71168 9.422464,695.84722 1.1944912,668.00244 13.224145,644.26061 30.835655,623.57373 48.447161,602.88686 105.35358,556.80285 140.00698,563.54774 c 19.36053,3.76831 26.03325,12.26253 30.40035,23.8454 8.05454,21.36311 -7.21735,52.10041 -23.72822,68.75366 -9.31018,9.39047 -17.56901,6.4172 -22.57694,-1.19263 -6.61305,-10.04891 -20.39322,-27.47518 -33.487253,-29.3387 -13.310813,-1.89437 -20.66974,4.12141 -21.216491,13.01886 -1.138571,18.52835 31.941394,57.35208 93.985694,60.98569 23.91396,1.40051 36.56791,-11.08861 59.37753,-10.232 7.59202,0.28512 12.38243,9.86922 8.58205,16.59053 l -15.59445,27.58014 z"
       style="fill:#000000;fill-opacity:1;stroke:#000000;stroke-width:1px;stroke-linecap:butt;stroke-linejoin:miter;stroke-miterlimit:4;stroke-opacity:1;stroke-dasharray:none" />
  </g>
</svg>
