<?xml version="1.0" encoding="UTF-8" standalone="no"?>
<!-- Created with Inkscape (http://www.inkscape.org/) -->

<svg
   xmlns:dc="http://purl.org/dc/elements/1.1/"
   xmlns:cc="http://creativecommons.org/ns#"
   xmlns:rdf="http://www.w3.org/1999/02/22-rdf-syntax-ns#"
   xmlns:svg="http://www.w3.org/2000/svg"
   xmlns="http://www.w3.org/2000/svg"
   xmlns:sodipodi="http://sodipodi.sourceforge.net/DTD/sodipodi-0.dtd"
   xmlns:inkscape="http://www.inkscape.org/namespaces/inkscape"
   version="1.0"
   width="1000"
   height="1000"
   id="svg5496"
   sodipodi:version="0.32"
   inkscape:version="0.47pre4 r22446"
   sodipodi:docname="heh+meem.init.svg"
   inkscape:output_extension="org.inkscape.output.svg.inkscape">
  <metadata
     id="metadata5594">
    <rdf:RDF>
      <cc:Work
         rdf:about="">
        <dc:format>image/svg+xml</dc:format>
        <dc:type
           rdf:resource="http://purl.org/dc/dcmitype/StillImage" />
        <dc:title />
      </cc:Work>
    </rdf:RDF>
  </metadata>
  <sodipodi:namedview
     inkscape:window-height="725"
     inkscape:pageshadow="2"
     inkscape:pageopacity="0.0"
     borderopacity="1.0"
     bordercolor="#666666"
     pagecolor="#ffffff"
     id="base"
     showgrid="false"
     showguides="true"
     inkscape:guide-bbox="true"
     inkscape:zoom="0.236"
     inkscape:cx="500"
     inkscape:cy="500"
     inkscape:window-x="0"
     inkscape:window-y="24"
     inkscape:current-layer="svg5496"
     inkscape:window-width="1280"
     inkscape:window-maximized="1">
    <sodipodi:guide
       orientation="horizontal"
       position="200"
       id="guide5596" />
  </sodipodi:namedview>
  <defs
     id="defs5498">
    <inkscape:perspective
       sodipodi:type="inkscape:persp3d"
       inkscape:vp_x="0 : 500 : 1"
       inkscape:vp_y="0 : 1000 : 0"
       inkscape:vp_z="1000 : 500 : 1"
       inkscape:persp3d-origin="500 : 333.33333 : 1"
       id="perspective8" />
    <inkscape:perspective
       id="perspective2822"
       inkscape:persp3d-origin="0.5 : 0.33333333 : 1"
       inkscape:vp_z="1 : 0.5 : 1"
       inkscape:vp_y="0 : 1000 : 0"
       inkscape:vp_x="0 : 0.5 : 1"
       sodipodi:type="inkscape:persp3d" />
    <inkscape:perspective
       sodipodi:type="inkscape:persp3d"
       inkscape:vp_x="0 : 0.5 : 1"
       inkscape:vp_y="0 : 1000 : 0"
       inkscape:vp_z="1 : 0.5 : 1"
       inkscape:persp3d-origin="0.5 : 0.33333333 : 1"
       id="perspective2838" />
    <inkscape:perspective
       id="perspective2849"
       inkscape:persp3d-origin="500 : 333.33333 : 1"
       inkscape:vp_z="1000 : 500 : 1"
       inkscape:vp_y="0 : 1000 : 0"
       inkscape:vp_x="0 : 500 : 1"
       sodipodi:type="inkscape:persp3d" />
    <inkscape:perspective
       id="perspective5609"
       inkscape:persp3d-origin="0.5 : 0.33333333 : 1"
       inkscape:vp_z="1 : 0.5 : 1"
       inkscape:vp_y="0 : 1000 : 0"
       inkscape:vp_x="0 : 0.5 : 1"
       sodipodi:type="inkscape:persp3d" />
  </defs>
  <path
     style="color:#000000;fill:#ff0000;fill-opacity:0.60784314;stroke:#000000;stroke-width:1;stroke-linecap:butt;stroke-linejoin:miter;stroke-miterlimit:4;stroke-opacity:1;stroke-dasharray:none;stroke-dashoffset:0;marker:none;visibility:visible;display:inline;overflow:visible;enable-background:accumulate"
     d="m 424.365,197.04995 c -1.369,0.04 -14.216,3.142 -15.149,3.469 -27.524,9.649 -46.745,57.691 -53.424,88.235 -1.615,7.382 6.239,17.758 14.044,13.428 17.941,-9.955 31.227,-5.789 42.599,4.234 -47.41,22.307 -111.391,159.29 -59.813,184.939 12.536,6.234 18.525,9.753 25.79,12.789 -24.138,18.886 -58.64,34.292 -142.132,29.761 -57.784,-3.136 -84.022,9.884 -104.505,40.959 C 112.004,604.858 101.558,644.178 92.01,663.445 81.9,683.85 35.885,707.611 -0.275,709.276 L 0,800 c 28.12,0.542 80.619,-53.61 114.581,-111.523 22.8,19.354 94.432,50.148 126.69,53.839 9.239,1.057 22.565,-2.394 30.531,-7.564 26.925,-17.478 50.02,-82.78 27.871,-140.32505 -1.34,-3.481 0.17,-6.202 3.099,-7.26 52.672,-19.024 85.505,-34.136 124.213,-68.259 52.731,11.068 132.11,22.247 169.236,22.571 6.826,0.06 13.207,-1.71 18.713,-6.592 13.141,-11.654 35.161,-45.866 36.862,-87.485 2.634,-63.265 -36.715,-125.658 -93.396,-170.936 -58.001,-50.717 -113.49,-80.046 -134.035,-79.416 z m 57.717,199.706 c 3.219,5.978 1.267,11.987 -2.704,17.497 -5.148,7.145 -16.357,16.901 -29.466,28.191 -39.505,-7.625 -67.6,-12.265 -79.884,-25.635 -4.856,-5.285 -7.189,-15.131 -4.618,-21.265 8.378,-19.99 39.032,-53.424 57.946,-57.357 25.853,-5.376 55.211,40.782 58.726,58.569 z m 25.436,-45.928 c 32.97,17.934 78.823,47.043 110.382,99.514 3.513,4.505 8.387,12.332 0.152,13.974 -19.963,3.979 -77.675,-4.695 -132.537,-15.007 19.229,-35.236 25.566,-68.514 22.003,-98.481 z M 269.389,652.17 c 0.846,5.229 -1.54,9.077 -7.533,8.141 -7.015,-0.327 -36.587,-10.615 -62.358,-20.334 -28.93,-10.911 -53.107,-23.149 -53.729,-39.45805 -0.474,-12.452 5.689,-12.013 15.894,-12.376 44.719,-1.59 90.117,26.02005 107.726,64.02705 z"
     id="path2932-6"
     sodipodi:nodetypes="cscscscssccccscsscccccscscsssccccccccsssc" />
</svg>
