<?xml version="1.0" encoding="UTF-8" standalone="no"?>
<!-- Created with Inkscape (http://www.inkscape.org/) -->

<svg
   xmlns:dc="http://purl.org/dc/elements/1.1/"
   xmlns:cc="http://creativecommons.org/ns#"
   xmlns:rdf="http://www.w3.org/1999/02/22-rdf-syntax-ns#"
   xmlns:svg="http://www.w3.org/2000/svg"
   xmlns="http://www.w3.org/2000/svg"
   xmlns:sodipodi="http://sodipodi.sourceforge.net/DTD/sodipodi-0.dtd"
   xmlns:inkscape="http://www.inkscape.org/namespaces/inkscape"
   version="1.0"
   width="1000"
   height="1000"
   id="svg5496"
   sodipodi:version="0.32"
   inkscape:version="0.47pre0 r21549"
   sodipodi:docname="New document 8"
   inkscape:output_extension="org.inkscape.output.svg.inkscape">
  <metadata
     id="metadata5594">
    <rdf:RDF>
      <cc:Work
         rdf:about="">
        <dc:format>image/svg+xml</dc:format>
        <dc:type
           rdf:resource="http://purl.org/dc/dcmitype/StillImage" />
        <dc:title></dc:title>
      </cc:Work>
    </rdf:RDF>
  </metadata>
  <sodipodi:namedview
     inkscape:window-height="721"
     inkscape:pageshadow="2"
     inkscape:pageopacity="0.0"
     borderopacity="1.0"
     bordercolor="#666666"
     pagecolor="#ffffff"
     id="base"
     showgrid="false"
     showguides="true"
     inkscape:guide-bbox="true"
     inkscape:zoom="0.454"
     inkscape:cx="500"
     inkscape:cy="500"
     inkscape:window-x="0"
     inkscape:window-y="28"
     inkscape:current-layer="svg5496"
     inkscape:window-width="1280"
     inkscape:window-maximized="1">
    <sodipodi:guide
       orientation="horizontal"
       position="200"
       id="guide5596" />
  </sodipodi:namedview>
  <defs
     id="defs5498">
    <inkscape:perspective
       sodipodi:type="inkscape:persp3d"
       inkscape:vp_x="0 : 500 : 1"
       inkscape:vp_y="0 : 1000 : 0"
       inkscape:vp_z="1000 : 500 : 1"
       inkscape:persp3d-origin="500 : 333.33333 : 1"
       id="perspective3732" />
    <inkscape:perspective
       id="perspective3721"
       inkscape:persp3d-origin="0.5 : 0.33333333 : 1"
       inkscape:vp_z="1 : 0.5 : 1"
       inkscape:vp_y="0 : 1000 : 0"
       inkscape:vp_x="0 : 0.5 : 1"
       sodipodi:type="inkscape:persp3d" />
  </defs>
  <g
     id="layer1" />
  <path
     style="color:#000000;fill:#000000;fill-opacity:1;stroke:#000000;stroke-width:0.94024533px;stroke-linecap:butt;stroke-linejoin:miter;stroke-miterlimit:4;stroke-opacity:1;stroke-dasharray:none;stroke-dashoffset:0;marker:none;visibility:visible;display:inline;overflow:visible;enable-background:accumulate"
     d="m 299.19866,130.78125 c -31.28358,-0.15099 -45.06203,46.35993 -53.34375,71.78125 -1.39068,4.32176 0.25634,11.29612 6.15625,11.65625 12.95365,0.7907 39.91813,7.43916 38.375,14.21875 -41.55231,36.29392 -61.7739,101.85538 -67.9375,132.25 -4.70202,23.18707 -1.11071,50.97978 27.09375,63.3125 -69.7881,36.76473 -142.39335,66.38829 -189.343752,91.28125 -31.25939,16.57364 -53.3992796,67.65708 -57.7499996,88.5625 -1.2137,5.83187 0.42857,9.24555 6.03125,10 96.1950716,12.95347 182.8355116,29.73429 274.1875016,44.625 -94.36293,21.312 -188.130262,44.16991 -284.7187516,45.5625 l 0,95.96875 C 105.29786,776.17627 204.16332,734.90542 304.19866,707.84375 c 81.23958,-21.97702 163.24765,-34.58372 251.24995,-20.90625 7.436,1.15571 10.6889,-1.18401 13.5313,-7.5625 l 30,-67.34375 c 6.0153,-13.49847 -0.6109,-22.42554 -16.7813,-21.84375 -54.8855,1.9747 -106.7301,3.48851 -159.0937,-0.625 -106.76582,-8.38718 -199.2651,-21.61905 -305.09375,-48.375 61.25782,-29.85073 131.75856,-53.45477 190.625,-90.5625 66.20915,18.0975 114.94665,30.63687 163.59375,40.5 64.4257,13.06224 69.1178,-83.43575 59.7187,-142.8125 -7.23,-45.67478 -61.1474,-97.26253 -105.4062,-137.09375 -35.04013,-31.53481 -86.65354,-80.24111 -127.34375,-80.4375 z M 313.82366,283 c 33.26668,-0.84832 48.6563,31.57866 54.6875,59.46875 0.37734,3.49336 0.52745,5.16239 -2.5,6.8125 -10.44736,5.69432 -23.51733,18.2182 -34.0625,23.5 -61.11811,-15.91606 -78.01829,-24.098 -76.625,-58.09375 11.9279,-16.57706 35.52649,-31.10166 58.5,-31.6875 z m 83.375,8.3125 c 49.39625,33.13246 100.66055,93.34312 103.65625,115.84375 0.7894,5.92924 -0.6085,8.22606 -5.9063,7.6875 -23.7943,-2.41894 -85.0109,-20.74141 -122.06245,-30.875 8.64942,-8.57743 19.8074,-60.90955 18.875,-89.84375 -0.70983,-3.47822 3.0829,-3.94301 5.4375,-2.8125 z"
     id="path3007"
     sodipodi:nodetypes="ccscscssscccssccssccssscccsccscssccc" />
</svg>
