<?xml version="1.0" encoding="UTF-8" standalone="no"?>
<!-- Created with Inkscape (http://www.inkscape.org/) -->

<svg
   xmlns:dc="http://purl.org/dc/elements/1.1/"
   xmlns:cc="http://creativecommons.org/ns#"
   xmlns:rdf="http://www.w3.org/1999/02/22-rdf-syntax-ns#"
   xmlns:svg="http://www.w3.org/2000/svg"
   xmlns="http://www.w3.org/2000/svg"
   xmlns:sodipodi="http://sodipodi.sourceforge.net/DTD/sodipodi-0.dtd"
   xmlns:inkscape="http://www.inkscape.org/namespaces/inkscape"
   version="1.0"
   width="1000"
   height="1000"
   id="svg5496"
   sodipodi:version="0.32"
   inkscape:version="0.47pre4 r22446"
   sodipodi:docname="heh+haa.init.svg"
   inkscape:output_extension="org.inkscape.output.svg.inkscape">
  <metadata
     id="metadata5594">
    <rdf:RDF>
      <cc:Work
         rdf:about="">
        <dc:format>image/svg+xml</dc:format>
        <dc:type
           rdf:resource="http://purl.org/dc/dcmitype/StillImage" />
        <dc:title />
      </cc:Work>
    </rdf:RDF>
  </metadata>
  <sodipodi:namedview
     inkscape:window-height="767"
     inkscape:pageshadow="2"
     inkscape:pageopacity="0.0"
     borderopacity="1.0"
     bordercolor="#666666"
     pagecolor="#ffffff"
     id="base"
     showgrid="false"
     showguides="true"
     inkscape:guide-bbox="true"
     inkscape:zoom="1.9092853"
     inkscape:cx="375.45143"
     inkscape:cy="671.33115"
     inkscape:window-x="0"
     inkscape:window-y="0"
     inkscape:current-layer="svg5496"
     inkscape:window-width="1278"
     inkscape:window-maximized="1">
    <sodipodi:guide
       orientation="horizontal"
       position="200"
       id="guide5596" />
  </sodipodi:namedview>
  <defs
     id="defs5498">
    <inkscape:perspective
       sodipodi:type="inkscape:persp3d"
       inkscape:vp_x="0 : 500 : 1"
       inkscape:vp_y="0 : 1000 : 0"
       inkscape:vp_z="1000 : 500 : 1"
       inkscape:persp3d-origin="500 : 333.33333 : 1"
       id="perspective3732" />
    <inkscape:perspective
       id="perspective3721"
       inkscape:persp3d-origin="0.5 : 0.33333333 : 1"
       inkscape:vp_z="1 : 0.5 : 1"
       inkscape:vp_y="0 : 1000 : 0"
       inkscape:vp_x="0 : 0.5 : 1"
       sodipodi:type="inkscape:persp3d" />
    <inkscape:perspective
       id="perspective4032"
       inkscape:persp3d-origin="0.5 : 0.33333333 : 1"
       inkscape:vp_z="1 : 0.5 : 1"
       inkscape:vp_y="0 : 1000 : 0"
       inkscape:vp_x="0 : 0.5 : 1"
       sodipodi:type="inkscape:persp3d" />
    <inkscape:perspective
       id="perspective2835"
       inkscape:persp3d-origin="0.5 : 0.33333333 : 1"
       inkscape:vp_z="1 : 0.5 : 1"
       inkscape:vp_y="0 : 1000 : 0"
       inkscape:vp_x="0 : 0.5 : 1"
       sodipodi:type="inkscape:persp3d" />
  </defs>
  <path
     sodipodi:nodetypes="csscssssccssss"
     id="path2849"
     d="M 38.679488,539.31291 C 19.055123,561.16331 7.5810546,590.36483 4.3227,606.018 c -1.1662062,5.60247 0.4104,8.8817 5.7932,9.6065 92.4084,12.4435 175.6394,28.5639 263.3957,42.8686 C 182.8636,678.9662 92.782783,708.45992 0,708.9426 -31.231384,709.10507 -23.975375,805.14931 0,800 c 103.2671,-22.17918 198.0983,-68.079 294.1955,-94.0754 78.0409,-21.112 156.8226,-33.2224 241.3609,-20.0834 7.1432,1.1101 10.2683,-1.1374 12.9978,-7.2649 l 28.82,-64.693 c 5.7784,-12.9672 -0.5875,-21.5429 -16.1209,-20.9841 -52.7258,1.897 -102.5293,3.3513 -152.8322,-0.6004 -102.5639,-8.057 -191.56366,-20.23444 -293.0849,-46.4709 -28.881822,-7.46402 -67.446877,-16.76951 -76.656712,-6.51499 z"
     style="color:#000000;fill:#ff0000;fill-opacity:0.60784314;stroke:#000000;stroke-width:0;stroke-linecap:butt;stroke-linejoin:miter;stroke-miterlimit:4;stroke-opacity:1;stroke-dasharray:none;stroke-dashoffset:0;marker:none;visibility:visible;display:inline;overflow:visible;enable-background:accumulate" />
  <g
     id="layer1" />
  <path
     style="color:#000000;fill:#ff0000;fill-opacity:0.60784314;stroke:#000000;stroke-width:0;stroke-linecap:butt;stroke-linejoin:miter;stroke-miterlimit:4;stroke-opacity:1;stroke-dasharray:none;stroke-dashoffset:0;marker:none;visibility:visible;display:inline;overflow:visible;enable-background:accumulate"
     d="m 289.3922,151.57537 c -30.0522,-0.14508 -43.2883,44.53515 -51.2444,68.95586 -1.3361,4.15171 0.2463,10.85154 5.9139,11.19747 12.444,0.75962 38.3475,7.14635 36.8641,13.65907 -39.916,34.86539 -59.3419,97.84642 -65.2627,127.04465 -4.5166,22.27449 -1.0671,48.97325 26.0281,60.82056 C 174.6494,468.5706 104.9018,497.0282 59.799701,520.9414 29.7693,536.8626 8.502,585.9355 4.3227,606.018 c -1.167,5.6023 0.4104,8.8817 5.7932,9.6065 56.484097,-44.67988 70.161182,-53.04239 105.2203,-69.7966 59.06075,-28.22422 126.5726,-51.3507 183.1217,-86.9979 63.6042,17.3851 110.4231,29.431 157.1549,38.9059 61.8904,12.5481 66.397,-80.15163 57.3689,-137.19144 -6.9464,-43.87701 -58.7416,-93.43423 -101.2575,-131.69765 -33.6609,-30.29359 -83.2438,-77.08275 -122.332,-77.27144 z m 14.049,146.22729 c 31.9579,-0.8149 46.7417,30.33581 52.5349,57.12813 0.363,3.3558 -0.22816,4.04427 -2.4011,6.54437 -7.94088,9.13646 -22.5916,17.50113 -32.7214,22.57503 -58.7129,-15.28964 -74.9475,-23.14951 -73.6094,-55.80718 11.4589,-15.92456 34.1276,-29.87744 56.197,-30.44035 z m 80.094,7.98537 c 47.4517,31.82843 96.6975,89.6691 99.5763,111.28416 0.7585,5.69585 -0.5845,7.9022 -5.6736,7.38498 -22.8576,-2.32383 -81.6655,-19.92505 -117.2587,-29.65977 8.3091,-8.23992 19.0284,-58.51226 18.1314,-86.30757 -0.6804,-3.34126 2.9619,-3.78777 5.2246,-2.7018 z"
     id="path2851"
     sodipodi:nodetypes="ccscscsscscssscccsccscssccc" />
</svg>
