<?xml version="1.0" encoding="UTF-8" standalone="no"?>
<!-- Created with Inkscape (http://www.inkscape.org/) -->

<svg
   xmlns:dc="http://purl.org/dc/elements/1.1/"
   xmlns:cc="http://creativecommons.org/ns#"
   xmlns:rdf="http://www.w3.org/1999/02/22-rdf-syntax-ns#"
   xmlns:svg="http://www.w3.org/2000/svg"
   xmlns="http://www.w3.org/2000/svg"
   xmlns:sodipodi="http://sodipodi.sourceforge.net/DTD/sodipodi-0.dtd"
   xmlns:inkscape="http://www.inkscape.org/namespaces/inkscape"
   version="1.0"
   width="1000"
   height="1000"
   id="svg5496"
   sodipodi:version="0.32"
   inkscape:version="0.47pre4 r22446"
   sodipodi:docname="baa+heh.isol.svg"
   inkscape:output_extension="org.inkscape.output.svg.inkscape">
  <metadata
     id="metadata5594">
    <rdf:RDF>
      <cc:Work
         rdf:about="">
        <dc:format>image/svg+xml</dc:format>
        <dc:type
           rdf:resource="http://purl.org/dc/dcmitype/StillImage" />
        <dc:title />
      </cc:Work>
    </rdf:RDF>
  </metadata>
  <sodipodi:namedview
     inkscape:window-height="725"
     inkscape:pageshadow="2"
     inkscape:pageopacity="0.0"
     borderopacity="1.0"
     bordercolor="#666666"
     pagecolor="#ffffff"
     id="base"
     showgrid="false"
     showguides="true"
     inkscape:guide-bbox="true"
     inkscape:zoom="0.454"
     inkscape:cx="420.70254"
     inkscape:cy="9.4728453"
     inkscape:window-x="0"
     inkscape:window-y="24"
     inkscape:current-layer="svg5496"
     inkscape:window-width="1280"
     inkscape:window-maximized="1">
    <sodipodi:guide
       orientation="horizontal"
       position="200"
       id="guide5596" />
  </sodipodi:namedview>
  <defs
     id="defs5498">
    <inkscape:perspective
       sodipodi:type="inkscape:persp3d"
       inkscape:vp_x="0 : 500 : 1"
       inkscape:vp_y="0 : 1000 : 0"
       inkscape:vp_z="1000 : 500 : 1"
       inkscape:persp3d-origin="500 : 333.33333 : 1"
       id="perspective8" />
    <inkscape:perspective
       id="perspective2822"
       inkscape:persp3d-origin="0.5 : 0.33333333 : 1"
       inkscape:vp_z="1 : 0.5 : 1"
       inkscape:vp_y="0 : 1000 : 0"
       inkscape:vp_x="0 : 0.5 : 1"
       sodipodi:type="inkscape:persp3d" />
    <inkscape:perspective
       id="perspective6347"
       inkscape:persp3d-origin="0.5 : 0.33333333 : 1"
       inkscape:vp_z="1 : 0.5 : 1"
       inkscape:vp_y="0 : 1000 : 0"
       inkscape:vp_x="0 : 0.5 : 1"
       sodipodi:type="inkscape:persp3d" />
  </defs>
  <g
     id="layer1" />
  <path
     style="color:#000000;fill:#ff0000;fill-opacity:0.60784314;stroke:#000000;stroke-width:0.87698311px;stroke-linecap:butt;stroke-linejoin:miter;stroke-miterlimit:4;stroke-opacity:1;stroke-dasharray:none;stroke-dashoffset:0;marker:none;visibility:visible;display:inline;overflow:visible;enable-background:accumulate"
     d="m 194.99889,355.13033 -16.491,26.1713 c -4.504,7.1477 -9.726,18.0385 -8.931,25.9399 -0.689,22.67687 1.42,39.42447 3.395,67.49067 -43.605,22.0823 -105.402996,68.8259 -126.234996,90.0783 -11.316,11.5446 -40.0709997,67.1351 -45.5719997,98.9843 -1.81999998,18.3743 9.0239997,27.7692 17.6039997,34.6154 22.9,18.2738 92.301996,30.332 118.998996,19.8072 22.829,-9.0008 46.623,-42.4342 59.176,-65.8418 18.617,109.7987 26.949,149.7299 119.13201,147.6244 0.309,-11.8451 0,-29.0672 0.112,-90.4282 -37.161,2.2557 -55.218,-9.1879 -67.41801,-44.9174 -8.72,-25.5366 -26.228,-196.8357 -40.169,-303.91537 -0.521,-4.3468 -9.927,-11.4403 -13.602,-5.6087 z m -13.005,180.49957 c 2.125,28.9167 6.526,47.8834 9.727,76.4505 -3.677,3.1958 -7.876,5.6354 -12.844,6.9483 -39.589,10.4623 -91.139996,4.5048 -108.533996,-5.7937 -4.286,-2.5374 -6.493,-6.6614 -2.586,-10.024 40.217996,-42.4596 73.777996,-57.3499 114.236996,-67.5811 z"
     id="path4219-6"
     sodipodi:nodetypes="csccscsccccscsccsscc" />
</svg>
