<?xml version="1.0" encoding="UTF-8" standalone="no"?>
<!-- Created with Inkscape (http://www.inkscape.org/) -->

<svg
   xmlns:dc="http://purl.org/dc/elements/1.1/"
   xmlns:cc="http://creativecommons.org/ns#"
   xmlns:rdf="http://www.w3.org/1999/02/22-rdf-syntax-ns#"
   xmlns:svg="http://www.w3.org/2000/svg"
   xmlns="http://www.w3.org/2000/svg"
   xmlns:sodipodi="http://sodipodi.sourceforge.net/DTD/sodipodi-0.dtd"
   xmlns:inkscape="http://www.inkscape.org/namespaces/inkscape"
   version="1.0"
   width="1000"
   height="1000"
   id="svg5496"
   sodipodi:version="0.32"
   inkscape:version="0.47pre0 r21549"
   sodipodi:docname="heh.medi.svg"
   inkscape:output_extension="org.inkscape.output.svg.inkscape">
  <metadata
     id="metadata5594">
    <rdf:RDF>
      <cc:Work
         rdf:about="">
        <dc:format>image/svg+xml</dc:format>
        <dc:type
           rdf:resource="http://purl.org/dc/dcmitype/StillImage" />
      </cc:Work>
    </rdf:RDF>
  </metadata>
  <sodipodi:namedview
     inkscape:pageshadow="2"
     inkscape:pageopacity="0.0"
     guidetolerance="10.0"
     gridtolerance="10.0"
     objecttolerance="10.0"
     borderopacity="1.0"
     bordercolor="#666666"
     pagecolor="#ffffff"
     id="base"
     showgrid="false"
     showguides="true"
     inkscape:guide-bbox="true"
     inkscape:zoom="0.454"
     inkscape:cx="-216.34166"
     inkscape:cy="369.92755"
     inkscape:window-x="0"
     inkscape:window-y="25"
     inkscape:current-layer="svg5496">
    <sodipodi:guide
       orientation="horizontal"
       position="200"
       id="guide5596" />
  </sodipodi:namedview>
  <defs
     id="defs5498">
    <inkscape:perspective
       sodipodi:type="inkscape:persp3d"
       inkscape:vp_x="0 : 500 : 1"
       inkscape:vp_y="0 : 1000 : 0"
       inkscape:vp_z="1000 : 500 : 1"
       inkscape:persp3d-origin="500 : 333.33333 : 1"
       id="perspective8" />
    <inkscape:perspective
       id="perspective2388"
       inkscape:persp3d-origin="372.04724 : 350.78739 : 1"
       inkscape:vp_z="744.09448 : 526.18109 : 1"
       inkscape:vp_y="0 : 1000 : 0"
       inkscape:vp_x="0 : 526.18109 : 1"
       sodipodi:type="inkscape:persp3d" />
  </defs>
  <g
     id="layer1"
     transform="matrix(1.3,0,0,1.3,-225.88225,137.53389)" />
  <path
     style="fill:#000000;fill-rule:evenodd;stroke:#000000;stroke-width:1px;stroke-linecap:butt;stroke-linejoin:miter;stroke-opacity:1"
     d="M 333.25 387.5 C 301.74441 387.52608 185.31758 546.07071 149.21875 653.03125 C 100.0631 673.83665 35.213807 688.98654 1.75 694.46875 L 0.34375 800 C 38.053552 791.74101 74.778947 776.09441 110.5625 764.625 L 105.28125 803.78125 L 137.375 808.28125 C 155.52746 995.4578 233.60595 1042.4858 281.65625 1034.5 C 404.59224 1014.1872 390.05685 845.59509 347.53125 782.53125 C 381.67834 783.60201 419.66879 784.75616 455.625 776.78125 L 455.625 675.15625 C 395.1015 688.62391 324.93408 708.20985 256 704.5 C 373.10394 616.94333 386.74833 408.43922 336.03125 388 C 335.19718 387.66386 334.26631 387.49916 333.25 387.5 z M 282.5625 517.375 C 296.41392 517.15152 310.77206 523.5985 318.1875 536.84375 C 320.84601 541.59229 319.46928 550.894 316.6875 554.5 C 277.64091 605.11586 226.19978 621.31598 177.71875 643.5625 C 183.57926 614.84215 216.34091 543.06171 267 520.6875 C 271.81141 518.56248 277.14238 517.46245 282.5625 517.375 z M 182.5 813.3125 C 249.60982 824.04921 324.21084 861.8275 344.1875 895.59375 C 347.33858 900.91997 350.02416 909.50972 344.65625 913.1875 C 305.75757 939.83865 278.32628 935.37334 255.1875 925.34375 C 201.29969 901.98588 189.17625 833.28983 182.5 813.3125 z "
     id="path2394" />
</svg>
