<?xml version="1.0" encoding="UTF-8" standalone="no"?>
<!-- Created with Inkscape (http://www.inkscape.org/) -->

<svg
   xmlns:dc="http://purl.org/dc/elements/1.1/"
   xmlns:cc="http://creativecommons.org/ns#"
   xmlns:rdf="http://www.w3.org/1999/02/22-rdf-syntax-ns#"
   xmlns:svg="http://www.w3.org/2000/svg"
   xmlns="http://www.w3.org/2000/svg"
   xmlns:sodipodi="http://sodipodi.sourceforge.net/DTD/sodipodi-0.dtd"
   xmlns:inkscape="http://www.inkscape.org/namespaces/inkscape"
   version="1.0"
   width="1000"
   height="1000"
   id="svg5496"
   sodipodi:version="0.32"
   inkscape:version="0.47pre4 r22446"
   sodipodi:docname="heh.medi.svg"
   inkscape:output_extension="org.inkscape.output.svg.inkscape">
  <metadata
     id="metadata5594">
    <rdf:RDF>
      <cc:Work
         rdf:about="">
        <dc:format>image/svg+xml</dc:format>
        <dc:type
           rdf:resource="http://purl.org/dc/dcmitype/StillImage" />
      </cc:Work>
    </rdf:RDF>
  </metadata>
  <sodipodi:namedview
     inkscape:pageshadow="2"
     inkscape:pageopacity="0.0"
     guidetolerance="10.0"
     gridtolerance="10.0"
     objecttolerance="10.0"
     borderopacity="1.0"
     bordercolor="#666666"
     pagecolor="#ffffff"
     id="base"
     showgrid="false"
     showguides="true"
     inkscape:guide-bbox="true"
     inkscape:zoom="2.2667776"
     inkscape:cx="369.8697"
     inkscape:cy="363.83311"
     inkscape:window-x="0"
     inkscape:window-y="0"
     inkscape:current-layer="svg5496"
     inkscape:window-width="1278"
     inkscape:window-height="767"
     inkscape:window-maximized="1">
    <sodipodi:guide
       orientation="horizontal"
       position="200"
       id="guide5596" />
  </sodipodi:namedview>
  <defs
     id="defs5498">
    <inkscape:perspective
       sodipodi:type="inkscape:persp3d"
       inkscape:vp_x="0 : 500 : 1"
       inkscape:vp_y="0 : 1000 : 0"
       inkscape:vp_z="1000 : 500 : 1"
       inkscape:persp3d-origin="500 : 333.33333 : 1"
       id="perspective8" />
    <inkscape:perspective
       id="perspective2388"
       inkscape:persp3d-origin="372.04724 : 350.78739 : 1"
       inkscape:vp_z="744.09448 : 526.18109 : 1"
       inkscape:vp_y="0 : 1000 : 0"
       inkscape:vp_x="0 : 526.18109 : 1"
       sodipodi:type="inkscape:persp3d" />
    <inkscape:perspective
       id="perspective4128"
       inkscape:persp3d-origin="0.5 : 0.33333333 : 1"
       inkscape:vp_z="1 : 0.5 : 1"
       inkscape:vp_y="0 : 1000 : 0"
       inkscape:vp_x="0 : 0.5 : 1"
       sodipodi:type="inkscape:persp3d" />
  </defs>
  <path
     sodipodi:nodetypes="ccsscccccsscccccccscccccccc"
     d="M 281.41402,451.4708 C 253.14302,451.4938 149.718,591.9289 117.325,687.9076 78.711,703.4365 25.482742,712.45371 -0.05,712.2571 -49.571711,711.87577 -26.049118,803.61215 0,802 33.810244,799.90752 55.264,788.0178 77.011,776.9858 l -0.156,48.0259 28.799,4.038 c 16.289,167.9587 86.351,210.1583 129.467,202.9924 110.31402,-18.2272 101.45902,-183.6414 60.68202,-221.388 30.641,0.9608 63.14266,-2.79799 95.426,-9.8702 23.73322,-5.19917 21.93117,-96.69278 0,-91.191 -53.91731,13.52602 -117.273,29.6599 -179.12902,26.3309 105.08002,-78.5671 117.32302,-265.6637 71.81402,-284.0043 -0.749,-0.3016 -1.584,-0.4494 -2.496,-0.4487 l 0,0 -0.004,0 z M 235.931,568.0113 c 12.429,-0.2006 25.31302,5.5845 31.96802,17.4699 2.385,4.261 1.149,12.6076 -1.346,15.8434 -35.03802,45.4191 -81.19802,59.9559 -124.70102,79.9183 5.258,-25.7715 34.656,-90.1822 80.114,-110.2592 4.317,-1.9068 9.101,-2.8939 13.965,-2.9724 z m -89.789,265.553 c 60.22,9.6344 127.16102,43.5339 145.08702,73.8334 2.828,4.7793 5.237,12.4871 0.42,15.7873 -21.66935,19.0622 -59.52002,19.9079 -80.28202,10.9082 -48.355,-20.9597 -62.32208,-86.57309 -65.225,-100.5289 z"
     style="fill:#ff0000;fill-opacity:0.60784314;fill-rule:evenodd;stroke:#000000;stroke-width:0;stroke-linecap:butt;stroke-linejoin:miter;stroke-miterlimit:4;stroke-opacity:1;stroke-dasharray:none"
     id="path2816" />
  <g
     id="layer1"
     transform="matrix(1.3,0,0,1.3,-225.88225,277.53389)" />
</svg>
