<?xml version="1.0" encoding="UTF-8" standalone="no"?>
<!-- Created with Inkscape (http://www.inkscape.org/) -->

<svg
   xmlns:dc="http://purl.org/dc/elements/1.1/"
   xmlns:cc="http://creativecommons.org/ns#"
   xmlns:rdf="http://www.w3.org/1999/02/22-rdf-syntax-ns#"
   xmlns:svg="http://www.w3.org/2000/svg"
   xmlns="http://www.w3.org/2000/svg"
   xmlns:sodipodi="http://sodipodi.sourceforge.net/DTD/sodipodi-0.dtd"
   xmlns:inkscape="http://www.inkscape.org/namespaces/inkscape"
   version="1.0"
   width="1000"
   height="1000"
   id="svg5496"
   sodipodi:version="0.32"
   inkscape:version="0.47pre0 r21549"
   sodipodi:docname="kaf+lam+alef.isol.svg"
   inkscape:output_extension="org.inkscape.output.svg.inkscape">
  <metadata
     id="metadata5594">
    <rdf:RDF>
      <cc:Work
         rdf:about="">
        <dc:format>image/svg+xml</dc:format>
        <dc:type
           rdf:resource="http://purl.org/dc/dcmitype/StillImage" />
      </cc:Work>
    </rdf:RDF>
  </metadata>
  <sodipodi:namedview
     inkscape:pageshadow="2"
     inkscape:pageopacity="0.0"
     guidetolerance="10.0"
     gridtolerance="10.0"
     objecttolerance="10.0"
     borderopacity="1.0"
     bordercolor="#666666"
     pagecolor="#ffffff"
     id="base"
     showgrid="false"
     showguides="true"
     inkscape:guide-bbox="true"
     inkscape:zoom="0.236"
     inkscape:cx="500"
     inkscape:cy="500"
     inkscape:window-x="0"
     inkscape:window-y="25"
     inkscape:current-layer="svg5496">
    <sodipodi:guide
       orientation="horizontal"
       position="200"
       id="guide5596" />
  </sodipodi:namedview>
  <defs
     id="defs5498">
    <inkscape:perspective
       sodipodi:type="inkscape:persp3d"
       inkscape:vp_x="0 : 500 : 1"
       inkscape:vp_y="0 : 1000 : 0"
       inkscape:vp_z="1000 : 500 : 1"
       inkscape:persp3d-origin="500 : 333.33333 : 1"
       id="perspective8" />
    <inkscape:perspective
       id="perspective2477"
       inkscape:persp3d-origin="372.04724 : 350.78739 : 1"
       inkscape:vp_z="744.09448 : 526.18109 : 1"
       inkscape:vp_y="0 : 1000 : 0"
       inkscape:vp_x="0 : 526.18109 : 1"
       sodipodi:type="inkscape:persp3d" />
    <inkscape:perspective
       sodipodi:type="inkscape:persp3d"
       inkscape:vp_x="0 : 526.18109 : 1"
       inkscape:vp_y="0 : 1000 : 0"
       inkscape:vp_z="744.09448 : 526.18109 : 1"
       inkscape:persp3d-origin="372.04724 : 350.78739 : 1"
       id="perspective2711" />
    <inkscape:perspective
       id="perspective2611"
       inkscape:persp3d-origin="500 : 333.33333 : 1"
       inkscape:vp_z="1000 : 500 : 1"
       inkscape:vp_y="0 : 1000 : 0"
       inkscape:vp_x="0 : 500 : 1"
       sodipodi:type="inkscape:persp3d" />
    <inkscape:perspective
       sodipodi:type="inkscape:persp3d"
       inkscape:vp_x="0 : 526.18109 : 1"
       inkscape:vp_y="0 : 1000 : 0"
       inkscape:vp_z="744.09448 : 526.18109 : 1"
       inkscape:persp3d-origin="372.04724 : 350.78739 : 1"
       id="perspective2459" />
    <inkscape:perspective
       sodipodi:type="inkscape:persp3d"
       inkscape:vp_x="0 : 526.18109 : 1"
       inkscape:vp_y="0 : 1000 : 0"
       inkscape:vp_z="744.09448 : 526.18109 : 1"
       inkscape:persp3d-origin="372.04724 : 350.78739 : 1"
       id="perspective2457" />
    <inkscape:perspective
       id="perspective2670"
       inkscape:persp3d-origin="500 : 333.33333 : 1"
       inkscape:vp_z="1000 : 500 : 1"
       inkscape:vp_y="0 : 1000 : 0"
       inkscape:vp_x="0 : 500 : 1"
       sodipodi:type="inkscape:persp3d" />
  </defs>
  <g
     id="layer1"
     transform="translate(60,-30)" />
  <path
     style="fill:#000000;fill-rule:evenodd;stroke:#000000;stroke-width:1px;stroke-linecap:butt;stroke-linejoin:miter;stroke-opacity:1"
     d="M 1097.7812 66.5625 C 1094.5431 66.414837 1091.0068 67.07127 1087.9375 68.40625 C 924.5361 139.47701 592.53354 237.77854 499.59375 372.6875 C 500.7148 289.27642 503.12267 207.97508 496.28125 111.625 C 495.27235 97.41635 487.56782 90.55508 481.4375 103.46875 C 472.5484 122.19385 463.87927 141.37379 457.34375 162.25 C 455.04228 169.60153 453.13623 176.96885 453.21875 183.90625 C 455.05595 338.36672 408.80596 584.22887 376.03125 622.125 C 371.84539 500.73076 317.47661 404.82968 249.6875 338.3125 C 185.12439 280.4387 75.448988 233.78579 23.40625 219.4375 C 18.016448 218.00526 6.90212 216.48935 5.3125 224.96875 C -9.964955 306.73753 -1.891114 376.24729 129.34375 417.34375 C 140.07336 420.70375 142.02992 415.07679 142.71875 410.125 L 144.84375 394.90625 C 145.32513 391.4457 149.20292 390.94401 152.0625 391.96875 C 198.02287 408.43884 353.45189 501.84434 350.8125 647.0625 C 284.34245 737.36462 154.48244 783.91878 55.3125 822.03125 C 46.012656 825.60532 46.599988 836.63787 59.4375 836.25 C 272.0283 829.82674 372.04028 799.519 456.03125 462.3125 C 457.03165 458.30536 462.73108 457.74419 463.03125 462.0625 C 476.85321 660.35957 450.99853 811.39435 614.75 799.3125 C 715.19903 791.9012 785.37074 703.21347 783.78125 627.34375 C 781.71912 529.16616 685.06405 435.55215 543.59375 380.0625 C 649.76968 308.20647 919.26477 202.75036 1066.1562 152.3125 C 1076.0374 148.91966 1083.3603 141.50164 1089.125 126.625 L 1107.2188 79.875 C 1110.6524 71.013787 1104.9052 66.88736 1097.7812 66.5625 z M 498.4375 464.59375 C 560.17212 484.7819 714.11404 544.44385 753.375 644.96875 C 752.16543 646.75152 746.29191 653.60138 742.5625 656 C 667.5631 704.2368 570.04319 717.74225 534.75 675.875 C 497.30409 631.45404 499.95043 547.69907 498.4375 464.59375 z "
     id="path2680" />
</svg>
