<?xml version="1.0" encoding="UTF-8" standalone="no"?>
<!-- Created with Inkscape (http://www.inkscape.org/) -->

<svg
   xmlns:dc="http://purl.org/dc/elements/1.1/"
   xmlns:cc="http://creativecommons.org/ns#"
   xmlns:rdf="http://www.w3.org/1999/02/22-rdf-syntax-ns#"
   xmlns:svg="http://www.w3.org/2000/svg"
   xmlns="http://www.w3.org/2000/svg"
   xmlns:sodipodi="http://sodipodi.sourceforge.net/DTD/sodipodi-0.dtd"
   xmlns:inkscape="http://www.inkscape.org/namespaces/inkscape"
   version="1.0"
   width="1000"
   height="1000"
   id="svg5496"
   sodipodi:version="0.32"
   inkscape:version="0.47pre4 r22446"
   sodipodi:docname="kaf+yaa.fina.svg"
   inkscape:output_extension="org.inkscape.output.svg.inkscape">
  <metadata
     id="metadata5594">
    <rdf:RDF>
      <cc:Work
         rdf:about="">
        <dc:format>image/svg+xml</dc:format>
        <dc:type
           rdf:resource="http://purl.org/dc/dcmitype/StillImage" />
      </cc:Work>
    </rdf:RDF>
  </metadata>
  <sodipodi:namedview
     inkscape:pageshadow="2"
     inkscape:pageopacity="0.0"
     guidetolerance="10.0"
     gridtolerance="10.0"
     objecttolerance="10.0"
     borderopacity="1.0"
     bordercolor="#666666"
     pagecolor="#ffffff"
     id="base"
     showgrid="false"
     showguides="true"
     inkscape:guide-bbox="true"
     inkscape:zoom="0.2663264"
     inkscape:cx="967.36161"
     inkscape:cy="264.69447"
     inkscape:window-x="0"
     inkscape:window-y="0"
     inkscape:current-layer="svg5496"
     inkscape:window-width="1278"
     inkscape:window-height="767"
     inkscape:window-maximized="1">
    <sodipodi:guide
       orientation="horizontal"
       position="200"
       id="guide5596" />
  </sodipodi:namedview>
  <defs
     id="defs5498">
    <inkscape:perspective
       sodipodi:type="inkscape:persp3d"
       inkscape:vp_x="0 : 500 : 1"
       inkscape:vp_y="0 : 1000 : 0"
       inkscape:vp_z="1000 : 500 : 1"
       inkscape:persp3d-origin="500 : 333.33333 : 1"
       id="perspective8" />
    <inkscape:perspective
       id="perspective2477"
       inkscape:persp3d-origin="372.04724 : 350.78739 : 1"
       inkscape:vp_z="744.09448 : 526.18109 : 1"
       inkscape:vp_y="0 : 1000 : 0"
       inkscape:vp_x="0 : 526.18109 : 1"
       sodipodi:type="inkscape:persp3d" />
    <inkscape:perspective
       id="perspective10112"
       inkscape:persp3d-origin="0.5 : 0.33333333 : 1"
       inkscape:vp_z="1 : 0.5 : 1"
       inkscape:vp_y="0 : 1000 : 0"
       inkscape:vp_x="0 : 0.5 : 1"
       sodipodi:type="inkscape:persp3d" />
    <inkscape:perspective
       id="perspective10134"
       inkscape:persp3d-origin="0.5 : 0.33333333 : 1"
       inkscape:vp_z="1 : 0.5 : 1"
       inkscape:vp_y="0 : 1000 : 0"
       inkscape:vp_x="0 : 0.5 : 1"
       sodipodi:type="inkscape:persp3d" />
    <inkscape:perspective
       id="perspective2852"
       inkscape:persp3d-origin="0.5 : 0.33333333 : 1"
       inkscape:vp_z="1 : 0.5 : 1"
       inkscape:vp_y="0 : 1000 : 0"
       inkscape:vp_x="0 : 0.5 : 1"
       sodipodi:type="inkscape:persp3d" />
  </defs>
  <path
     sodipodi:nodetypes="cssscsssscssss"
     id="path2826"
     d="m 391.7384,769.3326 c -6.51717,1.52812 -9.22982,5.1787 -10.02075,10.2031 l -8.03074,51.0151 c -1.27206,8.0807 0.1877,13.1403 8.40346,13.7545 68.86039,5.1482 143.84642,5.0704 192.90997,37.2606 C 563.61428,895.3621 338.63879,1048.4483 174.3356,1004.787 2.1745535,959.0375 33.764733,793.4325 75.435006,723.04429 85.867228,705.42249 67.405564,695.42961 59.723647,707.5136 38.589452,740.75859 10.406064,810.7183 4.0095435,862.7123 -12.657456,998.1897 54.798204,1126.1912 238.70954,1113.0147 348.13463,1104.4736 478.16371,1045.7396 568.31764,967.661 595.2731,944.3159 626.79175,861.5639 620.03386,841.5387 607.82984,805.3753 558.59938,786.45783 503.59891,778.5604 457.34291,771.91858 400.5748,767.26067 391.7384,769.3326 z"
     style="fill:#ff0000;fill-opacity:0.60784314;fill-rule:evenodd;stroke:#000000;stroke-width:0;stroke-linecap:butt;stroke-linejoin:miter;stroke-miterlimit:4;stroke-opacity:1;stroke-dasharray:none" />
  <g
     id="layer1"
     transform="translate(0,360)" />
  <path
     style="fill:#ff0000;fill-opacity:0.60784314;fill-rule:evenodd;stroke:#000000;stroke-width:0;stroke-linecap:butt;stroke-linejoin:miter;stroke-miterlimit:4;stroke-opacity:1;stroke-dasharray:none"
     d="m 976.43252,-15.93251 c 1.7577,-6.62478 -2.7767,-18.33179 -16.1567,-13.94499 -198.33507,65.02634 -472.17056,163.11172 -633.67977,248.67739 -25.80948,13.67356 -74.43933,78.4786 -82.44844,104.44051 -7.75393,25.13471 0.53202,75.82839 9.45761,95.26533 94.88027,68.60372 240.21213,168.96467 273.17459,270.40797 -2.71566,23.3688 -81.93668,64.0678 -135.04141,80.4189 -6.42973,1.9797 -9.22982,5.1787 -10.02075,10.2031 l -8.03074,51.0151 c -1.27206,8.0807 0.18764,14.17549 8.40346,13.7545 44.23734,-2.26677 87.71669,-31.06634 121.50854,-65.7449 51.4892,-52.8403 51.81287,-101.5715 15.60175,-214.6756 126.19069,86.3805 290.86276,227.8086 379.60176,236.1152 10.18135,0.95305 20.83498,-15.30476 28.01838,-49.07401 7.18339,-33.76926 -5.43136,-36.82214 -27.88258,-42.16159 C 726.03827,667.64453 589.4389,499.59034 286.89861,329.67813 c -1.96028,-1.10093 -4.81349,-3.99803 -2.68433,-5.70866 64.52652,-51.84262 350.21588,-162.3658 647.52954,-254.91265 14.9996,-4.66904 24.9693,-10.66751 29.4515,-27.56078 l 15.2372,-57.42855 z"
     id="path2828"
     sodipodi:nodetypes="csssccssssscszssssss" />
</svg>
