<?xml version="1.0" encoding="UTF-8" standalone="no"?>
<!-- Created with Inkscape (http://www.inkscape.org/) -->

<svg
   xmlns:dc="http://purl.org/dc/elements/1.1/"
   xmlns:cc="http://creativecommons.org/ns#"
   xmlns:rdf="http://www.w3.org/1999/02/22-rdf-syntax-ns#"
   xmlns:svg="http://www.w3.org/2000/svg"
   xmlns="http://www.w3.org/2000/svg"
   xmlns:sodipodi="http://sodipodi.sourceforge.net/DTD/sodipodi-0.dtd"
   xmlns:inkscape="http://www.inkscape.org/namespaces/inkscape"
   version="1.0"
   width="1000"
   height="1000"
   id="svg5496"
   sodipodi:version="0.32"
   inkscape:version="0.47pre4 r22446"
   sodipodi:docname="kaf+meem.fina.svg"
   inkscape:output_extension="org.inkscape.output.svg.inkscape">
  <metadata
     id="metadata5594">
    <rdf:RDF>
      <cc:Work
         rdf:about="">
        <dc:format>image/svg+xml</dc:format>
        <dc:type
           rdf:resource="http://purl.org/dc/dcmitype/StillImage" />
      </cc:Work>
    </rdf:RDF>
  </metadata>
  <sodipodi:namedview
     inkscape:pageshadow="2"
     inkscape:pageopacity="0.0"
     guidetolerance="10.0"
     gridtolerance="10.0"
     objecttolerance="10.0"
     borderopacity="1.0"
     bordercolor="#666666"
     pagecolor="#ffffff"
     id="base"
     showgrid="false"
     showguides="true"
     inkscape:guide-bbox="true"
     inkscape:zoom="0.32102648"
     inkscape:cx="125.94938"
     inkscape:cy="611.27048"
     inkscape:window-x="0"
     inkscape:window-y="25"
     inkscape:current-layer="svg5496"
     inkscape:window-width="641"
     inkscape:window-height="618"
     inkscape:window-maximized="0">
    <sodipodi:guide
       orientation="horizontal"
       position="200"
       id="guide5596" />
  </sodipodi:namedview>
  <defs
     id="defs5498">
    <inkscape:perspective
       sodipodi:type="inkscape:persp3d"
       inkscape:vp_x="0 : 500 : 1"
       inkscape:vp_y="0 : 1000 : 0"
       inkscape:vp_z="1000 : 500 : 1"
       inkscape:persp3d-origin="500 : 333.33333 : 1"
       id="perspective8" />
    <inkscape:perspective
       id="perspective2477"
       inkscape:persp3d-origin="372.04724 : 350.78739 : 1"
       inkscape:vp_z="744.09448 : 526.18109 : 1"
       inkscape:vp_y="0 : 1000 : 0"
       inkscape:vp_x="0 : 526.18109 : 1"
       sodipodi:type="inkscape:persp3d" />
    <inkscape:perspective
       sodipodi:type="inkscape:persp3d"
       inkscape:vp_x="0 : 500 : 1"
       inkscape:vp_y="0 : 1000 : 0"
       inkscape:vp_z="1000 : 500 : 1"
       inkscape:persp3d-origin="500 : 333.33333 : 1"
       id="perspective2389" />
    <inkscape:perspective
       id="perspective2504"
       inkscape:persp3d-origin="372.04724 : 350.78739 : 1"
       inkscape:vp_z="744.09448 : 526.18109 : 1"
       inkscape:vp_y="0 : 1000 : 0"
       inkscape:vp_x="0 : 526.18109 : 1"
       sodipodi:type="inkscape:persp3d" />
    <inkscape:perspective
       id="perspective3401"
       inkscape:persp3d-origin="500 : 333.33333 : 1"
       inkscape:vp_z="1000 : 500 : 1"
       inkscape:vp_y="0 : 1000 : 0"
       inkscape:vp_x="0 : 500 : 1"
       sodipodi:type="inkscape:persp3d" />
    <inkscape:perspective
       id="perspective5113"
       inkscape:persp3d-origin="0.5 : 0.33333333 : 1"
       inkscape:vp_z="1 : 0.5 : 1"
       inkscape:vp_y="0 : 1000 : 0"
       inkscape:vp_x="0 : 0.5 : 1"
       sodipodi:type="inkscape:persp3d" />
    <inkscape:perspective
       id="perspective5135"
       inkscape:persp3d-origin="0.5 : 0.33333333 : 1"
       inkscape:vp_z="1 : 0.5 : 1"
       inkscape:vp_y="0 : 1000 : 0"
       inkscape:vp_x="0 : 0.5 : 1"
       sodipodi:type="inkscape:persp3d" />
  </defs>
  <g
     id="layer1"
     transform="translate(308.38578,328.43172)"
     style="stroke:#000000;stroke-opacity:1" />
  <path
     style="fill:#ff0000;fill-opacity:0.60784314;fill-rule:evenodd;stroke:#000000;stroke-width:1;stroke-linecap:butt;stroke-linejoin:miter;stroke-miterlimit:4;stroke-opacity:1;stroke-dasharray:none"
     d="m 775.32114,-14.991 c 5.813,-12.205 0.259,-16.566 -8.276,-15.012 -159.407,29.032 -582.706,98.617 -697.836003,195.141 -12.696,10.644 -54.937,74.646 -62.699,101.645 -3.73,12.974 7.842,26.725 15.931,35.864 59.516,67.245 208.757003,184.305 242.066003,300.372 -40.861,35.699 -125.352,58.493 -148.44,59.72 -8.582,0.449 -12.247,4.52 -14.138,11.567 l -17.517,65.285 c -1.806003,6.729 1.542,10.485 5.989,14.703 3.263,3.095 8.214,6.746 12.82,9.148 C 54.798137,780.057 -1.520863,874.95 0.226137,954.115 c 1.854,84.116 34.133,363.1051 34.443,399.1951 0.231,27.019 26.45,23.164 28.655,2.785 5.157,-47.276 -5.039,-223.5511 -19.819,-340.8631 -6.276,-49.814 -6.32,-125.116 -1.34,-129.146 80.624003,-65.222 175.473003,-58.327 260.722003,-29.948 7.683,2.558 10.837,-4.915 12.339,-10.17 l 21.831,-76.407 c 2.589,-9.055 -0.06,-15.596 -5.325,-18.712 -35.585,-21.079 -71.961,-44.657 -105.785,-60.17 16.31,-15.977 51.77,-55.093 58.216,-82.98 7.197,-31.137 -3.206,-66.451 -16.379,-106.803 101.983,67.105 265.296,300.584 359.512,299.104 l -0.282,-91.879 c -76.708,-28.159 -161.352,-122.025 -294.748,-244.21 -97.422,-89.231 -200.866,-172.837 -259.006003,-216.307 -18.476,-13.813 -16.489,-22.26 -11.801,-27.825 C 182.10814,170.915 469.38814,106.03 730.80414,61.849 c 8.072,-1.365 11.138,-6.76 14.02,-12.81 l 30.497,-64.03 z"
     id="path3379"
     sodipodi:nodetypes="csssscsssscssssssssscscccsscsss" />
</svg>
