<?xml version="1.0" encoding="UTF-8" standalone="no"?>
<!-- Created with Inkscape (http://www.inkscape.org/) -->

<svg
   xmlns:dc="http://purl.org/dc/elements/1.1/"
   xmlns:cc="http://creativecommons.org/ns#"
   xmlns:rdf="http://www.w3.org/1999/02/22-rdf-syntax-ns#"
   xmlns:svg="http://www.w3.org/2000/svg"
   xmlns="http://www.w3.org/2000/svg"
   xmlns:sodipodi="http://sodipodi.sourceforge.net/DTD/sodipodi-0.dtd"
   xmlns:inkscape="http://www.inkscape.org/namespaces/inkscape"
   version="1.0"
   width="1000"
   height="1000"
   id="svg5496"
   sodipodi:version="0.32"
   inkscape:version="0.47pre4 r22446"
   sodipodi:docname="kaf+meem+lam.fina.svg"
   inkscape:output_extension="org.inkscape.output.svg.inkscape">
  <metadata
     id="metadata5594">
    <rdf:RDF>
      <cc:Work
         rdf:about="">
        <dc:format>image/svg+xml</dc:format>
        <dc:type
           rdf:resource="http://purl.org/dc/dcmitype/StillImage" />
      </cc:Work>
    </rdf:RDF>
  </metadata>
  <sodipodi:namedview
     inkscape:pageshadow="2"
     inkscape:pageopacity="0.0"
     guidetolerance="10.0"
     gridtolerance="10.0"
     objecttolerance="10.0"
     borderopacity="1.0"
     bordercolor="#666666"
     pagecolor="#ffffff"
     id="base"
     showgrid="false"
     showguides="true"
     inkscape:guide-bbox="true"
     inkscape:zoom="0.236"
     inkscape:cx="368.64407"
     inkscape:cy="365.08835"
     inkscape:window-x="-1"
     inkscape:window-y="25"
     inkscape:current-layer="svg5496"
     inkscape:window-width="641"
     inkscape:window-height="618"
     inkscape:window-maximized="0">
    <sodipodi:guide
       orientation="horizontal"
       position="200"
       id="guide5596" />
  </sodipodi:namedview>
  <defs
     id="defs5498">
    <inkscape:perspective
       sodipodi:type="inkscape:persp3d"
       inkscape:vp_x="0 : 500 : 1"
       inkscape:vp_y="0 : 1000 : 0"
       inkscape:vp_z="1000 : 500 : 1"
       inkscape:persp3d-origin="500 : 333.33333 : 1"
       id="perspective8" />
    <inkscape:perspective
       id="perspective2517"
       inkscape:persp3d-origin="372.04724 : 350.78739 : 1"
       inkscape:vp_z="744.09448 : 526.18109 : 1"
       inkscape:vp_y="0 : 1000 : 0"
       inkscape:vp_x="0 : 526.18109 : 1"
       sodipodi:type="inkscape:persp3d" />
    <inkscape:perspective
       id="perspective8609"
       inkscape:persp3d-origin="0.5 : 0.33333333 : 1"
       inkscape:vp_z="1 : 0.5 : 1"
       inkscape:vp_y="0 : 1000 : 0"
       inkscape:vp_x="0 : 0.5 : 1"
       sodipodi:type="inkscape:persp3d" />
  </defs>
  <g
     id="layer1"
     transform="translate(20,356)" />
  <path
     style="fill:#ff0000;fill-opacity:0.60784314;fill-rule:evenodd;stroke:#000000;stroke-width:1;stroke-linecap:butt;stroke-linejoin:miter;stroke-miterlimit:4;stroke-opacity:1;stroke-dasharray:none"
     d="m 997.39828,-18.5403 c -1.7589,0.077 -3.6297,0.49683 -5.5414,1.31563 C 618.29309,143.0818 368.823,251.19154 304.54242,400.72593 L 279.79484,134.39679 c -0.83125,-8.94141 -8.53887,-21.5656 -16.44769,-5.90606 -12.19562,24.14738 -21.617,48.76376 -30.0537,73.74352 -2.59456,7.68207 -1.38446,18.1479 0.6788,39.97787 l 70.53348,746.4534 C 261.8025,1044.9897 133.0827,1102.6466 33.406965,1081.9497 c -173.939785,-36.1173 -129.93,-211.8056 -62.51346,-317.7274 6.08735,-9.5642 -7.7021,-20.3261 -15.79565,-6.8643 -90.424885,150.40092 -155.484505,391.5268 75.26519,425.5997 41.95524,6.1951 236.793835,-24.4883 278.665605,-108.2171 25.01975,-50.0306 27.48331,-209.4657 15.07713,-313.5731 77.10268,121.09392 167.52993,157.08812 286.31061,179.65632 4.62143,0.8782 10.53069,-0.2633 10.5124,-9.2676 l 4.34202,-82.04832 c -0.011,-5.362 -3.08489,-10.454 -7.84422,-11.2741 -59.65609,-10.2793 -93.55931,-35.9044 -117.85864,-58.7852 -5.3234,-5.0128 -6.05935,-8.634 0.57569,-14.1473 32.06896,-26.6477 77.19384,-18.8989 117.16338,-38.5947 27.81641,-13.7072 63.54016,-75.9088 45.75626,-147.3327 100.4415,46.576 274.242,222.9263 342.93962,214.6149 l 0.1397,-90.6865 C 915.30748,692.4945 798.60198,566.4241 694.42348,509.45027 591.30585,453.05646 465.47555,404.27522 373.06213,385.67412 c -3.83161,-0.76827 -5.46329,-3.59115 -2.67069,-6.17519 131.49188,-121.67161 454.81894,-241.52714 594.78694,-292.83848 8.5501,-3.13441 18.321,-4.43393 24.0332,-24.47452 l 19.52122,-68.51895 c 1.8711,-6.56464 -3.7124,-12.53786 -11.33452,-12.20728 z M 309.60211,479.49868 C 438.05423,498.64051 596.37271,548.0137 648.81548,640.0263 617.0798,668.9166 529.37686,656.334 485.52811,713.635 454.79572,753.7957 468.00187,792.2633 467.03499,800 329.56665,722.2949 320.9697,555.3303 309.60211,479.49868 z"
     id="path2523"
     sodipodi:nodetypes="ccccssccssscsccccsssscccccsscccccscc" />
</svg>
