<?xml version="1.0" encoding="UTF-8" standalone="no"?>
<!-- Created with Inkscape (http://www.inkscape.org/) -->

<svg
   xmlns:dc="http://purl.org/dc/elements/1.1/"
   xmlns:cc="http://creativecommons.org/ns#"
   xmlns:rdf="http://www.w3.org/1999/02/22-rdf-syntax-ns#"
   xmlns:svg="http://www.w3.org/2000/svg"
   xmlns="http://www.w3.org/2000/svg"
   xmlns:sodipodi="http://sodipodi.sourceforge.net/DTD/sodipodi-0.dtd"
   xmlns:inkscape="http://www.inkscape.org/namespaces/inkscape"
   version="1.0"
   width="1000"
   height="1000"
   id="svg5496"
   sodipodi:version="0.32"
   inkscape:version="0.47pre0 r21549"
   sodipodi:docname="kaf+lam.medi.svg"
   inkscape:output_extension="org.inkscape.output.svg.inkscape">
  <metadata
     id="metadata5594">
    <rdf:RDF>
      <cc:Work
         rdf:about="">
        <dc:format>image/svg+xml</dc:format>
        <dc:type
           rdf:resource="http://purl.org/dc/dcmitype/StillImage" />
      </cc:Work>
    </rdf:RDF>
  </metadata>
  <sodipodi:namedview
     inkscape:pageshadow="2"
     inkscape:pageopacity="0.0"
     guidetolerance="10.0"
     gridtolerance="10.0"
     objecttolerance="10.0"
     borderopacity="1.0"
     bordercolor="#666666"
     pagecolor="#ffffff"
     id="base"
     showgrid="false"
     showguides="true"
     inkscape:guide-bbox="true"
     inkscape:zoom="0.236"
     inkscape:cx="500"
     inkscape:cy="330.50847"
     inkscape:window-x="0"
     inkscape:window-y="25"
     inkscape:current-layer="svg5496">
    <sodipodi:guide
       orientation="horizontal"
       position="200"
       id="guide5596" />
  </sodipodi:namedview>
  <defs
     id="defs5498">
    <inkscape:perspective
       sodipodi:type="inkscape:persp3d"
       inkscape:vp_x="0 : 500 : 1"
       inkscape:vp_y="0 : 1000 : 0"
       inkscape:vp_z="1000 : 500 : 1"
       inkscape:persp3d-origin="500 : 333.33333 : 1"
       id="perspective8" />
    <inkscape:perspective
       id="perspective2477"
       inkscape:persp3d-origin="372.04724 : 350.78739 : 1"
       inkscape:vp_z="744.09448 : 526.18109 : 1"
       inkscape:vp_y="0 : 1000 : 0"
       inkscape:vp_x="0 : 526.18109 : 1"
       sodipodi:type="inkscape:persp3d" />
  </defs>
  <g
     id="layer1"
     transform="translate(-136.02643,-108)" />
  <path
     style="fill:#000000;fill-rule:evenodd;stroke:#000000;stroke-width:1px;stroke-linecap:butt;stroke-linejoin:miter;stroke-opacity:1"
     d="M 707.53125 -58.1875 C 704.21625 -58.148788 700.79386 -57.367312 697.875 -56.0625 C 538.3215 15.262357 212.53716 156.49149 103.78125 336.40625 L 80.09375 12.375 C 79.16552 -0.313246 73.26367 -0.974674 69.46875 5.625 L 39.65625 57.46875 C 34.31523 66.757206 37.74716 75.096451 37.96875 83.625 C 45.64111 378.91615 80.13156 582.17622 67.59375 655.625 C 63.68289 678.53553 11.9377 704.63519 0.53125 704.84375 L 0.53125 781.3125 C 39.23149 772.59524 75.84505 707.21857 87.1875 660.90625 C 103.92088 721.83582 113.05599 831.85466 269.25 804.4375 C 424.52711 777.18128 420.51563 617.55575 416.84375 568.125 C 506.00169 635.79129 680.97858 804.61538 721 799.5 L 720.8125 698.59375 C 665.39909 716.88173 466.17981 458.28288 146.15625 339.125 C 266.39328 245.13902 503.82417 101.9151 688.53125 47.09375 C 699.79008 43.752111 702.82413 36.008964 704.875 27.25 L 720.53125 -39.71875 C 723.74731 -53.454127 716.00291 -58.286431 707.53125 -58.1875 z M 110.125 428.1875 C 111.1745 428.21799 112.35457 428.6437 113.40625 428.96875 C 211.8562 459.39767 392.54817 540.50793 396.875 637.6875 C 389.44564 653.06089 284.78784 726.31128 197.5 696.875 C 107.70174 666.59212 110.5176 469.53896 107.15625 439.875 C 106.04469 430.06548 107.8161 428.12042 110.125 428.1875 z "
     id="path2483" />
</svg>
