<?xml version="1.0" encoding="UTF-8" standalone="no"?>
<!-- Created with Inkscape (http://www.inkscape.org/) -->

<svg
   xmlns:dc="http://purl.org/dc/elements/1.1/"
   xmlns:cc="http://creativecommons.org/ns#"
   xmlns:rdf="http://www.w3.org/1999/02/22-rdf-syntax-ns#"
   xmlns:svg="http://www.w3.org/2000/svg"
   xmlns="http://www.w3.org/2000/svg"
   xmlns:sodipodi="http://sodipodi.sourceforge.net/DTD/sodipodi-0.dtd"
   xmlns:inkscape="http://www.inkscape.org/namespaces/inkscape"
   version="1.0"
   width="1000"
   height="1000"
   id="svg5496"
   sodipodi:version="0.32"
   inkscape:version="0.47pre0 r21549"
   sodipodi:docname="kaf+meem+lam.fina.svg"
   inkscape:output_extension="org.inkscape.output.svg.inkscape">
  <metadata
     id="metadata5594">
    <rdf:RDF>
      <cc:Work
         rdf:about="">
        <dc:format>image/svg+xml</dc:format>
        <dc:type
           rdf:resource="http://purl.org/dc/dcmitype/StillImage" />
      </cc:Work>
    </rdf:RDF>
  </metadata>
  <sodipodi:namedview
     inkscape:pageshadow="2"
     inkscape:pageopacity="0.0"
     guidetolerance="10.0"
     gridtolerance="10.0"
     objecttolerance="10.0"
     borderopacity="1.0"
     bordercolor="#666666"
     pagecolor="#ffffff"
     id="base"
     showgrid="false"
     showguides="true"
     inkscape:guide-bbox="true"
     inkscape:zoom="0.236"
     inkscape:cx="368.64407"
     inkscape:cy="365.08835"
     inkscape:window-x="0"
     inkscape:window-y="25"
     inkscape:current-layer="svg5496">
    <sodipodi:guide
       orientation="horizontal"
       position="200"
       id="guide5596" />
  </sodipodi:namedview>
  <defs
     id="defs5498">
    <inkscape:perspective
       sodipodi:type="inkscape:persp3d"
       inkscape:vp_x="0 : 500 : 1"
       inkscape:vp_y="0 : 1000 : 0"
       inkscape:vp_z="1000 : 500 : 1"
       inkscape:persp3d-origin="500 : 333.33333 : 1"
       id="perspective8" />
    <inkscape:perspective
       id="perspective2517"
       inkscape:persp3d-origin="372.04724 : 350.78739 : 1"
       inkscape:vp_z="744.09448 : 526.18109 : 1"
       inkscape:vp_y="0 : 1000 : 0"
       inkscape:vp_x="0 : 526.18109 : 1"
       sodipodi:type="inkscape:persp3d" />
  </defs>
  <g
     id="layer1"
     transform="translate(20,356)" />
  <path
     style="fill:#000000;fill-rule:evenodd;stroke:#000000;stroke-width:1px;stroke-linecap:butt;stroke-linejoin:miter;stroke-opacity:1"
     d="M 1108.9688 31.21875 C 1107.3072 31.214393 1105.5254 31.529742 1103.6875 32.21875 C 744.55668 167.14842 504.6793 258.25084 437.59375 396.4375 L 425.8125 144.28125 C 425.4166 135.81564 418.69767 123.57988 410.5625 138 C 398.01785 160.23618 388.06827 183.03482 379.03125 206.21875 C 376.25208 213.34853 376.93904 223.26772 377.9375 243.9375 L 412.0625 950.71875 C 369.36128 1001.9668 245.50972 1050.7409 152.4375 1026.9062 C -9.978765 985.31338 50.239213 817.25349 107.28125 724.65625 C 112.89298 715.54663 100.07858 704.65006 92.6875 717.5 C -10.707168 897.25938 -70.875231 1079.871 145.1875 1122 C 184.47234 1129.66 369.48797 1109.1824 412.59375 1032.0625 C 438.35088 985.98088 447.58749 835.7796 440.40625 737.09375 C 507.84378 854.59934 595.2789 904.19764 706.28125 930.625 C 710.60005 931.65322 716.22052 930.8333 716.59375 922.34375 L 720.5 833.4375 C 720.72226 828.38213 718.04506 823.44827 713.59375 822.46875 C 657.79847 810.19084 626.94731 784.56232 605.03125 761.9375 C 600.22997 756.98096 599.6932 753.53502 606.1875 748.625 C 637.57626 724.89348 689.30815 732.02247 727.84375 715.1875 C 754.66224 703.47135 781.51216 648.51281 767.84375 580.40625 C 869.06863 629.06537 1027.9164 810.58576 1085.5312 801.3125 L 1084.7812 704.03125 C 1028.1533 721.64274 896.2442 572.79286 800.5 514.5625 C 705.73095 456.92521 589.16028 406.76263 502.84375 385.21875 C 499.26481 384.32831 497.95706 381.71869 500.59375 379.28125 C 626.53989 262.85275 939.85055 171.30413 1074.0312 129 C 1082.2278 126.4158 1091.4957 125.61439 1097.75 106.96875 L 1119.125 43.21875 C 1121.1737 37.111057 1116.1689 31.23763 1108.9688 31.21875 z M 442.71875 471.09375 C 562.98747 494.71027 706.33081 547.94933 751.78125 636.96875 C 720.60944 662.82915 636.18361 650.15162 592.78125 702.625 C 562.98256 738.65157 569.87119 763.30129 581.6875 785.5 C 453.71716 701.74283 450.31316 544.68669 442.71875 471.09375 z "
     id="path2523" />
</svg>
