<?xml version="1.0" encoding="UTF-8" standalone="no"?>
<!-- Created with Inkscape (http://www.inkscape.org/) -->

<svg
   xmlns:dc="http://purl.org/dc/elements/1.1/"
   xmlns:cc="http://creativecommons.org/ns#"
   xmlns:rdf="http://www.w3.org/1999/02/22-rdf-syntax-ns#"
   xmlns:svg="http://www.w3.org/2000/svg"
   xmlns="http://www.w3.org/2000/svg"
   xmlns:sodipodi="http://sodipodi.sourceforge.net/DTD/sodipodi-0.dtd"
   xmlns:inkscape="http://www.inkscape.org/namespaces/inkscape"
   version="1.0"
   width="1000"
   height="1000"
   id="svg5496"
   sodipodi:version="0.32"
   inkscape:version="0.47pre4 r22446"
   sodipodi:docname="kaf+baa.medi.svg"
   inkscape:output_extension="org.inkscape.output.svg.inkscape">
  <metadata
     id="metadata5594">
    <rdf:RDF>
      <cc:Work
         rdf:about="">
        <dc:format>image/svg+xml</dc:format>
        <dc:type
           rdf:resource="http://purl.org/dc/dcmitype/StillImage" />
      </cc:Work>
    </rdf:RDF>
  </metadata>
  <sodipodi:namedview
     inkscape:pageshadow="2"
     inkscape:pageopacity="0.0"
     guidetolerance="10.0"
     gridtolerance="10.0"
     objecttolerance="10.0"
     borderopacity="1.0"
     bordercolor="#666666"
     pagecolor="#ffffff"
     id="base"
     showgrid="false"
     showguides="true"
     inkscape:guide-bbox="true"
     inkscape:zoom="0.4434347"
     inkscape:cx="319.30584"
     inkscape:cy="379.33407"
     inkscape:window-x="0"
     inkscape:window-y="0"
     inkscape:current-layer="svg5496"
     inkscape:window-width="1278"
     inkscape:window-height="767"
     inkscape:window-maximized="1">
    <sodipodi:guide
       orientation="horizontal"
       position="200"
       id="guide5596" />
  </sodipodi:namedview>
  <defs
     id="defs5498">
    <inkscape:perspective
       sodipodi:type="inkscape:persp3d"
       inkscape:vp_x="0 : 500 : 1"
       inkscape:vp_y="0 : 1000 : 0"
       inkscape:vp_z="1000 : 500 : 1"
       inkscape:persp3d-origin="500 : 333.33333 : 1"
       id="perspective8" />
    <inkscape:perspective
       id="perspective2388"
       inkscape:persp3d-origin="372.04724 : 350.78739 : 1"
       inkscape:vp_z="744.09448 : 526.18109 : 1"
       inkscape:vp_y="0 : 1000 : 0"
       inkscape:vp_x="0 : 526.18109 : 1"
       sodipodi:type="inkscape:persp3d" />
    <inkscape:perspective
       id="perspective7012"
       inkscape:persp3d-origin="0.5 : 0.33333333 : 1"
       inkscape:vp_z="1 : 0.5 : 1"
       inkscape:vp_y="0 : 1000 : 0"
       inkscape:vp_x="0 : 0.5 : 1"
       sodipodi:type="inkscape:persp3d" />
  </defs>
  <g
     id="layer1"
     transform="translate(-248.89868,64.85394)" />
  <path
     sodipodi:nodetypes="csssscss"
     id="path2816"
     d="m 269.30912,705.66419 c -29.66875,-5.74591 -54.51406,-18.16628 -77.09214,-34.06529 -5.16106,-3.63431 -15.753,-1.7063 -18.517,1.7229 -16.506,20.4775 -43.10622,33.87778 -82.889,34.4958 -27.966016,0.43445 -18.090877,92.21757 -0.523,90.1824 26.61855,-3.08366 59.668,-26.9348 89.211,-72.5483 16.77031,22.48804 53.46168,46.27515 91.18344,56.93368 19.83474,5.60443 35.93888,-69.49499 -1.3733,-76.72119 z"
     style="fill:#ff0000;fill-opacity:0.60784314;fill-rule:evenodd;stroke:#000000;stroke-width:1;stroke-linecap:butt;stroke-linejoin:miter;stroke-miterlimit:4;stroke-opacity:1;stroke-dasharray:none" />
  <path
     style="fill:#ff0000;fill-opacity:0.60784314;fill-rule:evenodd;stroke:#000000;stroke-width:1;stroke-linecap:butt;stroke-linejoin:miter;stroke-miterlimit:4;stroke-opacity:1;stroke-dasharray:none"
     d="m 637.22498,82.5937 c 4.13,-13.4093 -10.953,-21.3305 -24.564,-16.082 -226.777,87.4489 -542.840995,229.1901 -596.081995,298.9223 -7.16,9.3773 -15.819,36.1224 -15.886,66.5235 -0.04,18.9601 3.581,41.3111 8.193,52.1742 2.536,5.9724 10.775,10.9007 15.798,12.5099 98.112995,31.4324 293.755995,95.652 324.226995,203.5199 1.471,5.2088 3.619,7.1568 -1.445,7.8145 -28.83521,3.74504 -55.05894,3.96475 -78.15686,-2.31181 -50.66713,-13.76813 -24.01418,68.73667 1.3733,76.72119 35.55654,11.18275 72.48671,9.15147 93.56756,-15.43578 28.63892,-33.40247 10.913,-98.7294 -9.311,-136.9259 -1.688,-3.1875 -0.828,-5.0578 2.596,-3.2435 84.057,44.728 164.32132,124.64502 276.842,181.2867 19.47285,9.80242 43.59382,-73.7405 -0.2,-89.1607 C 568.73675,695.8641 423.89398,583.862 353.63298,543.1276 252.53798,484.5163 149.93184,440.91296 41.982985,419.9468 c -2.898004,-0.56286 -2.416,-5.4095 -0.717,-7.1749 42.467,-44.1301 378.536995,-194.9238 566.354995,-250.2983 4.469,-1.3179 6.206,-3.9072 7.559,-8.3007 l 22.045,-71.5792 z"
     id="path2818"
     sodipodi:nodetypes="cssssssssssscssssssss" />
</svg>
