<?xml version="1.0" encoding="UTF-8" standalone="no"?>
<!-- Created with Inkscape (http://www.inkscape.org/) -->

<svg
   xmlns:dc="http://purl.org/dc/elements/1.1/"
   xmlns:cc="http://creativecommons.org/ns#"
   xmlns:rdf="http://www.w3.org/1999/02/22-rdf-syntax-ns#"
   xmlns:svg="http://www.w3.org/2000/svg"
   xmlns="http://www.w3.org/2000/svg"
   xmlns:sodipodi="http://sodipodi.sourceforge.net/DTD/sodipodi-0.dtd"
   xmlns:inkscape="http://www.inkscape.org/namespaces/inkscape"
   version="1.0"
   width="1000"
   height="1000"
   id="svg5496"
   sodipodi:version="0.32"
   inkscape:version="0.47pre4 r22446"
   sodipodi:docname="kaf+heh.isol.svg"
   inkscape:output_extension="org.inkscape.output.svg.inkscape">
  <metadata
     id="metadata5594">
    <rdf:RDF>
      <cc:Work
         rdf:about="">
        <dc:format>image/svg+xml</dc:format>
        <dc:type
           rdf:resource="http://purl.org/dc/dcmitype/StillImage" />
      </cc:Work>
    </rdf:RDF>
  </metadata>
  <sodipodi:namedview
     inkscape:pageshadow="2"
     inkscape:pageopacity="0.0"
     guidetolerance="10.0"
     gridtolerance="10.0"
     objecttolerance="10.0"
     borderopacity="1.0"
     bordercolor="#666666"
     pagecolor="#ffffff"
     id="base"
     showgrid="false"
     showguides="true"
     inkscape:guide-bbox="true"
     inkscape:zoom="0.5520717"
     inkscape:cx="183.96476"
     inkscape:cy="708.90806"
     inkscape:window-x="0"
     inkscape:window-y="0"
     inkscape:current-layer="svg5496"
     inkscape:window-width="1278"
     inkscape:window-height="767"
     inkscape:window-maximized="1">
    <sodipodi:guide
       orientation="horizontal"
       position="200"
       id="guide5596" />
  </sodipodi:namedview>
  <defs
     id="defs5498">
    <inkscape:perspective
       sodipodi:type="inkscape:persp3d"
       inkscape:vp_x="0 : 500 : 1"
       inkscape:vp_y="0 : 1000 : 0"
       inkscape:vp_z="1000 : 500 : 1"
       inkscape:persp3d-origin="500 : 333.33333 : 1"
       id="perspective8" />
    <inkscape:perspective
       id="perspective2457"
       inkscape:persp3d-origin="372.04724 : 350.78739 : 1"
       inkscape:vp_z="744.09448 : 526.18109 : 1"
       inkscape:vp_y="0 : 1000 : 0"
       inkscape:vp_x="0 : 526.18109 : 1"
       sodipodi:type="inkscape:persp3d" />
    <inkscape:perspective
       sodipodi:type="inkscape:persp3d"
       inkscape:vp_x="0 : 526.18109 : 1"
       inkscape:vp_y="0 : 1000 : 0"
       inkscape:vp_z="744.09448 : 526.18109 : 1"
       inkscape:persp3d-origin="372.04724 : 350.78739 : 1"
       id="perspective2524" />
    <inkscape:perspective
       id="perspective2389"
       inkscape:persp3d-origin="500 : 333.33333 : 1"
       inkscape:vp_z="1000 : 500 : 1"
       inkscape:vp_y="0 : 1000 : 0"
       inkscape:vp_x="0 : 500 : 1"
       sodipodi:type="inkscape:persp3d" />
    <inkscape:perspective
       id="perspective10733"
       inkscape:persp3d-origin="0.5 : 0.33333333 : 1"
       inkscape:vp_z="1 : 0.5 : 1"
       inkscape:vp_y="0 : 1000 : 0"
       inkscape:vp_x="0 : 0.5 : 1"
       sodipodi:type="inkscape:persp3d" />
    <inkscape:perspective
       id="perspective10755"
       inkscape:persp3d-origin="0.5 : 0.33333333 : 1"
       inkscape:vp_z="1 : 0.5 : 1"
       inkscape:vp_y="0 : 1000 : 0"
       inkscape:vp_x="0 : 0.5 : 1"
       sodipodi:type="inkscape:persp3d" />
  </defs>
  <path
     style="fill:#ff0000;fill-opacity:0.60784314;fill-rule:evenodd;stroke:#000000;stroke-width:1;stroke-linecap:butt;stroke-linejoin:miter;stroke-miterlimit:4;stroke-opacity:1;stroke-dasharray:none"
     d="m 900.49938,-121.24366 c -166.7288,62.6289 -412.0613,135.260076 -596.0822,247.38634 -28.9641,17.6482 -45.2881,47.8374 -61.3456,76.98171 -13.0254,36.27437 -17.0077,104.88793 -12.4203,110.07923 l 47.6831,53.9734 c 3.3245,3.762 8.4337,4.1859 12.0791,0.9717 l 10.3365,-9.1028 c 4.8863,-4.30835 7.3682,-3.35 9.744,-0.8345 53.5498,56.6938 172.9552,207.2827 187.6692,326.99229 -54.5785,48.2357 -133.83446,73.74071 -176.7257,41.4895 -62.98371,-47.35934 -61.71242,80.20094 -21.2355,108.249 23.80659,16.49653 196.5635,29.6736 227.0529,-110.1513 48.1458,-220.79609 -188.8786,-475.13817 -235.3347,-511.52044 103.2424,-71.614 391.6389,-173.017404 597.9106,-241.72813 6.2681,-2.08797 11.3774,-5.65919 14.1606,-14.80668 3.7292,-12.25679 9.4924,-38.66942 14.1567,-57.56516 4.0596,-16.44632 -7.6029,-24.18769 -17.6487,-20.41416 z"
     id="path2821"
     sodipodi:nodetypes="cscccccccssccssss" />
  <g
     id="layer1"
     transform="matrix(0.5,0,0,0.5,129.04219,-59.9938)"
     style="stroke:#000000;stroke-width:2;stroke-miterlimit:4;stroke-opacity:1;stroke-dasharray:none" />
  <path
     sodipodi:nodetypes="csccccccssscccsscscc"
     id="path2819"
     d="m 321.43748,726.69321 c -29.27528,-22.00613 -43.4318,-58.2135 -49.6908,-78.9733 -25.7655,-85.45939 -42.3994,-216.18549 -42.3994,-216.18549 -3.4645,-8.7694 -2.7074,-26.9317 -16.1717,-13.4335 l -20.7535,44.6768 c -2.8214,9.3771 -1.9069,22.1503 -1.402,27.8415 l 4.8326,39.1084 c -43.302,19.1596 -81.81986,43.4881 -116.346962,76.0918 0,0 -11.3652,11.3503 -17.9075,27.7577 -3.5898,9.0032 -21.4002,50.66829 -27.1801,66.20599 -6.9499,18.6835 7.3552,36.0791 14.8766,42.9594 11.5717,10.5854 81.339072,16.6299 125.417162,9.3538 9.9231,-2.3798 17.0313,-7.5376 25.6618,-22.8994 4.7938,-8.359 13.7252,-23.5582 23.9352,-64.919 4.4744,26.4604 22.46588,136.03049 75.8931,170.6643 24.36665,15.79551 52.73804,-84.56864 21.2355,-108.249 z M 207.04258,580.07582 c 1.2035,19.5629 24.3505,70.05939 -5.6243,80.61199 -23.134,8.1443 -83.41366,16.4178 -110.313762,-6.068 24.387702,-44.17919 88.659262,-68.97319 115.938062,-74.54399 z"
     style="fill:#ff0000;fill-opacity:0.60784314;fill-rule:evenodd;stroke:#000000;stroke-width:1;stroke-linecap:butt;stroke-linejoin:miter;stroke-miterlimit:4;stroke-opacity:1;stroke-dasharray:none" />
</svg>
