<?xml version="1.0" encoding="UTF-8" standalone="no"?>
<!-- Created with Inkscape (http://www.inkscape.org/) -->

<svg
   xmlns:dc="http://purl.org/dc/elements/1.1/"
   xmlns:cc="http://creativecommons.org/ns#"
   xmlns:rdf="http://www.w3.org/1999/02/22-rdf-syntax-ns#"
   xmlns:svg="http://www.w3.org/2000/svg"
   xmlns="http://www.w3.org/2000/svg"
   xmlns:sodipodi="http://sodipodi.sourceforge.net/DTD/sodipodi-0.dtd"
   xmlns:inkscape="http://www.inkscape.org/namespaces/inkscape"
   version="1.0"
   width="1000"
   height="1000"
   id="svg5496"
   sodipodi:version="0.32"
   inkscape:version="0.47pre4 r22446"
   sodipodi:docname="kaf+lam+meem.medi.svg"
   inkscape:output_extension="org.inkscape.output.svg.inkscape">
  <metadata
     id="metadata5594">
    <rdf:RDF>
      <cc:Work
         rdf:about="">
        <dc:format>image/svg+xml</dc:format>
        <dc:type
           rdf:resource="http://purl.org/dc/dcmitype/StillImage" />
      </cc:Work>
    </rdf:RDF>
  </metadata>
  <sodipodi:namedview
     inkscape:pageshadow="2"
     inkscape:pageopacity="0.0"
     guidetolerance="10.0"
     gridtolerance="10.0"
     objecttolerance="10.0"
     borderopacity="1.0"
     bordercolor="#666666"
     pagecolor="#ffffff"
     id="base"
     showgrid="false"
     showguides="true"
     inkscape:guide-bbox="true"
     inkscape:zoom="0.44547727"
     inkscape:cx="278.08851"
     inkscape:cy="402.33914"
     inkscape:window-x="0"
     inkscape:window-y="0"
     inkscape:current-layer="svg5496"
     inkscape:window-width="1278"
     inkscape:window-height="767"
     inkscape:window-maximized="1">
    <sodipodi:guide
       orientation="horizontal"
       position="200"
       id="guide5596" />
  </sodipodi:namedview>
  <defs
     id="defs5498">
    <inkscape:perspective
       sodipodi:type="inkscape:persp3d"
       inkscape:vp_x="0 : 500 : 1"
       inkscape:vp_y="0 : 1000 : 0"
       inkscape:vp_z="1000 : 500 : 1"
       inkscape:persp3d-origin="500 : 333.33333 : 1"
       id="perspective8" />
    <inkscape:perspective
       id="perspective2477"
       inkscape:persp3d-origin="372.04724 : 350.78739 : 1"
       inkscape:vp_z="744.09448 : 526.18109 : 1"
       inkscape:vp_y="0 : 1000 : 0"
       inkscape:vp_x="0 : 526.18109 : 1"
       sodipodi:type="inkscape:persp3d" />
    <inkscape:perspective
       id="perspective6464"
       inkscape:persp3d-origin="0.5 : 0.33333333 : 1"
       inkscape:vp_z="1 : 0.5 : 1"
       inkscape:vp_y="0 : 1000 : 0"
       inkscape:vp_x="0 : 0.5 : 1"
       sodipodi:type="inkscape:persp3d" />
    <inkscape:perspective
       id="perspective6486"
       inkscape:persp3d-origin="0.5 : 0.33333333 : 1"
       inkscape:vp_z="1 : 0.5 : 1"
       inkscape:vp_y="0 : 1000 : 0"
       inkscape:vp_x="0 : 0.5 : 1"
       sodipodi:type="inkscape:persp3d" />
    <inkscape:perspective
       id="perspective6518"
       inkscape:persp3d-origin="0.5 : 0.33333333 : 1"
       inkscape:vp_z="1 : 0.5 : 1"
       inkscape:vp_y="0 : 1000 : 0"
       inkscape:vp_x="0 : 0.5 : 1"
       sodipodi:type="inkscape:persp3d" />
  </defs>
  <g
     id="layer1"
     transform="translate(46.725118,-69.72844)" />
  <path
     style="fill:#ff0000;fill-opacity:0.60784314;fill-rule:evenodd;stroke:#000000;stroke-width:1;stroke-linecap:butt;stroke-linejoin:miter;stroke-miterlimit:4;stroke-opacity:1;stroke-dasharray:none"
     d="m 182.7284,598.0319 c -12.29162,-5.56289 -25.5332,1.8698 -31.0852,15.6088 C 113.1391,708.9224 23.205446,707.3506 -0.049,708.7873 -49.575141,711.84711 -21.617011,803.61707 0,800 c 40.396296,-6.75933 66.2057,-21.3393 125.0243,-80.5445 9.2964,-8.5328 20.2005,-15.9363 27.868,-0.5619 22.3029,44.7198 72.1532,100.76702 132.5317,99.86832 4.7327,-0.071 8.3088,-2.02472 9.9422,-6.06262 11.6701,-28.8499 5.26759,-85.31421 -10.2004,-118.0106 -10.43181,-22.05087 -46.10687,-71.16298 -102.4374,-96.6568 z"
     id="path2822"
     sodipodi:nodetypes="cssscscsss" />
  <path
     sodipodi:nodetypes="csssccssssscss"
     id="path2824"
     d="M 491.3813,716.9432 C 448.58925,694.2948 430.37632,566.60425 422.67322,490.05149 419.64434,459.95072 410.32716,395.73581 408.6577,381.1836 398.30624,290.95267 391.382,206.8295 384.3819,116.4705 c -0.773,-9.9773 -11.6861,-25.48276 -19.8263,-7.59477 l -19.9344,43.75886 c -5.8793,12.9196 -3.8991,28.50556 -4.0986,41.55141 -0.7612,49.7612 34.4315,343.9131 27.9789,364.3373 -16.8781,53.4237 -94.52671,63.03717 -113.33,63.1528 -35.09562,0.21582 -68.1073,-24.7628 -76.60887,-24.73699 -54.44893,0.16531 4.12355,129.23097 106.60317,97.74959 61.70193,-18.95461 97.1503,-89.4059 104.7868,-108.6779 11.2554,67.2452 23.35214,167.54599 67.6584,222.7436 21.07111,26.2508 66.21435,-74.63965 33.7703,-91.8112 z"
     style="fill:#ff0000;fill-opacity:0.60784314;fill-rule:evenodd;stroke:#000000;stroke-width:1;stroke-linecap:butt;stroke-linejoin:miter;stroke-miterlimit:4;stroke-opacity:1;stroke-dasharray:none" />
  <path
     style="fill:#ff0000;fill-opacity:0.60784314;fill-rule:evenodd;stroke:#000000;stroke-width:1;stroke-linecap:butt;stroke-linejoin:miter;stroke-miterlimit:4;stroke-opacity:1;stroke-dasharray:none"
     d="m 422.67322,490.05149 c 121.0089,6.48956 263.53608,115.02081 250.15758,179.56151 -24.614,30.8017 -117.5589,81.00874 -181.4495,47.3302 -53.97397,-28.45121 -64.24918,53.22954 -33.7703,91.8112 23.12887,29.27765 67.0984,35.37992 132.2115,14.03362 C 705.2254,785.0282 705.4987,687.1981 690.4261,590.1116 c 90.345,50.5372 218.33124,203.61113 306.1872,223.7297 28.4404,6.5127 30.4296,-78.36207 0.2931,-89.703 C 937.69405,701.8556 916.0634,679.8042 876.601,651.0052 752.6436,560.5429 626.3331,428.0382 451.8053,400.9252 571.6493,290.5068 867.76,145.1003 1016.5693,94.12541 c 10.0886,-5.11701 12.3927,-16.09623 12.1753,-23.1905 l 0.078,-45.45416 c 0.018,-10.71274 -7.362,-15.5892 -16.6044,-11.38525 -219.8225,99.98756 -530.10894,229.06079 -595.0688,367.4375 -24.31948,51.80507 -31.85928,106.51368 5.52382,108.51849 z"
     id="path2826"
     sodipodi:nodetypes="ccssccssccccssss" />
</svg>
