<?xml version="1.0" encoding="UTF-8" standalone="no"?>
<!-- Created with Inkscape (http://www.inkscape.org/) -->

<svg
   xmlns:dc="http://purl.org/dc/elements/1.1/"
   xmlns:cc="http://creativecommons.org/ns#"
   xmlns:rdf="http://www.w3.org/1999/02/22-rdf-syntax-ns#"
   xmlns:svg="http://www.w3.org/2000/svg"
   xmlns="http://www.w3.org/2000/svg"
   xmlns:sodipodi="http://sodipodi.sourceforge.net/DTD/sodipodi-0.dtd"
   xmlns:inkscape="http://www.inkscape.org/namespaces/inkscape"
   version="1.0"
   width="1000"
   height="1000"
   id="svg5496"
   sodipodi:version="0.32"
   inkscape:version="0.47pre4 r22446"
   sodipodi:docname="kaf+lam.init.svg"
   inkscape:output_extension="org.inkscape.output.svg.inkscape">
  <metadata
     id="metadata5594">
    <rdf:RDF>
      <cc:Work
         rdf:about="">
        <dc:format>image/svg+xml</dc:format>
        <dc:type
           rdf:resource="http://purl.org/dc/dcmitype/StillImage" />
      </cc:Work>
    </rdf:RDF>
  </metadata>
  <sodipodi:namedview
     inkscape:pageshadow="2"
     inkscape:pageopacity="0.0"
     guidetolerance="10.0"
     gridtolerance="10.0"
     objecttolerance="10.0"
     borderopacity="1.0"
     bordercolor="#666666"
     pagecolor="#ffffff"
     id="base"
     showgrid="false"
     showguides="true"
     inkscape:guide-bbox="true"
     inkscape:zoom="0.63176541"
     inkscape:cx="255.17627"
     inkscape:cy="483.89241"
     inkscape:window-x="0"
     inkscape:window-y="0"
     inkscape:current-layer="svg5496"
     inkscape:window-width="1278"
     inkscape:window-height="767"
     inkscape:window-maximized="1">
    <sodipodi:guide
       orientation="horizontal"
       position="200"
       id="guide5596" />
  </sodipodi:namedview>
  <defs
     id="defs5498">
    <inkscape:perspective
       sodipodi:type="inkscape:persp3d"
       inkscape:vp_x="0 : 500 : 1"
       inkscape:vp_y="0 : 1000 : 0"
       inkscape:vp_z="1000 : 500 : 1"
       inkscape:persp3d-origin="500 : 333.33333 : 1"
       id="perspective8" />
    <inkscape:perspective
       id="perspective2477"
       inkscape:persp3d-origin="372.04724 : 350.78739 : 1"
       inkscape:vp_z="744.09448 : 526.18109 : 1"
       inkscape:vp_y="0 : 1000 : 0"
       inkscape:vp_x="0 : 526.18109 : 1"
       sodipodi:type="inkscape:persp3d" />
    <inkscape:perspective
       id="perspective3839"
       inkscape:persp3d-origin="0.5 : 0.33333333 : 1"
       inkscape:vp_z="1 : 0.5 : 1"
       inkscape:vp_y="0 : 1000 : 0"
       inkscape:vp_x="0 : 0.5 : 1"
       sodipodi:type="inkscape:persp3d" />
    <inkscape:perspective
       id="perspective2856"
       inkscape:persp3d-origin="0.5 : 0.33333333 : 1"
       inkscape:vp_z="1 : 0.5 : 1"
       inkscape:vp_y="0 : 1000 : 0"
       inkscape:vp_x="0 : 0.5 : 1"
       sodipodi:type="inkscape:persp3d" />
  </defs>
  <g
     id="layer1"
     transform="translate(-117.25529,67.62115)" />
  <path
     style="fill:#ff0000;fill-opacity:0.60784314;fill-rule:evenodd;stroke:#000000;stroke-width:1;stroke-linecap:butt;stroke-linejoin:miter;stroke-miterlimit:4;stroke-opacity:1;stroke-dasharray:none"
     d="m 222.87967,718.37507 c -23.65125,1.41919 -47.05258,0.53007 -66.50327,-9.66907 -44.5549,-23.36277 -46.6605,-146.82741 -51.8525,-235.79307 -1.54285,-26.43696 -1.66457,-49.56167 -4.1166,-83.99079 L 80.156901,104.58542 c -0.6432,-9.28419 -11.7441,-7.3918 -13.4617,-2.66234 L 44.4223,155.21475 c -3.555,8.52554 -1.9204,15.79321 -1.5153,21.99802 C 53.6105,341.20148 69.820901,596.20186 64.975101,648.9936 62.0692,680.6508 27.348049,708.36054 0.6091,709.6854 -35.011967,711.45036 -22.198075,806.75981 0,800 38.657298,788.22799 62.9938,735.7914 80.479401,677.9616 c 13.398,100.552 38.519679,145.63313 151.686899,139.2972 44.21746,-2.47562 42.93772,-102.01745 -9.28663,-98.88373 z"
     id="path2822"
     sodipodi:nodetypes="csssccccssscss" />
  <path
     sodipodi:nodetypes="ccccssssssccss"
     id="path2824"
     d="M 98.033001,388.13071 C 121.57248,262.45009 559.2957,126.53817 675.7741,82.90008 c 10.427,-3.41672 19.6956,-0.57471 15.8103,11.19026 l -16.6936,52.80056 c -2.2752,8.44176 -5.0085,14.4131 -13.1868,17.43311 -158.8873,58.67235 -474.3573,153.89969 -527.9798,222.72748 -3.5691,4.58117 -2.54991,4.95514 1.95023,6.73536 121.79714,48.18204 242.21987,157.76701 241.09987,250.70575 -1.48812,121.90291 -85.6769,170.47535 -144.608,172.7662 -43.68347,1.69812 -43.70141,-95.44845 -9.28663,-98.88373 48.1812,-4.80944 100.30857,-30.3271 131.58043,-60.97037 2.5382,-2.4977 2.5639,-4.4434 1.8711,-6.7385 C 304.38877,561.66321 166.78308,485.41812 104.05987,466.41561 73.033251,457.01585 92.625186,417.0038 98.033001,388.13071 z"
     style="fill:#ff0000;fill-opacity:0.60784314;fill-rule:evenodd;stroke:#000000;stroke-width:1;stroke-linecap:butt;stroke-linejoin:miter;stroke-miterlimit:4;stroke-opacity:1;stroke-dasharray:none" />
</svg>
