<?xml version="1.0" encoding="UTF-8" standalone="no"?>
<!-- Created with Inkscape (http://www.inkscape.org/) -->
<svg
   xmlns:dc="http://purl.org/dc/elements/1.1/"
   xmlns:cc="http://creativecommons.org/ns#"
   xmlns:rdf="http://www.w3.org/1999/02/22-rdf-syntax-ns#"
   xmlns:svg="http://www.w3.org/2000/svg"
   xmlns="http://www.w3.org/2000/svg"
   xmlns:sodipodi="http://sodipodi.sourceforge.net/DTD/sodipodi-0.dtd"
   xmlns:inkscape="http://www.inkscape.org/namespaces/inkscape"
   version="1.0"
   width="1000"
   height="1000"
   id="svg5496"
   sodipodi:version="0.32"
   inkscape:version="0.46"
   sodipodi:docname="kaf+baa.medi.svg"
   inkscape:output_extension="org.inkscape.output.svg.inkscape">
  <metadata
     id="metadata5594">
    <rdf:RDF>
      <cc:Work
         rdf:about="">
        <dc:format>image/svg+xml</dc:format>
        <dc:type
           rdf:resource="http://purl.org/dc/dcmitype/StillImage" />
      </cc:Work>
    </rdf:RDF>
  </metadata>
  <sodipodi:namedview
     inkscape:pageshadow="2"
     inkscape:pageopacity="0.0"
     guidetolerance="10.0"
     gridtolerance="10.0"
     objecttolerance="10.0"
     borderopacity="1.0"
     bordercolor="#666666"
     pagecolor="#ffffff"
     id="base"
     showgrid="false"
     showguides="true"
     inkscape:guide-bbox="true"
     inkscape:zoom="1.816"
     inkscape:cx="143.80058"
     inkscape:cy="370.97215"
     inkscape:window-x="0"
     inkscape:window-y="25"
     inkscape:current-layer="svg5496">
    <sodipodi:guide
       orientation="horizontal"
       position="200"
       id="guide5596" />
  </sodipodi:namedview>
  <defs
     id="defs5498">
    <inkscape:perspective
       sodipodi:type="inkscape:persp3d"
       inkscape:vp_x="0 : 500 : 1"
       inkscape:vp_y="0 : 1000 : 0"
       inkscape:vp_z="1000 : 500 : 1"
       inkscape:persp3d-origin="500 : 333.33333 : 1"
       id="perspective8" />
    <inkscape:perspective
       id="perspective2388"
       inkscape:persp3d-origin="372.04724 : 350.78739 : 1"
       inkscape:vp_z="744.09448 : 526.18109 : 1"
       inkscape:vp_y="0 : 1000 : 0"
       inkscape:vp_x="0 : 526.18109 : 1"
       sodipodi:type="inkscape:persp3d" />
  </defs>
  <g
     id="layer1"
     transform="translate(-248.89868,64.85394)" />
  <path
     style="fill:#000000;fill-rule:evenodd;stroke:#000000;stroke-width:1px;stroke-linecap:butt;stroke-linejoin:miter;stroke-opacity:1"
     d="M 584.78296,43.548414 C 589.11555,29.481181 573.29144,21.171207 559.0126,26.677365 C 321.10831,118.41721 -19.877918,264.42395 -75.732308,337.57788 C -83.243328,347.41525 -92.328058,375.47273 -92.397208,407.36551 C -92.440338,427.25603 -88.642418,450.70387 -83.803258,462.09992 C -81.142718,468.36539 -72.499208,473.53552 -67.229938,475.22363 C 35.697782,508.19849 245.13699,575.56936 277.1032,688.73019 C 278.64681,694.19457 276.691,698.24649 271.39193,699.02633 C 192.11712,710.69291 141.49926,695.83918 102.81377,657.33857 C 73.032932,678.70433 42.266812,698.44766 2.1428916,698.38433 L 1.5922316,800 C 16.615682,800.57192 66.330762,767.39605 97.323372,719.54425 C 116.42329,739.88008 246.95793,827.87696 298.5086,768.305 C 328.71255,733.40131 300.44683,655.22162 279.23111,615.15081 C 277.4607,611.80698 278.36316,609.84484 281.9544,611.74817 C 334.52918,639.61247 378.6157,675.74999 421.65952,709.88917 C 481.58291,757.41597 565.90588,817.62772 596.82595,818.76832 L 597.56557,717.62504 C 552.52371,714.72987 351.56858,560.42957 277.86075,517.69634 C 171.8051,456.20899 47.602232,406.1145 -49.081988,394.76554 C -52.158808,394.40438 -51.616098,389.09055 -49.833928,387.23859 C -5.2832684,340.94314 356.69176,185.43974 553.72565,127.34808 C 558.41515,125.96547 560.23594,123.24877 561.6554,118.64001 L 584.78296,43.548414 z"
     id="path2394"
     sodipodi:nodetypes="csssssssccccssssccssssss" />
</svg>
