<?xml version="1.0" encoding="UTF-8" standalone="no"?>
<!-- Created with Inkscape (http://www.inkscape.org/) -->
<svg
   xmlns:dc="http://purl.org/dc/elements/1.1/"
   xmlns:cc="http://creativecommons.org/ns#"
   xmlns:rdf="http://www.w3.org/1999/02/22-rdf-syntax-ns#"
   xmlns:svg="http://www.w3.org/2000/svg"
   xmlns="http://www.w3.org/2000/svg"
   xmlns:sodipodi="http://sodipodi.sourceforge.net/DTD/sodipodi-0.dtd"
   xmlns:inkscape="http://www.inkscape.org/namespaces/inkscape"
   version="1.0"
   width="1000"
   height="1000"
   id="svg5496"
   sodipodi:version="0.32"
   inkscape:version="0.46"
   sodipodi:docname="kaf+yaa.fina.svg"
   inkscape:output_extension="org.inkscape.output.svg.inkscape">
  <metadata
     id="metadata5594">
    <rdf:RDF>
      <cc:Work
         rdf:about="">
        <dc:format>image/svg+xml</dc:format>
        <dc:type
           rdf:resource="http://purl.org/dc/dcmitype/StillImage" />
      </cc:Work>
    </rdf:RDF>
  </metadata>
  <sodipodi:namedview
     inkscape:pageshadow="2"
     inkscape:pageopacity="0.0"
     guidetolerance="10.0"
     gridtolerance="10.0"
     objecttolerance="10.0"
     borderopacity="1.0"
     bordercolor="#666666"
     pagecolor="#ffffff"
     id="base"
     showgrid="false"
     showguides="true"
     inkscape:guide-bbox="true"
     inkscape:zoom="0.43133514"
     inkscape:cx="455.91942"
     inkscape:cy="452.36417"
     inkscape:window-x="0"
     inkscape:window-y="25"
     inkscape:current-layer="svg5496">
    <sodipodi:guide
       orientation="horizontal"
       position="200"
       id="guide5596" />
  </sodipodi:namedview>
  <defs
     id="defs5498">
    <inkscape:perspective
       sodipodi:type="inkscape:persp3d"
       inkscape:vp_x="0 : 500 : 1"
       inkscape:vp_y="0 : 1000 : 0"
       inkscape:vp_z="1000 : 500 : 1"
       inkscape:persp3d-origin="500 : 333.33333 : 1"
       id="perspective8" />
    <inkscape:perspective
       id="perspective2477"
       inkscape:persp3d-origin="372.04724 : 350.78739 : 1"
       inkscape:vp_z="744.09448 : 526.18109 : 1"
       inkscape:vp_y="0 : 1000 : 0"
       inkscape:vp_x="0 : 526.18109 : 1"
       sodipodi:type="inkscape:persp3d" />
  </defs>
  <g
     id="layer1"
     transform="translate(0,360)" />
  <path
     style="fill:#000000;fill-rule:evenodd;stroke:#000000;stroke-width:1px;stroke-linecap:butt;stroke-linejoin:miter;stroke-opacity:1"
     d="M 1023.431,-56.5838 C 1025.2667,-63.50253 1020.5311,-75.72899 1006.5574,-71.14754 C 799.4221,-3.23592 509.65914,100.14589 340.9836,189.5082 C 314.02893,203.78847 263.24133,271.46897 254.87684,298.58284 C 246.77886,324.8328 255.43247,379.86455 264.7541,400.16393 C 363.8443,471.81167 515.62468,576.6257 550.04972,682.57011 C 547.21356,713.58577 455.03465,746.6478 409.01639,766.55738 C 402.56792,769.34728 399.37703,771.96586 398.55101,777.21311 L 390.16393,830.4918 C 388.83543,838.93105 390.35996,844.21519 398.94026,844.85666 C 470.85606,850.23323 549.16929,850.15206 600.40984,883.77049 C 588.51857,898.17884 353.56069,1058.0576 181.96721,1012.459 C 2.167207,964.67963 33.384286,785.14846 76.877978,711.47943 C 87.22239,693.9582 72.269225,687.098 61.036447,705.62038 C 48.732627,725.90886 10.763962,809.77929 4.0836191,864.08036 C -13.322909,1005.569 57.12582,1139.2501 249.19748,1125.4889 C 363.47787,1116.5688 490.56687,1057.2386 602.8102,966.98607 C 631.83317,943.6493 652.05001,863.55329 647.44154,841.96721 C 637.3759,794.81967 576.03222,780.25998 525.84026,776.19456 C 580.06606,721.44824 579.95212,670.11625 542.13427,551.99363 C 673.92417,642.20696 862.73225,796.43717 932.78689,801.90164 L 932.42623,699.34426 C 773.6358,671.6407 620.17885,492.13718 299.52475,305.30622 C 297.49597,304.12414 294.49768,301.13079 296.72131,299.34426 C 364.11094,245.20133 666.25374,128.82985 976.75938,32.1766 C 992.42459,27.30038 1002.8366,21.03572 1007.5177,3.39291 L 1023.431,-56.5838 z"
     id="path2483"
     sodipodi:nodetypes="csssccsssscsssscssccccsssss" />
</svg>
