<?xml version="1.0" encoding="UTF-8" standalone="no"?>
<!-- Created with Inkscape (http://www.inkscape.org/) -->

<svg
   xmlns:dc="http://purl.org/dc/elements/1.1/"
   xmlns:cc="http://creativecommons.org/ns#"
   xmlns:rdf="http://www.w3.org/1999/02/22-rdf-syntax-ns#"
   xmlns:svg="http://www.w3.org/2000/svg"
   xmlns="http://www.w3.org/2000/svg"
   xmlns:sodipodi="http://sodipodi.sourceforge.net/DTD/sodipodi-0.dtd"
   xmlns:inkscape="http://www.inkscape.org/namespaces/inkscape"
   version="1.0"
   width="1000"
   height="1000"
   id="svg5496"
   sodipodi:version="0.32"
   inkscape:version="0.47pre4 r22446"
   sodipodi:docname="kaf+lam.init.svg"
   inkscape:output_extension="org.inkscape.output.svg.inkscape">
  <metadata
     id="metadata5594">
    <rdf:RDF>
      <cc:Work
         rdf:about="">
        <dc:format>image/svg+xml</dc:format>
        <dc:type
           rdf:resource="http://purl.org/dc/dcmitype/StillImage" />
      </cc:Work>
    </rdf:RDF>
  </metadata>
  <sodipodi:namedview
     inkscape:pageshadow="2"
     inkscape:pageopacity="0.0"
     guidetolerance="10.0"
     gridtolerance="10.0"
     objecttolerance="10.0"
     borderopacity="1.0"
     bordercolor="#666666"
     pagecolor="#ffffff"
     id="base"
     showgrid="false"
     showguides="true"
     inkscape:guide-bbox="true"
     inkscape:zoom="0.236"
     inkscape:cx="500"
     inkscape:cy="500"
     inkscape:window-x="0"
     inkscape:window-y="24"
     inkscape:current-layer="svg5496"
     inkscape:window-width="1280"
     inkscape:window-height="725"
     inkscape:window-maximized="1">
    <sodipodi:guide
       orientation="horizontal"
       position="200"
       id="guide5596" />
  </sodipodi:namedview>
  <defs
     id="defs5498">
    <inkscape:perspective
       sodipodi:type="inkscape:persp3d"
       inkscape:vp_x="0 : 500 : 1"
       inkscape:vp_y="0 : 1000 : 0"
       inkscape:vp_z="1000 : 500 : 1"
       inkscape:persp3d-origin="500 : 333.33333 : 1"
       id="perspective8" />
    <inkscape:perspective
       id="perspective2477"
       inkscape:persp3d-origin="372.04724 : 350.78739 : 1"
       inkscape:vp_z="744.09448 : 526.18109 : 1"
       inkscape:vp_y="0 : 1000 : 0"
       inkscape:vp_x="0 : 526.18109 : 1"
       sodipodi:type="inkscape:persp3d" />
    <inkscape:perspective
       id="perspective3839"
       inkscape:persp3d-origin="0.5 : 0.33333333 : 1"
       inkscape:vp_z="1 : 0.5 : 1"
       inkscape:vp_y="0 : 1000 : 0"
       inkscape:vp_x="0 : 0.5 : 1"
       sodipodi:type="inkscape:persp3d" />
  </defs>
  <g
     id="layer1"
     transform="translate(-117.25529,67.62115)" />
  <path
     style="fill:#ff0000;fill-opacity:0.60784314;fill-rule:evenodd;stroke:#000000;stroke-width:1;stroke-linecap:butt;stroke-linejoin:miter;stroke-miterlimit:4;stroke-opacity:1;stroke-dasharray:none"
     d="M 675.7741,82.90008 C 559.2957,126.53817 123.7968,263.91638 100.4073,388.92214 L 80.156901,104.58542 c -0.6432,-9.28419 -11.7441,-7.3918 -13.4617,-2.66234 L 44.4223,155.21475 c -3.555,8.52554 -1.9204,15.79321 -1.5153,21.99802 C 53.6105,341.20148 69.820901,596.20186 64.975101,648.9936 62.0692,680.6508 27.356,709.1745 0.6091,709.6854 L 0,800 c 38.3105,-12.959 62.9938,-64.2086 80.479401,-122.0384 13.398,100.552 39.120799,152.4054 151.686899,139.2972 54.1975,-6.3112 129.6631,-45.6166 144.608,-172.7662 8.0203,-68.40542 -73.261,-188.50006 -241.6595,-247.90761 -4.5638,-1.61002 -4.9597,-4.95233 -1.3906,-9.5335 53.6225,-68.82779 369.0925,-164.05513 527.9798,-222.72748 8.1783,-3.02001 10.9116,-8.99135 13.1868,-17.43311 l 16.6936,-52.80056 c 3.8853,-11.76497 -5.3833,-14.60698 -15.8103,-11.19026 z m -566.1742,385.0984 c 45.2855,1.37519 195.5803,99.99619 246.7313,182.66772 0.6928,2.2951 0.6671,4.2408 -1.8711,6.7385 -46.3566,45.4248 -136.9403,79.8797 -198.0837,51.3013 -51.6778,-24.1542 -47.9928,-146.86044 -53.8525,-235.79307 -0.9055,-5.59112 3.069,-5.17755 7.076,-4.91445 z"
     id="path2483"
     sodipodi:nodetypes="ccccccscccscsssccccccscc" />
</svg>
