<?xml version="1.0" encoding="UTF-8" standalone="no"?>
<!-- Created with Inkscape (http://www.inkscape.org/) -->

<svg
   xmlns:dc="http://purl.org/dc/elements/1.1/"
   xmlns:cc="http://creativecommons.org/ns#"
   xmlns:rdf="http://www.w3.org/1999/02/22-rdf-syntax-ns#"
   xmlns:svg="http://www.w3.org/2000/svg"
   xmlns="http://www.w3.org/2000/svg"
   xmlns:sodipodi="http://sodipodi.sourceforge.net/DTD/sodipodi-0.dtd"
   xmlns:inkscape="http://www.inkscape.org/namespaces/inkscape"
   version="1.0"
   width="1000"
   height="1000"
   id="svg5496"
   sodipodi:version="0.32"
   inkscape:version="0.47pre4 r22446"
   sodipodi:docname="kaf+meem.init.svg"
   inkscape:output_extension="org.inkscape.output.svg.inkscape">
  <metadata
     id="metadata5594">
    <rdf:RDF>
      <cc:Work
         rdf:about="">
        <dc:format>image/svg+xml</dc:format>
        <dc:type
           rdf:resource="http://purl.org/dc/dcmitype/StillImage" />
      </cc:Work>
    </rdf:RDF>
  </metadata>
  <sodipodi:namedview
     inkscape:pageshadow="2"
     inkscape:pageopacity="0.0"
     guidetolerance="10.0"
     gridtolerance="10.0"
     objecttolerance="10.0"
     borderopacity="1.0"
     bordercolor="#666666"
     pagecolor="#ffffff"
     id="base"
     showgrid="false"
     showguides="true"
     inkscape:guide-bbox="true"
     inkscape:zoom="0.6675088"
     inkscape:cx="368.64407"
     inkscape:cy="619.84861"
     inkscape:window-x="0"
     inkscape:window-y="24"
     inkscape:current-layer="svg5496"
     inkscape:window-width="1280"
     inkscape:window-height="725"
     inkscape:window-maximized="1">
    <sodipodi:guide
       orientation="horizontal"
       position="200"
       id="guide5596" />
  </sodipodi:namedview>
  <defs
     id="defs5498">
    <inkscape:perspective
       sodipodi:type="inkscape:persp3d"
       inkscape:vp_x="0 : 500 : 1"
       inkscape:vp_y="0 : 1000 : 0"
       inkscape:vp_z="1000 : 500 : 1"
       inkscape:persp3d-origin="500 : 333.33333 : 1"
       id="perspective8" />
    <inkscape:perspective
       id="perspective2388"
       inkscape:persp3d-origin="372.04724 : 350.78739 : 1"
       inkscape:vp_z="744.09448 : 526.18109 : 1"
       inkscape:vp_y="0 : 1000 : 0"
       inkscape:vp_x="0 : 526.18109 : 1"
       sodipodi:type="inkscape:persp3d" />
    <inkscape:perspective
       id="perspective6781"
       inkscape:persp3d-origin="0.5 : 0.33333333 : 1"
       inkscape:vp_z="1 : 0.5 : 1"
       inkscape:vp_y="0 : 1000 : 0"
       inkscape:vp_x="0 : 0.5 : 1"
       sodipodi:type="inkscape:persp3d" />
    <inkscape:perspective
       id="perspective6781-5"
       inkscape:persp3d-origin="0.5 : 0.33333333 : 1"
       inkscape:vp_z="1 : 0.5 : 1"
       inkscape:vp_y="0 : 1000 : 0"
       inkscape:vp_x="0 : 0.5 : 1"
       sodipodi:type="inkscape:persp3d" />
    <inkscape:perspective
       id="perspective6873"
       inkscape:persp3d-origin="0.5 : 0.33333333 : 1"
       inkscape:vp_z="1 : 0.5 : 1"
       inkscape:vp_y="0 : 1000 : 0"
       inkscape:vp_x="0 : 0.5 : 1"
       sodipodi:type="inkscape:persp3d" />
  </defs>
  <g
     id="layer1"
     transform="translate(-121.79051,-110.44352)" />
  <g
     id="g6726"
     transform="matrix(0.96479703,0,0,0.96479703,-24.191053,36.162376)"
     style="fill:#ff0000;fill-opacity:0.60784314;stroke:#000000;stroke-width:1.03648746;stroke-miterlimit:4;stroke-opacity:1;stroke-dasharray:none">
    <g
       transform="translate(-121.79051,-110.44352)"
       id="layer1-3"
       style="fill:#ff0000;fill-opacity:0.60784314;stroke:#000000;stroke-width:1.03648746;stroke-miterlimit:4;stroke-opacity:1;stroke-dasharray:none" />
    <path
       id="path2394-2"
       d="m 735.24965,-21.96875 c -125.34252,5.239879 -482.56407,41.910033 -601.75995,169.375 -32.36737,34.61282 -47.95613,106.90897 -47.75,126.65625 0.08488,8.13215 5.66645,13.59057 10.0625,18.25 20.79573,22.04158 35.35006,36.75442 60.42741,58.38798 5.2143,4.40551 12.68913,3.20918 15.15625,0.25 6.26012,-7.50869 8.10904,-12.36194 13.28774,-16.44068 3.23705,-2.52647 8.37886,-1.466 11.4375,1.46875 63.61589,49.86491 134.97027,144.13908 137.5764,199.3652 0.21761,4.61143 -2.70529,8.26304 -6.25,9.5 -39.78228,13.88242 -109.35367,-11.5938 -152.90625,10.625 C 130.41502,577.97511 127.687,641.88902 110.20844,660.5 91.661005,680.24912 68.904612,695.82888 24.872972,697.81233 l 0.200751,93.89577 c 41.599765,-9.13514 74.127164,-51.26064 89.811797,-98.7603 1.40028,-4.24063 3.56012,-4.11275 7.0625,-1.78125 27.86295,18.09288 104.0116,61.71154 160.55921,71.62172 9.43598,1.65369 14.90325,0.46145 21.67765,-5.90789 16.24864,-15.27708 27.50504,-44.1265 27.59642,-72.66163 -1.02558,-28.40646 -15.51492,-62.10845 -23.89595,-76.38565 -1.28711,-2.19261 -1.96506,-5.10664 0.8125,-6.46875 57.96953,-28.42805 55.20946,-90.99324 52.5728,-134.9581 -6.66297,-111.10046 -137.18084,-225.97075 -202.4791,-283.11453 -2.15312,-1.88423 -6.56702,-4.65943 -2.8125,-7.71875 C 256.63277,103.38387 549.12831,70.029508 681.875,62.53125 c 6.51443,-0.453069 18.01958,-1.993466 24.9375,-9.34375 L 744.2184,0.21875 c 7.48436,-7.952134 2.46475,-22.665472 -8.96875,-22.1875 z M 281.47922,671.45828 c 1.52448,7.23846 -3.15286,7.74733 -8.41672,6.65862 -25.94926,-5.36701 -78.91721,-29.68463 -108.19425,-50.82923 -6.87601,-4.96602 -3.12522,-15.72567 4.41537,-18.52904 43.32613,-9.36963 92.86852,9.67579 112.1956,62.69965 z"
       style="fill:#ff0000;fill-opacity:0.60784314;fill-rule:evenodd;stroke:#000000;stroke-width:1.03648746;stroke-linecap:butt;stroke-linejoin:miter;stroke-miterlimit:4;stroke-opacity:1;stroke-dasharray:none"
       sodipodi:nodetypes="cssscsccssssccscsscssssccccccsscc" />
  </g>
</svg>
