<?xml version="1.0" encoding="UTF-8" standalone="no"?>
<!-- Created with Inkscape (http://www.inkscape.org/) -->

<svg
   xmlns:dc="http://purl.org/dc/elements/1.1/"
   xmlns:cc="http://creativecommons.org/ns#"
   xmlns:rdf="http://www.w3.org/1999/02/22-rdf-syntax-ns#"
   xmlns:svg="http://www.w3.org/2000/svg"
   xmlns="http://www.w3.org/2000/svg"
   xmlns:sodipodi="http://sodipodi.sourceforge.net/DTD/sodipodi-0.dtd"
   xmlns:inkscape="http://www.inkscape.org/namespaces/inkscape"
   version="1.0"
   width="1000"
   height="1000"
   id="svg5496"
   sodipodi:version="0.32"
   inkscape:version="0.47pre4 r22446"
   sodipodi:docname="kaf+meem+alef.isol.svg"
   inkscape:output_extension="org.inkscape.output.svg.inkscape">
  <metadata
     id="metadata5594">
    <rdf:RDF>
      <cc:Work
         rdf:about="">
        <dc:format>image/svg+xml</dc:format>
        <dc:type
           rdf:resource="http://purl.org/dc/dcmitype/StillImage" />
      </cc:Work>
    </rdf:RDF>
  </metadata>
  <sodipodi:namedview
     inkscape:pageshadow="2"
     inkscape:pageopacity="0.0"
     guidetolerance="10.0"
     gridtolerance="10.0"
     objecttolerance="10.0"
     borderopacity="1.0"
     bordercolor="#666666"
     pagecolor="#ffffff"
     id="base"
     showgrid="false"
     showguides="true"
     inkscape:guide-bbox="true"
     inkscape:zoom="0.236"
     inkscape:cx="368.64407"
     inkscape:cy="500"
     inkscape:window-x="0"
     inkscape:window-y="24"
     inkscape:current-layer="svg5496"
     inkscape:window-width="1280"
     inkscape:window-height="725"
     inkscape:window-maximized="1">
    <sodipodi:guide
       orientation="horizontal"
       position="200"
       id="guide5596" />
  </sodipodi:namedview>
  <defs
     id="defs5498">
    <inkscape:perspective
       sodipodi:type="inkscape:persp3d"
       inkscape:vp_x="0 : 500 : 1"
       inkscape:vp_y="0 : 1000 : 0"
       inkscape:vp_z="1000 : 500 : 1"
       inkscape:persp3d-origin="500 : 333.33333 : 1"
       id="perspective8" />
    <inkscape:perspective
       id="perspective2537"
       inkscape:persp3d-origin="372.04724 : 350.78739 : 1"
       inkscape:vp_z="744.09448 : 526.18109 : 1"
       inkscape:vp_y="0 : 1000 : 0"
       inkscape:vp_x="0 : 526.18109 : 1"
       sodipodi:type="inkscape:persp3d" />
    <inkscape:perspective
       id="perspective4334"
       inkscape:persp3d-origin="0.5 : 0.33333333 : 1"
       inkscape:vp_z="1 : 0.5 : 1"
       inkscape:vp_y="0 : 1000 : 0"
       inkscape:vp_x="0 : 0.5 : 1"
       sodipodi:type="inkscape:persp3d" />
  </defs>
  <g
     id="layer1"
     transform="translate(-37.380094,241.62995)" />
  <path
     style="fill:#ff0000;fill-opacity:0.60784314;fill-rule:evenodd;stroke:#000000;stroke-width:1;stroke-linecap:butt;stroke-linejoin:miter;stroke-miterlimit:4;stroke-opacity:1;stroke-dasharray:none"
     d="m 693.90854,16.321 c -3.064,0.09 -6.62,1.066 -10.381,3.018 -202.243,104.931 -523.124,204.114 -607.310002,334.514 -8.905,-91.687 -15.999,-182.893 -28.731,-278.409 -2.354,-17.653 -11.43,-13.301 -15.422,-7.183 L 1.6725385,114.829 c -4.345,6.657 -1.535,12.677 -0.09,21.97 51.6389995,331.008 25.4419995,529.253 79.7959995,661.152 35.464002,85.88196 133.964002,171.37296 227.672002,198.55896 15.613,4.53004 26.64,-0.801 31.406,-14.81 l 24.034,-70.638 c 4.09,-12.021 -5.483,-20.128 -13.133,-22.706 -57.739,-19.459 -95.047,-42.39096 -128.193,-78.21296 -13.224,-14.291 -7.602,-31.45 12.82,-38.121 43.978,-14.368 194.694,1.974 217.241,-73.062 25.359,-84.394 0.126,-205.07 -351.173,-305.148 -4.932,-1.409 -4.457,-4.961 -1.147,-7.968 86.967,-79.011 471.254,-229.197 565.089,-264.406 9.421,-3.536 17.172,-6.49 22.333,-27.132 l 15.421,-61.688 c 2.705,-10.818 -2.007,-16.512 -9.839,-16.297 l 0,0 0,0 0,0 z M 84.184538,486.795 c 108.748002,27.735 237.932002,70.872 338.106002,164.994 6.785,6.375 6.58,17.396 -2.415,19.406 -68.877,22.496 -149.674,12.569 -193.151,47.053 -26.035,20.65 -40.897,58.505 -39.565,84.893 0.429,8.522 -6.53,7.565 -10.443,4.859 C 81.643538,727.769 91.150538,559.838 84.184538,486.795 z"
     id="path2543-7"
     sodipodi:nodetypes="ccccccccssssccsccccccccccsccccc" />
</svg>
