<?xml version="1.0" encoding="UTF-8" standalone="no"?>
<!-- Created with Inkscape (http://www.inkscape.org/) -->
<svg
   xmlns:dc="http://purl.org/dc/elements/1.1/"
   xmlns:cc="http://creativecommons.org/ns#"
   xmlns:rdf="http://www.w3.org/1999/02/22-rdf-syntax-ns#"
   xmlns:svg="http://www.w3.org/2000/svg"
   xmlns="http://www.w3.org/2000/svg"
   xmlns:sodipodi="http://sodipodi.sourceforge.net/DTD/sodipodi-0.dtd"
   xmlns:inkscape="http://www.inkscape.org/namespaces/inkscape"
   version="1.0"
   width="1000"
   height="1000"
   id="svg5496"
   sodipodi:version="0.32"
   inkscape:version="0.46"
   sodipodi:docname="kaf+yaa.isol.svg"
   inkscape:output_extension="org.inkscape.output.svg.inkscape">
  <metadata
     id="metadata5594">
    <rdf:RDF>
      <cc:Work
         rdf:about="">
        <dc:format>image/svg+xml</dc:format>
        <dc:type
           rdf:resource="http://purl.org/dc/dcmitype/StillImage" />
      </cc:Work>
    </rdf:RDF>
  </metadata>
  <sodipodi:namedview
     inkscape:pageshadow="2"
     inkscape:pageopacity="0.0"
     guidetolerance="10.0"
     gridtolerance="10.0"
     objecttolerance="10.0"
     borderopacity="1.0"
     bordercolor="#666666"
     pagecolor="#ffffff"
     id="base"
     showgrid="false"
     showguides="true"
     inkscape:guide-bbox="true"
     inkscape:zoom="0.454"
     inkscape:cx="773.3021"
     inkscape:cy="674.55113"
     inkscape:window-x="0"
     inkscape:window-y="25"
     inkscape:current-layer="svg5496">
    <sodipodi:guide
       orientation="horizontal"
       position="200"
       id="guide5596" />
  </sodipodi:namedview>
  <defs
     id="defs5498">
    <inkscape:perspective
       sodipodi:type="inkscape:persp3d"
       inkscape:vp_x="0 : 500 : 1"
       inkscape:vp_y="0 : 1000 : 0"
       inkscape:vp_z="1000 : 500 : 1"
       inkscape:persp3d-origin="500 : 333.33333 : 1"
       id="perspective8" />
    <inkscape:perspective
       id="perspective2388"
       inkscape:persp3d-origin="372.04724 : 350.78739 : 1"
       inkscape:vp_z="744.09448 : 526.18109 : 1"
       inkscape:vp_y="0 : 1000 : 0"
       inkscape:vp_x="0 : 526.18109 : 1"
       sodipodi:type="inkscape:persp3d" />
    <inkscape:perspective
       sodipodi:type="inkscape:persp3d"
       inkscape:vp_x="0 : 526.18109 : 1"
       inkscape:vp_y="0 : 1000 : 0"
       inkscape:vp_z="744.09448 : 526.18109 : 1"
       inkscape:persp3d-origin="372.04724 : 350.78739 : 1"
       id="perspective2517" />
    <inkscape:perspective
       id="perspective3300"
       inkscape:persp3d-origin="500 : 333.33333 : 1"
       inkscape:vp_z="1000 : 500 : 1"
       inkscape:vp_y="0 : 1000 : 0"
       inkscape:vp_x="0 : 500 : 1"
       sodipodi:type="inkscape:persp3d" />
  </defs>
  <g
     id="layer1"
     transform="translate(-187.60258,114.5099)" />
  <path
     style="fill:#000000;fill-rule:evenodd;stroke:#000000;stroke-width:1px;stroke-linecap:butt;stroke-linejoin:miter;stroke-opacity:1"
     d="M 855.4799,-171.92607 C 851.9,-171.91279 848.4515,-170.59195 847.0424,-169.98857 C 731.17028,-120.37362 405.79056,-14.100084 281.01115,113.94893 C 253.3496,144.99388 217.05213,235.8284 238.76115,288.10518 C 250.9497,317.45603 281.1385,337.74115 324.9174,365.26143 C 327.63057,366.96698 330.18004,367.26548 331.94865,364.10518 L 349.88615,332.01143 C 351.71079,328.75107 355.7561,329.68658 357.9799,331.10518 C 439.87891,383.34915 522.68877,443.57634 550.26115,566.98018 C 550.79562,569.38296 549.49497,572.09309 547.5424,573.29268 C 517.10113,591.99483 477.90857,612.8429 418.13615,635.98018 L 392.57365,691.66768 C 391.27636,694.4953 390.33555,699.76336 396.88615,700.10518 C 467.95586,703.81359 534.45396,697.58643 604.1674,737.07393 C 607.03035,738.69558 607.65942,741.81599 605.1674,743.82393 C 499.57553,828.9051 364.52817,899.31833 249.07365,904.16768 C 176.28025,907.22516 59.976101,873.61101 51.229901,742.26143 C 48.049111,694.49269 58.583761,639.36622 104.7924,565.51143 C 115.11686,549.00996 96.812731,535.12804 82.761151,557.23018 C 27.322511,644.43131 -18.715939,762.51326 10.729901,868.32393 C 29.556451,935.9753 94.917121,995.23704 214.9174,1001.0739 C 405.87368,1010.3889 592.5941,857.32217 627.57365,820.26143 C 645.92532,800.81787 657.2152,728.89128 661.51115,698.76143 C 663.06399,687.87041 659.51328,676.71461 652.1674,672.04268 C 621.15297,652.31767 586.13588,642.21546 546.9799,632.01143 C 544.01537,631.23887 544.39833,628.57479 546.6049,626.19893 C 571.19938,599.71728 581.31266,574.60612 582.76115,553.94893 C 588.80477,467.76134 559.43595,397.10242 511.2924,337.41768 C 458.82045,272.36694 377.45249,218.68224 308.5424,175.35518 C 305.86688,173.67295 304.23819,171.04802 306.88615,168.48018 C 365.47467,106.08455 673.58237,-8.8907438 843.7874,-73.297304 C 850.1178,-75.692774 857.4315,-78.842644 858.5374,-89.172304 L 865.2924,-152.26982 C 867.0301,-168.50105 861.4464,-171.9482 855.4799,-171.92607 z"
     id="path4082"
     sodipodi:nodetypes="cscssccscsccsssssssscsssssssscssss" />
</svg>
