<?xml version="1.0" encoding="UTF-8" standalone="no"?>
<!-- Created with Inkscape (http://www.inkscape.org/) -->

<svg
   xmlns:dc="http://purl.org/dc/elements/1.1/"
   xmlns:cc="http://creativecommons.org/ns#"
   xmlns:rdf="http://www.w3.org/1999/02/22-rdf-syntax-ns#"
   xmlns:svg="http://www.w3.org/2000/svg"
   xmlns="http://www.w3.org/2000/svg"
   xmlns:sodipodi="http://sodipodi.sourceforge.net/DTD/sodipodi-0.dtd"
   xmlns:inkscape="http://www.inkscape.org/namespaces/inkscape"
   version="1.0"
   width="1000"
   height="1000"
   id="svg5496"
   sodipodi:version="0.32"
   inkscape:version="0.47pre4 r22446"
   sodipodi:docname="kaf+lam+alef.fina.svg"
   inkscape:output_extension="org.inkscape.output.svg.inkscape">
  <metadata
     id="metadata5594">
    <rdf:RDF>
      <cc:Work
         rdf:about="">
        <dc:format>image/svg+xml</dc:format>
        <dc:type
           rdf:resource="http://purl.org/dc/dcmitype/StillImage" />
      </cc:Work>
    </rdf:RDF>
  </metadata>
  <sodipodi:namedview
     inkscape:pageshadow="2"
     inkscape:pageopacity="0.0"
     guidetolerance="10.0"
     gridtolerance="10.0"
     objecttolerance="10.0"
     borderopacity="1.0"
     bordercolor="#666666"
     pagecolor="#ffffff"
     id="base"
     showgrid="false"
     showguides="true"
     inkscape:guide-bbox="true"
     inkscape:zoom="0.236"
     inkscape:cx="500"
     inkscape:cy="500"
     inkscape:window-x="0"
     inkscape:window-y="24"
     inkscape:current-layer="svg5496"
     inkscape:window-width="1280"
     inkscape:window-height="725"
     inkscape:window-maximized="1">
    <sodipodi:guide
       orientation="horizontal"
       position="200"
       id="guide5596" />
  </sodipodi:namedview>
  <defs
     id="defs5498">
    <inkscape:perspective
       sodipodi:type="inkscape:persp3d"
       inkscape:vp_x="0 : 500 : 1"
       inkscape:vp_y="0 : 1000 : 0"
       inkscape:vp_z="1000 : 500 : 1"
       inkscape:persp3d-origin="500 : 333.33333 : 1"
       id="perspective8" />
    <inkscape:perspective
       id="perspective2477"
       inkscape:persp3d-origin="372.04724 : 350.78739 : 1"
       inkscape:vp_z="744.09448 : 526.18109 : 1"
       inkscape:vp_y="0 : 1000 : 0"
       inkscape:vp_x="0 : 526.18109 : 1"
       sodipodi:type="inkscape:persp3d" />
    <inkscape:perspective
       sodipodi:type="inkscape:persp3d"
       inkscape:vp_x="0 : 500 : 1"
       inkscape:vp_y="0 : 1000 : 0"
       inkscape:vp_z="1000 : 500 : 1"
       inkscape:persp3d-origin="500 : 333.33333 : 1"
       id="perspective2670" />
    <inkscape:perspective
       id="perspective2457"
       inkscape:persp3d-origin="372.04724 : 350.78739 : 1"
       inkscape:vp_z="744.09448 : 526.18109 : 1"
       inkscape:vp_y="0 : 1000 : 0"
       inkscape:vp_x="0 : 526.18109 : 1"
       sodipodi:type="inkscape:persp3d" />
    <inkscape:perspective
       id="perspective2459"
       inkscape:persp3d-origin="372.04724 : 350.78739 : 1"
       inkscape:vp_z="744.09448 : 526.18109 : 1"
       inkscape:vp_y="0 : 1000 : 0"
       inkscape:vp_x="0 : 526.18109 : 1"
       sodipodi:type="inkscape:persp3d" />
    <inkscape:perspective
       sodipodi:type="inkscape:persp3d"
       inkscape:vp_x="0 : 500 : 1"
       inkscape:vp_y="0 : 1000 : 0"
       inkscape:vp_z="1000 : 500 : 1"
       inkscape:persp3d-origin="500 : 333.33333 : 1"
       id="perspective2611" />
    <inkscape:perspective
       id="perspective2711"
       inkscape:persp3d-origin="372.04724 : 350.78739 : 1"
       inkscape:vp_z="744.09448 : 526.18109 : 1"
       inkscape:vp_y="0 : 1000 : 0"
       inkscape:vp_x="0 : 526.18109 : 1"
       sodipodi:type="inkscape:persp3d" />
    <inkscape:perspective
       sodipodi:type="inkscape:persp3d"
       inkscape:vp_x="0 : 526.18109 : 1"
       inkscape:vp_y="0 : 1000 : 0"
       inkscape:vp_z="744.09448 : 526.18109 : 1"
       inkscape:persp3d-origin="372.04724 : 350.78739 : 1"
       id="perspective2709" />
    <inkscape:perspective
       id="perspective2707"
       inkscape:persp3d-origin="500 : 333.33333 : 1"
       inkscape:vp_z="1000 : 500 : 1"
       inkscape:vp_y="0 : 1000 : 0"
       inkscape:vp_x="0 : 500 : 1"
       sodipodi:type="inkscape:persp3d" />
    <inkscape:perspective
       id="perspective4639"
       inkscape:persp3d-origin="0.5 : 0.33333333 : 1"
       inkscape:vp_z="1 : 0.5 : 1"
       inkscape:vp_y="0 : 1000 : 0"
       inkscape:vp_x="0 : 0.5 : 1"
       sodipodi:type="inkscape:persp3d" />
  </defs>
  <g
     id="layer1"
     transform="translate(125.85766,97.48325)" />
  <path
     style="fill:#ff0000;fill-opacity:0.60784314;fill-rule:evenodd;stroke:#000000;stroke-width:1;stroke-linecap:butt;stroke-linejoin:miter;stroke-miterlimit:4;stroke-opacity:1;stroke-dasharray:none"
     d="m 1052.0483,-0.89803 c -98.26961,39.558 -436.74555,172.04201 -550.39835,272.51901 -25.105,21.421 -48.0696,43.474 -62.9511,79.79 l -6.9708,-281.78501 c -0.2152,-9.872 -11.6362,-14.052 -18.5005,-2.424 l -33.3616,56.57501 c -6.4844,10.984 -7.764,24.987 -9.3862,40.015 -9.4597,153.241 -32.2342,386.704 -67.4216,445.309 -29.3266,-233.743 -188.2323,-336.692 -360.523394,-410.703 -11.0436,-4.744 -24.202,-2.825 -26.7875,12.979 -11.8905,72.684 -31.727996,144.851 119.892595,192.436 8.6006,2.913 16.7248,1.261 19.1282,-9.271 l 1.4197,-24.238 c 0.3923,-6.731 4.1595,-6.688 6.5744,-5.809 138.643899,45.602 212.149799,210.157 209.749499,293.75 C 158.04315,768.304 53.817751,802.576 -61.822744,839.733 c -7.3234,2.87 -16.5646,14.161 4.6164,15.347 88.175695,4.939 178.607794,0.694 260.738594,-54.757 112.3702,-75.868 162.664,-262.86502 186.7537,-394.45202 29.1819,287.799 3.1801,414.88802 189.7488,399.84402 119.9729,-9.675 161.4165,-80.411 159.5296,-173.58802 -0.5686,-28.085 -4.2032,-50.428 -11.7423,-70.948 C 785.14915,589.10398 971.07599,779.111 1072.0873,800 l -0.3695,-91.10102 c 0,0 -46.3714,-9.608 -79.11941,-30.911 -81.7742,-53.196 -153.84514,-120.977 -239.47874,-182.117 -95.0918,-67.893 -186.4821,-114.392 -273.2276,-135.98 20.0803,-37.376 426.6304,-229.767 570.90835,-276.74601 5.5138,-1.938 10.9348,-5.581 12.3454,-12.483 l 12.1146,-59.211 c 0.9989,-13.866 -12.9845,-16.081 -23.2121,-12.349 z M 446.07715,443.44098 c 160.4923,40.54 249.383,154.506 265.2569,194.577 -52.2144,73.42502 -170.828,86.03702 -221.8449,50.526 -38.8274,-27.027 -46.0322,-176.716 -51.0833,-238.099 -0.8803,-5.663 2.7348,-8.091 7.6713,-7.004 z"
     id="path2483"
     sodipodi:nodetypes="ccccccccsscccccccsccccccsscccccccscc" />
</svg>
