<?xml version="1.0" encoding="UTF-8" standalone="no"?>
<!-- Created with Inkscape (http://www.inkscape.org/) -->

<svg
   xmlns:dc="http://purl.org/dc/elements/1.1/"
   xmlns:cc="http://creativecommons.org/ns#"
   xmlns:rdf="http://www.w3.org/1999/02/22-rdf-syntax-ns#"
   xmlns:svg="http://www.w3.org/2000/svg"
   xmlns="http://www.w3.org/2000/svg"
   xmlns:sodipodi="http://sodipodi.sourceforge.net/DTD/sodipodi-0.dtd"
   xmlns:inkscape="http://www.inkscape.org/namespaces/inkscape"
   version="1.0"
   width="1000"
   height="1000"
   id="svg5496"
   sodipodi:version="0.32"
   inkscape:version="0.47pre4 r22446"
   sodipodi:docname="kaf+meem.isol.alt.svg"
   inkscape:output_extension="org.inkscape.output.svg.inkscape">
  <metadata
     id="metadata5594">
    <rdf:RDF>
      <cc:Work
         rdf:about="">
        <dc:format>image/svg+xml</dc:format>
        <dc:type
           rdf:resource="http://purl.org/dc/dcmitype/StillImage" />
        <dc:title />
      </cc:Work>
    </rdf:RDF>
  </metadata>
  <sodipodi:namedview
     inkscape:window-height="618"
     inkscape:window-width="641"
     inkscape:pageshadow="2"
     inkscape:pageopacity="0.0"
     borderopacity="1.0"
     bordercolor="#666666"
     pagecolor="#ffffff"
     id="base"
     showgrid="false"
     showguides="true"
     inkscape:guide-bbox="true"
     inkscape:zoom="0.454"
     inkscape:cx="500"
     inkscape:cy="500"
     inkscape:window-x="0"
     inkscape:window-y="25"
     inkscape:current-layer="svg5496"
     inkscape:window-maximized="0">
    <sodipodi:guide
       orientation="horizontal"
       position="200"
       id="guide5596" />
  </sodipodi:namedview>
  <defs
     id="defs5498">
    <inkscape:perspective
       sodipodi:type="inkscape:persp3d"
       inkscape:vp_x="0 : 500 : 1"
       inkscape:vp_y="0 : 1000 : 0"
       inkscape:vp_z="1000 : 500 : 1"
       inkscape:persp3d-origin="500 : 333.33333 : 1"
       id="perspective4249" />
    <inkscape:perspective
       id="perspective4290"
       inkscape:persp3d-origin="0.5 : 0.33333333 : 1"
       inkscape:vp_z="1 : 0.5 : 1"
       inkscape:vp_y="0 : 1000 : 0"
       inkscape:vp_x="0 : 0.5 : 1"
       sodipodi:type="inkscape:persp3d" />
    <inkscape:perspective
       id="perspective4963"
       inkscape:persp3d-origin="0.5 : 0.33333333 : 1"
       inkscape:vp_z="1 : 0.5 : 1"
       inkscape:vp_y="0 : 1000 : 0"
       inkscape:vp_x="0 : 0.5 : 1"
       sodipodi:type="inkscape:persp3d" />
  </defs>
  <g
     id="layer1" />
  <path
     id="path3695-4"
     style="color:#000000;fill:#ff0000;fill-opacity:0.60784314;stroke:#000000;stroke-width:1;stroke-linecap:butt;stroke-linejoin:miter;stroke-miterlimit:4;stroke-opacity:1;stroke-dasharray:none;stroke-dashoffset:0;marker:none;visibility:visible;display:inline;overflow:visible;enable-background:accumulate"
     d="m 362.16604,732.7618 c 23.3553,30.1057 72.85931,45.6834 107.83161,48.2573 5.5023,0.4049 14.2328,-4.8738 8.0169,-14.6979 -32.3515,-51.1317 -92.47951,-54.3353 -108.49971,-50.9296 -10.8596,2.3084 -13.3268,9.6646 -7.3488,17.3702 z M 851.11303,122.32851 c -147.2744,11.25013 -296.11648,25.16071 -450.62368,123.82779 58.9181,65.8574 145.9195,178.27828 171.9988,280.702 19.0945,74.9919 4.7521,161.4651 -57.1297,200.8649 7.5325,88.5884 -4.2442,113.6606 -29.3067,125.0556 -42.2339,19.2022 -102.53721,-11.7811 -137.45581,-33.4277 -9.339,20.3871 -26.8592,50.8011 -47.6041,62.8235 -90.4525,52.4202 -202.721297,82.2971 -278.203197,98.3416 -22.32919956,6.5942 -26.7422996,-6.4361 -6.0828,-18.8007 C 112.21016,904.5564 304.77934,821.8708 312.00544,800 c -8.4648,-59.6215 27.4482,-130.3355 64.413,-145.7926 16.6515,-6.9629 39.11751,-1.6238 68.24241,1.1291 38.5595,3.6449 84.7674,-1.712 105.0884,-25.3545 -1.7025,-37.902 -78.4256,-198.28542 -140.2882,-250.68072 -8.4337,-7.14295 -24.78641,5.3545 -35.37101,9.2148 -7.164,2.46656 -16.2685,0.40232 -24.6451,-13.91525 l -26.4095,-45.13931 c -4.435,-7.58048 -7.6729,-16.32296 -2.8708,-31.49071 9.0842,-28.69216 20.1967,-60.75546 36.6501,-82.9378 C 526.44045,84.829546 699.94063,51.482186 902.26963,37.713346 c 8.2164,-0.55908 16.0443,8.69083 5.6787,22.71496 l -40.0288,54.156654 c -6.0173,8.74868 -6.981,6.91121 -16.8065,7.74355 z"
     sodipodi:nodetypes="cssssccccccscccsccccccsccccc" />
</svg>
