<?xml version="1.0" encoding="UTF-8" standalone="no"?>
<!-- Created with Inkscape (http://www.inkscape.org/) -->

<svg
   xmlns:dc="http://purl.org/dc/elements/1.1/"
   xmlns:cc="http://creativecommons.org/ns#"
   xmlns:rdf="http://www.w3.org/1999/02/22-rdf-syntax-ns#"
   xmlns:svg="http://www.w3.org/2000/svg"
   xmlns="http://www.w3.org/2000/svg"
   xmlns:sodipodi="http://sodipodi.sourceforge.net/DTD/sodipodi-0.dtd"
   xmlns:inkscape="http://www.inkscape.org/namespaces/inkscape"
   version="1.0"
   width="1000"
   height="1000"
   id="svg5496"
   sodipodi:version="0.32"
   inkscape:version="0.47pre4 r22446"
   sodipodi:docname="kaf+alef.fina.svg"
   inkscape:output_extension="org.inkscape.output.svg.inkscape">
  <metadata
     id="metadata5594">
    <rdf:RDF>
      <cc:Work
         rdf:about="">
        <dc:format>image/svg+xml</dc:format>
        <dc:type
           rdf:resource="http://purl.org/dc/dcmitype/StillImage" />
      </cc:Work>
    </rdf:RDF>
  </metadata>
  <sodipodi:namedview
     inkscape:pageshadow="2"
     inkscape:pageopacity="0.0"
     guidetolerance="10.0"
     gridtolerance="10.0"
     objecttolerance="10.0"
     borderopacity="1.0"
     bordercolor="#666666"
     pagecolor="#ffffff"
     id="base"
     showgrid="false"
     showguides="true"
     inkscape:guide-bbox="true"
     inkscape:zoom="0.78990217"
     inkscape:cx="644.98591"
     inkscape:cy="785.07168"
     inkscape:window-x="0"
     inkscape:window-y="0"
     inkscape:current-layer="svg5496"
     inkscape:window-width="1278"
     inkscape:window-height="767"
     inkscape:window-maximized="1">
    <sodipodi:guide
       orientation="horizontal"
       position="200"
       id="guide5596" />
  </sodipodi:namedview>
  <defs
     id="defs5498">
    <inkscape:perspective
       sodipodi:type="inkscape:persp3d"
       inkscape:vp_x="0 : 500 : 1"
       inkscape:vp_y="0 : 1000 : 0"
       inkscape:vp_z="1000 : 500 : 1"
       inkscape:persp3d-origin="500 : 333.33333 : 1"
       id="perspective8" />
    <inkscape:perspective
       id="perspective2477"
       inkscape:persp3d-origin="372.04724 : 350.78739 : 1"
       inkscape:vp_z="744.09448 : 526.18109 : 1"
       inkscape:vp_y="0 : 1000 : 0"
       inkscape:vp_x="0 : 526.18109 : 1"
       sodipodi:type="inkscape:persp3d" />
    <inkscape:perspective
       sodipodi:type="inkscape:persp3d"
       inkscape:vp_x="0 : 526.18109 : 1"
       inkscape:vp_y="0 : 1000 : 0"
       inkscape:vp_z="744.09448 : 526.18109 : 1"
       inkscape:persp3d-origin="372.04724 : 350.78739 : 1"
       id="perspective2459" />
    <inkscape:perspective
       sodipodi:type="inkscape:persp3d"
       inkscape:vp_x="0 : 526.18109 : 1"
       inkscape:vp_y="0 : 1000 : 0"
       inkscape:vp_z="744.09448 : 526.18109 : 1"
       inkscape:persp3d-origin="372.04724 : 350.78739 : 1"
       id="perspective2457" />
    <inkscape:perspective
       id="perspective2598"
       inkscape:persp3d-origin="500 : 333.33333 : 1"
       inkscape:vp_z="1000 : 500 : 1"
       inkscape:vp_y="0 : 1000 : 0"
       inkscape:vp_x="0 : 500 : 1"
       sodipodi:type="inkscape:persp3d" />
    <inkscape:perspective
       id="perspective2706"
       inkscape:persp3d-origin="372.04724 : 350.78739 : 1"
       inkscape:vp_z="744.09448 : 526.18109 : 1"
       inkscape:vp_y="0 : 1000 : 0"
       inkscape:vp_x="0 : 526.18109 : 1"
       sodipodi:type="inkscape:persp3d" />
    <inkscape:perspective
       id="perspective4752"
       inkscape:persp3d-origin="0.5 : 0.33333333 : 1"
       inkscape:vp_z="1 : 0.5 : 1"
       inkscape:vp_y="0 : 1000 : 0"
       inkscape:vp_x="0 : 0.5 : 1"
       sodipodi:type="inkscape:persp3d" />
  </defs>
  <g
     id="layer1"
     transform="translate(-32,106)" />
  <path
     sodipodi:nodetypes="ccsssssccss"
     id="path2820"
     d="M 155.20935,748.03901 C 143.41395,745.01824 132.13051,740.46882 121.8391,734.0258 67.105596,699.7592 81.924993,606.78476 76.474596,478.4842 c -1.965755,-46.27323 -2.789156,-72.03337 -3.5712,-96.9331 -1.157965,-36.86879 -5.9166,-252.0868 -25.248,-313.06351 -2.1933,-6.9187 -8.4561,-10.0829 -13.4238,-2.189 l -28.7439002,45.6757 c -8.9667,14.24861 -2.5761,28.37501 -0.4735,38.30381 12.6086002,49.3066 27.3623002,186.0033 30.3526002,269.9399 9.3372,262.1013 -29.3639723,438.76762 124.071004,433.1003 70.26781,-2.59543 20.60646,-98.91913 -4.22845,-105.27929 z"
     style="fill:#ff0000;fill-opacity:0.60784314;fill-rule:evenodd;stroke:#000000;stroke-width:1;stroke-linecap:butt;stroke-linejoin:miter;stroke-miterlimit:4;stroke-opacity:1;stroke-dasharray:none" />
  <path
     style="fill:#ff0000;fill-opacity:0.60784314;fill-rule:evenodd;stroke:#000000;stroke-width:1;stroke-linecap:butt;stroke-linejoin:miter;stroke-miterlimit:4;stroke-opacity:1;stroke-dasharray:none"
     d="M 76.474596,478.4842 C 135.21066,503.47702 280.0291,565.9911 324.9343,673.081 c 2.1756,5.1882 2.49926,11.93903 0.1848,17.1066 -17.78975,39.71982 -104.9682,74.91542 -169.90975,57.85141 C 90.509793,731.03859 88.978894,855.17453 159.4378,853.3183 293.1759,849.79499 375.3719,770.5139 341.6857,609.2502 431.2732,665.4284 525.73528,795.8438 619.4671,800 c 25.72113,1.14051 26.86466,-86.94751 -0.7349,-90.4815 -75.90161,-9.71884 -91.85089,-48.02771 -330.3382,-224.2189 -48.54609,-35.86519 -126.63858,-73.877 -190.1519,-89.3895 -1.751929,-0.42789 -1.8783,-2.0425 -0.5776,-3.2554 121.5042,-113.2884 509.8129,-251.7561 633.5394,-274.84711 7.0337,-1.3127 15.11759,-1.65362 19.1331,-15.4872 6.66496,-22.961051 13.33073,-45.921867 19.9961,-68.8828 2.60845,-8.985611 -4.05958,-16.27568 -13.0654,-13.614095 C 562.63578,77.345142 132.32076,220.77879 68.903396,381.5511 c -15.036482,38.11968 -17.504043,86.26332 7.5712,96.9331 z"
     id="path2822"
     sodipodi:nodetypes="csssscsssscssssss" />
</svg>
