<?xml version="1.0" encoding="UTF-8" standalone="no"?>
<!-- Created with Inkscape (http://www.inkscape.org/) -->

<svg
   xmlns:dc="http://purl.org/dc/elements/1.1/"
   xmlns:cc="http://creativecommons.org/ns#"
   xmlns:rdf="http://www.w3.org/1999/02/22-rdf-syntax-ns#"
   xmlns:svg="http://www.w3.org/2000/svg"
   xmlns="http://www.w3.org/2000/svg"
   xmlns:sodipodi="http://sodipodi.sourceforge.net/DTD/sodipodi-0.dtd"
   xmlns:inkscape="http://www.inkscape.org/namespaces/inkscape"
   version="1.0"
   width="1000"
   height="1000"
   id="svg5496"
   sodipodi:version="0.32"
   inkscape:version="0.47pre4 r22446"
   sodipodi:docname="kaf+meem+alef.fina.svg"
   inkscape:output_extension="org.inkscape.output.svg.inkscape">
  <metadata
     id="metadata5594">
    <rdf:RDF>
      <cc:Work
         rdf:about="">
        <dc:format>image/svg+xml</dc:format>
        <dc:type
           rdf:resource="http://purl.org/dc/dcmitype/StillImage" />
      </cc:Work>
    </rdf:RDF>
  </metadata>
  <sodipodi:namedview
     inkscape:pageshadow="2"
     inkscape:pageopacity="0.0"
     guidetolerance="10.0"
     gridtolerance="10.0"
     objecttolerance="10.0"
     borderopacity="1.0"
     bordercolor="#666666"
     pagecolor="#ffffff"
     id="base"
     showgrid="false"
     showguides="true"
     inkscape:guide-bbox="true"
     inkscape:zoom="0.63075454"
     inkscape:cx="205.76167"
     inkscape:cy="604.27602"
     inkscape:window-x="0"
     inkscape:window-y="0"
     inkscape:current-layer="svg5496"
     inkscape:window-width="1278"
     inkscape:window-height="767"
     inkscape:window-maximized="1">
    <sodipodi:guide
       orientation="horizontal"
       position="200"
       id="guide5596" />
  </sodipodi:namedview>
  <defs
     id="defs5498">
    <inkscape:perspective
       sodipodi:type="inkscape:persp3d"
       inkscape:vp_x="0 : 500 : 1"
       inkscape:vp_y="0 : 1000 : 0"
       inkscape:vp_z="1000 : 500 : 1"
       inkscape:persp3d-origin="500 : 333.33333 : 1"
       id="perspective8" />
    <inkscape:perspective
       id="perspective2497"
       inkscape:persp3d-origin="372.04724 : 350.78739 : 1"
       inkscape:vp_z="744.09448 : 526.18109 : 1"
       inkscape:vp_y="0 : 1000 : 0"
       inkscape:vp_x="0 : 526.18109 : 1"
       sodipodi:type="inkscape:persp3d" />
    <inkscape:perspective
       id="perspective4595"
       inkscape:persp3d-origin="0.5 : 0.33333333 : 1"
       inkscape:vp_z="1 : 0.5 : 1"
       inkscape:vp_y="0 : 1000 : 0"
       inkscape:vp_x="0 : 0.5 : 1"
       sodipodi:type="inkscape:persp3d" />
  </defs>
  <path
     sodipodi:nodetypes="csssccccss"
     id="path2816"
     d="m 72.775321,420.095 c -1.1242,221.24401 39.825659,304.7354 77.805399,347.294 31.7902,35.62284 12.54632,158.61424 -43.98421,74.60441 C 40.965507,744.4594 26.712131,588.70794 27.326421,378.303 c 0.246995,-84.6 -12.4075,-178.546 -26.2447004,-252.202 -1.67,-8.934 -3.3223,-15.895 0,-20.911 L 32.898921,57.194 c 5.4835,-8.28 13.0022,-8.825 14.92,5.512 14.2716,106.698 21.710346,202.46508 22.9644,266.463 0.581035,29.65184 2.148907,60.04648 1.992,90.926 z"
     style="fill:#ff0000;fill-opacity:0.60784314;fill-rule:evenodd;stroke:#000000;stroke-width:0;stroke-linecap:butt;stroke-linejoin:miter;stroke-miterlimit:4;stroke-opacity:1;stroke-dasharray:none" />
  <g
     id="layer1"
     transform="matrix(0.5,0,0,0.5,136.83035,351.78593)"
     style="stroke:#000000;stroke-width:0;stroke-miterlimit:4;stroke-opacity:1;stroke-dasharray:none" />
  <path
     style="fill:#ff0000;fill-opacity:0.60784314;fill-rule:evenodd;stroke:#000000;stroke-width:0;stroke-linecap:butt;stroke-linejoin:miter;stroke-miterlimit:4;stroke-opacity:1;stroke-dasharray:none"
     d="m 150.58072,767.389 c 1.74712,1.36905 5.06272,1.65862 5.6025,-0.869 3.86647,-18.10542 10.52713,-31.06909 19.1443,-6.501 15.81391,45.08642 72.2776,78.671 128.3174,88.412 6.3346,1.1 11.2789,5.088 11.0252,18.275 l -1.498,77.65496 c -0.2595,13.493 -0.9579,16.926 -9.5272,15.88 C 211.09643,945.00067 150.07316,906.27646 106.59651,841.99341 71.442998,790.01666 117.17967,741.21577 150.58072,767.389 z"
     id="path2818"
     sodipodi:nodetypes="cssccccss" />
  <path
     sodipodi:nodetypes="ccccccccssscscssscss"
     id="path2820"
     d="M 66.783321,329.169 C 165.19461,188.57983 522.71852,75.231 716.85772,29.361 c 1.0951,-0.365 2.2973,-0.53 3.5353,-0.48 l 5e-4,0 c 5.3646,0.215 11.197,4.213 10.0664,10.935 l -10.4559,62.137 c -1.5363,9.135 -6.9439,9.238 -10.426,10.456 -196.6912,56.332 -403.9977,111.183 -597.1177,222.837 80.6909,25.04 204.1187,84.607 306.4701,168.768 107.3241,88.25 193.8777,180.76839 248.5723,205.777 45.06809,20.60697 14.93434,96.0398 -0.073,90.209 -80.47358,-31.26638 -194.2504,-181.996 -293.4692,-247.939 4.9021,34.036 9.5121,74.868 -6.6511,113.825 -42.3955,102.183 -144.9931,37.407 -190.0346,83.947 -3.1779,2.587 -2.83323,4.47351 -1.9473,10.186 7.09033,45.71861 -25.93155,43.32327 -19.1443,6.501 19.4643,-105.59799 119.8367,-103.374 192.9405,-106.876 7.4321,-0.356 5.8703,-10.042 6.1805,-12.901 5.058,-114.103 -220.01493,-213.66123 -282.528899,-226.648 -24.443174,-5.07787 -29.834403,-56.86503 -5.992,-90.926 z"
     style="fill:#ff0000;fill-opacity:0.60784314;fill-rule:evenodd;stroke:#000000;stroke-width:0;stroke-linecap:butt;stroke-linejoin:miter;stroke-miterlimit:4;stroke-opacity:1;stroke-dasharray:none" />
</svg>
