<?xml version="1.0" encoding="UTF-8" standalone="no"?>
<!-- Created with Inkscape (http://www.inkscape.org/) -->

<svg
   xmlns:dc="http://purl.org/dc/elements/1.1/"
   xmlns:cc="http://creativecommons.org/ns#"
   xmlns:rdf="http://www.w3.org/1999/02/22-rdf-syntax-ns#"
   xmlns:svg="http://www.w3.org/2000/svg"
   xmlns="http://www.w3.org/2000/svg"
   xmlns:sodipodi="http://sodipodi.sourceforge.net/DTD/sodipodi-0.dtd"
   xmlns:inkscape="http://www.inkscape.org/namespaces/inkscape"
   version="1.0"
   width="1000"
   height="1000"
   id="svg5496"
   sodipodi:version="0.32"
   inkscape:version="0.47pre4 r22446"
   sodipodi:docname="kaf+meem.init.svg"
   inkscape:output_extension="org.inkscape.output.svg.inkscape">
  <metadata
     id="metadata5594">
    <rdf:RDF>
      <cc:Work
         rdf:about="">
        <dc:format>image/svg+xml</dc:format>
        <dc:type
           rdf:resource="http://purl.org/dc/dcmitype/StillImage" />
      </cc:Work>
    </rdf:RDF>
  </metadata>
  <sodipodi:namedview
     inkscape:pageshadow="2"
     inkscape:pageopacity="0.0"
     guidetolerance="10.0"
     gridtolerance="10.0"
     objecttolerance="10.0"
     borderopacity="1.0"
     bordercolor="#666666"
     pagecolor="#ffffff"
     id="base"
     showgrid="false"
     showguides="true"
     inkscape:guide-bbox="true"
     inkscape:zoom="0.3337544"
     inkscape:cx="270.51802"
     inkscape:cy="760.97878"
     inkscape:window-x="0"
     inkscape:window-y="0"
     inkscape:current-layer="svg5496"
     inkscape:window-width="1278"
     inkscape:window-height="767"
     inkscape:window-maximized="1">
    <sodipodi:guide
       orientation="horizontal"
       position="200"
       id="guide5596" />
  </sodipodi:namedview>
  <defs
     id="defs5498">
    <inkscape:perspective
       sodipodi:type="inkscape:persp3d"
       inkscape:vp_x="0 : 500 : 1"
       inkscape:vp_y="0 : 1000 : 0"
       inkscape:vp_z="1000 : 500 : 1"
       inkscape:persp3d-origin="500 : 333.33333 : 1"
       id="perspective8" />
    <inkscape:perspective
       id="perspective2388"
       inkscape:persp3d-origin="372.04724 : 350.78739 : 1"
       inkscape:vp_z="744.09448 : 526.18109 : 1"
       inkscape:vp_y="0 : 1000 : 0"
       inkscape:vp_x="0 : 526.18109 : 1"
       sodipodi:type="inkscape:persp3d" />
    <inkscape:perspective
       id="perspective6781"
       inkscape:persp3d-origin="0.5 : 0.33333333 : 1"
       inkscape:vp_z="1 : 0.5 : 1"
       inkscape:vp_y="0 : 1000 : 0"
       inkscape:vp_x="0 : 0.5 : 1"
       sodipodi:type="inkscape:persp3d" />
    <inkscape:perspective
       id="perspective6781-5"
       inkscape:persp3d-origin="0.5 : 0.33333333 : 1"
       inkscape:vp_z="1 : 0.5 : 1"
       inkscape:vp_y="0 : 1000 : 0"
       inkscape:vp_x="0 : 0.5 : 1"
       sodipodi:type="inkscape:persp3d" />
    <inkscape:perspective
       id="perspective6873"
       inkscape:persp3d-origin="0.5 : 0.33333333 : 1"
       inkscape:vp_z="1 : 0.5 : 1"
       inkscape:vp_y="0 : 1000 : 0"
       inkscape:vp_x="0 : 0.5 : 1"
       sodipodi:type="inkscape:persp3d" />
    <inkscape:perspective
       id="perspective2843"
       inkscape:persp3d-origin="0.5 : 0.33333333 : 1"
       inkscape:vp_z="1 : 0.5 : 1"
       inkscape:vp_y="0 : 1000 : 0"
       inkscape:vp_x="0 : 0.5 : 1"
       sodipodi:type="inkscape:persp3d" />
  </defs>
  <g
     id="layer1"
     transform="translate(-121.79051,-110.44352)" />
  <path
     style="fill:#ff0000;fill-opacity:0.60784314;fill-rule:evenodd;stroke:#000000;stroke-width:0;stroke-linecap:butt;stroke-linejoin:miter;stroke-miterlimit:4;stroke-opacity:1;stroke-dasharray:none"
     d="m 154.84334,572.09207 c -29.74287,16.07403 -49.15099,73.637 -72.999995,100.65101 -19.111,21.65 -54.8578,35.08008 -81.6960005,36.404 -31.8664395,1.57196 -29.1177795,91.56901 -0.05,90.618 61.0999205,-1.999 80.1340005,-68.576 100.8830055,-101.906 37.06058,36.08423 97.06577,58.30007 133.16484,64.83333 34.85502,6.30811 78.55923,-103.94817 39.4366,-155.03723 C 229.624,550.25203 170.60142,563.57588 154.84334,572.09207 z m 27.48,58.327 c 36.865,-0.242 74.144,27.62 78.806,51.94601 0.9,4.696 -3.913,5.543 -8.651,4.634 -32.418,-6.219 -66.37,-16.32 -99.527,-43.41701 -2.335,-1.908 -2.932,-6.401 1.127,-7.937 9.389,-3.553 18.923,-5.17 28.245,-5.226 z"
     id="path2831"
     sodipodi:nodetypes="ccsscsssccsccc" />
  <g
     style="fill:#ff0000;fill-opacity:0.60784314;stroke:#000000;stroke-width:0;stroke-miterlimit:4;stroke-opacity:1;stroke-dasharray:none"
     transform="matrix(0.96479703,0,0,0.96479703,-24.191053,36.162376)"
     id="g2829">
    <g
       style="fill:#ff0000;fill-opacity:0.60784314;stroke:#000000;stroke-width:0;stroke-miterlimit:4;stroke-opacity:1;stroke-dasharray:none"
       id="g2831"
       transform="translate(-121.79051,-110.44352)" />
    <path
       sodipodi:nodetypes="cssscsccssssssccccc"
       style="fill:#ff0000;fill-opacity:0.60784314;fill-rule:evenodd;stroke:#000000;stroke-width:0;stroke-linecap:butt;stroke-linejoin:miter;stroke-miterlimit:4;stroke-opacity:1;stroke-dasharray:none"
       d="m 735.24965,-21.96875 c -125.34252,5.239879 -482.56407,41.910033 -601.75995,169.375 -32.36737,34.61282 -47.95613,106.90897 -47.75,126.65625 0.08488,8.13215 5.66645,13.59057 10.0625,18.25 20.79573,22.04158 35.35006,36.75442 60.42741,58.38798 5.2143,4.40551 12.68913,3.20918 15.15625,0.25 6.26012,-7.50869 8.10904,-12.36194 13.28774,-16.44068 3.23705,-2.52647 8.37886,-1.466 11.4375,1.46875 63.61589,49.86491 134.97027,144.13908 137.5764,199.3652 0.21761,4.61143 -2.70529,8.26304 -6.25,9.5 -39.78228,13.88242 -110.57162,-8.18787 -142.81325,11.40138 -27.12042,16.47774 100.2375,56.37973 124.0736,45.11922 58.36313,-27.57155 53.9999,-109.14609 50.49983,-134.9581 -12.31311,-90.8054 -136.66064,-232.18183 -200.40613,-283.11453 -2.23528,-1.78599 -6.56702,-4.65943 -2.8125,-7.71875 C 256.63277,103.38387 549.12831,70.029508 681.875,62.53125 c 6.51443,-0.453069 18.01958,-1.993466 24.9375,-9.34375 L 744.2184,0.21875 c 7.48436,-7.952134 2.46475,-22.665472 -8.96875,-22.1875 z"
       id="path2833" />
  </g>
</svg>
