<?xml version="1.0" encoding="UTF-8" standalone="no"?>
<!-- Created with Inkscape (http://www.inkscape.org/) -->

<svg
   xmlns:dc="http://purl.org/dc/elements/1.1/"
   xmlns:cc="http://creativecommons.org/ns#"
   xmlns:rdf="http://www.w3.org/1999/02/22-rdf-syntax-ns#"
   xmlns:svg="http://www.w3.org/2000/svg"
   xmlns="http://www.w3.org/2000/svg"
   xmlns:sodipodi="http://sodipodi.sourceforge.net/DTD/sodipodi-0.dtd"
   xmlns:inkscape="http://www.inkscape.org/namespaces/inkscape"
   version="1.0"
   width="1000"
   height="1000"
   id="svg5496"
   sodipodi:version="0.32"
   inkscape:version="0.47pre4 r22446"
   sodipodi:docname="kaf+yaa.isol.svg"
   inkscape:output_extension="org.inkscape.output.svg.inkscape">
  <metadata
     id="metadata5594">
    <rdf:RDF>
      <cc:Work
         rdf:about="">
        <dc:format>image/svg+xml</dc:format>
        <dc:type
           rdf:resource="http://purl.org/dc/dcmitype/StillImage" />
      </cc:Work>
    </rdf:RDF>
  </metadata>
  <sodipodi:namedview
     inkscape:pageshadow="2"
     inkscape:pageopacity="0.0"
     guidetolerance="10.0"
     gridtolerance="10.0"
     objecttolerance="10.0"
     borderopacity="1.0"
     bordercolor="#666666"
     pagecolor="#ffffff"
     id="base"
     showgrid="false"
     showguides="true"
     inkscape:guide-bbox="true"
     inkscape:zoom="0.38983053"
     inkscape:cx="484.87406"
     inkscape:cy="326.60991"
     inkscape:window-x="0"
     inkscape:window-y="0"
     inkscape:current-layer="svg5496"
     inkscape:window-width="1278"
     inkscape:window-height="767"
     inkscape:window-maximized="1">
    <sodipodi:guide
       orientation="horizontal"
       position="200"
       id="guide5596" />
  </sodipodi:namedview>
  <defs
     id="defs5498">
    <inkscape:perspective
       sodipodi:type="inkscape:persp3d"
       inkscape:vp_x="0 : 500 : 1"
       inkscape:vp_y="0 : 1000 : 0"
       inkscape:vp_z="1000 : 500 : 1"
       inkscape:persp3d-origin="500 : 333.33333 : 1"
       id="perspective8" />
    <inkscape:perspective
       id="perspective2388"
       inkscape:persp3d-origin="372.04724 : 350.78739 : 1"
       inkscape:vp_z="744.09448 : 526.18109 : 1"
       inkscape:vp_y="0 : 1000 : 0"
       inkscape:vp_x="0 : 526.18109 : 1"
       sodipodi:type="inkscape:persp3d" />
    <inkscape:perspective
       sodipodi:type="inkscape:persp3d"
       inkscape:vp_x="0 : 526.18109 : 1"
       inkscape:vp_y="0 : 1000 : 0"
       inkscape:vp_z="744.09448 : 526.18109 : 1"
       inkscape:persp3d-origin="372.04724 : 350.78739 : 1"
       id="perspective2517" />
    <inkscape:perspective
       id="perspective3300"
       inkscape:persp3d-origin="500 : 333.33333 : 1"
       inkscape:vp_z="1000 : 500 : 1"
       inkscape:vp_y="0 : 1000 : 0"
       inkscape:vp_x="0 : 500 : 1"
       sodipodi:type="inkscape:persp3d" />
    <inkscape:perspective
       id="perspective7594"
       inkscape:persp3d-origin="0.5 : 0.33333333 : 1"
       inkscape:vp_z="1 : 0.5 : 1"
       inkscape:vp_y="0 : 1000 : 0"
       inkscape:vp_x="0 : 0.5 : 1"
       sodipodi:type="inkscape:persp3d" />
    <inkscape:perspective
       id="perspective2834"
       inkscape:persp3d-origin="0.5 : 0.33333333 : 1"
       inkscape:vp_z="1 : 0.5 : 1"
       inkscape:vp_y="0 : 1000 : 0"
       inkscape:vp_x="0 : 0.5 : 1"
       sodipodi:type="inkscape:persp3d" />
  </defs>
  <g
     id="layer1"
     transform="translate(-187.60258,114.5099)" />
  <path
     sodipodi:nodetypes="ccsssssssscscsc"
     id="path2840"
     d="m 388.3901,654.74887 -23.46388,53.9063 c -1.29229,2.6356 -2.30763,7.5819 3.86289,8.0634 66.94607,5.2236 153.02526,-0.7735 194.61927,33.9036 2.3846,1.9881 2.93469,4.2763 0.77934,6.3913 -66.62206,65.3761 -232.75475,150.20361 -341.7769,148.59681 -117.03847,-1.7249 -184.464621,-53.409 -186.683771,-159.52111 -0.9445,-45.1626 11.600422,-95.88378 56.979785,-164.42494 10.139166,-15.31424 -6.7095,-27.4458 -15.614627,-15.79391 -57.109835,74.72525 -96.475308,201.64105 -76.6275277,298.14326 13.3481197,64.9001 70.3275097,127.7543 183.3754307,136.17372 179.89231,13.4229 370.88778,-133.68332 398.57328,-172.21303 11.20641,-15.5959 49.79985,-109.0554 19.84977,-138.7361 -24.92938,-21.75 -65.58549,-29.50469 -95.08684,-33.0538 -33.93371,-4.08234 -76.14248,-5.73475 -118.78622,-1.4355 z"
     style="fill:#ff0000;fill-opacity:0.60784314;fill-rule:evenodd;stroke:#000000;stroke-width:1;stroke-linecap:butt;stroke-linejoin:miter;stroke-miterlimit:4;stroke-opacity:1;stroke-dasharray:none" />
  <path
     style="fill:#ff0000;fill-opacity:0.60784314;fill-rule:evenodd;stroke:#000000;stroke-width:1;stroke-linecap:butt;stroke-linejoin:miter;stroke-miterlimit:4;stroke-opacity:1;stroke-dasharray:none"
     d="M 838.09544,-127.15811 C 727.4965,-83.428341 393.42955,37.097586 270.7762,145.75668 c -26.84542,28.61132 -64.34131,122.66857 -45.13373,172.5055 10.7841,27.98099 38.76697,47.84784 79.39296,74.86921 2.51777,1.67464 4.91529,2.01811 6.66027,-0.91988 l 17.59293,-37.62513 c 1.80024,-3.03101 5.59326,-2.05037 7.65639,-0.65828 75.98225,51.26745 162.31241,121.87559 177.74668,238.9451 0.4458,2.27939 -0.89503,4.72489 -2.71773,5.88822 -33.89934,21.63614 -70.12798,36.48618 -123.58387,55.98745 l -23.46388,53.9063 c -1.17152,2.69146 -2.13784,9.51989 3.86289,8.0634 63.21358,-15.34315 102.51747,-37.18883 141.01594,-72.0763 12.20656,-11.06163 29.99067,-43.82197 31.85851,-63.27159 7.79339,-81.14923 -14.19292,-148.51101 -58.15482,-205.97731 -47.91437,-62.63285 -124.40791,-117.646 -188.25485,-164.41737 -7.73083,-5.66325 -3.95535,-10.79693 -1.39534,-13.15474 56.77837,-57.43172 399.44046,-190.1282242 538.81885,-235.854884 6.06821,-1.99083 13.00441,-4.89933 14.29832,-14.61587 2.63457,-19.784117 7.9037,-59.352366 7.9037,-59.352366 1.78615,-13.41299 -4.16521,-20.14558 -16.78398,-15.15625 z"
     id="path2842"
     sodipodi:nodetypes="ccssccscscsssssscssss" />
</svg>
