<?xml version="1.0" encoding="UTF-8" standalone="no"?>
<!-- Created with Inkscape (http://www.inkscape.org/) -->

<svg
   xmlns:dc="http://purl.org/dc/elements/1.1/"
   xmlns:cc="http://creativecommons.org/ns#"
   xmlns:rdf="http://www.w3.org/1999/02/22-rdf-syntax-ns#"
   xmlns:svg="http://www.w3.org/2000/svg"
   xmlns="http://www.w3.org/2000/svg"
   xmlns:sodipodi="http://sodipodi.sourceforge.net/DTD/sodipodi-0.dtd"
   xmlns:inkscape="http://www.inkscape.org/namespaces/inkscape"
   version="1.0"
   width="1000"
   height="1000"
   id="svg5496"
   sodipodi:version="0.32"
   inkscape:version="0.47pre4 r22446"
   sodipodi:docname="kaf+meem+alef.fina.svg"
   inkscape:output_extension="org.inkscape.output.svg.inkscape">
  <metadata
     id="metadata5594">
    <rdf:RDF>
      <cc:Work
         rdf:about="">
        <dc:format>image/svg+xml</dc:format>
        <dc:type
           rdf:resource="http://purl.org/dc/dcmitype/StillImage" />
      </cc:Work>
    </rdf:RDF>
  </metadata>
  <sodipodi:namedview
     inkscape:pageshadow="2"
     inkscape:pageopacity="0.0"
     guidetolerance="10.0"
     gridtolerance="10.0"
     objecttolerance="10.0"
     borderopacity="1.0"
     bordercolor="#666666"
     pagecolor="#ffffff"
     id="base"
     showgrid="false"
     showguides="true"
     inkscape:guide-bbox="true"
     inkscape:zoom="0.236"
     inkscape:cx="500"
     inkscape:cy="500"
     inkscape:window-x="0"
     inkscape:window-y="24"
     inkscape:current-layer="svg5496"
     inkscape:window-width="1280"
     inkscape:window-height="725"
     inkscape:window-maximized="1">
    <sodipodi:guide
       orientation="horizontal"
       position="200"
       id="guide5596" />
  </sodipodi:namedview>
  <defs
     id="defs5498">
    <inkscape:perspective
       sodipodi:type="inkscape:persp3d"
       inkscape:vp_x="0 : 500 : 1"
       inkscape:vp_y="0 : 1000 : 0"
       inkscape:vp_z="1000 : 500 : 1"
       inkscape:persp3d-origin="500 : 333.33333 : 1"
       id="perspective8" />
    <inkscape:perspective
       id="perspective2497"
       inkscape:persp3d-origin="372.04724 : 350.78739 : 1"
       inkscape:vp_z="744.09448 : 526.18109 : 1"
       inkscape:vp_y="0 : 1000 : 0"
       inkscape:vp_x="0 : 526.18109 : 1"
       sodipodi:type="inkscape:persp3d" />
    <inkscape:perspective
       id="perspective4595"
       inkscape:persp3d-origin="0.5 : 0.33333333 : 1"
       inkscape:vp_z="1 : 0.5 : 1"
       inkscape:vp_y="0 : 1000 : 0"
       inkscape:vp_x="0 : 0.5 : 1"
       sodipodi:type="inkscape:persp3d" />
  </defs>
  <g
     id="layer1"
     transform="matrix(0.5,0,0,0.5,136.83035,291.78593)"
     style="stroke:#000000;stroke-width:2;stroke-miterlimit:4;stroke-dasharray:none;stroke-opacity:1" />
  <path
     style="fill:#ff0000;fill-opacity:0.60784314;fill-rule:evenodd;stroke:#000000;stroke-width:1;stroke-linecap:butt;stroke-linejoin:miter;stroke-miterlimit:4;stroke-opacity:1;stroke-dasharray:none"
     d="m 720.39302,28.881 c -1.238,-0.05 -2.4402,0.115 -3.5353,0.48 -194.1392,45.87 -552.0395,158.953 -650.074399,299.808 0.6799,-65.685 -4.6928,-159.765 -18.9644,-266.463 -1.9178,-14.337 -9.4365,-13.792 -14.92,-5.512 L 1.0817206,105.19 c -3.3223,5.016 -1.67,11.977 0,20.911 13.8372004,73.656 26.4917004,167.602 26.2447004,252.202 -1.0114,346.425 40.6098,543.12296 276.318499,581.93796 8.5693,1.046 9.2677,-2.387 9.5272,-15.88 l 1.498,-77.65496 c 0.2537,-13.187 -4.6906,-17.175 -11.0252,-18.275 -56.0398,-9.741 -112.1333,-43.454 -128.3174,-88.412 -1.9615,-5.449 -1.2306,-7.599 1.9473,-10.186 45.0415,-46.54 147.6391,18.236 190.0346,-83.947 16.1632,-38.957 11.5532,-79.789 6.6511,-113.825 99.2188,65.943 174.9832,176.975 293.4692,247.939 l 0.073,-90.209 C 613.09542,684.152 526.25452,592.264 418.93042,504.014 316.57902,419.853 193.15122,360.286 112.46032,335.246 c 193.12,-111.654 400.4265,-166.505 597.1177,-222.837 3.4821,-1.218 8.8897,-1.321 10.426,-10.456 l 10.4559,-62.137 c 1.1306,-6.722 -4.7018,-10.72 -10.0664,-10.935 l -5e-4,0 z M 72.775321,420.095 c 62.513299,12.99 287.586899,112.545 282.528899,226.648 -0.3102,2.859 1.2516,12.545 -6.1805,12.901 -73.1038,3.502 -173.3342,1.304 -192.9405,106.876 -0.3206,2.566 -4.0147,2.421 -5.6025,0.869 -37.5397,-36.679 -80.826999,-90.19 -77.805399,-347.294 z"
     id="path2503"
     sodipodi:nodetypes="cccccccsccccscscccsccccccccsccc" />
</svg>
