<?xml version="1.0" encoding="UTF-8" standalone="no"?>
<!-- Created with Inkscape (http://www.inkscape.org/) -->

<svg
   xmlns:dc="http://purl.org/dc/elements/1.1/"
   xmlns:cc="http://creativecommons.org/ns#"
   xmlns:rdf="http://www.w3.org/1999/02/22-rdf-syntax-ns#"
   xmlns:svg="http://www.w3.org/2000/svg"
   xmlns="http://www.w3.org/2000/svg"
   xmlns:sodipodi="http://sodipodi.sourceforge.net/DTD/sodipodi-0.dtd"
   xmlns:inkscape="http://www.inkscape.org/namespaces/inkscape"
   version="1.0"
   width="1000"
   height="1000"
   id="svg5496"
   sodipodi:version="0.32"
   inkscape:version="0.47pre4 r22446"
   sodipodi:docname="kaf+heh.fina.svg"
   inkscape:output_extension="org.inkscape.output.svg.inkscape">
  <metadata
     id="metadata5594">
    <rdf:RDF>
      <cc:Work
         rdf:about="">
        <dc:format>image/svg+xml</dc:format>
        <dc:type
           rdf:resource="http://purl.org/dc/dcmitype/StillImage" />
      </cc:Work>
    </rdf:RDF>
  </metadata>
  <sodipodi:namedview
     inkscape:pageshadow="2"
     inkscape:pageopacity="0.0"
     guidetolerance="10.0"
     gridtolerance="10.0"
     objecttolerance="10.0"
     borderopacity="1.0"
     bordercolor="#666666"
     pagecolor="#ffffff"
     id="base"
     showgrid="false"
     showguides="true"
     inkscape:guide-bbox="true"
     inkscape:zoom="0.56444327"
     inkscape:cx="538.4371"
     inkscape:cy="674.88173"
     inkscape:window-x="0"
     inkscape:window-y="0"
     inkscape:current-layer="svg5496"
     inkscape:window-width="1278"
     inkscape:window-height="767"
     inkscape:window-maximized="1">
    <sodipodi:guide
       orientation="horizontal"
       position="200"
       id="guide5596" />
  </sodipodi:namedview>
  <defs
     id="defs5498">
    <inkscape:perspective
       sodipodi:type="inkscape:persp3d"
       inkscape:vp_x="0 : 500 : 1"
       inkscape:vp_y="0 : 1000 : 0"
       inkscape:vp_z="1000 : 500 : 1"
       inkscape:persp3d-origin="500 : 333.33333 : 1"
       id="perspective8" />
    <inkscape:perspective
       id="perspective2477"
       inkscape:persp3d-origin="372.04724 : 350.78739 : 1"
       inkscape:vp_z="744.09448 : 526.18109 : 1"
       inkscape:vp_y="0 : 1000 : 0"
       inkscape:vp_x="0 : 526.18109 : 1"
       sodipodi:type="inkscape:persp3d" />
    <inkscape:perspective
       sodipodi:type="inkscape:persp3d"
       inkscape:vp_x="0 : 500 : 1"
       inkscape:vp_y="0 : 1000 : 0"
       inkscape:vp_z="1000 : 500 : 1"
       inkscape:persp3d-origin="500 : 333.33333 : 1"
       id="perspective2389" />
    <inkscape:perspective
       id="perspective2524"
       inkscape:persp3d-origin="372.04724 : 350.78739 : 1"
       inkscape:vp_z="744.09448 : 526.18109 : 1"
       inkscape:vp_y="0 : 1000 : 0"
       inkscape:vp_x="0 : 526.18109 : 1"
       sodipodi:type="inkscape:persp3d" />
    <inkscape:perspective
       sodipodi:type="inkscape:persp3d"
       inkscape:vp_x="0 : 526.18109 : 1"
       inkscape:vp_y="0 : 1000 : 0"
       inkscape:vp_z="744.09448 : 526.18109 : 1"
       inkscape:persp3d-origin="372.04724 : 350.78739 : 1"
       id="perspective2457" />
    <inkscape:perspective
       id="perspective2594"
       inkscape:persp3d-origin="500 : 333.33333 : 1"
       inkscape:vp_z="1000 : 500 : 1"
       inkscape:vp_y="0 : 1000 : 0"
       inkscape:vp_x="0 : 500 : 1"
       sodipodi:type="inkscape:persp3d" />
    <inkscape:perspective
       id="perspective4551"
       inkscape:persp3d-origin="0.5 : 0.33333333 : 1"
       inkscape:vp_z="1 : 0.5 : 1"
       inkscape:vp_y="0 : 1000 : 0"
       inkscape:vp_x="0 : 0.5 : 1"
       sodipodi:type="inkscape:persp3d" />
  </defs>
  <path
     style="fill:#ff0000;fill-opacity:0.60784314;stroke:#000000;stroke-width:1;stroke-linecap:butt;stroke-linejoin:miter;stroke-miterlimit:4;stroke-opacity:1;stroke-dasharray:none"
     d="m 829.03739,-44.213 c -1.174,0.04 -2.4058,0.236 -3.6942,0.615 -224.2116,65.806 -540.3104,170.255 -635.0053,264.969 -14.969,25.23 -19.0795,51.094 -23.0796,75.691 -3.2942,20.256 0.9972,36.801 15.7045,48.884 100.597,82.648 266.1638,227.229 278.1237,343.38 -42.5046,54.614 -125.76454,84.97221 -175.1809,49.795 -24.76605,-17.6298 -96.88906,54.1553 -17.9957,103.186 30.2864,18.82241 185.3557,27.544 215.7237,-105.088 6.1707,-50.352 -2.5381,-100.667 -10.3945,-150.181 -1.0584,-8.63 5.5548,-7.009 11.7434,-0.994 87.2084,84.763 190.67858,208.36481 246.3404,213.956 14.42239,1.44872 36.74221,-72.60692 0.613,-90.902 -136.20868,-68.97324 -347.5624,-345.196 -515.9945,-432.55 142.6717,-94.735 422.1054,-181.381 604.9726,-224.391 3.3902,-0.798 8.277,-4.066 9.1596,-9.722 l 10.7876,-69.249 c 1.5524,-9.948 -3.6061,-17.658 -11.8238,-17.399 z"
     id="path2823"
     sodipodi:nodetypes="cccsccssccsssccccc" />
  <g
     id="layer1"
     transform="translate(0,152)" />
  <g
     id="g2601"
     transform="matrix(0.5,0,0,0.5,198.16843,42.13211)"
     style="stroke:#000000;stroke-width:2;stroke-miterlimit:4;stroke-opacity:1;stroke-dasharray:none" />
  <path
     sodipodi:nodetypes="csscccccssscccsscscc"
     id="path2821"
     d="m 285.90559,739.121 c -28.72852,-21.45534 -42.4968,-52.564 -48.2429,-73.243 -14.5569,-52.386 -35.3889,-153.34 -46.6277,-213.051 -1.9482,-10.351 -5.2606,-26.598 -18.2953,-12.948 l -19.577,44.666 c -2.5902,9.342 -1.4096,21.964 -0.787,27.586 l 5.6265,46.602 c -41.5372,19.897 -80.0421,36.808 -113.511801,69.822 0,0 -11.0036,11.478 -17.1248,27.859 -3.3589,8.988 -20.0876998,50.61 -25.4730998,66.113 -6.475503,18.641 8.058,35.55 15.6504998,42.197 11.6814,10.228 80.863301,14.705 124.332101,6.553 9.7699,-2.569 16.694,-7.827 24.9045,-23.218 4.5642,-8.376 13.0762,-23.613 22.2892,-64.769 4.9992,26.092 23.08806,129.669 78.8411,159.017 53.45181,28.13665 58.43944,-72.98137 17.9957,-103.186 z M 170.16339,600.324 c 1.6132,19.336 23.7077,71.398 -3.8276,85.906 -20.0892,10.585 -89.4616,19.678 -109.3127,-5.626 12.2976,-27.015 90.7977,-71.456 113.1403,-80.28 z"
     style="fill:#ff0000;fill-opacity:0.60784314;stroke:#000000;stroke-width:1;stroke-linecap:butt;stroke-linejoin:miter;stroke-miterlimit:4;stroke-opacity:1;stroke-dasharray:none" />
</svg>
