<?xml version="1.0" encoding="UTF-8" standalone="no"?>
<!-- Created with Inkscape (http://www.inkscape.org/) -->

<svg
   xmlns:dc="http://purl.org/dc/elements/1.1/"
   xmlns:cc="http://creativecommons.org/ns#"
   xmlns:rdf="http://www.w3.org/1999/02/22-rdf-syntax-ns#"
   xmlns:svg="http://www.w3.org/2000/svg"
   xmlns="http://www.w3.org/2000/svg"
   xmlns:sodipodi="http://sodipodi.sourceforge.net/DTD/sodipodi-0.dtd"
   xmlns:inkscape="http://www.inkscape.org/namespaces/inkscape"
   version="1.0"
   width="1000"
   height="1000"
   id="svg5496"
   sodipodi:version="0.32"
   inkscape:version="0.47pre4 r22446"
   sodipodi:docname="New document 28"
   inkscape:output_extension="org.inkscape.output.svg.inkscape">
  <metadata
     id="metadata5594">
    <rdf:RDF>
      <cc:Work
         rdf:about="">
        <dc:format>image/svg+xml</dc:format>
        <dc:type
           rdf:resource="http://purl.org/dc/dcmitype/StillImage" />
        <dc:title></dc:title>
      </cc:Work>
    </rdf:RDF>
  </metadata>
  <sodipodi:namedview
     inkscape:window-height="618"
     inkscape:window-width="641"
     inkscape:pageshadow="2"
     inkscape:pageopacity="0.0"
     borderopacity="1.0"
     bordercolor="#666666"
     pagecolor="#ffffff"
     id="base"
     showgrid="false"
     showguides="true"
     inkscape:guide-bbox="true"
     inkscape:zoom="0.454"
     inkscape:cx="500"
     inkscape:cy="500"
     inkscape:window-x="0"
     inkscape:window-y="25"
     inkscape:current-layer="svg5496"
     inkscape:window-maximized="0">
    <sodipodi:guide
       orientation="horizontal"
       position="200"
       id="guide5596" />
  </sodipodi:namedview>
  <defs
     id="defs5498">
    <inkscape:perspective
       sodipodi:type="inkscape:persp3d"
       inkscape:vp_x="0 : 500 : 1"
       inkscape:vp_y="0 : 1000 : 0"
       inkscape:vp_z="1000 : 500 : 1"
       inkscape:persp3d-origin="500 : 333.33333 : 1"
       id="perspective4724" />
    <inkscape:perspective
       id="perspective4713"
       inkscape:persp3d-origin="0.5 : 0.33333333 : 1"
       inkscape:vp_z="1 : 0.5 : 1"
       inkscape:vp_y="0 : 1000 : 0"
       inkscape:vp_x="0 : 0.5 : 1"
       sodipodi:type="inkscape:persp3d" />
  </defs>
  <g
     id="layer1" />
  <path
     style="fill:#ff0000;fill-opacity:0.60784314;fill-rule:evenodd;stroke:#000000;stroke-width:1;stroke-linecap:butt;stroke-linejoin:miter;stroke-miterlimit:4;stroke-opacity:1;stroke-dasharray:none"
     d="m 979.87614,-21.462998 c -1.5825,0.0381 -3.2116,0.34789 -4.7813,0.9375 C 808.3661,42.1034 567.1401,116.76667 383.1193,228.89293 354.1551,246.54113 337.833,276.7486 321.7755,305.8929 299.5546,357.493 300.6637,408.7207 305.2511,413.912 l 61.9915,69.2946 c 3.3245,3.7619 8.4483,4.2141 12.0938,1 l 10.3124,-9.125 c 4.8864,-4.3083 7.3743,-3.328 9.75,-0.8126 47.4195,44.4333 165.533,188.6823 177.7184,325.731 -54.9398,39.5662 -144.5259,55.9435 -181.0848,27.412 -67.9368,-53.0196 -102.9538,-230.3233 -121.625,-318.125 -2.1276,-10.6087 -13.433,-10.0601 -16.4063,-1.9688 -5.8905,16.0299 -11.6902,30.1592 -16.25,45.5626 -2.6596,8.9841 -3.5556,14.6146 -0.875,27.4687 8.7106,54.6354 32.7571,131.0356 34.8358,168.2018 -2.9658,19.8436 -20.5843,41.3483 -40.125,51.5 -32.3503,16.8065 -110.3929,27.2759 -150.156303,21.9063 -19.1798,-2.59 -22.1874,-5.8586 -28.8437,-18.696 -2.8284,-5.4549 -19.921,-9.5056 -21.7813,10.0937 -3.0863,32.5156 -6.7388,83.7771 25.2813,94.57103 51.509403,17.3636 145.231003,-6.44163 164.937403,-23.21873 8.4409,-7.1861 18.4467,-17.727 25.6231,-28.1177 18.4581,-26.7253 29.6735,-59.9507 32.5019,-71.2886 0.7689,-3.0824 9.3902,-10.5265 10.981,-5.3899 10.344,52.2026 26.6079,134.14453 80.6833,152.86073 38.9882,13.4944 193.322,21.7217 227.0625,-107.26633 C 650.0219,604.7096 431.3794,385.0951 366.5324,313.9745 469.7748,242.36046 758.1669,140.96648 964.43864,72.25575 c 6.2681,-2.08797 11.3731,-5.66501 14.1562,-14.8125 3.7292,-12.25679 9.492,-38.66676 14.1563,-57.562498 3.4253,-13.87658 -4.3297,-21.54939 -12.875,-21.34375 z"
     id="path2463"
     sodipodi:nodetypes="csccccccccscssccsssssssscsccsssc" />
</svg>
