<?xml version="1.0" encoding="UTF-8" standalone="no"?>
<!-- Created with Inkscape (http://www.inkscape.org/) -->

<svg
   xmlns:dc="http://purl.org/dc/elements/1.1/"
   xmlns:cc="http://creativecommons.org/ns#"
   xmlns:rdf="http://www.w3.org/1999/02/22-rdf-syntax-ns#"
   xmlns:svg="http://www.w3.org/2000/svg"
   xmlns="http://www.w3.org/2000/svg"
   xmlns:sodipodi="http://sodipodi.sourceforge.net/DTD/sodipodi-0.dtd"
   xmlns:inkscape="http://www.inkscape.org/namespaces/inkscape"
   version="1.0"
   width="1000"
   height="1000"
   id="svg5496"
   sodipodi:version="0.32"
   inkscape:version="0.47pre4 r22446"
   sodipodi:docname="kaf+alef.isol.svg"
   inkscape:output_extension="org.inkscape.output.svg.inkscape">
  <metadata
     id="metadata5594">
    <rdf:RDF>
      <cc:Work
         rdf:about="">
        <dc:format>image/svg+xml</dc:format>
        <dc:type
           rdf:resource="http://purl.org/dc/dcmitype/StillImage" />
      </cc:Work>
    </rdf:RDF>
  </metadata>
  <sodipodi:namedview
     inkscape:pageshadow="2"
     inkscape:pageopacity="0.0"
     guidetolerance="10.0"
     gridtolerance="10.0"
     objecttolerance="10.0"
     borderopacity="1.0"
     bordercolor="#666666"
     pagecolor="#ffffff"
     id="base"
     showgrid="false"
     showguides="true"
     inkscape:guide-bbox="true"
     inkscape:zoom="0.28407869"
     inkscape:cx="165.20171"
     inkscape:cy="712.24729"
     inkscape:window-x="0"
     inkscape:window-y="0"
     inkscape:current-layer="svg5496"
     inkscape:window-width="1278"
     inkscape:window-height="767"
     inkscape:window-maximized="1">
    <sodipodi:guide
       orientation="horizontal"
       position="200"
       id="guide5596" />
  </sodipodi:namedview>
  <defs
     id="defs5498">
    <inkscape:perspective
       sodipodi:type="inkscape:persp3d"
       inkscape:vp_x="0 : 500 : 1"
       inkscape:vp_y="0 : 1000 : 0"
       inkscape:vp_z="1000 : 500 : 1"
       inkscape:persp3d-origin="500 : 333.33333 : 1"
       id="perspective8" />
    <inkscape:perspective
       id="perspective2457"
       inkscape:persp3d-origin="372.04724 : 350.78739 : 1"
       inkscape:vp_z="744.09448 : 526.18109 : 1"
       inkscape:vp_y="0 : 1000 : 0"
       inkscape:vp_x="0 : 526.18109 : 1"
       sodipodi:type="inkscape:persp3d" />
    <inkscape:perspective
       id="perspective2459"
       inkscape:persp3d-origin="372.04724 : 350.78739 : 1"
       inkscape:vp_z="744.09448 : 526.18109 : 1"
       inkscape:vp_y="0 : 1000 : 0"
       inkscape:vp_x="0 : 526.18109 : 1"
       sodipodi:type="inkscape:persp3d" />
    <inkscape:perspective
       id="perspective4660"
       inkscape:persp3d-origin="0.5 : 0.33333333 : 1"
       inkscape:vp_z="1 : 0.5 : 1"
       inkscape:vp_y="0 : 1000 : 0"
       inkscape:vp_x="0 : 0.5 : 1"
       sodipodi:type="inkscape:persp3d" />
  </defs>
  <g
     id="layer1"
     transform="matrix(0.5,0,0,0.5,49.760543,12.754394)"
     style="stroke:#000000;stroke-opacity:1;stroke-width:2;stroke-miterlimit:4;stroke-dasharray:none" />
  <path
     id="path2817"
     d="m 225.49476,697.60111 c -36.28077,1.68471 -68.10116,-7.53212 -85.50037,-25.4918 -34.7702,-35.89023 -39.74766,-73.98725 -52.502399,-226.266 -2.352003,-28.08055 -4.123853,-61.83836 -6.2834,-96.642 -7.111037,-114.60277 -18.8833,-239.593 -34.5148,-343.979012 -0.8432,-5.647 -4.3868,-9.239 -9.5139,-1.334 l -32.5226998,50.173 c -2.8102,4.333 -3.4197,9.809 -1.4435,16.039 C 21.388891,127.39531 35.597391,292.27031 38.675691,357.87031 c 7.8791,167.914 13.113097,339.84248 63.090199,403.091 23.05918,29.18254 75.90672,45.25922 128.52093,38.05695 36.23217,-4.95976 44.37563,-103.70027 -4.79206,-101.41715 z"
     style="fill:#ff0000;fill-opacity:0.60784314;fill-rule:evenodd;stroke:#000000;stroke-width:1;stroke-linecap:butt;stroke-linejoin:miter;stroke-miterlimit:4;stroke-opacity:1;stroke-dasharray:none"
     sodipodi:nodetypes="cssscccscsss" />
  <path
     sodipodi:nodetypes="ccsssssscssss"
     style="fill:#ff0000;fill-opacity:0.60784314;fill-rule:evenodd;stroke:#000000;stroke-width:1;stroke-linecap:butt;stroke-linejoin:miter;stroke-miterlimit:4;stroke-opacity:1;stroke-dasharray:none"
     d="m 225.49476,697.60111 c 42.09944,-4.48303 103.27784,-28.07738 137.57893,-65.6248 -5.5598,-65.454 -203.08661,-168.31265 -275.581699,-186.133 -25.561014,-6.28327 -12.128715,-62.32931 -6.2834,-96.642 C 102.97522,221.42863 634.27591,23.301828 756.99939,-19.027702 c 8.70941,-3.004032 18.39447,1.4981 14.975,11.082 0,0 -13.99699,39.233005 -20.9969,58.849 -2.32355,6.511338 -7.41241,10.530722 -12.637,12.632 -163.39471,65.715732 -539.6546,219.226012 -623.6125,294.173012 70.69894,18.28175 186.80229,78.68097 235.97281,138.84863 36.96828,45.23634 57.23006,127.80182 39.26299,182.08037 -27.68056,83.62299 -101.08442,113.139 -159.67697,120.38095 -37.91674,4.68645 -71.40866,-94.32336 -4.79206,-101.41715 z"
     id="path2819" />
</svg>
