<?xml version="1.0" encoding="UTF-8" standalone="no"?>
<!-- Created with Inkscape (http://www.inkscape.org/) -->

<svg
   xmlns:dc="http://purl.org/dc/elements/1.1/"
   xmlns:cc="http://creativecommons.org/ns#"
   xmlns:rdf="http://www.w3.org/1999/02/22-rdf-syntax-ns#"
   xmlns:svg="http://www.w3.org/2000/svg"
   xmlns="http://www.w3.org/2000/svg"
   xmlns:sodipodi="http://sodipodi.sourceforge.net/DTD/sodipodi-0.dtd"
   xmlns:inkscape="http://www.inkscape.org/namespaces/inkscape"
   version="1.0"
   width="1000"
   height="1000"
   id="svg5496"
   sodipodi:version="0.32"
   inkscape:version="0.47pre4 r22446"
   sodipodi:docname="kaf+raa.isol.svg"
   inkscape:output_extension="org.inkscape.output.svg.inkscape">
  <metadata
     id="metadata5594">
    <rdf:RDF>
      <cc:Work
         rdf:about="">
        <dc:format>image/svg+xml</dc:format>
        <dc:type
           rdf:resource="http://purl.org/dc/dcmitype/StillImage" />
      </cc:Work>
    </rdf:RDF>
  </metadata>
  <sodipodi:namedview
     inkscape:pageshadow="2"
     inkscape:pageopacity="0.0"
     guidetolerance="10.0"
     gridtolerance="10.0"
     objecttolerance="10.0"
     borderopacity="1.0"
     bordercolor="#666666"
     pagecolor="#ffffff"
     id="base"
     showgrid="false"
     showguides="true"
     inkscape:guide-bbox="true"
     inkscape:zoom="0.32102648"
     inkscape:cx="323.85466"
     inkscape:cy="461.91779"
     inkscape:window-x="-1"
     inkscape:window-y="25"
     inkscape:current-layer="svg5496"
     inkscape:window-width="641"
     inkscape:window-height="618"
     inkscape:window-maximized="0">
    <sodipodi:guide
       orientation="horizontal"
       position="200"
       id="guide5596" />
  </sodipodi:namedview>
  <defs
     id="defs5498">
    <inkscape:perspective
       sodipodi:type="inkscape:persp3d"
       inkscape:vp_x="0 : 500 : 1"
       inkscape:vp_y="0 : 1000 : 0"
       inkscape:vp_z="1000 : 500 : 1"
       inkscape:persp3d-origin="500 : 333.33333 : 1"
       id="perspective8" />
    <inkscape:perspective
       id="perspective2457"
       inkscape:persp3d-origin="372.04724 : 350.78739 : 1"
       inkscape:vp_z="744.09448 : 526.18109 : 1"
       inkscape:vp_y="0 : 1000 : 0"
       inkscape:vp_x="0 : 526.18109 : 1"
       sodipodi:type="inkscape:persp3d" />
    <inkscape:perspective
       id="perspective3684"
       inkscape:persp3d-origin="0.5 : 0.33333333 : 1"
       inkscape:vp_z="1 : 0.5 : 1"
       inkscape:vp_y="0 : 1000 : 0"
       inkscape:vp_x="0 : 0.5 : 1"
       sodipodi:type="inkscape:persp3d" />
  </defs>
  <g
     id="layer1"
     transform="matrix(0.5,0,0,0.5,206.91257,262.82013)"
     style="stroke:#000000;stroke-opacity:1;stroke-width:2;stroke-miterlimit:4;stroke-dasharray:none" />
  <path
     style="fill:#ff0000;fill-opacity:0.60784314;fill-rule:evenodd;stroke:#000000;stroke-width:1;stroke-linecap:butt;stroke-linejoin:miter;stroke-miterlimit:4;stroke-opacity:1;stroke-dasharray:none"
     d="m 757.64823,-15.89013 c 1.024,-5.010199 -0.999,-12.223599 -8.767,-10.264699 -206.082,51.967199 -448.492,124.271199 -530.56,170.561699 -77.863,43.9194 -101.706,117.8122 -113.81,173.1271 -1.042,4.7665 -0.482,17.5112 2.697,21.7873 18.719,25.1801 37.197,43.7388 55.751,64.4353 6.987,7.7929 16.061,5.2286 20.007,2.1536 l 9.179,-7.1528 c 5.847,-4.5566 13.373,-1.9874 16.835,1.4826 80.58,80.772 166.649,189.3114 144.246,242.5292 -49.991,25.8891 -116.915,35.4168 -136.475,5.356 -2.477,-3.8067 -4.436,-4.8589 -7.178,1.0038 l -14.98,69.7153 c -0.952,4.4262 -3.261,13.1242 0.201,15.5718 21.501,15.1984 53.748,55.5139 42.277,99.8981 -23.76,56.291 -127.412,136.7952 -188.577004,151.22819 -37.266,8.7935 -90.596003,3.5337 -140.038003,-0.9539 -15.928003,-1.4457 -18.697003,16.43434 -7.89,20.01774 58.382,19.3596 147.464003,63.0947 199.763007,50.4613 108.153,-26.2328 164.959,-167.49873 177.991,-280.87943 78.343,-11.8868 101.767,-78.9458 107.03,-114.7807 25.449,-173.2647 -104.648,-319.9249 -199.934,-416.1588 206.10822,-98.41551 373.8125,-140.1567 545.654,-182.747 5.7107,-1.415377 11.575,-2.9986 13.122,-10.5641 l 13.456,-65.8276 z"
     id="path2492-9"
     sodipodi:nodetypes="csssssssscscsscsssscscsss" />
</svg>
