<?xml version="1.0" encoding="UTF-8" standalone="no"?>
<!-- Created with Inkscape (http://www.inkscape.org/) -->

<svg
   xmlns:dc="http://purl.org/dc/elements/1.1/"
   xmlns:cc="http://creativecommons.org/ns#"
   xmlns:rdf="http://www.w3.org/1999/02/22-rdf-syntax-ns#"
   xmlns:svg="http://www.w3.org/2000/svg"
   xmlns="http://www.w3.org/2000/svg"
   xmlns:sodipodi="http://sodipodi.sourceforge.net/DTD/sodipodi-0.dtd"
   xmlns:inkscape="http://www.inkscape.org/namespaces/inkscape"
   version="1.0"
   width="1000"
   height="1000"
   id="svg5496"
   sodipodi:version="0.32"
   inkscape:version="0.47pre4 r22446"
   sodipodi:docname="kaf+lam.medi.svg"
   inkscape:output_extension="org.inkscape.output.svg.inkscape">
  <metadata
     id="metadata5594">
    <rdf:RDF>
      <cc:Work
         rdf:about="">
        <dc:format>image/svg+xml</dc:format>
        <dc:type
           rdf:resource="http://purl.org/dc/dcmitype/StillImage" />
      </cc:Work>
    </rdf:RDF>
  </metadata>
  <sodipodi:namedview
     inkscape:pageshadow="2"
     inkscape:pageopacity="0.0"
     guidetolerance="10.0"
     gridtolerance="10.0"
     objecttolerance="10.0"
     borderopacity="1.0"
     bordercolor="#666666"
     pagecolor="#ffffff"
     id="base"
     showgrid="false"
     showguides="true"
     inkscape:guide-bbox="true"
     inkscape:zoom="0.79873669"
     inkscape:cx="194.84594"
     inkscape:cy="672.84634"
     inkscape:window-x="0"
     inkscape:window-y="0"
     inkscape:current-layer="svg5496"
     inkscape:window-width="1278"
     inkscape:window-height="767"
     inkscape:window-maximized="1">
    <sodipodi:guide
       orientation="horizontal"
       position="200"
       id="guide5596" />
  </sodipodi:namedview>
  <defs
     id="defs5498">
    <inkscape:perspective
       sodipodi:type="inkscape:persp3d"
       inkscape:vp_x="0 : 500 : 1"
       inkscape:vp_y="0 : 1000 : 0"
       inkscape:vp_z="1000 : 500 : 1"
       inkscape:persp3d-origin="500 : 333.33333 : 1"
       id="perspective8" />
    <inkscape:perspective
       id="perspective2477"
       inkscape:persp3d-origin="372.04724 : 350.78739 : 1"
       inkscape:vp_z="744.09448 : 526.18109 : 1"
       inkscape:vp_y="0 : 1000 : 0"
       inkscape:vp_x="0 : 526.18109 : 1"
       sodipodi:type="inkscape:persp3d" />
    <inkscape:perspective
       id="perspective5844"
       inkscape:persp3d-origin="0.5 : 0.33333333 : 1"
       inkscape:vp_z="1 : 0.5 : 1"
       inkscape:vp_y="0 : 1000 : 0"
       inkscape:vp_x="0 : 0.5 : 1"
       sodipodi:type="inkscape:persp3d" />
    <inkscape:perspective
       id="perspective2832"
       inkscape:persp3d-origin="0.5 : 0.33333333 : 1"
       inkscape:vp_z="1 : 0.5 : 1"
       inkscape:vp_y="0 : 1000 : 0"
       inkscape:vp_x="0 : 0.5 : 1"
       sodipodi:type="inkscape:persp3d" />
  </defs>
  <path
     sodipodi:nodetypes="ccsssssscssccss"
     id="path2822"
     d="m 193.52404,706.32362 c 81.95109,29.34056 181.841,-41.508 188.881,-56.073 -4.101,-100.406 -175.47176,-168.31678 -268.55,-197.733 -32.31478,-10.21268 -22.681195,-49.95139 -9.118,-87.689 52.38171,-145.74446 408.03986,-316.632689 559.194,-375.81199 13.63363,-5.337787 25.13561,-0.222326 21.464,15.483 0,0 -9.8859,42.296492 -14.832,63.444 -1.9409,8.298492 -5.03037,14.987176 -15.484,18.79899 -142.4336,51.937 -448.269,216.008 -510.198,280.66 303.18,112.886 438.19697,310.99159 538.41,344.955 29.44802,9.98029 20.56565,91.80304 0.177,90.84998 -45.739,-2.13804 -195.756,-160.45398 -280.222,-224.55798 3.479,46.828 5.355,203.75298 -141.75,229.57398 -27.63378,4.85083 -50.35595,4.80702 -69.27932,2.0806 -43.20944,-6.22547 -19.59215,-111.46312 1.30732,-103.98058 z"
     style="fill:#ff0000;fill-opacity:0.60784314;fill-rule:evenodd;stroke:#000000;stroke-width:1;stroke-linecap:butt;stroke-linejoin:miter;stroke-miterlimit:4;stroke-opacity:1;stroke-dasharray:none" />
  <g
     id="layer1"
     transform="translate(-129.10539,-54.79339)" />
  <path
     style="fill:#ff0000;fill-opacity:0.60784314;fill-rule:evenodd;stroke:#000000;stroke-width:1;stroke-linecap:butt;stroke-linejoin:miter;stroke-miterlimit:4;stroke-opacity:1;stroke-dasharray:none"
     d="m 109.93404,462.85062 c 3.02783,40.63133 8.54508,222.03962 83.59,243.473 55.6613,15.89728 37.32233,110.4494 -1.30732,103.98058 -82.11891,-13.75143 -90.30823,-91.11417 -103.20068,-138.05658 -10.745,43.876 -42.82659,109.64888 -82.095002,120.95898 -24.312376,7.00246 -56.881785,-80.10696 0,-89.41798 16.127628,-2.63994 59.829002,-14.84 63.532002,-36.544 4.36714,-63.32311 -16.596,-308.341 -28.065,-541.893 -0.209,-8.08 -3.46,-15.979 1.599,-24.78 l 28.243,-49.11399 c 3.595,-6.253 9.187,-5.627 10.065,6.395 l 22.442,306.97599 c 2.04195,27.93114 3.2934,72.47704 5.197,98.022 z"
     id="path2818"
     sodipodi:nodetypes="csscsscccccss" />
</svg>
