<?xml version="1.0" encoding="UTF-8" standalone="no"?>
<!-- Created with Inkscape (http://www.inkscape.org/) -->

<svg
   xmlns:dc="http://purl.org/dc/elements/1.1/"
   xmlns:cc="http://creativecommons.org/ns#"
   xmlns:rdf="http://www.w3.org/1999/02/22-rdf-syntax-ns#"
   xmlns:svg="http://www.w3.org/2000/svg"
   xmlns="http://www.w3.org/2000/svg"
   xmlns:sodipodi="http://sodipodi.sourceforge.net/DTD/sodipodi-0.dtd"
   xmlns:inkscape="http://www.inkscape.org/namespaces/inkscape"
   version="1.0"
   width="1000"
   height="1000"
   id="svg5496"
   sodipodi:version="0.32"
   inkscape:version="0.47pre4 r22446"
   sodipodi:docname="kaf+lam.isol.svg"
   inkscape:output_extension="org.inkscape.output.svg.inkscape">
  <metadata
     id="metadata5594">
    <rdf:RDF>
      <cc:Work
         rdf:about="">
        <dc:format>image/svg+xml</dc:format>
        <dc:type
           rdf:resource="http://purl.org/dc/dcmitype/StillImage" />
      </cc:Work>
    </rdf:RDF>
  </metadata>
  <sodipodi:namedview
     inkscape:pageshadow="2"
     inkscape:pageopacity="0.0"
     guidetolerance="10.0"
     gridtolerance="10.0"
     objecttolerance="10.0"
     borderopacity="1.0"
     bordercolor="#666666"
     pagecolor="#ffffff"
     id="base"
     showgrid="false"
     showguides="true"
     inkscape:guide-bbox="true"
     inkscape:zoom="0.236"
     inkscape:cx="368.64407"
     inkscape:cy="500"
     inkscape:window-x="0"
     inkscape:window-y="24"
     inkscape:current-layer="svg5496"
     inkscape:window-width="640"
     inkscape:window-height="480"
     inkscape:window-maximized="0">
    <sodipodi:guide
       orientation="horizontal"
       position="200"
       id="guide5596" />
  </sodipodi:namedview>
  <defs
     id="defs5498">
    <inkscape:perspective
       sodipodi:type="inkscape:persp3d"
       inkscape:vp_x="0 : 500 : 1"
       inkscape:vp_y="0 : 1000 : 0"
       inkscape:vp_z="1000 : 500 : 1"
       inkscape:persp3d-origin="500 : 333.33333 : 1"
       id="perspective8" />
    <inkscape:perspective
       id="perspective2477"
       inkscape:persp3d-origin="372.04724 : 350.78739 : 1"
       inkscape:vp_z="744.09448 : 526.18109 : 1"
       inkscape:vp_y="0 : 1000 : 0"
       inkscape:vp_x="0 : 526.18109 : 1"
       sodipodi:type="inkscape:persp3d" />
    <inkscape:perspective
       id="perspective4759"
       inkscape:persp3d-origin="0.5 : 0.33333333 : 1"
       inkscape:vp_z="1 : 0.5 : 1"
       inkscape:vp_y="0 : 1000 : 0"
       inkscape:vp_x="0 : 0.5 : 1"
       sodipodi:type="inkscape:persp3d" />
  </defs>
  <g
     id="layer1"
     transform="translate(87.22022,386.26097)" />
  <path
     style="fill:#ff0000;fill-opacity:0.60784314;fill-rule:evenodd;stroke:#000000;stroke-width:1;stroke-linecap:butt;stroke-linejoin:miter;stroke-miterlimit:4;stroke-opacity:1;stroke-dasharray:none"
     d="m 1028.8582,-74.27192 c -2.0205,0.1033 -4.2772,0.7836 -6.919,1.663 -210.08759,69.93889 -526.83369,185.9744 -610.64835,351.1331 -8.06497,-70.3246 -23.05662,-170.1788 -28.25045,-239.6512 -0.63133,-8.509 -4.93859,-22.02801 -16.21348,-6.2954 -9.45498,12.6762 -29.35245,41.8103 -27.23028,60.6966 C 366.65759,334.09998 415.25767,681.70368 412.89646,806 369.92848,871.1725 248.70203,904.0434 176.53081,894.8773 -22.445771,869.4736 46.623139,715.72878 92.820607,616.51608 c 7.333483,-15.7493 -10.7077,-27.3032 -18.32188,-8.9085 -23.805618,57.5114 -106.414208,174.0372 -59.122738,285.19102 40.574698,95.3667 148.933871,119.8822 245.488681,96.6274 77.99109,-18.7835 164.10766,-79.8885 181.21988,-176.3618 9.61957,-54.23182 -1.35343,-159.15982 -9.17572,-219.26812 24.18829,47.6071 48.85714,98.7537 128.15121,94.7043 85.99875,-4.3919 161.39647,-86.1148 155.68057,-185.5777 C 694.82091,348.62378 522.50376,301.14228 448.44609,280.09118 639.87215,134.97348 838.33881,80.41428 998.8958,18.45517 c 7.8339,-3.0231 17.2389,-5.9047 21.9744,-24.0828 l 16.2432,-54.9252 c 2.309,-8.86359 -1.0392,-14.08799 -8.2552,-13.71909 z m -608.67609,434.9257 c 92.86892,27.1948 206.82101,58.0913 269.27447,157.5617 1.27432,2.0296 1.0948,5.2671 -1.15803,7.2457 -73.28442,64.3614 -135.04826,90.9046 -186.48478,58.6169 -60.46457,-37.9547 -66.01996,-144.0426 -81.63166,-223.4243 z"
     id="path2483-6"
     sodipodi:nodetypes="cscccscsssscscsccsccccsssc" />
</svg>
