<?xml version="1.0" encoding="UTF-8" standalone="no"?>
<!-- Created with Inkscape (http://www.inkscape.org/) -->

<svg
   xmlns:dc="http://purl.org/dc/elements/1.1/"
   xmlns:cc="http://creativecommons.org/ns#"
   xmlns:rdf="http://www.w3.org/1999/02/22-rdf-syntax-ns#"
   xmlns:svg="http://www.w3.org/2000/svg"
   xmlns="http://www.w3.org/2000/svg"
   xmlns:sodipodi="http://sodipodi.sourceforge.net/DTD/sodipodi-0.dtd"
   xmlns:inkscape="http://www.inkscape.org/namespaces/inkscape"
   version="1.0"
   width="1000"
   height="1000"
   id="svg5496"
   sodipodi:version="0.32"
   inkscape:version="0.47pre4 r22446"
   sodipodi:docname="kaf+meem.isol.alt.svg"
   inkscape:output_extension="org.inkscape.output.svg.inkscape">
  <metadata
     id="metadata5594">
    <rdf:RDF>
      <cc:Work
         rdf:about="">
        <dc:format>image/svg+xml</dc:format>
        <dc:type
           rdf:resource="http://purl.org/dc/dcmitype/StillImage" />
        <dc:title />
      </cc:Work>
    </rdf:RDF>
  </metadata>
  <sodipodi:namedview
     inkscape:window-height="767"
     inkscape:window-width="1278"
     inkscape:pageshadow="2"
     inkscape:pageopacity="0.0"
     borderopacity="1.0"
     bordercolor="#666666"
     pagecolor="#ffffff"
     id="base"
     showgrid="false"
     showguides="true"
     inkscape:guide-bbox="true"
     inkscape:zoom="0.34401042"
     inkscape:cx="457.88769"
     inkscape:cy="396.24197"
     inkscape:window-x="0"
     inkscape:window-y="0"
     inkscape:current-layer="svg5496"
     inkscape:window-maximized="1">
    <sodipodi:guide
       orientation="horizontal"
       position="200"
       id="guide5596" />
  </sodipodi:namedview>
  <defs
     id="defs5498">
    <inkscape:perspective
       sodipodi:type="inkscape:persp3d"
       inkscape:vp_x="0 : 500 : 1"
       inkscape:vp_y="0 : 1000 : 0"
       inkscape:vp_z="1000 : 500 : 1"
       inkscape:persp3d-origin="500 : 333.33333 : 1"
       id="perspective4249" />
    <inkscape:perspective
       id="perspective4290"
       inkscape:persp3d-origin="0.5 : 0.33333333 : 1"
       inkscape:vp_z="1 : 0.5 : 1"
       inkscape:vp_y="0 : 1000 : 0"
       inkscape:vp_x="0 : 0.5 : 1"
       sodipodi:type="inkscape:persp3d" />
    <inkscape:perspective
       id="perspective4963"
       inkscape:persp3d-origin="0.5 : 0.33333333 : 1"
       inkscape:vp_z="1 : 0.5 : 1"
       inkscape:vp_y="0 : 1000 : 0"
       inkscape:vp_x="0 : 0.5 : 1"
       sodipodi:type="inkscape:persp3d" />
  </defs>
  <g
     id="layer1"
     transform="translate(0,-100)" />
  <path
     sodipodi:nodetypes="csssscscscccss"
     d="m 362.16604,632.7618 c 26.26219,24.29192 67.04553,42.77651 107.83161,48.2573 5.46803,0.73479 14.2328,-4.8738 8.0169,-14.6979 -32.3515,-51.1317 -92.47951,-54.3353 -108.49971,-50.9296 -10.8596,2.3084 -14.50824,10.74788 -7.3488,17.3702 z m 153.19241,-5.0386 c 10.09603,53.5948 -17.77806,117.22243 -43.62388,126.70758 -26.81539,9.84097 -99.78391,-16.63342 -123.96462,-33.97836 -9.339,20.3871 -25.89271,49.94555 -46.77811,61.72218 -94.34626,53.19895 -202.7213,82.2971 -278.2032,98.3416 -22.3292,6.5942 -26.7423,-6.4361 -6.0828,-18.8007 95.50432,-57.1591 293.85543,-147.27862 301.08153,-169.14942 -18.65202,-32.91446 16.3373,-135.755 68.54296,-137.95339 20.77801,-0.87496 116.89394,8.69624 129.02812,73.11051 z"
     style="color:#000000;fill:#ff0000;fill-opacity:0.60784314;stroke:#000000;stroke-width:1;stroke-linecap:butt;stroke-linejoin:miter;stroke-miterlimit:4;stroke-opacity:1;stroke-dasharray:none;stroke-dashoffset:0;marker:none;visibility:visible;display:inline;overflow:visible;enable-background:accumulate"
     id="path2816" />
  <path
     id="path2820"
     style="color:#000000;fill:#ff0000;fill-opacity:0.60784314;stroke:#000000;stroke-width:1;stroke-linecap:butt;stroke-linejoin:miter;stroke-miterlimit:4;stroke-opacity:1;stroke-dasharray:none;stroke-dashoffset:0;marker:none;visibility:visible;display:inline;overflow:visible;enable-background:accumulate"
     d="M 851.113,22.32851 C 703.8386,33.57864 554.99655,47.48922 400.48935,146.1563 c 58.9181,65.8574 145.9195,178.27828 171.9988,280.702 19.0945,74.9919 4.38205,160.89669 -57.1297,200.8649 -51.60004,33.52793 -192.70441,-70.32097 -129.02812,-73.11051 64.63151,-2.83139 123.81398,14.91804 163.41892,-24.63069 -1.7025,-37.902 -78.4256,-198.28542 -140.2882,-250.68072 -8.4337,-7.14295 -24.78641,5.3545 -35.37101,9.2148 -7.164,2.46656 -16.2685,0.40232 -24.6451,-13.91525 l -26.4095,-45.13931 c -4.435,-7.58048 -7.6729,-16.32296 -2.8708,-31.49071 9.0842,-28.69216 20.1967,-60.75546 36.6501,-82.9378 C 526.44045,-15.170454 699.9406,-48.517814 902.2696,-62.286654 c 8.2164,-0.55908 16.0443,8.69083 5.6787,22.71496 L 867.9195,14.58496 c -6.0173,8.74868 -6.981,6.91121 -16.8065,7.74355 z"
     sodipodi:nodetypes="cccsscccccsccccc" />
</svg>
