<?xml version="1.0" encoding="UTF-8" standalone="no"?>
<!-- Created with Inkscape (http://www.inkscape.org/) -->

<svg
   xmlns:dc="http://purl.org/dc/elements/1.1/"
   xmlns:cc="http://creativecommons.org/ns#"
   xmlns:rdf="http://www.w3.org/1999/02/22-rdf-syntax-ns#"
   xmlns:svg="http://www.w3.org/2000/svg"
   xmlns="http://www.w3.org/2000/svg"
   xmlns:sodipodi="http://sodipodi.sourceforge.net/DTD/sodipodi-0.dtd"
   xmlns:inkscape="http://www.inkscape.org/namespaces/inkscape"
   version="1.0"
   width="1000"
   height="1000"
   id="svg5496"
   sodipodi:version="0.32"
   inkscape:version="0.47pre4 r22446"
   sodipodi:docname="kaf+lam+meem.medi.svg"
   inkscape:output_extension="org.inkscape.output.svg.inkscape">
  <metadata
     id="metadata5594">
    <rdf:RDF>
      <cc:Work
         rdf:about="">
        <dc:format>image/svg+xml</dc:format>
        <dc:type
           rdf:resource="http://purl.org/dc/dcmitype/StillImage" />
      </cc:Work>
    </rdf:RDF>
  </metadata>
  <sodipodi:namedview
     inkscape:pageshadow="2"
     inkscape:pageopacity="0.0"
     guidetolerance="10.0"
     gridtolerance="10.0"
     objecttolerance="10.0"
     borderopacity="1.0"
     bordercolor="#666666"
     pagecolor="#ffffff"
     id="base"
     showgrid="false"
     showguides="true"
     inkscape:guide-bbox="true"
     inkscape:zoom="0.63"
     inkscape:cx="780.95238"
     inkscape:cy="428.17851"
     inkscape:window-x="0"
     inkscape:window-y="24"
     inkscape:current-layer="svg5496"
     inkscape:window-width="1280"
     inkscape:window-height="725"
     inkscape:window-maximized="1">
    <sodipodi:guide
       orientation="horizontal"
       position="200"
       id="guide5596" />
  </sodipodi:namedview>
  <defs
     id="defs5498">
    <inkscape:perspective
       sodipodi:type="inkscape:persp3d"
       inkscape:vp_x="0 : 500 : 1"
       inkscape:vp_y="0 : 1000 : 0"
       inkscape:vp_z="1000 : 500 : 1"
       inkscape:persp3d-origin="500 : 333.33333 : 1"
       id="perspective8" />
    <inkscape:perspective
       id="perspective2477"
       inkscape:persp3d-origin="372.04724 : 350.78739 : 1"
       inkscape:vp_z="744.09448 : 526.18109 : 1"
       inkscape:vp_y="0 : 1000 : 0"
       inkscape:vp_x="0 : 526.18109 : 1"
       sodipodi:type="inkscape:persp3d" />
    <inkscape:perspective
       id="perspective6464"
       inkscape:persp3d-origin="0.5 : 0.33333333 : 1"
       inkscape:vp_z="1 : 0.5 : 1"
       inkscape:vp_y="0 : 1000 : 0"
       inkscape:vp_x="0 : 0.5 : 1"
       sodipodi:type="inkscape:persp3d" />
    <inkscape:perspective
       id="perspective6486"
       inkscape:persp3d-origin="0.5 : 0.33333333 : 1"
       inkscape:vp_z="1 : 0.5 : 1"
       inkscape:vp_y="0 : 1000 : 0"
       inkscape:vp_x="0 : 0.5 : 1"
       sodipodi:type="inkscape:persp3d" />
    <inkscape:perspective
       id="perspective6518"
       inkscape:persp3d-origin="0.5 : 0.33333333 : 1"
       inkscape:vp_z="1 : 0.5 : 1"
       inkscape:vp_y="0 : 1000 : 0"
       inkscape:vp_x="0 : 0.5 : 1"
       sodipodi:type="inkscape:persp3d" />
  </defs>
  <g
     id="layer1"
     transform="translate(46.725118,-69.72844)" />
  <path
     style="fill:#ff0000;fill-opacity:0.60784314;fill-rule:evenodd;stroke:#000000;stroke-width:1;stroke-linecap:butt;stroke-linejoin:miter;stroke-miterlimit:4;stroke-opacity:1;stroke-dasharray:none"
     d="m 408.6577,381.1836 c -9.7596,-90.3091 -17.2757,-174.3541 -24.2758,-264.7131 -0.773,-9.9773 -11.6861,-25.48276 -19.8263,-7.59477 l -19.9344,43.75886 c -5.8793,12.9196 -3.8991,28.50556 -4.0986,41.55141 -0.7612,49.7612 34.4315,343.9131 27.9789,364.3373 -16.8781,53.4237 -94.5334,62.6382 -113.33,63.1528 -28.0742,0.771 -53.5755,-15.7574 -72.4431,-23.6442 -12.4492,-5.2039 -25.5332,1.8698 -31.0852,15.6088 C 113.1391,708.9224 23.2354,707.1872 -0.049,708.7873 L 0,800 c 40.2864,-7.4473 66.2057,-21.3393 125.0243,-80.5445 9.2964,-8.5328 20.2005,-15.9363 27.868,-0.5619 22.3029,44.7198 72.1532,100.76702 132.5317,99.86832 4.7327,-0.071 8.3088,-2.02472 9.9422,-6.06262 11.6701,-28.8499 4.943,-85.1597 -10.2004,-118.0106 61.7196,-20.0414 97.1503,-89.4059 104.7868,-108.6779 11.2554,67.2452 22.648,167.2981 67.6584,222.7436 23.5175,28.96962 67.0984,35.37992 132.2115,14.03362 C 705.2254,785.0282 705.4987,687.1981 690.4261,590.1116 c 90.345,50.5372 218.5525,202.588 306.1872,223.7297 l 0.2931,-89.703 C 937.7994,701.5737 916.0634,679.8042 876.601,651.0052 752.6436,560.5429 626.3331,428.0382 451.8053,400.9252 571.6493,290.5068 867.76,145.1003 1016.5693,94.12541 c 10.0886,-5.11701 12.3927,-16.09623 12.1753,-23.1905 l 0.078,-45.45416 c 0.018,-10.71274 -7.362,-15.5892 -16.6044,-11.38525 -219.8225,99.98756 -530.6892,228.7859 -595.0688,367.4375 -4.5287,8.8971 -7.7705,4.2078 -8.4917,-0.3494 z m 16.8215,108.3067 c 122.1198,10.6408 260.7301,115.582 247.3516,180.1227 -24.614,30.8017 -116.2225,81.8865 -181.4495,47.3302 -42.7829,-22.6657 -55.1131,-125.6737 -65.9021,-227.4529 z"
     id="path2483"
     sodipodi:nodetypes="csccsscsscccscsccsccccccccsscccccc" />
</svg>
