<?xml version="1.0" encoding="UTF-8" standalone="no"?>
<!-- Created with Inkscape (http://www.inkscape.org/) -->

<svg
   xmlns:dc="http://purl.org/dc/elements/1.1/"
   xmlns:cc="http://creativecommons.org/ns#"
   xmlns:rdf="http://www.w3.org/1999/02/22-rdf-syntax-ns#"
   xmlns:svg="http://www.w3.org/2000/svg"
   xmlns="http://www.w3.org/2000/svg"
   xmlns:sodipodi="http://sodipodi.sourceforge.net/DTD/sodipodi-0.dtd"
   xmlns:inkscape="http://www.inkscape.org/namespaces/inkscape"
   version="1.0"
   width="1000"
   height="1000"
   id="svg5496"
   sodipodi:version="0.32"
   inkscape:version="0.47pre0 r21549"
   sodipodi:docname="kaf+heh.fina.svg"
   inkscape:output_extension="org.inkscape.output.svg.inkscape">
  <metadata
     id="metadata5594">
    <rdf:RDF>
      <cc:Work
         rdf:about="">
        <dc:format>image/svg+xml</dc:format>
        <dc:type
           rdf:resource="http://purl.org/dc/dcmitype/StillImage" />
      </cc:Work>
    </rdf:RDF>
  </metadata>
  <sodipodi:namedview
     inkscape:pageshadow="2"
     inkscape:pageopacity="0.0"
     guidetolerance="10.0"
     gridtolerance="10.0"
     objecttolerance="10.0"
     borderopacity="1.0"
     bordercolor="#666666"
     pagecolor="#ffffff"
     id="base"
     showgrid="false"
     showguides="true"
     inkscape:guide-bbox="true"
     inkscape:zoom="0.454"
     inkscape:cx="34.1354"
     inkscape:cy="429.33304"
     inkscape:window-x="0"
     inkscape:window-y="25"
     inkscape:current-layer="svg5496">
    <sodipodi:guide
       orientation="horizontal"
       position="200"
       id="guide5596" />
  </sodipodi:namedview>
  <defs
     id="defs5498">
    <inkscape:perspective
       sodipodi:type="inkscape:persp3d"
       inkscape:vp_x="0 : 500 : 1"
       inkscape:vp_y="0 : 1000 : 0"
       inkscape:vp_z="1000 : 500 : 1"
       inkscape:persp3d-origin="500 : 333.33333 : 1"
       id="perspective8" />
    <inkscape:perspective
       id="perspective2477"
       inkscape:persp3d-origin="372.04724 : 350.78739 : 1"
       inkscape:vp_z="744.09448 : 526.18109 : 1"
       inkscape:vp_y="0 : 1000 : 0"
       inkscape:vp_x="0 : 526.18109 : 1"
       sodipodi:type="inkscape:persp3d" />
    <inkscape:perspective
       sodipodi:type="inkscape:persp3d"
       inkscape:vp_x="0 : 500 : 1"
       inkscape:vp_y="0 : 1000 : 0"
       inkscape:vp_z="1000 : 500 : 1"
       inkscape:persp3d-origin="500 : 333.33333 : 1"
       id="perspective2389" />
    <inkscape:perspective
       id="perspective2524"
       inkscape:persp3d-origin="372.04724 : 350.78739 : 1"
       inkscape:vp_z="744.09448 : 526.18109 : 1"
       inkscape:vp_y="0 : 1000 : 0"
       inkscape:vp_x="0 : 526.18109 : 1"
       sodipodi:type="inkscape:persp3d" />
    <inkscape:perspective
       sodipodi:type="inkscape:persp3d"
       inkscape:vp_x="0 : 526.18109 : 1"
       inkscape:vp_y="0 : 1000 : 0"
       inkscape:vp_z="744.09448 : 526.18109 : 1"
       inkscape:persp3d-origin="372.04724 : 350.78739 : 1"
       id="perspective2457" />
    <inkscape:perspective
       id="perspective2594"
       inkscape:persp3d-origin="500 : 333.33333 : 1"
       inkscape:vp_z="1000 : 500 : 1"
       inkscape:vp_y="0 : 1000 : 0"
       inkscape:vp_x="0 : 500 : 1"
       sodipodi:type="inkscape:persp3d" />
  </defs>
  <g
     id="layer1" />
  <g
     id="g2601"
     transform="matrix(0.5,0,0,0.5,198.16843,-109.86789)"
     style="stroke:#000000;stroke-width:2;stroke-miterlimit:4;stroke-dasharray:none;stroke-opacity:1" />
  <path
     style="fill:#000000;stroke:#000000;stroke-width:1px;stroke-linecap:butt;stroke-linejoin:miter;stroke-miterlimit:4;stroke-opacity:1;stroke-dasharray:none;fill-opacity:1"
     d="M 852.375 -70.90625 C 851.16254 -70.86135 849.89123 -70.64793 848.5625 -70.25 C 617.33205 -1.00067 291.40425 108.68816 194.125 207.0625 L 166.59375 287.46875 C 159.63873 307.77742 167.83294 325.47706 183.09375 337.875 C 287.477 422.67638 469.64224 568.96236 482.65625 688.875 C 439.06032 745.53069 362.04945 771.06924 296.46875 745.3125 C 265.7196 723.92761 250.44623 687.01575 243.46875 665.96875 C 214.74536 579.32671 194.09375 446.15625 194.09375 446.15625 C 190.30749 437.28842 190.57455 418.70099 177.1875 432.875 L 157.21875 479.125 C 154.59619 488.78942 155.88746 501.82136 156.5625 507.625 L 162.59375 547.46875 C 118.86296 568.26296 80.167 594.20745 45.78125 628.5 C 45.78125 628.49998 34.48 640.42 28.25 657.375 C 24.831423 666.67871 7.78737 709.7677 2.3125 725.8125 C -4.270732 745.10547 10.83807 762.489 18.71875 769.3125 C 30.843398 779.81057 102.33168 784.0429 147.1875 775.375 C 157.26488 772.66531 164.38739 767.1944 172.78125 751.25 C 177.44832 742.57121 186.15445 726.78475 195.4375 684.21875 C 200.74976 711.14293 220.98645 816.17436 277.78125 848.03125 C 309.91691 866.05652 478.9524 882.00535 506.21875 738.21875 C 512.3069 686.17187 500.95925 634.25835 492.5625 583.15625 C 491.4203 574.24824 498.53377 575.6122 504.6875 582.0625 C 595.96267 677.73658 739.88145 808.53526 780.03125 799.03125 L 777.8125 693.28125 C 641.47778 654.83552 450.68358 405.47663 221.84375 267.65625 C 366.91111 158.62184 655.87879 74.15459 844.53125 28.6875 C 848.02853 27.844622 853.05796 24.440897 853.9375 18.59375 L 864.6875 -53 C 866.23462 -63.28541 860.86219 -71.22054 852.375 -70.90625 z M 175.4375 598.625 C 177.21376 618.5895 202.28474 669.56368 171.9375 681.1875 C 148.51596 690.15858 87.125934 700.29813 59 678.0625 C 82.697474 632.21994 147.70728 605.08093 175.4375 598.625 z "
     id="path2463" />
</svg>
