<?xml version="1.0" encoding="UTF-8" standalone="no"?>
<!-- Created with Inkscape (http://www.inkscape.org/) -->

<svg
   xmlns:dc="http://purl.org/dc/elements/1.1/"
   xmlns:cc="http://creativecommons.org/ns#"
   xmlns:rdf="http://www.w3.org/1999/02/22-rdf-syntax-ns#"
   xmlns:svg="http://www.w3.org/2000/svg"
   xmlns="http://www.w3.org/2000/svg"
   xmlns:sodipodi="http://sodipodi.sourceforge.net/DTD/sodipodi-0.dtd"
   xmlns:inkscape="http://www.inkscape.org/namespaces/inkscape"
   version="1.0"
   width="1000"
   height="1000"
   id="svg5496"
   sodipodi:version="0.32"
   inkscape:version="0.47pre4 r22446"
   sodipodi:docname="kaf+dal.isol.svg"
   inkscape:output_extension="org.inkscape.output.svg.inkscape">
  <metadata
     id="metadata5594">
    <rdf:RDF>
      <cc:Work
         rdf:about="">
        <dc:format>image/svg+xml</dc:format>
        <dc:type
           rdf:resource="http://purl.org/dc/dcmitype/StillImage" />
        <dc:title />
      </cc:Work>
    </rdf:RDF>
  </metadata>
  <sodipodi:namedview
     inkscape:window-height="767"
     inkscape:window-width="1278"
     inkscape:pageshadow="2"
     inkscape:pageopacity="0.0"
     borderopacity="1.0"
     bordercolor="#666666"
     pagecolor="#ffffff"
     id="base"
     showgrid="false"
     showguides="true"
     inkscape:guide-bbox="true"
     inkscape:zoom="0.53070058"
     inkscape:cx="606.07532"
     inkscape:cy="571.6545"
     inkscape:window-x="0"
     inkscape:window-y="0"
     inkscape:current-layer="svg5496"
     inkscape:window-maximized="1">
    <sodipodi:guide
       orientation="horizontal"
       position="200"
       id="guide5596" />
  </sodipodi:namedview>
  <defs
     id="defs5498">
    <inkscape:perspective
       sodipodi:type="inkscape:persp3d"
       inkscape:vp_x="0 : 500 : 1"
       inkscape:vp_y="0 : 1000 : 0"
       inkscape:vp_z="1000 : 500 : 1"
       inkscape:persp3d-origin="500 : 333.33333 : 1"
       id="perspective4724" />
    <inkscape:perspective
       id="perspective4713"
       inkscape:persp3d-origin="0.5 : 0.33333333 : 1"
       inkscape:vp_z="1 : 0.5 : 1"
       inkscape:vp_y="0 : 1000 : 0"
       inkscape:vp_x="0 : 0.5 : 1"
       sodipodi:type="inkscape:persp3d" />
    <inkscape:perspective
       sodipodi:type="inkscape:persp3d"
       inkscape:vp_x="0 : 0.5 : 1"
       inkscape:vp_y="0 : 1000 : 0"
       inkscape:vp_z="1 : 0.5 : 1"
       inkscape:persp3d-origin="0.5 : 0.33333333 : 1"
       id="perspective5308" />
    <inkscape:perspective
       sodipodi:type="inkscape:persp3d"
       inkscape:vp_x="0 : 526.18109 : 1"
       inkscape:vp_y="0 : 1000 : 0"
       inkscape:vp_z="744.09448 : 526.18109 : 1"
       inkscape:persp3d-origin="372.04724 : 350.78739 : 1"
       id="perspective2467" />
    <inkscape:perspective
       id="perspective2437"
       inkscape:persp3d-origin="500 : 333.33333 : 1"
       inkscape:vp_z="1000 : 500 : 1"
       inkscape:vp_y="0 : 1000 : 0"
       inkscape:vp_x="0 : 500 : 1"
       sodipodi:type="inkscape:persp3d" />
  </defs>
  <path
     style="fill:#ff0000;fill-opacity:0.60784314;fill-rule:evenodd;stroke:#000000;stroke-width:1;stroke-linecap:butt;stroke-linejoin:miter;stroke-miterlimit:4;stroke-opacity:1;stroke-dasharray:none"
     d="m 963.0479,16.33436 c -1.5825,0.0381 -3.2116,0.34789 -4.7813,0.9375 -166.72869,62.6289 -407.95469,137.29217 -591.97549,249.41843 -28.9642,17.6482 -45.2863,47.85567 -61.3438,76.99997 -22.2209,51.6001 -21.1118,102.8278 -16.5244,108.0191 l 61.9915,69.2946 c 3.3245,3.7619 8.4483,4.2141 12.0938,1 l 10.3124,-9.125 c 4.8864,-4.3083 7.3743,-3.328 9.75,-0.8126 47.4195,44.4333 165.533,188.6823 177.7184,325.731 -33.79259,24.51976 -84.82273,43.39705 -128.24107,46.02675 -39.90038,2.41663 -22.97755,95.01784 2.77038,93.04196 58.39425,-4.48115 128.74466,-31.42723 150.22959,-113.56291 48.1458,-220.7962 -170.4967,-440.4107 -235.3437,-511.5313 103.2424,-71.61404 391.6345,-173.00802 597.90619,-241.71875 6.2681,-2.08797 11.3731,-5.66501 14.1562,-14.8125 3.7292,-12.25679 9.492,-38.66676 14.1563,-57.5625 3.4253,-13.87658 -4.3297,-21.54939 -12.875,-21.34375 z"
     id="path2842"
     sodipodi:nodetypes="csccccccccssccsssc" />
  <g
     id="layer1" />
  <path
     sodipodi:nodetypes="cscssccsssssssscsss"
     id="path2840"
     d="m 432.04794,883.82411 c -27.50233,2.38216 -52.99073,-3.89086 -70.95827,-18.61475 -29.2909,-24.00306 -84.83926,-230.3233 -103.51046,-318.125 -2.1276,-10.6087 -13.433,-10.0601 -16.4063,-1.9688 -5.8905,16.0299 -11.6902,30.1592 -16.25,45.5626 -2.6596,8.9841 -3.5556,14.6146 -0.875,27.4687 8.7106,54.6354 32.7571,131.0356 34.8358,168.2018 -2.9658,19.8436 -20.5843,41.3483 -40.125,51.5 -32.3503,16.8065 -110.3929,27.2759 -150.15631,21.9063 -19.1798,-2.59 -22.1874,-5.8586 -28.8437,-18.696 -2.8284,-5.4549 -19.921,-9.5056 -21.7813,10.0937 -3.0863,32.5156 -6.7388,83.7771 25.2813,94.57103 51.50941,17.3636 145.23101,-6.44163 164.93741,-23.21873 8.4409,-7.1861 18.4467,-17.727 25.6231,-28.1177 18.4581,-26.7253 29.6735,-59.9507 32.5019,-71.2886 0.7689,-3.0824 9.3902,-10.5265 10.981,-5.3899 10.344,52.2026 26.60791,134.14451 80.6833,152.86073 14.1617,4.90155 43.59986,9.68679 76.83291,6.29658 39.45003,-4.02443 33.3893,-96.17398 -2.77038,-93.04196 z"
     style="fill:#ff0000;fill-opacity:0.60784314;fill-rule:evenodd;stroke:#000000;stroke-width:1;stroke-linecap:butt;stroke-linejoin:miter;stroke-miterlimit:4;stroke-opacity:1;stroke-dasharray:none" />
</svg>
