<?xml version="1.0" encoding="UTF-8" standalone="no"?>
<!-- Created with Inkscape (http://www.inkscape.org/) -->

<svg
   xmlns:dc="http://purl.org/dc/elements/1.1/"
   xmlns:cc="http://creativecommons.org/ns#"
   xmlns:rdf="http://www.w3.org/1999/02/22-rdf-syntax-ns#"
   xmlns:svg="http://www.w3.org/2000/svg"
   xmlns="http://www.w3.org/2000/svg"
   xmlns:sodipodi="http://sodipodi.sourceforge.net/DTD/sodipodi-0.dtd"
   xmlns:inkscape="http://www.inkscape.org/namespaces/inkscape"
   version="1.0"
   width="1000"
   height="1000"
   id="svg5496"
   sodipodi:version="0.32"
   inkscape:version="0.47pre4 r22446"
   sodipodi:docname="New document 56"
   inkscape:output_extension="org.inkscape.output.svg.inkscape">
  <metadata
     id="metadata5594">
    <rdf:RDF>
      <cc:Work
         rdf:about="">
        <dc:format>image/svg+xml</dc:format>
        <dc:type
           rdf:resource="http://purl.org/dc/dcmitype/StillImage" />
        <dc:title></dc:title>
      </cc:Work>
    </rdf:RDF>
  </metadata>
  <sodipodi:namedview
     inkscape:window-height="618"
     inkscape:window-width="641"
     inkscape:pageshadow="2"
     inkscape:pageopacity="0.0"
     borderopacity="1.0"
     bordercolor="#666666"
     pagecolor="#ffffff"
     id="base"
     showgrid="false"
     showguides="true"
     inkscape:guide-bbox="true"
     inkscape:zoom="0.454"
     inkscape:cx="500"
     inkscape:cy="500"
     inkscape:window-x="0"
     inkscape:window-y="25"
     inkscape:current-layer="svg5496"
     inkscape:window-maximized="0">
    <sodipodi:guide
       orientation="horizontal"
       position="200"
       id="guide5596" />
  </sodipodi:namedview>
  <defs
     id="defs5498">
    <inkscape:perspective
       sodipodi:type="inkscape:persp3d"
       inkscape:vp_x="0 : 500 : 1"
       inkscape:vp_y="0 : 1000 : 0"
       inkscape:vp_z="1000 : 500 : 1"
       inkscape:persp3d-origin="500 : 333.33333 : 1"
       id="perspective5725" />
    <inkscape:perspective
       id="perspective5714"
       inkscape:persp3d-origin="0.5 : 0.33333333 : 1"
       inkscape:vp_z="1 : 0.5 : 1"
       inkscape:vp_y="0 : 1000 : 0"
       inkscape:vp_x="0 : 0.5 : 1"
       sodipodi:type="inkscape:persp3d" />
    <inkscape:perspective
       id="perspective5714-2"
       inkscape:persp3d-origin="0.5 : 0.33333333 : 1"
       inkscape:vp_z="1 : 0.5 : 1"
       inkscape:vp_y="0 : 1000 : 0"
       inkscape:vp_x="0 : 0.5 : 1"
       sodipodi:type="inkscape:persp3d" />
    <inkscape:perspective
       id="perspective5714-7"
       inkscape:persp3d-origin="0.5 : 0.33333333 : 1"
       inkscape:vp_z="1 : 0.5 : 1"
       inkscape:vp_y="0 : 1000 : 0"
       inkscape:vp_x="0 : 0.5 : 1"
       sodipodi:type="inkscape:persp3d" />
  </defs>
  <g
     id="layer1" />
  <path
     style="fill:#ff0000;fill-opacity:0.60784314;fill-rule:evenodd;stroke:#000000;stroke-width:1px;stroke-linecap:butt;stroke-linejoin:miter;stroke-opacity:1"
     d="M 669.5591,27.543895 C 375.2203,121.4173 151.3147,213.3405 98.336,318.9052 L 69.093,58.4054 c -0.3959,-8.4656 -9.3918,-16.410505 -15.4217,-0.9911 -8.6957,22.2362 -16.3226,32.218 -25.3596,55.4019 -2.7792,7.1298 -2.0922,17.049 -1.0937,37.7188 20.0246,169.7212 43.9944,457.9339 44.6779,497.7096 0.6986,40.6514 -40.7587,55 -71.8609,60.5881 C 0.2653,732.6705 0.4141,781.9115 0,800 c 20.5573,-3.7599 69.5544,-47.7824 98.041,-138.2902 58.8319,152.4855 144.1521,192.589 255.1544,219.0164 4.3188,1.0282 9.9393,0.2083 10.3125,-8.2813 l 14.1704,-82.4911 c 0.2222,-5.0554 -2.4319,-10.1009 -6.9063,-10.9688 -69.9084,-13.561 -98.9105,-40.3215 -120.8266,-62.9463 -4.8013,-4.9565 -3.338,-12.4025 3.1563,-17.3125 31.3887,-23.7315 82.842,-9.614 141.6562,-41.4375 25.7397,-13.9274 66.0471,-74.0612 42,-138.7813 -32.838,-88.38 -98.4308,-164.4509 -277.5801,-194.0692 -3.5789,-0.8904 -5.0014,-3.6302 -2.25,-5.9375 86.2707,-72.3446 354.5682,-164.7015 491.3148,-196.7415 8.3677,-1.9606 17.4657,-3.3852 23.7188,-22.0313 7.1262,-21.2496 13.0354,-61.184005 13.0354,-61.184005 2.0524,-9.7432 -7.6335,-13.4825 -15.4377,-11 z M 109.6327,405.9048 c 120.2687,23.6166 263.6121,82.1457 309.0625,171.1651 -37.3435,44.3756 -121.9958,13.0581 -170.0979,60.5825 -34.5571,34.1421 -42.0969,72.8705 -42.0969,72.8705 -59.6862,-51.3204 -74.4911,-124.2596 -96.8677,-304.6181 z"
     id="path2523"
     sodipodi:nodetypes="cccsscscccsccssssscssscccsccc" />
</svg>
