<?xml version="1.0" encoding="UTF-8" standalone="no"?>
<!-- Created with Inkscape (http://www.inkscape.org/) -->

<svg
   xmlns:dc="http://purl.org/dc/elements/1.1/"
   xmlns:cc="http://creativecommons.org/ns#"
   xmlns:rdf="http://www.w3.org/1999/02/22-rdf-syntax-ns#"
   xmlns:svg="http://www.w3.org/2000/svg"
   xmlns="http://www.w3.org/2000/svg"
   xmlns:sodipodi="http://sodipodi.sourceforge.net/DTD/sodipodi-0.dtd"
   xmlns:inkscape="http://www.inkscape.org/namespaces/inkscape"
   version="1.0"
   width="1000"
   height="1000"
   id="svg5496"
   sodipodi:version="0.32"
   inkscape:version="0.47pre4 r22446"
   sodipodi:docname="kaf+lam.medi.svg"
   inkscape:output_extension="org.inkscape.output.svg.inkscape">
  <metadata
     id="metadata5594">
    <rdf:RDF>
      <cc:Work
         rdf:about="">
        <dc:format>image/svg+xml</dc:format>
        <dc:type
           rdf:resource="http://purl.org/dc/dcmitype/StillImage" />
      </cc:Work>
    </rdf:RDF>
  </metadata>
  <sodipodi:namedview
     inkscape:pageshadow="2"
     inkscape:pageopacity="0.0"
     guidetolerance="10.0"
     gridtolerance="10.0"
     objecttolerance="10.0"
     borderopacity="1.0"
     bordercolor="#666666"
     pagecolor="#ffffff"
     id="base"
     showgrid="false"
     showguides="true"
     inkscape:guide-bbox="true"
     inkscape:zoom="0.236"
     inkscape:cx="500"
     inkscape:cy="330.50847"
     inkscape:window-x="0"
     inkscape:window-y="25"
     inkscape:current-layer="svg5496"
     inkscape:window-width="672"
     inkscape:window-height="618"
     inkscape:window-maximized="0">
    <sodipodi:guide
       orientation="horizontal"
       position="200"
       id="guide5596" />
  </sodipodi:namedview>
  <defs
     id="defs5498">
    <inkscape:perspective
       sodipodi:type="inkscape:persp3d"
       inkscape:vp_x="0 : 500 : 1"
       inkscape:vp_y="0 : 1000 : 0"
       inkscape:vp_z="1000 : 500 : 1"
       inkscape:persp3d-origin="500 : 333.33333 : 1"
       id="perspective8" />
    <inkscape:perspective
       id="perspective2477"
       inkscape:persp3d-origin="372.04724 : 350.78739 : 1"
       inkscape:vp_z="744.09448 : 526.18109 : 1"
       inkscape:vp_y="0 : 1000 : 0"
       inkscape:vp_x="0 : 526.18109 : 1"
       sodipodi:type="inkscape:persp3d" />
    <inkscape:perspective
       id="perspective5844"
       inkscape:persp3d-origin="0.5 : 0.33333333 : 1"
       inkscape:vp_z="1 : 0.5 : 1"
       inkscape:vp_y="0 : 1000 : 0"
       inkscape:vp_x="0 : 0.5 : 1"
       sodipodi:type="inkscape:persp3d" />
  </defs>
  <g
     id="layer1"
     transform="translate(-136.02643,-108)" />
  <path
     style="fill:#ff0000;fill-opacity:0.60784314;fill-rule:evenodd;stroke:#000000;stroke-width:1;stroke-linecap:butt;stroke-linejoin:miter;stroke-miterlimit:4;stroke-opacity:1;stroke-dasharray:none"
     d="m 666.159,-6.20398 c -3.142,0.04 -6.384,0.777 -9.149,2.014 -151.157,59.172 -456.163,205.365 -559.193997,375.812 L 75.374,64.64602 c -0.878,-12.022 -6.47,-12.648 -10.065,-6.395 l -28.243,49.114 c -5.059,8.801 -1.808,16.7 -1.599,24.78 11.469,233.552 39.944,472.31 28.065,541.893 -3.703,21.704 -47.281,34.759 -63.532,36.544 L 0,800 C 44.377,782.666 71.35,722.91702 82.095,679.04102 97.948003,736.76302 106.603,840.992 254.575,815.017 401.68,789.196 399.804,632.27102 396.325,585.44302 480.791,649.54702 630.805,807.926 676.547,810.001 l -0.177,-90.84998 c -100.306,-33.692 -235.23,-232.069 -538.41,-344.955 61.929,-64.652 335.213,-228.723 510.198,-280.66 10.667,-3.166 13.541,-10.501 15.484,-18.799 l 14.832,-63.444 c 3.047,-13.013 -4.289,-17.591 -12.315,-17.497 z m -562.334,464.775 c 0.995,0.03 2.112,0.432 3.109,0.74 93.268,28.828 264.449,97.327 268.55,197.733 -7.04,14.565 -106.19,83.96 -188.881,56.073 -85.074,-28.689 -82.406,-215.369 -85.59,-243.473 -1.053997,-9.293 0.625,-11.136 2.812,-11.073 z"
     id="path2483-4"
     sodipodi:nodetypes="ccccccccccccccccsccccccccc" />
</svg>
