<?xml version="1.0" encoding="UTF-8" standalone="no"?>
<!-- Created with Inkscape (http://www.inkscape.org/) -->

<svg
   xmlns:dc="http://purl.org/dc/elements/1.1/"
   xmlns:cc="http://creativecommons.org/ns#"
   xmlns:rdf="http://www.w3.org/1999/02/22-rdf-syntax-ns#"
   xmlns:svg="http://www.w3.org/2000/svg"
   xmlns="http://www.w3.org/2000/svg"
   xmlns:sodipodi="http://sodipodi.sourceforge.net/DTD/sodipodi-0.dtd"
   xmlns:inkscape="http://www.inkscape.org/namespaces/inkscape"
   version="1.0"
   width="1000"
   height="1000"
   id="svg5496"
   sodipodi:version="0.32"
   inkscape:version="0.47pre4 r22446"
   sodipodi:docname="kaf+lam+alef.isol.svg"
   inkscape:output_extension="org.inkscape.output.svg.inkscape">
  <metadata
     id="metadata5594">
    <rdf:RDF>
      <cc:Work
         rdf:about="">
        <dc:format>image/svg+xml</dc:format>
        <dc:type
           rdf:resource="http://purl.org/dc/dcmitype/StillImage" />
      </cc:Work>
    </rdf:RDF>
  </metadata>
  <sodipodi:namedview
     inkscape:pageshadow="2"
     inkscape:pageopacity="0.0"
     guidetolerance="10.0"
     gridtolerance="10.0"
     objecttolerance="10.0"
     borderopacity="1.0"
     bordercolor="#666666"
     pagecolor="#ffffff"
     id="base"
     showgrid="false"
     showguides="true"
     inkscape:guide-bbox="true"
     inkscape:zoom="0.41168898"
     inkscape:cx="423.64368"
     inkscape:cy="373.55676"
     inkscape:window-x="0"
     inkscape:window-y="0"
     inkscape:current-layer="svg5496"
     inkscape:window-width="1278"
     inkscape:window-height="767"
     inkscape:window-maximized="1">
    <sodipodi:guide
       orientation="horizontal"
       position="200"
       id="guide5596" />
  </sodipodi:namedview>
  <defs
     id="defs5498">
    <inkscape:perspective
       sodipodi:type="inkscape:persp3d"
       inkscape:vp_x="0 : 500 : 1"
       inkscape:vp_y="0 : 1000 : 0"
       inkscape:vp_z="1000 : 500 : 1"
       inkscape:persp3d-origin="500 : 333.33333 : 1"
       id="perspective8" />
    <inkscape:perspective
       id="perspective2477"
       inkscape:persp3d-origin="372.04724 : 350.78739 : 1"
       inkscape:vp_z="744.09448 : 526.18109 : 1"
       inkscape:vp_y="0 : 1000 : 0"
       inkscape:vp_x="0 : 526.18109 : 1"
       sodipodi:type="inkscape:persp3d" />
    <inkscape:perspective
       sodipodi:type="inkscape:persp3d"
       inkscape:vp_x="0 : 526.18109 : 1"
       inkscape:vp_y="0 : 1000 : 0"
       inkscape:vp_z="744.09448 : 526.18109 : 1"
       inkscape:persp3d-origin="372.04724 : 350.78739 : 1"
       id="perspective2711" />
    <inkscape:perspective
       id="perspective2611"
       inkscape:persp3d-origin="500 : 333.33333 : 1"
       inkscape:vp_z="1000 : 500 : 1"
       inkscape:vp_y="0 : 1000 : 0"
       inkscape:vp_x="0 : 500 : 1"
       sodipodi:type="inkscape:persp3d" />
    <inkscape:perspective
       sodipodi:type="inkscape:persp3d"
       inkscape:vp_x="0 : 526.18109 : 1"
       inkscape:vp_y="0 : 1000 : 0"
       inkscape:vp_z="744.09448 : 526.18109 : 1"
       inkscape:persp3d-origin="372.04724 : 350.78739 : 1"
       id="perspective2459" />
    <inkscape:perspective
       sodipodi:type="inkscape:persp3d"
       inkscape:vp_x="0 : 526.18109 : 1"
       inkscape:vp_y="0 : 1000 : 0"
       inkscape:vp_z="744.09448 : 526.18109 : 1"
       inkscape:persp3d-origin="372.04724 : 350.78739 : 1"
       id="perspective2457" />
    <inkscape:perspective
       id="perspective2670"
       inkscape:persp3d-origin="500 : 333.33333 : 1"
       inkscape:vp_z="1000 : 500 : 1"
       inkscape:vp_y="0 : 1000 : 0"
       inkscape:vp_x="0 : 500 : 1"
       sodipodi:type="inkscape:persp3d" />
    <inkscape:perspective
       id="perspective5574"
       inkscape:persp3d-origin="0.5 : 0.33333333 : 1"
       inkscape:vp_z="1 : 0.5 : 1"
       inkscape:vp_y="0 : 1000 : 0"
       inkscape:vp_x="0 : 0.5 : 1"
       sodipodi:type="inkscape:persp3d" />
  </defs>
  <g
     id="layer1"
     transform="translate(60,-30)" />
  <path
     sodipodi:nodetypes="csssssssc"
     id="path2821"
     d="M 387.77032,610.85495 C 378.45446,393.53109 191.96836,250.76871 38.529319,189.90995 c -9.986495,-3.96096 -31.2212958,-0.93071 -34.316,16.084 -15.483296,85.12729 -1.2959193,152.19574 135.216001,194.944 11.16008,3.49474 13.19497,-2.35714 13.913,-7.508 0.73564,-5.27714 1.47701,-10.55349 2.21,-15.831 0.5,-3.6 4.53414,-4.12239 7.51,-3.056 47.80714,17.13161 202.80009,114.60358 198.477,265.5929 -1.12479,39.28459 27.34257,0.82203 26.231,-29.2809 z"
     style="fill:#ff0000;fill-opacity:0.60784314;fill-rule:evenodd;stroke:#000000;stroke-width:0;stroke-linecap:butt;stroke-linejoin:miter;stroke-miterlimit:4;stroke-opacity:1;stroke-dasharray:none" />
  <path
     style="fill:#ff0000;fill-opacity:0.60784314;fill-rule:evenodd;stroke:#000000;stroke-width:0;stroke-linecap:butt;stroke-linejoin:miter;stroke-miterlimit:4;stroke-opacity:1;stroke-dasharray:none"
     d="m 625.49434,700.01941 c -32.94463,2.07205 -60.99628,-7.07058 -76.75402,-26.02346 -27.1041,-32.5999 -29.95694,-137.51164 -32.608,-223.907 -0.73148,-23.83831 -3.96408,-62.75611 -3.962,-91.47 0.006,-86.74941 1.48,-169.874 2.397,-268.637999 -1.05,-14.779 -14.907,-24.839 -21.283,-11.405 -9.248,19.477 -18.265,39.427999 -25.063,61.143999 -2.394,7.648 -4.377,15.311 -4.29,22.528 1.91,160.67 -42.29593,405.93535 -76.161,448.607 -93.76591,118.14964 -201.43979,162.10724 -337.744001,215.176 -9.675,3.717 -9.064,15.19303 4.29,14.78903 221.138001,-6.681 325.171001,-38.20803 412.539001,-388.97203 1.041,-4.168 6.97,-4.752 7.282,-0.261 14.377,206.271 -12.42156,364.43826 157.82,350.81 43.60572,-3.49075 41.1714,-105.37351 -6.46298,-102.37754 z"
     id="path2823"
     sodipodi:nodetypes="csssccscsccccss" />
  <path
     sodipodi:nodetypes="cccssscccccss"
     id="path2825"
     d="m 625.49434,700.01941 c 43.24726,-1.83706 95.15833,-18.2335 139.41398,-46.69746 3.879,-2.494 9.989,-9.619 11.247,-11.474 -40.84,-104.567 -196.34458,-169.27041 -260.023,-191.759 -38.49246,-13.59395 -29.41667,-48.39453 -3.962,-91.47 81.83736,-138.48863 451.57107,-253.94258 611.99998,-316.514999 9.5623,-3.729597 24.404,-1.982 20.056,11.929 l -18.821,48.628999 c -5.997,15.475 -13.614,23.192 -23.892,26.721 -152.79798,52.467 -472.38098,173.525 -543.57398,236.908 147.158,57.72 247.7,155.097 249.844,257.224 1.654,78.92 -71.26917,172.55778 -175.826,178.882 -41.56423,2.51405 -63.30176,-99.96314 -6.46298,-102.37754 z"
     style="fill:#ff0000;fill-opacity:0.60784314;fill-rule:evenodd;stroke:#000000;stroke-width:0;stroke-linecap:butt;stroke-linejoin:miter;stroke-miterlimit:4;stroke-opacity:1;stroke-dasharray:none" />
</svg>
