<?xml version="1.0" encoding="UTF-8" standalone="no"?>
<!-- Created with Inkscape (http://www.inkscape.org/) -->

<svg
   xmlns:dc="http://purl.org/dc/elements/1.1/"
   xmlns:cc="http://creativecommons.org/ns#"
   xmlns:rdf="http://www.w3.org/1999/02/22-rdf-syntax-ns#"
   xmlns:svg="http://www.w3.org/2000/svg"
   xmlns="http://www.w3.org/2000/svg"
   xmlns:sodipodi="http://sodipodi.sourceforge.net/DTD/sodipodi-0.dtd"
   xmlns:inkscape="http://www.inkscape.org/namespaces/inkscape"
   version="1.0"
   width="1000"
   height="1000"
   id="svg5496"
   sodipodi:version="0.32"
   inkscape:version="0.47pre4 r22446"
   sodipodi:docname="kaf+meem.isol.svg"
   inkscape:output_extension="org.inkscape.output.svg.inkscape">
  <metadata
     id="metadata5594">
    <rdf:RDF>
      <cc:Work
         rdf:about="">
        <dc:format>image/svg+xml</dc:format>
        <dc:type
           rdf:resource="http://purl.org/dc/dcmitype/StillImage" />
      </cc:Work>
    </rdf:RDF>
  </metadata>
  <sodipodi:namedview
     inkscape:pageshadow="2"
     inkscape:pageopacity="0.0"
     guidetolerance="10.0"
     gridtolerance="10.0"
     objecttolerance="10.0"
     borderopacity="1.0"
     bordercolor="#666666"
     pagecolor="#ffffff"
     id="base"
     showgrid="false"
     showguides="true"
     inkscape:guide-bbox="true"
     inkscape:zoom="0.36062446"
     inkscape:cx="-91.976994"
     inkscape:cy="531.67105"
     inkscape:window-x="0"
     inkscape:window-y="24"
     inkscape:current-layer="svg5496"
     inkscape:window-width="1280"
     inkscape:window-height="725"
     inkscape:window-maximized="1">
    <sodipodi:guide
       orientation="horizontal"
       position="200"
       id="guide5596" />
  </sodipodi:namedview>
  <defs
     id="defs5498">
    <inkscape:perspective
       sodipodi:type="inkscape:persp3d"
       inkscape:vp_x="0 : 500 : 1"
       inkscape:vp_y="0 : 1000 : 0"
       inkscape:vp_z="1000 : 500 : 1"
       inkscape:persp3d-origin="500 : 333.33333 : 1"
       id="perspective8" />
    <inkscape:perspective
       id="perspective2517"
       inkscape:persp3d-origin="372.04724 : 350.78739 : 1"
       inkscape:vp_z="744.09448 : 526.18109 : 1"
       inkscape:vp_y="0 : 1000 : 0"
       inkscape:vp_x="0 : 526.18109 : 1"
       sodipodi:type="inkscape:persp3d" />
    <inkscape:perspective
       id="perspective4985"
       inkscape:persp3d-origin="0.5 : 0.33333333 : 1"
       inkscape:vp_z="1 : 0.5 : 1"
       inkscape:vp_y="0 : 1000 : 0"
       inkscape:vp_x="0 : 0.5 : 1"
       sodipodi:type="inkscape:persp3d" />
    <inkscape:perspective
       id="perspective5007"
       inkscape:persp3d-origin="0.5 : 0.33333333 : 1"
       inkscape:vp_z="1 : 0.5 : 1"
       inkscape:vp_y="0 : 1000 : 0"
       inkscape:vp_x="0 : 0.5 : 1"
       sodipodi:type="inkscape:persp3d" />
  </defs>
  <g
     id="layer1"
     transform="translate(174.69697,432.58297)" />
  <path
     style="fill:#ff0000;fill-opacity:0.60784314;fill-rule:evenodd;stroke:#000000;stroke-width:1;stroke-linecap:butt;stroke-linejoin:miter;stroke-miterlimit:4;stroke-opacity:1;stroke-dasharray:none"
     d="m 671.44534,-55.431421 c 7.3493,-24.13169 -10.9698,-19.17865 -14.8639,-18.47941 C 446.13504,-36.122291 156.41387,14.180749 58.1814,103.17844 40.07268,119.58479 8.33131,171.24093 -0.71493299,209.7587 -2.753563,218.43895 -2.903913,229.13816 1.208287,235.07845 c 18.828663,27.199 37.657333,54.398 56.485993,81.597 4.17102,6.02525 7.37515,10.16371 14.36093,7.70262 10.3217,-3.63634 20.643411,-7.27269 30.96512,-10.90903 8.31794,-2.93042 10.81649,-1.94274 14.63012,2.08862 32.82661,34.7008 118.46025,111.13375 125.59666,212.31795 -37.12839,37.9422 -85.42543,46.6014 -133.05265,68.948 -7.11577,3.3387 -15.008789,10.1965 -17.073499,16.2643 -10.697881,31.4391 -18.011601,56.6146 -18.011601,56.6146 -1.58464,6.1072 1.96536,7.6715 5.61401,8.8888 l 33.77117,11.2683 c -72.22148,37.2748 -117.253583,120.5701 -99.53857,204.6052 27.38539,129.90889 52.85106,243.30959 63.27439,375.83779 1.21599,15.4608 16.137381,15.0969 19.913316,-0.2825 C 124.64113,1162.096 56.71568,931.46176 46.75435,812.39791 c -0.33044,-3.9496 1.8555,-13.1515 5.50413,-14.925 96.45596,-46.8848 193.07052,-37.056 255.1638,-22.3815 4.70207,1.1113 9.53892,-3.7193 10.96391,-8.0884 l 23.00681,-70.5409 c 4.93852,-15.1419 -1.05035,-24.0604 -4.99507,-27.8945 -21.67945,-21.0711 -65.43924,-45.7 -107.79904,-62.8764 34.19717,-41.4884 34.77989,-54.545 42.53626,-83.0639 C 307.78846,387.859 111.9211,177.46595 86.07071,156.39869 144.17973,103.15043 441.56804,54.296613 636.04744,21.803829 c 6.4524,-1.07805 13.1437,-4.16243 16.0669,-13.7609501 l 19.331,-63.4742999 z"
     id="path2523"
     sodipodi:nodetypes="csssssssscsssscssssssssscscsss" />
</svg>
