<?xml version="1.0" encoding="UTF-8" standalone="no"?>
<!-- Created with Inkscape (http://www.inkscape.org/) -->

<svg
   xmlns:dc="http://purl.org/dc/elements/1.1/"
   xmlns:cc="http://creativecommons.org/ns#"
   xmlns:rdf="http://www.w3.org/1999/02/22-rdf-syntax-ns#"
   xmlns:svg="http://www.w3.org/2000/svg"
   xmlns="http://www.w3.org/2000/svg"
   xmlns:sodipodi="http://sodipodi.sourceforge.net/DTD/sodipodi-0.dtd"
   xmlns:inkscape="http://www.inkscape.org/namespaces/inkscape"
   version="1.0"
   width="1000"
   height="1000"
   id="svg5496"
   sodipodi:version="0.32"
   inkscape:version="0.47pre4 r22446"
   sodipodi:docname="kaf+raa.fina.svg"
   inkscape:output_extension="org.inkscape.output.svg.inkscape">
  <metadata
     id="metadata5594">
    <rdf:RDF>
      <cc:Work
         rdf:about="">
        <dc:format>image/svg+xml</dc:format>
        <dc:type
           rdf:resource="http://purl.org/dc/dcmitype/StillImage" />
      </cc:Work>
    </rdf:RDF>
  </metadata>
  <sodipodi:namedview
     inkscape:pageshadow="2"
     inkscape:pageopacity="0.0"
     guidetolerance="10.0"
     gridtolerance="10.0"
     objecttolerance="10.0"
     borderopacity="1.0"
     bordercolor="#666666"
     pagecolor="#ffffff"
     id="base"
     showgrid="false"
     showguides="true"
     inkscape:guide-bbox="true"
     inkscape:zoom="0.42765677"
     inkscape:cx="857.92939"
     inkscape:cy="396.85602"
     inkscape:window-x="0"
     inkscape:window-y="0"
     inkscape:current-layer="svg5496"
     inkscape:window-width="1278"
     inkscape:window-height="767"
     inkscape:window-maximized="1">
    <sodipodi:guide
       orientation="horizontal"
       position="200"
       id="guide5596" />
  </sodipodi:namedview>
  <defs
     id="defs5498">
    <inkscape:perspective
       sodipodi:type="inkscape:persp3d"
       inkscape:vp_x="0 : 500 : 1"
       inkscape:vp_y="0 : 1000 : 0"
       inkscape:vp_z="1000 : 500 : 1"
       inkscape:persp3d-origin="500 : 333.33333 : 1"
       id="perspective8" />
    <inkscape:perspective
       id="perspective2457"
       inkscape:persp3d-origin="372.04724 : 350.78739 : 1"
       inkscape:vp_z="744.09448 : 526.18109 : 1"
       inkscape:vp_y="0 : 1000 : 0"
       inkscape:vp_x="0 : 526.18109 : 1"
       sodipodi:type="inkscape:persp3d" />
    <inkscape:perspective
       id="perspective5953"
       inkscape:persp3d-origin="0.5 : 0.33333333 : 1"
       inkscape:vp_z="1 : 0.5 : 1"
       inkscape:vp_y="0 : 1000 : 0"
       inkscape:vp_x="0 : 0.5 : 1"
       sodipodi:type="inkscape:persp3d" />
    <inkscape:perspective
       id="perspective5975"
       inkscape:persp3d-origin="0.5 : 0.33333333 : 1"
       inkscape:vp_z="1 : 0.5 : 1"
       inkscape:vp_y="0 : 1000 : 0"
       inkscape:vp_x="0 : 0.5 : 1"
       sodipodi:type="inkscape:persp3d" />
    <inkscape:perspective
       id="perspective2839"
       inkscape:persp3d-origin="0.5 : 0.33333333 : 1"
       inkscape:vp_z="1 : 0.5 : 1"
       inkscape:vp_y="0 : 1000 : 0"
       inkscape:vp_x="0 : 0.5 : 1"
       sodipodi:type="inkscape:persp3d" />
  </defs>
  <path
     sodipodi:nodetypes="csssccssscsssscsss"
     id="path2859"
     d="m 880.38171,-2.34607 c 3.133,-8.2401 -0.458,-18.9728 -11.417,-16.7188 -180.386,37.1016 -550.424,186.4741 -566.268,213.6933 0,0 -37.057,52.3225 -41.565,71.4083 -4.852,20.5401 -1.066,68.407 -1.066,68.407 117.005,101.9757 231.893,247.9601 234.229,334.8379 -35.27364,25.27164 -78.47991,23.77317 -108.3519,13.34666 C 343.9002,667.95376 373.3181,801.83414 394.55171,800 c 30.09328,-2.59943 72.756,-7.2695 89.71,-24.6294 32.781,-33.56557 41.17,-116.39727 28.169,-224.50107 30.596,25.3061 87.686,98.224 122.242,138.2008 57.934,67.01827 88.18621,104.05905 139.106,113.06137 20.67639,3.65546 29.67192,-80.53653 -0.385,-90.89367 -36.67259,-12.6368 -69.762,-49.2886 -102.924,-85.5262 -78.267,-85.525 -247.653,-284.6112 -359.888,-363.2966 45.34,-53.6128 445.383,-182.6905 535.816,-200.988 3.064,-0.6199 11.28,-4.0638 13.734,-10.5175 l 20.25,-53.2558 z"
     style="fill:#ff0000;fill-opacity:0.60784314;fill-rule:evenodd;stroke:#000000;stroke-width:1;stroke-linecap:butt;stroke-linejoin:miter;stroke-miterlimit:4;stroke-opacity:1;stroke-dasharray:none" />
  <g
     id="layer1"
     transform="matrix(0.5,0,0,0.5,195.54055,314.8458)"
     style="stroke:#000000;stroke-opacity:1" />
  <path
     style="fill:#ff0000;fill-opacity:0.60784314;fill-rule:evenodd;stroke:#000000;stroke-width:1;stroke-linecap:butt;stroke-linejoin:miter;stroke-miterlimit:4;stroke-opacity:1;stroke-dasharray:none"
     d="m 385.94281,682.62829 c -7.0237,-6.68257 -17.06736,-7.81671 -23.4451,-12.80136 -3.84013,-3.00133 -13.612,-1.1048 -14.06,0.7888 l -21.49,90.88417 c -1.649,6.9759 1.252,13.287 6.082,19.367 13.862,18.1212 25.019,37.1815 20.77,61.0758 -39.131,89.0759 -162.02867,155.30572 -201.07966,159.3282 -52.54299,5.4122 -65.674325,-5.4858 -113.692325,-9.8611 -9.61,-0.8757 -13.095,11.3768 -2.664,17.0528 18.647,10.1469 109.224995,65.0166 149.095985,62.3474 71.968,-4.8177 195.17297,-130.96046 209.092,-270.81 1.93368,-19.42842 41.83313,-69.37961 -8.6089,-117.37171 z"
     id="path2857"
     sodipodi:nodetypes="csssccssssss" />
</svg>
