<?xml version="1.0" encoding="UTF-8" standalone="no"?>
<!-- Created with Inkscape (http://www.inkscape.org/) -->

<svg
   xmlns:dc="http://purl.org/dc/elements/1.1/"
   xmlns:cc="http://creativecommons.org/ns#"
   xmlns:rdf="http://www.w3.org/1999/02/22-rdf-syntax-ns#"
   xmlns:svg="http://www.w3.org/2000/svg"
   xmlns="http://www.w3.org/2000/svg"
   xmlns:sodipodi="http://sodipodi.sourceforge.net/DTD/sodipodi-0.dtd"
   xmlns:inkscape="http://www.inkscape.org/namespaces/inkscape"
   version="1.0"
   width="1000"
   height="1000"
   id="svg5496"
   sodipodi:version="0.32"
   inkscape:version="0.47pre4 r22446"
   sodipodi:docname="kaf+lam.isol.svg"
   inkscape:output_extension="org.inkscape.output.svg.inkscape">
  <metadata
     id="metadata5594">
    <rdf:RDF>
      <cc:Work
         rdf:about="">
        <dc:format>image/svg+xml</dc:format>
        <dc:type
           rdf:resource="http://purl.org/dc/dcmitype/StillImage" />
      </cc:Work>
    </rdf:RDF>
  </metadata>
  <sodipodi:namedview
     inkscape:pageshadow="2"
     inkscape:pageopacity="0.0"
     guidetolerance="10.0"
     gridtolerance="10.0"
     objecttolerance="10.0"
     borderopacity="1.0"
     bordercolor="#666666"
     pagecolor="#ffffff"
     id="base"
     showgrid="false"
     showguides="true"
     inkscape:guide-bbox="true"
     inkscape:zoom="0.43498035"
     inkscape:cx="554.68738"
     inkscape:cy="384.73705"
     inkscape:window-x="0"
     inkscape:window-y="0"
     inkscape:current-layer="svg5496"
     inkscape:window-width="1278"
     inkscape:window-height="767"
     inkscape:window-maximized="1">
    <sodipodi:guide
       orientation="horizontal"
       position="200"
       id="guide5596" />
  </sodipodi:namedview>
  <defs
     id="defs5498">
    <inkscape:perspective
       sodipodi:type="inkscape:persp3d"
       inkscape:vp_x="0 : 500 : 1"
       inkscape:vp_y="0 : 1000 : 0"
       inkscape:vp_z="1000 : 500 : 1"
       inkscape:persp3d-origin="500 : 333.33333 : 1"
       id="perspective8" />
    <inkscape:perspective
       id="perspective2477"
       inkscape:persp3d-origin="372.04724 : 350.78739 : 1"
       inkscape:vp_z="744.09448 : 526.18109 : 1"
       inkscape:vp_y="0 : 1000 : 0"
       inkscape:vp_x="0 : 526.18109 : 1"
       sodipodi:type="inkscape:persp3d" />
    <inkscape:perspective
       id="perspective4759"
       inkscape:persp3d-origin="0.5 : 0.33333333 : 1"
       inkscape:vp_z="1 : 0.5 : 1"
       inkscape:vp_y="0 : 1000 : 0"
       inkscape:vp_x="0 : 0.5 : 1"
       sodipodi:type="inkscape:persp3d" />
  </defs>
  <path
     sodipodi:nodetypes="cscccsccssssss"
     id="path2824"
     d="m 411.29085,278.52418 c 84.11588,-165.00416 400.56076,-281.19421 610.64835,-351.1331 2.6418,-0.8794 4.8985,-1.5597 6.919,-1.663 7.216,-0.3689 10.5642,4.8555 8.2552,13.71909 l -16.2432,54.9252 c -4.7355,18.1781 -14.1405,21.0597 -21.9744,24.0828 -160.55699,61.95911 -359.02365,116.51831 -550.44971,261.63601 74.05767,21.0511 246.37482,68.5326 268.29452,222.8315 5.7159,99.4629 -69.61891,182.66838 -155.68057,185.5777 -45.765,1.54709 -45.15695,-88.35262 -5.81332,-90.86052 39.34363,-2.5079 83.57185,-28.72325 133.05183,-72.17868 2.25286,-1.97856 2.43235,-5.2161 1.15803,-7.2457 -62.45346,-99.4704 -175.12224,-129.46749 -269.27447,-157.5617 -20.62844,-6.15535 -30.76893,-39.21373 -8.89126,-82.1296 z"
     style="fill:#ff0000;fill-opacity:0.60784314;fill-rule:evenodd;stroke:#000000;stroke-width:1;stroke-linecap:butt;stroke-linejoin:miter;stroke-miterlimit:4;stroke-opacity:1;stroke-dasharray:none" />
  <g
     id="layer1"
     transform="translate(87.22022,386.26097)" />
  <path
     style="fill:#ff0000;fill-opacity:0.60784314;fill-rule:evenodd;stroke:#000000;stroke-width:1;stroke-linecap:butt;stroke-linejoin:miter;stroke-miterlimit:4;stroke-opacity:1;stroke-dasharray:none"
     d="m 561.06004,688.50038 c 44.68555,-2.79921 29.52663,-95.62148 -5.81332,-90.86052 -18.77187,2.52892 -36.72522,-3.07403 -53.43295,-13.56178 -60.46456,-37.95471 -69.31464,-139.74383 -81.63166,-223.4243 -2.78587,-18.92691 -4.53575,-45.25895 -8.89126,-82.1296 -8.30404,-70.29599 -23.05662,-170.1788 -28.25045,-239.6512 -0.63133,-8.509 -4.93859,-22.02801 -16.21348,-6.2954 -9.45498,12.6762 -29.35245,41.8103 -27.23028,60.6966 C 366.65759,334.09998 415.25767,681.70368 412.89646,806 369.92848,871.1725 248.6976,904.07816 176.53081,894.8773 -22.450197,869.50836 46.623139,701.93505 92.820607,616.51608 c 8.264613,-15.28125 -8.968342,-26.48269 -18.32188,-8.9085 -22.656141,42.5682 -106.414208,174.0372 -59.122738,285.19102 40.574698,95.3667 148.933871,119.8822 245.488681,96.6274 77.99109,-18.7835 164.10766,-79.8885 181.21988,-176.3618 9.61957,-54.23182 -1.35343,-159.15982 -9.17572,-219.26812 24.18829,47.6071 48.93828,99.66639 128.15121,94.7043 z"
     id="path2822"
     sodipodi:nodetypes="cssssccscsssscscs" />
</svg>
