<?xml version="1.0" encoding="UTF-8" standalone="no"?>
<!-- Created with Inkscape (http://www.inkscape.org/) -->

<svg
   xmlns:dc="http://purl.org/dc/elements/1.1/"
   xmlns:cc="http://creativecommons.org/ns#"
   xmlns:rdf="http://www.w3.org/1999/02/22-rdf-syntax-ns#"
   xmlns:svg="http://www.w3.org/2000/svg"
   xmlns="http://www.w3.org/2000/svg"
   xmlns:sodipodi="http://sodipodi.sourceforge.net/DTD/sodipodi-0.dtd"
   xmlns:inkscape="http://www.inkscape.org/namespaces/inkscape"
   version="1.0"
   width="1000"
   height="1000"
   id="svg5496"
   sodipodi:version="0.32"
   inkscape:version="0.47pre4 r22446"
   sodipodi:docname="kaf+kaf.fina.svg"
   inkscape:output_extension="org.inkscape.output.svg.inkscape">
  <metadata
     id="metadata5594">
    <rdf:RDF>
      <cc:Work
         rdf:about="">
        <dc:format>image/svg+xml</dc:format>
        <dc:type
           rdf:resource="http://purl.org/dc/dcmitype/StillImage" />
      </cc:Work>
    </rdf:RDF>
  </metadata>
  <sodipodi:namedview
     inkscape:pageshadow="2"
     inkscape:pageopacity="0.0"
     guidetolerance="10.0"
     gridtolerance="10.0"
     objecttolerance="10.0"
     borderopacity="1.0"
     bordercolor="#666666"
     pagecolor="#ffffff"
     id="base"
     showgrid="false"
     showguides="true"
     inkscape:guide-bbox="true"
     inkscape:zoom="0.236"
     inkscape:cx="500"
     inkscape:cy="500"
     inkscape:window-x="0"
     inkscape:window-y="24"
     inkscape:current-layer="svg5496"
     inkscape:window-width="1280"
     inkscape:window-height="725"
     inkscape:window-maximized="1">
    <sodipodi:guide
       orientation="horizontal"
       position="200"
       id="guide5596" />
  </sodipodi:namedview>
  <defs
     id="defs5498">
    <inkscape:perspective
       sodipodi:type="inkscape:persp3d"
       inkscape:vp_x="0 : 500 : 1"
       inkscape:vp_y="0 : 1000 : 0"
       inkscape:vp_z="1000 : 500 : 1"
       inkscape:persp3d-origin="500 : 333.33333 : 1"
       id="perspective8" />
    <inkscape:perspective
       id="perspective2497"
       inkscape:persp3d-origin="372.04724 : 350.78739 : 1"
       inkscape:vp_z="744.09448 : 526.18109 : 1"
       inkscape:vp_y="0 : 1000 : 0"
       inkscape:vp_x="0 : 526.18109 : 1"
       sodipodi:type="inkscape:persp3d" />
    <inkscape:perspective
       sodipodi:type="inkscape:persp3d"
       inkscape:vp_x="0 : 500 : 1"
       inkscape:vp_y="0 : 1000 : 0"
       inkscape:vp_z="1000 : 500 : 1"
       inkscape:persp3d-origin="500 : 333.33333 : 1"
       id="perspective2677" />
    <inkscape:perspective
       id="perspective2711"
       inkscape:persp3d-origin="372.04724 : 350.78739 : 1"
       inkscape:vp_z="744.09448 : 526.18109 : 1"
       inkscape:vp_y="0 : 1000 : 0"
       inkscape:vp_x="0 : 526.18109 : 1"
       sodipodi:type="inkscape:persp3d" />
    <inkscape:perspective
       sodipodi:type="inkscape:persp3d"
       inkscape:vp_x="0 : 500 : 1"
       inkscape:vp_y="0 : 1000 : 0"
       inkscape:vp_z="1000 : 500 : 1"
       inkscape:persp3d-origin="500 : 333.33333 : 1"
       id="perspective3295" />
    <inkscape:perspective
       sodipodi:type="inkscape:persp3d"
       inkscape:vp_x="0 : 526.18109 : 1"
       inkscape:vp_y="0 : 1000 : 0"
       inkscape:vp_z="744.09448 : 526.18109 : 1"
       inkscape:persp3d-origin="372.04724 : 350.78739 : 1"
       id="perspective2477" />
    <inkscape:perspective
       id="perspective2626"
       inkscape:persp3d-origin="500 : 333.33333 : 1"
       inkscape:vp_z="1000 : 500 : 1"
       inkscape:vp_y="0 : 1000 : 0"
       inkscape:vp_x="0 : 500 : 1"
       sodipodi:type="inkscape:persp3d" />
    <inkscape:perspective
       id="perspective4613"
       inkscape:persp3d-origin="0.5 : 0.33333333 : 1"
       inkscape:vp_z="1 : 0.5 : 1"
       inkscape:vp_y="0 : 1000 : 0"
       inkscape:vp_x="0 : 0.5 : 1"
       sodipodi:type="inkscape:persp3d" />
  </defs>
  <g
     id="layer1"
     transform="translate(53.771186,-41)" />
  <g
     id="g2634"
     style="stroke:#000000;stroke-opacity:1"
     transform="translate(272.94007,536.51242)" />
  <g
     id="g2608"
     transform="translate(90.53658,1847.7649)"
     style="stroke:#000000;stroke-opacity:1" />
  <g
     id="g3297"
     transform="matrix(0.5,0,0,0.5,285.75212,1966.8337)"
     style="stroke:#000000;stroke-width:2;stroke-miterlimit:4;stroke-dasharray:none;stroke-opacity:1" />
  <path
     style="fill:#ff0000;fill-opacity:0.60784314;fill-rule:evenodd;stroke:#000000;stroke-width:1;stroke-linecap:butt;stroke-linejoin:miter;stroke-miterlimit:4;stroke-opacity:1;stroke-dasharray:none"
     d="m 1057.3549,0.69105 c -0.486,0.03 -0.979,0.06 -1.476,0.138 -183.67201,74.858 -518.29502,254.26499 -561.22602,371.02999 l -17.567,-297.07499 c -0.844,-14.246 -17.333,-12.952 -20.077,-2.403 l -21.23,81.54899 c -3.213,12.347 -2.579,30.343 -2.353,42.733 2.209,120.563 15.336,247.335 26.372,370.81096 -46.498,83.954 -196.732,141.131 -375.681998,135.713 -272.550962,-8.251 -234.702992,-172.421 -195.374992,-240.24196 4.784,-8.252 -10.428,-19.143 -16.758,-7.536 -52.304,96.13796 -88.16797,216.82096 -8.339,292.36096 40.942002,38.741 119.667992,72.407 234.946992,61.784 119.396998,-11.003 229.019998,-43.43 284.575998,-80.39 55.829,-37.141 75.905,-90.45 85.575,-110.861 8.222,60.047 22.867,231.883 188.675,202.81 C 784.92489,798.756 824.19889,697.65 798.90789,566.892 871.27189,592.49 1068.0809,797.157 1157.6459,800 l -0.131,-90.096 c -64.337,-9.64 -201.92102,-123.986 -301.72501,-188.23396 -99.41,-63.995 -199.79201,-122.113 -314.03601,-150.762 107.58,-91.221 341.79901,-223.8 495.77302,-276.63599 7.051,-2.761 14.046,-7.935 16.112,-16.549 l 13.849,-61.938 c 2.669,-11.13 -2.873,-15.595 -10.134,-15.098 l 0,0 10e-4,0 0,0 z M 503.06088,462.45904 c 137.382,35.755 236.32701,82.81296 287.08101,192.14396 -33.3,41.782 -144.95201,97.238 -213.60501,64.368 -49.229,-23.57 -61.612,-158.074 -73.476,-256.51196 z"
     id="path2503"
     sodipodi:nodetypes="ccccccccsccssscccccccccccccccccc" />
  <path
     style="fill:#ff0000;fill-opacity:0.60784314;fill-rule:evenodd;stroke:#000000;stroke-width:1;stroke-linecap:butt;stroke-linejoin:miter;stroke-miterlimit:4;stroke-opacity:1;stroke-dasharray:none"
     d="m 188.54888,207.84904 c -58.99,18.526 -97.522998,79.041 -101.674998,132.582 -1.841,23.729 17.549998,38.019 43.993998,48.01 6.599,4.467 39.412,15.659 29.16,25.437 -23.978,12.781 -71.679998,13.652 -146.021998,18.596 -12.174,0.807 -13.61199997,16.971 1.109,22.419 40.545,15.007 103.035998,31.067 138.751998,14.767 61.557,-38.424 103.077,-123.751 34.437,-145.814 -48.141,-15.474 -64.018,-24.642 -57.629,-33.099 6.854,-9.075 26.652,-11.93 39.407,-14.572 3.338,-0.691 7.8,-3.62 10.947,-13.713 l 13.777,-44.186 c 1.646,-4.593 -0.46,-10.285 -6.257,-10.427 z"
     id="path2515"
     sodipodi:nodetypes="csccsscsssscc" />
</svg>
