<?xml version="1.0" encoding="UTF-8" standalone="no"?>
<!-- Created with Inkscape (http://www.inkscape.org/) -->

<svg
   xmlns:dc="http://purl.org/dc/elements/1.1/"
   xmlns:cc="http://creativecommons.org/ns#"
   xmlns:rdf="http://www.w3.org/1999/02/22-rdf-syntax-ns#"
   xmlns:svg="http://www.w3.org/2000/svg"
   xmlns="http://www.w3.org/2000/svg"
   xmlns:sodipodi="http://sodipodi.sourceforge.net/DTD/sodipodi-0.dtd"
   xmlns:inkscape="http://www.inkscape.org/namespaces/inkscape"
   version="1.0"
   width="1000"
   height="1000"
   id="svg5496"
   sodipodi:version="0.32"
   inkscape:version="0.47pre4 r22446"
   sodipodi:docname="kaf+meem.fina.svg"
   inkscape:output_extension="org.inkscape.output.svg.inkscape">
  <metadata
     id="metadata5594">
    <rdf:RDF>
      <cc:Work
         rdf:about="">
        <dc:format>image/svg+xml</dc:format>
        <dc:type
           rdf:resource="http://purl.org/dc/dcmitype/StillImage" />
      </cc:Work>
    </rdf:RDF>
  </metadata>
  <sodipodi:namedview
     inkscape:pageshadow="2"
     inkscape:pageopacity="0.0"
     guidetolerance="10.0"
     gridtolerance="10.0"
     objecttolerance="10.0"
     borderopacity="1.0"
     bordercolor="#666666"
     pagecolor="#ffffff"
     id="base"
     showgrid="false"
     showguides="true"
     inkscape:guide-bbox="true"
     inkscape:zoom="0.32102648"
     inkscape:cx="756.73132"
     inkscape:cy="287.03507"
     inkscape:window-x="0"
     inkscape:window-y="0"
     inkscape:current-layer="svg5496"
     inkscape:window-width="1278"
     inkscape:window-height="767"
     inkscape:window-maximized="1">
    <sodipodi:guide
       orientation="horizontal"
       position="200"
       id="guide5596" />
  </sodipodi:namedview>
  <defs
     id="defs5498">
    <inkscape:perspective
       sodipodi:type="inkscape:persp3d"
       inkscape:vp_x="0 : 500 : 1"
       inkscape:vp_y="0 : 1000 : 0"
       inkscape:vp_z="1000 : 500 : 1"
       inkscape:persp3d-origin="500 : 333.33333 : 1"
       id="perspective8" />
    <inkscape:perspective
       id="perspective2477"
       inkscape:persp3d-origin="372.04724 : 350.78739 : 1"
       inkscape:vp_z="744.09448 : 526.18109 : 1"
       inkscape:vp_y="0 : 1000 : 0"
       inkscape:vp_x="0 : 526.18109 : 1"
       sodipodi:type="inkscape:persp3d" />
    <inkscape:perspective
       sodipodi:type="inkscape:persp3d"
       inkscape:vp_x="0 : 500 : 1"
       inkscape:vp_y="0 : 1000 : 0"
       inkscape:vp_z="1000 : 500 : 1"
       inkscape:persp3d-origin="500 : 333.33333 : 1"
       id="perspective2389" />
    <inkscape:perspective
       id="perspective2504"
       inkscape:persp3d-origin="372.04724 : 350.78739 : 1"
       inkscape:vp_z="744.09448 : 526.18109 : 1"
       inkscape:vp_y="0 : 1000 : 0"
       inkscape:vp_x="0 : 526.18109 : 1"
       sodipodi:type="inkscape:persp3d" />
    <inkscape:perspective
       id="perspective3401"
       inkscape:persp3d-origin="500 : 333.33333 : 1"
       inkscape:vp_z="1000 : 500 : 1"
       inkscape:vp_y="0 : 1000 : 0"
       inkscape:vp_x="0 : 500 : 1"
       sodipodi:type="inkscape:persp3d" />
    <inkscape:perspective
       id="perspective5113"
       inkscape:persp3d-origin="0.5 : 0.33333333 : 1"
       inkscape:vp_z="1 : 0.5 : 1"
       inkscape:vp_y="0 : 1000 : 0"
       inkscape:vp_x="0 : 0.5 : 1"
       sodipodi:type="inkscape:persp3d" />
    <inkscape:perspective
       id="perspective5135"
       inkscape:persp3d-origin="0.5 : 0.33333333 : 1"
       inkscape:vp_z="1 : 0.5 : 1"
       inkscape:vp_y="0 : 1000 : 0"
       inkscape:vp_x="0 : 0.5 : 1"
       sodipodi:type="inkscape:persp3d" />
    <inkscape:perspective
       id="perspective3656"
       inkscape:persp3d-origin="0.5 : 0.33333333 : 1"
       inkscape:vp_z="1 : 0.5 : 1"
       inkscape:vp_y="0 : 1000 : 0"
       inkscape:vp_x="0 : 0.5 : 1"
       sodipodi:type="inkscape:persp3d" />
  </defs>
  <path
     sodipodi:nodetypes="csssscsssscszssscsss"
     id="path2831"
     d="m 775.32114,-14.991 c 5.813,-12.205 0.259,-16.566 -8.276,-15.012 -159.407,29.032 -582.706,98.617 -697.836,195.141 -12.696,10.644 -54.937,74.646 -62.699,101.645 -3.73,12.974 7.842,26.725 15.931,35.864 59.516,67.245 208.757,184.305 242.066,300.372 -40.861,35.699 -125.352,58.493 -148.44,59.72 -8.582,0.449 -12.29655,4.50691 -14.138,11.567 -14.708873,56.39368 86.90508,52.49969 124.018,16.373 16.36024,-15.92548 51.77,-55.093 58.216,-82.98 7.197,-31.137 -3.206,-66.451 -16.379,-106.803 101.983,67.105 265.29308,300.21277 359.512,299.104 15.8514,-0.18654 25.21679,-25.49118 24.7245,-45.59361 -0.49229,-20.10244 -6.26382,-39.37595 -25.0065,-46.28539 -76.66924,-28.26391 -161.352,-122.025 -294.748,-244.21 -97.422,-89.231 -200.866,-172.837 -259.006,-216.307 -18.476,-13.813 -16.489,-22.26 -11.801,-27.825 120.649,-48.864 407.929,-113.749 669.345,-157.93 8.072,-1.365 11.138,-6.76 14.02,-12.81 l 30.497,-64.03 z"
     style="fill:#ff0000;fill-opacity:0.60784314;fill-rule:evenodd;stroke:#000000;stroke-width:1;stroke-linecap:butt;stroke-linejoin:miter;stroke-miterlimit:4;stroke-opacity:1;stroke-dasharray:none" />
  <g
     id="layer1"
     transform="translate(308.38578,328.43172)"
     style="stroke:#000000;stroke-opacity:1" />
  <path
     style="fill:#ff0000;fill-opacity:0.60784314;fill-rule:evenodd;stroke:#000000;stroke-width:1;stroke-linecap:butt;stroke-linejoin:miter;stroke-miterlimit:4;stroke-opacity:1;stroke-dasharray:none"
     d="m 116.06714,662.739 c -8.58565,0.37005 -12.247,4.52 -14.138,11.567 l -17.517,65.285 c -1.806,6.729 1.542,10.485 5.989,14.703 3.263,3.095 8.214,6.746 12.82,9.148 -48.423,16.615 -104.742,111.508 -102.995,190.673 1.854,84.116 57.49555,363.7777 56.24805,417.0002 -0.65223,27.0121 22.14905,23.1291 24.655,2.785 11.38702,-92.4437 -22.84405,-241.3562 -37.62405,-358.6682 -6.276,-49.814 -6.32,-125.116 -1.34,-129.146 80.624,-65.222 175.473,-58.327 260.722,-29.948 7.683,2.558 10.837,-4.915 12.339,-10.17 l 21.831,-76.407 c 2.589,-9.055 -0.06,-15.596 -5.325,-18.712 -35.585,-21.079 -71.83134,-44.94642 -105.785,-60.17 -31.80199,-14.25885 -82.90353,-29.1027 -109.88,-27.94 z"
     id="path2833"
     sodipodi:nodetypes="cssscsssssssssss" />
</svg>
