<?xml version="1.0" encoding="UTF-8" standalone="no"?>
<!-- Created with Inkscape (http://www.inkscape.org/) -->

<svg
   xmlns:dc="http://purl.org/dc/elements/1.1/"
   xmlns:cc="http://creativecommons.org/ns#"
   xmlns:rdf="http://www.w3.org/1999/02/22-rdf-syntax-ns#"
   xmlns:svg="http://www.w3.org/2000/svg"
   xmlns="http://www.w3.org/2000/svg"
   xmlns:sodipodi="http://sodipodi.sourceforge.net/DTD/sodipodi-0.dtd"
   xmlns:inkscape="http://www.inkscape.org/namespaces/inkscape"
   version="1.0"
   width="1000"
   height="1000"
   id="svg5496"
   sodipodi:version="0.32"
   inkscape:version="0.47pre0 r21549"
   sodipodi:docname="kaf+lam.isol.svg"
   inkscape:output_extension="org.inkscape.output.svg.inkscape">
  <metadata
     id="metadata5594">
    <rdf:RDF>
      <cc:Work
         rdf:about="">
        <dc:format>image/svg+xml</dc:format>
        <dc:type
           rdf:resource="http://purl.org/dc/dcmitype/StillImage" />
      </cc:Work>
    </rdf:RDF>
  </metadata>
  <sodipodi:namedview
     inkscape:pageshadow="2"
     inkscape:pageopacity="0.0"
     guidetolerance="10.0"
     gridtolerance="10.0"
     objecttolerance="10.0"
     borderopacity="1.0"
     bordercolor="#666666"
     pagecolor="#ffffff"
     id="base"
     showgrid="false"
     showguides="true"
     inkscape:guide-bbox="true"
     inkscape:zoom="0.236"
     inkscape:cx="368.64407"
     inkscape:cy="500"
     inkscape:window-x="0"
     inkscape:window-y="25"
     inkscape:current-layer="svg5496">
    <sodipodi:guide
       orientation="horizontal"
       position="200"
       id="guide5596" />
  </sodipodi:namedview>
  <defs
     id="defs5498">
    <inkscape:perspective
       sodipodi:type="inkscape:persp3d"
       inkscape:vp_x="0 : 500 : 1"
       inkscape:vp_y="0 : 1000 : 0"
       inkscape:vp_z="1000 : 500 : 1"
       inkscape:persp3d-origin="500 : 333.33333 : 1"
       id="perspective8" />
    <inkscape:perspective
       id="perspective2477"
       inkscape:persp3d-origin="372.04724 : 350.78739 : 1"
       inkscape:vp_z="744.09448 : 526.18109 : 1"
       inkscape:vp_y="0 : 1000 : 0"
       inkscape:vp_x="0 : 526.18109 : 1"
       sodipodi:type="inkscape:persp3d" />
  </defs>
  <g
     id="layer1"
     transform="translate(87.22022,386.26097)" />
  <path
     style="fill:#000000;fill-rule:evenodd;stroke:#000000;stroke-width:1px;stroke-linecap:butt;stroke-linejoin:miter;stroke-opacity:1"
     d="M 1074.6875 38.6875 C 1072.5612 38.796198 1070.133 39.365334 1067.4062 40.4375 C 891.40862 109.6397 512.98482 243.849 424.78125 417.65625 C 416.294 343.64921 408.21578 235.26668 402.75 162.15625 C 402.08556 153.20177 397.55278 138.97475 385.6875 155.53125 C 375.73734 168.87124 354.79792 199.53098 357.03125 219.40625 C 385.5093 472.84286 417.76822 791.92731 426.28125 960.125 C 381.0633 1028.7103 257.83082 1063.7415 181.9375 1053.6562 C -10.961763 1028.0222 45.227211 865.12668 93.84375 760.71875 C 101.56129 744.14471 82.575361 731.98573 74.5625 751.34375 C 49.510232 811.86674 -24.011392 929.44354 12.34375 1051.4688 C 62.974312 1170.2607 169.07654 1177.6286 270.6875 1153.1562 C 352.76258 1133.389 439.1792 1081.7125 457.1875 980.1875 C 467.31076 923.11577 455.76317 812.69327 447.53125 749.4375 C 472.98618 799.53744 495.88282 859.37973 579.09375 853.5 C 683.3055 835.49443 756.64013 754.07757 750.625 649.40625 C 727.5575 487.02758 546.21692 437.05974 468.28125 414.90625 C 669.73135 262.18932 874.19168 209.17229 1043.1562 143.96875 C 1051.4002 140.78735 1061.2978 137.75491 1066.2812 118.625 L 1083.375 53.125 C 1085.8049 43.797273 1082.2813 38.299292 1074.6875 38.6875 z M 437.4375 499.6875 C 535.16945 528.30632 655.08864 560.82069 720.8125 665.5 C 722.15345 667.63575 721.96452 671.04289 719.59375 673.125 C 642.47185 740.85662 577.47374 763.29089 523.34375 729.3125 C 459.71295 689.37028 453.86667 583.22593 437.4375 499.6875 z "
     id="path2483" />
</svg>
