<?xml version="1.0" encoding="UTF-8" standalone="no"?>
<!-- Created with Inkscape (http://www.inkscape.org/) -->

<svg
   xmlns:dc="http://purl.org/dc/elements/1.1/"
   xmlns:cc="http://creativecommons.org/ns#"
   xmlns:rdf="http://www.w3.org/1999/02/22-rdf-syntax-ns#"
   xmlns:svg="http://www.w3.org/2000/svg"
   xmlns="http://www.w3.org/2000/svg"
   xmlns:sodipodi="http://sodipodi.sourceforge.net/DTD/sodipodi-0.dtd"
   xmlns:inkscape="http://www.inkscape.org/namespaces/inkscape"
   version="1.0"
   width="1000"
   height="1000"
   id="svg5496"
   sodipodi:version="0.32"
   inkscape:version="0.47pre4 r22446"
   sodipodi:docname="kaf+kaf.fina.svg"
   inkscape:output_extension="org.inkscape.output.svg.inkscape">
  <metadata
     id="metadata5594">
    <rdf:RDF>
      <cc:Work
         rdf:about="">
        <dc:format>image/svg+xml</dc:format>
        <dc:type
           rdf:resource="http://purl.org/dc/dcmitype/StillImage" />
      </cc:Work>
    </rdf:RDF>
  </metadata>
  <sodipodi:namedview
     inkscape:pageshadow="2"
     inkscape:pageopacity="0.0"
     guidetolerance="10.0"
     gridtolerance="10.0"
     objecttolerance="10.0"
     borderopacity="1.0"
     bordercolor="#666666"
     pagecolor="#ffffff"
     id="base"
     showgrid="false"
     showguides="true"
     inkscape:guide-bbox="true"
     inkscape:zoom="0.40012216"
     inkscape:cx="866.70409"
     inkscape:cy="920.88007"
     inkscape:window-x="0"
     inkscape:window-y="0"
     inkscape:current-layer="svg5496"
     inkscape:window-width="1278"
     inkscape:window-height="767"
     inkscape:window-maximized="1">
    <sodipodi:guide
       orientation="horizontal"
       position="200"
       id="guide5596" />
  </sodipodi:namedview>
  <defs
     id="defs5498">
    <inkscape:perspective
       sodipodi:type="inkscape:persp3d"
       inkscape:vp_x="0 : 500 : 1"
       inkscape:vp_y="0 : 1000 : 0"
       inkscape:vp_z="1000 : 500 : 1"
       inkscape:persp3d-origin="500 : 333.33333 : 1"
       id="perspective8" />
    <inkscape:perspective
       id="perspective2497"
       inkscape:persp3d-origin="372.04724 : 350.78739 : 1"
       inkscape:vp_z="744.09448 : 526.18109 : 1"
       inkscape:vp_y="0 : 1000 : 0"
       inkscape:vp_x="0 : 526.18109 : 1"
       sodipodi:type="inkscape:persp3d" />
    <inkscape:perspective
       sodipodi:type="inkscape:persp3d"
       inkscape:vp_x="0 : 500 : 1"
       inkscape:vp_y="0 : 1000 : 0"
       inkscape:vp_z="1000 : 500 : 1"
       inkscape:persp3d-origin="500 : 333.33333 : 1"
       id="perspective2677" />
    <inkscape:perspective
       id="perspective2711"
       inkscape:persp3d-origin="372.04724 : 350.78739 : 1"
       inkscape:vp_z="744.09448 : 526.18109 : 1"
       inkscape:vp_y="0 : 1000 : 0"
       inkscape:vp_x="0 : 526.18109 : 1"
       sodipodi:type="inkscape:persp3d" />
    <inkscape:perspective
       sodipodi:type="inkscape:persp3d"
       inkscape:vp_x="0 : 500 : 1"
       inkscape:vp_y="0 : 1000 : 0"
       inkscape:vp_z="1000 : 500 : 1"
       inkscape:persp3d-origin="500 : 333.33333 : 1"
       id="perspective3295" />
    <inkscape:perspective
       sodipodi:type="inkscape:persp3d"
       inkscape:vp_x="0 : 526.18109 : 1"
       inkscape:vp_y="0 : 1000 : 0"
       inkscape:vp_z="744.09448 : 526.18109 : 1"
       inkscape:persp3d-origin="372.04724 : 350.78739 : 1"
       id="perspective2477" />
    <inkscape:perspective
       id="perspective2626"
       inkscape:persp3d-origin="500 : 333.33333 : 1"
       inkscape:vp_z="1000 : 500 : 1"
       inkscape:vp_y="0 : 1000 : 0"
       inkscape:vp_x="0 : 500 : 1"
       sodipodi:type="inkscape:persp3d" />
    <inkscape:perspective
       id="perspective4613"
       inkscape:persp3d-origin="0.5 : 0.33333333 : 1"
       inkscape:vp_z="1 : 0.5 : 1"
       inkscape:vp_y="0 : 1000 : 0"
       inkscape:vp_x="0 : 0.5 : 1"
       sodipodi:type="inkscape:persp3d" />
  </defs>
  <path
     sodipodi:nodetypes="ccsscssccssssss"
     id="path2861"
     d="M 503.06088,462.45904 C 640.29061,498.76758 739.38789,545.272 790.14189,654.603 766.7504,683.95264 703.08032,721.48359 646.04475,727.53929 577.03071,734.86679 598.17204,829.97572 657.41688,821.113 782.6926,802.3724 824.19889,697.65 798.90789,566.892 871.27189,592.49 1068.0685,797.73937 1157.6459,800 c 40.6289,1.02534 36.2956,-84.63235 -0.131,-90.096 -64.3355,-9.64974 -201.92102,-123.986 -301.72501,-188.23396 -99.41,-63.995 -199.79201,-122.113 -314.03601,-150.762 111.11445,-82.38486 348.7439,-211.7265 495.77302,-276.63599 6.927,-3.058087 14.1791,-7.904175 16.112,-16.549 4.6163,-20.646006 13.849,-61.938 13.849,-61.938 2.2134,-9.8990135 -2.8409,-18.5411301 -11.609,-14.956 -183.74675,75.130823 -518.83794,254.07088 -561.22602,371.02999 -14.77009,40.75429 -15.07926,84.38569 8.408,90.6 z"
     style="fill:#ff0000;fill-opacity:0.60784314;fill-rule:evenodd;stroke:#000000;stroke-width:1;stroke-linecap:butt;stroke-linejoin:miter;stroke-miterlimit:4;stroke-opacity:1;stroke-dasharray:none" />
  <g
     id="layer1"
     transform="translate(53.771186,-101)" />
  <g
     id="g2634"
     style="stroke:#000000;stroke-opacity:1"
     transform="translate(272.94007,476.51242)" />
  <g
     id="g2608"
     transform="translate(90.53658,1787.7649)"
     style="stroke:#000000;stroke-opacity:1" />
  <g
     id="g3297"
     transform="matrix(0.5,0,0,0.5,285.75212,1906.8337)"
     style="stroke:#000000;stroke-width:2;stroke-miterlimit:4;stroke-opacity:1;stroke-dasharray:none" />
  <path
     style="fill:#ff0000;fill-opacity:0.60784314;fill-rule:evenodd;stroke:#000000;stroke-width:1;stroke-linecap:butt;stroke-linejoin:miter;stroke-miterlimit:4;stroke-opacity:1;stroke-dasharray:none"
     d="m 188.54888,207.84904 c -58.99,18.526 -97.522998,79.041 -101.674998,132.582 -1.841,23.729 17.549998,38.019 43.993998,48.01 6.599,4.467 39.412,15.659 29.16,25.437 -23.978,12.781 -71.679998,13.652 -146.021998,18.596 -12.174,0.807 -13.61199997,16.971 1.109,22.419 40.545,15.007 103.035998,31.067 138.751998,14.767 61.557,-38.424 103.077,-123.751 34.437,-145.814 -48.141,-15.474 -64.018,-24.642 -57.629,-33.099 6.854,-9.075 26.652,-11.93 39.407,-14.572 3.338,-0.691 7.8,-3.62 10.947,-13.713 l 13.777,-44.186 c 1.646,-4.593 -0.46,-10.285 -6.257,-10.427 z"
     id="path2515"
     sodipodi:nodetypes="csccsscsssscc" />
  <g
     transform="translate(53.771186,-41)"
     id="g2835" />
  <g
     transform="translate(272.94007,536.51242)"
     style="stroke:#000000;stroke-opacity:1"
     id="g2837" />
  <g
     style="stroke:#000000;stroke-opacity:1"
     transform="translate(90.53658,1847.7649)"
     id="g2839" />
  <g
     style="stroke:#000000;stroke-width:2;stroke-miterlimit:4;stroke-opacity:1;stroke-dasharray:none"
     transform="matrix(0.5,0,0,0.5,285.75212,1966.8337)"
     id="g2841" />
  <path
     sodipodi:nodetypes="ccsscsssccscccccss"
     id="path2843"
     d="m 503.06088,462.45904 c 11.53971,98.47448 24.247,232.94196 73.476,256.51196 20.42791,9.78057 43.0702,10.83014 69.50787,8.56829 49.15758,-4.20563 52.87033,85.52349 11.37213,93.57371 -163.49921,31.71717 -180.453,-142.763 -188.675,-202.81 -9.67,20.411 -29.746,73.72 -85.575,110.861 -55.556,36.96 -165.179,69.387 -284.575998,80.39 -115.279,10.623 -194.00499,-23.043 -234.946992,-61.784 -79.82897,-75.54 -43.965,-196.223 8.339,-292.36096 6.33,-11.607 21.542,-0.716 16.758,7.536 -39.328,67.82096 -77.17597,231.99096 195.374992,240.24196 178.949998,5.418 329.183998,-51.759 375.681998,-135.713 -11.036,-123.47596 -24.163,-250.24796 -26.372,-370.81096 -0.226,-12.39 -0.86,-30.386 2.353,-42.733 l 21.23,-81.54899 c 2.744,-10.549 19.233,-11.843 20.077,2.403 l 17.567,297.07499 c 2.01579,34.08894 5.32781,64.31512 8.408,90.6 z"
     style="fill:#ff0000;fill-opacity:0.60784314;fill-rule:evenodd;stroke:#000000;stroke-width:1;stroke-linecap:butt;stroke-linejoin:miter;stroke-miterlimit:4;stroke-opacity:1;stroke-dasharray:none" />
</svg>
