<?xml version="1.0" encoding="UTF-8" standalone="no"?>
<!-- Created with Inkscape (http://www.inkscape.org/) -->

<svg
   xmlns:dc="http://purl.org/dc/elements/1.1/"
   xmlns:cc="http://creativecommons.org/ns#"
   xmlns:rdf="http://www.w3.org/1999/02/22-rdf-syntax-ns#"
   xmlns:svg="http://www.w3.org/2000/svg"
   xmlns="http://www.w3.org/2000/svg"
   xmlns:sodipodi="http://sodipodi.sourceforge.net/DTD/sodipodi-0.dtd"
   xmlns:inkscape="http://www.inkscape.org/namespaces/inkscape"
   version="1.0"
   width="1000"
   height="1000"
   id="svg5496"
   sodipodi:version="0.32"
   inkscape:version="0.47pre4 r22446"
   sodipodi:docname="kaf.isol.svg"
   inkscape:output_extension="org.inkscape.output.svg.inkscape">
  <metadata
     id="metadata5594">
    <rdf:RDF>
      <cc:Work
         rdf:about="">
        <dc:format>image/svg+xml</dc:format>
        <dc:type
           rdf:resource="http://purl.org/dc/dcmitype/StillImage" />
      </cc:Work>
    </rdf:RDF>
  </metadata>
  <sodipodi:namedview
     inkscape:pageshadow="2"
     inkscape:pageopacity="0.0"
     guidetolerance="10.0"
     gridtolerance="10.0"
     objecttolerance="10.0"
     borderopacity="1.0"
     bordercolor="#666666"
     pagecolor="#ffffff"
     id="base"
     showgrid="false"
     showguides="true"
     inkscape:guide-bbox="true"
     inkscape:zoom="0.32102648"
     inkscape:cx="533.83874"
     inkscape:cy="638.26913"
     inkscape:window-x="0"
     inkscape:window-y="0"
     inkscape:current-layer="svg5496"
     inkscape:window-width="1278"
     inkscape:window-height="767"
     inkscape:window-maximized="1">
    <sodipodi:guide
       orientation="horizontal"
       position="200"
       id="guide5596" />
  </sodipodi:namedview>
  <defs
     id="defs5498">
    <inkscape:perspective
       sodipodi:type="inkscape:persp3d"
       inkscape:vp_x="0 : 500 : 1"
       inkscape:vp_y="0 : 1000 : 0"
       inkscape:vp_z="1000 : 500 : 1"
       inkscape:persp3d-origin="500 : 333.33333 : 1"
       id="perspective8" />
    <inkscape:perspective
       id="perspective2477"
       inkscape:persp3d-origin="372.04724 : 350.78739 : 1"
       inkscape:vp_z="744.09448 : 526.18109 : 1"
       inkscape:vp_y="0 : 1000 : 0"
       inkscape:vp_x="0 : 526.18109 : 1"
       sodipodi:type="inkscape:persp3d" />
    <inkscape:perspective
       id="perspective3295"
       inkscape:persp3d-origin="500 : 333.33333 : 1"
       inkscape:vp_z="1000 : 500 : 1"
       inkscape:vp_y="0 : 1000 : 0"
       inkscape:vp_x="0 : 500 : 1"
       sodipodi:type="inkscape:persp3d" />
    <inkscape:perspective
       id="perspective3728"
       inkscape:persp3d-origin="0.5 : 0.33333333 : 1"
       inkscape:vp_z="1 : 0.5 : 1"
       inkscape:vp_y="0 : 1000 : 0"
       inkscape:vp_x="0 : 0.5 : 1"
       sodipodi:type="inkscape:persp3d" />
    <inkscape:perspective
       id="perspective4856"
       inkscape:persp3d-origin="0.5 : 0.33333333 : 1"
       inkscape:vp_z="1 : 0.5 : 1"
       inkscape:vp_y="0 : 1000 : 0"
       inkscape:vp_x="0 : 0.5 : 1"
       sodipodi:type="inkscape:persp3d" />
    <inkscape:perspective
       id="perspective2868"
       inkscape:persp3d-origin="0.5 : 0.33333333 : 1"
       inkscape:vp_z="1 : 0.5 : 1"
       inkscape:vp_y="0 : 1000 : 0"
       inkscape:vp_x="0 : 0.5 : 1"
       sodipodi:type="inkscape:persp3d" />
  </defs>
  <g
     id="g2845"
     transform="translate(-8342.4984,-534.34344)">
    <path
       style="fill:#ff0000;fill-opacity:0.60784314;fill-rule:evenodd;stroke:#000000;stroke-width:0;stroke-linecap:butt;stroke-linejoin:miter;stroke-miterlimit:4;stroke-opacity:1;stroke-dasharray:none"
       d="m 8772.5361,552.08258 c -3.7693,-10.50085 -10.8867,-10.84771 -14.8322,-3.19816 0,0 -12.0737,24.99322 -18.6612,37.76516 -7.4582,14.46023 -5.3588,21.97345 -2.4303,30.63707 17.8901,52.92649 48.4363,234.06847 72.1654,361.97412 12.4723,67.22883 31.9348,203.73083 28.2098,222.89853 -63.6969,51.3567 -426.326,44.3817 -487.2158,19.5932 -2.4629,-1.0025 -4.7474,1.9656 -5.0202,5.1822 -2.4456,28.843 0.5194,57.5997 2.1958,86.3771 0.1922,3.3006 2.0712,8.3677 6.893,9.1076 74.8404,11.4844 461.796,30.6978 492.4848,-37.4533 32.161,-71.4204 29.3043,-136.3232 28.7818,-174.3321 -1.3197,-96.1997 -43.671,-291.26567 -70.5962,-429.22085 -1.1448,-5.86538 16.1764,-29.25067 21.7866,-39.88372 3.3866,-6.41856 4.4247,-15.29876 -0.6287,-19.49655 -22.5866,-18.76238 -47.1293,-53.22578 -53.1326,-69.9503 z"
       id="path2847"
       sodipodi:nodetypes="csssscssssssssss" />
    <path
       style="fill:#ff0000;fill-opacity:0.60784314;fill-rule:evenodd;stroke:#000000;stroke-width:0;stroke-linecap:butt;stroke-linejoin:miter;stroke-miterlimit:4;stroke-opacity:1;stroke-dasharray:none"
       d="m 8571.7221,761.20491 c -62.8389,16.60145 -94.9567,73.2674 -112.5808,147.33732 -5.5089,23.1526 16.0049,45.4003 47.2023,52.5015 l 29.0513,6.6128 c 8.7798,1.55725 12.6124,9.16225 6.5236,12.40775 -23.9786,12.7811 -91.5675,8.5197 -165.9094,13.4644 -12.1737,0.80682 -13.6116,16.97042 1.1093,22.41902 40.5449,15.0067 123.5647,23.3686 152.2235,16.0494 26.2653,-6.708 60.7563,-62.03482 71.3786,-91.70897 2.8585,-7.9854 18.0545,-45.23799 -29.243,-52.18007 -47.2041,-6.92836 -71.7157,-20.15139 -65.3276,-28.6092 6.854,-9.0748 26.6523,-18.34496 39.4078,-20.98631 3.338,-0.69122 6.9873,-3.91021 10.9469,-13.71327 l 21.4747,-53.16651 c 1.6456,-4.59333 -0.4598,-10.28579 -6.2572,-10.42786 z"
       id="path2849"
       sodipodi:nodetypes="csscssssssssscc" />
  </g>
  <g
     id="layer1"
     transform="matrix(0.5,0,0,0.5,123.42705,318.81883)" />
  <g
     id="g3429"
     transform="translate(225.84996,617.08875)" />
  <g
     id="g3297"
     transform="matrix(0.5,0,0,0.5,421.0655,736.15759)"
     style="stroke:#000000;stroke-width:0;stroke-miterlimit:4;stroke-dasharray:none;stroke-opacity:1" />
</svg>
