<?xml version="1.0" encoding="UTF-8" standalone="no"?>
<!-- Created with Inkscape (http://www.inkscape.org/) -->

<svg
   xmlns:dc="http://purl.org/dc/elements/1.1/"
   xmlns:cc="http://creativecommons.org/ns#"
   xmlns:rdf="http://www.w3.org/1999/02/22-rdf-syntax-ns#"
   xmlns:svg="http://www.w3.org/2000/svg"
   xmlns="http://www.w3.org/2000/svg"
   xmlns:sodipodi="http://sodipodi.sourceforge.net/DTD/sodipodi-0.dtd"
   xmlns:inkscape="http://www.inkscape.org/namespaces/inkscape"
   version="1.0"
   width="1000"
   height="1000"
   id="svg5496"
   sodipodi:version="0.32"
   inkscape:version="0.47pre4 r22446"
   sodipodi:docname="kaf.isol.svg"
   inkscape:output_extension="org.inkscape.output.svg.inkscape">
  <metadata
     id="metadata5594">
    <rdf:RDF>
      <cc:Work
         rdf:about="">
        <dc:format>image/svg+xml</dc:format>
        <dc:type
           rdf:resource="http://purl.org/dc/dcmitype/StillImage" />
      </cc:Work>
    </rdf:RDF>
  </metadata>
  <sodipodi:namedview
     inkscape:pageshadow="2"
     inkscape:pageopacity="0.0"
     guidetolerance="10.0"
     gridtolerance="10.0"
     objecttolerance="10.0"
     borderopacity="1.0"
     bordercolor="#666666"
     pagecolor="#ffffff"
     id="base"
     showgrid="false"
     showguides="true"
     inkscape:guide-bbox="true"
     inkscape:zoom="0.32102648"
     inkscape:cx="533.83874"
     inkscape:cy="479.0638"
     inkscape:window-x="0"
     inkscape:window-y="26"
     inkscape:current-layer="svg5496"
     inkscape:window-width="1280"
     inkscape:window-height="722"
     inkscape:window-maximized="1">
    <sodipodi:guide
       orientation="horizontal"
       position="200"
       id="guide5596" />
  </sodipodi:namedview>
  <defs
     id="defs5498">
    <inkscape:perspective
       sodipodi:type="inkscape:persp3d"
       inkscape:vp_x="0 : 500 : 1"
       inkscape:vp_y="0 : 1000 : 0"
       inkscape:vp_z="1000 : 500 : 1"
       inkscape:persp3d-origin="500 : 333.33333 : 1"
       id="perspective8" />
    <inkscape:perspective
       id="perspective2477"
       inkscape:persp3d-origin="372.04724 : 350.78739 : 1"
       inkscape:vp_z="744.09448 : 526.18109 : 1"
       inkscape:vp_y="0 : 1000 : 0"
       inkscape:vp_x="0 : 526.18109 : 1"
       sodipodi:type="inkscape:persp3d" />
    <inkscape:perspective
       id="perspective3295"
       inkscape:persp3d-origin="500 : 333.33333 : 1"
       inkscape:vp_z="1000 : 500 : 1"
       inkscape:vp_y="0 : 1000 : 0"
       inkscape:vp_x="0 : 500 : 1"
       sodipodi:type="inkscape:persp3d" />
    <inkscape:perspective
       id="perspective3728"
       inkscape:persp3d-origin="0.5 : 0.33333333 : 1"
       inkscape:vp_z="1 : 0.5 : 1"
       inkscape:vp_y="0 : 1000 : 0"
       inkscape:vp_x="0 : 0.5 : 1"
       sodipodi:type="inkscape:persp3d" />
  </defs>
  <g
     id="layer1"
     transform="matrix(0.5,0,0,0.5,123.42705,318.81883)" />
  <g
     id="g3429"
     transform="translate(225.84996,617.08875)" />
  <g
     id="g3297"
     transform="matrix(0.5,0,0,0.5,421.0655,736.15759)"
     style="stroke:#000000;stroke-width:2;stroke-miterlimit:4;stroke-dasharray:none;stroke-opacity:1" />
  <path
     style="fill:#000000;fill-opacity:1;fill-rule:evenodd;stroke:#000000;stroke-width:1.22897089000000004px;stroke-linecap:butt;stroke-linejoin:miter;stroke-miterlimit:4;stroke-opacity:1;stroke-dasharray:none"
     d="M 465.0609,10.270512 C 463.0394,-3.5734878 455.0253,-5.3978878 449.665,1.6421122 L 424.2869,34.972012 c -5.2371,6.8779 -5.7335,20.8954 -5.2446,30.2842 3.2482,62.394988 27.4491,233.725688 58.5268,380.458388 14.6335,68.7528 36.2992,209.479 32.1571,229.1206 -66.313,51.7493 -438.9465,38.6562 -501.1303999,12.1814 -2.5152,-1.0707 -4.912,1.9428 -5.2449,5.2447 -2.98509996,29.6079 -0.4071,59.2154 0.846,88.8231 0.1437,3.3958 1.9924,8.6351 6.9366999,9.4743 76.7409,13.0275 474.1798,39.0978 506.8381,-30.4536 34.2251,-72.8879 36.4604,-139.583 36.5443,-178.6609 0.2149,-98.9055 -44.3775,-293.1969 -67.4608,-438.7006 L 504.989,103.154 c 3.0785,-6.795888 1.2099,-13.869188 -2.0303,-19.794788 -13.764,-25.1712 -35.3973,-55.9629 -37.8978,-73.0887 z"
     id="path2483-2"
     sodipodi:nodetypes="csssscsssssscsss" />
  <path
     style="fill:#000000;fill-opacity:1;fill-rule:evenodd;stroke:#000000;stroke-width:0.94557177999999997;stroke-linecap:butt;stroke-linejoin:miter;stroke-miterlimit:4;stroke-opacity:1;stroke-dasharray:none"
     d="m 242.5263,215.0562 c -46.9304,20.0215 -107.0311,93.1541 -124.8139,167.8914 -5.5585,23.3612 9.2488,46.8154 41.2364,51.1774 l 48.6002,6.6273 c 8.859,1.5713 2.462,7.4025 -3.6816,10.6774 -24.1949,12.8962 -95.1747,38.7182 -143.5916,56.332 -3.1076,1.1305 -3.2681,6.3831 1.4728,5.8909 43.5819,-4.5255 98.143,-4.8057 127.06,-12.191 26.5022,-6.7684 61.0408,-56.5407 71.7588,-86.4821 2.8842,-8.0572 17.178,-51.3823 -30.5592,-52.6501 -34.2411,-2.543 -76.8023,0.5337 -70.6911,-30.9274 3.4156,-17.5844 23.4106,-30.6759 51.5456,-41.2366 3.2201,-1.2086 6.9776,1.0254 11.0455,-8.8363 l 24.3,-58.9092 c 1.6605,-4.6348 2.1679,-7.2205 -3.6819,-7.3637 z"
     id="path2515-1"
     sodipodi:nodetypes="csscssssscssscc" />
</svg>
