<?xml version="1.0" encoding="UTF-8" standalone="no"?>
<!-- Created with Inkscape (http://www.inkscape.org/) -->
<svg
   xmlns:dc="http://purl.org/dc/elements/1.1/"
   xmlns:cc="http://creativecommons.org/ns#"
   xmlns:rdf="http://www.w3.org/1999/02/22-rdf-syntax-ns#"
   xmlns:svg="http://www.w3.org/2000/svg"
   xmlns="http://www.w3.org/2000/svg"
   xmlns:sodipodi="http://sodipodi.sourceforge.net/DTD/sodipodi-0.dtd"
   xmlns:inkscape="http://www.inkscape.org/namespaces/inkscape"
   version="1.0"
   width="1000"
   height="1000"
   id="svg5496"
   sodipodi:version="0.32"
   inkscape:version="0.46"
   sodipodi:docname="kaaf_long.init.svg"
   inkscape:output_extension="org.inkscape.output.svg.inkscape">
  <metadata
     id="metadata5594">
    <rdf:RDF>
      <cc:Work
         rdf:about="">
        <dc:format>image/svg+xml</dc:format>
        <dc:type
           rdf:resource="http://purl.org/dc/dcmitype/StillImage" />
      </cc:Work>
    </rdf:RDF>
  </metadata>
  <sodipodi:namedview
     inkscape:window-height="618"
     inkscape:window-width="641"
     inkscape:pageshadow="2"
     inkscape:pageopacity="0.0"
     guidetolerance="10.0"
     gridtolerance="10.0"
     objecttolerance="10.0"
     borderopacity="1.0"
     bordercolor="#666666"
     pagecolor="#ffffff"
     id="base"
     showgrid="false"
     showguides="true"
     inkscape:guide-bbox="true"
     inkscape:zoom="0.454"
     inkscape:cx="186.78414"
     inkscape:cy="479.32948"
     inkscape:window-x="0"
     inkscape:window-y="25"
     inkscape:current-layer="svg5496">
    <sodipodi:guide
       orientation="horizontal"
       position="200"
       id="guide5596" />
  </sodipodi:namedview>
  <defs
     id="defs5498">
    <inkscape:perspective
       sodipodi:type="inkscape:persp3d"
       inkscape:vp_x="0 : 500 : 1"
       inkscape:vp_y="0 : 1000 : 0"
       inkscape:vp_z="1000 : 500 : 1"
       inkscape:persp3d-origin="500 : 333.33333 : 1"
       id="perspective5134" />
    <inkscape:perspective
       id="perspective5143"
       inkscape:persp3d-origin="372.04724 : 350.78739 : 1"
       inkscape:vp_z="744.09448 : 526.18109 : 1"
       inkscape:vp_y="0 : 1000 : 0"
       inkscape:vp_x="0 : 526.18109 : 1"
       sodipodi:type="inkscape:persp3d" />
  </defs>
  <g
     id="layer1" />
  <path
     style="fill:#000000;fill-opacity:1;fill-rule:evenodd;stroke:#000000;stroke-width:1px;stroke-linecap:butt;stroke-linejoin:miter;stroke-opacity:1"
     d="M 620.92606,131.53184 C 434.68474,179.23035 242.05894,305.34511 140.59125,394.71365 C 109.07185,422.47463 96.728574,450.37301 80.123704,487.03788 C 75.726414,496.74745 74.502344,508.82864 79.664514,518.53787 C 98.785144,554.50068 178.11288,568.82118 223.40618,570.80296 C 427.18769,579.71929 540.39136,575.9401 746.69603,566.51982 C 1019.9538,555.20954 1229.2947,511.91089 1464.7348,520.26431 C 1500.5074,521.53352 1545.3136,554.93991 1563.6163,595.98545 C 1566.4295,602.29429 1567.1063,608.26287 1559.5359,608.92872 C 1502.6387,613.93314 963.11401,659.69486 755.39592,686.75283 C 537.95949,715.07674 152.63539,720.14744 3.5242305e-06,700.88105 L 2.2026435,800 C 159.52692,801.59026 504.67303,799.73612 720.26431,773.56828 C 974.57404,742.70091 1328.9909,714.86413 1540.4763,704.82072 C 1547.769,704.47439 1556.8936,700.49589 1562.4781,696.2835 C 1582.4836,681.19339 1610.4388,637.53975 1627.6278,608.18109 C 1631.4179,601.70767 1636.2013,591.46409 1635.2975,579.3373 C 1629.1798,497.25828 1567.0823,434.94173 1470.7853,433.58248 C 1250.5288,430.47351 1078.278,467.39336 729.07489,489.42731 C 576.37728,496.57873 209.68679,501.10177 150.77991,458.00532 C 147.41869,455.54624 149.57876,450.63492 152.16857,448.10198 C 232.045,369.97954 437.43805,273.66199 606.68717,227.60363 C 612.20378,226.10237 618.17553,222.25643 620.40947,214.90601 C 626.52581,194.78125 634.00057,165.3064 635.6815,140.83184 C 636.43437,129.80825 630.89954,128.97752 620.92606,131.53184 z"
     id="path5149"
     sodipodi:nodetypes="csssscssssccsssssscssssss" />
</svg>
