<?xml version="1.0" encoding="UTF-8" standalone="no"?>
<!-- Created with Inkscape (http://www.inkscape.org/) -->

<svg
   xmlns:dc="http://purl.org/dc/elements/1.1/"
   xmlns:cc="http://creativecommons.org/ns#"
   xmlns:rdf="http://www.w3.org/1999/02/22-rdf-syntax-ns#"
   xmlns:svg="http://www.w3.org/2000/svg"
   xmlns="http://www.w3.org/2000/svg"
   xmlns:sodipodi="http://sodipodi.sourceforge.net/DTD/sodipodi-0.dtd"
   xmlns:inkscape="http://www.inkscape.org/namespaces/inkscape"
   version="1.0"
   width="1000"
   height="1000"
   id="svg5496"
   sodipodi:version="0.32"
   inkscape:version="0.47pre4 r22446"
   sodipodi:docname="kaf.fina.svg"
   inkscape:output_extension="org.inkscape.output.svg.inkscape">
  <metadata
     id="metadata5594">
    <rdf:RDF>
      <cc:Work
         rdf:about="">
        <dc:format>image/svg+xml</dc:format>
        <dc:type
           rdf:resource="http://purl.org/dc/dcmitype/StillImage" />
      </cc:Work>
    </rdf:RDF>
  </metadata>
  <sodipodi:namedview
     inkscape:pageshadow="2"
     inkscape:pageopacity="0.0"
     guidetolerance="10.0"
     gridtolerance="10.0"
     objecttolerance="10.0"
     borderopacity="1.0"
     bordercolor="#666666"
     pagecolor="#ffffff"
     id="base"
     showgrid="false"
     showguides="true"
     inkscape:guide-bbox="true"
     inkscape:zoom="0.32102648"
     inkscape:cx="1169.6845"
     inkscape:cy="382.00842"
     inkscape:window-x="0"
     inkscape:window-y="24"
     inkscape:current-layer="svg5496"
     inkscape:window-width="1280"
     inkscape:window-height="727"
     inkscape:window-maximized="1">
    <sodipodi:guide
       orientation="horizontal"
       position="200"
       id="guide5596" />
  </sodipodi:namedview>
  <defs
     id="defs5498">
    <inkscape:perspective
       sodipodi:type="inkscape:persp3d"
       inkscape:vp_x="0 : 500 : 1"
       inkscape:vp_y="0 : 1000 : 0"
       inkscape:vp_z="1000 : 500 : 1"
       inkscape:persp3d-origin="500 : 333.33333 : 1"
       id="perspective8" />
    <inkscape:perspective
       id="perspective2477"
       inkscape:persp3d-origin="372.04724 : 350.78739 : 1"
       inkscape:vp_z="744.09448 : 526.18109 : 1"
       inkscape:vp_y="0 : 1000 : 0"
       inkscape:vp_x="0 : 526.18109 : 1"
       sodipodi:type="inkscape:persp3d" />
    <inkscape:perspective
       id="perspective3295"
       inkscape:persp3d-origin="500 : 333.33333 : 1"
       inkscape:vp_z="1000 : 500 : 1"
       inkscape:vp_y="0 : 1000 : 0"
       inkscape:vp_x="0 : 500 : 1"
       sodipodi:type="inkscape:persp3d" />
    <inkscape:perspective
       sodipodi:type="inkscape:persp3d"
       inkscape:vp_x="0 : 526.18109 : 1"
       inkscape:vp_y="0 : 1000 : 0"
       inkscape:vp_z="744.09448 : 526.18109 : 1"
       inkscape:persp3d-origin="372.04724 : 350.78739 : 1"
       id="perspective2711" />
    <inkscape:perspective
       id="perspective2677"
       inkscape:persp3d-origin="500 : 333.33333 : 1"
       inkscape:vp_z="1000 : 500 : 1"
       inkscape:vp_y="0 : 1000 : 0"
       inkscape:vp_x="0 : 500 : 1"
       sodipodi:type="inkscape:persp3d" />
    <inkscape:perspective
       id="perspective7546"
       inkscape:persp3d-origin="0.5 : 0.33333333 : 1"
       inkscape:vp_z="1 : 0.5 : 1"
       inkscape:vp_y="0 : 1000 : 0"
       inkscape:vp_x="0 : 0.5 : 1"
       sodipodi:type="inkscape:persp3d" />
    <inkscape:perspective
       id="perspective7593"
       inkscape:persp3d-origin="0.5 : 0.33333333 : 1"
       inkscape:vp_z="1 : 0.5 : 1"
       inkscape:vp_y="0 : 1000 : 0"
       inkscape:vp_x="0 : 0.5 : 1"
       sodipodi:type="inkscape:persp3d" />
  </defs>
  <g
     id="g4402">
    <g
       transform="translate(-84.105212,46.94564)"
       style="stroke:#000000;stroke-opacity:1"
       id="layer1" />
    <g
       style="stroke:#000000;stroke-opacity:1"
       transform="translate(-266.5087,1358.1981)"
       id="g2608" />
    <g
       style="stroke:#000000;stroke-width:2;stroke-miterlimit:4;stroke-dasharray:none;stroke-opacity:1"
       transform="matrix(0.5,0,0,0.5,-71.293162,1477.2669)"
       id="g3297" />
    <path
       sodipodi:nodetypes="cssssssssssscccss"
       id="path2613"
       d="m 639.37684,92.78927 c -0.4223,-4.71526 -6.9133,-11.57374 -12.811,-2.37879 l -39.5005,61.58442 c -1.6188,2.52418 -1.6563,6.13177 -1.6013,11.10106 2.484,224.27644 50.8851,410.46754 16.5474,459.37224 -67.9218,96.7367 -309.6173,111.3561 -346.963,111.0106 -88.4789,-0.8136 -204.743994,-27.325 -214.583294,-105.7244 -2.4971,-19.763 8.3669,-60.5654 35.6723,-97.4588 14.9056,-20.1394 -2.1807,-26.0582 -13.6953,-15.111 -15.5712,14.8037 -94.1244,137.5107 -48.8016,222.5231 29.097,54.5775 99.603694,95.2615 257.416994,90.069 90.1767,-2.967 172.4059,-21.3509 254.3852,-63.3477 48.9866,-25.095 96.8666,-89.3327 117.9376,-139.0534 17.089,158.6684 75.015,170.388 116.95708,174.6244 l -0.3243,-94.0097 c -10.3945,-1.0882 -59.84838,-26.495 -79.00078,-141.6705 -26.1724,-157.3927 -27.4151,-312.00574 -41.6355,-471.53053 z"
       style="fill:#ff0000;fill-opacity:0.60784313999999995;fill-rule:evenodd;stroke:#000000;stroke-width:1;stroke-linecap:butt;stroke-linejoin:miter;stroke-miterlimit:4;stroke-opacity:1;stroke-dasharray:none" />
    <path
       sodipodi:nodetypes="csscssssssssscc"
       id="path2515"
       d="m 379.13024,224.23308 c -62.8389,16.60145 -94.9567,73.2674 -112.5808,147.33732 -5.5089,23.1526 16.0049,45.4003 47.2023,52.5015 l 29.0513,6.6128 c 8.7798,1.5573 12.6124,9.1623 6.5236,12.4078 -23.9786,12.7811 -91.5675,8.5197 -165.9094,13.4644 -12.1737,0.8068 -13.6116,16.9704 1.1093,22.419 40.5449,15.0067 123.5647,23.3686 152.2235,16.0494 26.2653,-6.708 60.7563,-62.0348 71.3786,-91.709 2.8585,-7.9854 18.0545,-45.23799 -29.243,-52.18007 -47.2041,-6.92836 -71.7157,-20.15139 -65.3276,-28.6092 6.854,-9.0748 26.6523,-18.34496 39.4078,-20.98631 3.338,-0.69122 6.9873,-3.91021 10.9469,-13.71327 l 21.4747,-53.16651 c 1.6456,-4.59333 -0.4598,-10.28579 -6.2572,-10.42786 z"
       style="fill:#ff0000;fill-opacity:0.60784313999999995;fill-rule:evenodd;stroke:#000000;stroke-width:1;stroke-linecap:butt;stroke-linejoin:miter;stroke-miterlimit:4;stroke-opacity:1;stroke-dasharray:none" />
  </g>
</svg>
