<?xml version="1.0" encoding="UTF-8" standalone="no"?>
<!-- Created with Inkscape (http://www.inkscape.org/) -->

<svg
   xmlns:dc="http://purl.org/dc/elements/1.1/"
   xmlns:cc="http://creativecommons.org/ns#"
   xmlns:rdf="http://www.w3.org/1999/02/22-rdf-syntax-ns#"
   xmlns:svg="http://www.w3.org/2000/svg"
   xmlns="http://www.w3.org/2000/svg"
   xmlns:sodipodi="http://sodipodi.sourceforge.net/DTD/sodipodi-0.dtd"
   xmlns:inkscape="http://www.inkscape.org/namespaces/inkscape"
   version="1.0"
   width="1000"
   height="1000"
   id="svg5496"
   sodipodi:version="0.32"
   inkscape:version="0.47pre4 r22446"
   sodipodi:docname="lam+haa.init.svg"
   inkscape:output_extension="org.inkscape.output.svg.inkscape">
  <metadata
     id="metadata5594">
    <rdf:RDF>
      <cc:Work
         rdf:about="">
        <dc:format>image/svg+xml</dc:format>
        <dc:type
           rdf:resource="http://purl.org/dc/dcmitype/StillImage" />
      </cc:Work>
    </rdf:RDF>
  </metadata>
  <sodipodi:namedview
     inkscape:pageshadow="2"
     inkscape:pageopacity="0.0"
     guidetolerance="10.0"
     gridtolerance="10.0"
     objecttolerance="10.0"
     borderopacity="1.0"
     bordercolor="#666666"
     pagecolor="#ffffff"
     id="base"
     showgrid="false"
     showguides="true"
     inkscape:guide-bbox="true"
     inkscape:zoom="0.4589218"
     inkscape:cx="241.30657"
     inkscape:cy="474.08349"
     inkscape:window-x="0"
     inkscape:window-y="0"
     inkscape:current-layer="svg5496"
     inkscape:window-width="1278"
     inkscape:window-height="767"
     inkscape:window-maximized="1">
    <sodipodi:guide
       orientation="horizontal"
       position="200"
       id="guide5596" />
  </sodipodi:namedview>
  <defs
     id="defs5498">
    <inkscape:perspective
       sodipodi:type="inkscape:persp3d"
       inkscape:vp_x="0 : 500 : 1"
       inkscape:vp_y="0 : 1000 : 0"
       inkscape:vp_z="1000 : 500 : 1"
       inkscape:persp3d-origin="500 : 333.33333 : 1"
       id="perspective8" />
    <inkscape:perspective
       id="perspective2388"
       inkscape:persp3d-origin="372.04724 : 350.78739 : 1"
       inkscape:vp_z="744.09448 : 526.18109 : 1"
       inkscape:vp_y="0 : 1000 : 0"
       inkscape:vp_x="0 : 526.18109 : 1"
       sodipodi:type="inkscape:persp3d" />
    <inkscape:perspective
       id="perspective2423"
       inkscape:persp3d-origin="372.04724 : 350.78739 : 1"
       inkscape:vp_z="744.09448 : 526.18109 : 1"
       inkscape:vp_y="0 : 1000 : 0"
       inkscape:vp_x="0 : 526.18109 : 1"
       sodipodi:type="inkscape:persp3d" />
    <inkscape:perspective
       id="perspective2436"
       inkscape:persp3d-origin="372.04724 : 350.78739 : 1"
       inkscape:vp_z="744.09448 : 526.18109 : 1"
       inkscape:vp_y="0 : 1000 : 0"
       inkscape:vp_x="0 : 526.18109 : 1"
       sodipodi:type="inkscape:persp3d" />
    <inkscape:perspective
       id="perspective3834"
       inkscape:persp3d-origin="0.5 : 0.33333333 : 1"
       inkscape:vp_z="1 : 0.5 : 1"
       inkscape:vp_y="0 : 1000 : 0"
       inkscape:vp_x="0 : 0.5 : 1"
       sodipodi:type="inkscape:persp3d" />
  </defs>
  <path
     sodipodi:nodetypes="cssssccczsssssss"
     id="path2818"
     d="m 36.067,520.5687 c -8.023355,3.08077 -14.963922,7.45235 -19.083,14.235 -5.807026,9.5621 -14.8660715,30.27335 -22.9242976,56.9134 -0.5021121,1.65995 1.7505793,6.15533 4.5907399,5.93717 C 31.084168,595.16302 71.152939,598.39401 104.729,601.454 138.336,604.51681 218.426,622.4627 249.2,636.7918 169.613,676.3254 79.055,694.6732 0.491,709.4353 -43.762245,718.80054 -16.950792,801.74035 0,800 125.344,769.5529 203.289,714.0822 296.044,693.2229 388.8,672.3637 469.04,677.9235 527.87602,690.1481 c 5.368,1.1153 15.18796,4.73211 22.874,-11.2929 5.69883,-11.88178 16.599,-35.6018 20.618,-59.4578 2.082,-12.3563 -4.65,-19.7377 -10.69,-20.1432 C 491.828,594.6319 446.499,589.0299 403.93,580.3727 328.18,564.9679 285.09011,552.08361 231.559,534.5368 172.7871,515.27213 84.067587,502.13765 36.067,520.5687 z"
     style="fill:#ff0000;fill-opacity:0.60784314;fill-rule:evenodd;stroke:#000000;stroke-width:1;stroke-linecap:butt;stroke-linejoin:miter;stroke-miterlimit:4;stroke-opacity:1;stroke-dasharray:none" />
  <g
     id="layer1"
     transform="translate(-244.49339,258.3005)" />
  <path
     style="fill:#ff0000;fill-opacity:0.60784314;fill-rule:evenodd;stroke:#000000;stroke-width:1;stroke-linecap:butt;stroke-linejoin:miter;stroke-miterlimit:4;stroke-opacity:1;stroke-dasharray:none"
     d="m 184.357,189.5805 c 10.094,73.6226 27.737,227.40339 33.191,276.3459 0.507,15.3547 -17.093,31.8316 -28.879,33.6254 -47.055,7.1618 -108.253,4.1816 -152.602,21.0169 -8.035,3.0503 -14.963923,7.45235 -19.083,14.235 -5.715536,9.41145 -14.9881512,30.24024 -22.5466591,55.65739 -1.2853439,4.32225 1.6198,7.29653 5.56648295,7.08676 C 64.204484,594.13549 178.6198,589.54439 231.559,530.5368 c 45.01831,-50.17874 14.388,-196.83613 6.772,-296.05189 -0.791,-10.32324 -1.025,-17.18896 2.791,-21.59368 11.204,-12.93211 22.015,-24.93336 31.371,-35.83555 5.905,-6.88188 4.462,-18.94001 -0.766,-23.5306 -17.081,-15.00007 -24.891,-24.72074 -42.427,-55.401023 -5.744,-10.04948 -17.261,-6.86005 -22.5,-1.00064 -5.74,6.418993 -24.294,27.030293 -33.237,42.414083 -5.561,7.90569 7.926,29.22786 10.794,50.043 z"
     id="path2820"
     sodipodi:nodetypes="ccsssssssssssscs" />
</svg>
