<?xml version="1.0" encoding="UTF-8" standalone="no"?>
<!-- Created with Inkscape (http://www.inkscape.org/) -->

<svg
   xmlns:dc="http://purl.org/dc/elements/1.1/"
   xmlns:cc="http://creativecommons.org/ns#"
   xmlns:rdf="http://www.w3.org/1999/02/22-rdf-syntax-ns#"
   xmlns:svg="http://www.w3.org/2000/svg"
   xmlns="http://www.w3.org/2000/svg"
   xmlns:sodipodi="http://sodipodi.sourceforge.net/DTD/sodipodi-0.dtd"
   xmlns:inkscape="http://www.inkscape.org/namespaces/inkscape"
   version="1.0"
   width="1000"
   height="1000"
   id="svg5496"
   sodipodi:version="0.32"
   inkscape:version="0.47pre4 r22446"
   sodipodi:docname="lam+dal.isol.svg"
   inkscape:output_extension="org.inkscape.output.svg.inkscape">
  <metadata
     id="metadata5594">
    <rdf:RDF>
      <cc:Work
         rdf:about="">
        <dc:format>image/svg+xml</dc:format>
        <dc:type
           rdf:resource="http://purl.org/dc/dcmitype/StillImage" />
      </cc:Work>
    </rdf:RDF>
  </metadata>
  <sodipodi:namedview
     inkscape:pageshadow="2"
     inkscape:pageopacity="0.0"
     guidetolerance="10.0"
     gridtolerance="10.0"
     objecttolerance="10.0"
     borderopacity="1.0"
     bordercolor="#666666"
     pagecolor="#ffffff"
     id="base"
     showgrid="false"
     showguides="true"
     inkscape:guide-bbox="true"
     inkscape:zoom="0.454"
     inkscape:cx="492.28518"
     inkscape:cy="348.24746"
     inkscape:window-x="0"
     inkscape:window-y="24"
     inkscape:current-layer="svg5496"
     inkscape:window-width="1280"
     inkscape:window-height="725"
     inkscape:window-maximized="1">
    <sodipodi:guide
       orientation="horizontal"
       position="200"
       id="guide5596" />
  </sodipodi:namedview>
  <defs
     id="defs5498">
    <inkscape:perspective
       sodipodi:type="inkscape:persp3d"
       inkscape:vp_x="0 : 500 : 1"
       inkscape:vp_y="0 : 1000 : 0"
       inkscape:vp_z="1000 : 500 : 1"
       inkscape:persp3d-origin="500 : 333.33333 : 1"
       id="perspective8" />
    <inkscape:perspective
       sodipodi:type="inkscape:persp3d"
       inkscape:vp_x="0 : 526.18109 : 1"
       inkscape:vp_y="0 : 1000 : 0"
       inkscape:vp_z="744.09448 : 526.18109 : 1"
       inkscape:persp3d-origin="372.04724 : 350.78739 : 1"
       id="perspective2524" />
    <inkscape:perspective
       id="perspective2389"
       inkscape:persp3d-origin="500 : 333.33333 : 1"
       inkscape:vp_z="1000 : 500 : 1"
       inkscape:vp_y="0 : 1000 : 0"
       inkscape:vp_x="0 : 500 : 1"
       sodipodi:type="inkscape:persp3d" />
    <inkscape:perspective
       id="perspective2583"
       inkscape:persp3d-origin="372.04724 : 350.78739 : 1"
       inkscape:vp_z="744.09448 : 526.18109 : 1"
       inkscape:vp_y="0 : 1000 : 0"
       inkscape:vp_x="0 : 526.18109 : 1"
       sodipodi:type="inkscape:persp3d" />
    <inkscape:perspective
       id="perspective4404"
       inkscape:persp3d-origin="0.5 : 0.33333333 : 1"
       inkscape:vp_z="1 : 0.5 : 1"
       inkscape:vp_y="0 : 1000 : 0"
       inkscape:vp_x="0 : 0.5 : 1"
       sodipodi:type="inkscape:persp3d" />
  </defs>
  <g
     id="layer1"
     transform="translate(-204.84581,-24.229075)" />
  <path
     style="fill:#ff0000;fill-opacity:0.60784314;fill-rule:evenodd;stroke:#000000;stroke-width:1;stroke-linecap:butt;stroke-linejoin:miter;stroke-miterlimit:4;stroke-opacity:1;stroke-dasharray:none"
     d="m 403.85297,21.313691 c -4.055,0.1275 -8.348,2.2856 -12.218,6.1874 -13.308,15.24 -14.973,23.403 -20.282,38.8126 -4.778,13.8658 -2.259,24.8638 0,36.343699 0,0.033 7.511,15.2278 12.875,42.625 18.399,93.9803 61.888,293.8817 81.625,430.875 1.721,13.305 14.872,103.5268 -2.781,109.0937 -8.93,1.6221 -40.534,3.6522 -69.781,-11.7812 -27.57,-14.5484 -45.164,-46.3216 -57.156,-78.1562 -1.267,-3.5662 -2.37,-6.6004 -3.594,-10.0313 l 0.156,-0.1563 c -30.765,-90.2053 -49.155,-180.4194 -70.094,-270.625 -2.185,-9.4142 -6.915,-12.3036 -10.125,-6.625 l -20.25,35.8438 c -2.889,5.1103 -3.254,23.1244 -1.625,30.4375 l 43.688,196.1563 c -2.722,34.7876 -41.435,74.0531 -128.5,86.4374 -43.063,6.1256 -87.643002,2.2592 -111.375002,-41.25 -5.704,-10.6017 -13.741,-8.6685 -17.5,1.5626 -25.945,70.6213 -22.6080002,132.12924 27.625,143.28124 51.185,11.3631 135.775002,-13.6899 192.375002,-43.625 18.754,-9.91844 39.46,-51.89174 52.156,-91.50004 l 0.25,-0.25 c 18.105,55.9705 47.35,119.01974 80.594,155.03124 17.298,18.7374 84.145,34.8466 108.625,-16.1562 13.926,-28.8319 21.526,-60.65714 23.875,-92.68754 1.186,-0.3387 6.961,-100.392 -2.531,-166.2813 -17.87,-124.0353 -56.937,-304.8829 -65.844,-358.0312 24.3,-20.9993 26.886,-30.6872 29.687,-40.7188 3.042,-10.893899 -3.054,-19.104499 -10.937,-24.281199 -20.92,-13.7376 -26.206,-25.3459 -35.969,-50.3125 -2.941,-7.1873 -7.755,-10.3827 -12.969,-10.2187 z"
     id="path4393"
     sodipodi:nodetypes="cccccccsccccccccccccccccccccsscc" />
</svg>
