<?xml version="1.0" encoding="UTF-8" standalone="no"?>
<!-- Created with Inkscape (http://www.inkscape.org/) -->

<svg
   xmlns:dc="http://purl.org/dc/elements/1.1/"
   xmlns:cc="http://creativecommons.org/ns#"
   xmlns:rdf="http://www.w3.org/1999/02/22-rdf-syntax-ns#"
   xmlns:svg="http://www.w3.org/2000/svg"
   xmlns="http://www.w3.org/2000/svg"
   xmlns:sodipodi="http://sodipodi.sourceforge.net/DTD/sodipodi-0.dtd"
   xmlns:inkscape="http://www.inkscape.org/namespaces/inkscape"
   version="1.0"
   width="1000"
   height="1000"
   id="svg5496"
   sodipodi:version="0.32"
   inkscape:version="0.47pre0 r21549"
   sodipodi:docname="lam+heh.init.svg"
   inkscape:output_extension="org.inkscape.output.svg.inkscape">
  <metadata
     id="metadata5594">
    <rdf:RDF>
      <cc:Work
         rdf:about="">
        <dc:format>image/svg+xml</dc:format>
        <dc:type
           rdf:resource="http://purl.org/dc/dcmitype/StillImage" />
        <dc:title></dc:title>
      </cc:Work>
    </rdf:RDF>
  </metadata>
  <sodipodi:namedview
     inkscape:window-height="721"
     inkscape:pageshadow="2"
     inkscape:pageopacity="0.0"
     borderopacity="1.0"
     bordercolor="#666666"
     pagecolor="#ffffff"
     id="base"
     showgrid="false"
     showguides="true"
     inkscape:guide-bbox="true"
     inkscape:zoom="0.64205296"
     inkscape:cx="145.37445"
     inkscape:cy="506.90551"
     inkscape:window-x="0"
     inkscape:window-y="28"
     inkscape:current-layer="svg5496"
     inkscape:window-width="1280"
     inkscape:window-maximized="1">
    <sodipodi:guide
       orientation="horizontal"
       position="200"
       id="guide5596" />
  </sodipodi:namedview>
  <defs
     id="defs5498">
    <inkscape:perspective
       sodipodi:type="inkscape:persp3d"
       inkscape:vp_x="0 : 500 : 1"
       inkscape:vp_y="0 : 1000 : 0"
       inkscape:vp_z="1000 : 500 : 1"
       inkscape:persp3d-origin="500 : 333.33333 : 1"
       id="perspective8" />
    <inkscape:perspective
       id="perspective2822"
       inkscape:persp3d-origin="0.5 : 0.33333333 : 1"
       inkscape:vp_z="1 : 0.5 : 1"
       inkscape:vp_y="0 : 1000 : 0"
       inkscape:vp_x="0 : 0.5 : 1"
       sodipodi:type="inkscape:persp3d" />
  </defs>
  <g
     id="layer1" />
  <path
     style="color:#000000;fill:#000000;fill-opacity:1;stroke:#000000;stroke-width:1px;stroke-linecap:butt;stroke-linejoin:miter;stroke-miterlimit:4;stroke-opacity:1;stroke-dasharray:none;stroke-dashoffset:0;marker:none;visibility:visible;display:inline;overflow:visible;enable-background:accumulate"
     d="m 179.32561,86.251652 c -15.34966,19.953818 -25.00678,48.050978 -30.80327,68.837468 -1.45378,5.2133 -1.07625,7.32883 1.97401,11.37778 8.89931,11.81306 20.48563,28.30555 21.25492,37.00185 10.31717,116.23894 24.48992,209.9345 23.14441,232.06016 -0.9947,16.35691 -28.42071,30.08554 -34.58191,33.62734 -61.424777,35.31033 -132.163607,156.99104 -99.218746,224.03125 0.156641,0.31875 0.290952,0.64474 0.4375,0.96875 -19.59764,4.50958 -38.990321,8.5942 -57.6875005,13.34375 L 2.7512735,800 C 46.317259,785.10897 89.980016,763.18615 122.56377,740.4375 c 63.69802,27.97885 189.66467,30.16478 229.40625,19.40625 8.8781,-2.40341 20.44343,-10.45474 26.84375,-17.09375 28.8698,-29.94644 41.41951,-84.5583 34.65625,-132.15625 -1.43312,-10.08587 -5.92266,-22.37057 -12.9375,-29.96875 -22.51374,-24.38592 -82.03523,-58.08654 -133.34222,-79.87325 -5.86535,-2.49063 -13.41646,-11.11213 -15.20633,-16.86845 -17.82693,-57.33251 -28.90092,-170.42915 -38.69718,-261.05469 7.85162,-17.13694 20.8,-36.76251 32.23964,-56.39438 2.62713,-4.50848 3.70853,-7.67829 0.49863,-11.43759 C 227.906,133.77642 206.65555,116.73315 192.47924,90.3125 189.21288,84.22492 187.53231,75.583344 179.32561,86.251652 z m -8.60559,438.592098 c 43.73556,0.80325 52.1811,72.13911 36.3125,106.09375 -9.99877,11.58156 -36.53688,26.14221 -55.96875,35.03125 -40.58744,-11.54322 -68.559069,-22.76646 -73.968746,-43.28125 -0.486083,-1.84334 -0.661444,-4.36759 0.6875,-7.21875 24.873996,-52.57429 65.478656,-89.87682 92.937496,-90.625 z m 73.75,50.4375 c 47.70203,22.37701 124.31573,62.2651 129.25,97.3125 0.68001,4.83006 -0.32187,5.40806 -4.5625,6.65625 -39.41498,11.60148 -109.18919,7.11157 -172.46875,-3.4375 10.73779,-10.18266 18.87861,-19.25323 25.40625,-28.59375 12.55872,-20.06672 20.44433,-45.43891 22.375,-71.9375 z"
     id="path2830"
     sodipodi:nodetypes="cssssssccccsssssscsssscccssccssccc" />
</svg>
