<?xml version="1.0" encoding="UTF-8" standalone="no"?>
<!-- Created with Inkscape (http://www.inkscape.org/) -->

<svg
   xmlns:dc="http://purl.org/dc/elements/1.1/"
   xmlns:cc="http://creativecommons.org/ns#"
   xmlns:rdf="http://www.w3.org/1999/02/22-rdf-syntax-ns#"
   xmlns:svg="http://www.w3.org/2000/svg"
   xmlns="http://www.w3.org/2000/svg"
   xmlns:sodipodi="http://sodipodi.sourceforge.net/DTD/sodipodi-0.dtd"
   xmlns:inkscape="http://www.inkscape.org/namespaces/inkscape"
   version="1.0"
   width="1000"
   height="1000"
   id="svg5496"
   sodipodi:version="0.32"
   inkscape:version="0.47pre4 r22446"
   sodipodi:docname="lam+yaa.fina.svg"
   inkscape:output_extension="org.inkscape.output.svg.inkscape">
  <metadata
     id="metadata5594">
    <rdf:RDF>
      <cc:Work
         rdf:about="">
        <dc:format>image/svg+xml</dc:format>
        <dc:type
           rdf:resource="http://purl.org/dc/dcmitype/StillImage" />
      </cc:Work>
    </rdf:RDF>
  </metadata>
  <sodipodi:namedview
     inkscape:pageshadow="2"
     inkscape:pageopacity="0.0"
     guidetolerance="10.0"
     gridtolerance="10.0"
     objecttolerance="10.0"
     borderopacity="1.0"
     bordercolor="#666666"
     pagecolor="#ffffff"
     id="base"
     showgrid="false"
     showguides="true"
     inkscape:guide-bbox="true"
     inkscape:zoom="0.34840607"
     inkscape:cx="545.01267"
     inkscape:cy="83.860108"
     inkscape:window-x="0"
     inkscape:window-y="0"
     inkscape:current-layer="svg5496"
     inkscape:window-width="1278"
     inkscape:window-height="767"
     inkscape:window-maximized="1">
    <sodipodi:guide
       orientation="horizontal"
       position="200"
       id="guide5596" />
  </sodipodi:namedview>
  <defs
     id="defs5498">
    <inkscape:perspective
       sodipodi:type="inkscape:persp3d"
       inkscape:vp_x="0 : 500 : 1"
       inkscape:vp_y="0 : 1000 : 0"
       inkscape:vp_z="1000 : 500 : 1"
       inkscape:persp3d-origin="500 : 333.33333 : 1"
       id="perspective2491" />
    <inkscape:perspective
       id="perspective2580"
       inkscape:persp3d-origin="372.04724 : 350.78739 : 1"
       inkscape:vp_z="744.09448 : 526.18109 : 1"
       inkscape:vp_y="0 : 1000 : 0"
       inkscape:vp_x="0 : 526.18109 : 1"
       sodipodi:type="inkscape:persp3d" />
    <inkscape:perspective
       id="perspective4468"
       inkscape:persp3d-origin="0.5 : 0.33333333 : 1"
       inkscape:vp_z="1 : 0.5 : 1"
       inkscape:vp_y="0 : 1000 : 0"
       inkscape:vp_x="0 : 0.5 : 1"
       sodipodi:type="inkscape:persp3d" />
    <inkscape:perspective
       id="perspective3673"
       inkscape:persp3d-origin="0.5 : 0.33333333 : 1"
       inkscape:vp_z="1 : 0.5 : 1"
       inkscape:vp_y="0 : 1000 : 0"
       inkscape:vp_x="0 : 0.5 : 1"
       sodipodi:type="inkscape:persp3d" />
    <inkscape:perspective
       id="perspective2828"
       inkscape:persp3d-origin="0.5 : 0.33333333 : 1"
       inkscape:vp_z="1 : 0.5 : 1"
       inkscape:vp_y="0 : 1000 : 0"
       inkscape:vp_x="0 : 0.5 : 1"
       sodipodi:type="inkscape:persp3d" />
  </defs>
  <path
     style="fill:#ff0000;fill-opacity:0.58823529;stroke:#000000;stroke-width:1px;stroke-linecap:butt;stroke-linejoin:miter;stroke-opacity:1"
     d="m 383.80472,867.3192 c -2.59,12.1419 -3.768,24.2867 -6.054,39.1526 57.05,8.2607 127.404,16.2328 174.851,44.7534 -57.539,65.967 -258.411,142.946 -389.098,101.2414 C 77.779717,1025.65 35.512276,934.3258 51.496718,853.8469 61.130748,805.34123 101.40592,733.56796 114.20944,711.35202 123.77222,694.75924 102.6077,687.07266 95.081822,699.93169 70.977206,741.11786 -0.24908847,866.0052 0.11171821,970.1825 0.46891153,1073.3165 70.212718,1140.2311 156.93372,1158.6289 c 135.82,27.2379 277.989,-22.9805 384.271,-107.5502 37.41735,-29.7774 55.60497,-84.77815 51.39208,-134.14321 -0.54268,-6.35891 -3.07719,-10.23977 -7.29429,-14.66221 -33.87025,-35.51939 -113.57357,-46.51154 -145.89579,-52.76298 -12.60189,-2.43733 -22.24652,-3.76626 -31.29462,-5.03402 -6.23062,6.69449 -13.50629,12.48391 -24.30738,22.84292 z"
     id="path2839"
     sodipodi:nodetypes="ccccssssccssscc" />
  <g
     id="layer1"
     transform="translate(-200,400)" />
  <path
     sodipodi:nodetypes="ccccccscsszcccccc"
     id="path2841"
     d="m 423.23372,115.59548 c -11.362,41.2557 -27.295,80.7131 -19.139,126.6231 16.579,121.59822 35.341,242.94362 50.515,364.70452 2.924,68.9752 9.488,143.6492 -23.566,206.7763 -8.787,21.5538 -35.246,41.4527 -47.239,53.6198 -2.59,12.1419 -3.768,24.2867 -6.054,39.1526 16.71136,-5.65183 46.29619,-30.18152 61.656,-56.9615 26.93792,-46.96653 45.802,-123.9082 48.671,-186.3414 27.526,53.1571 67.91064,108.27141 113.954,136.8311 20.32534,12.60736 46.94001,-61.91364 -0.07,-99.6767 -54.51455,-43.79144 -75.511,-88.2424 -98.617,-188.3952 -23.106,-100.1528 -42.777,-265.33722 -59.963,-397.67592 -3.149,-10.2256 -17.222,-8.3177 -20.146,1.3433 l 0,0 0,0 0,0 -0.002,0 z"
     style="fill:#ff0000;fill-opacity:0.58823529;stroke:#000000;stroke-width:1px;stroke-linecap:butt;stroke-linejoin:miter;stroke-opacity:1" />
</svg>
