<?xml version="1.0" encoding="UTF-8" standalone="no"?>
<!-- Created with Inkscape (http://www.inkscape.org/) -->

<svg
   xmlns:dc="http://purl.org/dc/elements/1.1/"
   xmlns:cc="http://creativecommons.org/ns#"
   xmlns:rdf="http://www.w3.org/1999/02/22-rdf-syntax-ns#"
   xmlns:svg="http://www.w3.org/2000/svg"
   xmlns="http://www.w3.org/2000/svg"
   xmlns:sodipodi="http://sodipodi.sourceforge.net/DTD/sodipodi-0.dtd"
   xmlns:inkscape="http://www.inkscape.org/namespaces/inkscape"
   version="1.0"
   width="1000"
   height="1000"
   id="svg5496"
   sodipodi:version="0.32"
   inkscape:version="0.47pre0 r21549"
   sodipodi:docname="lam+meem+haa.init.svg"
   inkscape:output_extension="org.inkscape.output.svg.inkscape">
  <metadata
     id="metadata5594">
    <rdf:RDF>
      <cc:Work
         rdf:about="">
        <dc:format>image/svg+xml</dc:format>
        <dc:type
           rdf:resource="http://purl.org/dc/dcmitype/StillImage" />
        <dc:title></dc:title>
      </cc:Work>
    </rdf:RDF>
  </metadata>
  <sodipodi:namedview
     inkscape:window-height="721"
     inkscape:pageshadow="2"
     inkscape:pageopacity="0.0"
     borderopacity="1.0"
     bordercolor="#666666"
     pagecolor="#ffffff"
     id="base"
     showgrid="false"
     showguides="true"
     inkscape:guide-bbox="true"
     inkscape:zoom="0.64"
     inkscape:cx="500"
     inkscape:cy="500"
     inkscape:window-x="0"
     inkscape:window-y="28"
     inkscape:current-layer="svg5496"
     inkscape:window-width="1280"
     inkscape:window-maximized="1">
    <sodipodi:guide
       orientation="horizontal"
       position="200"
       id="guide5596" />
  </sodipodi:namedview>
  <defs
     id="defs5498">
    <inkscape:perspective
       sodipodi:type="inkscape:persp3d"
       inkscape:vp_x="0 : 500 : 1"
       inkscape:vp_y="0 : 1000 : 0"
       inkscape:vp_z="1000 : 500 : 1"
       inkscape:persp3d-origin="500 : 333.33333 : 1"
       id="perspective8" />
    <inkscape:perspective
       id="perspective2822"
       inkscape:persp3d-origin="0.5 : 0.33333333 : 1"
       inkscape:vp_z="1 : 0.5 : 1"
       inkscape:vp_y="0 : 1000 : 0"
       inkscape:vp_x="0 : 0.5 : 1"
       sodipodi:type="inkscape:persp3d" />
  </defs>
  <g
     id="layer1"
     transform="translate(-150,77.53125)"
     style="fill:#000000;fill-opacity:1;stroke:#000000;stroke-opacity:1" />
  <path
     style="color:#000000;fill:#000000;stroke:#000000;stroke-width:1px;stroke-linecap:butt;stroke-linejoin:miter;stroke-miterlimit:4;stroke-opacity:1;stroke-dasharray:none;stroke-dashoffset:0;marker:none;visibility:visible;display:inline;overflow:visible;enable-background:accumulate;fill-opacity:1"
     d="m 366.03125,3.90625 c -1.26597,0.10037 -2.67929,0.85082 -3.9375,2.03125 -17.16175,16.100816 -28.87189,31.855063 -40.90625,48.4375 -2.47008,3.403586 -3.33295,6.551745 -1.90625,9.5 4.99988,10.332191 11.47024,18.860235 13.09375,27.96875 15.26676,85.65249 41.24824,242.36432 42.71875,262.96875 0.34049,4.7709 -3.10565,11.30067 -7.32813,12.34375 -90.74134,22.41584 -208.33961,82.22637 -309.85937,142.53125 -3.55596,2.11232 -5.86359,3.79186 -8.09375,7.0625 -15.25752,22.37592 -30.66138,42.476 -40.375,66.96875 -3.61922,9.1258 -2.80893,12.86386 6.71875,13.875 87.92764,9.3315 232.34179,39.71638 243.78125,53.28125 C 191.20941,674.08269 90.91407,697.01266 5.03125,704.5 l -5.25,95.5 c 70.14235,-12.28948 177.58411,-57.31044 266.03125,-82.90625 94.36114,-27.30728 190.92657,-45.67763 297.53125,-35.15625 6.66655,0.65796 8.26951,-1.57022 10.4375,-7.1875 11.64106,-30.16216 23.88872,-61.28492 25.9375,-94.03125 0.66842,-10.68359 -0.0929,-11.19338 -10.15625,-9.75 -63.06984,9.046 -125.82402,14.21078 -250.01672,-3.40567 -65.22874,-9.25255 -105.8537,-15.99987 -211.23328,-49.75058 83.52308,-45.6343 164.3198,-73.77998 230.59375,-70.40625 51.70498,2.63208 101.9002,26.16616 150.28125,62.4375 3.87289,2.90351 6.17807,-0.5253 7.28125,-3.78125 9.86032,-29.10189 15.53365,-60.57943 18.65625,-91.84375 0.56806,-5.68756 -0.8339,-9.95054 -5.09375,-13.40625 -34.691,-28.14232 -55.84821,-37.06253 -91.42187,-40.90625 -5.50491,-0.5948 -12.67993,-8.473 -17.39063,-16.125 C 408.53237,323.17368 395.43559,199.44579 387.25,134.625 c 11.13659,-14.02122 25.77986,-26.0268 34.3125,-42.21875 2.15031,-4.080543 1.75903,-5.971308 0.0937,-9.9375 C 416.40013,69.950734 388.63232,39.746166 375.24995,19.3125 372.39249,14.949407 370.58518,10.915906 369.6562,7.125 369.06385,4.707809 367.65888,3.777203 366.0312,3.90625 l 5e-5,0 z"
     id="path2828"
     sodipodi:nodetypes="csssssssssscccsssssscssssssscsssscc" />
</svg>
