<?xml version="1.0" encoding="UTF-8" standalone="no"?>
<!-- Created with Inkscape (http://www.inkscape.org/) -->

<svg
   xmlns:dc="http://purl.org/dc/elements/1.1/"
   xmlns:cc="http://creativecommons.org/ns#"
   xmlns:rdf="http://www.w3.org/1999/02/22-rdf-syntax-ns#"
   xmlns:svg="http://www.w3.org/2000/svg"
   xmlns="http://www.w3.org/2000/svg"
   xmlns:sodipodi="http://sodipodi.sourceforge.net/DTD/sodipodi-0.dtd"
   xmlns:inkscape="http://www.inkscape.org/namespaces/inkscape"
   version="1.0"
   width="1000"
   height="1000"
   id="svg5496"
   sodipodi:version="0.32"
   inkscape:version="0.47pre4 r22446"
   sodipodi:docname="lam+meem+haa.init.svg"
   inkscape:output_extension="org.inkscape.output.svg.inkscape">
  <metadata
     id="metadata5594">
    <rdf:RDF>
      <cc:Work
         rdf:about="">
        <dc:format>image/svg+xml</dc:format>
        <dc:type
           rdf:resource="http://purl.org/dc/dcmitype/StillImage" />
        <dc:title />
      </cc:Work>
    </rdf:RDF>
  </metadata>
  <sodipodi:namedview
     inkscape:window-height="767"
     inkscape:pageshadow="2"
     inkscape:pageopacity="0.0"
     borderopacity="1.0"
     bordercolor="#666666"
     pagecolor="#ffffff"
     id="base"
     showgrid="false"
     showguides="true"
     inkscape:guide-bbox="true"
     inkscape:zoom="0.48270819"
     inkscape:cx="405.24717"
     inkscape:cy="845.4832"
     inkscape:window-x="0"
     inkscape:window-y="0"
     inkscape:current-layer="svg5496"
     inkscape:window-width="1278"
     inkscape:window-maximized="1">
    <sodipodi:guide
       orientation="horizontal"
       position="200"
       id="guide5596" />
  </sodipodi:namedview>
  <defs
     id="defs5498">
    <inkscape:perspective
       sodipodi:type="inkscape:persp3d"
       inkscape:vp_x="0 : 500 : 1"
       inkscape:vp_y="0 : 1000 : 0"
       inkscape:vp_z="1000 : 500 : 1"
       inkscape:persp3d-origin="500 : 333.33333 : 1"
       id="perspective8" />
    <inkscape:perspective
       id="perspective2822"
       inkscape:persp3d-origin="0.5 : 0.33333333 : 1"
       inkscape:vp_z="1 : 0.5 : 1"
       inkscape:vp_y="0 : 1000 : 0"
       inkscape:vp_x="0 : 0.5 : 1"
       sodipodi:type="inkscape:persp3d" />
    <inkscape:perspective
       id="perspective4943"
       inkscape:persp3d-origin="0.5 : 0.33333333 : 1"
       inkscape:vp_z="1 : 0.5 : 1"
       inkscape:vp_y="0 : 1000 : 0"
       inkscape:vp_x="0 : 0.5 : 1"
       sodipodi:type="inkscape:persp3d" />
    <inkscape:perspective
       id="perspective2866"
       inkscape:persp3d-origin="0.5 : 0.33333333 : 1"
       inkscape:vp_z="1 : 0.5 : 1"
       inkscape:vp_y="0 : 1000 : 0"
       inkscape:vp_x="0 : 0.5 : 1"
       sodipodi:type="inkscape:persp3d" />
    <inkscape:perspective
       id="perspective2845"
       inkscape:persp3d-origin="0.5 : 0.33333333 : 1"
       inkscape:vp_z="1 : 0.5 : 1"
       inkscape:vp_y="0 : 1000 : 0"
       inkscape:vp_x="0 : 0.5 : 1"
       sodipodi:type="inkscape:persp3d" />
  </defs>
  <path
     style="color:#000000;fill:#ff0000;fill-opacity:0.60784314;stroke:#000000;stroke-width:1;stroke-linecap:butt;stroke-linejoin:miter;stroke-miterlimit:4;stroke-opacity:1;stroke-dasharray:none;stroke-dashoffset:0;marker:none;visibility:visible;display:inline;overflow:visible;enable-background:accumulate"
     d="m 54.0577,523.9333 c -3.717086,1.21487 -5.5804,3.6086 -7.7028,6.7213 -14.5205,21.295 -29.1802,40.4241 -38.4246,63.7336 -3.4444,8.685 -2.6733,12.2425 6.3942,13.2047 83.6801,8.8808 221.118,37.7978 232.0048,50.7075 C 180.9213,680.387 81.447846,701.95822 -0.2632,709.3349 -40.719344,712.98718 -25.117131,804.28101 0,800 66.805505,788.61355 168.0701,746.7731 251.9206,721.3202 337.53441,695.332 412.67941,672.802 535.0788,683.8623 c 6.3496,0.5738 7.87,-1.4945 9.93331,-6.8402 11.0787,-28.7052 22.73469,-54.3245 24.6846,-85.4889 0.6361,-10.1675 -0.089,-10.6528 -9.6657,-9.279 -60.0231,8.609 -119.7458,13.5242 -237.9391,-3.2412 -62.0777,-8.8056 -110.22024,-17.24012 -201.0291,-45.3472 -20.69204,-6.40458 -53.287697,-14.21581 -67.00511,-9.7325 z"
     id="path2818"
     sodipodi:nodetypes="cssscssssssssss" />
  <g
     id="layer1"
     transform="translate(-150,137.53125)"
     style="fill:#000000;fill-opacity:1;stroke:#000000;stroke-opacity:1" />
  <path
     sodipodi:nodetypes="cssssssssssss"
     id="path2820"
     d="m 348.9485,388.2873 c -86.54058,20.48805 -198.2752,78.2542 -294.8908,135.646 -3.3842,2.0103 -5.5804,3.6086 -7.7028,6.7213 -14.5205,21.295 -29.1802,40.4241 -38.4246,63.7336 -3.4444,8.685 -1.4562994,13.78323 7.39662,12.70349 10.351249,-1.26248 67.651493,-52.8848 105.73589,-73.42589 79.60551,-42.93579 156.382,-76.2159 219.4544,-73.0052 49.2072,2.505 96.9776,28.9022 143.0215,63.4213 3.6859,2.7632 5.8796,-0.4999 6.9295,-3.5985 9.384,-27.6961 14.7834,-57.6531 17.7551,-87.4071 0.5406,-5.4128 -0.7937,-9.4698 -4.8478,-12.7586 -33.0151,-26.7829 -55.0793,-35.35794 -87.0055,-38.9302 -24.59753,-2.75225 -50.09453,2.79772 -67.42151,6.8998 z"
     style="color:#000000;fill:#ff0000;fill-opacity:0.60784314;stroke:#000000;stroke-width:1;stroke-linecap:butt;stroke-linejoin:miter;stroke-miterlimit:4;stroke-opacity:1;stroke-dasharray:none;stroke-dashoffset:0;marker:none;visibility:visible;display:inline;overflow:visible;enable-background:accumulate" />
  <path
     sodipodi:nodetypes="csssssssssscssss"
     id="path2859"
     d="m 324.87356,36.827501 c -5.83568,16.284583 -10.28118,27.242881 -16.59086,44.632726 -4.0114,11.055641 0.40513,25.159123 1.48175,28.084363 1.46246,3.97359 4.4672,11.23623 5.50315,16.7298 11.89797,63.09441 39.07691,230.67019 40.6551,250.26551 4.25704,52.85683 63.18427,103.94195 127.61601,147.542 3.81515,2.58166 5.8796,-0.4999 6.9295,-3.5985 9.384,-27.6961 14.7834,-57.6531 17.7551,-87.4071 0.5406,-5.4128 -0.68056,-9.61439 -4.8478,-12.7586 -31.51147,-23.77564 -57.15998,-35.2722 -87.0055,-38.9302 -5.23026,-0.64104 -12.0674,-8.0637 -16.5505,-15.346 -12.0736,-19.6122 -23.80516,-136.81367 -31.59536,-198.50317 2.23933,-5.00844 18.0044,-26.07457 24.96441,-37.43267 4.90055,-7.99724 -0.28671,-17.40716 -3.38908,-20.07774 C 366.02536,89.562603 354.37537,61.493219 343.07145,37.28798 339.8956,30.487491 328.17664,27.610211 324.87356,36.827501 z"
     style="color:#000000;fill:#ff0000;fill-opacity:0.60784314;stroke:#000000;stroke-width:1;stroke-linecap:butt;stroke-linejoin:miter;stroke-miterlimit:4;stroke-opacity:1;stroke-dasharray:none;stroke-dashoffset:0;marker:none;visibility:visible;display:inline;overflow:visible;enable-background:accumulate" />
</svg>
