<?xml version="1.0" encoding="UTF-8" standalone="no"?>
<!-- Created with Inkscape (http://www.inkscape.org/) -->

<svg
   xmlns:dc="http://purl.org/dc/elements/1.1/"
   xmlns:cc="http://creativecommons.org/ns#"
   xmlns:rdf="http://www.w3.org/1999/02/22-rdf-syntax-ns#"
   xmlns:svg="http://www.w3.org/2000/svg"
   xmlns="http://www.w3.org/2000/svg"
   xmlns:sodipodi="http://sodipodi.sourceforge.net/DTD/sodipodi-0.dtd"
   xmlns:inkscape="http://www.inkscape.org/namespaces/inkscape"
   version="1.0"
   width="1000"
   height="1000"
   id="svg5496"
   sodipodi:version="0.32"
   inkscape:version="0.47pre4 r22446"
   sodipodi:docname="lam+meem+haa.init.svg"
   inkscape:output_extension="org.inkscape.output.svg.inkscape">
  <metadata
     id="metadata5594">
    <rdf:RDF>
      <cc:Work
         rdf:about="">
        <dc:format>image/svg+xml</dc:format>
        <dc:type
           rdf:resource="http://purl.org/dc/dcmitype/StillImage" />
        <dc:title />
      </cc:Work>
    </rdf:RDF>
  </metadata>
  <sodipodi:namedview
     inkscape:window-height="618"
     inkscape:pageshadow="2"
     inkscape:pageopacity="0.0"
     borderopacity="1.0"
     bordercolor="#666666"
     pagecolor="#ffffff"
     id="base"
     showgrid="false"
     showguides="true"
     inkscape:guide-bbox="true"
     inkscape:zoom="0.32"
     inkscape:cx="500"
     inkscape:cy="500"
     inkscape:window-x="-1"
     inkscape:window-y="25"
     inkscape:current-layer="svg5496"
     inkscape:window-width="641"
     inkscape:window-maximized="0">
    <sodipodi:guide
       orientation="horizontal"
       position="200"
       id="guide5596" />
  </sodipodi:namedview>
  <defs
     id="defs5498">
    <inkscape:perspective
       sodipodi:type="inkscape:persp3d"
       inkscape:vp_x="0 : 500 : 1"
       inkscape:vp_y="0 : 1000 : 0"
       inkscape:vp_z="1000 : 500 : 1"
       inkscape:persp3d-origin="500 : 333.33333 : 1"
       id="perspective8" />
    <inkscape:perspective
       id="perspective2822"
       inkscape:persp3d-origin="0.5 : 0.33333333 : 1"
       inkscape:vp_z="1 : 0.5 : 1"
       inkscape:vp_y="0 : 1000 : 0"
       inkscape:vp_x="0 : 0.5 : 1"
       sodipodi:type="inkscape:persp3d" />
    <inkscape:perspective
       id="perspective4943"
       inkscape:persp3d-origin="0.5 : 0.33333333 : 1"
       inkscape:vp_z="1 : 0.5 : 1"
       inkscape:vp_y="0 : 1000 : 0"
       inkscape:vp_x="0 : 0.5 : 1"
       sodipodi:type="inkscape:persp3d" />
  </defs>
  <g
     id="layer1"
     transform="translate(-150,77.53125)"
     style="fill:#000000;fill-opacity:1;stroke:#000000;stroke-opacity:1" />
  <path
     style="color:#000000;fill:#ff0000;fill-opacity:0.60784314;stroke:#000000;stroke-width:1;stroke-linecap:butt;stroke-linejoin:miter;stroke-miterlimit:4;stroke-opacity:1;stroke-dasharray:none;stroke-dashoffset:0;marker:none;visibility:visible;display:inline;overflow:visible;enable-background:accumulate"
     d="m 347.29791,42.584891 c -1.2048,0.096 -2.5499,0.8097 -3.7472,1.9332 -16.3327,15.3229 -27.4772,30.3162 -38.9302,46.0976 -2.3508,3.2392 -3.17201,6.2352 -1.81421,9.041 4.7584,9.833099 10.9162,17.949099 12.4613,26.617699 14.5292,81.51481 39.25561,230.65631 40.6551,250.26551 0.3241,4.5404 -2.9556,10.7546 -6.9742,11.7474 -86.35779,21.333 -198.2752,78.2542 -294.8908,135.646 -3.3842,2.0103 -5.5804,3.6086 -7.7028,6.7213 -14.5205,21.295 -29.1802,40.4241 -38.4246,63.7336 -3.4444,8.685 -2.6733,12.2425 6.3942,13.2047 83.6801,8.8808 221.118,37.7978 232.0048,50.7075 -65.408,22.0866 -164.8584,43.9088 -246.5925,51.0345 L 0,800 c 66.754,-11.6958 168.0701,-53.2269 251.9206,-78.6798 85.61381,-25.9882 160.75881,-48.5182 283.1582,-37.4579 6.3496,0.5738 7.87,-1.4945 9.93331,-6.8402 11.0787,-28.7052 22.73469,-54.3245 24.6846,-85.4889 0.6361,-10.1675 -0.089,-10.6528 -9.6657,-9.279 -60.0231,8.609 -119.7458,13.5242 -237.9391,-3.2412 -62.0777,-8.8056 -110.1652,-17.4159 -201.0291,-45.3472 79.4882,-43.4298 156.382,-76.2159 219.4544,-73.0052 49.2072,2.505 96.9776,28.9022 143.0215,63.4213 3.6859,2.7632 5.8796,-0.4999 6.9295,-3.5985 9.384,-27.6961 14.7834,-57.6531 17.7551,-87.4071 0.5406,-5.4128 -0.7937,-9.4698 -4.8478,-12.7586 -33.0151,-26.7829 -53.1503,-35.2722 -87.0055,-38.9302 -5.2389,-0.5661 -12.0674,-8.0637 -16.5505,-15.346 -12.0736,-19.6122 -24.5376,-137.363 -32.3278,-199.0525 10.5986,-13.344 24.5344,-24.76951 32.655,-40.17931 2.0464,-3.8834 1.674,-5.6828 0.09,-9.4574 -5.0021,-11.9133 -31.4286,-40.658899 -44.1645,-60.105399 -2.7193,-4.1523 -4.4394,-7.9909 -5.3235,-11.5987 -0.5637,-2.3005 -1.9009,-3.1861 -3.4499,-3.0633 l 0,0 -9e-4,0 z"
     id="path2828-0"
     sodipodi:nodetypes="csssssssssscccsssssscssssssscssssccc" />
</svg>
