<?xml version="1.0" encoding="UTF-8" standalone="no"?>
<!-- Created with Inkscape (http://www.inkscape.org/) -->

<svg
   xmlns:dc="http://purl.org/dc/elements/1.1/"
   xmlns:cc="http://creativecommons.org/ns#"
   xmlns:rdf="http://www.w3.org/1999/02/22-rdf-syntax-ns#"
   xmlns:svg="http://www.w3.org/2000/svg"
   xmlns="http://www.w3.org/2000/svg"
   xmlns:sodipodi="http://sodipodi.sourceforge.net/DTD/sodipodi-0.dtd"
   xmlns:inkscape="http://www.inkscape.org/namespaces/inkscape"
   version="1.0"
   width="1000"
   height="1000"
   id="svg5496"
   sodipodi:version="0.32"
   inkscape:version="0.47pre4 r22446"
   sodipodi:docname="lam+alef.isol.svg"
   inkscape:output_extension="org.inkscape.output.svg.inkscape">
  <metadata
     id="metadata5594">
    <rdf:RDF>
      <cc:Work
         rdf:about="">
        <dc:format>image/svg+xml</dc:format>
        <dc:type
           rdf:resource="http://purl.org/dc/dcmitype/StillImage" />
      </cc:Work>
    </rdf:RDF>
  </metadata>
  <sodipodi:namedview
     inkscape:pageshadow="2"
     inkscape:pageopacity="0.0"
     guidetolerance="10.0"
     gridtolerance="10.0"
     objecttolerance="10.0"
     borderopacity="1.0"
     bordercolor="#666666"
     pagecolor="#ffffff"
     id="base"
     showgrid="false"
     showguides="true"
     inkscape:guide-bbox="true"
     inkscape:zoom="0.236"
     inkscape:cx="368.64407"
     inkscape:cy="500"
     inkscape:window-x="0"
     inkscape:window-y="25"
     inkscape:current-layer="svg5496"
     inkscape:window-width="641"
     inkscape:window-height="618"
     inkscape:window-maximized="0">
    <sodipodi:guide
       orientation="horizontal"
       position="200"
       id="guide5596" />
  </sodipodi:namedview>
  <defs
     id="defs5498">
    <inkscape:perspective
       sodipodi:type="inkscape:persp3d"
       inkscape:vp_x="0 : 500 : 1"
       inkscape:vp_y="0 : 1000 : 0"
       inkscape:vp_z="1000 : 500 : 1"
       inkscape:persp3d-origin="500 : 333.33333 : 1"
       id="perspective8" />
    <inkscape:perspective
       id="perspective2477"
       inkscape:persp3d-origin="372.04724 : 350.78739 : 1"
       inkscape:vp_z="744.09448 : 526.18109 : 1"
       inkscape:vp_y="0 : 1000 : 0"
       inkscape:vp_x="0 : 526.18109 : 1"
       sodipodi:type="inkscape:persp3d" />
    <inkscape:perspective
       id="perspective4411"
       inkscape:persp3d-origin="0.5 : 0.33333333 : 1"
       inkscape:vp_z="1 : 0.5 : 1"
       inkscape:vp_y="0 : 1000 : 0"
       inkscape:vp_x="0 : 0.5 : 1"
       sodipodi:type="inkscape:persp3d" />
  </defs>
  <g
     id="layer1"
     transform="matrix(0.5,0,0,0.5,83.260624,225.73458)" />
  <path
     style="fill:#ff0000;fill-opacity:0.60784314;fill-rule:evenodd;stroke:#000000;stroke-width:1;stroke-linecap:butt;stroke-linejoin:miter;stroke-miterlimit:4;stroke-opacity:1;stroke-dasharray:none"
     d="m 485.49029,58.800162 c -2.419,0.10728 -4.879,1.30361 -6.911,3.86657 -10.194,12.86168 -19.572,28.26789 -26.376,47.447788 l -3.927,29.95233 c 9.74,142.63703 4.331,333.03798 -49.841,425.90818 -66.855,-163.597 -299.120995,-450.49008 -361.455995,-499.161178 -6.541,-7.24713 -21.665,-11.86553 -24.382,7.56409 L -0.4077051,161.96659 c -2.7859999,19.92769 2.162,27.84408 11.4760001,38.78221 l 69.177,74.31231 c 7.219,8.47666 17.697,8.48424 24.388005,4.18078 l 14.25699,-25.9141 c 56.682,53.39296 192.988,237.16554 252.731,361.01184 -28.315,40.2643 -66.127,75.2089 -109.882,99.0689 -8.969,2.1569 -33.333,-1.1581 -46.928,-2.6899 -2.727,-0.3072 -11.4,6.2364 -14.05,9.3265 -9.555,11.1475 -15.344,54.3193 -5,72.4 3.169,5.5395 11.015,6.5728 18.823,7.4998 15.599,1.8516 153.434,5.8432 198.821,-6.2041 11.653,-3.0931 30.231,-28.2281 29.864,-58.8912 -0.435,-36.367 -16.774,-87.7244 -30.999,-130.7951 49.655,-64.3425 89.178,-255.11927 84.443,-423.39129 l 30.862,-26.14721 c 6.882,-5.82529 9.886,-20.20287 1.272,-29.97242 -14.689,-16.65677 -24.144,-37.414458 -33.456,-58.710618 -1.92,-4.3917 -5.873,-7.21165 -9.901,-7.03283 z m -98.458,594.434268 c 6.377,15.584 12.316,31.9472 13.539,56.4466 -11.441,4.3261 -51.146,7.627 -66.377,7.4391 18.749,-21.0029 37.624,-42.7756 52.838,-63.8857 z"
     id="path2483-6"
     sodipodi:nodetypes="csccccccccccccscssssccccsccccc" />
</svg>
