<?xml version="1.0" encoding="UTF-8" standalone="no"?>
<!-- Created with Inkscape (http://www.inkscape.org/) -->

<svg
   xmlns:dc="http://purl.org/dc/elements/1.1/"
   xmlns:cc="http://creativecommons.org/ns#"
   xmlns:rdf="http://www.w3.org/1999/02/22-rdf-syntax-ns#"
   xmlns:svg="http://www.w3.org/2000/svg"
   xmlns="http://www.w3.org/2000/svg"
   xmlns:sodipodi="http://sodipodi.sourceforge.net/DTD/sodipodi-0.dtd"
   xmlns:inkscape="http://www.inkscape.org/namespaces/inkscape"
   version="1.0"
   width="1000"
   height="1000"
   id="svg5496"
   sodipodi:version="0.32"
   inkscape:version="0.47pre4 r22446"
   sodipodi:docname="lam+meem.fina.svg"
   inkscape:output_extension="org.inkscape.output.svg.inkscape">
  <metadata
     id="metadata5594">
    <rdf:RDF>
      <cc:Work
         rdf:about="">
        <dc:format>image/svg+xml</dc:format>
        <dc:type
           rdf:resource="http://purl.org/dc/dcmitype/StillImage" />
      </cc:Work>
    </rdf:RDF>
  </metadata>
  <sodipodi:namedview
     inkscape:pageshadow="2"
     inkscape:pageopacity="0.0"
     guidetolerance="10.0"
     gridtolerance="10.0"
     objecttolerance="10.0"
     borderopacity="1.0"
     bordercolor="#666666"
     pagecolor="#ffffff"
     id="base"
     showgrid="false"
     showguides="true"
     inkscape:guide-bbox="true"
     inkscape:zoom="0.454"
     inkscape:cx="679.85396"
     inkscape:cy="199.70527"
     inkscape:window-x="0"
     inkscape:window-y="0"
     inkscape:current-layer="svg5496"
     inkscape:window-width="1214"
     inkscape:window-height="767"
     inkscape:window-maximized="1">
    <sodipodi:guide
       orientation="horizontal"
       position="200"
       id="guide5596" />
  </sodipodi:namedview>
  <defs
     id="defs5498">
    <inkscape:perspective
       sodipodi:type="inkscape:persp3d"
       inkscape:vp_x="0 : 500 : 1"
       inkscape:vp_y="0 : 1000 : 0"
       inkscape:vp_z="1000 : 500 : 1"
       inkscape:persp3d-origin="500 : 333.33333 : 1"
       id="perspective3401" />
    <inkscape:perspective
       sodipodi:type="inkscape:persp3d"
       inkscape:vp_x="0 : 526.18109 : 1"
       inkscape:vp_y="0 : 1000 : 0"
       inkscape:vp_z="744.09448 : 526.18109 : 1"
       inkscape:persp3d-origin="372.04724 : 350.78739 : 1"
       id="perspective2504" />
    <inkscape:perspective
       id="perspective2389"
       inkscape:persp3d-origin="500 : 333.33333 : 1"
       inkscape:vp_z="1000 : 500 : 1"
       inkscape:vp_y="0 : 1000 : 0"
       inkscape:vp_x="0 : 500 : 1"
       sodipodi:type="inkscape:persp3d" />
    <inkscape:perspective
       id="perspective4121"
       inkscape:persp3d-origin="0.5 : 0.33333333 : 1"
       inkscape:vp_z="1 : 0.5 : 1"
       inkscape:vp_y="0 : 1000 : 0"
       inkscape:vp_x="0 : 0.5 : 1"
       sodipodi:type="inkscape:persp3d" />
  </defs>
  <g
     id="layer1" />
  <g
     id="g3403"
     transform="translate(330.39648,-667.40088)" />
  <g
     id="g3405"
     transform="matrix(0.5,0,0,0.5,67.180554,807.26875)" />
  <path
     style="fill:#ff0000;fill-opacity:0.60784314;fill-rule:evenodd;stroke:#000000;stroke-width:1;stroke-linecap:butt;stroke-linejoin:miter;stroke-miterlimit:4;stroke-opacity:1;stroke-dasharray:none"
     d="M 256.50007,560.51711 C 275.89087,699.3314 323.99977,787.1334 383.28297,800 l 0.1002,-90.0285 c -57.1008,-46.7184 -80.6836,-117.2417 -88.2371,-176.4438 -20.5962,-161.4275 -31.7898,-301.1629 -47.0539,-457.0941 -1.4354,-18.977 -9.1166,-23.2046 -16.9606,-13.4159 l -24.5868,47.0405 c -3.0019,6.4011 -6.6214,10.1859 -5.8408,22.4512 27.0294,264.065 26.4019,330.7435 29.579,398.5357 2.045,87.0926 -19.6988,172.3701 -110.4718,204.5307 -10.4669,4.5078 -35.225695,13.7599 -34.934995,36.1409 l 0.7241,55.7432 c 7.2577,4.0403 13.0811,6.4366 21.116995,11.6755 -75.827795,19.524 -113.8399951,64.1346 -119.373395,137.794 -4.8621,92.3618 17.2716999,184.6521 33.5351,275.2638 14.3597,80.3371 11.1052,123.6302 11.1052,123.6302 -2.3753,41.6659 26.8841,43.0023 34.1166,3.7494 3.1026,-16.8387 7.5184,-23.6894 2.0472,-94.1712 -3.4901,-44.9614 -12.4772,-89.1313 -20.7414,-134.0225 -13.3126,-72.313 -30.816,-153.9467 -25.6435,-174.0147 57.6776,-68.9945 156.262695,-68.5706 242.725495,-64.8531 11.9974,0.5158 23.9146,2.554 26.9746,-9.5306 3.9817,-14.2486 18.0199,-66.1883 18.0199,-66.1883 2.8216,-14.6763 -5.7395,-17.7581 -12.2803,-22.4456 -33.7063,-24.156 -49.4278,-34.5239 -106.4098,-64.551 38.9749,-43.1042 59.6069,-92.0069 65.7071,-189.27869 z"
     id="path2572-1"
     sodipodi:nodetypes="cccsccccccscccccssscsccscc" />
</svg>
