<?xml version="1.0" encoding="UTF-8" standalone="no"?>
<!-- Created with Inkscape (http://www.inkscape.org/) -->

<svg
   xmlns:dc="http://purl.org/dc/elements/1.1/"
   xmlns:cc="http://creativecommons.org/ns#"
   xmlns:rdf="http://www.w3.org/1999/02/22-rdf-syntax-ns#"
   xmlns:svg="http://www.w3.org/2000/svg"
   xmlns="http://www.w3.org/2000/svg"
   xmlns:sodipodi="http://sodipodi.sourceforge.net/DTD/sodipodi-0.dtd"
   xmlns:inkscape="http://www.inkscape.org/namespaces/inkscape"
   version="1.0"
   width="1000"
   height="1000"
   id="svg5496"
   sodipodi:version="0.32"
   inkscape:version="0.47pre4 r22446"
   sodipodi:docname="lam+heh.fina.svg"
   inkscape:output_extension="org.inkscape.output.svg.inkscape">
  <metadata
     id="metadata5594">
    <rdf:RDF>
      <cc:Work
         rdf:about="">
        <dc:format>image/svg+xml</dc:format>
        <dc:type
           rdf:resource="http://purl.org/dc/dcmitype/StillImage" />
      </cc:Work>
    </rdf:RDF>
  </metadata>
  <sodipodi:namedview
     inkscape:pageshadow="2"
     inkscape:pageopacity="0.0"
     guidetolerance="10.0"
     gridtolerance="10.0"
     objecttolerance="10.0"
     borderopacity="1.0"
     bordercolor="#666666"
     pagecolor="#ffffff"
     id="base"
     showgrid="false"
     showguides="true"
     inkscape:guide-bbox="true"
     inkscape:zoom="0.454"
     inkscape:cx="551.62384"
     inkscape:cy="440.44591"
     inkscape:window-x="0"
     inkscape:window-y="24"
     inkscape:current-layer="svg5496"
     inkscape:window-width="1280"
     inkscape:window-height="725"
     inkscape:window-maximized="1">
    <sodipodi:guide
       orientation="horizontal"
       position="200"
       id="guide5596" />
  </sodipodi:namedview>
  <defs
     id="defs5498">
    <inkscape:perspective
       sodipodi:type="inkscape:persp3d"
       inkscape:vp_x="0 : 500 : 1"
       inkscape:vp_y="0 : 1000 : 0"
       inkscape:vp_z="1000 : 500 : 1"
       inkscape:persp3d-origin="500 : 333.33333 : 1"
       id="perspective8" />
    <inkscape:perspective
       id="perspective2477"
       inkscape:persp3d-origin="372.04724 : 350.78739 : 1"
       inkscape:vp_z="744.09448 : 526.18109 : 1"
       inkscape:vp_y="0 : 1000 : 0"
       inkscape:vp_x="0 : 526.18109 : 1"
       sodipodi:type="inkscape:persp3d" />
    <inkscape:perspective
       sodipodi:type="inkscape:persp3d"
       inkscape:vp_x="0 : 526.18109 : 1"
       inkscape:vp_y="0 : 1000 : 0"
       inkscape:vp_z="744.09448 : 526.18109 : 1"
       inkscape:persp3d-origin="372.04724 : 350.78739 : 1"
       id="perspective2524" />
    <inkscape:perspective
       id="perspective2389"
       inkscape:persp3d-origin="500 : 333.33333 : 1"
       inkscape:vp_z="1000 : 500 : 1"
       inkscape:vp_y="0 : 1000 : 0"
       inkscape:vp_x="0 : 500 : 1"
       sodipodi:type="inkscape:persp3d" />
    <inkscape:perspective
       id="perspective2782"
       inkscape:persp3d-origin="372.04724 : 350.78739 : 1"
       inkscape:vp_z="744.09448 : 526.18109 : 1"
       inkscape:vp_y="0 : 1000 : 0"
       inkscape:vp_x="0 : 526.18109 : 1"
       sodipodi:type="inkscape:persp3d" />
    <inkscape:perspective
       id="perspective3711"
       inkscape:persp3d-origin="0.5 : 0.33333333 : 1"
       inkscape:vp_z="1 : 0.5 : 1"
       inkscape:vp_y="0 : 1000 : 0"
       inkscape:vp_x="0 : 0.5 : 1"
       sodipodi:type="inkscape:persp3d" />
  </defs>
  <g
     id="layer1" />
  <g
     id="g2596"
     transform="translate(-379.9765,-145.96646)">
    <g
       style="stroke:#000000;stroke-width:2;stroke-miterlimit:4;stroke-dasharray:none;stroke-opacity:1"
       transform="matrix(0.5,0,0,0.5,221.36564,169.60355)"
       id="g2598" />
  </g>
  <path
     id="path2775-0"
     d="m 189.59678,639.4175 c -9.05317,41.5107 -17.57212,56.9238 -22.12338,65.3874 -8.18557,15.5493 -15.1245,20.8788 -24.9519,23.5206 -43.74404,8.4532 -113.446503,4.3047 -125.271063,-5.9342 -7.68558,-6.6541 -22.42248,-23.5929 -16.0026,-42.4078 5.33991,-15.6474 21.94443,-57.658 25.27861,-66.7313 6.07513,-16.535 17.11874,-28.1633 17.11874,-28.1633 33.53366,-33.4433 75.166343,-58.7551 117.813533,-79.0339 l -5.8799,-38.8488 c -0.65809,-5.6599 -1.92854,-18.3816 0.62952,-27.80619 l 19.46249,-45.10973 c 13.05597,-13.82259 12.79782,4.3057 16.49021,12.95406 13.11877,53.68826 26.66461,150.63096 51.57269,232.80286 25.84926,85.2768 63.93564,154.6454 126.48134,143.2512 30.76325,-6.3828 27.31195,-71.433 19.86916,-116.8013 -25.97668,-158.3583 -48.15086,-291.62913 -71.40851,-459.24332 -1.88092,-13.55313 -4.76278,-23.07198 0.53713,-43.2297 l 22.01766,-52.62761 c 12.1541,-21.71769 19.16447,-12.41506 21.7492,-4.83232 16.4788,133.27275 60.91641,457.57245 85.69772,523.41675 14.62639,38.8626 49.86288,70.0792 88.01285,79.2092 0,0 0.2219,85.4395 0.2219,90.8099 -41.72211,1.899 -98.55683,-51.9548 -118.76536,-86.6008 C 421.99533,793.9017 411.14081,894.8109 349.54,896.34 266.75874,898.3954 204.83467,761.9035 189.59691,639.417 l -1.3e-4,5e-4 z m -19.8594,-82.7084 c -27.04336,6.296 -90.100293,31.9984 -113.210493,76.7053 27.42907,21.6844 87.279463,11.7864 110.120993,3.0371 29.59474,-11.3351 7.09987,-56.4753 3.08947,-79.7425 l 3e-5,1e-4 z"
     sodipodi:nodetypes="cccscsccccccsccccccsccccccccccc"
     style="fill:#ff0000;fill-opacity:0.60784313999999995;stroke:#000000;stroke-width:1;stroke-opacity:1;stroke-miterlimit:4;stroke-dasharray:none" />
</svg>
