<?xml version="1.0" encoding="UTF-8" standalone="no"?>
<!-- Created with Inkscape (http://www.inkscape.org/) -->

<svg
   xmlns:dc="http://purl.org/dc/elements/1.1/"
   xmlns:cc="http://creativecommons.org/ns#"
   xmlns:rdf="http://www.w3.org/1999/02/22-rdf-syntax-ns#"
   xmlns:svg="http://www.w3.org/2000/svg"
   xmlns="http://www.w3.org/2000/svg"
   xmlns:sodipodi="http://sodipodi.sourceforge.net/DTD/sodipodi-0.dtd"
   xmlns:inkscape="http://www.inkscape.org/namespaces/inkscape"
   version="1.0"
   width="1000"
   height="1000"
   id="svg5496"
   sodipodi:version="0.32"
   inkscape:version="0.47pre4 r22446"
   sodipodi:docname="lam+lam+haa.init.svg"
   inkscape:output_extension="org.inkscape.output.svg.inkscape">
  <metadata
     id="metadata5594">
    <rdf:RDF>
      <cc:Work
         rdf:about="">
        <dc:format>image/svg+xml</dc:format>
        <dc:type
           rdf:resource="http://purl.org/dc/dcmitype/StillImage" />
      </cc:Work>
    </rdf:RDF>
  </metadata>
  <sodipodi:namedview
     inkscape:pageshadow="2"
     inkscape:pageopacity="0.0"
     guidetolerance="10.0"
     gridtolerance="10.0"
     objecttolerance="10.0"
     borderopacity="1.0"
     bordercolor="#666666"
     pagecolor="#ffffff"
     id="base"
     showgrid="false"
     showguides="true"
     inkscape:guide-bbox="true"
     inkscape:zoom="0.42735464"
     inkscape:cx="453.90859"
     inkscape:cy="798.50221"
     inkscape:window-x="0"
     inkscape:window-y="0"
     inkscape:current-layer="svg5496"
     inkscape:window-width="1278"
     inkscape:window-height="767"
     inkscape:window-maximized="1">
    <sodipodi:guide
       orientation="horizontal"
       position="200"
       id="guide5596" />
  </sodipodi:namedview>
  <defs
     id="defs5498">
    <inkscape:perspective
       sodipodi:type="inkscape:persp3d"
       inkscape:vp_x="0 : 500 : 1"
       inkscape:vp_y="0 : 1000 : 0"
       inkscape:vp_z="1000 : 500 : 1"
       inkscape:persp3d-origin="500 : 333.33333 : 1"
       id="perspective8" />
    <inkscape:perspective
       id="perspective2388"
       inkscape:persp3d-origin="372.04724 : 350.78739 : 1"
       inkscape:vp_z="744.09448 : 526.18109 : 1"
       inkscape:vp_y="0 : 1000 : 0"
       inkscape:vp_x="0 : 526.18109 : 1"
       sodipodi:type="inkscape:persp3d" />
    <inkscape:perspective
       id="perspective3715"
       inkscape:persp3d-origin="0.5 : 0.33333333 : 1"
       inkscape:vp_z="1 : 0.5 : 1"
       inkscape:vp_y="0 : 1000 : 0"
       inkscape:vp_x="0 : 0.5 : 1"
       sodipodi:type="inkscape:persp3d" />
  </defs>
  <path
     sodipodi:nodetypes="cscccsssssccss"
     id="path2816"
     d="m 55.307,513.0484 c -2.879804,0.61673 -6.647,1.6529 -8.162,5.1466 l -33.573,77.4095 c -3.17,5.1747 -0.03,6.7848 4.875,6.9778 79.969,3.1805 152.27766,19.7654 214.26,42.2458 C 182.892,658.6169 75.471075,700.70929 -0.08,709.3691 -30.227501,712.82467 -17.410158,799.88974 0,800 c 37.247279,0.23589 206.556,-89.7992 284.967,-110.8389 59.587,-15.9887 125.769,-25.4958 258.361,-22.8664 7.068,0.1392 9.953,-4.9696 11.202,-10.9003 l 11.858,-56.3145 c 1.659,-5.2066 -1.504,-6.635 -6.122,-6.7266 C 432.392,589.8105 316.338,580.32639 173.444,542.5968 139.84165,533.72447 65.291708,510.91009 55.307,513.0484 z"
     style="fill:#ff0000;fill-opacity:0.60784314;fill-rule:evenodd;stroke:#000000;stroke-width:1;stroke-linecap:butt;stroke-linejoin:miter;stroke-miterlimit:4;stroke-opacity:1;stroke-dasharray:none" />
  <g
     id="layer1"
     transform="translate(-220.26432,74.749046)" />
  <path
     style="fill:#ff0000;fill-opacity:0.60784314;fill-rule:evenodd;stroke:#000000;stroke-width:1;stroke-linecap:butt;stroke-linejoin:miter;stroke-miterlimit:4;stroke-opacity:1;stroke-dasharray:none"
     d="m 441.006,424.1451 c -33.53548,13.59127 -76.335,-16.6605 -95.402,-60.4229 -26,-59.66931 -38.64,-181.7086 -49.156,-298.816608 -0.69,-7.6738 -7.764,-8.64491 -9.938,-5.95869 l -34.271,42.343518 c -2.177,2.69027 -3.726,8.08193 -3.553,11.26483 5.173,95.28315 28.807,241.42885 9.938,284.08765 -14.241,32.1977 -33.804,57.2498 -69.468,77.931 -31.437,18.23 -74.183,36.5231 -133.849,38.4745 -2.957,0.097 -6.647,1.6529 -8.162,5.1466 l -33.573,77.4095 c -3.17,5.1747 -0.02064,7.29886 4.875,6.9778 49.988436,-3.27826 109.51929,-31.0068 154.997,-59.9855 84.74166,-53.99795 118.154,-124.581 120.483,-198.3816 15.939,89.6234 40.33581,189.87121 120.175,179.4607 16.20732,-2.11333 54.67601,-110.78625 26.904,-99.5308 z"
     id="path2818"
     sodipodi:nodetypes="cssssssssscsscss" />
  <path
     sodipodi:nodetypes="csssssscscsscc"
     id="path2820"
     d="m 405.865,110.21223 c -4.037,6.43121 -3.637,9.22689 -2.13,16.02168 5.006,22.56581 11.945,44.08018 15.889,68.48485 13.598,84.13945 27.70347,159.22715 32.735,206.00784 1.00848,9.37631 -3.28691,20.32166 -11.353,23.4185 -14.43418,5.54177 -53.25153,101.51108 -30.12147,99.8233 58.86217,-4.29514 75.58447,-89.5081 80.84147,-141.9622 3.182,-31.454 -12.705,-119.62439 -23.923,-184.04017 8.505,-10.85613 20.621,-21.52515 29.648,-31.22058 5.26,-5.65005 6.522,-13.75333 1.573,-19.63766 -15.814,-16.46114 -38.302,-43.39943 -54.982,-67.000127 -4.404,-6.23168 -11.532,-7.96559 -16.409,-0.99771 l -21.77,31.102277 0.002,0 z"
     style="fill:#ff0000;fill-opacity:0.60784314;fill-rule:evenodd;stroke:#000000;stroke-width:1;stroke-linecap:butt;stroke-linejoin:miter;stroke-miterlimit:4;stroke-opacity:1;stroke-dasharray:none" />
</svg>
