<?xml version="1.0" encoding="UTF-8" standalone="no"?>
<!-- Created with Inkscape (http://www.inkscape.org/) -->

<svg
   xmlns:dc="http://purl.org/dc/elements/1.1/"
   xmlns:cc="http://creativecommons.org/ns#"
   xmlns:rdf="http://www.w3.org/1999/02/22-rdf-syntax-ns#"
   xmlns:svg="http://www.w3.org/2000/svg"
   xmlns="http://www.w3.org/2000/svg"
   xmlns:sodipodi="http://sodipodi.sourceforge.net/DTD/sodipodi-0.dtd"
   xmlns:inkscape="http://www.inkscape.org/namespaces/inkscape"
   version="1.0"
   width="1000"
   height="1000"
   id="svg5496"
   sodipodi:version="0.32"
   inkscape:version="0.47pre4 r22446"
   sodipodi:docname="lam+meem.isol.svg"
   inkscape:output_extension="org.inkscape.output.svg.inkscape">
  <metadata
     id="metadata5594">
    <rdf:RDF>
      <cc:Work
         rdf:about="">
        <dc:format>image/svg+xml</dc:format>
        <dc:type
           rdf:resource="http://purl.org/dc/dcmitype/StillImage" />
      </cc:Work>
    </rdf:RDF>
  </metadata>
  <sodipodi:namedview
     inkscape:pageshadow="2"
     inkscape:pageopacity="0.0"
     guidetolerance="10.0"
     gridtolerance="10.0"
     objecttolerance="10.0"
     borderopacity="1.0"
     bordercolor="#666666"
     pagecolor="#ffffff"
     id="base"
     showgrid="false"
     showguides="true"
     inkscape:guide-bbox="true"
     inkscape:zoom="0.33721589"
     inkscape:cx="220.79288"
     inkscape:cy="932.29326"
     inkscape:window-x="0"
     inkscape:window-y="0"
     inkscape:current-layer="svg5496"
     inkscape:window-width="1278"
     inkscape:window-height="767"
     inkscape:window-maximized="1">
    <sodipodi:guide
       orientation="horizontal"
       position="200"
       id="guide5596" />
  </sodipodi:namedview>
  <defs
     id="defs5498">
    <inkscape:perspective
       sodipodi:type="inkscape:persp3d"
       inkscape:vp_x="0 : 500 : 1"
       inkscape:vp_y="0 : 1000 : 0"
       inkscape:vp_z="1000 : 500 : 1"
       inkscape:persp3d-origin="500 : 333.33333 : 1"
       id="perspective3416" />
    <inkscape:perspective
       id="perspective4442"
       inkscape:persp3d-origin="0.5 : 0.33333333 : 1"
       inkscape:vp_z="1 : 0.5 : 1"
       inkscape:vp_y="0 : 1000 : 0"
       inkscape:vp_x="0 : 0.5 : 1"
       sodipodi:type="inkscape:persp3d" />
    <inkscape:perspective
       id="perspective2840"
       inkscape:persp3d-origin="0.5 : 0.33333333 : 1"
       inkscape:vp_z="1 : 0.5 : 1"
       inkscape:vp_y="0 : 1000 : 0"
       inkscape:vp_x="0 : 0.5 : 1"
       sodipodi:type="inkscape:persp3d" />
    <inkscape:perspective
       id="perspective2839"
       inkscape:persp3d-origin="0.5 : 0.33333333 : 1"
       inkscape:vp_z="1 : 0.5 : 1"
       inkscape:vp_y="0 : 1000 : 0"
       inkscape:vp_x="0 : 0.5 : 1"
       sodipodi:type="inkscape:persp3d" />
    <inkscape:perspective
       id="perspective2852"
       inkscape:persp3d-origin="0.5 : 0.33333333 : 1"
       inkscape:vp_z="1 : 0.5 : 1"
       inkscape:vp_y="0 : 1000 : 0"
       inkscape:vp_x="0 : 0.5 : 1"
       sodipodi:type="inkscape:persp3d" />
  </defs>
  <g
     id="layer1" />
  <g
     id="g3418"
     transform="matrix(0.5,0,0,0.5,80.396412,768.02993)" />
  <path
     sodipodi:nodetypes="csscsscsccsss"
     id="path3631"
     d="m 181.10268,-11.771526 c -7.9939,16.680961 -13.6912,28.53689 -21.2077,44.92886 -6.0798,13.258813 10.38917,55.4981 14.7448,84.922176 16.17625,109.27735 44.92176,251.89275 48.77807,379.20179 -28.945,42.8305 -79.53584,34.35485 -97.969,52.4062 -25.776483,25.24257 72.11919,71.18123 93.312,21.6875 11.96313,-27.93873 23.851,-50.2195 29.657,-86.2187 5.805,-35.9993 9.697,-89.9824 5.25,-133.7188 -4.447,-43.7365 -24.34362,-206.66158 -26.048,-223.8732 9.42211,-15.47 20.77187,-31.400142 30.21036,-47.551601 4.94862,-9.166386 3.42178,-16.898436 -4.08037,-22.613128 -19.25097,-14.664254 -47.68582,-42.233463 -58.20894,-69.031962 -3.3242,-8.465506 -11.7598,-5.728222 -14.43822,-0.139135 z"
     style="fill:#ff0000;fill-opacity:0.60784314;fill-rule:evenodd;stroke:#000000;stroke-width:1px;stroke-linecap:butt;stroke-linejoin:miter;stroke-miterlimit:4;stroke-opacity:1;stroke-dasharray:none" />
  <path
     style="fill:#ff0000;fill-opacity:0.60784314;fill-rule:evenodd;stroke:#000000;stroke-width:1px;stroke-linecap:butt;stroke-linejoin:miter;stroke-miterlimit:4;stroke-opacity:1;stroke-dasharray:none"
     d="m 125.44885,549.6875 c -13.25612,10.68826 -28.435,52.7682 -35.625001,72.875 -3.812,10.6597 0.953,15.5587 6.875001,18.2812 12.874,5.9185 21.934,7.709 27,10.5 -50.681001,24.3385 -87.787001,56.8062 -109.906001,126.9376 0,0 -23.0680036,63.1492 -6.532,156.875 10.514,52.7334 24.05,123.5328 31.563,181.6251 7.725,59.7314 11.736,94.4054 9.406,115.9062 -4.16,38.369 19.374,32.4747 24.125,16.8438 9.312,-29.0695 14.408,-86.7362 10.813,-132.2188 -8.023,-101.5109 -52.952,-320.7231 -46.938,-333.3126 48.63,-50.6798 184.691001,-59.4588 262.031001,-46.3125 14.084,4.2785 16.982,-9.7793 20.063,-17.125 3.08,-7.3457 8.626,-24.9903 17.156,-51.125 5.871,-17.9827 2.631,-26.5026 -9.625,-35.8125 -30.383,-23.0788 -63.98402,-46.67191 -107.094,-62.25 -28.90297,-10.44429 -82.98562,-30.01355 -93.312,-21.6875 z"
     id="path3633"
     sodipodi:nodetypes="csscccscccccscsss" />
</svg>
