<?xml version="1.0" encoding="UTF-8" standalone="no"?>
<!-- Created with Inkscape (http://www.inkscape.org/) -->

<svg
   xmlns:dc="http://purl.org/dc/elements/1.1/"
   xmlns:cc="http://creativecommons.org/ns#"
   xmlns:rdf="http://www.w3.org/1999/02/22-rdf-syntax-ns#"
   xmlns:svg="http://www.w3.org/2000/svg"
   xmlns="http://www.w3.org/2000/svg"
   xmlns:sodipodi="http://sodipodi.sourceforge.net/DTD/sodipodi-0.dtd"
   xmlns:inkscape="http://www.inkscape.org/namespaces/inkscape"
   version="1.0"
   width="1000"
   height="1000"
   id="svg5496"
   sodipodi:version="0.32"
   inkscape:version="0.47pre4 r22446"
   sodipodi:docname="lam+haa+meem.init.svg"
   inkscape:output_extension="org.inkscape.output.svg.inkscape">
  <metadata
     id="metadata5594">
    <rdf:RDF>
      <cc:Work
         rdf:about="">
        <dc:format>image/svg+xml</dc:format>
        <dc:type
           rdf:resource="http://purl.org/dc/dcmitype/StillImage" />
      </cc:Work>
    </rdf:RDF>
  </metadata>
  <sodipodi:namedview
     inkscape:window-height="618"
     inkscape:window-width="641"
     inkscape:pageshadow="2"
     inkscape:pageopacity="0.0"
     guidetolerance="10.0"
     gridtolerance="10.0"
     objecttolerance="10.0"
     borderopacity="1.0"
     bordercolor="#666666"
     pagecolor="#ffffff"
     id="base"
     showgrid="false"
     showguides="true"
     inkscape:guide-bbox="true"
     inkscape:zoom="0.32102648"
     inkscape:cx="376.17959"
     inkscape:cy="418.17014"
     inkscape:window-x="0"
     inkscape:window-y="25"
     inkscape:current-layer="svg5496"
     inkscape:window-maximized="0">
    <sodipodi:guide
       orientation="horizontal"
       position="200"
       id="guide5596" />
  </sodipodi:namedview>
  <defs
     id="defs5498">
    <inkscape:perspective
       sodipodi:type="inkscape:persp3d"
       inkscape:vp_x="0 : 500 : 1"
       inkscape:vp_y="0 : 1000 : 0"
       inkscape:vp_z="1000 : 500 : 1"
       inkscape:persp3d-origin="500 : 333.33333 : 1"
       id="perspective2389" />
    <inkscape:perspective
       id="perspective2398"
       inkscape:persp3d-origin="372.04724 : 350.78739 : 1"
       inkscape:vp_z="744.09448 : 526.18109 : 1"
       inkscape:vp_y="0 : 1000 : 0"
       inkscape:vp_x="0 : 526.18109 : 1"
       sodipodi:type="inkscape:persp3d" />
    <inkscape:perspective
       id="perspective4138"
       inkscape:persp3d-origin="0.5 : 0.33333333 : 1"
       inkscape:vp_z="1 : 0.5 : 1"
       inkscape:vp_y="0 : 1000 : 0"
       inkscape:vp_x="0 : 0.5 : 1"
       sodipodi:type="inkscape:persp3d" />
    <inkscape:perspective
       id="perspective4182"
       inkscape:persp3d-origin="0.5 : 0.33333333 : 1"
       inkscape:vp_z="1 : 0.5 : 1"
       inkscape:vp_y="0 : 1000 : 0"
       inkscape:vp_x="0 : 0.5 : 1"
       sodipodi:type="inkscape:persp3d" />
    <inkscape:perspective
       id="perspective4204"
       inkscape:persp3d-origin="0.5 : 0.33333333 : 1"
       inkscape:vp_z="1 : 0.5 : 1"
       inkscape:vp_y="0 : 1000 : 0"
       inkscape:vp_x="0 : 0.5 : 1"
       sodipodi:type="inkscape:persp3d" />
    <inkscape:perspective
       id="perspective4284"
       inkscape:persp3d-origin="0.5 : 0.33333333 : 1"
       inkscape:vp_z="1 : 0.5 : 1"
       inkscape:vp_y="0 : 1000 : 0"
       inkscape:vp_x="0 : 0.5 : 1"
       sodipodi:type="inkscape:persp3d" />
  </defs>
  <g
     id="layer1"
     style="fill:#000000;fill-opacity:1"
     transform="translate(-171.80617,34)" />
  <path
     style="fill:#ff0000;fill-opacity:0.60784314;fill-rule:evenodd;stroke:#000000;stroke-width:1;stroke-linecap:butt;stroke-linejoin:miter;stroke-miterlimit:4;stroke-opacity:1;stroke-dasharray:none"
     d="m 219.032,8.4181 c -1.832,0 -3.801,1.2533 -6.063,4 -8.458,10.2708 -19.013,31.3701 -21.875,47.9687 -0.87,5.0464 -2.588,11.7968 0.438,16.4687 8.701,10.3648 11.772,23.1199 16.312,35.4063 18.522,79.3424 48.961,179.993 57.375,275.6445 -71.487,27.2785 -161.521,-9.188 -178.406,92.7812 -0.692,5.7177 -0.582,9.1289 5.875,7.5625 77.346,-21.7414 140.61,-4.3378 212.187,27.4063 6.585,2.985 7.121,6.9681 0,8.5937 -49.968,11.4062 -131.453,29.6296 -166.969,51.8437 -12.639,7.9063 -19.853,17.9131 -29.343,32.8126 -11.176,17.5461 -23.087,85.2096 -106.438,101 L 2,800 c 37.105,-17.4205 63.052,-71.4363 91.313,-116.0313 49.109,21.1356 92.171,43.7609 132.593,76.375 8.277,6.6778 21.828,6.3946 27.094,-5.0624 C 294.526,664.9389 239.537,654.6175 179.5,603.0625 343.725,543.0756 459.114,557.4486 550.438,578 c 2.149,0.4837 7.01,-0.6843 8.218,-2.4063 12.144,-17.3146 22.492,-41.2648 27.5,-64.6562 0.978,-4.5615 1.694,-8.5518 -3.593,-8.9688 -133.424,-6.2592 -207.575,-45.6948 -311.438,-88.2812 18.974,-19.6491 18.345,-45.5488 20.719,-80.5312 3.752,-55.2786 -24.717,-159.6323 -32.469,-192.7695 -1.739,-7.6221 -3.218,-14.7217 -1.156,-22.4063 4.551,-12.7628 9.444,-23.2228 15.437,-36.5 1.888,-4.1814 0.847,-5.9582 -1.281,-7.625 -18.187,-14.2452 -34.893,-39.4398 -46.781,-59.7812 -2.095,-3.5848 -4.206,-5.6516 -6.562,-5.6562 z"
     id="path2404-5"
     sodipodi:nodetypes="cssccccccscsccccccssccccccsssc" />
</svg>
