<?xml version="1.0" encoding="UTF-8" standalone="no"?>
<!-- Created with Inkscape (http://www.inkscape.org/) -->

<svg
   xmlns:dc="http://purl.org/dc/elements/1.1/"
   xmlns:cc="http://creativecommons.org/ns#"
   xmlns:rdf="http://www.w3.org/1999/02/22-rdf-syntax-ns#"
   xmlns:svg="http://www.w3.org/2000/svg"
   xmlns="http://www.w3.org/2000/svg"
   xmlns:sodipodi="http://sodipodi.sourceforge.net/DTD/sodipodi-0.dtd"
   xmlns:inkscape="http://www.inkscape.org/namespaces/inkscape"
   version="1.0"
   width="1000"
   height="1000"
   id="svg5496"
   sodipodi:version="0.32"
   inkscape:version="0.47pre4 r22446"
   sodipodi:docname="lam+kaf.isol.svg"
   inkscape:output_extension="org.inkscape.output.svg.inkscape">
  <metadata
     id="metadata5594">
    <rdf:RDF>
      <cc:Work
         rdf:about="">
        <dc:format>image/svg+xml</dc:format>
        <dc:type
           rdf:resource="http://purl.org/dc/dcmitype/StillImage" />
      </cc:Work>
    </rdf:RDF>
  </metadata>
  <sodipodi:namedview
     inkscape:pageshadow="2"
     inkscape:pageopacity="0.0"
     guidetolerance="10.0"
     gridtolerance="10.0"
     objecttolerance="10.0"
     borderopacity="1.0"
     bordercolor="#666666"
     pagecolor="#ffffff"
     id="base"
     showgrid="false"
     showguides="true"
     inkscape:guide-bbox="true"
     inkscape:zoom="0.31985295"
     inkscape:cx="188.01066"
     inkscape:cy="986.25403"
     inkscape:window-x="0"
     inkscape:window-y="0"
     inkscape:current-layer="svg5496"
     inkscape:window-width="1278"
     inkscape:window-height="767"
     inkscape:window-maximized="1">
    <sodipodi:guide
       orientation="horizontal"
       position="200"
       id="guide5596" />
  </sodipodi:namedview>
  <defs
     id="defs5498">
    <inkscape:perspective
       sodipodi:type="inkscape:persp3d"
       inkscape:vp_x="0 : 500 : 1"
       inkscape:vp_y="0 : 1000 : 0"
       inkscape:vp_z="1000 : 500 : 1"
       inkscape:persp3d-origin="500 : 333.33333 : 1"
       id="perspective3295" />
    <inkscape:perspective
       id="perspective4161"
       inkscape:persp3d-origin="0.5 : 0.33333333 : 1"
       inkscape:vp_z="1 : 0.5 : 1"
       inkscape:vp_y="0 : 1000 : 0"
       inkscape:vp_x="0 : 0.5 : 1"
       sodipodi:type="inkscape:persp3d" />
    <inkscape:perspective
       id="perspective2869"
       inkscape:persp3d-origin="0.5 : 0.33333333 : 1"
       inkscape:vp_z="1 : 0.5 : 1"
       inkscape:vp_y="0 : 1000 : 0"
       inkscape:vp_x="0 : 0.5 : 1"
       sodipodi:type="inkscape:persp3d" />
    <inkscape:perspective
       id="perspective2836"
       inkscape:persp3d-origin="0.5 : 0.33333333 : 1"
       inkscape:vp_z="1 : 0.5 : 1"
       inkscape:vp_y="0 : 1000 : 0"
       inkscape:vp_x="0 : 0.5 : 1"
       sodipodi:type="inkscape:persp3d" />
    <inkscape:perspective
       sodipodi:type="inkscape:persp3d"
       inkscape:vp_x="0 : 0.5 : 1"
       inkscape:vp_y="0 : 1000 : 0"
       inkscape:vp_z="1 : 0.5 : 1"
       inkscape:persp3d-origin="0.5 : 0.33333333 : 1"
       id="perspective2913" />
    <inkscape:perspective
       sodipodi:type="inkscape:persp3d"
       inkscape:vp_x="0 : 500 : 1"
       inkscape:vp_y="0 : 1000 : 0"
       inkscape:vp_z="1000 : 500 : 1"
       inkscape:persp3d-origin="500 : 333.33333 : 1"
       id="perspective2437" />
    <inkscape:perspective
       id="perspective5481"
       inkscape:persp3d-origin="0.5 : 0.33333333 : 1"
       inkscape:vp_z="1 : 0.5 : 1"
       inkscape:vp_y="0 : 1000 : 0"
       inkscape:vp_x="0 : 0.5 : 1"
       sodipodi:type="inkscape:persp3d" />
    <inkscape:perspective
       sodipodi:type="inkscape:persp3d"
       inkscape:vp_x="0 : 0.5 : 1"
       inkscape:vp_y="0 : 1000 : 0"
       inkscape:vp_z="1 : 0.5 : 1"
       inkscape:persp3d-origin="0.5 : 0.33333333 : 1"
       id="perspective6689" />
    <inkscape:perspective
       sodipodi:type="inkscape:persp3d"
       inkscape:vp_x="0 : 0.5 : 1"
       inkscape:vp_y="0 : 1000 : 0"
       inkscape:vp_z="1 : 0.5 : 1"
       inkscape:persp3d-origin="0.5 : 0.33333333 : 1"
       id="perspective3689" />
    <inkscape:perspective
       sodipodi:type="inkscape:persp3d"
       inkscape:vp_x="0 : 526.18109 : 1"
       inkscape:vp_y="0 : 1000 : 0"
       inkscape:vp_z="744.09448 : 526.18109 : 1"
       inkscape:persp3d-origin="372.04724 : 350.78739 : 1"
       id="perspective2477" />
    <inkscape:perspective
       id="perspective8"
       inkscape:persp3d-origin="500 : 333.33333 : 1"
       inkscape:vp_z="1000 : 500 : 1"
       inkscape:vp_y="0 : 1000 : 0"
       inkscape:vp_x="0 : 500 : 1"
       sodipodi:type="inkscape:persp3d" />
  </defs>
  <path
     style="fill:#ff0000;fill-opacity:0.60784314;fill-rule:evenodd;stroke:#000000;stroke-width:0.96168029px;stroke-linecap:butt;stroke-linejoin:miter;stroke-miterlimit:4;stroke-opacity:1;stroke-dasharray:none"
     d="m 616.24235,73.988904 -27.518,49.707006 c -4.492,8.114 -2.539,17.476 -1.61,26.188 21.274,199.728 41.196,340.005 44.226,361.856 5.511,39.737 -13.948,74.834 -35.844,93.173 -64.671,54.158 -233.499,90.468 -344.452,88.533 -115.452,-2.016 -150.61106,-17.51875 -188.55664,-47.74528 -39.090419,-31.13847 -31.179761,-89.04345 -1.028052,-147.84028 6.077365,-11.85106 -11.312722,-28.16024 -21.187382,-9.15793 -42.4006901,81.59381 -50.81493,185.62849 -22.02093,229.29249 17.527,26.577 49.820104,59.1113 115.809004,73.905 110.55172,24.784 326.124,-11.675 444.692,-87.414 37.992,-24.269 56.093,-78.808 67.146,-111.252 3.972,-10.425 7.847,-22.382 10.162,-6.16 12.216,85.593 55.20991,205.93229 120.083,208.632 31.85059,1.32547 13.96741,-105.8332 -3.48644,-113.8898 -57.4454,-26.51648 -77.61847,-140.40359 -87.09356,-183.5862 -21.588,-116.82 -50.189,-388.926 -53.876,-422.060006 -1.386,-12.462 -11.973,-8.454 -15.445,-2.181 z"
     id="path2852"
     sodipodi:nodetypes="cssssssssssscssscss" />
  <path
     style="fill:#ff0000;fill-opacity:0.60784314;fill-rule:evenodd;stroke:#000000;stroke-width:1;stroke-linecap:butt;stroke-linejoin:miter;stroke-miterlimit:4;stroke-opacity:1;stroke-dasharray:none"
     d="m 351.36835,190.08791 c -62.839,16.602 -94.956,73.268 -112.581,147.338 -5.508,23.152 16.005,45.4 47.203,52.501 l 29.051,6.613 c 8.78,1.557 12.612,9.162 6.524,12.408 -23.979,12.781 -91.568,8.519 -165.91,13.464 -12.173,0.807 -13.611,16.97 1.11,22.419 40.544,15.007 123.564,23.369 152.223,16.049 26.265,-6.708 60.756,-62.034 71.379,-91.708 2.858,-7.986 18.054,-45.238 -29.243,-52.181 -47.204,-6.928 -71.716,-20.151 -65.328,-28.609 6.854,-9.075 26.652,-18.345 39.408,-20.986 3.338,-0.691 6.987,-3.91 10.947,-13.713 l 21.474,-53.167 c 1.646,-4.593 -0.459,-10.286 -6.257,-10.428 z"
     id="path2515-3"
     sodipodi:nodetypes="csscssssssssscc" />
  <path
     sodipodi:nodetypes="cssssssssssccss"
     id="path2854"
     d="m 776.14335,795.70591 c 20.43143,1.94972 56.3028,-8.08131 71.59834,-31.34288 24.97553,-37.98298 26.14378,-141.13576 21.70666,-196.60912 -9.78595,-122.345 -34.25873,-230.9025 -53.88598,-349.19225 -2.32863,-14.03422 2.31857,-18.82162 5.47888,-23.75006 l 17.68626,-27.58138 c 1.9937,-3.10914 3.59015,-9.84494 -1.22387,-14.76083 -16.72397,-17.07788 -40.89221,-45.10122 -51.07018,-76.308478 -1.55458,-4.766595 -9.1179,-9.689303 -13.84984,-1.107032 -8.31006,15.071847 -24.3902,45.57552 -24.3902,45.57552 -3.45668,6.47055 -1.13034,18.18455 1.65284,27.37249 l 13.70488,45.24303 c 19.91442,128.05728 74.09721,424.47399 69.14621,487.32699 -23.61308,9.91374 -43.4616,9.22274 -60.04044,1.2442 -33.69235,-16.2144 -46.07586,109.16019 3.48644,113.8898 z"
     style="fill:#ff0000;fill-opacity:0.60784314;fill-rule:evenodd;stroke:#000000;stroke-width:0.96168029px;stroke-linecap:butt;stroke-linejoin:miter;stroke-miterlimit:4;stroke-opacity:1;stroke-dasharray:none" />
</svg>
