<?xml version="1.0" encoding="UTF-8" standalone="no"?>
<!-- Created with Inkscape (http://www.inkscape.org/) -->

<svg
   xmlns:dc="http://purl.org/dc/elements/1.1/"
   xmlns:cc="http://creativecommons.org/ns#"
   xmlns:rdf="http://www.w3.org/1999/02/22-rdf-syntax-ns#"
   xmlns:svg="http://www.w3.org/2000/svg"
   xmlns="http://www.w3.org/2000/svg"
   xmlns:sodipodi="http://sodipodi.sourceforge.net/DTD/sodipodi-0.dtd"
   xmlns:inkscape="http://www.inkscape.org/namespaces/inkscape"
   version="1.0"
   width="1000"
   height="1000"
   id="svg5496"
   sodipodi:version="0.32"
   inkscape:version="0.47pre4 r22446"
   sodipodi:docname="lam+waw.fina.svg"
   inkscape:output_extension="org.inkscape.output.svg.inkscape">
  <metadata
     id="metadata5594">
    <rdf:RDF>
      <cc:Work
         rdf:about="">
        <dc:format>image/svg+xml</dc:format>
        <dc:type
           rdf:resource="http://purl.org/dc/dcmitype/StillImage" />
      </cc:Work>
    </rdf:RDF>
  </metadata>
  <sodipodi:namedview
     inkscape:pageshadow="2"
     inkscape:pageopacity="0.0"
     guidetolerance="10.0"
     gridtolerance="10.0"
     objecttolerance="10.0"
     borderopacity="1.0"
     bordercolor="#666666"
     pagecolor="#ffffff"
     id="base"
     showgrid="false"
     showguides="true"
     inkscape:guide-bbox="true"
     inkscape:zoom="0.36062446"
     inkscape:cx="500"
     inkscape:cy="421.56863"
     inkscape:window-x="0"
     inkscape:window-y="25"
     inkscape:current-layer="svg5496"
     inkscape:window-width="672"
     inkscape:window-height="618"
     inkscape:window-maximized="0">
    <sodipodi:guide
       orientation="horizontal"
       position="200"
       id="guide5596" />
  </sodipodi:namedview>
  <defs
     id="defs5498">
    <inkscape:perspective
       sodipodi:type="inkscape:persp3d"
       inkscape:vp_x="0 : 500 : 1"
       inkscape:vp_y="0 : 1000 : 0"
       inkscape:vp_z="1000 : 500 : 1"
       inkscape:persp3d-origin="500 : 333.33333 : 1"
       id="perspective8" />
    <inkscape:perspective
       id="perspective2388"
       inkscape:persp3d-origin="372.04724 : 350.78739 : 1"
       inkscape:vp_z="744.09448 : 526.18109 : 1"
       inkscape:vp_y="0 : 1000 : 0"
       inkscape:vp_x="0 : 526.18109 : 1"
       sodipodi:type="inkscape:persp3d" />
    <inkscape:perspective
       id="perspective6450"
       inkscape:persp3d-origin="0.5 : 0.33333333 : 1"
       inkscape:vp_z="1 : 0.5 : 1"
       inkscape:vp_y="0 : 1000 : 0"
       inkscape:vp_x="0 : 0.5 : 1"
       sodipodi:type="inkscape:persp3d" />
    <inkscape:perspective
       id="perspective6480"
       inkscape:persp3d-origin="0.5 : 0.33333333 : 1"
       inkscape:vp_z="1 : 0.5 : 1"
       inkscape:vp_y="0 : 1000 : 0"
       inkscape:vp_x="0 : 0.5 : 1"
       sodipodi:type="inkscape:persp3d" />
  </defs>
  <g
     id="layer1"
     transform="matrix(1.3,0,0,1.3,-289.45531,-188.1625)" />
  <path
     style="fill:#ff0000;fill-opacity:0.60784314;fill-rule:evenodd;stroke:#000000;stroke-width:1;stroke-linecap:butt;stroke-linejoin:miter;stroke-miterlimit:4;stroke-opacity:1;stroke-dasharray:none"
     d="m 507.91601,83.3035 -30.947,50.8324 c -2.855,3.7951 -2.988,12.2175 -2.216,19.7935 23.193,227.4209 42.804,416.8047 35.297,453.8063 -4.645,22.8856 -27.005,55.9164 -95.566,70.1575 -6.405,-26.8922 -45.522,-129.0208 -82.229,-130.2704 -85.28,-2.9032 -142.508,206.5849 -77.897,227.7577 30.926,10.1345 72.034,11.8607 116.899,4.0939 2.951,13.5578 5.175,34.5076 1.054,47.174 -24.65,43.7371 -78.45,101.182 -145.861,132.77115 -71.02,33.2801 -119.80399,49.63305 -214.097991,30.6748 -9.548,-1.9196 -19.874,17.93895 -2.378,22.55475 63.062,16.6378 142.348991,36.0479 197.938991,34.5834 58.935,-1.5525 169.29,-123.3783 189.734,-197.0567 7.456,-19.1675 13.886,-49.7068 18.365,-80.3541 74,-22.8622 102.375,-71.2466 121.632,-141.9 13.548,74.1631 45.032,162.3471 119.299,172.0783 l 0.241,-90.5731 c -22.916,-7.1072 -55.039,-46.5803 -67.124,-82.1791 -33.545,-98.8106 -48.667,-387.438 -70.409,-537.9488 -0.464,-5.0394 -7.448,-11.1718 -11.735,-5.9955 z m -207.774,570.6112 c 18.598,1.6996 33.782,20.281 41.716,35.6495 -24.478,3.1933 -45.808,1.3811 -65.769,-3.5333 -5.25,-2.6808 -7.855,-7.0424 -7.272,-8.9423 4.303,-14.0087 20.102,-23.0232 31.325,-23.1739 z"
     id="path2394-5-3"
     sodipodi:nodetypes="cccccscccsssscccccccccccsc" />
</svg>
