<?xml version="1.0" encoding="UTF-8" standalone="no"?>
<!-- Created with Inkscape (http://www.inkscape.org/) -->

<svg
   xmlns:dc="http://purl.org/dc/elements/1.1/"
   xmlns:cc="http://creativecommons.org/ns#"
   xmlns:rdf="http://www.w3.org/1999/02/22-rdf-syntax-ns#"
   xmlns:svg="http://www.w3.org/2000/svg"
   xmlns="http://www.w3.org/2000/svg"
   xmlns:sodipodi="http://sodipodi.sourceforge.net/DTD/sodipodi-0.dtd"
   xmlns:inkscape="http://www.inkscape.org/namespaces/inkscape"
   version="1.0"
   width="1000"
   height="1000"
   id="svg5496"
   sodipodi:version="0.32"
   inkscape:version="0.47pre4 r22446"
   sodipodi:docname="lam+yaa.fina.svg"
   inkscape:output_extension="org.inkscape.output.svg.inkscape">
  <metadata
     id="metadata5594">
    <rdf:RDF>
      <cc:Work
         rdf:about="">
        <dc:format>image/svg+xml</dc:format>
        <dc:type
           rdf:resource="http://purl.org/dc/dcmitype/StillImage" />
      </cc:Work>
    </rdf:RDF>
  </metadata>
  <sodipodi:namedview
     inkscape:pageshadow="2"
     inkscape:pageopacity="0.0"
     guidetolerance="10.0"
     gridtolerance="10.0"
     objecttolerance="10.0"
     borderopacity="1.0"
     bordercolor="#666666"
     pagecolor="#ffffff"
     id="base"
     showgrid="false"
     showguides="true"
     inkscape:guide-bbox="true"
     inkscape:zoom="0.64205296"
     inkscape:cx="440.69122"
     inkscape:cy="336.2776"
     inkscape:window-x="0"
     inkscape:window-y="24"
     inkscape:current-layer="svg5496"
     inkscape:window-width="1280"
     inkscape:window-height="725"
     inkscape:window-maximized="1">
    <sodipodi:guide
       orientation="horizontal"
       position="200"
       id="guide5596" />
  </sodipodi:namedview>
  <defs
     id="defs5498">
    <inkscape:perspective
       sodipodi:type="inkscape:persp3d"
       inkscape:vp_x="0 : 500 : 1"
       inkscape:vp_y="0 : 1000 : 0"
       inkscape:vp_z="1000 : 500 : 1"
       inkscape:persp3d-origin="500 : 333.33333 : 1"
       id="perspective2491" />
    <inkscape:perspective
       id="perspective2580"
       inkscape:persp3d-origin="372.04724 : 350.78739 : 1"
       inkscape:vp_z="744.09448 : 526.18109 : 1"
       inkscape:vp_y="0 : 1000 : 0"
       inkscape:vp_x="0 : 526.18109 : 1"
       sodipodi:type="inkscape:persp3d" />
    <inkscape:perspective
       id="perspective4468"
       inkscape:persp3d-origin="0.5 : 0.33333333 : 1"
       inkscape:vp_z="1 : 0.5 : 1"
       inkscape:vp_y="0 : 1000 : 0"
       inkscape:vp_x="0 : 0.5 : 1"
       sodipodi:type="inkscape:persp3d" />
    <inkscape:perspective
       id="perspective3673"
       inkscape:persp3d-origin="0.5 : 0.33333333 : 1"
       inkscape:vp_z="1 : 0.5 : 1"
       inkscape:vp_y="0 : 1000 : 0"
       inkscape:vp_x="0 : 0.5 : 1"
       sodipodi:type="inkscape:persp3d" />
  </defs>
  <g
     id="layer1"
     transform="translate(-200,400)" />
  <path
     sodipodi:nodetypes="ccccccccczzzccccccczccccc"
     id="path2607-5-5"
     d="m 423.23372,115.59548 c -11.362,41.2557 -27.295,80.7131 -19.139,126.6231 16.579,121.59822 35.341,242.94362 50.515,364.70452 2.924,68.9752 9.488,143.6492 -23.566,206.7763 -8.787,21.5538 -35.246,41.4527 -47.239,53.6198 -2.59,12.1419 -3.768,24.2867 -6.054,39.1526 57.05,8.2607 127.404,16.2328 174.851,44.7534 -57.539,65.967 -258.411,142.946 -389.098,101.2414 C 77.779717,1025.65 36.887718,935.402 51.496718,853.8469 c 11.866,-53.7098 45.404999,-112.225 59.632002,-137.7379 14.669,-26.3049 -9.064,-30.08 -19.037003,-13.1419 -9.974,16.9381 -92.34099879,163.0381 -91.97999879,267.2154 0.357,103.134 70.10099979,170.0486 156.82200179,188.4464 135.82,27.2379 277.989,-22.9805 384.271,-107.5502 39.145,-31.1523 58.03,-89.9393 50.556,-140.9381 -28.927,-41.7522 -117.805,-53.6664 -152.354,-60.6303 27.208,-46.8124 45.802,-123.9082 48.671,-186.3414 27.526,53.1571 67.837,108.3897 113.954,136.8311 -0.02,-33.2255 -0.05,-66.4511 -0.07,-99.6767 -54.376,-43.964 -75.511,-88.2424 -98.617,-188.3952 -23.106,-100.1528 -42.777,-265.33722 -59.963,-397.67592 -3.149,-10.2256 -17.222,-8.3177 -20.146,1.3433 l 0,0 0,0 0,0 z"
     style="fill:#ff0000;fill-opacity:0.58823529;stroke:#000000;stroke-width:1px;stroke-linecap:butt;stroke-linejoin:miter;stroke-opacity:1" />
</svg>
