<?xml version="1.0" encoding="UTF-8" standalone="no"?>
<!-- Created with Inkscape (http://www.inkscape.org/) -->

<svg
   xmlns:dc="http://purl.org/dc/elements/1.1/"
   xmlns:cc="http://creativecommons.org/ns#"
   xmlns:rdf="http://www.w3.org/1999/02/22-rdf-syntax-ns#"
   xmlns:svg="http://www.w3.org/2000/svg"
   xmlns="http://www.w3.org/2000/svg"
   xmlns:sodipodi="http://sodipodi.sourceforge.net/DTD/sodipodi-0.dtd"
   xmlns:inkscape="http://www.inkscape.org/namespaces/inkscape"
   version="1.0"
   width="1000"
   height="1000"
   id="svg5496"
   sodipodi:version="0.32"
   inkscape:version="0.47pre4 r22446"
   sodipodi:docname="lam+meem.init.svg"
   inkscape:output_extension="org.inkscape.output.svg.inkscape">
  <metadata
     id="metadata5594">
    <rdf:RDF>
      <cc:Work
         rdf:about="">
        <dc:format>image/svg+xml</dc:format>
        <dc:type
           rdf:resource="http://purl.org/dc/dcmitype/StillImage" />
      </cc:Work>
    </rdf:RDF>
  </metadata>
  <sodipodi:namedview
     inkscape:window-height="767"
     inkscape:window-width="1278"
     inkscape:pageshadow="2"
     inkscape:pageopacity="0.0"
     guidetolerance="10.0"
     gridtolerance="10.0"
     objecttolerance="10.0"
     borderopacity="1.0"
     bordercolor="#666666"
     pagecolor="#ffffff"
     id="base"
     showgrid="false"
     showguides="true"
     inkscape:guide-bbox="true"
     inkscape:zoom="0.1820282"
     inkscape:cx="259.876"
     inkscape:cy="624.44037"
     inkscape:window-x="0"
     inkscape:window-y="0"
     inkscape:current-layer="svg5496"
     inkscape:window-maximized="1">
    <sodipodi:guide
       orientation="horizontal"
       position="200"
       id="guide5596" />
  </sodipodi:namedview>
  <defs
     id="defs5498">
    <inkscape:perspective
       sodipodi:type="inkscape:persp3d"
       inkscape:vp_x="0 : 500 : 1"
       inkscape:vp_y="0 : 1000 : 0"
       inkscape:vp_z="1000 : 500 : 1"
       inkscape:persp3d-origin="500 : 333.33333 : 1"
       id="perspective2389" />
    <inkscape:perspective
       id="perspective2398"
       inkscape:persp3d-origin="372.04724 : 350.78739 : 1"
       inkscape:vp_z="744.09448 : 526.18109 : 1"
       inkscape:vp_y="0 : 1000 : 0"
       inkscape:vp_x="0 : 526.18109 : 1"
       sodipodi:type="inkscape:persp3d" />
    <inkscape:perspective
       id="perspective4511"
       inkscape:persp3d-origin="0.5 : 0.33333333 : 1"
       inkscape:vp_z="1 : 0.5 : 1"
       inkscape:vp_y="0 : 1000 : 0"
       inkscape:vp_x="0 : 0.5 : 1"
       sodipodi:type="inkscape:persp3d" />
    <inkscape:perspective
       id="perspective3617"
       inkscape:persp3d-origin="0.5 : 0.33333333 : 1"
       inkscape:vp_z="1 : 0.5 : 1"
       inkscape:vp_y="0 : 1000 : 0"
       inkscape:vp_x="0 : 0.5 : 1"
       sodipodi:type="inkscape:persp3d" />
    <inkscape:perspective
       id="perspective2842"
       inkscape:persp3d-origin="0.5 : 0.33333333 : 1"
       inkscape:vp_z="1 : 0.5 : 1"
       inkscape:vp_y="0 : 1000 : 0"
       inkscape:vp_x="0 : 0.5 : 1"
       sodipodi:type="inkscape:persp3d" />
  </defs>
  <path
     sodipodi:nodetypes="csscssssssssssss"
     id="path2832"
     d="m 89.507594,97.60946 c -8.375951,15.41404 -20.029286,29.14187 -24.986278,40.71059 -4.659987,10.87556 -3.394677,16.23439 -0.46706,27.73078 2.726699,10.70742 6.649451,27.78642 11.365451,46.17836 16.082063,130.9521 29.349133,370.34832 63.435293,461.02361 19.82158,52.72896 86.60553,86.95005 103.80265,93.56597 6.92255,2.66319 18.60377,3.50988 22.334,-2.2221 8.70527,-13.37677 15.30095,-26.41483 26.72726,-48.81586 C 297.1505,705.13229 285.62787,699.95309 281.317,697.0589 242.15587,670.76729 180.578,654.0663 173.173,628.2943 156.277,569.4904 139.32,377.00509 125.695,241.52647 c -0.6,-5.94384 -1.82453,-12.39321 2.245,-17.45143 9.40941,-11.69543 17.07784,-22.52037 24.69505,-33.31968 3.13902,-4.45035 1.35679,-12.38512 -1.94829,-15.90683 -19.68059,-20.97049 -41.2361,-55.93095 -45.5833,-77.08918 -0.98485,-4.79333 -8.570914,-13.077727 -15.595866,-0.14989 z"
     style="fill:#ff0000;fill-opacity:0.60784314;fill-rule:evenodd;stroke:#000000;stroke-width:1;stroke-linecap:butt;stroke-linejoin:miter;stroke-miterlimit:4;stroke-opacity:1;stroke-dasharray:none" />
  <g
     id="layer1"
     transform="translate(0,-60)" />
  <path
     style="fill:#ff0000;fill-opacity:0.60784314;fill-rule:evenodd;stroke:#000000;stroke-width:1;stroke-linecap:butt;stroke-linejoin:miter;stroke-miterlimit:4;stroke-opacity:1;stroke-dasharray:none"
     d="M 138.855,673.2528 C 92.142417,691.48979 47.217315,704.67681 0.559,710.5156 -25.409657,713.7653 -21.812167,806.47874 0,800 c 54.12153,-16.07541 107.558,-65.4564 163.378,-51.2222 31.121,7.9357 71.05343,45.42737 88.02,62.2283 5.27043,5.21897 19.96036,4.19164 22.334,-2.2221 10.162,-27.45845 15.33773,-64.4034 19.532,-94.3766 1.39407,-9.96237 -6.77581,-14.07029 -11.947,-17.3485 -37.14687,-23.5488 -98.60629,-40.92775 -142.462,-23.8061 z"
     id="path2830"
     sodipodi:nodetypes="cssssssss" />
</svg>
