<?xml version="1.0" encoding="UTF-8" standalone="no"?>
<!-- Created with Inkscape (http://www.inkscape.org/) -->
<svg
   xmlns:dc="http://purl.org/dc/elements/1.1/"
   xmlns:cc="http://creativecommons.org/ns#"
   xmlns:rdf="http://www.w3.org/1999/02/22-rdf-syntax-ns#"
   xmlns:svg="http://www.w3.org/2000/svg"
   xmlns="http://www.w3.org/2000/svg"
   xmlns:sodipodi="http://sodipodi.sourceforge.net/DTD/sodipodi-0.dtd"
   xmlns:inkscape="http://www.inkscape.org/namespaces/inkscape"
   version="1.0"
   width="1000"
   height="1000"
   id="svg5496"
   sodipodi:version="0.32"
   inkscape:version="0.46"
   sodipodi:docname="lam+haa+haa.init.svg"
   inkscape:output_extension="org.inkscape.output.svg.inkscape">
  <metadata
     id="metadata5594">
    <rdf:RDF>
      <cc:Work
         rdf:about="">
        <dc:format>image/svg+xml</dc:format>
        <dc:type
           rdf:resource="http://purl.org/dc/dcmitype/StillImage" />
      </cc:Work>
    </rdf:RDF>
  </metadata>
  <sodipodi:namedview
     inkscape:window-height="618"
     inkscape:window-width="641"
     inkscape:pageshadow="2"
     inkscape:pageopacity="0.0"
     guidetolerance="10.0"
     gridtolerance="10.0"
     objecttolerance="10.0"
     borderopacity="1.0"
     bordercolor="#666666"
     pagecolor="#ffffff"
     id="base"
     showgrid="false"
     showguides="true"
     inkscape:guide-bbox="true"
     inkscape:zoom="0.64205296"
     inkscape:cx="666.46777"
     inkscape:cy="565.58183"
     inkscape:window-x="0"
     inkscape:window-y="25"
     inkscape:current-layer="svg5496">
    <sodipodi:guide
       orientation="horizontal"
       position="200"
       id="guide5596" />
  </sodipodi:namedview>
  <defs
     id="defs5498">
    <inkscape:perspective
       sodipodi:type="inkscape:persp3d"
       inkscape:vp_x="0 : 500 : 1"
       inkscape:vp_y="0 : 1000 : 0"
       inkscape:vp_z="1000 : 500 : 1"
       inkscape:persp3d-origin="500 : 333.33333 : 1"
       id="perspective2389" />
    <inkscape:perspective
       id="perspective2398"
       inkscape:persp3d-origin="372.04724 : 350.78739 : 1"
       inkscape:vp_z="744.09448 : 526.18109 : 1"
       inkscape:vp_y="0 : 1000 : 0"
       inkscape:vp_x="0 : 526.18109 : 1"
       sodipodi:type="inkscape:persp3d" />
  </defs>
  <g
     id="layer1"
     transform="translate(-95.007739,64.12823)" />
  <path
     style="fill:#000000;fill-opacity:1;fill-rule:evenodd;stroke:#000000;stroke-width:1px;stroke-linecap:butt;stroke-linejoin:miter;stroke-opacity:1"
     d="M 336.65164,23.858843 C 324.90255,35.040598 311.91866,54.66583 304.89494,69.420677 C 303.29529,72.78109 304.85563,77.862208 306.133,81.694307 L 317.53168,115.89034 C 322.3935,180.95774 333.46562,279.76848 332.12419,309.44761 C 294.04345,315.8888 244.60535,308.35692 178.18266,319.98342 C 171.19709,321.20616 166.33003,323.39034 161.19687,328.2124 C 147.54884,341.03331 133.40715,367.5333 127.52811,383.50631 C 124.11856,392.76984 127.95091,394.93306 133.33922,394.45095 C 169.38926,391.2255 263.59749,396.65468 332.95018,433.07096 C 230.21351,456.99837 147.56111,494.64881 68.803097,529.99967 C 62.484327,532.83588 52.711177,536.24108 49.419987,539.86746 C 36.822857,553.74754 16.427917,582.83791 9.4709471,597.34673 C 4.6693668,607.36047 13.077537,609.18254 18.303767,608.91451 C 65.571107,606.47044 172.76192,625.82845 233.83124,654.4366 C 157.98601,677.414 80.228067,692.74052 1.4523778,703.99607 L 0.35105678,800 C 37.768027,785.28946 220.20495,724.28096 276.7249,714.91677 C 352.94171,702.28921 433.02133,702.70688 511.0958,717.40361 C 514.81044,718.10285 521.56728,717.71111 524.80905,714.81299 C 543.82046,697.81686 554.25986,673.60242 566.87612,648.62841 C 572.24099,638.00859 570.70897,632.74545 559.5299,632.637 C 497.65548,632.03674 433.50028,625.02537 379.15842,611.69625 C 307.67489,594.16257 244.10265,573.08706 174.35987,552.01369 C 267.63813,515.61274 346.73442,497.89976 411.14463,495.29602 C 483.2097,492.38284 536.18546,500.74454 594.23456,522.50144 C 597.04788,523.55587 600.07904,523.87854 604.04632,518.16749 C 616.41156,500.36727 631.13334,471.71209 639.11968,451.81052 C 643.08923,441.91858 639.145,437.23604 631.77045,435.69671 C 579.08819,424.70011 517.52858,408.58465 479.67446,395.28888 C 437.32902,380.41559 400.1653,370.86584 356.07793,348.2692 C 367.42139,330.50073 372.51389,318.43943 376.41995,300.01489 C 382.14544,273.0083 374.84143,185.2868 371.77176,133.23616 L 391.00097,108.96641 C 396.948,101.46049 397.21307,97.866755 391.42431,91.312663 C 377.90474,76.005673 364.62729,57.189955 348.66221,25.845091 C 346.08262,20.780489 340.87487,19.839547 336.65164,23.858843 z"
     id="path2404"
     sodipodi:nodetypes="cssccsssscsssscccsssssscsssssscscssss" />
</svg>
