<?xml version="1.0" encoding="UTF-8" standalone="no"?>
<!-- Created with Inkscape (http://www.inkscape.org/) -->

<svg
   xmlns:dc="http://purl.org/dc/elements/1.1/"
   xmlns:cc="http://creativecommons.org/ns#"
   xmlns:rdf="http://www.w3.org/1999/02/22-rdf-syntax-ns#"
   xmlns:svg="http://www.w3.org/2000/svg"
   xmlns="http://www.w3.org/2000/svg"
   xmlns:sodipodi="http://sodipodi.sourceforge.net/DTD/sodipodi-0.dtd"
   xmlns:inkscape="http://www.inkscape.org/namespaces/inkscape"
   version="1.0"
   width="1000"
   height="1000"
   id="svg5496"
   sodipodi:version="0.32"
   inkscape:version="0.47pre4 r22446"
   sodipodi:docname="lam+raa.isol.svg"
   inkscape:output_extension="org.inkscape.output.svg.inkscape">
  <metadata
     id="metadata5594">
    <rdf:RDF>
      <cc:Work
         rdf:about="">
        <dc:format>image/svg+xml</dc:format>
        <dc:type
           rdf:resource="http://purl.org/dc/dcmitype/StillImage" />
        <dc:title />
      </cc:Work>
    </rdf:RDF>
  </metadata>
  <sodipodi:namedview
     inkscape:window-height="618"
     inkscape:pageshadow="2"
     inkscape:pageopacity="0.0"
     borderopacity="1.0"
     bordercolor="#666666"
     pagecolor="#ffffff"
     id="base"
     showgrid="false"
     showguides="true"
     inkscape:guide-bbox="true"
     inkscape:zoom="1.044936"
     inkscape:cx="439.64925"
     inkscape:cy="898.25246"
     inkscape:window-x="268"
     inkscape:window-y="88"
     inkscape:current-layer="svg5496"
     inkscape:window-width="641"
     inkscape:window-maximized="0">
    <sodipodi:guide
       orientation="horizontal"
       position="200"
       id="guide5596" />
  </sodipodi:namedview>
  <defs
     id="defs5498">
    <inkscape:perspective
       sodipodi:type="inkscape:persp3d"
       inkscape:vp_x="0 : 500 : 1"
       inkscape:vp_y="0 : 1000 : 0"
       inkscape:vp_z="1000 : 500 : 1"
       inkscape:persp3d-origin="500 : 333.33333 : 1"
       id="perspective2873" />
    <inkscape:perspective
       id="perspective2862"
       inkscape:persp3d-origin="0.5 : 0.33333333 : 1"
       inkscape:vp_z="1 : 0.5 : 1"
       inkscape:vp_y="0 : 1000 : 0"
       inkscape:vp_x="0 : 0.5 : 1"
       sodipodi:type="inkscape:persp3d" />
    <inkscape:perspective
       id="perspective6406"
       inkscape:persp3d-origin="0.5 : 0.33333333 : 1"
       inkscape:vp_z="1 : 0.5 : 1"
       inkscape:vp_y="0 : 1000 : 0"
       inkscape:vp_x="0 : 0.5 : 1"
       sodipodi:type="inkscape:persp3d" />
  </defs>
  <path
     sodipodi:nodetypes="csssssccsssscsss"
     id="path2817"
     d="m 452.65432,31.143845 c -1.70079,-5.97875 -10.958,-5.969 -14.076,0.674 l -20.176,42.977 c -3.836,8.169 -3.05,13.204 -1.333,21.441004 4.998,23.984001 13.133,51.005001 16.7,75.300001 20.977,142.895 55.115,299.62 61.177,410.97 0.06,1.165 -0.153,3.873 -1.026,4.98 -33.229,24.981 -97.947,27.874 -128.002,1.545 -4.096,-5.384 -12.08246,-6.05431 -14.68,1.994 -9.3299,28.90812 4.46896,123.21479 44.89904,126.46363 23.86888,1.91803 61.31696,-8.27163 79.99596,-23.47663 33.866,-27.572 50.97,-72.985 54.218,-126.182 5.096,-83.461 -29.836,-261.959 -44.255,-397.487 l 25.843,-39.835 c 5.937,-9.151 9.31378,-22.00362 1.261,-28.004 -23.96954,-17.860464 -55.31982,-52.988533 -60.546,-71.360005 z"
     style="color:#000000;fill:#ff0000;fill-opacity:0.60784314;stroke:#000000;stroke-width:1;stroke-linecap:butt;stroke-linejoin:miter;stroke-miterlimit:4;stroke-opacity:1;stroke-dasharray:none;stroke-dashoffset:0;marker:none;visibility:visible;display:inline;overflow:visible;enable-background:accumulate" />
  <path
     sodipodi:nodetypes="cssssssssssss"
     id="path2850"
     d="m 365.91832,589.03085 c -4.27212,-5.23275 -12.008,-6.03 -14.68,1.994 l -23.503,70.575 c -1.685,5.059 -2.67,8.534 1.128,13.245 17.657,21.896 27.647,26.377 36.061,50.634 3.764,10.851 0.651,17.587 -2.046,22.932 -44.756,88.705 -122.563,157.974 -213.594,177.895 -47.144,10.317 -81.406004,8.952 -136.560004,-9.918 -13.5969998,-4.653 -15.3739999,9.687 -5.6779998,15.785 49.5629998,31.171 119.5290038,69.29705 159.7470038,66.42802 59.929,-4.273 115.487,-44.08602 149.691,-85.03802 62.122,-74.379 76.58948,-169.72661 78.135,-189.058 3.16811,-39.62664 -4.34849,-105.64559 -28.701,-135.474 z"
     style="color:#000000;fill:#ff0000;fill-opacity:0.60784314;stroke:#000000;stroke-width:1;stroke-linecap:butt;stroke-linejoin:miter;stroke-miterlimit:4;stroke-opacity:1;stroke-dasharray:none;stroke-dashoffset:0;marker:none;visibility:visible;display:inline;overflow:visible;enable-background:accumulate" />
  <g
     id="layer1"
     transform="translate(-136.68243,298.91107)"
     style="fill:#000000;fill-opacity:1;stroke:#000000;stroke-opacity:1" />
</svg>
