<?xml version="1.0" encoding="UTF-8" standalone="no"?>
<!-- Created with Inkscape (http://www.inkscape.org/) -->

<svg
   xmlns:dc="http://purl.org/dc/elements/1.1/"
   xmlns:cc="http://creativecommons.org/ns#"
   xmlns:rdf="http://www.w3.org/1999/02/22-rdf-syntax-ns#"
   xmlns:svg="http://www.w3.org/2000/svg"
   xmlns="http://www.w3.org/2000/svg"
   xmlns:sodipodi="http://sodipodi.sourceforge.net/DTD/sodipodi-0.dtd"
   xmlns:inkscape="http://www.inkscape.org/namespaces/inkscape"
   version="1.0"
   width="1000"
   height="1000"
   id="svg5496"
   sodipodi:version="0.32"
   inkscape:version="0.47pre4 r22446"
   sodipodi:docname="lam+haa.init.svg"
   inkscape:output_extension="org.inkscape.output.svg.inkscape">
  <metadata
     id="metadata5594">
    <rdf:RDF>
      <cc:Work
         rdf:about="">
        <dc:format>image/svg+xml</dc:format>
        <dc:type
           rdf:resource="http://purl.org/dc/dcmitype/StillImage" />
      </cc:Work>
    </rdf:RDF>
  </metadata>
  <sodipodi:namedview
     inkscape:pageshadow="2"
     inkscape:pageopacity="0.0"
     guidetolerance="10.0"
     gridtolerance="10.0"
     objecttolerance="10.0"
     borderopacity="1.0"
     bordercolor="#666666"
     pagecolor="#ffffff"
     id="base"
     showgrid="false"
     showguides="true"
     inkscape:guide-bbox="true"
     inkscape:zoom="0.64205296"
     inkscape:cx="510.45387"
     inkscape:cy="620.17278"
     inkscape:window-x="0"
     inkscape:window-y="24"
     inkscape:current-layer="svg5496"
     inkscape:window-width="1280"
     inkscape:window-height="725"
     inkscape:window-maximized="1">
    <sodipodi:guide
       orientation="horizontal"
       position="200"
       id="guide5596" />
  </sodipodi:namedview>
  <defs
     id="defs5498">
    <inkscape:perspective
       sodipodi:type="inkscape:persp3d"
       inkscape:vp_x="0 : 500 : 1"
       inkscape:vp_y="0 : 1000 : 0"
       inkscape:vp_z="1000 : 500 : 1"
       inkscape:persp3d-origin="500 : 333.33333 : 1"
       id="perspective8" />
    <inkscape:perspective
       id="perspective2388"
       inkscape:persp3d-origin="372.04724 : 350.78739 : 1"
       inkscape:vp_z="744.09448 : 526.18109 : 1"
       inkscape:vp_y="0 : 1000 : 0"
       inkscape:vp_x="0 : 526.18109 : 1"
       sodipodi:type="inkscape:persp3d" />
    <inkscape:perspective
       id="perspective2423"
       inkscape:persp3d-origin="372.04724 : 350.78739 : 1"
       inkscape:vp_z="744.09448 : 526.18109 : 1"
       inkscape:vp_y="0 : 1000 : 0"
       inkscape:vp_x="0 : 526.18109 : 1"
       sodipodi:type="inkscape:persp3d" />
    <inkscape:perspective
       id="perspective2436"
       inkscape:persp3d-origin="372.04724 : 350.78739 : 1"
       inkscape:vp_z="744.09448 : 526.18109 : 1"
       inkscape:vp_y="0 : 1000 : 0"
       inkscape:vp_x="0 : 526.18109 : 1"
       sodipodi:type="inkscape:persp3d" />
    <inkscape:perspective
       id="perspective3834"
       inkscape:persp3d-origin="0.5 : 0.33333333 : 1"
       inkscape:vp_z="1 : 0.5 : 1"
       inkscape:vp_y="0 : 1000 : 0"
       inkscape:vp_x="0 : 0.5 : 1"
       sodipodi:type="inkscape:persp3d" />
  </defs>
  <g
     id="layer1"
     transform="translate(-244.49339,198.3005)" />
  <path
     style="fill:#ff0000;fill-opacity:0.60784314;fill-rule:evenodd;stroke:#000000;stroke-width:1;stroke-linecap:butt;stroke-linejoin:miter;stroke-miterlimit:4;stroke-opacity:1;stroke-dasharray:none"
     d="m 184.357,189.5805 c 10.094,73.6226 27.737,227.40339 33.191,276.3459 0.507,15.3547 -17.093,31.8316 -28.879,33.6254 -47.055,7.1618 -108.253,4.1816 -152.602,21.0169 -8.035,3.0503 -14.964,7.4523 -19.083,14.235 -6.275,10.3325 -16.448,33.65 -24.826,63.4736 33.448,-3.7247 76.716,-0.091 112.571,3.1767 33.607,3.0628 113.697,21.0087 144.471,35.3378 C 169.613,676.3254 79.055,694.6732 0.491,709.4353 L 0,800 c 125.344,-30.4471 203.289,-85.9178 296.044,-106.7771 92.756,-20.8592 182.996,-15.2994 241.83202,-3.0748 5.368,1.1153 19.546,3.6426 22.874,-11.2929 2.867,-12.8621 6.599,-35.6018 10.618,-59.4578 2.082,-12.3563 -4.65,-19.7377 -10.69,-20.1432 C 491.828,594.6319 446.499,589.0299 403.93,580.3727 328.18,564.9679 285.075,548.1297 231.559,530.5368 c 44.426,-50.7092 14.388,-196.83613 6.772,-296.05189 -0.791,-10.32324 -1.025,-17.18896 2.791,-21.59368 11.204,-12.93211 22.015,-24.93336 31.371,-35.83555 5.905,-6.88188 4.462,-18.94001 -0.766,-23.5306 -17.081,-15.00007 -24.891,-24.72074 -42.427,-55.401023 -5.744,-10.04948 -17.261,-6.86005 -22.5,-1.00064 -5.74,6.418993 -24.294,27.030293 -33.237,42.414083 -5.561,7.90569 7.926,29.22786 10.794,50.043 z"
     id="path2394-0"
     sodipodi:nodetypes="ccssscsccczssssscsssssscs" />
</svg>
