<?xml version="1.0" encoding="UTF-8" standalone="no"?>
<!-- Created with Inkscape (http://www.inkscape.org/) -->

<svg
   xmlns:dc="http://purl.org/dc/elements/1.1/"
   xmlns:cc="http://creativecommons.org/ns#"
   xmlns:rdf="http://www.w3.org/1999/02/22-rdf-syntax-ns#"
   xmlns:svg="http://www.w3.org/2000/svg"
   xmlns="http://www.w3.org/2000/svg"
   xmlns:sodipodi="http://sodipodi.sourceforge.net/DTD/sodipodi-0.dtd"
   xmlns:inkscape="http://www.inkscape.org/namespaces/inkscape"
   version="1.0"
   width="1000"
   height="1000"
   id="svg5496"
   sodipodi:version="0.32"
   inkscape:version="0.47pre4 r22446"
   sodipodi:docname="lam+kaf.isol.svg"
   inkscape:output_extension="org.inkscape.output.svg.inkscape">
  <metadata
     id="metadata5594">
    <rdf:RDF>
      <cc:Work
         rdf:about="">
        <dc:format>image/svg+xml</dc:format>
        <dc:type
           rdf:resource="http://purl.org/dc/dcmitype/StillImage" />
      </cc:Work>
    </rdf:RDF>
  </metadata>
  <sodipodi:namedview
     inkscape:pageshadow="2"
     inkscape:pageopacity="0.0"
     guidetolerance="10.0"
     gridtolerance="10.0"
     objecttolerance="10.0"
     borderopacity="1.0"
     bordercolor="#666666"
     pagecolor="#ffffff"
     id="base"
     showgrid="false"
     showguides="true"
     inkscape:guide-bbox="true"
     inkscape:zoom="0.454"
     inkscape:cx="500"
     inkscape:cy="500"
     inkscape:window-x="0"
     inkscape:window-y="24"
     inkscape:current-layer="svg5496"
     inkscape:window-width="1280"
     inkscape:window-height="725"
     inkscape:window-maximized="1">
    <sodipodi:guide
       orientation="horizontal"
       position="200"
       id="guide5596" />
  </sodipodi:namedview>
  <defs
     id="defs5498">
    <inkscape:perspective
       sodipodi:type="inkscape:persp3d"
       inkscape:vp_x="0 : 500 : 1"
       inkscape:vp_y="0 : 1000 : 0"
       inkscape:vp_z="1000 : 500 : 1"
       inkscape:persp3d-origin="500 : 333.33333 : 1"
       id="perspective3295" />
    <inkscape:perspective
       id="perspective4161"
       inkscape:persp3d-origin="0.5 : 0.33333333 : 1"
       inkscape:vp_z="1 : 0.5 : 1"
       inkscape:vp_y="0 : 1000 : 0"
       inkscape:vp_x="0 : 0.5 : 1"
       sodipodi:type="inkscape:persp3d" />
  </defs>
  <path
     style="fill:#ff0000;fill-opacity:0.60784314;fill-rule:evenodd;stroke:#000000;stroke-width:0.96168029px;stroke-linecap:butt;stroke-linejoin:miter;stroke-miterlimit:4;stroke-opacity:1;stroke-dasharray:none"
     d="m 616.24235,75.988904 -27.518,49.707006 c -4.492,8.114 -2.539,17.476 -1.61,26.188 21.274,199.728 41.196,340.005 44.226,361.856 5.511,39.737 -13.948,74.834 -35.844,93.173 -64.671,54.158 -233.499,90.468 -344.452,88.533 -115.452,-2.016 -151.716,-19.73 -189.662002,-49.956 -39.09,-31.139 -38.025,-78.322 -2.086,-143.79 5.149,-9.377 0.6,-25.28 -12.844,-8.611 -51.7800003,64.203 -56.995,183.242 -28.201,226.906 17.527,26.577 49.722,65.823 115.809002,73.905 137.692,16.941 326.124,-11.675 444.692,-87.414 37.992,-24.269 56.093,-78.808 67.146,-111.252 3.972,-10.425 7.847,-22.382 10.162,-6.16 12.216,85.593 59.645,208.483 120.083,208.632 23.867,0.06 37.48,-5.577 63.815,-22.339 32.231,-20.514 34.35,-144.852 29.49,-205.613 -9.786,-122.345 -35.683,-236.635 -53.526,-354.952 -3.313,-13.84 -0.349,-20.061 2.779,-25.01 l 23.626,-36.401 c 1.698,-3.28 3.551,-3.976 1.836,-10.801 -18.896,-19.446 -38.171,-37.375 -55.21,-64.249006 -3.02,-1.73 -5.438,-5.158 -10.25,-1.827 l -28.89,57.455006 c -0.916,5.042 -6.811,7.113 -2.127,15.493 l 11.185,23.104 c 16.109,103.836 78.777,447.153 73.826,510.006 -105.902,44.462 -134.94,-126.768 -147.134,-182.342 -21.588,-116.82 -50.189,-388.926 -53.876,-422.060006 -1.386,-12.462 -11.973,-8.454 -15.445,-2.181 z"
     id="path2513-8"
     sodipodi:nodetypes="cssssssssssscsssscccccccccccss" />
  <path
     style="fill:#ff0000;fill-opacity:0.60784314;fill-rule:evenodd;stroke:#000000;stroke-width:1;stroke-linecap:butt;stroke-linejoin:miter;stroke-miterlimit:4;stroke-opacity:1;stroke-dasharray:none"
     d="m 351.36835,192.08791 c -62.839,16.602 -94.956,73.268 -112.581,147.338 -5.508,23.152 16.005,45.4 47.203,52.501 l 29.051,6.613 c 8.78,1.557 12.612,9.162 6.524,12.408 -23.979,12.781 -91.568,8.519 -165.91,13.464 -12.173,0.807 -13.611,16.97 1.11,22.419 40.544,15.007 123.564,23.369 152.223,16.049 26.265,-6.708 60.756,-62.034 71.379,-91.708 2.858,-7.986 18.054,-45.238 -29.243,-52.181 -47.204,-6.928 -71.716,-20.151 -65.328,-28.609 6.854,-9.075 26.652,-18.345 39.408,-20.986 3.338,-0.691 6.987,-3.91 10.947,-13.713 l 21.474,-53.167 c 1.646,-4.593 -0.459,-10.286 -6.257,-10.428 z"
     id="path2515-3"
     sodipodi:nodetypes="csscssssssssscc" />
</svg>
