<?xml version="1.0" encoding="UTF-8" standalone="no"?>
<!-- Created with Inkscape (http://www.inkscape.org/) -->

<svg
   xmlns:dc="http://purl.org/dc/elements/1.1/"
   xmlns:cc="http://creativecommons.org/ns#"
   xmlns:rdf="http://www.w3.org/1999/02/22-rdf-syntax-ns#"
   xmlns:svg="http://www.w3.org/2000/svg"
   xmlns="http://www.w3.org/2000/svg"
   xmlns:sodipodi="http://sodipodi.sourceforge.net/DTD/sodipodi-0.dtd"
   xmlns:inkscape="http://www.inkscape.org/namespaces/inkscape"
   version="1.0"
   width="1000"
   height="1000"
   id="svg5496"
   sodipodi:version="0.32"
   inkscape:version="0.47pre0 r21549"
   sodipodi:docname="lam+raa.isol.svg"
   inkscape:output_extension="org.inkscape.output.svg.inkscape">
  <metadata
     id="metadata5594">
    <rdf:RDF>
      <cc:Work
         rdf:about="">
        <dc:format>image/svg+xml</dc:format>
        <dc:type
           rdf:resource="http://purl.org/dc/dcmitype/StillImage" />
        <dc:title></dc:title>
      </cc:Work>
    </rdf:RDF>
  </metadata>
  <sodipodi:namedview
     inkscape:window-height="618"
     inkscape:pageshadow="2"
     inkscape:pageopacity="0.0"
     borderopacity="1.0"
     bordercolor="#666666"
     pagecolor="#ffffff"
     id="base"
     showgrid="false"
     showguides="true"
     inkscape:guide-bbox="true"
     inkscape:zoom="0.32102648"
     inkscape:cx="447.77602"
     inkscape:cy="793.36653"
     inkscape:window-x="0"
     inkscape:window-y="25"
     inkscape:current-layer="svg5496">
    <sodipodi:guide
       orientation="horizontal"
       position="200"
       id="guide5596" />
  </sodipodi:namedview>
  <defs
     id="defs5498">
    <inkscape:perspective
       sodipodi:type="inkscape:persp3d"
       inkscape:vp_x="0 : 500 : 1"
       inkscape:vp_y="0 : 1000 : 0"
       inkscape:vp_z="1000 : 500 : 1"
       inkscape:persp3d-origin="500 : 333.33333 : 1"
       id="perspective2873" />
    <inkscape:perspective
       id="perspective2862"
       inkscape:persp3d-origin="0.5 : 0.33333333 : 1"
       inkscape:vp_z="1 : 0.5 : 1"
       inkscape:vp_y="0 : 1000 : 0"
       inkscape:vp_x="0 : 0.5 : 1"
       sodipodi:type="inkscape:persp3d" />
  </defs>
  <g
     id="layer1"
     transform="translate(-136.68243,298.91107)"
     style="fill:#000000;fill-opacity:1;stroke:#000000;stroke-opacity:1" />
  <path
     style="color:#000000;fill:#000000;stroke:#000000;stroke-width:1px;stroke-linecap:butt;stroke-linejoin:miter;stroke-miterlimit:4;stroke-opacity:1;stroke-dasharray:none;stroke-dashoffset:0;marker:none;visibility:visible;display:inline;overflow:visible;enable-background:accumulate;fill-opacity:1"
     d="m 510.89466,67.633541 -39.64757,61.674009 c 5.75566,29.80084 13.45547,59.74251 17.89423,89.97913 22.10604,150.58538 41.34042,303.11601 45.98241,436.17726 0.0429,1.22921 -0.16092,4.08076 -1.08062,5.24758 -12.75727,16.18516 -44.30838,22.83112 -76.55882,23.81429 -25.70218,0.78354 -51.08782,-9.15572 -65.31802,-27.86155 -4.31621,-5.67373 -6.6343,-1.58249 -7.6118,0.79189 l -33.05053,80.12345 c -2.14259,5.19422 -2.19712,5.28955 1.80631,10.25421 18.60636,23.07377 33.59609,49.66831 43.04697,77.50898 0.56365,1.66042 0.31938,3.55432 -0.40905,4.95523 -48.15979,92.62027 -129.16046,166.4772 -225.09185,187.47068 -49.68041,10.872 -99.758291,5.9409 -157.881171,-13.945 -14.3294099,-4.90261 -16.2013999,10.209 -5.9836299,16.6351 52.2317099,32.8491 139.9342809,76.5187 182.3172309,73.4963 63.15438,-4.5036 114.71731,-46.4596 150.76161,-89.6149 65.46671,-78.38226 86.49495,-178.99309 89.3265,-199.23419 0.26366,-1.88478 1.97342,-2.9626 4.11198,-3.22219 33.69429,-4.08996 62.10468,-12.88865 81.78878,-28.91338 35.68986,-29.05495 49.75585,-77.29561 57.13744,-132.97225 12.35546,-93.19272 -11.10269,-279.76301 -26.29811,-422.58491 l 37.44494,-57.26873 -72.68723,-92.511009 z"
     id="path2884"
     sodipodi:nodetypes="ccssssscsssssssssssssccc" />
</svg>
