<?xml version="1.0" encoding="UTF-8" standalone="no"?>
<!-- Created with Inkscape (http://www.inkscape.org/) -->
<svg
   xmlns:dc="http://purl.org/dc/elements/1.1/"
   xmlns:cc="http://creativecommons.org/ns#"
   xmlns:rdf="http://www.w3.org/1999/02/22-rdf-syntax-ns#"
   xmlns:svg="http://www.w3.org/2000/svg"
   xmlns="http://www.w3.org/2000/svg"
   xmlns:sodipodi="http://sodipodi.sourceforge.net/DTD/sodipodi-0.dtd"
   xmlns:inkscape="http://www.inkscape.org/namespaces/inkscape"
   version="1.0"
   width="1000"
   height="1000"
   id="svg5496"
   sodipodi:version="0.32"
   inkscape:version="0.46"
   sodipodi:docname="lam+haa+meem.init.svg"
   inkscape:output_extension="org.inkscape.output.svg.inkscape">
  <metadata
     id="metadata5594">
    <rdf:RDF>
      <cc:Work
         rdf:about="">
        <dc:format>image/svg+xml</dc:format>
        <dc:type
           rdf:resource="http://purl.org/dc/dcmitype/StillImage" />
      </cc:Work>
    </rdf:RDF>
  </metadata>
  <sodipodi:namedview
     inkscape:window-height="618"
     inkscape:window-width="641"
     inkscape:pageshadow="2"
     inkscape:pageopacity="0.0"
     guidetolerance="10.0"
     gridtolerance="10.0"
     objecttolerance="10.0"
     borderopacity="1.0"
     bordercolor="#666666"
     pagecolor="#ffffff"
     id="base"
     showgrid="false"
     showguides="true"
     inkscape:guide-bbox="true"
     inkscape:zoom="0.454"
     inkscape:cx="376.17959"
     inkscape:cy="594.38159"
     inkscape:window-x="0"
     inkscape:window-y="25"
     inkscape:current-layer="svg5496">
    <sodipodi:guide
       orientation="horizontal"
       position="200"
       id="guide5596" />
  </sodipodi:namedview>
  <defs
     id="defs5498">
    <inkscape:perspective
       sodipodi:type="inkscape:persp3d"
       inkscape:vp_x="0 : 500 : 1"
       inkscape:vp_y="0 : 1000 : 0"
       inkscape:vp_z="1000 : 500 : 1"
       inkscape:persp3d-origin="500 : 333.33333 : 1"
       id="perspective2389" />
    <inkscape:perspective
       id="perspective2398"
       inkscape:persp3d-origin="372.04724 : 350.78739 : 1"
       inkscape:vp_z="744.09448 : 526.18109 : 1"
       inkscape:vp_y="0 : 1000 : 0"
       inkscape:vp_x="0 : 526.18109 : 1"
       sodipodi:type="inkscape:persp3d" />
  </defs>
  <g
     id="layer1"
     style="fill:#000000;fill-opacity:1"
     transform="translate(-171.80617,34)" />
  <path
     style="fill:#000000;fill-opacity:1;fill-rule:evenodd;stroke:#000000;stroke-width:1px;stroke-linecap:butt;stroke-linejoin:miter;stroke-opacity:1"
     d="M 227.13133,-9 C 225.29854,-9.003592 223.33055,-7.74662 221.06883,-5 C 212.61128,5.270786 202.05576,26.370162 199.19383,42.96875 C 198.32373,48.015162 196.60599,54.765498 199.63133,59.4375 C 205.7329,68.860097 211.45555,77.362613 213.66258,88 C 233.89417,185.51108 261.90883,281.96689 269.75633,379.96875 C 270.46969,388.87742 266.90062,397.17054 262.75633,403.71875 C 173.36608,376.67807 101.56652,392.83092 87.631333,477.40625 C 86.883083,483.21343 86.962093,486.66613 93.537583,485.125 C 129.37985,476.72447 159.98696,472.5486 191.53758,476.8125 C 240.49436,483.42878 282.16181,502.24976 309.03758,514.6875 C 315.70844,517.77468 316.2009,521.84078 308.94383,523.4375 C 248.05853,536.83363 140.07383,563.21322 123.35008,592.4375 C 92.781853,645.85461 92.816363,668.34055 65.537583,694.4375 C 53.545303,705.91022 32.675473,713.53009 1.8500826,724.4375 L 0.6938326,800 C 38.555053,782.5855 67.762553,733.3299 96.850083,688.21875 C 147.72854,715.47507 228.88757,778.53657 243.66258,774.28125 C 298.03315,672.39129 240.14773,664.62554 177.06883,609.59375 C 343.83386,539.37263 467.54713,558.41036 560.22508,580.03125 C 562.40651,580.54016 567.35871,579.39713 568.60008,577.65625 C 581.0828,560.15029 589.72806,539.92797 595.00633,516.1875 C 596.03563,511.55797 596.7998,506.84882 591.41258,507.0625 C 519.58226,509.91156 462.26438,487.36985 395.10008,460.3125 C 358.56203,445.59304 313.97409,424.28363 275.53758,408.71875 C 283.64842,394.07519 294.31366,368.67022 297.00633,333.125 C 301.26125,276.95709 273.84286,150.18757 266.22508,116.4375 C 264.91933,110.65247 264.24961,106.36547 266.31883,100.5625 C 270.86986,87.799568 275.76245,77.339605 281.75633,64.0625 C 283.64399,59.881114 282.60319,58.104363 280.47508,56.4375 C 262.28806,42.192361 245.58186,16.997599 233.69383,-3.34375 C 231.59876,-6.928578 229.48778,-8.995382 227.13133,-9 z"
     id="path2404"
     sodipodi:nodetypes="csssssccsssssscccccssssscssssssc" />
</svg>
