<?xml version="1.0" encoding="UTF-8" standalone="no"?>
<!-- Created with Inkscape (http://www.inkscape.org/) -->

<svg
   xmlns:dc="http://purl.org/dc/elements/1.1/"
   xmlns:cc="http://creativecommons.org/ns#"
   xmlns:rdf="http://www.w3.org/1999/02/22-rdf-syntax-ns#"
   xmlns:svg="http://www.w3.org/2000/svg"
   xmlns="http://www.w3.org/2000/svg"
   xmlns:sodipodi="http://sodipodi.sourceforge.net/DTD/sodipodi-0.dtd"
   xmlns:inkscape="http://www.inkscape.org/namespaces/inkscape"
   version="1.0"
   width="1000"
   height="1000"
   id="svg5496"
   sodipodi:version="0.32"
   inkscape:version="0.47pre4 r22446"
   sodipodi:docname="lam+qaf.fina.svg"
   inkscape:output_extension="org.inkscape.output.svg.inkscape">
  <metadata
     id="metadata5594">
    <rdf:RDF>
      <cc:Work
         rdf:about="">
        <dc:format>image/svg+xml</dc:format>
        <dc:type
           rdf:resource="http://purl.org/dc/dcmitype/StillImage" />
      </cc:Work>
    </rdf:RDF>
  </metadata>
  <sodipodi:namedview
     inkscape:pageshadow="2"
     inkscape:pageopacity="0.0"
     guidetolerance="10.0"
     gridtolerance="10.0"
     objecttolerance="10.0"
     borderopacity="1.0"
     bordercolor="#666666"
     pagecolor="#ffffff"
     id="base"
     showgrid="false"
     showguides="true"
     inkscape:guide-bbox="true"
     inkscape:zoom="0.22752692"
     inkscape:cx="678.45675"
     inkscape:cy="951.63746"
     inkscape:window-x="0"
     inkscape:window-y="0"
     inkscape:current-layer="svg5496"
     inkscape:window-width="1278"
     inkscape:window-height="767"
     inkscape:window-maximized="1">
    <sodipodi:guide
       orientation="horizontal"
       position="200"
       id="guide5596" />
  </sodipodi:namedview>
  <defs
     id="defs5498">
    <inkscape:perspective
       sodipodi:type="inkscape:persp3d"
       inkscape:vp_x="0 : 500 : 1"
       inkscape:vp_y="0 : 1000 : 0"
       inkscape:vp_z="1000 : 500 : 1"
       inkscape:persp3d-origin="500 : 333.33333 : 1"
       id="perspective8" />
    <inkscape:perspective
       id="perspective2388"
       inkscape:persp3d-origin="372.04724 : 350.78739 : 1"
       inkscape:vp_z="744.09448 : 526.18109 : 1"
       inkscape:vp_y="0 : 1000 : 0"
       inkscape:vp_x="0 : 526.18109 : 1"
       sodipodi:type="inkscape:persp3d" />
    <inkscape:perspective
       sodipodi:type="inkscape:persp3d"
       inkscape:vp_x="0 : 526.18109 : 1"
       inkscape:vp_y="0 : 1000 : 0"
       inkscape:vp_z="744.09448 : 526.18109 : 1"
       inkscape:persp3d-origin="372.04724 : 350.78739 : 1"
       id="perspective2405" />
    <inkscape:perspective
       id="perspective2403"
       inkscape:persp3d-origin="500 : 333.33333 : 1"
       inkscape:vp_z="1000 : 500 : 1"
       inkscape:vp_y="0 : 1000 : 0"
       inkscape:vp_x="0 : 500 : 1"
       sodipodi:type="inkscape:persp3d" />
    <inkscape:perspective
       sodipodi:type="inkscape:persp3d"
       inkscape:vp_x="0 : 526.18109 : 1"
       inkscape:vp_y="0 : 1000 : 0"
       inkscape:vp_z="744.09448 : 526.18109 : 1"
       inkscape:persp3d-origin="372.04724 : 350.78739 : 1"
       id="perspective2422" />
    <inkscape:perspective
       id="perspective2420"
       inkscape:persp3d-origin="500 : 333.33333 : 1"
       inkscape:vp_z="1000 : 500 : 1"
       inkscape:vp_y="0 : 1000 : 0"
       inkscape:vp_x="0 : 500 : 1"
       sodipodi:type="inkscape:persp3d" />
    <inkscape:perspective
       id="perspective5670"
       inkscape:persp3d-origin="0.5 : 0.33333333 : 1"
       inkscape:vp_z="1 : 0.5 : 1"
       inkscape:vp_y="0 : 1000 : 0"
       inkscape:vp_x="0 : 0.5 : 1"
       sodipodi:type="inkscape:persp3d" />
  </defs>
  <path
     style="fill:#ff0000;fill-opacity:0.60784314;fill-rule:evenodd;stroke:#000000;stroke-width:0;stroke-linecap:butt;stroke-linejoin:miter;stroke-miterlimit:4;stroke-opacity:1;stroke-dasharray:none"
     d="m 678.85897,63.58081 c -10.35969,17.259461 -21.60479,42.75787 -27.0877,58.28955 -4.88639,13.84189 -3.2506,18.93992 -2.8545,25.3717 8.5599,138.99419 47.7959,350.70056 18.0129,416.46556 -17.0248,37.5926 -57.51929,59.37179 -111.9894,62.9965 -34.11554,2.27022 -33.22805,95.39409 2.6548,85.3775 22.98338,-6.41574 47.6876,-14.3411 68.7837,-28.1866 44.2074,-29.0136 64.9021,-96.9391 75.2668,-135.2455 9.3207,105.0797 21.61303,227.60668 121.4043,235.35048 27.07419,2.10096 47.35335,-80.98665 -0.078,-90.83278 C 781.32636,684.52216 758.21448,635.68599 752.1104,604.29596 728.51512,482.95807 718.01564,269.13008 695.32127,76.13588 694.39979,68.299573 685.50908,52.501583 678.85897,63.58081 z"
     id="path2824"
     sodipodi:nodetypes="csssssscsssss" />
  <g
     id="layer1"
     transform="matrix(1.3,0,0,1.3,52.864722,51.2)" />
  <path
     sodipodi:nodetypes="csscccssssscssscsssc"
     id="path2820"
     d="m 554.94027,626.70412 c -8.73454,-41.63397 -56.9539,-154.8953 -110.8906,-128.4647 -36.5299,17.9007 -55.779,63.9678 -68.5422,93.5484 -37.8468,87.7162 -5.283,131.3099 67.4521,134.6348 32.6419,1.3031 61.5945,-1.7167 86.7886,-7.0802 0.4449,1.487 0.7475,14.1089 0.7488,17.4713 C 529.59397,799.7137 429.98277,905.8902 233.80307,902.945 86.45908,900.733 40.120881,813.7751 49.831981,721.32572 c 4.4437,-42.3046 22.205,-85.759 44.592999,-122.7693 9.38079,-15.5078 -10.3036,-23.9014 -17.2775,-12.4625 -32.383799,53.1172 -55.681299,110.605 -66.931699,161.13708 -32.4941,145.9497 27.0963,254.7271 220.287889,251.3506 65.0666,-1.1385 259.1916,-49.6126 304.8898,-182.9077 12.4605,-36.3462 19.90418,-73.48603 22.2016,-103.59228 1.52345,-19.96389 3.39398,-56.54547 -2.6548,-85.3775 z m -86.8175,-13.9439 c 5.6218,7.4665 5.6397,16.3104 -1.1711,17.8077 -20.943,4.6042 -50.1821,0.4158 -60.4059,-11.7405 -2.008,-2.3878 -1.64674,-8.46651 0.5059,-11.9787 19.44857,-31.73178 40.3888,-21.5571 61.0711,5.9115 z"
     style="fill:#ff0000;fill-opacity:0.60784314;fill-rule:evenodd;stroke:#000000;stroke-width:0;stroke-linecap:butt;stroke-linejoin:miter;stroke-miterlimit:4;stroke-opacity:1;stroke-dasharray:none" />
</svg>
