<?xml version="1.0" encoding="UTF-8" standalone="no"?>
<!-- Created with Inkscape (http://www.inkscape.org/) -->
<svg
   xmlns:dc="http://purl.org/dc/elements/1.1/"
   xmlns:cc="http://creativecommons.org/ns#"
   xmlns:rdf="http://www.w3.org/1999/02/22-rdf-syntax-ns#"
   xmlns:svg="http://www.w3.org/2000/svg"
   xmlns="http://www.w3.org/2000/svg"
   xmlns:sodipodi="http://sodipodi.sourceforge.net/DTD/sodipodi-0.dtd"
   xmlns:inkscape="http://www.inkscape.org/namespaces/inkscape"
   version="1.0"
   width="1000"
   height="1000"
   id="svg5496"
   sodipodi:version="0.32"
   inkscape:version="0.46"
   sodipodi:docname="lam+heh.fina.svg"
   inkscape:output_extension="org.inkscape.output.svg.inkscape">
  <metadata
     id="metadata5594">
    <rdf:RDF>
      <cc:Work
         rdf:about="">
        <dc:format>image/svg+xml</dc:format>
        <dc:type
           rdf:resource="http://purl.org/dc/dcmitype/StillImage" />
      </cc:Work>
    </rdf:RDF>
  </metadata>
  <sodipodi:namedview
     inkscape:pageshadow="2"
     inkscape:pageopacity="0.0"
     guidetolerance="10.0"
     gridtolerance="10.0"
     objecttolerance="10.0"
     borderopacity="1.0"
     bordercolor="#666666"
     pagecolor="#ffffff"
     id="base"
     showgrid="false"
     showguides="true"
     inkscape:guide-bbox="true"
     inkscape:zoom="0.454"
     inkscape:cx="551.62384"
     inkscape:cy="440.44591"
     inkscape:window-x="0"
     inkscape:window-y="25"
     inkscape:current-layer="svg5496">
    <sodipodi:guide
       orientation="horizontal"
       position="200"
       id="guide5596" />
  </sodipodi:namedview>
  <defs
     id="defs5498">
    <inkscape:perspective
       sodipodi:type="inkscape:persp3d"
       inkscape:vp_x="0 : 500 : 1"
       inkscape:vp_y="0 : 1000 : 0"
       inkscape:vp_z="1000 : 500 : 1"
       inkscape:persp3d-origin="500 : 333.33333 : 1"
       id="perspective8" />
    <inkscape:perspective
       id="perspective2477"
       inkscape:persp3d-origin="372.04724 : 350.78739 : 1"
       inkscape:vp_z="744.09448 : 526.18109 : 1"
       inkscape:vp_y="0 : 1000 : 0"
       inkscape:vp_x="0 : 526.18109 : 1"
       sodipodi:type="inkscape:persp3d" />
    <inkscape:perspective
       sodipodi:type="inkscape:persp3d"
       inkscape:vp_x="0 : 526.18109 : 1"
       inkscape:vp_y="0 : 1000 : 0"
       inkscape:vp_z="744.09448 : 526.18109 : 1"
       inkscape:persp3d-origin="372.04724 : 350.78739 : 1"
       id="perspective2524" />
    <inkscape:perspective
       id="perspective2389"
       inkscape:persp3d-origin="500 : 333.33333 : 1"
       inkscape:vp_z="1000 : 500 : 1"
       inkscape:vp_y="0 : 1000 : 0"
       inkscape:vp_x="0 : 500 : 1"
       sodipodi:type="inkscape:persp3d" />
    <inkscape:perspective
       id="perspective2782"
       inkscape:persp3d-origin="372.04724 : 350.78739 : 1"
       inkscape:vp_z="744.09448 : 526.18109 : 1"
       inkscape:vp_y="0 : 1000 : 0"
       inkscape:vp_x="0 : 526.18109 : 1"
       sodipodi:type="inkscape:persp3d" />
  </defs>
  <g
     id="layer1" />
  <g
     id="g2596"
     transform="translate(-379.9765,-145.96646)">
    <g
       style="stroke:#000000;stroke-width:2;stroke-miterlimit:4;stroke-dasharray:none;stroke-opacity:1"
       transform="matrix(0.5,0,0,0.5,221.36564,169.60355)"
       id="g2598" />
  </g>
  <g
     id="g2773"
     transform="matrix(1,0,0,-1,171.73308,1630.4151)"
     style="fill:#000000;stroke:#000000;stroke-opacity:1">
    <path
       id="path2775"
       d="M 31.79937,994.29683 C 22.51617,951.73143 13.78077,935.92673 9.1138697,927.24803 C 0.7203197,911.30373 -6.3949303,905.83883 -16.47203,903.12983 C -61.32753,894.46186 -132.80103,898.71577 -144.92603,909.21479 C -152.80689,916.03803 -167.91823,933.40719 -161.33523,952.70019 C -155.85964,968.74509 -138.83323,1011.8232 -135.41433,1021.127 C -129.18484,1038.0821 -117.86063,1050.0059 -117.86063,1050.0059 C -83.47493,1084.2989 -40.78443,1110.2539 2.9463697,1131.0479 L -3.0829303,1170.8838 C -3.7577403,1176.6875 -5.06047,1189.7324 -2.4374203,1199.3965 L 17.51958,1245.6524 C 30.90728,1259.8262 30.64258,1241.2373 34.42878,1232.3692 C 47.880883,1177.3168 61.770903,1077.9109 87.31186,993.65118 C 113.8179,906.20761 152.872,835.07644 217.00688,846.76019 C 248.55178,853.30511 245.01278,920.00819 237.38088,966.52919 C 210.74418,1128.9112 181.93458,1282.2662 158.08598,1454.1392 C 156.15727,1468.0367 153.20219,1477.7974 158.63676,1498.4673 L 181.21386,1552.4321 C 193.67676,1574.7016 200.86526,1565.1626 203.51566,1557.3872 C 220.41316,1420.7282 240.93456,1185.1812 301.25786,1003.9732 C 318.86826,961.00737 349.35166,936.66747 387.71196,922.75147 C 387.71196,922.75147 387.9395,835.14107 387.9395,829.63427 C 345.1573,827.687 285.3605,874.56007 264.6385,910.08637 C 268.58479,827.53847 258.97248,732.41437 195.8065,730.84637 C 110.9219,728.73873 47.42443,868.69869 31.7995,994.29737 L 31.79937,994.29683 z M 11.43537,1079.1068 C -16.29513,1072.6508 -80.95423,1046.2953 -104.65163,1000.4525 C -76.52563,978.21713 -15.15453,988.36663 8.2673697,997.33827 C 38.61407,1008.9613 15.54764,1055.2485 11.43534,1079.1069 L 11.43537,1079.1068 z"
       sodipodi:nodetypes="cccscsccccccscccccccccccccccccc"
       style="fill:#000000;stroke:#000000;stroke-opacity:1" />
  </g>
</svg>
