<?xml version="1.0" encoding="UTF-8" standalone="no"?>
<!-- Created with Inkscape (http://www.inkscape.org/) -->

<svg
   xmlns:dc="http://purl.org/dc/elements/1.1/"
   xmlns:cc="http://creativecommons.org/ns#"
   xmlns:rdf="http://www.w3.org/1999/02/22-rdf-syntax-ns#"
   xmlns:svg="http://www.w3.org/2000/svg"
   xmlns="http://www.w3.org/2000/svg"
   xmlns:sodipodi="http://sodipodi.sourceforge.net/DTD/sodipodi-0.dtd"
   xmlns:inkscape="http://www.inkscape.org/namespaces/inkscape"
   version="1.0"
   width="1000"
   height="1000"
   id="svg5496"
   sodipodi:version="0.32"
   inkscape:version="0.47pre4 r22446"
   sodipodi:docname="lam+lam+alef.isol.svg"
   inkscape:output_extension="org.inkscape.output.svg.inkscape">
  <metadata
     id="metadata5594">
    <rdf:RDF>
      <cc:Work
         rdf:about="">
        <dc:format>image/svg+xml</dc:format>
        <dc:type
           rdf:resource="http://purl.org/dc/dcmitype/StillImage" />
        <dc:title />
      </cc:Work>
    </rdf:RDF>
  </metadata>
  <sodipodi:namedview
     inkscape:window-height="767"
     inkscape:window-width="1278"
     inkscape:pageshadow="2"
     inkscape:pageopacity="0.0"
     borderopacity="1.0"
     bordercolor="#666666"
     pagecolor="#ffffff"
     id="base"
     showgrid="false"
     showguides="true"
     inkscape:guide-bbox="true"
     inkscape:zoom="0.55327555"
     inkscape:cx="705.04102"
     inkscape:cy="376.99385"
     inkscape:window-x="0"
     inkscape:window-y="0"
     inkscape:current-layer="svg5496"
     inkscape:window-maximized="1">
    <sodipodi:guide
       orientation="horizontal"
       position="200"
       id="guide5596" />
  </sodipodi:namedview>
  <defs
     id="defs5498">
    <inkscape:perspective
       sodipodi:type="inkscape:persp3d"
       inkscape:vp_x="0 : 500 : 1"
       inkscape:vp_y="0 : 1000 : 0"
       inkscape:vp_z="1000 : 500 : 1"
       inkscape:persp3d-origin="500 : 333.33333 : 1"
       id="perspective6226" />
    <inkscape:perspective
       id="perspective6215"
       inkscape:persp3d-origin="0.5 : 0.33333333 : 1"
       inkscape:vp_z="1 : 0.5 : 1"
       inkscape:vp_y="0 : 1000 : 0"
       inkscape:vp_x="0 : 0.5 : 1"
       sodipodi:type="inkscape:persp3d" />
    <inkscape:perspective
       id="perspective2870"
       inkscape:persp3d-origin="0.5 : 0.33333333 : 1"
       inkscape:vp_z="1 : 0.5 : 1"
       inkscape:vp_y="0 : 1000 : 0"
       inkscape:vp_x="0 : 0.5 : 1"
       sodipodi:type="inkscape:persp3d" />
  </defs>
  <g
     id="layer1"
     transform="translate(0,-120)" />
  <path
     style="fill:#ff0000;fill-opacity:0.60784314;fill-rule:evenodd;stroke:#000000;stroke-width:1;stroke-linecap:butt;stroke-linejoin:miter;stroke-miterlimit:4;stroke-opacity:1;stroke-dasharray:none"
     d="m 405.91253,579.71984 c -39.6146,-118.7433 -158.1942,-264.0051 -359.581294,-350.891 -17.1194,-10.4174 -37.4704998,4.8174 -37.2186998,17.2812 0.086,4.2521 3.7592998,94.3705 3.7592998,94.3705 -0.8768,11.5907 2.9981,19.2863 19.4688,30.6563 l 82.945294,46.5516 c 17.9566,12.3956 39.409,13.3689 47.7343,-2.3577 2.4608,-4.6486 7.6895,-16.0279 9.7188,-20.1563 4.8321,-9.8308 14.0823,-3.187 19.0938,-0.062 90.1851,56.2366 162.30492,130.63695 192.5484,229.5767 10.07402,32.85013 29.97811,-19.6503 21.5313,-44.9693 z"
     id="path2837"
     sodipodi:nodetypes="ccscccsscss" />
  <path
     sodipodi:nodetypes="ccccsssssscsssc"
     id="path2839"
     d="m 547.50793,605.18054 c -42.7462,-133.27171 -62.9703,-334.3029 -73.2813,-452.75 -1.26,-14.4589 -10.0285,-20.36 -18.6875,-5.125 l -24.4688,43.0313 c -6.8639,12.077 -5.2085,24.2919 -4.2812,36.4687 9.9496,130.6515 18.75766,230.12161 -20.8766,352.9143 -3.35171,10.38407 -9.42184,27.16748 -21.5313,44.9693 -51.61693,75.88081 -132.6323,156.3083 -308.052994,204.7171 -8.3613,2.3073 -11.1548,12.1604 -0.1874,15.5 11.5441,3.5151 95.645594,2.3186 162.898294,-14.7876 138.9473,-35.3423 199.9494,-216.7579 221.1875,-377.375 12.3194,71.0435 22.3564,142.2263 35.5,201.0312 24.7064,110.5376 78.63114,146.53555 121.8079,144.1594 17.29831,-0.95198 34.85155,-96.81982 -0.0783,-110.24966 -40.4079,-15.53604 -54.88088,-45.50614 -69.9483,-82.50404 z"
     style="fill:#ff0000;fill-opacity:0.60784314;fill-rule:evenodd;stroke:#000000;stroke-width:1;stroke-linecap:butt;stroke-linejoin:miter;stroke-miterlimit:4;stroke-opacity:1;stroke-dasharray:none" />
  <path
     style="fill:#ff0000;fill-opacity:0.60784314;fill-rule:evenodd;stroke:#000000;stroke-width:1;stroke-linecap:butt;stroke-linejoin:miter;stroke-miterlimit:4;stroke-opacity:1;stroke-dasharray:none"
     d="m 604.48889,195.188 c -4.27392,9.20055 6.67463,43.97568 7.60049,50.16494 23.40524,156.46184 61.91503,361.1102 52.85593,437.7652 -10.2878,8.30251 -28.04693,10.46368 -47.48905,4.56644 -55.44396,-16.81743 -46.33102,111.12032 0.0783,110.24966 43.77047,-0.82116 72.75878,-74.4077 79.16078,-115.4406 13.5671,-86.964 -16.0484,-255.924 -34.7435,-392.8471 -1.4961,-7.788 2.2034,-13.318 5.5624,-19 0,0 13.81231,-18.0234 18.40392,-24.03199 5.46656,-7.15357 3.88638,-17.76171 0.43988,-21.06171 -24.05475,-23.03224 -39.00317,-56.66313 -43.06134,-74.42074 -2.39831,-10.49446 -11.33289,-11.63035 -15.43114,-4.16652 -7.9209,14.42576 -15.90462,32.13724 -23.37667,48.22242 z"
     id="path2841"
     sodipodi:nodetypes="cscsscccsssss" />
</svg>
