<?xml version="1.0" encoding="UTF-8" standalone="no"?>
<!-- Created with Inkscape (http://www.inkscape.org/) -->

<svg
   xmlns:dc="http://purl.org/dc/elements/1.1/"
   xmlns:cc="http://creativecommons.org/ns#"
   xmlns:rdf="http://www.w3.org/1999/02/22-rdf-syntax-ns#"
   xmlns:svg="http://www.w3.org/2000/svg"
   xmlns="http://www.w3.org/2000/svg"
   xmlns:sodipodi="http://sodipodi.sourceforge.net/DTD/sodipodi-0.dtd"
   xmlns:inkscape="http://www.inkscape.org/namespaces/inkscape"
   version="1.0"
   width="1000"
   height="1000"
   id="svg5496"
   sodipodi:version="0.32"
   inkscape:version="0.47pre4 r22446"
   sodipodi:docname="lam+heh.isol.svg"
   inkscape:output_extension="org.inkscape.output.svg.inkscape">
  <metadata
     id="metadata5594">
    <rdf:RDF>
      <cc:Work
         rdf:about="">
        <dc:format>image/svg+xml</dc:format>
        <dc:type
           rdf:resource="http://purl.org/dc/dcmitype/StillImage" />
      </cc:Work>
    </rdf:RDF>
  </metadata>
  <sodipodi:namedview
     inkscape:pageshadow="2"
     inkscape:pageopacity="0.0"
     guidetolerance="10.0"
     gridtolerance="10.0"
     objecttolerance="10.0"
     borderopacity="1.0"
     bordercolor="#666666"
     pagecolor="#ffffff"
     id="base"
     showgrid="false"
     showguides="true"
     inkscape:guide-bbox="true"
     inkscape:zoom="0.236"
     inkscape:cx="500"
     inkscape:cy="500"
     inkscape:window-x="0"
     inkscape:window-y="24"
     inkscape:current-layer="svg5496"
     inkscape:window-width="1280"
     inkscape:window-height="725"
     inkscape:window-maximized="1">
    <sodipodi:guide
       orientation="horizontal"
       position="200"
       id="guide5596" />
  </sodipodi:namedview>
  <defs
     id="defs5498">
    <inkscape:perspective
       sodipodi:type="inkscape:persp3d"
       inkscape:vp_x="0 : 500 : 1"
       inkscape:vp_y="0 : 1000 : 0"
       inkscape:vp_z="1000 : 500 : 1"
       inkscape:persp3d-origin="500 : 333.33333 : 1"
       id="perspective2389" />
    <inkscape:perspective
       id="perspective2524"
       inkscape:persp3d-origin="372.04724 : 350.78739 : 1"
       inkscape:vp_z="744.09448 : 526.18109 : 1"
       inkscape:vp_y="0 : 1000 : 0"
       inkscape:vp_x="0 : 526.18109 : 1"
       sodipodi:type="inkscape:persp3d" />
    <inkscape:perspective
       id="perspective3656"
       inkscape:persp3d-origin="0.5 : 0.33333333 : 1"
       inkscape:vp_z="1 : 0.5 : 1"
       inkscape:vp_y="0 : 1000 : 0"
       inkscape:vp_x="0 : 0.5 : 1"
       sodipodi:type="inkscape:persp3d" />
  </defs>
  <g
     id="layer1"
     transform="matrix(0.5,0,0,0.5,221.36564,169.60355)"
     style="stroke:#000000;stroke-opacity:1;stroke-width:2;stroke-miterlimit:4;stroke-dasharray:none" />
  <path
     style="fill:#ff0000;fill-opacity:0.60784314;fill-rule:evenodd;stroke:#000000;stroke-width:1;stroke-linecap:butt;stroke-linejoin:miter;stroke-miterlimit:4;stroke-opacity:1;stroke-dasharray:none"
     d="m 308.18231,28.901692 c -13.307,15.23993 -14.959,23.4171 -20.268,38.82661 -4.778,13.86581 -2.259,24.86386 0,36.343748 0,0.0334 7.511,15.22776 12.875,42.625 18.399,93.98024 61.888,293.87499 81.625,430.86829 8.678,60.2305 8.054,93.0179 0.219,108.2188 -0.581,1.1265 -38.14,6.9865 -72.344,-11.0625 -27.57,-14.5484 -45.132,-46.3217 -57.125,-78.1563 -39.478,-104.7939 -59.969,-240.0625 -59.969,-240.0625 -3.786,-8.86785 -3.519,-27.48651 -16.906,-13.3125 l -19.969,46.2812 c -2.622,9.6644 -1.3,22.6964 -0.625,28.5 l 6.031,39.8438 c -43.73,20.7942 -82.426008,46.7387 -116.812008,81.0313 0,0 -11.333,11.9199 -17.563,28.875 -3.418,9.3037 -20.431,52.3927 -25.906,68.4375 -6.583,19.293 8.526,36.6452 16.406,43.4687 12.125,10.4981 83.582008,14.7617 128.438008,6.0938 10.077,-2.7098 17.2,-8.1806 25.594,-24.125 4.667,-8.6789 15.404,-26.4654 24.687,-69.0313 15.9,62.2596 50.227,145.1981 90.375,188.6875 17.326,18.7684 84.371,34.9039 108.75,-16.4062 21.156,-44.5251 23.281,-92.2813 23.281,-92.2813 1.186,-0.3387 6.962,-100.392 -2.531,-166.2812 -17.87,-124.0353 -56.925,-304.90386 -65.832,-358.05217 24.3,-20.99923 26.874,-30.68293 29.675,-40.71445 3.042,-10.893958 -3.054,-19.104468 -10.937,-24.281248 -20.92,-13.73758 -26.219,-25.33677 -35.982,-50.303331 -5.229,-12.777479 -16.339,-12.949619 -25.187,-4.031249 z m -135.987,480.851148 c 4.113,23.8583 29.191,70.1575 -1.156,81.7813 -23.422,8.9711 -84.81201,19.1106 -112.938008,-3.125 23.698,-45.8426 86.364008,-72.2003 114.094008,-78.6563 z"
     id="path2530-0"
     sodipodi:nodetypes="cccccsscccccccsssccccccccsscccscc" />
</svg>
