<?xml version="1.0" encoding="UTF-8" standalone="no"?>
<!-- Created with Inkscape (http://www.inkscape.org/) -->

<svg
   xmlns:dc="http://purl.org/dc/elements/1.1/"
   xmlns:cc="http://creativecommons.org/ns#"
   xmlns:rdf="http://www.w3.org/1999/02/22-rdf-syntax-ns#"
   xmlns:svg="http://www.w3.org/2000/svg"
   xmlns="http://www.w3.org/2000/svg"
   xmlns:sodipodi="http://sodipodi.sourceforge.net/DTD/sodipodi-0.dtd"
   xmlns:inkscape="http://www.inkscape.org/namespaces/inkscape"
   version="1.0"
   width="1000"
   height="1000"
   id="svg5496"
   sodipodi:version="0.32"
   inkscape:version="0.47pre4 r22446"
   sodipodi:docname="lam+yaa.isol.svg"
   inkscape:output_extension="org.inkscape.output.svg.inkscape">
  <metadata
     id="metadata5594">
    <rdf:RDF>
      <cc:Work
         rdf:about="">
        <dc:format>image/svg+xml</dc:format>
        <dc:type
           rdf:resource="http://purl.org/dc/dcmitype/StillImage" />
      </cc:Work>
    </rdf:RDF>
  </metadata>
  <sodipodi:namedview
     inkscape:pageshadow="2"
     inkscape:pageopacity="0.0"
     guidetolerance="10.0"
     gridtolerance="10.0"
     objecttolerance="10.0"
     borderopacity="1.0"
     bordercolor="#666666"
     pagecolor="#ffffff"
     id="base"
     showgrid="false"
     showguides="true"
     inkscape:guide-bbox="true"
     inkscape:zoom="0.32102648"
     inkscape:cx="303.73414"
     inkscape:cy="434.48177"
     inkscape:window-x="0"
     inkscape:window-y="24"
     inkscape:current-layer="svg5496"
     inkscape:window-width="640"
     inkscape:window-height="480"
     inkscape:window-maximized="0">
    <sodipodi:guide
       orientation="horizontal"
       position="200"
       id="guide5596" />
  </sodipodi:namedview>
  <defs
     id="defs5498">
    <inkscape:perspective
       sodipodi:type="inkscape:persp3d"
       inkscape:vp_x="0 : 500 : 1"
       inkscape:vp_y="0 : 1000 : 0"
       inkscape:vp_z="1000 : 500 : 1"
       inkscape:persp3d-origin="500 : 333.33333 : 1"
       id="perspective2389" />
    <inkscape:perspective
       id="perspective2487"
       inkscape:persp3d-origin="372.04724 : 350.78739 : 1"
       inkscape:vp_z="744.09448 : 526.18109 : 1"
       inkscape:vp_y="0 : 1000 : 0"
       inkscape:vp_x="0 : 526.18109 : 1"
       sodipodi:type="inkscape:persp3d" />
    <inkscape:perspective
       id="perspective4693"
       inkscape:persp3d-origin="0.5 : 0.33333333 : 1"
       inkscape:vp_z="1 : 0.5 : 1"
       inkscape:vp_y="0 : 1000 : 0"
       inkscape:vp_x="0 : 0.5 : 1"
       sodipodi:type="inkscape:persp3d" />
    <inkscape:perspective
       id="perspective4715"
       inkscape:persp3d-origin="0.5 : 0.33333333 : 1"
       inkscape:vp_z="1 : 0.5 : 1"
       inkscape:vp_y="0 : 1000 : 0"
       inkscape:vp_x="0 : 0.5 : 1"
       sodipodi:type="inkscape:persp3d" />
  </defs>
  <g
     id="layer1"
     transform="translate(-180,0)" />
  <path
     style="fill:#ff0000;fill-opacity:0.60784314;fill-rule:evenodd;stroke:#000000;stroke-width:0.98103642px;stroke-linecap:butt;stroke-linejoin:miter;stroke-opacity:1"
     d="m 385.33253,108.04615 c 0,0 -15.459,40.6194 -13.637,62.0497 1.226,14.3884 17.79,43.0584 17.79,43.0584 19.487,119.3485 44.406,246.9317 63.893,366.2802 2.745,16.8177 7.15,32.491 6.616,50.3702 -0.123,4.0835 -2.759,11.8998 -11.736,17.0206 -15.444,8.8098 -41.239,14.5249 -65.7,28.2037 -14.22,7.952 -24.872,30.1539 -21.314,54.0848 73.083,6.6763 139.907,22.0363 187.727,37.8222 3.144,1.0381 10.76,4.9539 11.877,9.8945 0.883,3.9125 -4.207,9.024 -5.499,9.9474 -131.35,93.8387 -242.853,116.3482 -323.781,119.2995 -110.907,4.0445 -188.354002,-80.5373 -189.909002,-160.0608 -1.004,-51.315 36.923,-125.3836 47.484,-144.4445 10.718002,-19.3429 -8.337,-27.6583 -17.568,-12.2131 -9.231,15.4452 -49.382,99.2956 -63.81,170.5901 -9.3869997,46.3769 -7.1379997,81.1781 3.682,116.8003 21.348,70.2849 82.933,112.35331 161.304002,120.30821 62.757,6.37004 104.576,0.5478 174.963,-20.8859 70.386,-21.4338 145.552,-55.67701 202.789,-122.31891 18.76,-21.8418 42.266,-60.9313 43.745,-82.1353 1.338,-19.1397 -4.3,-35.6558 -12.97,-47.6001 -17.366,-23.9238 -90.166,-35.663 -109.577,-39.8655 0,0 9.542,-45.7541 11.937,-83.9686 2.764,-44.0819 -2.939,-88.3105 -2.082,-92.8994 -5.704,-59.8583 -42.301,-229.2157 -49.025,-280.352 3.16,-7.9671 19.044,-23.6543 26.263,-34.0841 9.297,-12.4254 5.193,-21.0555 -8.572,-32.1875 -13.768,-11.1343 -31.289,-37.5678 -39.811,-59.7312 -3.777,-9.822401 -18.489,-15.970001 -25.079,7.0171 z"
     id="path2513"
     sodipodi:nodetypes="cscsssscssssszzssszssscscccsss" />
</svg>
