<?xml version="1.0" encoding="UTF-8" standalone="no"?>
<!-- Created with Inkscape (http://www.inkscape.org/) -->
<svg
   xmlns:dc="http://purl.org/dc/elements/1.1/"
   xmlns:cc="http://creativecommons.org/ns#"
   xmlns:rdf="http://www.w3.org/1999/02/22-rdf-syntax-ns#"
   xmlns:svg="http://www.w3.org/2000/svg"
   xmlns="http://www.w3.org/2000/svg"
   xmlns:sodipodi="http://sodipodi.sourceforge.net/DTD/sodipodi-0.dtd"
   xmlns:inkscape="http://www.inkscape.org/namespaces/inkscape"
   version="1.0"
   width="1000"
   height="1000"
   id="svg5496"
   sodipodi:version="0.32"
   inkscape:version="0.46"
   sodipodi:docname="lam+meem.init.svg"
   inkscape:output_extension="org.inkscape.output.svg.inkscape">
  <metadata
     id="metadata5594">
    <rdf:RDF>
      <cc:Work
         rdf:about="">
        <dc:format>image/svg+xml</dc:format>
        <dc:type
           rdf:resource="http://purl.org/dc/dcmitype/StillImage" />
      </cc:Work>
    </rdf:RDF>
  </metadata>
  <sodipodi:namedview
     inkscape:window-height="618"
     inkscape:window-width="641"
     inkscape:pageshadow="2"
     inkscape:pageopacity="0.0"
     guidetolerance="10.0"
     gridtolerance="10.0"
     objecttolerance="10.0"
     borderopacity="1.0"
     bordercolor="#666666"
     pagecolor="#ffffff"
     id="base"
     showgrid="false"
     showguides="true"
     inkscape:guide-bbox="true"
     inkscape:zoom="0.454"
     inkscape:cx="498.28701"
     inkscape:cy="576.20887"
     inkscape:window-x="0"
     inkscape:window-y="25"
     inkscape:current-layer="svg5496">
    <sodipodi:guide
       orientation="horizontal"
       position="200"
       id="guide5596" />
  </sodipodi:namedview>
  <defs
     id="defs5498">
    <inkscape:perspective
       sodipodi:type="inkscape:persp3d"
       inkscape:vp_x="0 : 500 : 1"
       inkscape:vp_y="0 : 1000 : 0"
       inkscape:vp_z="1000 : 500 : 1"
       inkscape:persp3d-origin="500 : 333.33333 : 1"
       id="perspective2389" />
    <inkscape:perspective
       id="perspective2398"
       inkscape:persp3d-origin="372.04724 : 350.78739 : 1"
       inkscape:vp_z="744.09448 : 526.18109 : 1"
       inkscape:vp_y="0 : 1000 : 0"
       inkscape:vp_x="0 : 526.18109 : 1"
       sodipodi:type="inkscape:persp3d" />
  </defs>
  <g
     id="layer1" />
  <path
     style="fill:#000000;fill-opacity:1;fill-rule:evenodd;stroke:#000000;stroke-width:1px;stroke-linecap:butt;stroke-linejoin:miter;stroke-opacity:1"
     d="M 96.365642,35.40749 C 84.275322,63.04199 72.346442,91.67719 62.775332,119.10793 C 61.118562,123.85622 59.151462,131.92118 61.960792,137.73102 C 69.134432,152.56646 79.643032,162.12623 85.627752,185.46255 C 95.014312,251.84802 95.428062,321.55426 102.98534,391.45482 C 114.60412,498.92204 128.21023,615.51141 147.85242,662.61013 C 99.394272,682.02541 50.660792,692.77609 2.202642,697.57709 L -7.973569e-06,800 C -7.973569e-06,800 136.95084,728.7019 177.82291,742.30612 C 206.93639,751.99651 254.03691,796.58853 271.59624,813.97661 C 277.05139,819.37856 279.56222,818.89224 282.4758,812.44166 C 298.94143,775.98728 303.55167,736.25703 307.66192,705.2041 C 309.27539,692.93796 300.13839,689.58028 295.29656,687.24883 C 252.59188,666.68554 193.32986,644.28228 183.37004,616.07929 C 162.28393,556.37023 148.33318,356.00133 134.23225,215.78448 C 133.61116,209.63276 133.34026,203.62319 136.55574,197.7227 L 164.02931,147.30804 C 166.72661,142.35842 167.15498,138.12953 164.36215,133.98149 C 142.57133,101.61672 122.3398,69.89754 106.8367,36.87212 C 105.4277,33.8706 99.974622,27.15854 96.365642,35.40749 z"
     id="path2408"
     sodipodi:nodetypes="csscscccssssssssssss" />
</svg>
