<?xml version="1.0" encoding="UTF-8" standalone="no"?>
<!-- Created with Inkscape (http://www.inkscape.org/) -->

<svg
   xmlns:dc="http://purl.org/dc/elements/1.1/"
   xmlns:cc="http://creativecommons.org/ns#"
   xmlns:rdf="http://www.w3.org/1999/02/22-rdf-syntax-ns#"
   xmlns:svg="http://www.w3.org/2000/svg"
   xmlns="http://www.w3.org/2000/svg"
   xmlns:sodipodi="http://sodipodi.sourceforge.net/DTD/sodipodi-0.dtd"
   xmlns:inkscape="http://www.inkscape.org/namespaces/inkscape"
   version="1.0"
   width="1000"
   height="1000"
   id="svg5496"
   sodipodi:version="0.32"
   inkscape:version="0.47pre4 r22446"
   sodipodi:docname="lam+waw.fina.svg"
   inkscape:output_extension="org.inkscape.output.svg.inkscape">
  <metadata
     id="metadata5594">
    <rdf:RDF>
      <cc:Work
         rdf:about="">
        <dc:format>image/svg+xml</dc:format>
        <dc:type
           rdf:resource="http://purl.org/dc/dcmitype/StillImage" />
      </cc:Work>
    </rdf:RDF>
  </metadata>
  <sodipodi:namedview
     inkscape:pageshadow="2"
     inkscape:pageopacity="0.0"
     guidetolerance="10.0"
     gridtolerance="10.0"
     objecttolerance="10.0"
     borderopacity="1.0"
     bordercolor="#666666"
     pagecolor="#ffffff"
     id="base"
     showgrid="false"
     showguides="true"
     inkscape:guide-bbox="true"
     inkscape:zoom="0.93206268"
     inkscape:cx="235.8982"
     inkscape:cy="168.73459"
     inkscape:window-x="0"
     inkscape:window-y="0"
     inkscape:current-layer="svg5496"
     inkscape:window-width="1278"
     inkscape:window-height="767"
     inkscape:window-maximized="1">
    <sodipodi:guide
       orientation="horizontal"
       position="200"
       id="guide5596" />
  </sodipodi:namedview>
  <defs
     id="defs5498">
    <inkscape:perspective
       sodipodi:type="inkscape:persp3d"
       inkscape:vp_x="0 : 500 : 1"
       inkscape:vp_y="0 : 1000 : 0"
       inkscape:vp_z="1000 : 500 : 1"
       inkscape:persp3d-origin="500 : 333.33333 : 1"
       id="perspective8" />
    <inkscape:perspective
       id="perspective2388"
       inkscape:persp3d-origin="372.04724 : 350.78739 : 1"
       inkscape:vp_z="744.09448 : 526.18109 : 1"
       inkscape:vp_y="0 : 1000 : 0"
       inkscape:vp_x="0 : 526.18109 : 1"
       sodipodi:type="inkscape:persp3d" />
    <inkscape:perspective
       id="perspective6450"
       inkscape:persp3d-origin="0.5 : 0.33333333 : 1"
       inkscape:vp_z="1 : 0.5 : 1"
       inkscape:vp_y="0 : 1000 : 0"
       inkscape:vp_x="0 : 0.5 : 1"
       sodipodi:type="inkscape:persp3d" />
    <inkscape:perspective
       id="perspective6480"
       inkscape:persp3d-origin="0.5 : 0.33333333 : 1"
       inkscape:vp_z="1 : 0.5 : 1"
       inkscape:vp_y="0 : 1000 : 0"
       inkscape:vp_x="0 : 0.5 : 1"
       sodipodi:type="inkscape:persp3d" />
  </defs>
  <path
     sodipodi:nodetypes="cssccsssscsscccsc"
     id="path2817"
     d="m 414.48401,677.8932 c -9.55601,-54.30591 -38.66038,-131.55267 -82.229,-130.2704 -85.29509,2.51033 -140.79722,201.94237 -77.897,227.7577 32.53537,13.35307 72.034,11.8607 116.899,4.0939 2.951,13.5578 5.175,34.5076 1.054,47.174 -24.65,43.7371 -78.44995,101.1821 -145.861,132.77115 -71.01995,33.2802 -120.82128,50.21025 -214.097991,30.6748 -15.5729156,-3.26151 -19.235489,12.05745 -2.378,18.63315 55.218863,21.5398 142.348991,39.9695 197.938991,38.505 58.935,-1.5525 163.22082,-101.37753 189.734,-197.0567 7.456,-19.1675 13.87248,-49.70878 18.365,-80.3541 3.16913,-21.61798 3.66742,-62.40345 -1.528,-91.9285 z m -114.342,-23.9785 c 18.598,1.6996 33.782,20.281 41.716,35.6495 -24.478,3.1933 -45.808,1.3811 -65.769,-3.5333 -5.25,-2.6808 -7.855,-7.0424 -7.272,-8.9423 4.303,-14.0087 20.102,-23.0232 31.325,-23.1739 z"
     style="fill:#ff0000;fill-opacity:0.60784314;fill-rule:evenodd;stroke:#000000;stroke-width:0;stroke-linecap:butt;stroke-linejoin:miter;stroke-miterlimit:4;stroke-opacity:1;stroke-dasharray:none" />
  <g
     id="layer1"
     transform="matrix(1.3,0,0,1.3,-289.45531,111.8375)" />
  <path
     style="fill:#ff0000;fill-opacity:0.60784314;fill-rule:evenodd;stroke:#000000;stroke-width:0;stroke-linecap:butt;stroke-linejoin:miter;stroke-miterlimit:4;stroke-opacity:1;stroke-dasharray:none"
     d="m 507.91601,83.3035 -30.947,50.8324 c -2.855,3.7951 -2.988,12.2175 -2.216,19.7935 23.193,227.4209 42.804,416.8047 35.297,453.8063 -4.645,22.8856 -27.14139,55.29812 -95.566,70.1575 -39.70774,8.6231 -27.04555,100.73799 1.528,91.9285 74.0133,-22.81899 102.375,-71.2466 121.632,-141.9 13.548,74.1631 45.04814,162.22819 119.299,172.0783 15.40031,2.043 22.24219,-83.3276 0.241,-90.5731 -22.78528,-7.50372 -55.039,-46.5803 -67.124,-82.1791 -33.545,-98.8106 -48.667,-387.438 -70.409,-537.9488 -0.464,-5.0394 -7.448,-11.1718 -11.735,-5.9955 z"
     id="path2819"
     sodipodi:nodetypes="ccccsscssccc" />
</svg>
