<?xml version="1.0" encoding="UTF-8" standalone="no"?>
<!-- Created with Inkscape (http://www.inkscape.org/) -->

<svg
   xmlns:dc="http://purl.org/dc/elements/1.1/"
   xmlns:cc="http://creativecommons.org/ns#"
   xmlns:rdf="http://www.w3.org/1999/02/22-rdf-syntax-ns#"
   xmlns:svg="http://www.w3.org/2000/svg"
   xmlns="http://www.w3.org/2000/svg"
   xmlns:sodipodi="http://sodipodi.sourceforge.net/DTD/sodipodi-0.dtd"
   xmlns:inkscape="http://www.inkscape.org/namespaces/inkscape"
   version="1.0"
   width="1000"
   height="1000"
   id="svg5496"
   sodipodi:version="0.32"
   inkscape:version="0.47pre4 r22446"
   sodipodi:docname="lam+baa+meem.init.svg"
   inkscape:output_extension="org.inkscape.output.svg.inkscape">
  <metadata
     id="metadata5594">
    <rdf:RDF>
      <cc:Work
         rdf:about="">
        <dc:format>image/svg+xml</dc:format>
        <dc:type
           rdf:resource="http://purl.org/dc/dcmitype/StillImage" />
        <dc:title></dc:title>
      </cc:Work>
    </rdf:RDF>
  </metadata>
  <sodipodi:namedview
     inkscape:window-height="618"
     inkscape:window-width="641"
     inkscape:pageshadow="2"
     inkscape:pageopacity="0.0"
     borderopacity="1.0"
     bordercolor="#666666"
     pagecolor="#ffffff"
     id="base"
     showgrid="false"
     showguides="true"
     inkscape:guide-bbox="true"
     inkscape:zoom="0.908"
     inkscape:cx="147.57709"
     inkscape:cy="367.84141"
     inkscape:window-x="0"
     inkscape:window-y="25"
     inkscape:current-layer="svg5496"
     inkscape:window-maximized="0">
    <sodipodi:guide
       orientation="horizontal"
       position="200"
       id="guide5596" />
  </sodipodi:namedview>
  <defs
     id="defs5498">
    <inkscape:perspective
       sodipodi:type="inkscape:persp3d"
       inkscape:vp_x="0 : 500 : 1"
       inkscape:vp_y="0 : 1000 : 0"
       inkscape:vp_z="1000 : 500 : 1"
       inkscape:persp3d-origin="500 : 333.33333 : 1"
       id="perspective9094" />
    <inkscape:perspective
       id="perspective9083"
       inkscape:persp3d-origin="0.5 : 0.33333333 : 1"
       inkscape:vp_z="1 : 0.5 : 1"
       inkscape:vp_y="0 : 1000 : 0"
       inkscape:vp_x="0 : 0.5 : 1"
       sodipodi:type="inkscape:persp3d" />
    <inkscape:perspective
       id="perspective9113"
       inkscape:persp3d-origin="0.5 : 0.33333333 : 1"
       inkscape:vp_z="1 : 0.5 : 1"
       inkscape:vp_y="0 : 1000 : 0"
       inkscape:vp_x="0 : 0.5 : 1"
       sodipodi:type="inkscape:persp3d" />
  </defs>
  <g
     id="layer1" />
  <path
     style="fill:#ff0000;fill-opacity:0.60784314;fill-rule:evenodd;stroke:#000000;stroke-width:1;stroke-linecap:butt;stroke-linejoin:miter;stroke-miterlimit:4;stroke-opacity:1;stroke-dasharray:none"
     d="m 395.7496,100.4224 c -2.5788,0.069 -5.1476,1.4516 -7.2813,4.5 l -21.7812,31.0937 c -4.037,6.4312 -3.632,9.2365 -2.125,16.0313 5.006,22.5658 11.9623,44.0642 15.9062,68.4687 13.598,84.1395 28.7531,160.839 33.9991,207.5986 -5.0349,34.1704 -64.9412,55.5747 -91.7491,46.963 -33.4476,-10.7447 -31.2526,-75.6961 -73.6124,-73.8848 -59.2794,2.5347 -122.8124,57.8409 -144.7997,121.214 C 86.792,578.6 95.2418,632.03714 119.9195,676.5141 92.542414,694.13521 41.961684,706.59318 0.086,709.3986 L 0,800 c 61.865411,0 109.2224,-50.7753 163.3808,-48.1324 39.3294,1.9193 65.2678,22.4841 123.9317,50.5334 11.8782,5.6794 14.0072,-2.3341 15.6874,-8.0313 5.8354,-29.5188 9.7034,-62.8466 8.8963,-82.9495 2.8383,-9.6237 -4.8821,-20.4224 -12.375,-24.7187 -39.2396,-22.4991 -63.7087,-17.5399 -98.3006,-35.236 -42.0486,-21.5108 -71.2101,-90.6115 -71.4395,-116.1681 -0.035,-3.9089 1.0068,-9.2226 3.7891,-12.3535 12.9028,-17.02924 54.65588,-47.50059 93.2594,-43.5629 34.40403,3.50934 42.39094,72.65896 80.7015,79.8851 97.21917,18.33748 131.4477,-57.3329 142.1777,-143.4687 3.9076,-31.369 -9.866,-127.6155 -21.084,-192.0313 8.505,-10.856 20.6292,-21.5232 29.6563,-31.2187 5.26,-5.65 6.5115,-13.7407 1.5624,-19.625 -15.8139,-16.4612 -38.2887,-43.3993 -54.9687,-67 -2.4772,-3.5053 -5.8094,-5.5891 -9.125,-5.5 l -2e-4,0 z"
     id="path2394-6"
     sodipodi:nodetypes="cccsccssccccssccssscssscscscc" />
</svg>
