<?xml version="1.0" encoding="UTF-8" standalone="no"?>
<!-- Created with Inkscape (http://www.inkscape.org/) -->

<svg
   xmlns:dc="http://purl.org/dc/elements/1.1/"
   xmlns:cc="http://creativecommons.org/ns#"
   xmlns:rdf="http://www.w3.org/1999/02/22-rdf-syntax-ns#"
   xmlns:svg="http://www.w3.org/2000/svg"
   xmlns="http://www.w3.org/2000/svg"
   xmlns:sodipodi="http://sodipodi.sourceforge.net/DTD/sodipodi-0.dtd"
   xmlns:inkscape="http://www.inkscape.org/namespaces/inkscape"
   version="1.0"
   width="1000"
   height="1000"
   id="svg5496"
   sodipodi:version="0.32"
   inkscape:version="0.47pre0 r21549"
   sodipodi:docname="lam+heh.isol.svg"
   inkscape:output_extension="org.inkscape.output.svg.inkscape">
  <metadata
     id="metadata5594">
    <rdf:RDF>
      <cc:Work
         rdf:about="">
        <dc:format>image/svg+xml</dc:format>
        <dc:type
           rdf:resource="http://purl.org/dc/dcmitype/StillImage" />
      </cc:Work>
    </rdf:RDF>
  </metadata>
  <sodipodi:namedview
     inkscape:pageshadow="2"
     inkscape:pageopacity="0.0"
     guidetolerance="10.0"
     gridtolerance="10.0"
     objecttolerance="10.0"
     borderopacity="1.0"
     bordercolor="#666666"
     pagecolor="#ffffff"
     id="base"
     showgrid="false"
     showguides="true"
     inkscape:guide-bbox="true"
     inkscape:zoom="0.236"
     inkscape:cx="500"
     inkscape:cy="500"
     inkscape:window-x="0"
     inkscape:window-y="25"
     inkscape:current-layer="svg5496">
    <sodipodi:guide
       orientation="horizontal"
       position="200"
       id="guide5596" />
  </sodipodi:namedview>
  <defs
     id="defs5498">
    <inkscape:perspective
       sodipodi:type="inkscape:persp3d"
       inkscape:vp_x="0 : 500 : 1"
       inkscape:vp_y="0 : 1000 : 0"
       inkscape:vp_z="1000 : 500 : 1"
       inkscape:persp3d-origin="500 : 333.33333 : 1"
       id="perspective2389" />
    <inkscape:perspective
       id="perspective2524"
       inkscape:persp3d-origin="372.04724 : 350.78739 : 1"
       inkscape:vp_z="744.09448 : 526.18109 : 1"
       inkscape:vp_y="0 : 1000 : 0"
       inkscape:vp_x="0 : 526.18109 : 1"
       sodipodi:type="inkscape:persp3d" />
  </defs>
  <g
     id="layer1"
     transform="matrix(0.5,0,0,0.5,221.36564,169.60355)"
     style="stroke:#000000;stroke-opacity:1;stroke-width:2;stroke-miterlimit:4;stroke-dasharray:none" />
  <path
     style="fill:#000000;fill-rule:evenodd;stroke:#000000;stroke-width:1px;stroke-linecap:butt;stroke-linejoin:miter;stroke-opacity:1;stroke-miterlimit:4;stroke-dasharray:none"
     d="M 343.75 61.15625 C 339.6713 61.020942 335.23433 63.128372 331.0625 67.90625 C 317.75568 83.146177 312.40335 99.465492 307.09375 114.875 C 302.31607 128.74081 304.83486 139.73886 307.09375 151.21875 C 307.10032 151.25211 314.60502 166.44651 319.96875 193.84375 C 338.36784 287.82399 381.85649 508.44417 401.59375 645.4375 C 410.27143 705.66797 409.64809 738.45535 401.8125 753.65625 C 401.2318 754.78279 363.67266 760.64282 329.46875 742.59375 C 301.8988 728.04535 284.33648 696.2721 272.34375 664.4375 C 232.8658 559.64357 212.375 424.375 212.375 424.375 C 208.58873 415.50715 208.8558 396.88849 195.46875 411.0625 L 175.5 457.34375 C 172.87745 467.00815 174.19996 480.04011 174.875 485.84375 L 180.90625 525.6875 C 137.17546 546.48168 98.479498 572.42621 64.09375 606.71875 C 64.09375 606.71875 52.761256 618.6387 46.53125 635.59375 C 43.112672 644.89745 26.099866 687.98646 20.625 704.03125 C 14.041764 723.32423 29.150564 740.67652 37.03125 747.5 C 49.155892 757.99811 120.61293 762.26165 165.46875 753.59375 C 175.54614 750.88398 182.66864 745.41315 191.0625 729.46875 C 195.72958 720.7899 206.46695 703.00342 215.75 660.4375 C 231.64986 722.69706 265.97698 805.63555 306.125 849.125 C 323.4513 867.89335 390.49543 884.02885 414.875 832.71875 C 436.03074 788.1937 438.15625 740.4375 438.15625 740.4375 C 439.34188 740.09874 445.11805 640.04546 435.625 574.15625 C 417.75452 450.12096 377.21985 244.08581 368.3125 190.9375 C 396.31318 185.48236 410.73022 167.65652 413.53125 157.625 C 416.57309 146.73104 409.08669 140.18379 402.59375 133.34375 C 384.63484 114.42481 366.0126 96.904057 356.25 71.9375 C 353.62693 65.229364 348.99405 61.330217 343.75 61.15625 z M 191.375 577.625 C 195.48752 601.48326 220.56599 647.78243 190.21875 659.40625 C 166.79721 668.37733 105.40718 678.51688 77.28125 656.28125 C 100.97872 610.43869 163.64478 584.08093 191.375 577.625 z "
     id="path2530" />
</svg>
