<?xml version="1.0" encoding="UTF-8" standalone="no"?>
<!-- Created with Inkscape (http://www.inkscape.org/) -->

<svg
   xmlns:dc="http://purl.org/dc/elements/1.1/"
   xmlns:cc="http://creativecommons.org/ns#"
   xmlns:rdf="http://www.w3.org/1999/02/22-rdf-syntax-ns#"
   xmlns:svg="http://www.w3.org/2000/svg"
   xmlns="http://www.w3.org/2000/svg"
   xmlns:sodipodi="http://sodipodi.sourceforge.net/DTD/sodipodi-0.dtd"
   xmlns:inkscape="http://www.inkscape.org/namespaces/inkscape"
   version="1.0"
   width="1000"
   height="1000"
   id="svg5496"
   sodipodi:version="0.32"
   inkscape:version="0.47pre4 r22446"
   sodipodi:docname="New document 49"
   inkscape:output_extension="org.inkscape.output.svg.inkscape">
  <metadata
     id="metadata5594">
    <rdf:RDF>
      <cc:Work
         rdf:about="">
        <dc:format>image/svg+xml</dc:format>
        <dc:type
           rdf:resource="http://purl.org/dc/dcmitype/StillImage" />
        <dc:title></dc:title>
      </cc:Work>
    </rdf:RDF>
  </metadata>
  <sodipodi:namedview
     inkscape:window-height="618"
     inkscape:window-width="641"
     inkscape:pageshadow="2"
     inkscape:pageopacity="0.0"
     borderopacity="1.0"
     bordercolor="#666666"
     pagecolor="#ffffff"
     id="base"
     showgrid="false"
     showguides="true"
     inkscape:guide-bbox="true"
     inkscape:zoom="0.454"
     inkscape:cx="500"
     inkscape:cy="500"
     inkscape:window-x="0"
     inkscape:window-y="25"
     inkscape:current-layer="svg5496"
     inkscape:window-maximized="0">
    <sodipodi:guide
       orientation="horizontal"
       position="200"
       id="guide5596" />
  </sodipodi:namedview>
  <defs
     id="defs5498">
    <inkscape:perspective
       sodipodi:type="inkscape:persp3d"
       inkscape:vp_x="0 : 500 : 1"
       inkscape:vp_y="0 : 1000 : 0"
       inkscape:vp_z="1000 : 500 : 1"
       inkscape:persp3d-origin="500 : 333.33333 : 1"
       id="perspective6226" />
    <inkscape:perspective
       id="perspective6215"
       inkscape:persp3d-origin="0.5 : 0.33333333 : 1"
       inkscape:vp_z="1 : 0.5 : 1"
       inkscape:vp_y="0 : 1000 : 0"
       inkscape:vp_x="0 : 0.5 : 1"
       sodipodi:type="inkscape:persp3d" />
  </defs>
  <g
     id="layer1" />
  <path
     style="fill:#ff0000;fill-opacity:0.60784314;fill-rule:evenodd;stroke:#000000;stroke-width:1;stroke-linecap:butt;stroke-linejoin:miter;stroke-miterlimit:4;stroke-opacity:1;stroke-dasharray:none"
     d="m 620.67363,193.65214 -17.9015,44.8064 c -3.1639,10.92 6.2002,24.3587 6.7421,30.5938 23.7892,156.416 64.49018,371.4108 55.43108,448.0658 -24.07598,19.4299 -94.71238,-3.7745 -117.43738,-77.9376 -41.004,-133.818 -62.9703,-334.3029 -73.2813,-452.75 -1.26,-14.4589 -10.0285,-20.36 -18.6875,-5.125 l -24.4688,43.0313 c -6.8639,12.077 -5.2085,24.2919 -4.2812,36.4687 9.9496,130.6515 18.5932,230.0672 -20.8766,352.9143 -39.6086,-118.7453 -158.1942,-264.0051 -359.581294,-350.891 -17.1194,-10.4174 -37.4704998,4.8174 -37.2186998,17.2812 0.086,4.2521 3.7592998,94.3705 3.7592998,94.3705 -0.8768,11.5907 2.9981,19.2863 19.4688,30.6563 l 82.945294,46.5516 c 17.9566,12.3956 39.409,13.3689 47.7343,-2.3577 2.4608,-4.6486 7.6895,-16.0279 9.7188,-20.1563 4.8321,-9.8308 14.0823,-3.187 19.0938,-0.062 90.1851,56.2366 161.9264,130.1113 192.5484,229.5767 -51.6221,75.8773 -132.6323,156.3083 -308.052994,204.7171 -8.3613,2.3073 -11.1548,12.1604 -0.1874,15.5 11.5441,3.5151 95.645594,2.3186 162.898294,-14.7876 138.9473,-35.3423 199.9494,-216.7579 221.1875,-377.375 12.3194,71.0435 22.3564,142.2263 35.5,201.0312 24.7064,110.5376 77.6077,145.6105 121.8079,144.1594 43.75868,-1.4365 72.75878,-74.4077 79.16078,-115.4406 13.5671,-86.964 -16.0484,-255.924 -34.7435,-392.8471 -1.4961,-7.788 2.2034,-13.318 5.5624,-19 0,0 10.1748,-18.8747 16.3438,-24.7187 6.636,-6.2881 5.564,-16.7171 2.5,-20.375 -19.505,-23.29 -32.4571,-31.1662 -44.77808,-65.1502 -4.7683,-12.1483 -16.1641,-12.7077 -20.9063,-0.7505 z"
     id="path2483-45"
     sodipodi:nodetypes="ccccccccsccscccssccssscssccccccc" />
</svg>
