<?xml version="1.0" encoding="UTF-8" standalone="no"?>
<!-- Created with Inkscape (http://www.inkscape.org/) -->
<svg
   xmlns:dc="http://purl.org/dc/elements/1.1/"
   xmlns:cc="http://creativecommons.org/ns#"
   xmlns:rdf="http://www.w3.org/1999/02/22-rdf-syntax-ns#"
   xmlns:svg="http://www.w3.org/2000/svg"
   xmlns="http://www.w3.org/2000/svg"
   xmlns:sodipodi="http://sodipodi.sourceforge.net/DTD/sodipodi-0.dtd"
   xmlns:inkscape="http://www.inkscape.org/namespaces/inkscape"
   version="1.0"
   width="1000"
   height="1000"
   id="svg5496"
   sodipodi:version="0.32"
   inkscape:version="0.46"
   sodipodi:docname="lam+yaa.fina.svg"
   inkscape:output_extension="org.inkscape.output.svg.inkscape">
  <metadata
     id="metadata5594">
    <rdf:RDF>
      <cc:Work
         rdf:about="">
        <dc:format>image/svg+xml</dc:format>
        <dc:type
           rdf:resource="http://purl.org/dc/dcmitype/StillImage" />
      </cc:Work>
    </rdf:RDF>
  </metadata>
  <sodipodi:namedview
     inkscape:pageshadow="2"
     inkscape:pageopacity="0.0"
     guidetolerance="10.0"
     gridtolerance="10.0"
     objecttolerance="10.0"
     borderopacity="1.0"
     bordercolor="#666666"
     pagecolor="#ffffff"
     id="base"
     showgrid="false"
     showguides="true"
     inkscape:guide-bbox="true"
     inkscape:zoom="0.227"
     inkscape:cx="440.69122"
     inkscape:cy="772.3787"
     inkscape:window-x="0"
     inkscape:window-y="25"
     inkscape:current-layer="svg5496">
    <sodipodi:guide
       orientation="horizontal"
       position="200"
       id="guide5596" />
  </sodipodi:namedview>
  <defs
     id="defs5498">
    <inkscape:perspective
       sodipodi:type="inkscape:persp3d"
       inkscape:vp_x="0 : 500 : 1"
       inkscape:vp_y="0 : 1000 : 0"
       inkscape:vp_z="1000 : 500 : 1"
       inkscape:persp3d-origin="500 : 333.33333 : 1"
       id="perspective2491" />
    <inkscape:perspective
       id="perspective2580"
       inkscape:persp3d-origin="372.04724 : 350.78739 : 1"
       inkscape:vp_z="744.09448 : 526.18109 : 1"
       inkscape:vp_y="0 : 1000 : 0"
       inkscape:vp_x="0 : 526.18109 : 1"
       sodipodi:type="inkscape:persp3d" />
  </defs>
  <g
     id="layer1"
     transform="translate(-200,400)" />
  <path
     style="fill:#000000;fill-rule:evenodd;stroke:#000000;stroke-width:1px;stroke-linecap:butt;stroke-linejoin:miter;stroke-opacity:1"
     d="M 442.0705,121.91629 C 430.70801,163.172 414.77534,202.62932 422.93159,248.53938 C 439.5102,370.1376 458.27261,491.48304 473.44632,613.24392 C 476.3701,682.21911 482.93395,756.89311 449.88065,820.0202 C 437.01466,851.57917 391.79719,863.77419 396.58753,912.79269 C 451.55026,927.31332 525.03456,921.72211 571.43815,957.54605 C 513.89945,1023.5131 312.4036,1102.5217 162.51699,1050.4409 C 132.40806,1039.979 89.06681,995.94441 74.04327,955.60598 C 62.53449,924.70474 63.07057,893.04592 70.33388,860.16779 C 82.19924,806.45798 106.62581,750.60092 136.22566,711.99658 C 138.62201,708.87125 144.04423,698.04985 136.71727,695.68368 C 98.19876,683.24449 8.2457,886.45997 14.77498,977.5467 C 11.95404,1069.8185 89.04957,1146.5519 175.77037,1164.9497 C 311.59021,1192.1876 453.75913,1141.9692 560.04117,1057.3996 C 599.18656,1026.2473 627.58771,976.06008 620.11413,925.06122 C 590.17932,873.79765 525.70251,862.85807 471.80617,853.74449 C 499.01491,796.49884 504.04504,731.92296 506.91484,669.48976 C 534.44007,722.64687 574.75112,768.48948 620.86823,806.32086 C 620.84424,773.0953 620.82025,739.86973 620.79626,706.64417 C 564.33372,658.50683 537.84912,585.89082 523.39595,515.11898 C 491.63657,385.58522 483.57587,251.86829 462.21652,120.573 C 459.06761,110.34737 444.99454,112.25529 442.0705,121.91629 z"
     id="path2607"
     sodipodi:nodetypes="ccccccsssssccccccccccc" />
</svg>
