<?xml version="1.0" encoding="UTF-8" standalone="no"?>
<!-- Created with Inkscape (http://www.inkscape.org/) -->

<svg
   xmlns:dc="http://purl.org/dc/elements/1.1/"
   xmlns:cc="http://creativecommons.org/ns#"
   xmlns:rdf="http://www.w3.org/1999/02/22-rdf-syntax-ns#"
   xmlns:svg="http://www.w3.org/2000/svg"
   xmlns="http://www.w3.org/2000/svg"
   xmlns:sodipodi="http://sodipodi.sourceforge.net/DTD/sodipodi-0.dtd"
   xmlns:inkscape="http://www.inkscape.org/namespaces/inkscape"
   version="1.0"
   width="1000"
   height="1000"
   id="svg5496"
   sodipodi:version="0.32"
   inkscape:version="0.47pre4 r22446"
   sodipodi:docname="lam+haa+meem.init.svg"
   inkscape:output_extension="org.inkscape.output.svg.inkscape">
  <metadata
     id="metadata5594">
    <rdf:RDF>
      <cc:Work
         rdf:about="">
        <dc:format>image/svg+xml</dc:format>
        <dc:type
           rdf:resource="http://purl.org/dc/dcmitype/StillImage" />
      </cc:Work>
    </rdf:RDF>
  </metadata>
  <sodipodi:namedview
     inkscape:window-height="767"
     inkscape:window-width="1278"
     inkscape:pageshadow="2"
     inkscape:pageopacity="0.0"
     guidetolerance="10.0"
     gridtolerance="10.0"
     objecttolerance="10.0"
     borderopacity="1.0"
     bordercolor="#666666"
     pagecolor="#ffffff"
     id="base"
     showgrid="false"
     showguides="true"
     inkscape:guide-bbox="true"
     inkscape:zoom="0.68581728"
     inkscape:cx="189.3549"
     inkscape:cy="751.49304"
     inkscape:window-x="0"
     inkscape:window-y="0"
     inkscape:current-layer="svg5496"
     inkscape:window-maximized="1">
    <sodipodi:guide
       orientation="horizontal"
       position="200"
       id="guide5596" />
  </sodipodi:namedview>
  <defs
     id="defs5498">
    <inkscape:perspective
       sodipodi:type="inkscape:persp3d"
       inkscape:vp_x="0 : 500 : 1"
       inkscape:vp_y="0 : 1000 : 0"
       inkscape:vp_z="1000 : 500 : 1"
       inkscape:persp3d-origin="500 : 333.33333 : 1"
       id="perspective2389" />
    <inkscape:perspective
       id="perspective2398"
       inkscape:persp3d-origin="372.04724 : 350.78739 : 1"
       inkscape:vp_z="744.09448 : 526.18109 : 1"
       inkscape:vp_y="0 : 1000 : 0"
       inkscape:vp_x="0 : 526.18109 : 1"
       sodipodi:type="inkscape:persp3d" />
    <inkscape:perspective
       id="perspective4138"
       inkscape:persp3d-origin="0.5 : 0.33333333 : 1"
       inkscape:vp_z="1 : 0.5 : 1"
       inkscape:vp_y="0 : 1000 : 0"
       inkscape:vp_x="0 : 0.5 : 1"
       sodipodi:type="inkscape:persp3d" />
    <inkscape:perspective
       id="perspective4182"
       inkscape:persp3d-origin="0.5 : 0.33333333 : 1"
       inkscape:vp_z="1 : 0.5 : 1"
       inkscape:vp_y="0 : 1000 : 0"
       inkscape:vp_x="0 : 0.5 : 1"
       sodipodi:type="inkscape:persp3d" />
    <inkscape:perspective
       id="perspective4204"
       inkscape:persp3d-origin="0.5 : 0.33333333 : 1"
       inkscape:vp_z="1 : 0.5 : 1"
       inkscape:vp_y="0 : 1000 : 0"
       inkscape:vp_x="0 : 0.5 : 1"
       sodipodi:type="inkscape:persp3d" />
    <inkscape:perspective
       id="perspective4284"
       inkscape:persp3d-origin="0.5 : 0.33333333 : 1"
       inkscape:vp_z="1 : 0.5 : 1"
       inkscape:vp_y="0 : 1000 : 0"
       inkscape:vp_x="0 : 0.5 : 1"
       sodipodi:type="inkscape:persp3d" />
  </defs>
  <path
     style="fill:#ff0000;fill-opacity:0.60784314;fill-rule:evenodd;stroke:#000000;stroke-width:1;stroke-linecap:butt;stroke-linejoin:miter;stroke-miterlimit:4;stroke-opacity:1;stroke-dasharray:none"
     d="m 212.969,12.4181 c -8.458,10.2708 -19.013,31.3701 -21.875,47.9687 -0.87,5.0464 -2.588,11.7968 0.438,16.4687 8.701,10.3648 19.06257,23.1199 23.60257,35.4063 14.14766,83.71674 41.67043,179.993 50.08443,275.6445 -71.487,27.2785 -161.521,-9.188 -178.406,92.7812 -0.692,5.7177 -0.605913,9.02643 5.875,7.5625 63.78728,-14.40851 158.7552,-54.71085 178.437,-74.5625 19.2297,-19.39566 22.71909,-43.36165 20.719,-80.5312 -2.97708,-55.32575 -24.75101,-159.62444 -32.469,-192.7695 -1.77301,-7.61424 -3.218,-14.7217 -1.156,-22.4063 4.551,-12.7628 9.444,-23.2228 15.437,-36.5 1.888,-4.1814 0.847,-5.9582 -1.281,-7.625 C 254.188,59.6103 237.482,34.4157 225.594,14.0743 222.09405,7.6412626 217.65586,7.2090202 212.969,12.4181 z"
     id="path2827"
     sodipodi:nodetypes="csccccsssscsscc" />
  <path
     sodipodi:nodetypes="cssscccss"
     id="path2819"
     d="m 130.86149,581.15343 c -8.67282,6.98288 -14.72124,15.85661 -22.29849,27.75287 -11.175917,17.54615 -22.892903,86.35245 -106.438,101 C -44.807255,718.1347 -11.342612,806.59954 2,800 42.055398,780.18776 65.052,728.5637 93.313,683.9687 c 49.109,21.1356 92.171,43.7609 132.593,76.375 8.277,6.6778 21.828,6.3946 27.094,-5.0624 41.526,-90.3424 -13.26456,-100.89984 -73.5,-152.2188 -13.18496,-11.23323 -39.48033,-29.28273 -48.63851,-21.90907 z"
     style="fill:#ff0000;fill-opacity:0.60784314;fill-rule:evenodd;stroke:#000000;stroke-width:1;stroke-linecap:butt;stroke-linejoin:miter;stroke-miterlimit:4;stroke-opacity:1;stroke-dasharray:none" />
  <g
     id="layer1"
     style="fill:#000000;fill-opacity:1"
     transform="translate(-171.80617,94)" />
  <path
     style="fill:#ff0000;fill-opacity:0.60784314;fill-rule:evenodd;stroke:#000000;stroke-width:1;stroke-linecap:butt;stroke-linejoin:miter;stroke-miterlimit:4;stroke-opacity:1;stroke-dasharray:none"
     d="m 86.813,480.6875 c -0.692,5.7177 -0.582,9.1289 5.875,7.5625 77.346,-21.7414 140.61,-4.3378 212.187,27.4063 6.585,2.985 7.121,6.9681 0,8.5937 -49.968,11.4062 -146.23417,32.34099 -173.269,57.0937 -23.14919,21.19507 23.70246,30.55642 47.894,21.7188 C 343.72257,543.06895 459.114,557.4486 550.438,578 c 2.149,0.4837 7.01,-0.6843 8.218,-2.4063 12.144,-17.3146 22.492,-41.2648 27.5,-64.6562 0.978,-4.5615 1.694,-8.5518 -3.593,-8.9688 C 449.139,495.7095 377.99117,457.53412 271.125,413.6875 214.93106,390.63143 135.31572,400.96604 109.47037,429.48606 97.558673,442.63047 89.467464,460.74361 86.813,480.6875 z"
     id="path2821"
     sodipodi:nodetypes="cccsssssccssc" />
</svg>
