<?xml version="1.0" encoding="UTF-8" standalone="no"?>
<!-- Created with Inkscape (http://www.inkscape.org/) -->

<svg
   xmlns:dc="http://purl.org/dc/elements/1.1/"
   xmlns:cc="http://creativecommons.org/ns#"
   xmlns:rdf="http://www.w3.org/1999/02/22-rdf-syntax-ns#"
   xmlns:svg="http://www.w3.org/2000/svg"
   xmlns="http://www.w3.org/2000/svg"
   xmlns:sodipodi="http://sodipodi.sourceforge.net/DTD/sodipodi-0.dtd"
   xmlns:inkscape="http://www.inkscape.org/namespaces/inkscape"
   version="1.0"
   width="1000"
   height="1000"
   id="svg5496"
   sodipodi:version="0.32"
   inkscape:version="0.47pre4 r22446"
   sodipodi:docname="lam+heh.isol.svg"
   inkscape:output_extension="org.inkscape.output.svg.inkscape">
  <metadata
     id="metadata5594">
    <rdf:RDF>
      <cc:Work
         rdf:about="">
        <dc:format>image/svg+xml</dc:format>
        <dc:type
           rdf:resource="http://purl.org/dc/dcmitype/StillImage" />
      </cc:Work>
    </rdf:RDF>
  </metadata>
  <sodipodi:namedview
     inkscape:pageshadow="2"
     inkscape:pageopacity="0.0"
     guidetolerance="10.0"
     gridtolerance="10.0"
     objecttolerance="10.0"
     borderopacity="1.0"
     bordercolor="#666666"
     pagecolor="#ffffff"
     id="base"
     showgrid="false"
     showguides="true"
     inkscape:guide-bbox="true"
     inkscape:zoom="0.242779"
     inkscape:cx="352.24476"
     inkscape:cy="802.27657"
     inkscape:window-x="0"
     inkscape:window-y="0"
     inkscape:current-layer="svg5496"
     inkscape:window-width="1278"
     inkscape:window-height="767"
     inkscape:window-maximized="1">
    <sodipodi:guide
       orientation="horizontal"
       position="200"
       id="guide5596" />
  </sodipodi:namedview>
  <defs
     id="defs5498">
    <inkscape:perspective
       sodipodi:type="inkscape:persp3d"
       inkscape:vp_x="0 : 500 : 1"
       inkscape:vp_y="0 : 1000 : 0"
       inkscape:vp_z="1000 : 500 : 1"
       inkscape:persp3d-origin="500 : 333.33333 : 1"
       id="perspective2389" />
    <inkscape:perspective
       id="perspective2524"
       inkscape:persp3d-origin="372.04724 : 350.78739 : 1"
       inkscape:vp_z="744.09448 : 526.18109 : 1"
       inkscape:vp_y="0 : 1000 : 0"
       inkscape:vp_x="0 : 526.18109 : 1"
       sodipodi:type="inkscape:persp3d" />
    <inkscape:perspective
       id="perspective3656"
       inkscape:persp3d-origin="0.5 : 0.33333333 : 1"
       inkscape:vp_z="1 : 0.5 : 1"
       inkscape:vp_y="0 : 1000 : 0"
       inkscape:vp_x="0 : 0.5 : 1"
       sodipodi:type="inkscape:persp3d" />
    <inkscape:perspective
       id="perspective2936"
       inkscape:persp3d-origin="0.5 : 0.33333333 : 1"
       inkscape:vp_z="1 : 0.5 : 1"
       inkscape:vp_y="0 : 1000 : 0"
       inkscape:vp_x="0 : 0.5 : 1"
       sodipodi:type="inkscape:persp3d" />
    <inkscape:perspective
       id="perspective2842"
       inkscape:persp3d-origin="0.5 : 0.33333333 : 1"
       inkscape:vp_z="1 : 0.5 : 1"
       inkscape:vp_y="0 : 1000 : 0"
       inkscape:vp_x="0 : 0.5 : 1"
       sodipodi:type="inkscape:persp3d" />
  </defs>
  <path
     style="fill:#ff0000;fill-opacity:0.60784314;fill-rule:evenodd;stroke:#000000;stroke-width:1;stroke-linecap:butt;stroke-linejoin:miter;stroke-miterlimit:4;stroke-opacity:1;stroke-dasharray:none"
     d="m 303.29103,20.406311 c -5.60674,18.791041 -10.06772,31.912481 -15.37672,47.321991 -4.778,13.86581 2.38127,26.92272 4.63384,38.403238 0.006,0.0328 2.87716,13.16827 8.24116,40.56551 18.399,93.98024 61.888,293.87499 81.625,430.86829 8.678,60.2305 8.05417,93.01799 0.219,108.2188 -0.36204,0.70238 -15.09654,3.24434 -34.43001,0.68587 -41.31252,-3.3346 -55.34395,121.52875 1.42323,112.20916 18.16409,-1.95832 35.39438,-11.36628 46.06878,-33.83253 21.156,-44.5251 23.281,-92.2813 23.281,-92.2813 1.186,-0.3387 6.962,-100.392 -2.531,-166.2812 -17.87,-124.0353 -56.925,-304.90386 -65.832,-358.05217 14.34618,-20.87024 18.4324,-28.26131 23.49654,-36.59548 5.87349,-9.66613 3.57183,-16.766568 -3.7288,-22.736631 C 350.74831,72.845238 334.51217,47.29155 324.61649,22.378074 319.52017,9.5475097 306.57623,9.3959462 303.29103,20.406311 z"
     id="path2856"
     sodipodi:nodetypes="ccsccsccccccssss" />
  <path
     style="fill:#ff0000;fill-opacity:0.60784314;fill-rule:evenodd;stroke:#000000;stroke-width:1;stroke-linecap:butt;stroke-linejoin:miter;stroke-miterlimit:4;stroke-opacity:1;stroke-dasharray:none"
     d="m 348.2033,686.47001 c -11.71992,-1.16607 -25.03384,-4.95166 -37.91399,-11.74837 -27.57001,-14.54838 -45.132,-46.3217 -57.125,-78.1563 -39.478,-104.7939 -59.969,-240.0625 -59.969,-240.0625 -3.786,-8.86785 -3.519,-27.48651 -16.906,-13.3125 l -19.969,46.2812 c -2.622,9.6644 -1.3,22.6964 -0.625,28.5 l 6.031,39.8438 c -43.73,20.7942 -82.426008,46.7387 -116.812008,81.0313 0,0 -11.333,11.9199 -17.563,28.875 -3.418,9.3037 -20.431,52.3927 -25.906,68.4375 -6.583,19.293 8.526,36.6452 16.406,43.4687 12.125,10.4981 83.582008,14.7617 128.438008,6.0938 10.077,-2.7098 17.2,-8.1806 25.594,-24.125 4.667,-8.6789 13.72316,-24.78456 23.00616,-67.35046 13.65888,68.98296 52.90428,159.5343 92.05584,187.00666 14.50115,10.17535 39.34461,19.7799 62.68122,17.42633 22.70352,-2.28972 35.7929,-108.50634 -1.42323,-112.20916 z M 172.19531,509.75284 c 5.79384,23.29802 22.46879,71.69856 -1.156,81.7813 -23.06822,9.84521 -84.81201,19.1106 -112.938008,-3.125 23.698,-45.8426 86.364008,-72.2003 114.094008,-78.6563 z"
     id="path2824"
     sodipodi:nodetypes="cscccccccssscccssscscc" />
  <g
     id="layer1"
     transform="matrix(0.5,0,0,0.5,221.36564,269.60355)"
     style="stroke:#000000;stroke-width:2;stroke-miterlimit:4;stroke-opacity:1;stroke-dasharray:none" />
</svg>
