<?xml version="1.0" encoding="UTF-8" standalone="no"?>
<!-- Created with Inkscape (http://www.inkscape.org/) -->

<svg
   xmlns:dc="http://purl.org/dc/elements/1.1/"
   xmlns:cc="http://creativecommons.org/ns#"
   xmlns:rdf="http://www.w3.org/1999/02/22-rdf-syntax-ns#"
   xmlns:svg="http://www.w3.org/2000/svg"
   xmlns="http://www.w3.org/2000/svg"
   xmlns:sodipodi="http://sodipodi.sourceforge.net/DTD/sodipodi-0.dtd"
   xmlns:inkscape="http://www.inkscape.org/namespaces/inkscape"
   version="1.0"
   width="1000"
   height="1000"
   id="svg5496"
   sodipodi:version="0.32"
   inkscape:version="0.47pre4 r22446"
   sodipodi:docname="lam+kaf.fina.svg"
   inkscape:output_extension="org.inkscape.output.svg.inkscape">
  <metadata
     id="metadata5594">
    <rdf:RDF>
      <cc:Work
         rdf:about="">
        <dc:format>image/svg+xml</dc:format>
        <dc:type
           rdf:resource="http://purl.org/dc/dcmitype/StillImage" />
        <dc:title />
      </cc:Work>
    </rdf:RDF>
  </metadata>
  <sodipodi:namedview
     inkscape:window-height="618"
     inkscape:window-width="641"
     inkscape:pageshadow="2"
     inkscape:pageopacity="0.0"
     borderopacity="1.0"
     bordercolor="#666666"
     pagecolor="#ffffff"
     id="base"
     showgrid="false"
     showguides="true"
     inkscape:guide-bbox="true"
     inkscape:zoom="0.454"
     inkscape:cx="500"
     inkscape:cy="500"
     inkscape:window-x="0"
     inkscape:window-y="25"
     inkscape:current-layer="svg5496"
     inkscape:window-maximized="0">
    <sodipodi:guide
       orientation="horizontal"
       position="200"
       id="guide5596" />
  </sodipodi:namedview>
  <defs
     id="defs5498">
    <inkscape:perspective
       sodipodi:type="inkscape:persp3d"
       inkscape:vp_x="0 : 500 : 1"
       inkscape:vp_y="0 : 1000 : 0"
       inkscape:vp_z="1000 : 500 : 1"
       inkscape:persp3d-origin="500 : 333.33333 : 1"
       id="perspective4429" />
    <inkscape:perspective
       id="perspective4417"
       inkscape:persp3d-origin="0.5 : 0.33333333 : 1"
       inkscape:vp_z="1 : 0.5 : 1"
       inkscape:vp_y="0 : 1000 : 0"
       inkscape:vp_x="0 : 0.5 : 1"
       sodipodi:type="inkscape:persp3d" />
    <inkscape:perspective
       id="perspective5696"
       inkscape:persp3d-origin="0.5 : 0.33333333 : 1"
       inkscape:vp_z="1 : 0.5 : 1"
       inkscape:vp_y="0 : 1000 : 0"
       inkscape:vp_x="0 : 0.5 : 1"
       sodipodi:type="inkscape:persp3d" />
  </defs>
  <g
     id="layer1" />
  <g
     transform="translate(-0.6343825,-6)"
     id="g4442">
    <path
       sodipodi:nodetypes="csssssssscsscscccscssscscss"
       id="path2513-8"
       d="m 620.23212,134.2772 -21.941,67.20434 c -2.85,8.72765 -2.803,17.25721 -2.029,25.89395 17.724,198.05718 36.879,337.17651 38.884,358.92251 2.5,27.4021 -18.741,62.1876 -38.081,75.9266 -68.913,48.9562 -193.94,78.0532 -302.751,84.7471 -134.928,8.3006 -186.297,-40.6219 -212.885,-68.034 -34.447001,-35.5164 -52.141001,-86.7329 1.96,-160.8719 9.312,-12.7614 -2.475,-30.1403 -17.024,-9.1428 -86.039002,124.1725 -70.666001,192.3163 -44.918001,237.2393 58.424001,80.1611 144.150001,103.3905 234.016001,102.1775 106.183,-1.4333 218.927,-37.9578 300.336,-83.6441 26.834,-15.0593 76.487,-57.5071 98.692,-95.4012 16.978,82.5386 57.558,190.2265 114.434,197.1612 75.94,9.2592 90.44505,-84.08501 93.56305,-144.48751 15.37167,33.0302 39.08748,65.03817 68.25799,84.03181 0.138,-34.2406 -0.276,-57.1012 -0.134,-90.2594 C 867.6335,651.71396 866.41092,566.69028 846.37797,441.59181 832.63013,355.74156 813.51783,171.18523 808.71088,136.09208 c -3.01853,-13.97431 -10.90798,-12.31034 -13.99724,-7.1067 -5.66085,9.53529 -17.26846,23.49067 -25.14652,39.38806 -3.51653,7.09613 -2.48799,12.78772 -1.84627,20.87633 14.89487,187.74301 53.77227,395.57673 71.69427,565.67623 -35.18236,20.20585 -69.03907,10.01615 -91.48967,-13.63093 -49.37842,-52.00999 -51.36138,-130.20055 -58.88333,-167.46567 -19.418,-115.9941 -47.953,-398.14817 -50.838,-431.0269 -1.737,-19.80101 -15.769,-15.27285 -17.972,-8.5253 z"
       style="fill:#ff0000;fill-opacity:0.60784314;fill-rule:evenodd;stroke:#000000;stroke-width:1;stroke-linecap:butt;stroke-linejoin:miter;stroke-miterlimit:4;stroke-opacity:1;stroke-dasharray:none" />
    <path
       sodipodi:nodetypes="csscssssssssscc"
       id="path2515-3"
       d="m 388.17212,250.9913 c -62.839,16.60145 -94.956,73.2674 -112.581,147.33732 -5.508,23.15264 16.005,45.40028 47.203,52.50148 l 29.051,6.6128 c 8.78,1.5573 12.612,9.1623 6.524,12.4078 -23.979,12.7811 -91.568,8.5197 -165.91,13.4644 -12.173,0.8068 -13.611,16.9704 1.11,22.419 40.544,15.0067 123.564,23.3686 152.223,16.0494 26.265,-6.708 60.756,-62.0348 71.379,-91.70894 2.858,-7.9854 18.054,-45.23803 -29.243,-52.18011 -47.204,-6.92836 -71.716,-20.15139 -65.328,-28.6092 6.854,-9.0748 26.652,-18.34496 39.408,-20.98631 3.338,-0.69122 6.987,-3.91021 10.947,-13.71327 l 21.474,-53.16651 c 1.646,-4.59333 -0.459,-10.28579 -6.257,-10.42786 z"
       style="fill:#ff0000;fill-opacity:0.60784314;fill-rule:evenodd;stroke:#000000;stroke-width:1;stroke-linecap:butt;stroke-linejoin:miter;stroke-miterlimit:4;stroke-opacity:1;stroke-dasharray:none" />
  </g>
</svg>
