<?xml version="1.0" encoding="UTF-8" standalone="no"?>
<!-- Created with Inkscape (http://www.inkscape.org/) -->

<svg
   xmlns:dc="http://purl.org/dc/elements/1.1/"
   xmlns:cc="http://creativecommons.org/ns#"
   xmlns:rdf="http://www.w3.org/1999/02/22-rdf-syntax-ns#"
   xmlns:svg="http://www.w3.org/2000/svg"
   xmlns="http://www.w3.org/2000/svg"
   xmlns:sodipodi="http://sodipodi.sourceforge.net/DTD/sodipodi-0.dtd"
   xmlns:inkscape="http://www.inkscape.org/namespaces/inkscape"
   version="1.0"
   width="1000"
   height="1000"
   id="svg5496"
   sodipodi:version="0.32"
   inkscape:version="0.47pre4 r22446"
   sodipodi:docname="lam+heh.init.svg"
   inkscape:output_extension="org.inkscape.output.svg.inkscape">
  <metadata
     id="metadata5594">
    <rdf:RDF>
      <cc:Work
         rdf:about="">
        <dc:format>image/svg+xml</dc:format>
        <dc:type
           rdf:resource="http://purl.org/dc/dcmitype/StillImage" />
        <dc:title />
      </cc:Work>
    </rdf:RDF>
  </metadata>
  <sodipodi:namedview
     inkscape:window-height="727"
     inkscape:pageshadow="2"
     inkscape:pageopacity="0.0"
     borderopacity="1.0"
     bordercolor="#666666"
     pagecolor="#ffffff"
     id="base"
     showgrid="false"
     showguides="true"
     inkscape:guide-bbox="true"
     inkscape:zoom="0.64205296"
     inkscape:cx="145.37445"
     inkscape:cy="506.90551"
     inkscape:window-x="0"
     inkscape:window-y="24"
     inkscape:current-layer="svg5496"
     inkscape:window-width="1280"
     inkscape:window-maximized="1">
    <sodipodi:guide
       orientation="horizontal"
       position="200"
       id="guide5596" />
  </sodipodi:namedview>
  <defs
     id="defs5498">
    <inkscape:perspective
       sodipodi:type="inkscape:persp3d"
       inkscape:vp_x="0 : 500 : 1"
       inkscape:vp_y="0 : 1000 : 0"
       inkscape:vp_z="1000 : 500 : 1"
       inkscape:persp3d-origin="500 : 333.33333 : 1"
       id="perspective8" />
    <inkscape:perspective
       id="perspective2822"
       inkscape:persp3d-origin="0.5 : 0.33333333 : 1"
       inkscape:vp_z="1 : 0.5 : 1"
       inkscape:vp_y="0 : 1000 : 0"
       inkscape:vp_x="0 : 0.5 : 1"
       sodipodi:type="inkscape:persp3d" />
    <inkscape:perspective
       id="perspective4618"
       inkscape:persp3d-origin="0.5 : 0.33333333 : 1"
       inkscape:vp_z="1 : 0.5 : 1"
       inkscape:vp_y="0 : 1000 : 0"
       inkscape:vp_x="0 : 0.5 : 1"
       sodipodi:type="inkscape:persp3d" />
    <inkscape:perspective
       id="perspective4655"
       inkscape:persp3d-origin="0.5 : 0.33333333 : 1"
       inkscape:vp_z="1 : 0.5 : 1"
       inkscape:vp_y="0 : 1000 : 0"
       inkscape:vp_x="0 : 0.5 : 1"
       sodipodi:type="inkscape:persp3d" />
  </defs>
  <g
     id="layer1" />
  <path
     style="color:#000000;fill:#ff0000;fill-opacity:0.60784314;stroke:#000000;stroke-width:1;stroke-linecap:butt;stroke-linejoin:miter;stroke-miterlimit:4;stroke-opacity:1;stroke-dasharray:none;stroke-dashoffset:0;marker:none;visibility:visible;display:inline;overflow:visible;enable-background:accumulate"
     d="m 162.3529,170.47564 c -2.54,4.56386 -4.921,8.7056 1.981,19.71028 7.585,12.09283 13.496,29.49616 14.015,37.90566 6.971,112.40659 18.241,205.77602 16.376,227.08725 -46.567,30.73572 -118.773,96.88212 -136.034,166.49752 -5.659,22.8239 -8.086,47.2393 -3.842,74.9887 -15.223,8.0696 -46.2667,12.1649 -54.3124,13.3843 L 0,800 c 33.9158,-9.9231 79.8749,-29.83705 111.8939,-50.94795 88.256,26.70085 179.67,24.61485 226.417,16.7331 8.752,-1.4757 19.621,-5.8669 25.967,-12.1077 28.62,-28.1502 42.128,-80.5152 36.825,-126.609 -1.124,-9.7671 -5.14,-21.734 -11.712,-29.2444 -21.095,-24.104 -77.655,-58.1439 -126.594,-80.479 -5.594,-2.5534 -12.658,-11.0648 -14.237,-16.6641 -15.728,-55.76913 -23.141,-167.93472 -30.266,-255.61732 5.798,-21.13478 21.846,-33.17444 30.148,-46.74405 5.605,-9.16152 4.282,-15.36999 -1.812,-20.62824 -10.479,-10.21661 -28.66,-32.27251 -37.642,-41.89033 -4.016,-4.29975 -11.076,-7.92937 -16.726,-1.60583 -8.352,9.34615 -20.287,23.48485 -29.909,36.28046 z m 3.098,369.20461 c 30.352,0.2542 46.607,66.4117 30.427,98.7624 -9.943,10.917 -37.398,25.0224 -56.372,33.0996 -41.448,-8.8525 -58.539,-21.5061 -63.233,-41.4366 -0.421,-1.7909 -0.524,-4.2307 0.849,-6.9466 25.347,-50.0831 70.703,-83.6264 88.329,-83.4788 z m 73.515,48.9843 c 38.387,19.2688 91.198,48.5229 114.655,78.786 5.071,6.5423 2.386,22.9702 -16.241,23.8855 -36.605,1.7987 -113.837,-2.7037 -142.018,-9.2424 26.96,-30.8185 38.623,-59.1916 43.604,-93.4291 z"
     id="path2830"
     sodipodi:nodetypes="csscsccccsssssscscssccccssscsscc" />
</svg>
