<?xml version="1.0" encoding="UTF-8" standalone="no"?>
<!-- Created with Inkscape (http://www.inkscape.org/) -->

<svg
   xmlns:dc="http://purl.org/dc/elements/1.1/"
   xmlns:cc="http://creativecommons.org/ns#"
   xmlns:rdf="http://www.w3.org/1999/02/22-rdf-syntax-ns#"
   xmlns:svg="http://www.w3.org/2000/svg"
   xmlns="http://www.w3.org/2000/svg"
   xmlns:sodipodi="http://sodipodi.sourceforge.net/DTD/sodipodi-0.dtd"
   xmlns:inkscape="http://www.inkscape.org/namespaces/inkscape"
   version="1.0"
   width="1000"
   height="1000"
   id="svg5496"
   sodipodi:version="0.32"
   inkscape:version="0.47pre4 r22446"
   sodipodi:docname="lam+haa+haa.init.svg"
   inkscape:output_extension="org.inkscape.output.svg.inkscape">
  <metadata
     id="metadata5594">
    <rdf:RDF>
      <cc:Work
         rdf:about="">
        <dc:format>image/svg+xml</dc:format>
        <dc:type
           rdf:resource="http://purl.org/dc/dcmitype/StillImage" />
      </cc:Work>
    </rdf:RDF>
  </metadata>
  <sodipodi:namedview
     inkscape:window-height="767"
     inkscape:window-width="1278"
     inkscape:pageshadow="2"
     inkscape:pageopacity="0.0"
     guidetolerance="10.0"
     gridtolerance="10.0"
     objecttolerance="10.0"
     borderopacity="1.0"
     bordercolor="#666666"
     pagecolor="#ffffff"
     id="base"
     showgrid="false"
     showguides="true"
     inkscape:guide-bbox="true"
     inkscape:zoom="0.17436439"
     inkscape:cx="419.45171"
     inkscape:cy="585.18084"
     inkscape:window-x="0"
     inkscape:window-y="0"
     inkscape:current-layer="svg5496"
     inkscape:window-maximized="1">
    <sodipodi:guide
       orientation="horizontal"
       position="200"
       id="guide5596" />
  </sodipodi:namedview>
  <defs
     id="defs5498">
    <inkscape:perspective
       sodipodi:type="inkscape:persp3d"
       inkscape:vp_x="0 : 500 : 1"
       inkscape:vp_y="0 : 1000 : 0"
       inkscape:vp_z="1000 : 500 : 1"
       inkscape:persp3d-origin="500 : 333.33333 : 1"
       id="perspective2389" />
    <inkscape:perspective
       id="perspective2398"
       inkscape:persp3d-origin="372.04724 : 350.78739 : 1"
       inkscape:vp_z="744.09448 : 526.18109 : 1"
       inkscape:vp_y="0 : 1000 : 0"
       inkscape:vp_x="0 : 526.18109 : 1"
       sodipodi:type="inkscape:persp3d" />
    <inkscape:perspective
       id="perspective6028"
       inkscape:persp3d-origin="0.5 : 0.33333333 : 1"
       inkscape:vp_z="1 : 0.5 : 1"
       inkscape:vp_y="0 : 1000 : 0"
       inkscape:vp_x="0 : 0.5 : 1"
       sodipodi:type="inkscape:persp3d" />
    <inkscape:perspective
       id="perspective6052"
       inkscape:persp3d-origin="0.5 : 0.33333333 : 1"
       inkscape:vp_z="1 : 0.5 : 1"
       inkscape:vp_y="0 : 1000 : 0"
       inkscape:vp_x="0 : 0.5 : 1"
       sodipodi:type="inkscape:persp3d" />
    <inkscape:perspective
       id="perspective2871"
       inkscape:persp3d-origin="0.5 : 0.33333333 : 1"
       inkscape:vp_z="1 : 0.5 : 1"
       inkscape:vp_y="0 : 1000 : 0"
       inkscape:vp_x="0 : 0.5 : 1"
       sodipodi:type="inkscape:persp3d" />
  </defs>
  <path
     style="fill:#ff0000;fill-opacity:0.60784314;fill-rule:evenodd;stroke:#000000;stroke-width:1;stroke-linecap:butt;stroke-linejoin:miter;stroke-miterlimit:4;stroke-opacity:1;stroke-dasharray:none"
     d="m 159.4033,335.393 c -6.75032,1.34876 -11.454,3.485 -16.363,8.2428 -13.055,12.6498 -26.3847,36.5849 -31.8514,52.1776 -3.1698,9.043 0.5549,10.6573 5.8059,10.5364 41.2955,-0.9508 126.4705,2.1822 194.3345,36.4882 -64.057,24.1848 -158.614,37.638 -269.6078,107.9232 -12.0191,13.6621 -25.3787,38.2055 -31.9137,52.3933 -4.5102,9.7921 3.49496,12.06796 8.240783,10.33532 34.023422,-12.42152 71.56289,-30.77389 141.129717,-58.15082 90.03584,-35.43218 166.506,-53.7809 228.988,-57.276 69.906,-3.9104 112.563,4.7452 178.128,19.6568 2.843,0.6467 5.692,1.249 9.458,-4.3542 11.736,-17.4638 25.595,-37.4995 33.048,-56.9373 3.705,-9.6614 -0.199,-14.1473 -7.376,-15.5308 C 445.41964,413.54521 409.64843,396.58512 329.7833,363.8054 277.02323,342.15064 191.06018,329.06774 159.4033,335.393 z"
     id="path2882"
     sodipodi:nodetypes="csssccssssssscss" />
  <g
     id="layer1"
     transform="translate(-95.007739,64.12823)" />
  <path
     sodipodi:nodetypes="csscssssssssss"
     id="path2880"
     d="M 40.454206,552.53541 C 30.189981,564.98205 16.3428,588.9667 9.8078,603.1545 c -4.5102,9.7921 3.6786,11.4344 8.7477,11.0957 45.844,-3.0824 140.1818,18.0975 199.8898,44.9489 -73.277,23.4427 -141.389,37.58839 -218.8185,49.8647 C -40.173494,715.37407 -24.250959,805.71295 0,800 c 45.952441,-10.8253 211.6013,-79.0249 266.3223,-88.9635 73.793,-13.4022 146.195,-7.9755 222.199,5.1171 3.617,0.623 10.17,0.1412 13.272,-2.7206 18.199,-16.7832 27.968,-40.4441 39.838,-64.8751 5.049,-10.3888 3.483,-15.4745 -7.37,-15.4119 -60.068,0.3468 -122.446,-7.495 -175.395,-19.6168 C 289.2153,597.5839 227.33645,574.21803 159.1783,555.339 115.50524,543.24206 49.791911,541.21229 40.454206,552.53541 z"
     style="fill:#ff0000;fill-opacity:0.60784314;fill-rule:evenodd;stroke:#000000;stroke-width:1;stroke-linecap:butt;stroke-linejoin:miter;stroke-miterlimit:4;stroke-opacity:1;stroke-dasharray:none" />
  <path
     sodipodi:nodetypes="cssscsssssssssss"
     id="path2884"
     d="m 315.92127,35.845796 c -8.20736,12.682082 -23.50923,32.76862 -30.141,47.180373 -4.80589,10.443868 -0.23247,22.097181 0.56001,25.936751 2.77869,13.46275 9.82548,38.42471 10.47768,45.41147 5.88705,63.06542 12.70934,139.65051 11.85234,168.47911 -54.103,14.0822 -91.317,0.2562 -149.267,12.5395 -6.735,1.4275 -11.454,3.485 -16.363,8.2428 -13.055,12.6498 -26.3847,36.5849 -31.8514,52.1776 -3.1698,9.043 0.56921,10.93236 5.8059,10.5364 50.35976,-3.80788 188.94327,-4.11347 212.7885,-42.5444 10.46602,-16.8679 12.227,-36.8305 15.743,-54.7733 5.152,-26.3004 2.14438,-104.07287 -0.62533,-135.33155 -0.39839,-4.49615 16.0649,-22.93786 24.01499,-32.48586 7.43584,-8.93039 8.06664,-16.92447 2.34864,-23.19947 -13.352,-14.6548 -35.67091,-48.859773 -43.38,-79.320703 -1.35371,-5.34892 -8.88826,-7.600342 -11.96333,-2.848721 z"
     style="fill:#ff0000;fill-opacity:0.60784314;fill-rule:evenodd;stroke:#000000;stroke-width:1;stroke-linecap:butt;stroke-linejoin:miter;stroke-miterlimit:4;stroke-opacity:1;stroke-dasharray:none" />
</svg>
