<?xml version="1.0" encoding="UTF-8" standalone="no"?>
<!-- Created with Inkscape (http://www.inkscape.org/) -->

<svg
   xmlns:dc="http://purl.org/dc/elements/1.1/"
   xmlns:cc="http://creativecommons.org/ns#"
   xmlns:rdf="http://www.w3.org/1999/02/22-rdf-syntax-ns#"
   xmlns:svg="http://www.w3.org/2000/svg"
   xmlns="http://www.w3.org/2000/svg"
   xmlns:sodipodi="http://sodipodi.sourceforge.net/DTD/sodipodi-0.dtd"
   xmlns:inkscape="http://www.inkscape.org/namespaces/inkscape"
   version="1.0"
   width="1000"
   height="1000"
   id="svg5496"
   sodipodi:version="0.32"
   inkscape:version="0.47pre4 r22446"
   sodipodi:docname="lam+alef.isol.svg"
   inkscape:output_extension="org.inkscape.output.svg.inkscape">
  <metadata
     id="metadata5594">
    <rdf:RDF>
      <cc:Work
         rdf:about="">
        <dc:format>image/svg+xml</dc:format>
        <dc:type
           rdf:resource="http://purl.org/dc/dcmitype/StillImage" />
      </cc:Work>
    </rdf:RDF>
  </metadata>
  <sodipodi:namedview
     inkscape:pageshadow="2"
     inkscape:pageopacity="0.0"
     guidetolerance="10.0"
     gridtolerance="10.0"
     objecttolerance="10.0"
     borderopacity="1.0"
     bordercolor="#666666"
     pagecolor="#ffffff"
     id="base"
     showgrid="false"
     showguides="true"
     inkscape:guide-bbox="true"
     inkscape:zoom="0.56558786"
     inkscape:cx="452.98622"
     inkscape:cy="447.56328"
     inkscape:window-x="0"
     inkscape:window-y="0"
     inkscape:current-layer="svg5496"
     inkscape:window-width="1278"
     inkscape:window-height="767"
     inkscape:window-maximized="1">
    <sodipodi:guide
       orientation="horizontal"
       position="200"
       id="guide5596" />
  </sodipodi:namedview>
  <defs
     id="defs5498">
    <inkscape:perspective
       sodipodi:type="inkscape:persp3d"
       inkscape:vp_x="0 : 500 : 1"
       inkscape:vp_y="0 : 1000 : 0"
       inkscape:vp_z="1000 : 500 : 1"
       inkscape:persp3d-origin="500 : 333.33333 : 1"
       id="perspective8" />
    <inkscape:perspective
       id="perspective2477"
       inkscape:persp3d-origin="372.04724 : 350.78739 : 1"
       inkscape:vp_z="744.09448 : 526.18109 : 1"
       inkscape:vp_y="0 : 1000 : 0"
       inkscape:vp_x="0 : 526.18109 : 1"
       sodipodi:type="inkscape:persp3d" />
    <inkscape:perspective
       id="perspective4411"
       inkscape:persp3d-origin="0.5 : 0.33333333 : 1"
       inkscape:vp_z="1 : 0.5 : 1"
       inkscape:vp_y="0 : 1000 : 0"
       inkscape:vp_x="0 : 0.5 : 1"
       sodipodi:type="inkscape:persp3d" />
    <inkscape:perspective
       id="perspective2851"
       inkscape:persp3d-origin="0.5 : 0.33333333 : 1"
       inkscape:vp_z="1 : 0.5 : 1"
       inkscape:vp_y="0 : 1000 : 0"
       inkscape:vp_x="0 : 0.5 : 1"
       sodipodi:type="inkscape:persp3d" />
    <inkscape:perspective
       id="perspective2837"
       inkscape:persp3d-origin="0.5 : 0.33333333 : 1"
       inkscape:vp_z="1 : 0.5 : 1"
       inkscape:vp_y="0 : 1000 : 0"
       inkscape:vp_x="0 : 0.5 : 1"
       sodipodi:type="inkscape:persp3d" />
  </defs>
  <path
     sodipodi:nodetypes="cscsscccccccsssssscss"
     id="path2857"
     d="m 263.50736,715.1766 c 9.94416,0.85051 55.45593,1.75563 70.68693,1.94353 15.231,0.1879 54.936,-3.113 66.377,-7.4391 -2.47322,-23.87429 -9.03732,-44.30069 -13.539,-56.4466 -4.50168,-12.14591 -12.085,-32.04022 -15.411,-38.8948 -60.02371,-123.70325 -196.049,-307.61888 -252.731,-361.01184 l -14.25699,25.9141 c -6.691005,4.30346 -17.169005,4.29588 -24.388005,-4.18078 l -69.177,-74.31231 C 1.7542949,189.81067 -3.193705,181.89428 -0.4077051,161.96659 L 12.597295,74.377942 c 2.717,-19.42962 17.841,-14.81122 24.382,-7.56409 62.335,48.671098 299.099395,340.699268 362.119025,501.150258 3.64484,9.27994 8.25286,18.48192 15.39777,41.41494 13.26593,42.57968 28.3382,89.10358 28.7732,125.47058 0.367,30.6631 -18.211,55.7981 -29.864,58.8912 -45.387,12.0473 -183.222,8.0557 -198.821,6.2041 -7.808,-0.927 -15.654,-1.9603 -18.823,-7.4998 -10.344,-18.0807 -4.555,-61.2525 5,-72.4 2.65,-3.0901 6.54206,-10.44224 14.05,-9.3265 13.23685,1.96709 36.72407,3.43403 48.69607,4.45797 z"
     style="fill:#ff0000;fill-opacity:0.60784314;fill-rule:evenodd;stroke:#000000;stroke-width:0;stroke-linecap:butt;stroke-linejoin:miter;stroke-miterlimit:4;stroke-opacity:1;stroke-dasharray:none" />
  <g
     id="layer1"
     transform="matrix(0.5,0,0,0.5,83.260624,225.73458)" />
  <path
     style="fill:#ff0000;fill-opacity:0.60784314;fill-rule:evenodd;stroke:#000000;stroke-width:0;stroke-linecap:butt;stroke-linejoin:miter;stroke-miterlimit:4;stroke-opacity:1;stroke-dasharray:none"
     d="m 334.19429,717.12013 c 18.79552,-20.96124 38.48635,-42.71281 52.838,-63.8857 14.73542,-21.73906 18.76766,-29.07675 27.42586,-43.7102 24.6565,-41.67263 90.1921,-213.15277 82.80499,-427.39466 12.80042,-12.85386 18.74176,-19.14219 28.11264,-28.71328 6.30783,-6.4426 8.78626,-18.00339 0.17226,-27.77294 -14.689,-16.65677 -26.15381,-55.830386 -31.6231,-77.039683 -2.0448,-7.929535 -12.65952,-10.086132 -16.812,-3.16626 -8.2655,13.774006 -15.92287,27.891969 -25.64283,45.2483 -6.29384,11.238503 -4.64028,30.558813 -3.19384,49.381143 11.00914,143.26084 1.39967,341.55319 -49.21589,427.7835 -5.14857,8.77127 -17.3263,32.11386 -27.43911,46.48928 -28.32176,40.25954 -66.35002,74.80704 -109.882,99.0689 -71.67395,39.94633 31.17565,49.74741 72.45502,3.7116 z"
     id="path2859"
     sodipodi:nodetypes="csscscssssssss" />
</svg>
