<?xml version="1.0" encoding="UTF-8" standalone="no"?>
<!-- Created with Inkscape (http://www.inkscape.org/) -->

<svg
   xmlns:dc="http://purl.org/dc/elements/1.1/"
   xmlns:cc="http://creativecommons.org/ns#"
   xmlns:rdf="http://www.w3.org/1999/02/22-rdf-syntax-ns#"
   xmlns:svg="http://www.w3.org/2000/svg"
   xmlns="http://www.w3.org/2000/svg"
   xmlns:sodipodi="http://sodipodi.sourceforge.net/DTD/sodipodi-0.dtd"
   xmlns:inkscape="http://www.inkscape.org/namespaces/inkscape"
   version="1.0"
   width="1000"
   height="1000"
   id="svg5496"
   sodipodi:version="0.32"
   inkscape:version="0.47pre4 r22446"
   sodipodi:docname="lam+alef.fina.svg"
   inkscape:output_extension="org.inkscape.output.svg.inkscape">
  <metadata
     id="metadata5594">
    <rdf:RDF>
      <cc:Work
         rdf:about="">
        <dc:format>image/svg+xml</dc:format>
        <dc:type
           rdf:resource="http://purl.org/dc/dcmitype/StillImage" />
      </cc:Work>
    </rdf:RDF>
  </metadata>
  <sodipodi:namedview
     inkscape:pageshadow="2"
     inkscape:pageopacity="0.0"
     guidetolerance="10.0"
     gridtolerance="10.0"
     objecttolerance="10.0"
     borderopacity="1.0"
     bordercolor="#666666"
     pagecolor="#ffffff"
     id="base"
     showgrid="false"
     showguides="true"
     inkscape:guide-bbox="true"
     inkscape:zoom="0.64205296"
     inkscape:cx="531.8413"
     inkscape:cy="540.77254"
     inkscape:window-x="0"
     inkscape:window-y="24"
     inkscape:current-layer="svg5496"
     inkscape:window-width="1280"
     inkscape:window-height="725"
     inkscape:window-maximized="1">
    <sodipodi:guide
       orientation="horizontal"
       position="200"
       id="guide5596" />
  </sodipodi:namedview>
  <defs
     id="defs5498">
    <inkscape:perspective
       sodipodi:type="inkscape:persp3d"
       inkscape:vp_x="0 : 500 : 1"
       inkscape:vp_y="0 : 1000 : 0"
       inkscape:vp_z="1000 : 500 : 1"
       inkscape:persp3d-origin="500 : 333.33333 : 1"
       id="perspective8" />
    <inkscape:perspective
       id="perspective2711"
       inkscape:persp3d-origin="372.04724 : 350.78739 : 1"
       inkscape:vp_z="744.09448 : 526.18109 : 1"
       inkscape:vp_y="0 : 1000 : 0"
       inkscape:vp_x="0 : 526.18109 : 1"
       sodipodi:type="inkscape:persp3d" />
    <inkscape:perspective
       id="perspective8539"
       inkscape:persp3d-origin="0.5 : 0.33333333 : 1"
       inkscape:vp_z="1 : 0.5 : 1"
       inkscape:vp_y="0 : 1000 : 0"
       inkscape:vp_x="0 : 0.5 : 1"
       sodipodi:type="inkscape:persp3d" />
  </defs>
  <g
     id="layer1"
     transform="matrix(0.5,0,0,0.5,221.61944,298.8987)"
     style="stroke-width:2;stroke-miterlimit:4;stroke-dasharray:none" />
  <path
     style="fill:#ff0000;fill-opacity:0.60784314;fill-rule:evenodd;stroke:#000000;stroke-width:0.9366104px;stroke-linecap:butt;stroke-linejoin:miter;stroke-miterlimit:4;stroke-opacity:1;stroke-dasharray:none"
     d="m 481.4325,120.8418 -28.9414,45.24458 c -5.3155,8.30986 -7.8387,31.55744 -7.433,48.05855 2.9483,119.90713 -18.4454,321.81271 -51.1236,387.80801 C 373.8398,436.54404 223.02417,308.24081 37.75726,208.6284 20.63777,198.21103 0.28476968,213.43837 0.53656968,225.90212 c 0.0859,4.25212 2.05121002,106.20992 2.05121002,106.20992 -0.87689,11.59074 3.00296,19.27327 19.4735203,30.64317 l 87.17307,60.17713 c 17.9565,12.3956 28.9342,17.9197 37.2595,2.193 2.4608,-4.6486 7.6816,-16.0121 9.7109,-20.1405 4.8321,-9.8308 14.0973,-3.1875 19.1088,-0.063 90.18513,56.2366 169.02303,127.2641 197.09973,242.0012 -51.6221,75.8773 -223.44823,169.30216 -292.77982,193.66036 -7.5482,4.2987 -7.211,13.1451 -0.1888,15.501 11.247,4.4988 91.38249,-7.852 158.63519,-24.9583 C 391.9371,791.99144 450.2195,573.74594 464.7747,402.96504 c 4.1026,-13.50736 3.9229,-5.5259 6.1654,0.498 4.9899,31.788 18.7741,192.5784 43.4248,292.4566 20.1412,81.6063 72.9325,101.6832 104.8188,104.08036 -0.7576,-23.48706 0.1686,-91.30296 0.1686,-91.30296 -41.4697,-24.6065 -59.2501,-69.6285 -69.4393,-113.7346 -28.018,-121.2819 -54.6453,-469.45819 -50.8976,-467.89667 -2.5657,-13.4088 -11.1275,-18.09881 -17.5829,-6.22446 l 0,4.9e-4 z"
     id="path2717-0"
     sodipodi:nodetypes="cssccssssssscccsccsccsccc" />
</svg>
