<?xml version="1.0" encoding="UTF-8" standalone="no"?>
<!-- Created with Inkscape (http://www.inkscape.org/) -->

<svg
   xmlns:dc="http://purl.org/dc/elements/1.1/"
   xmlns:cc="http://creativecommons.org/ns#"
   xmlns:rdf="http://www.w3.org/1999/02/22-rdf-syntax-ns#"
   xmlns:svg="http://www.w3.org/2000/svg"
   xmlns="http://www.w3.org/2000/svg"
   xmlns:sodipodi="http://sodipodi.sourceforge.net/DTD/sodipodi-0.dtd"
   xmlns:inkscape="http://www.inkscape.org/namespaces/inkscape"
   version="1.0"
   width="1000"
   height="1000"
   id="svg5496"
   sodipodi:version="0.32"
   inkscape:version="0.47pre4 r22446"
   sodipodi:docname="lam+meem.medi.svg"
   inkscape:output_extension="org.inkscape.output.svg.inkscape">
  <metadata
     id="metadata5594">
    <rdf:RDF>
      <cc:Work
         rdf:about="">
        <dc:format>image/svg+xml</dc:format>
        <dc:type
           rdf:resource="http://purl.org/dc/dcmitype/StillImage" />
      </cc:Work>
    </rdf:RDF>
  </metadata>
  <sodipodi:namedview
     inkscape:pageshadow="2"
     inkscape:pageopacity="0.0"
     guidetolerance="10.0"
     gridtolerance="10.0"
     objecttolerance="10.0"
     borderopacity="1.0"
     bordercolor="#666666"
     pagecolor="#ffffff"
     id="base"
     showgrid="false"
     showguides="true"
     inkscape:guide-bbox="true"
     inkscape:zoom="0.64205296"
     inkscape:cx="476.79875"
     inkscape:cy="525.10433"
     inkscape:window-x="0"
     inkscape:window-y="24"
     inkscape:current-layer="svg5496"
     inkscape:window-width="1280"
     inkscape:window-height="725"
     inkscape:window-maximized="1">
    <sodipodi:guide
       orientation="horizontal"
       position="200"
       id="guide5596" />
  </sodipodi:namedview>
  <defs
     id="defs5498">
    <inkscape:perspective
       sodipodi:type="inkscape:persp3d"
       inkscape:vp_x="0 : 500 : 1"
       inkscape:vp_y="0 : 1000 : 0"
       inkscape:vp_z="1000 : 500 : 1"
       inkscape:persp3d-origin="500 : 333.33333 : 1"
       id="perspective2389" />
    <inkscape:perspective
       id="perspective2504"
       inkscape:persp3d-origin="372.04724 : 350.78739 : 1"
       inkscape:vp_z="744.09448 : 526.18109 : 1"
       inkscape:vp_y="0 : 1000 : 0"
       inkscape:vp_x="0 : 526.18109 : 1"
       sodipodi:type="inkscape:persp3d" />
    <inkscape:perspective
       id="perspective4011"
       inkscape:persp3d-origin="0.5 : 0.33333333 : 1"
       inkscape:vp_z="1 : 0.5 : 1"
       inkscape:vp_y="0 : 1000 : 0"
       inkscape:vp_x="0 : 0.5 : 1"
       sodipodi:type="inkscape:persp3d" />
  </defs>
  <g
     id="layer1"
     transform="translate(-300,180)" />
  <path
     style="fill:#ff0000;fill-opacity:0.60784314;fill-rule:evenodd;stroke:#000000;stroke-width:1;stroke-linecap:butt;stroke-linejoin:miter;stroke-miterlimit:4;stroke-opacity:1;stroke-dasharray:none"
     d="m 344.31039,116.7862 -26.1826,51.6832 c -4.212,7.6315 -3.3259,26.973 -2.1818,39.9557 14.5333,143.1329 52.54171,391.9239 41.3194,418.7736 -16.90039,36.772 -89.5093,50.5102 -141.5495,39.8301 -36.7577,-14.4407 -38.9554,-53.2811 -64.99529,-50.7648 -16.0098,1.5471 -29.151,24.5755 -37.6894,32.9006 -29.7361,28.9941 -85.8481,57.3581 -112.6959,60.112 L 0,800 c 62.1305,-17.064 106.7455,-90.8118 128.3044,-90.5956 16.7684,0.1682 13.8749,19.4532 18.1671,37.9449 12.0419,51.8792 66.14479,118.385 131.02769,128.0067 16.7893,2.4897 19.4946,1.5968 23.8869,-15.3232 7.6024,-29.2856 3.3074,-88.2247 -9.9148,-112.8135 42.8801,-12.2423 75.2926,-51.6896 81.4936,-93.4702 9.3103,60.1304 40.26241,125.985 97.23211,144.6858 -1.16061,-12.5306 -0.52171,-92.5414 -0.52171,-92.5414 -28.7637,-25.4293 -35.6675,-50.9838 -45.7263,-82.6387 -25.00159,-78.6796 -41.4557,-330.6172 -64.9109,-503.1959 -1.36669,-8.3242 -8.7214,-11.2387 -14.7277,-3.2727 z"
     id="path2541-2"
     sodipodi:nodetypes="cccccssccssssccccscc" />
</svg>
