<?xml version="1.0" encoding="UTF-8" standalone="no"?>
<!-- Created with Inkscape (http://www.inkscape.org/) -->

<svg
   xmlns:dc="http://purl.org/dc/elements/1.1/"
   xmlns:cc="http://creativecommons.org/ns#"
   xmlns:rdf="http://www.w3.org/1999/02/22-rdf-syntax-ns#"
   xmlns:svg="http://www.w3.org/2000/svg"
   xmlns="http://www.w3.org/2000/svg"
   xmlns:sodipodi="http://sodipodi.sourceforge.net/DTD/sodipodi-0.dtd"
   xmlns:inkscape="http://www.inkscape.org/namespaces/inkscape"
   version="1.0"
   width="1000"
   height="1000"
   id="svg5496"
   sodipodi:version="0.32"
   inkscape:version="0.47pre4 r22446"
   sodipodi:docname="lam+haa+haa.init.svg"
   inkscape:output_extension="org.inkscape.output.svg.inkscape">
  <metadata
     id="metadata5594">
    <rdf:RDF>
      <cc:Work
         rdf:about="">
        <dc:format>image/svg+xml</dc:format>
        <dc:type
           rdf:resource="http://purl.org/dc/dcmitype/StillImage" />
      </cc:Work>
    </rdf:RDF>
  </metadata>
  <sodipodi:namedview
     inkscape:window-height="618"
     inkscape:window-width="641"
     inkscape:pageshadow="2"
     inkscape:pageopacity="0.0"
     guidetolerance="10.0"
     gridtolerance="10.0"
     objecttolerance="10.0"
     borderopacity="1.0"
     bordercolor="#666666"
     pagecolor="#ffffff"
     id="base"
     showgrid="false"
     showguides="true"
     inkscape:guide-bbox="true"
     inkscape:zoom="0.32102648"
     inkscape:cx="666.46777"
     inkscape:cy="565.58183"
     inkscape:window-x="0"
     inkscape:window-y="25"
     inkscape:current-layer="svg5496"
     inkscape:window-maximized="0">
    <sodipodi:guide
       orientation="horizontal"
       position="200"
       id="guide5596" />
  </sodipodi:namedview>
  <defs
     id="defs5498">
    <inkscape:perspective
       sodipodi:type="inkscape:persp3d"
       inkscape:vp_x="0 : 500 : 1"
       inkscape:vp_y="0 : 1000 : 0"
       inkscape:vp_z="1000 : 500 : 1"
       inkscape:persp3d-origin="500 : 333.33333 : 1"
       id="perspective2389" />
    <inkscape:perspective
       id="perspective2398"
       inkscape:persp3d-origin="372.04724 : 350.78739 : 1"
       inkscape:vp_z="744.09448 : 526.18109 : 1"
       inkscape:vp_y="0 : 1000 : 0"
       inkscape:vp_x="0 : 526.18109 : 1"
       sodipodi:type="inkscape:persp3d" />
    <inkscape:perspective
       id="perspective6028"
       inkscape:persp3d-origin="0.5 : 0.33333333 : 1"
       inkscape:vp_z="1 : 0.5 : 1"
       inkscape:vp_y="0 : 1000 : 0"
       inkscape:vp_x="0 : 0.5 : 1"
       sodipodi:type="inkscape:persp3d" />
    <inkscape:perspective
       id="perspective6052"
       inkscape:persp3d-origin="0.5 : 0.33333333 : 1"
       inkscape:vp_z="1 : 0.5 : 1"
       inkscape:vp_y="0 : 1000 : 0"
       inkscape:vp_x="0 : 0.5 : 1"
       sodipodi:type="inkscape:persp3d" />
  </defs>
  <g
     id="layer1"
     transform="translate(-95.007739,64.12823)" />
  <path
     style="fill:#ff0000;fill-opacity:0.60784314;fill-rule:evenodd;stroke:#000000;stroke-width:1;stroke-linecap:butt;stroke-linejoin:miter;stroke-miterlimit:4;stroke-opacity:1;stroke-dasharray:none"
     d="m 311.4433,36.6828 c -11.236,11.0301 -23.544,30.2747 -30.141,44.7024 -1.501,3.2857 0.09,8.1948 1.386,11.8949 l 11.579,33.0216 c 5.696,63.0856 15.26,167.7232 14.403,196.5518 -54.103,14.0822 -91.317,0.2562 -149.267,12.5395 -6.735,1.4275 -11.454,3.485 -16.363,8.2428 -13.055,12.6498 -26.3847,36.5849 -31.8514,52.1776 -3.1698,9.043 0.5549,10.6573 5.8059,10.5364 41.2955,-0.9508 126.4705,2.1822 194.3345,36.4882 -64.057,24.1848 -158.614,37.638 -269.6078,107.9232 -12.0191,13.6621 -25.3787,38.2055 -31.9137,52.3933 -4.5102,9.7921 3.6786,11.4344 8.7477,11.0957 45.844,-3.0824 140.1818,18.0975 199.8898,44.9489 -73.277,23.4427 -142.5232,37.7558 -218.8185,49.8647 L 0,800 c 46.0778,-10.305 211.6013,-79.0249 266.3223,-88.9635 73.793,-13.4022 146.195,-7.9755 222.199,5.1171 3.617,0.623 10.17,0.1412 13.272,-2.7206 18.199,-16.7832 27.968,-40.4441 39.838,-64.8751 5.049,-10.3888 3.483,-15.4745 -7.37,-15.4119 -60.068,0.3468 -122.446,-7.495 -175.395,-19.6168 -69.651,-15.9453 -131.675,-38.7827 -199.688,-58.1902 89.995,-36.7345 166.506,-53.7809 228.988,-57.276 69.906,-3.9104 112.563,4.7452 178.128,19.6568 2.843,0.6467 5.692,1.249 9.458,-4.3542 11.736,-17.4638 25.595,-37.4995 33.048,-56.9373 3.705,-9.6614 -0.199,-14.1473 -7.376,-15.5308 -51.302,-9.8824 -111.297,-24.6005 -148.241,-36.9374 -41.328,-13.8009 -78.451,-26.1411 -123.4,-40.1547 10.744,-17.4177 12.227,-36.8305 15.743,-54.7733 5.152,-26.3004 1.412,-116.2307 -2.35,-166.7082 l 23.189,-29.1819 c 5.784,-7.2783 5.864,-10.8672 0.146,-17.1422 -13.352,-14.6548 -27.411,-27.384 -43.38,-57.5696 -2.58,-4.8772 -7.649,-5.7123 -11.688,-1.7474 z"
     id="path2404"
     sodipodi:nodetypes="cssccssssccsscccsssssscsssssscscssss" />
</svg>
