<?xml version="1.0" encoding="UTF-8" standalone="no"?>
<!-- Created with Inkscape (http://www.inkscape.org/) -->

<svg
   xmlns:dc="http://purl.org/dc/elements/1.1/"
   xmlns:cc="http://creativecommons.org/ns#"
   xmlns:rdf="http://www.w3.org/1999/02/22-rdf-syntax-ns#"
   xmlns:svg="http://www.w3.org/2000/svg"
   xmlns="http://www.w3.org/2000/svg"
   xmlns:sodipodi="http://sodipodi.sourceforge.net/DTD/sodipodi-0.dtd"
   xmlns:inkscape="http://www.inkscape.org/namespaces/inkscape"
   version="1.0"
   width="1000"
   height="1000"
   id="svg5496"
   sodipodi:version="0.32"
   inkscape:version="0.47pre4 r22446"
   sodipodi:docname="lam.isol.svg"
   inkscape:output_extension="org.inkscape.output.svg.inkscape">
  <metadata
     id="metadata5594">
    <rdf:RDF>
      <cc:Work
         rdf:about="">
        <dc:format>image/svg+xml</dc:format>
        <dc:type
           rdf:resource="http://purl.org/dc/dcmitype/StillImage" />
      </cc:Work>
    </rdf:RDF>
  </metadata>
  <sodipodi:namedview
     inkscape:pageshadow="2"
     inkscape:pageopacity="0.0"
     guidetolerance="10.0"
     gridtolerance="10.0"
     objecttolerance="10.0"
     borderopacity="1.0"
     bordercolor="#666666"
     pagecolor="#ffffff"
     id="base"
     showgrid="false"
     showguides="true"
     inkscape:guide-bbox="true"
     inkscape:zoom="0.64205296"
     inkscape:cx="574.65521"
     inkscape:cy="478.86845"
     inkscape:window-x="0"
     inkscape:window-y="24"
     inkscape:current-layer="svg5496"
     inkscape:window-height="725"
     inkscape:window-width="1280"
     inkscape:window-maximized="1">
    <sodipodi:guide
       orientation="horizontal"
       position="200"
       id="guide5596" />
  </sodipodi:namedview>
  <defs
     id="defs5498">
    <inkscape:perspective
       sodipodi:type="inkscape:persp3d"
       inkscape:vp_x="0 : 500 : 1"
       inkscape:vp_y="0 : 1000 : 0"
       inkscape:vp_z="1000 : 500 : 1"
       inkscape:persp3d-origin="500 : 333.33333 : 1"
       id="perspective2497" />
    <inkscape:perspective
       id="perspective2595"
       inkscape:persp3d-origin="372.04724 : 350.78739 : 1"
       inkscape:vp_z="744.09448 : 526.18109 : 1"
       inkscape:vp_y="0 : 1000 : 0"
       inkscape:vp_x="0 : 526.18109 : 1"
       sodipodi:type="inkscape:persp3d" />
    <inkscape:perspective
       id="perspective3779"
       inkscape:persp3d-origin="0.5 : 0.33333333 : 1"
       inkscape:vp_z="1 : 0.5 : 1"
       inkscape:vp_y="0 : 1000 : 0"
       inkscape:vp_x="0 : 0.5 : 1"
       sodipodi:type="inkscape:persp3d" />
  </defs>
  <g
     id="layer1" />
  <path
     style="fill:#ff0000;fill-opacity:0.60784314;fill-rule:evenodd;stroke:#000000;stroke-width:1px;stroke-linecap:butt;stroke-linejoin:miter;stroke-opacity:1"
     d="m 394.8004,211.9178 c -10.2881,13.69247 -15.6624,29.06164 -13.1556,65.00705 6.6792,95.77461 12.6096,162.64219 24.2334,253.89195 7.1256,55.9391 25.1493,175.9504 28.7635,269.1832 -23.8449,34.2316 -92.5573,85.7276 -208.9957,87.6173 -85.9961,1.3957 -170.657994,-21.4805 -177.747594,-117.4268 -3.7806,-51.1639 16.4747,-101.6563 46.497605,-145.6539 4.738799,-9.116 -7.6671,-19.2297 -17.1913,-9.5308 -22.306705,22.7159 -56.706405,91.7291 -68.627305,135.651 -12.1681998,44.833 -11.8289998,106.2051 1.8395,142.7203 28.489,76.10787 106.751294,102.99247 182.660094,100.05317 93.5007,-3.6205 225.3515,-50.51977 254.709,-121.87647 15.7687,-35.9507 25.2938,-82.7766 27.7196,-123.4932 0.4387,-18.317 2.1053,-39.7931 0.8242,-59.6924 -1.8741,-29.108 -6.9001,-67.6835 -11.9859,-111.2948 -9.6558,-82.80029 -22.0079,-162.12639 -26.9632,-249.6919 -0.4511,-7.97259 -0.1068,-12.79208 4.6514,-18.95699 7.2663,-9.41433 17.1423,-16.97709 23.5058,-23.94396 13.6455,-14.93933 2.1244,-23.33867 -6.7395,-31.9066 -12.966,-12.53311 -23.5175,-31.67448 -28.6851,-45.97891 -3.728,-13.02465 -24.8765,-8.56709 -35.3129,5.32276 z"
     id="path2782-0"
     sodipodi:nodetypes="csscsscssssccsssssscs" />
</svg>
