<?xml version="1.0" encoding="UTF-8" standalone="no"?>
<!-- Created with Inkscape (http://www.inkscape.org/) -->
<svg
   xmlns:dc="http://purl.org/dc/elements/1.1/"
   xmlns:cc="http://creativecommons.org/ns#"
   xmlns:rdf="http://www.w3.org/1999/02/22-rdf-syntax-ns#"
   xmlns:svg="http://www.w3.org/2000/svg"
   xmlns="http://www.w3.org/2000/svg"
   xmlns:sodipodi="http://sodipodi.sourceforge.net/DTD/sodipodi-0.dtd"
   xmlns:inkscape="http://www.inkscape.org/namespaces/inkscape"
   version="1.0"
   width="1000"
   height="1000"
   id="svg5496"
   sodipodi:version="0.32"
   inkscape:version="0.46"
   sodipodi:docname="lam.isol.svg"
   inkscape:output_extension="org.inkscape.output.svg.inkscape">
  <metadata
     id="metadata5594">
    <rdf:RDF>
      <cc:Work
         rdf:about="">
        <dc:format>image/svg+xml</dc:format>
        <dc:type
           rdf:resource="http://purl.org/dc/dcmitype/StillImage" />
      </cc:Work>
    </rdf:RDF>
  </metadata>
  <sodipodi:namedview
     inkscape:pageshadow="2"
     inkscape:pageopacity="0.0"
     guidetolerance="10.0"
     gridtolerance="10.0"
     objecttolerance="10.0"
     borderopacity="1.0"
     bordercolor="#666666"
     pagecolor="#ffffff"
     id="base"
     showgrid="false"
     showguides="true"
     inkscape:guide-bbox="true"
     inkscape:zoom="0.64205296"
     inkscape:cx="574.65521"
     inkscape:cy="167.36767"
     inkscape:window-x="0"
     inkscape:window-y="28"
     inkscape:current-layer="svg5496"
     inkscape:window-height="743">
    <sodipodi:guide
       orientation="horizontal"
       position="200"
       id="guide5596" />
  </sodipodi:namedview>
  <defs
     id="defs5498">
    <inkscape:perspective
       sodipodi:type="inkscape:persp3d"
       inkscape:vp_x="0 : 500 : 1"
       inkscape:vp_y="0 : 1000 : 0"
       inkscape:vp_z="1000 : 500 : 1"
       inkscape:persp3d-origin="500 : 333.33333 : 1"
       id="perspective2497" />
    <inkscape:perspective
       id="perspective2595"
       inkscape:persp3d-origin="372.04724 : 350.78739 : 1"
       inkscape:vp_z="744.09448 : 526.18109 : 1"
       inkscape:vp_y="0 : 1000 : 0"
       inkscape:vp_x="0 : 526.18109 : 1"
       sodipodi:type="inkscape:persp3d" />
  </defs>
  <g
     id="layer1" />
  <path
     style="fill:#000000;fill-rule:evenodd;stroke:#000000;stroke-width:1px;stroke-linecap:butt;stroke-linejoin:miter;stroke-opacity:1"
     d="M 405.2504,102.0531 C 398.4507,110.09918 394.94313,132.34422 390.92511,185.02203 C 396.57462,281.0634 410.0256,370.70272 425.54731,461.37089 C 435.0626,516.95333 458.21048,636.08235 465.81498,729.07489 C 424.99209,773.4702 364.27148,815.83944 248.30396,828.19384 C 190.92857,834.30623 145.39694,823.53719 115.13775,792.71966 C 100.46715,777.77835 81.74701,745.07378 78.14978,715.85903 C 73.49925,678.0899 85.21219,626.26056 102.73034,591.85542 C 108.31824,580.88093 116.25122,570.01771 121.42389,561.91831 C 124.62581,552.06822 114.40547,554.72761 111.05581,557.26872 C 81.11469,576.12555 48.05666,653.63539 38.02814,698.02752 C 27.79156,743.34067 30.3146,799.50674 45.75528,835.30884 C 57.56845,862.69988 69.9317,879.67924 90.06911,894.11618 C 133.70776,925.40167 195.15688,933.57138 233.75869,931.58444 C 328.23368,926.72155 455.73842,872.54861 482.01223,800 C 496.22662,763.40675 503.73708,716.21581 504.41658,675.4327 C 504.07014,657.11372 504.81535,635.58599 502.68299,615.75987 C 499.56384,586.75873 492.88998,548.43404 485.9408,505.08056 C 472.18718,419.27651 455.23835,313.77405 447.81592,221.86906 C 454.31023,208.4797 461.75619,200.44293 469.40238,191.31549 C 482.39543,175.80537 464.02115,164.82064 455.55759,147.92398 C 446.92838,130.6966 442.95614,121.99946 437.18062,107.92952 C 431.71766,91.983864 413.86863,91.855147 405.2504,102.0531 z"
     id="path2782"
     sodipodi:nodetypes="ccscssssccssssccsscszcs" />
</svg>
