<?xml version="1.0" encoding="UTF-8" standalone="no"?>
<!-- Created with Inkscape (http://www.inkscape.org/) -->

<svg
   xmlns:dc="http://purl.org/dc/elements/1.1/"
   xmlns:cc="http://creativecommons.org/ns#"
   xmlns:rdf="http://www.w3.org/1999/02/22-rdf-syntax-ns#"
   xmlns:svg="http://www.w3.org/2000/svg"
   xmlns="http://www.w3.org/2000/svg"
   xmlns:sodipodi="http://sodipodi.sourceforge.net/DTD/sodipodi-0.dtd"
   xmlns:inkscape="http://www.inkscape.org/namespaces/inkscape"
   version="1.0"
   width="1000"
   height="1000"
   id="svg5496"
   sodipodi:version="0.32"
   inkscape:version="0.47pre4 r22446"
   sodipodi:docname="lellah.svg"
   inkscape:output_extension="org.inkscape.output.svg.inkscape">
  <metadata
     id="metadata5594">
    <rdf:RDF>
      <cc:Work
         rdf:about="">
        <dc:format>image/svg+xml</dc:format>
        <dc:type
           rdf:resource="http://purl.org/dc/dcmitype/StillImage" />
      </cc:Work>
    </rdf:RDF>
  </metadata>
  <sodipodi:namedview
     inkscape:pageshadow="2"
     inkscape:pageopacity="0.0"
     guidetolerance="10.0"
     gridtolerance="10.0"
     objecttolerance="10.0"
     borderopacity="1.0"
     bordercolor="#666666"
     pagecolor="#ffffff"
     id="base"
     showgrid="false"
     showguides="true"
     inkscape:guide-bbox="true"
     inkscape:zoom="0.454"
     inkscape:cx="118.27119"
     inkscape:cy="420.55943"
     inkscape:window-x="0"
     inkscape:window-y="24"
     inkscape:current-layer="svg5496"
     inkscape:window-width="1280"
     inkscape:window-height="725"
     inkscape:window-maximized="1">
    <sodipodi:guide
       orientation="horizontal"
       position="200"
       id="guide5596" />
  </sodipodi:namedview>
  <defs
     id="defs5498">
    <inkscape:perspective
       sodipodi:type="inkscape:persp3d"
       inkscape:vp_x="0 : 500 : 1"
       inkscape:vp_y="0 : 1000 : 0"
       inkscape:vp_z="1000 : 500 : 1"
       inkscape:persp3d-origin="500 : 333.33333 : 1"
       id="perspective8" />
    <inkscape:perspective
       id="perspective2388"
       inkscape:persp3d-origin="372.04724 : 350.78739 : 1"
       inkscape:vp_z="744.09448 : 526.18109 : 1"
       inkscape:vp_y="0 : 1000 : 0"
       inkscape:vp_x="0 : 526.18109 : 1"
       sodipodi:type="inkscape:persp3d" />
    <inkscape:perspective
       id="perspective3714"
       inkscape:persp3d-origin="0.5 : 0.33333333 : 1"
       inkscape:vp_z="1 : 0.5 : 1"
       inkscape:vp_y="0 : 1000 : 0"
       inkscape:vp_x="0 : 0.5 : 1"
       sodipodi:type="inkscape:persp3d" />
    <inkscape:perspective
       id="perspective3736"
       inkscape:persp3d-origin="0.5 : 0.33333333 : 1"
       inkscape:vp_z="1 : 0.5 : 1"
       inkscape:vp_y="0 : 1000 : 0"
       inkscape:vp_x="0 : 0.5 : 1"
       sodipodi:type="inkscape:persp3d" />
  </defs>
  <g
     id="layer1"
     transform="translate(-76.069458,-267.30507)" />
  <path
     style="fill:#ff0000;fill-opacity:0.60784314;fill-rule:evenodd;stroke:#000000;stroke-width:1;stroke-linecap:butt;stroke-linejoin:miter;stroke-miterlimit:4;stroke-opacity:1;stroke-dasharray:none"
     d="m 541.6379,310.20087 c -2.219,-0.1122 -4.286,0.8749 -5.677,2.9388 -10.008,14.8425 -17.126,30.267 -21.625,38.975 -6.173,11.9473 -6.966,23.5168 -5.259,32.8316 9.359,51.1009 26.633,127.5326 40.534,185.9285 16.105,67.6535 21.035,97.7644 21.464,111.2608 -22.252,9.122 -73.275,5.3856 -105.281,-46.7904 -28.511,-46.4779 -51.218,-224.9831 -67.266,-319.0171 -1.64,-8.2172 -10.672,-12.1597 -14.992,-6.2711 l -29.785,46.1011 c -6.665,9.0851 -6.567,18.4144 -4.704,29.9783 8.896,55.2052 26.2,135.7025 36.493,193.8306 6.19,34.9519 12.65,59.9949 11.036,64.081 -11.783,50.3921 -100.905,60.9944 -129.623,40.4515 -45.229,-32.3537 -36.424,-179.6206 -41.703,-268.1747 -0.433,-6.4679 -7.41,-14.2606 -13.998,-3.875 -7.894,12.4384 -19.924,40.9674 -30.118,62.3034 -2.241,4.6919 -5.129,11.6434 -4.65,19.2113 l 1.13,49.3214 c -71.565,17.0693 -148.441003,72.3884 -174.2810036,153.9056 -4.939,15.5801 -3.927,27.1467 5.405,34.8316 22.8600006,18.8268 88.5769966,30.5663 135.9590036,18.207 13.292,-3.4672 35.474,-30.5429 50.036,-52.3613 7.621,33.8102 18.429,106.7708 107.013,100.663 50.7,-3.4957 77.771,-4.8011 117.745,-100.906 31.349,59.5541 64.936,102.4232 126.235,101.1991 60.067,-1.2143 74.089,-113.821 69.927,-170.0381 -3.129,-42.2667 -43.308,-206.8789 -63.351,-305.9638 -1.665,-8.2241 -6.426,-12.4084 -10.664,-12.6221 z m -361.287,280.657 c 1.519,18.2875 2.524,36.5561 5.419,54.8842 -7.526,8.2217 -25.581,13.6592 -37.552,14.1267 -23.719,0.9259 -58.106007,-0.5852 -70.477007,-9.8033 16.498,-29.7615 84.722007,-55.8075 102.610007,-59.2076 z"
     id="path2394"
     sodipodi:nodetypes="csscscsccccccscccccssscscssccccscc" />
</svg>
