<?xml version="1.0" encoding="UTF-8" standalone="no"?>
<!-- Created with Inkscape (http://www.inkscape.org/) -->

<svg
   xmlns:dc="http://purl.org/dc/elements/1.1/"
   xmlns:cc="http://creativecommons.org/ns#"
   xmlns:rdf="http://www.w3.org/1999/02/22-rdf-syntax-ns#"
   xmlns:svg="http://www.w3.org/2000/svg"
   xmlns="http://www.w3.org/2000/svg"
   xmlns:sodipodi="http://sodipodi.sourceforge.net/DTD/sodipodi-0.dtd"
   xmlns:inkscape="http://www.inkscape.org/namespaces/inkscape"
   version="1.0"
   width="1000"
   height="1000"
   id="svg5496"
   sodipodi:version="0.32"
   inkscape:version="0.47pre4 r22446"
   sodipodi:docname="New document 4"
   inkscape:output_extension="org.inkscape.output.svg.inkscape">
  <metadata
     id="metadata5594">
    <rdf:RDF>
      <cc:Work
         rdf:about="">
        <dc:format>image/svg+xml</dc:format>
        <dc:type
           rdf:resource="http://purl.org/dc/dcmitype/StillImage" />
        <dc:title></dc:title>
      </cc:Work>
    </rdf:RDF>
  </metadata>
  <sodipodi:namedview
     inkscape:window-height="618"
     inkscape:window-width="641"
     inkscape:pageshadow="2"
     inkscape:pageopacity="0.0"
     borderopacity="1.0"
     bordercolor="#666666"
     pagecolor="#ffffff"
     id="base"
     showgrid="false"
     showguides="true"
     inkscape:guide-bbox="true"
     inkscape:zoom="0.454"
     inkscape:cx="500"
     inkscape:cy="500"
     inkscape:window-x="0"
     inkscape:window-y="25"
     inkscape:current-layer="svg5496"
     inkscape:window-maximized="0">
    <sodipodi:guide
       orientation="horizontal"
       position="200"
       id="guide5596" />
  </sodipodi:namedview>
  <defs
     id="defs5498">
    <inkscape:perspective
       sodipodi:type="inkscape:persp3d"
       inkscape:vp_x="0 : 500 : 1"
       inkscape:vp_y="0 : 1000 : 0"
       inkscape:vp_z="1000 : 500 : 1"
       inkscape:persp3d-origin="500 : 333.33333 : 1"
       id="perspective2932" />
    <inkscape:perspective
       id="perspective2921"
       inkscape:persp3d-origin="0.5 : 0.33333333 : 1"
       inkscape:vp_z="1 : 0.5 : 1"
       inkscape:vp_y="0 : 1000 : 0"
       inkscape:vp_x="0 : 0.5 : 1"
       sodipodi:type="inkscape:persp3d" />
  </defs>
  <g
     id="layer1" />
  <path
     style="fill:#ff0000;fill-opacity:0.60784314;fill-rule:evenodd;stroke:#000000;stroke-width:1px;stroke-linecap:butt;stroke-linejoin:miter;stroke-miterlimit:4;stroke-opacity:1;stroke-dasharray:none"
     d="m 269.92451,709.3695 c -65.49,12.3492 -142.883,87.1238 -172.890002,114.5744 -10.852,9.9272 -15.353999,40.4357 -18.800999,50.8179 -3.144,9.4698 0.953,15.5587 6.874999,18.2812 12.874,5.9185 45.243002,24.138 50.309002,26.929 -57.330001,9.0961 -102.722001,29.3859 -124.841001,120.4531 0,0 -19.6470007,67.3364 -3.1110002,161.0622 10.5140002,52.7334 30.0500002,123.5327 37.5630002,181.625 7.725,59.7314 9.304,101.8953 9.406,123.4764 0.235,49.8034 40.759999,41.7796 41.919999,1.6653 1.484,-51.3035 -3.387,-79.1279 -6.982,-124.6105 -8.022999,-101.5109 -60.534999,-303.7466 -56.358999,-325.9849 5.226,-37.5115 74.137001,-48.0941 125.512001,-49.7854 32.254,-1.0618 87.414,-2.007 125.004,20.745 14.084,4.2785 23.263,-13.9665 26.344,-21.3122 3.08,-7.3457 17.524,-33.8881 26.054,-60.0228 5.871,-17.9827 2.631,-26.5026 -9.625,-35.8125 -30.383,-23.0788 -90.756,-57.6852 -138.498,-82.4008 0,0 22.084,-22.3809 81.8,-29.0699 -0.235,-37.6113 0.239,-40.1851 0.32,-90.6305 z"
     id="path2566-3"
     sodipodi:nodetypes="cssscccsssccscscsccc" />
</svg>
