<?xml version="1.0" encoding="UTF-8" standalone="no"?>
<!-- Created with Inkscape (http://www.inkscape.org/) -->

<svg
   xmlns:dc="http://purl.org/dc/elements/1.1/"
   xmlns:cc="http://creativecommons.org/ns#"
   xmlns:rdf="http://www.w3.org/1999/02/22-rdf-syntax-ns#"
   xmlns:svg="http://www.w3.org/2000/svg"
   xmlns="http://www.w3.org/2000/svg"
   xmlns:sodipodi="http://sodipodi.sourceforge.net/DTD/sodipodi-0.dtd"
   xmlns:inkscape="http://www.inkscape.org/namespaces/inkscape"
   version="1.0"
   width="1000"
   height="1000"
   id="svg5496"
   sodipodi:version="0.32"
   inkscape:version="0.47pre0 r21549"
   sodipodi:docname="meem+haa+meem.init.svg"
   inkscape:output_extension="org.inkscape.output.svg.inkscape">
  <metadata
     id="metadata5594">
    <rdf:RDF>
      <cc:Work
         rdf:about="">
        <dc:format>image/svg+xml</dc:format>
        <dc:type
           rdf:resource="http://purl.org/dc/dcmitype/StillImage" />
        <dc:title></dc:title>
      </cc:Work>
    </rdf:RDF>
  </metadata>
  <sodipodi:namedview
     inkscape:window-height="721"
     inkscape:pageshadow="2"
     inkscape:pageopacity="0.0"
     borderopacity="1.0"
     bordercolor="#666666"
     pagecolor="#ffffff"
     id="base"
     showgrid="false"
     showguides="true"
     inkscape:guide-bbox="true"
     inkscape:zoom="0.64205296"
     inkscape:cx="330.87369"
     inkscape:cy="504.1296"
     inkscape:window-x="0"
     inkscape:window-y="28"
     inkscape:current-layer="svg5496"
     inkscape:window-width="1280"
     inkscape:window-maximized="1">
    <sodipodi:guide
       orientation="horizontal"
       position="200"
       id="guide5596" />
  </sodipodi:namedview>
  <defs
     id="defs5498">
    <inkscape:perspective
       sodipodi:type="inkscape:persp3d"
       inkscape:vp_x="0 : 500 : 1"
       inkscape:vp_y="0 : 1000 : 0"
       inkscape:vp_z="1000 : 500 : 1"
       inkscape:persp3d-origin="500 : 333.33333 : 1"
       id="perspective8" />
    <inkscape:perspective
       id="perspective2822"
       inkscape:persp3d-origin="0.5 : 0.33333333 : 1"
       inkscape:vp_z="1 : 0.5 : 1"
       inkscape:vp_y="0 : 1000 : 0"
       inkscape:vp_x="0 : 0.5 : 1"
       sodipodi:type="inkscape:persp3d" />
  </defs>
  <g
     id="layer1"
     transform="translate(-107.46777,116.1733)"
     style="fill:#000000;fill-opacity:1;stroke:#000000;stroke-opacity:1" />
  <path
     style="color:#000000;fill:#000000;stroke:#000000;stroke-width:1px;stroke-linecap:butt;stroke-linejoin:miter;stroke-miterlimit:4;stroke-opacity:1;stroke-dasharray:none;stroke-dashoffset:0;marker:none;visibility:visible;display:inline;overflow:visible;enable-background:accumulate;fill-opacity:1"
     d="M 509.46875 144.21875 C 505.07883 144.30435 501.54324 145.34451 497.53125 149.09375 C 463.52718 180.87088 451.876 218.12863 442.59375 237.65625 C 440.94336 241.12829 441.56245 243.53903 445.46875 245.6875 L 470.625 259.53125 C 472.37986 260.49643 471.85477 261.5316 470.40625 261.90625 C 403.65081 279.17188 289.52939 310.53826 178.125 386.28125 C 175.22914 388.25013 174.42579 389.29972 173.53125 393 L 160.46875 447.03125 C 159.47483 451.14265 159.51346 452.97408 164.71875 453.5625 C 234.48008 461.44853 308.16082 469.5428 376.90625 497.84375 C 303.70356 515.90891 203.20626 530.44952 162.75 549.25 C 123.41127 567.53116 95.1703 646.51083 83.3125 673.0625 C 76.6428 687.99712 25.71272 695.01611 0 701.875 L -1.5625 800 C 32.80478 797.27741 64.78393 761.15208 95 700.3125 C 149.32543 727.21877 234.74452 770.63905 277.25 763.40625 C 284.43051 762.18441 316.25486 712.03819 322.40625 683.1875 C 328.85212 652.95566 293.87921 597.23267 269.0625 577.28125 C 388.51128 549.5459 522.57116 534.47653 685.3125 550.8125 L 728.125 468.25 C 584.41434 469.66531 417.4637 416.0598 261.28125 385.90625 C 336.90286 330.48273 489.94614 327.84516 575.71875 327.4375 C 606.43043 327.29154 629.62816 268.91208 637.90625 244.9375 C 640.2044 238.28171 640.72297 231.04697 637.4375 224.75 C 611.65579 175.33649 567.40104 148.18585 514.1875 144.375 C 512.48319 144.25295 510.93206 144.19022 509.46875 144.21875 z M 173.28125 608.9375 C 185.74755 608.81098 202.99167 613.28059 227.40625 627.125 C 262.54742 647.05197 280.43866 664.58775 287.75 686.3125 C 260.41538 686.80627 169.19963 654.2017 141.71875 624 C 147.01987 619.11348 155.06127 609.12241 173.28125 608.9375 z "
     id="path2828" />
</svg>
