<?xml version="1.0" encoding="UTF-8" standalone="no"?>
<!-- Created with Inkscape (http://www.inkscape.org/) -->

<svg
   xmlns:dc="http://purl.org/dc/elements/1.1/"
   xmlns:cc="http://creativecommons.org/ns#"
   xmlns:rdf="http://www.w3.org/1999/02/22-rdf-syntax-ns#"
   xmlns:svg="http://www.w3.org/2000/svg"
   xmlns="http://www.w3.org/2000/svg"
   xmlns:sodipodi="http://sodipodi.sourceforge.net/DTD/sodipodi-0.dtd"
   xmlns:inkscape="http://www.inkscape.org/namespaces/inkscape"
   version="1.0"
   width="1000"
   height="1000"
   id="svg5496"
   sodipodi:version="0.32"
   inkscape:version="0.47pre4 r22446"
   sodipodi:docname="meem+alef.fina.svg"
   inkscape:output_extension="org.inkscape.output.svg.inkscape">
  <metadata
     id="metadata5594">
    <rdf:RDF>
      <cc:Work
         rdf:about="">
        <dc:format>image/svg+xml</dc:format>
        <dc:type
           rdf:resource="http://purl.org/dc/dcmitype/StillImage" />
      </cc:Work>
    </rdf:RDF>
  </metadata>
  <sodipodi:namedview
     inkscape:window-height="618"
     inkscape:window-width="641"
     inkscape:pageshadow="2"
     inkscape:pageopacity="0.0"
     guidetolerance="10.0"
     gridtolerance="10.0"
     objecttolerance="10.0"
     borderopacity="1.0"
     bordercolor="#666666"
     pagecolor="#ffffff"
     id="base"
     showgrid="false"
     showguides="true"
     inkscape:guide-bbox="true"
     inkscape:zoom="0.27083678"
     inkscape:cx="271.59467"
     inkscape:cy="50.836301"
     inkscape:window-x="66"
     inkscape:window-y="125"
     inkscape:current-layer="svg5496"
     inkscape:window-maximized="0">
    <sodipodi:guide
       orientation="horizontal"
       position="200"
       id="guide5596" />
  </sodipodi:namedview>
  <defs
     id="defs5498">
    <inkscape:perspective
       sodipodi:type="inkscape:persp3d"
       inkscape:vp_x="0 : 500 : 1"
       inkscape:vp_y="0 : 1000 : 0"
       inkscape:vp_z="1000 : 500 : 1"
       inkscape:persp3d-origin="500 : 333.33333 : 1"
       id="perspective2402" />
    <inkscape:perspective
       sodipodi:type="inkscape:persp3d"
       inkscape:vp_x="0 : 526.18109 : 1"
       inkscape:vp_y="0 : 1000 : 0"
       inkscape:vp_z="744.09448 : 526.18109 : 1"
       inkscape:persp3d-origin="372.04724 : 350.78739 : 1"
       id="perspective2489" />
    <inkscape:perspective
       id="perspective2389"
       inkscape:persp3d-origin="500 : 333.33333 : 1"
       inkscape:vp_z="1000 : 500 : 1"
       inkscape:vp_y="0 : 1000 : 0"
       inkscape:vp_x="0 : 500 : 1"
       sodipodi:type="inkscape:persp3d" />
    <inkscape:perspective
       id="perspective5334"
       inkscape:persp3d-origin="0.5 : 0.33333333 : 1"
       inkscape:vp_z="1 : 0.5 : 1"
       inkscape:vp_y="0 : 1000 : 0"
       inkscape:vp_x="0 : 0.5 : 1"
       sodipodi:type="inkscape:persp3d" />
  </defs>
  <path
     style="fill:#ff0000;fill-opacity:0.60784314;fill-rule:evenodd;stroke:#000000;stroke-width:0;stroke-linecap:butt;stroke-linejoin:miter;stroke-miterlimit:4;stroke-opacity:1;stroke-dasharray:none"
     d="m 261.28618,760 c -38.04161,3.79195 -61.0304,16.40605 -70.2021,50.40275 -0.7462,2.7658 0.6795,5.4642 2.4535,7.4631 27.2529,30.7073 74.1399,51.5188 114.5847,62.9554 13.4041,3.7902 15.6564,10.6456 14.502,18.6427 l -12.1963,84.49215 C 193.07901,959.46052 156.01268,880.20365 161.96438,798.06195 c 3.69196,-50.95413 38.64707,-122.96945 99.5031,-128.06575 15.05336,-1.26062 25.56334,22.31329 25.87992,53.55791 0.31658,31.24462 -16.86236,35.52896 -26.06122,36.44589 z"
     id="path2845"
     sodipodi:nodetypes="csssscsszs" />
  <g
     id="layer1"
     transform="translate(-209.2511,244.151)" />
  <path
     sodipodi:nodetypes="cssscssssssc"
     id="path2843"
     d="m 312.73564,965.95633 c -0.82607,8.39504 -1.27589,14.21791 -2.29528,18.74408 -2.91663,12.95015 -15.56904,10.10319 -24.09968,7.95039 C 242.58741,981.60916 127.98708,924.01255 93.53448,842.70515 65.436685,776.39475 67.762285,665.528 58.976185,567.0842 44.153685,430.7342 39.246985,276.2534 2.764789,123.01013 c -1.4288,-6.0022 -1.8598,-13.79337 0.058,-17.66127 9.9021,-19.97411 16.4869,-30.24207 27.683396,-48.76875 4.8463,-8.0192 9.3826,-4.14587 11.227,1.13004 27.4306,78.46767 39.4051,273.34695 52.604595,390.24775 14.8482,131.5034 6.41982,301.56539 63.2473,358.09005 54.61002,54.31902 60.62934,74.06962 155.15056,159.90838 z"
     style="fill:#ff0000;fill-opacity:0.60784314;fill-rule:evenodd;stroke:#000000;stroke-width:0;stroke-linecap:butt;stroke-linejoin:miter;stroke-miterlimit:4;stroke-opacity:1;stroke-dasharray:none" />
</svg>
