<?xml version="1.0" encoding="UTF-8" standalone="no"?>
<!-- Created with Inkscape (http://www.inkscape.org/) -->

<svg
   xmlns:dc="http://purl.org/dc/elements/1.1/"
   xmlns:cc="http://creativecommons.org/ns#"
   xmlns:rdf="http://www.w3.org/1999/02/22-rdf-syntax-ns#"
   xmlns:svg="http://www.w3.org/2000/svg"
   xmlns="http://www.w3.org/2000/svg"
   xmlns:sodipodi="http://sodipodi.sourceforge.net/DTD/sodipodi-0.dtd"
   xmlns:inkscape="http://www.inkscape.org/namespaces/inkscape"
   version="1.0"
   width="1000"
   height="1000"
   id="svg5496"
   sodipodi:version="0.32"
   inkscape:version="0.47pre4 r22446"
   sodipodi:docname="meem+haa+meem.init.svg"
   inkscape:output_extension="org.inkscape.output.svg.inkscape">
  <metadata
     id="metadata5594">
    <rdf:RDF>
      <cc:Work
         rdf:about="">
        <dc:format>image/svg+xml</dc:format>
        <dc:type
           rdf:resource="http://purl.org/dc/dcmitype/StillImage" />
        <dc:title />
      </cc:Work>
    </rdf:RDF>
  </metadata>
  <sodipodi:namedview
     inkscape:window-height="767"
     inkscape:pageshadow="2"
     inkscape:pageopacity="0.0"
     borderopacity="1.0"
     bordercolor="#666666"
     pagecolor="#ffffff"
     id="base"
     showgrid="false"
     showguides="true"
     inkscape:guide-bbox="true"
     inkscape:zoom="0.46283594"
     inkscape:cx="243.03674"
     inkscape:cy="449.69735"
     inkscape:window-x="0"
     inkscape:window-y="0"
     inkscape:current-layer="svg5496"
     inkscape:window-width="1278"
     inkscape:window-maximized="1">
    <sodipodi:guide
       orientation="horizontal"
       position="200"
       id="guide5596" />
  </sodipodi:namedview>
  <defs
     id="defs5498">
    <inkscape:perspective
       sodipodi:type="inkscape:persp3d"
       inkscape:vp_x="0 : 500 : 1"
       inkscape:vp_y="0 : 1000 : 0"
       inkscape:vp_z="1000 : 500 : 1"
       inkscape:persp3d-origin="500 : 333.33333 : 1"
       id="perspective8" />
    <inkscape:perspective
       id="perspective2822"
       inkscape:persp3d-origin="0.5 : 0.33333333 : 1"
       inkscape:vp_z="1 : 0.5 : 1"
       inkscape:vp_y="0 : 1000 : 0"
       inkscape:vp_x="0 : 0.5 : 1"
       sodipodi:type="inkscape:persp3d" />
    <inkscape:perspective
       id="perspective4038"
       inkscape:persp3d-origin="0.5 : 0.33333333 : 1"
       inkscape:vp_z="1 : 0.5 : 1"
       inkscape:vp_y="0 : 1000 : 0"
       inkscape:vp_x="0 : 0.5 : 1"
       sodipodi:type="inkscape:persp3d" />
  </defs>
  <path
     style="color:#000000;fill:#ff0000;fill-opacity:0.60784314;stroke:#000000;stroke-width:1;stroke-linecap:butt;stroke-linejoin:miter;stroke-miterlimit:4;stroke-opacity:1;stroke-dasharray:none;stroke-dashoffset:0;marker:none;visibility:visible;display:inline;overflow:visible;enable-background:accumulate"
     d="M 183.8573,552.34889 C 159.25083,564.04636 132.10815,584.14536 118.0323,605.486 99.133346,634.13903 88.6365,662.823 81.4344,678.95 75.0352,693.279 24.718807,709.261 -0.1305,709.556 -34.589748,709.96508 -22.166949,801.10623 0,800 c 41.513788,-2.07173 71.5483,-59.419 93.8751,-99.464 44.53745,32.82477 124.4749,59.991 178.3477,60.906 6.8894,-1.173 30.093,-46.144 35.9951,-73.825 6.1846,-29.006 -26.352,-82.26435 -48.5632,-100.566 -30.41502,-25.06146 -63.54613,-40.52615 -75.7974,-34.70211 z M 159.902,609.57 c 33.425,2.994 89.658,33.721 102.4978,65.861 -22.0377,4.138 -96.9891,-16.671 -124.9268,-43.555 1.4209,-8.878 4.9476,-22.129 22.429,-22.306 z"
     id="path2818"
     sodipodi:nodetypes="cssssccssscccc" />
  <g
     id="layer1"
     transform="translate(-107.46777,176.1733)"
     style="fill:#000000;fill-opacity:1;stroke:#000000;stroke-opacity:1" />
  <path
     sodipodi:nodetypes="ccsscssssssss"
     id="path2820"
     d="m 172.4035,403.793 c -2.32189,2.40508 -3.5493,2.897 -4.4076,6.447 l -10.1767,49.223 c -1.9277,9.323 2.4699,14.969 11.6702,14.383 38.6303,-2.46 138.1508,20.307 193.6373,36.988 -58.974,10.63 -128.43974,23.93767 -171.8333,38.604 -44.90347,15.17665 2.86174,52.45333 68.3613,37.613 111.60627,-25.28679 250.0833,-39.638 385.8609,-26.683 7.194,0.686 14.3675,-0.355 17.5426,-6.478 l 28.0898,-54.171 c 4.8536,-9.361 1.7272,-17.345 -6.3834,-17.341 -134.3575,0.07 -287.9825,-47.33963 -432.5758,-78.945 -44.61128,-9.75119 -70.0131,-9.76231 -79.7853,0.36 z"
     style="color:#000000;fill:#ff0000;fill-opacity:0.60784314;stroke:#000000;stroke-width:1;stroke-linecap:butt;stroke-linejoin:miter;stroke-miterlimit:4;stroke-opacity:1;stroke-dasharray:none;stroke-dashoffset:0;marker:none;visibility:visible;display:inline;overflow:visible;enable-background:accumulate" />
  <path
     style="color:#000000;fill:#ff0000;fill-opacity:0.60784314;stroke:#000000;stroke-width:1;stroke-linecap:butt;stroke-linejoin:miter;stroke-miterlimit:4;stroke-opacity:1;stroke-dasharray:none;stroke-dashoffset:0;marker:none;visibility:visible;display:inline;overflow:visible;enable-background:accumulate"
     d="m 478.8619,176.221 c -22.6093,17.456 -39.9411,47.497 -45.9035,70.049 -2.9199,11.044 -2.6114,19.459 5.3765,25.248 l 14.7115,10.663 c 1.6837,0.926 1.1798,1.92 -0.2099,2.279 -64.0494,16.566 -173.5447,46.661 -280.433,119.333 -2.7785,1.889 -3.5493,2.897 -4.4076,6.447 l -10.1767,49.223 c -1.9277,9.323 2.4699,14.969 11.6702,14.383 28.98411,-31.1386 46.78098,-49.40904 82.6994,-70.413 72.50911,-42.40103 219.3955,-55.707 301.6911,-56.097 29.4667,-0.14 48.8442,-59.819 56.7867,-82.821 2.205,-6.386 2.7025,-13.328 -0.4497,-19.37 -24.7367,-47.411 -63.9887,-68.686 -104.1162,-73.976 -10.9037,-1.437 -19.387,-1.01 -27.2388,5.052 z"
     id="path2822"
     sodipodi:nodetypes="cssccscscscscss" />
</svg>
