<?xml version="1.0" encoding="UTF-8" standalone="no"?>
<!-- Created with Inkscape (http://www.inkscape.org/) -->

<svg
   xmlns:dc="http://purl.org/dc/elements/1.1/"
   xmlns:cc="http://creativecommons.org/ns#"
   xmlns:rdf="http://www.w3.org/1999/02/22-rdf-syntax-ns#"
   xmlns:svg="http://www.w3.org/2000/svg"
   xmlns="http://www.w3.org/2000/svg"
   xmlns:sodipodi="http://sodipodi.sourceforge.net/DTD/sodipodi-0.dtd"
   xmlns:inkscape="http://www.inkscape.org/namespaces/inkscape"
   version="1.0"
   width="1000"
   height="1000"
   id="svg5496"
   sodipodi:version="0.32"
   inkscape:version="0.47pre4 r22446"
   sodipodi:docname="meem+yaa.isol.svg"
   inkscape:output_extension="org.inkscape.output.svg.inkscape">
  <metadata
     id="metadata5594">
    <rdf:RDF>
      <cc:Work
         rdf:about="">
        <dc:format>image/svg+xml</dc:format>
        <dc:type
           rdf:resource="http://purl.org/dc/dcmitype/StillImage" />
        <dc:title />
      </cc:Work>
    </rdf:RDF>
  </metadata>
  <sodipodi:namedview
     inkscape:window-height="725"
     inkscape:pageshadow="2"
     inkscape:pageopacity="0.0"
     borderopacity="1.0"
     bordercolor="#666666"
     pagecolor="#ffffff"
     id="base"
     showgrid="false"
     showguides="true"
     inkscape:guide-bbox="true"
     inkscape:zoom="0.64205296"
     inkscape:cx="598.85714"
     inkscape:cy="399.30833"
     inkscape:window-x="0"
     inkscape:window-y="24"
     inkscape:current-layer="svg5496"
     inkscape:window-width="1280"
     inkscape:window-maximized="1">
    <sodipodi:guide
       orientation="horizontal"
       position="200"
       id="guide5596" />
  </sodipodi:namedview>
  <defs
     id="defs5498">
    <inkscape:perspective
       sodipodi:type="inkscape:persp3d"
       inkscape:vp_x="0 : 500 : 1"
       inkscape:vp_y="0 : 1000 : 0"
       inkscape:vp_z="1000 : 500 : 1"
       inkscape:persp3d-origin="500 : 333.33333 : 1"
       id="perspective8" />
    <inkscape:perspective
       id="perspective2822"
       inkscape:persp3d-origin="0.5 : 0.33333333 : 1"
       inkscape:vp_z="1 : 0.5 : 1"
       inkscape:vp_y="0 : 1000 : 0"
       inkscape:vp_x="0 : 0.5 : 1"
       sodipodi:type="inkscape:persp3d" />
    <inkscape:perspective
       id="perspective5068"
       inkscape:persp3d-origin="0.5 : 0.33333333 : 1"
       inkscape:vp_z="1 : 0.5 : 1"
       inkscape:vp_y="0 : 1000 : 0"
       inkscape:vp_x="0 : 0.5 : 1"
       sodipodi:type="inkscape:persp3d" />
    <inkscape:perspective
       id="perspective5090"
       inkscape:persp3d-origin="0.5 : 0.33333333 : 1"
       inkscape:vp_z="1 : 0.5 : 1"
       inkscape:vp_y="0 : 1000 : 0"
       inkscape:vp_x="0 : 0.5 : 1"
       sodipodi:type="inkscape:persp3d" />
  </defs>
  <g
     id="layer1"
     transform="translate(87.22022,328.63333)"
     style="fill:#000000;fill-opacity:1;stroke:#000000;stroke-opacity:1" />
  <path
     style="color:#000000;fill:#ff0000;fill-opacity:0.60784314;stroke:#000000;stroke-width:1;stroke-linecap:butt;stroke-linejoin:miter;stroke-miterlimit:4;stroke-opacity:1;stroke-dasharray:none;stroke-dashoffset:0;marker:none;visibility:visible;display:inline;overflow:visible;enable-background:accumulate"
     d="m 518.10353,523.32417 c -8.051,-7.224 -18.081,-11.457 -26.743,-20.308 -6.854,-7.004 -7.79,-18.373 -4.443,-26.87301 13.569,-34.457 23.657,-60.039 46.234,-88.51 4.707,-5.937 17.621,-9.768 24.438,-8.62 67.823,11.417 128.355,67.377 135.492,95.154 1.638,6.37301 1.724,9.07601 1.462,15.24601 -0.918,21.638 -13.53,63.333 -30.522,74.171 -12.845,8.193 -38.633,11.034 -53.032,13.315 -53.736,6.861 -118.557,25.275 -165.842,64.983 -1.687,1.416 -6.261,5.094 -7.135,8.343 2.4,1.453 7.59,2.575 8.658,2.796 60.383,12.472 157.8,34.575 163.07,70.493 3.557,24.236 -17.866,99.039 -37.571,118.056 -56.944,54.956 -244.625,166.14493 -378.33201,155.96396 C 36.240522,985.53613 -9.2534741,880.05917 1.4825259,767.35417 c 6.631,-69.606 37.2689961,-117.006 66.9519961,-160.267 9.394,-13.69 28.472,-3.431 18.067,11.831 -27.144,39.814 -59.966,103.028 -51.757,153.269 21.709,132.842 178.070998,131.872 277.918008,108.249 110.134,-26.058 191.884,-71.483 227.188,-109.303 5.774,-6.183 5.873,-9.188 -0.876,-13.616 -39.954,-26.213 -138.823,-40.295 -198.155,-46.718 -6.736,-0.729 -6.146,-2.845 -6.275,-9.101 -0.476,-23.132 25.399,-72.105 35.853,-81.691 40.223,-36.881 66.313,-58.837 147.706,-96.683 z"
     id="path2828-9-2"
     sodipodi:nodetypes="cssssssscscssssssssssssssc" />
</svg>
