<?xml version="1.0" encoding="UTF-8" standalone="no"?>
<!-- Created with Inkscape (http://www.inkscape.org/) -->

<svg
   xmlns:dc="http://purl.org/dc/elements/1.1/"
   xmlns:cc="http://creativecommons.org/ns#"
   xmlns:rdf="http://www.w3.org/1999/02/22-rdf-syntax-ns#"
   xmlns:svg="http://www.w3.org/2000/svg"
   xmlns="http://www.w3.org/2000/svg"
   xmlns:sodipodi="http://sodipodi.sourceforge.net/DTD/sodipodi-0.dtd"
   xmlns:inkscape="http://www.inkscape.org/namespaces/inkscape"
   version="1.0"
   width="1000"
   height="1000"
   id="svg5496"
   sodipodi:version="0.32"
   inkscape:version="0.47pre4 r22446"
   sodipodi:docname="meem+meem.init.svg"
   inkscape:output_extension="org.inkscape.output.svg.inkscape">
  <metadata
     id="metadata5594">
    <rdf:RDF>
      <cc:Work
         rdf:about="">
        <dc:format>image/svg+xml</dc:format>
        <dc:type
           rdf:resource="http://purl.org/dc/dcmitype/StillImage" />
      </cc:Work>
    </rdf:RDF>
  </metadata>
  <sodipodi:namedview
     inkscape:pageshadow="2"
     inkscape:pageopacity="0.0"
     guidetolerance="10.0"
     gridtolerance="10.0"
     objecttolerance="10.0"
     borderopacity="1.0"
     bordercolor="#666666"
     pagecolor="#ffffff"
     id="base"
     showgrid="false"
     showguides="true"
     inkscape:guide-bbox="true"
     inkscape:zoom="0.77325379"
     inkscape:cx="164.54017"
     inkscape:cy="363.96502"
     inkscape:window-x="0"
     inkscape:window-y="0"
     inkscape:current-layer="svg5496"
     inkscape:window-width="1278"
     inkscape:window-height="767"
     inkscape:window-maximized="1">
    <sodipodi:guide
       orientation="horizontal"
       position="200"
       id="guide5596" />
  </sodipodi:namedview>
  <defs
     id="defs5498">
    <inkscape:perspective
       sodipodi:type="inkscape:persp3d"
       inkscape:vp_x="0 : 500 : 1"
       inkscape:vp_y="0 : 1000 : 0"
       inkscape:vp_z="1000 : 500 : 1"
       inkscape:persp3d-origin="500 : 333.33333 : 1"
       id="perspective8" />
    <inkscape:perspective
       id="perspective2388"
       inkscape:persp3d-origin="372.04724 : 350.78739 : 1"
       inkscape:vp_z="744.09448 : 526.18109 : 1"
       inkscape:vp_y="0 : 1000 : 0"
       inkscape:vp_x="0 : 526.18109 : 1"
       sodipodi:type="inkscape:persp3d" />
    <inkscape:perspective
       id="perspective7058"
       inkscape:persp3d-origin="0.5 : 0.33333333 : 1"
       inkscape:vp_z="1 : 0.5 : 1"
       inkscape:vp_y="0 : 1000 : 0"
       inkscape:vp_x="0 : 0.5 : 1"
       sodipodi:type="inkscape:persp3d" />
    <inkscape:perspective
       id="perspective2824"
       inkscape:persp3d-origin="0.5 : 0.33333333 : 1"
       inkscape:vp_z="1 : 0.5 : 1"
       inkscape:vp_y="0 : 1000 : 0"
       inkscape:vp_x="0 : 0.5 : 1"
       sodipodi:type="inkscape:persp3d" />
    <inkscape:perspective
       id="perspective3631"
       inkscape:persp3d-origin="0.5 : 0.33333333 : 1"
       inkscape:vp_z="1 : 0.5 : 1"
       inkscape:vp_y="0 : 1000 : 0"
       inkscape:vp_x="0 : 0.5 : 1"
       sodipodi:type="inkscape:persp3d" />
  </defs>
  <path
     style="fill:#ff0000;fill-opacity:0.60784314;fill-rule:evenodd;stroke:#000000;stroke-width:0;stroke-linecap:butt;stroke-linejoin:miter;stroke-miterlimit:4;stroke-opacity:1;stroke-dasharray:none"
     d="m 208.279,390.89262 -15.204,-16.61001 c -7.03,-7.68038 -5.603,-16.02082 -3.866,-23.38641 3.324,-14.09198 12.007,-54.95708 28.21,-76.37353 4.591,-6.06878 17.522,-12.43471 27.403,-13.7642 59.265,-3.05165 111.758,30.83511 140.484,83.56079 5.764,11.9634 3.951,21.73838 -0.524,36.04141 -7.678,24.54935 -13.334,39.99315 -19.328,56.49577 -8.39,23.09656 -37.746,24.26536 -48.232,24.48216 -61.039,1.2621 -137.852,9.7987 -178.554,59.4748 -3.753,6.4836 -2.702,9.8364 -1.08,16.5102 12.084,49.7163 38.09657,87.52493 65.898,101.6279 22.63963,11.48452 17.04372,49.86042 -9.42646,60.55437 -26.47018,10.69395 -73.8391,-6.32776 -82.73854,-38.53727 -9.49506,-34.36522 -23.131,-92.0441 8.788,-161.3491 15.069,-32.7188 46.173,-77.34615 89.918,-98.83083 4.814,-2.36408 0.679,-7.24418 -1.748,-9.89605 z"
     id="path3651"
     sodipodi:nodetypes="csssccssscsszssss" />
  <g
     id="layer1"
     transform="translate(-438.32599,104.74351)" />
  <path
     sodipodi:nodetypes="csssssszsss"
     id="path3649"
     d="m 203.486,638.9515 c 44.1827,20.40579 71.584,31.671 97.167,58.6975 2.321,2.4522 2.78,6.229 2.616,9.8114 -1.349,29.5434 -5.201,71.0337 -8.772,91.3608 -0.941,5.3493 -5.753,7.3956 -14.326,4.3328 C 203.03,775.5908 201.182,738.3845 160.133,736.9989 105.092,735.1411 69.336107,784.60821 0,800 -12.593935,802.7957 -20.887431,772.78506 -26.361145,745.79535 -31.834858,718.80563 -16.52345,712.82593 -0.116,709.4462 29.624619,703.32 69.548365,676.0063 111.321,660.9686 c 15.69605,-5.65041 73.07025,-30.83601 92.165,-22.0171 z"
     style="fill:#ff0000;fill-opacity:0.60784314;fill-rule:evenodd;stroke:#000000;stroke-width:0;stroke-linecap:butt;stroke-linejoin:miter;stroke-miterlimit:4;stroke-opacity:1;stroke-dasharray:none" />
</svg>
