<?xml version="1.0" encoding="UTF-8" standalone="no"?>
<!-- Created with Inkscape (http://www.inkscape.org/) -->

<svg
   xmlns:dc="http://purl.org/dc/elements/1.1/"
   xmlns:cc="http://creativecommons.org/ns#"
   xmlns:rdf="http://www.w3.org/1999/02/22-rdf-syntax-ns#"
   xmlns:svg="http://www.w3.org/2000/svg"
   xmlns="http://www.w3.org/2000/svg"
   xmlns:sodipodi="http://sodipodi.sourceforge.net/DTD/sodipodi-0.dtd"
   xmlns:inkscape="http://www.inkscape.org/namespaces/inkscape"
   version="1.0"
   width="1000"
   height="1000"
   id="svg5496"
   sodipodi:version="0.32"
   inkscape:version="0.47pre0 r21549"
   sodipodi:docname="meem+yaa.isol.svg"
   inkscape:output_extension="org.inkscape.output.svg.inkscape">
  <metadata
     id="metadata5594">
    <rdf:RDF>
      <cc:Work
         rdf:about="">
        <dc:format>image/svg+xml</dc:format>
        <dc:type
           rdf:resource="http://purl.org/dc/dcmitype/StillImage" />
        <dc:title></dc:title>
      </cc:Work>
    </rdf:RDF>
  </metadata>
  <sodipodi:namedview
     inkscape:window-height="721"
     inkscape:pageshadow="2"
     inkscape:pageopacity="0.0"
     borderopacity="1.0"
     bordercolor="#666666"
     pagecolor="#ffffff"
     id="base"
     showgrid="false"
     showguides="true"
     inkscape:guide-bbox="true"
     inkscape:zoom="0.64205296"
     inkscape:cx="598.85714"
     inkscape:cy="399.30833"
     inkscape:window-x="0"
     inkscape:window-y="28"
     inkscape:current-layer="svg5496"
     inkscape:window-width="1280"
     inkscape:window-maximized="1">
    <sodipodi:guide
       orientation="horizontal"
       position="200"
       id="guide5596" />
  </sodipodi:namedview>
  <defs
     id="defs5498">
    <inkscape:perspective
       sodipodi:type="inkscape:persp3d"
       inkscape:vp_x="0 : 500 : 1"
       inkscape:vp_y="0 : 1000 : 0"
       inkscape:vp_z="1000 : 500 : 1"
       inkscape:persp3d-origin="500 : 333.33333 : 1"
       id="perspective8" />
    <inkscape:perspective
       id="perspective2822"
       inkscape:persp3d-origin="0.5 : 0.33333333 : 1"
       inkscape:vp_z="1 : 0.5 : 1"
       inkscape:vp_y="0 : 1000 : 0"
       inkscape:vp_x="0 : 0.5 : 1"
       sodipodi:type="inkscape:persp3d" />
  </defs>
  <g
     id="layer1"
     transform="translate(87.22022,328.63333)"
     style="fill:#000000;fill-opacity:1;stroke:#000000;stroke-opacity:1" />
  <path
     style="color:#000000;fill:#000000;stroke:#000000;stroke-width:1px;stroke-linecap:butt;stroke-linejoin:miter;stroke-miterlimit:4;stroke-opacity:1;stroke-dasharray:none;stroke-dashoffset:0;marker:none;visibility:visible;display:inline;overflow:visible;enable-background:accumulate;fill-opacity:1"
     d="m 547.63945,500.76207 c -8.34223,-7.39636 -15.14369,-10.78347 -25.21128,-15.53366 -9.16474,-4.32421 -10.1,-8.31668 -6.85401,-17.10334 15.99079,-43.28593 35.17593,-69.5974 58.57195,-98.74986 4.87848,-6.0788 9.53161,-5.68909 16.59631,-4.51401 70.2851,11.69056 123.19414,65.75299 130.59098,94.1947 1.69724,6.52605 3.00243,9.46047 1.51398,15.61084 -6.40549,26.46787 -26.02489,67.00249 -43.63341,78.09937 -13.31182,8.3891 -28.03253,9.14144 -42.9532,11.47744 -55.68884,7.02463 -122.86247,25.87883 -171.86558,66.53554 -3.28041,2.72168 -1.8804,5.53144 0.48843,6.01486 62.57448,12.76992 164.6204,40.79242 170.08281,77.56916 3.68567,24.8145 -17.90552,102.05027 -38.93564,120.87815 -56.8295,50.8784 -253.50856,170.11494 -392.07048,159.69163 C 40.64103,982.64725 -6.5049673,874.64908 4.6211007,759.25007 11.492423,687.98107 43.24337,639.44763 74.004361,595.15316 c 9.734402,-14.01711 29.505729,-3.51238 18.722467,12.11453 -28.129485,40.76476 -62.143311,105.49014 -53.635307,156.93106 22.49647,136.01768 184.535789,135.0252 288.008799,110.83646 114.13301,-26.6807 210.85464,-74.26999 247.4421,-112.99373 5.98169,-6.33095 6.08559,-9.4076 -0.90878,-13.94135 -41.40521,-26.83888 -155.86726,-40.17977 -217.35395,-46.75573 -6.98003,-0.74651 -7.6775,-3.01792 -6.50373,-9.31914 4.90888,-26.35261 13.8669,-63.87494 24.70024,-73.68901 41.68451,-37.76258 88.81497,-78.82361 173.16325,-117.57418 z"
     id="path2828"
     sodipodi:nodetypes="cssssssscsssssssssssssssc" />
</svg>
