<?xml version="1.0" encoding="UTF-8" standalone="no"?>
<!-- Created with Inkscape (http://www.inkscape.org/) -->

<svg
   xmlns:dc="http://purl.org/dc/elements/1.1/"
   xmlns:cc="http://creativecommons.org/ns#"
   xmlns:rdf="http://www.w3.org/1999/02/22-rdf-syntax-ns#"
   xmlns:svg="http://www.w3.org/2000/svg"
   xmlns="http://www.w3.org/2000/svg"
   xmlns:sodipodi="http://sodipodi.sourceforge.net/DTD/sodipodi-0.dtd"
   xmlns:inkscape="http://www.inkscape.org/namespaces/inkscape"
   version="1.0"
   width="1000"
   height="1000"
   id="svg5496"
   sodipodi:version="0.32"
   inkscape:version="0.47pre4 r22446"
   sodipodi:docname="meem.fina.alt.svg"
   inkscape:output_extension="org.inkscape.output.svg.inkscape">
  <metadata
     id="metadata5594">
    <rdf:RDF>
      <cc:Work
         rdf:about="">
        <dc:format>image/svg+xml</dc:format>
        <dc:type
           rdf:resource="http://purl.org/dc/dcmitype/StillImage" />
        <dc:title />
      </cc:Work>
    </rdf:RDF>
  </metadata>
  <sodipodi:namedview
     inkscape:window-height="767"
     inkscape:window-width="1278"
     inkscape:pageshadow="2"
     inkscape:pageopacity="0.0"
     borderopacity="1.0"
     bordercolor="#666666"
     pagecolor="#ffffff"
     id="base"
     showgrid="false"
     showguides="true"
     inkscape:guide-bbox="true"
     inkscape:zoom="0.454"
     inkscape:cx="394.08973"
     inkscape:cy="167.231"
     inkscape:window-x="0"
     inkscape:window-y="0"
     inkscape:current-layer="svg5496"
     inkscape:window-maximized="1">
    <sodipodi:guide
       orientation="horizontal"
       position="200"
       id="guide5596" />
  </sodipodi:namedview>
  <defs
     id="defs5498">
    <inkscape:perspective
       sodipodi:type="inkscape:persp3d"
       inkscape:vp_x="0 : 500 : 1"
       inkscape:vp_y="0 : 1000 : 0"
       inkscape:vp_z="1000 : 500 : 1"
       inkscape:persp3d-origin="500 : 333.33333 : 1"
       id="perspective2932" />
    <inkscape:perspective
       id="perspective2921"
       inkscape:persp3d-origin="0.5 : 0.33333333 : 1"
       inkscape:vp_z="1 : 0.5 : 1"
       inkscape:vp_y="0 : 1000 : 0"
       inkscape:vp_x="0 : 0.5 : 1"
       sodipodi:type="inkscape:persp3d" />
    <inkscape:perspective
       id="perspective3654"
       inkscape:persp3d-origin="0.5 : 0.33333333 : 1"
       inkscape:vp_z="1 : 0.5 : 1"
       inkscape:vp_y="0 : 1000 : 0"
       inkscape:vp_x="0 : 0.5 : 1"
       sodipodi:type="inkscape:persp3d" />
  </defs>
  <path
     style="fill:#ff0000;fill-opacity:0.60784314;fill-rule:evenodd;stroke:#000000;stroke-width:1px;stroke-linecap:butt;stroke-linejoin:miter;stroke-miterlimit:4;stroke-opacity:1;stroke-dasharray:none"
     d="m 269.92451,709.3695 c -65.59465,11.74773 -142.883,87.1238 -172.890002,114.5744 -10.852,9.9272 -15.353999,40.4357 -18.800999,50.8179 -3.144,9.4698 0.953,15.5587 6.874999,18.2812 12.873999,5.9185 45.243002,24.138 50.309002,26.929 -57.330001,9.0961 -102.722001,29.3859 -124.841001,120.4531 0,0 -19.647001,67.3364 -3.1110002,161.0622 16.8727002,102.4341 60.0999002,217.9027 62.8809002,300.6961 1.6579,49.3573 30.206791,45.1867 32.008101,6.0706 2.20264,-47.8314 -4.118903,-93.4955 -14.083302,-138.9277 -18.009299,-82.1124 -60.534999,-272.9096 -55.257699,-311.6677 5.226,-37.5115 74.137001,-48.0941 125.512001,-49.7854 32.254,-1.0618 87.414,-2.007 125.004,20.745 14.084,4.2785 23.263,-13.9665 26.344,-21.3122 3.08,-7.3457 17.524,-33.8881 26.054,-60.0228 5.871,-17.9827 2.631,-26.5026 -9.625,-35.8125 -30.383,-23.0788 -90.756,-57.6852 -138.498,-82.4008 0,0 22.07175,-22.49513 81.8,-29.0699 15.18684,-1.67174 16.00408,-28.07113 17.67794,-52.99873 1.67386,-24.9276 -4.87079,-39.86817 -17.35794,-37.63177 z"
     id="path2566-3-8"
     sodipodi:nodetypes="cssscccssscscscscszs" />
  <g
     id="layer1" />
</svg>
