<?xml version="1.0" encoding="UTF-8" standalone="no"?>
<!-- Created with Inkscape (http://www.inkscape.org/) -->

<svg
   xmlns:dc="http://purl.org/dc/elements/1.1/"
   xmlns:cc="http://creativecommons.org/ns#"
   xmlns:rdf="http://www.w3.org/1999/02/22-rdf-syntax-ns#"
   xmlns:svg="http://www.w3.org/2000/svg"
   xmlns="http://www.w3.org/2000/svg"
   xmlns:sodipodi="http://sodipodi.sourceforge.net/DTD/sodipodi-0.dtd"
   xmlns:inkscape="http://www.inkscape.org/namespaces/inkscape"
   version="1.0"
   width="1000"
   height="1000"
   id="svg5496"
   sodipodi:version="0.32"
   inkscape:version="0.47pre4 r22446"
   sodipodi:docname="meem+haa+meem.init.svg"
   inkscape:output_extension="org.inkscape.output.svg.inkscape">
  <metadata
     id="metadata5594">
    <rdf:RDF>
      <cc:Work
         rdf:about="">
        <dc:format>image/svg+xml</dc:format>
        <dc:type
           rdf:resource="http://purl.org/dc/dcmitype/StillImage" />
        <dc:title />
      </cc:Work>
    </rdf:RDF>
  </metadata>
  <sodipodi:namedview
     inkscape:window-height="725"
     inkscape:pageshadow="2"
     inkscape:pageopacity="0.0"
     borderopacity="1.0"
     bordercolor="#666666"
     pagecolor="#ffffff"
     id="base"
     showgrid="false"
     showguides="true"
     inkscape:guide-bbox="true"
     inkscape:zoom="0.64205296"
     inkscape:cx="330.87369"
     inkscape:cy="504.1296"
     inkscape:window-x="0"
     inkscape:window-y="24"
     inkscape:current-layer="svg5496"
     inkscape:window-width="1280"
     inkscape:window-maximized="1">
    <sodipodi:guide
       orientation="horizontal"
       position="200"
       id="guide5596" />
  </sodipodi:namedview>
  <defs
     id="defs5498">
    <inkscape:perspective
       sodipodi:type="inkscape:persp3d"
       inkscape:vp_x="0 : 500 : 1"
       inkscape:vp_y="0 : 1000 : 0"
       inkscape:vp_z="1000 : 500 : 1"
       inkscape:persp3d-origin="500 : 333.33333 : 1"
       id="perspective8" />
    <inkscape:perspective
       id="perspective2822"
       inkscape:persp3d-origin="0.5 : 0.33333333 : 1"
       inkscape:vp_z="1 : 0.5 : 1"
       inkscape:vp_y="0 : 1000 : 0"
       inkscape:vp_x="0 : 0.5 : 1"
       sodipodi:type="inkscape:persp3d" />
    <inkscape:perspective
       id="perspective4038"
       inkscape:persp3d-origin="0.5 : 0.33333333 : 1"
       inkscape:vp_z="1 : 0.5 : 1"
       inkscape:vp_y="0 : 1000 : 0"
       inkscape:vp_x="0 : 0.5 : 1"
       sodipodi:type="inkscape:persp3d" />
  </defs>
  <g
     id="layer1"
     transform="translate(-107.46777,116.1733)"
     style="fill:#000000;fill-opacity:1;stroke:#000000;stroke-opacity:1" />
  <path
     style="color:#000000;fill:#ff0000;fill-opacity:0.60784314;stroke:#000000;stroke-width:1;stroke-linecap:butt;stroke-linejoin:miter;stroke-miterlimit:4;stroke-opacity:1;stroke-dasharray:none;stroke-dashoffset:0;marker:none;visibility:visible;display:inline;overflow:visible;enable-background:accumulate"
     d="m 478.8619,176.221 c -22.6093,17.456 -39.9411,47.497 -45.9035,70.049 -2.9199,11.044 -2.6114,19.459 5.3765,25.248 l 14.7115,10.663 c 1.6837,0.926 1.1798,1.92 -0.2099,2.279 -64.0494,16.566 -173.5447,46.661 -280.433,119.333 -2.7785,1.889 -3.5493,2.897 -4.4076,6.447 l -10.1767,49.223 c -1.9277,9.323 2.4699,14.969 11.6702,14.383 38.6303,-2.46 138.1508,20.307 193.6373,36.988 -58.974,10.63 -128.6155,23.418 -171.8333,38.604 -27.0507,9.505 -57.7815,32.579 -73.2611,56.048 -18.899,28.653 -29.3958,57.337 -36.5979,73.464 -6.3992,14.329 -56.7094,31.245 -81.5649,30.606 L 0,800 c 41.4899,-2.612 71.5483,-59.419 93.8751,-99.464 45.3162,25.816 124.4749,59.991 178.3477,60.906 6.8894,-1.173 30.093,-46.144 35.9951,-73.825 6.1846,-29.006 -24.7525,-81.423 -48.5632,-100.566 111.2829,-25.839 250.0833,-39.638 385.8609,-26.683 7.194,0.686 14.3675,-0.355 17.5426,-6.478 l 28.0898,-54.171 c 4.8536,-9.361 1.7272,-17.345 -6.3834,-17.341 -134.3575,0.07 -287.7269,-48.462 -432.5758,-78.945 72.0325,-43.227 219.3955,-55.707 301.6911,-56.097 29.4667,-0.14 48.8442,-59.819 56.7867,-82.821 2.205,-6.386 2.7025,-13.328 -0.4497,-19.37 -24.7367,-47.411 -63.9887,-68.686 -104.1162,-73.976 -10.9037,-1.437 -19.387,-1.01 -27.2388,5.052 z M 159.902,609.57 c 33.425,2.994 89.658,33.721 102.4978,65.861 -22.0377,4.138 -96.9891,-16.671 -124.9268,-43.555 1.4209,-8.878 4.9476,-22.129 22.429,-22.306 z"
     id="path2828-8"
     sodipodi:nodetypes="cssccscsscsssccccscssssccscsscccc" />
</svg>
