<?xml version="1.0" encoding="UTF-8" standalone="no"?>
<!-- Created with Inkscape (http://www.inkscape.org/) -->

<svg
   xmlns:dc="http://purl.org/dc/elements/1.1/"
   xmlns:cc="http://creativecommons.org/ns#"
   xmlns:rdf="http://www.w3.org/1999/02/22-rdf-syntax-ns#"
   xmlns:svg="http://www.w3.org/2000/svg"
   xmlns="http://www.w3.org/2000/svg"
   xmlns:sodipodi="http://sodipodi.sourceforge.net/DTD/sodipodi-0.dtd"
   xmlns:inkscape="http://www.inkscape.org/namespaces/inkscape"
   version="1.0"
   width="1000"
   height="1000"
   id="svg5496"
   sodipodi:version="0.32"
   inkscape:version="0.47pre4 r22446"
   sodipodi:docname="meem+haa.init.svg"
   inkscape:output_extension="org.inkscape.output.svg.inkscape">
  <metadata
     id="metadata5594">
    <rdf:RDF>
      <cc:Work
         rdf:about="">
        <dc:format>image/svg+xml</dc:format>
        <dc:type
           rdf:resource="http://purl.org/dc/dcmitype/StillImage" />
      </cc:Work>
    </rdf:RDF>
  </metadata>
  <sodipodi:namedview
     inkscape:pageshadow="2"
     inkscape:pageopacity="0.0"
     guidetolerance="10.0"
     gridtolerance="10.0"
     objecttolerance="10.0"
     borderopacity="1.0"
     bordercolor="#666666"
     pagecolor="#ffffff"
     id="base"
     showgrid="false"
     showguides="true"
     inkscape:guide-bbox="true"
     inkscape:zoom="1.0478387"
     inkscape:cx="230.80094"
     inkscape:cy="509.04507"
     inkscape:window-x="0"
     inkscape:window-y="0"
     inkscape:current-layer="svg5496"
     inkscape:window-width="1278"
     inkscape:window-height="767"
     inkscape:window-maximized="1">
    <sodipodi:guide
       orientation="horizontal"
       position="200"
       id="guide5596" />
  </sodipodi:namedview>
  <defs
     id="defs5498">
    <inkscape:perspective
       sodipodi:type="inkscape:persp3d"
       inkscape:vp_x="0 : 500 : 1"
       inkscape:vp_y="0 : 1000 : 0"
       inkscape:vp_z="1000 : 500 : 1"
       inkscape:persp3d-origin="500 : 333.33333 : 1"
       id="perspective8" />
    <inkscape:perspective
       id="perspective2388"
       inkscape:persp3d-origin="372.04724 : 350.78739 : 1"
       inkscape:vp_z="744.09448 : 526.18109 : 1"
       inkscape:vp_y="0 : 1000 : 0"
       inkscape:vp_x="0 : 526.18109 : 1"
       sodipodi:type="inkscape:persp3d" />
    <inkscape:perspective
       sodipodi:type="inkscape:persp3d"
       inkscape:vp_x="0 : 526.18109 : 1"
       inkscape:vp_y="0 : 1000 : 0"
       inkscape:vp_z="744.09448 : 526.18109 : 1"
       inkscape:persp3d-origin="372.04724 : 350.78739 : 1"
       id="perspective2574" />
    <inkscape:perspective
       sodipodi:type="inkscape:persp3d"
       inkscape:vp_x="0 : 526.18109 : 1"
       inkscape:vp_y="0 : 1000 : 0"
       inkscape:vp_z="744.09448 : 526.18109 : 1"
       inkscape:persp3d-origin="372.04724 : 350.78739 : 1"
       id="perspective2477" />
    <inkscape:perspective
       id="perspective2443"
       inkscape:persp3d-origin="500 : 333.33333 : 1"
       inkscape:vp_z="1000 : 500 : 1"
       inkscape:vp_y="0 : 1000 : 0"
       inkscape:vp_x="0 : 500 : 1"
       sodipodi:type="inkscape:persp3d" />
    <inkscape:perspective
       id="perspective5682"
       inkscape:persp3d-origin="0.5 : 0.33333333 : 1"
       inkscape:vp_z="1 : 0.5 : 1"
       inkscape:vp_y="0 : 1000 : 0"
       inkscape:vp_x="0 : 0.5 : 1"
       sodipodi:type="inkscape:persp3d" />
  </defs>
  <g
     id="g2833"
     transform="matrix(0.95059158,0,0,0.95059158,-0.76811025,41.129937)"
     style="fill:#ff0000;fill-opacity:0.60784314;stroke:#000000;stroke-opacity:1">
    <g
       transform="matrix(1.3,0,0,1.3,15.063458,-240)"
       id="g2835"
       style="fill:#ff0000;fill-opacity:0.60784314;stroke:#000000;stroke-opacity:1" />
    <path
       sodipodi:nodetypes="csssssssssssss"
       id="path2837"
       d="m 51.761387,508.83573 c -15.044696,16.68568 -31.312398,37.07242 -32.786316,67.43379 -0.101388,2.08849 1.263247,4.07177 3.66728,4.50883 85.729699,15.58577 148.875579,30.48181 225.321799,57.89374 5.7245,2.05268 6.70745,4.35658 0.1669,5.7153 C 176.3161,659.30607 101.22461,692.05733 0.29375373,703.32621 -33.261925,707.07269 -18.84599,802.75093 0.80803393,798.31347 74.789905,781.60995 162.93377,737.27271 260.53192,708.82295 347.56885,683.45179 430.30489,665.9863 528.06785,681.5508 c 7.78397,1.23925 14.30434,-3.94401 17.51556,-10.72965 l 27.7812,-58.70478 c 6.78006,-14.32703 -0.38929,-20.93465 -10.94042,-20.76436 -135.42238,2.18563 -286.92648,-31.39681 -428.69402,-74.52297 -25.41593,-7.73161 -71.781435,-19.29183 -81.968783,-7.99331 z"
       style="fill:#ff0000;fill-opacity:0.60784314;fill-rule:evenodd;stroke:#000000;stroke-width:1.05197644;stroke-linecap:butt;stroke-linejoin:miter;stroke-miterlimit:4;stroke-opacity:1;stroke-dasharray:none" />
  </g>
  <g
     id="g2827"
     transform="matrix(0.95059158,0,0,0.95059158,-0.76811025,41.129937)"
     style="fill:#ff0000;fill-opacity:0.60784314;stroke:#000000;stroke-opacity:1">
    <g
       transform="matrix(1.3,0,0,1.3,15.063458,-240)"
       id="g2829"
       style="fill:#ff0000;fill-opacity:0.60784314;stroke:#000000;stroke-opacity:1" />
    <path
       sodipodi:nodetypes="cssssssssssssc"
       id="path2831"
       d="m 325.82282,379.36801 c -41.25335,6.54418 -174.49227,50.54513 -250.849208,108.52283 -29.813505,22.63735 -55.214363,54.14806 -56.015442,88.86218 -0.06614,2.8662 3.654593,5.21134 6.810345,3.12024 41.935246,-27.78771 69.624997,-51.43105 107.641445,-73.77682 36.99002,-21.74244 138.45499,-57.8756 299.67277,-67.96563 6.92396,-0.43335 12.00742,-1.6681 17.04748,-6.06935 15.83864,-13.83115 38.94354,-60.63467 43.99708,-85.30116 2.18654,-10.67257 -0.35072,-17.14235 -6.04585,-25.7955 -16.03145,-24.35812 -65.50369,-68.98635 -108.86004,-80.42125 -7.87363,-2.07661 -21.43695,-0.72869 -28.07707,4.07923 -31.99892,23.16958 -47.66322,64.54928 -54.05589,90.70433 -1.33896,5.47829 -1.0997,16.27986 2.81591,20.26379 6.16651,6.2741 20.504,15.41799 25.91847,23.77711 z"
       style="fill:#ff0000;fill-opacity:0.60784314;fill-rule:evenodd;stroke:#000000;stroke-width:1.05197644;stroke-linecap:butt;stroke-linejoin:miter;stroke-miterlimit:4;stroke-opacity:1;stroke-dasharray:none" />
  </g>
  <g
     id="layer1"
     transform="translate(-199.3605,180.79736)" />
</svg>
