<?xml version="1.0" encoding="UTF-8" standalone="no"?>
<!-- Created with Inkscape (http://www.inkscape.org/) -->
<svg
   xmlns:dc="http://purl.org/dc/elements/1.1/"
   xmlns:cc="http://creativecommons.org/ns#"
   xmlns:rdf="http://www.w3.org/1999/02/22-rdf-syntax-ns#"
   xmlns:svg="http://www.w3.org/2000/svg"
   xmlns="http://www.w3.org/2000/svg"
   xmlns:sodipodi="http://sodipodi.sourceforge.net/DTD/sodipodi-0.dtd"
   xmlns:inkscape="http://www.inkscape.org/namespaces/inkscape"
   version="1.0"
   width="1000"
   height="1000"
   id="svg5496"
   sodipodi:version="0.32"
   inkscape:version="0.46"
   sodipodi:docname="meem+alef.fina.svg"
   inkscape:output_extension="org.inkscape.output.svg.inkscape">
  <metadata
     id="metadata5594">
    <rdf:RDF>
      <cc:Work
         rdf:about="">
        <dc:format>image/svg+xml</dc:format>
        <dc:type
           rdf:resource="http://purl.org/dc/dcmitype/StillImage" />
      </cc:Work>
    </rdf:RDF>
  </metadata>
  <sodipodi:namedview
     inkscape:window-height="618"
     inkscape:window-width="641"
     inkscape:pageshadow="2"
     inkscape:pageopacity="0.0"
     guidetolerance="10.0"
     gridtolerance="10.0"
     objecttolerance="10.0"
     borderopacity="1.0"
     bordercolor="#666666"
     pagecolor="#ffffff"
     id="base"
     showgrid="false"
     showguides="true"
     inkscape:guide-bbox="true"
     inkscape:zoom="0.908"
     inkscape:cx="-7.0566963"
     inkscape:cy="464.54487"
     inkscape:window-x="0"
     inkscape:window-y="25"
     inkscape:current-layer="svg5496">
    <sodipodi:guide
       orientation="horizontal"
       position="200"
       id="guide5596" />
  </sodipodi:namedview>
  <defs
     id="defs5498">
    <inkscape:perspective
       sodipodi:type="inkscape:persp3d"
       inkscape:vp_x="0 : 500 : 1"
       inkscape:vp_y="0 : 1000 : 0"
       inkscape:vp_z="1000 : 500 : 1"
       inkscape:persp3d-origin="500 : 333.33333 : 1"
       id="perspective2402" />
    <inkscape:perspective
       sodipodi:type="inkscape:persp3d"
       inkscape:vp_x="0 : 526.18109 : 1"
       inkscape:vp_y="0 : 1000 : 0"
       inkscape:vp_z="744.09448 : 526.18109 : 1"
       inkscape:persp3d-origin="372.04724 : 350.78739 : 1"
       id="perspective2489" />
    <inkscape:perspective
       id="perspective2389"
       inkscape:persp3d-origin="500 : 333.33333 : 1"
       inkscape:vp_z="1000 : 500 : 1"
       inkscape:vp_y="0 : 1000 : 0"
       inkscape:vp_x="0 : 500 : 1"
       sodipodi:type="inkscape:persp3d" />
  </defs>
  <g
     id="layer1"
     transform="translate(-209.2511,244.151)" />
  <path
     style="fill:#000000;fill-rule:evenodd;stroke:#000000;stroke-width:1px;stroke-linecap:butt;stroke-linejoin:miter;stroke-opacity:1;fill-opacity:1"
     d="M 306.56168,800 C 271.00073,805.11386 248.53057,821.28379 230.15561,851.98676 C 228.57252,854.63197 231.07605,857.84026 233.05344,859.92865 C 263.43068,892.01109 314.58262,912.76872 358.48018,923.66655 C 373.02857,927.27828 375.68889,934.57348 374.72467,943.215 L 364.53745,1034.5146 C 362.92721,1048.9458 347.54261,1046.7266 338.93172,1044.7018 C 289.29323,1033.0296 165.42682,982.38962 125.55066,896.13351 C 93.029543,825.78709 92.490153,700.44251 79.625323,594.86468 C 58.953303,448.72592 51.162213,304.18418 6.6079291,140.6269 C 4.8628391,134.22073 4.1290183,125.85578 6.0572715,121.6291 C 16.014913,99.802204 22.74116,88.529976 34.140971,68.214998 C 39.075337,59.421735 44.088793,63.430397 46.255513,69.040997 C 78.480713,152.48642 95.274793,340.23414 113.52661,465.5104 C 134.05835,606.4355 133.46456,804.41226 193.07498,842.48972 C 196.07329,844.40496 198.21671,843.34732 198.40721,839.72356 C 201.2935,784.82012 239.20665,727.64487 298.05746,708.36368 C 302.40156,750.22597 303.98691,776.1732 306.56168,800 z"
     id="path2405"
     sodipodi:nodetypes="cssssssscssssssscc" />
</svg>
