<?xml version="1.0" encoding="UTF-8" standalone="no"?>
<!-- Created with Inkscape (http://www.inkscape.org/) -->

<svg
   xmlns:dc="http://purl.org/dc/elements/1.1/"
   xmlns:cc="http://creativecommons.org/ns#"
   xmlns:rdf="http://www.w3.org/1999/02/22-rdf-syntax-ns#"
   xmlns:svg="http://www.w3.org/2000/svg"
   xmlns="http://www.w3.org/2000/svg"
   xmlns:sodipodi="http://sodipodi.sourceforge.net/DTD/sodipodi-0.dtd"
   xmlns:inkscape="http://www.inkscape.org/namespaces/inkscape"
   version="1.0"
   width="1000"
   height="1000"
   id="svg5496"
   sodipodi:version="0.32"
   inkscape:version="0.47pre4 r22446"
   sodipodi:docname="noon.isol.alt.svg"
   inkscape:output_extension="org.inkscape.output.svg.inkscape">
  <metadata
     id="metadata5594">
    <rdf:RDF>
      <cc:Work
         rdf:about="">
        <dc:format>image/svg+xml</dc:format>
        <dc:type
           rdf:resource="http://purl.org/dc/dcmitype/StillImage" />
      </cc:Work>
    </rdf:RDF>
  </metadata>
  <sodipodi:namedview
     inkscape:pageshadow="2"
     inkscape:pageopacity="0.0"
     guidetolerance="10.0"
     gridtolerance="10.0"
     objecttolerance="10.0"
     borderopacity="1.0"
     bordercolor="#666666"
     pagecolor="#ffffff"
     id="base"
     showgrid="false"
     showguides="true"
     inkscape:guide-bbox="true"
     inkscape:zoom="0.227"
     inkscape:cx="660.34247"
     inkscape:cy="446.82349"
     inkscape:window-x="0"
     inkscape:window-y="25"
     inkscape:current-layer="svg5496"
     inkscape:window-width="641"
     inkscape:window-height="618"
     inkscape:window-maximized="0">
    <sodipodi:guide
       orientation="horizontal"
       position="200"
       id="guide5596" />
  </sodipodi:namedview>
  <defs
     id="defs5498">
    <inkscape:perspective
       sodipodi:type="inkscape:persp3d"
       inkscape:vp_x="0 : 500 : 1"
       inkscape:vp_y="0 : 1000 : 0"
       inkscape:vp_z="1000 : 500 : 1"
       inkscape:persp3d-origin="500 : 333.33333 : 1"
       id="perspective8" />
    <inkscape:perspective
       id="perspective2388"
       inkscape:persp3d-origin="372.04724 : 350.78739 : 1"
       inkscape:vp_z="744.09448 : 526.18109 : 1"
       inkscape:vp_y="0 : 1000 : 0"
       inkscape:vp_x="0 : 526.18109 : 1"
       sodipodi:type="inkscape:persp3d" />
    <inkscape:perspective
       id="perspective6324"
       inkscape:persp3d-origin="0.5 : 0.33333333 : 1"
       inkscape:vp_z="1 : 0.5 : 1"
       inkscape:vp_y="0 : 1000 : 0"
       inkscape:vp_x="0 : 0.5 : 1"
       sodipodi:type="inkscape:persp3d" />
  </defs>
  <g
     id="layer1"
     transform="translate(362.89841,-3.7699844)" />
  <path
     style="fill:#000000;fill-rule:evenodd;stroke:#000000;stroke-width:1px;stroke-linecap:butt;stroke-linejoin:miter;stroke-opacity:1"
     d="m 957.2781,418.83096 c -3.5127,-6.93916 -9.5346,-9.17797 -13.286,-1.55751 l -40.5896,82.45323 c -2.2745,4.6205 -2.9246,9.3736 -0.4562,14.38735 16.6207,33.75953 49.1197,96.67144 51.8585,165.20233 0.1602,4.00862 -0.6517,8.11087 -2.9132,11.11786 -116.5994,155.0371 -505.4824,200.49513 -809.36831,191.91771 -256.12774,-7.22941 -598.86747,-81.79363 -829.96934,-239.24041 -16.82653,-11.4637 -27.95118,7.25876 -14.84352,20.84545 64.12675,66.47038 157.61671,156.95672 222.74157,199.41552 91.96293,59.95616 398.598839,127.77297 597.33009,133.93202 267.34521,8.28549 669.41041,-37.1128 817.17931,-197.66384 18.0457,-19.6066 46.1394,-71.98121 56.5264,-111.86256 19.7164,-75.70181 3.9555,-193.55422 -34.2097,-268.94715 z"
     id="path2394"
     sodipodi:nodetypes="csssssssssssss" />
  <path
     style="fill:#ff0000;fill-opacity:0.60784314;fill-rule:evenodd;stroke:#000000;stroke-width:0.8769539px;stroke-linecap:butt;stroke-linejoin:miter;stroke-opacity:1"
     d="m 781.9539,444.75469 c -3.0805,-6.0854 -8.3614,-8.0487 -11.6513,-1.3659 l -35.5952,72.3077 c -1.9946,4.052 -2.5647,8.2202 -0.4,12.617 14.5755,29.6056 43.0757,84.7765 45.4774,144.8749 0.1406,3.5153 -0.5714,7.1128 -2.5547,9.7497 -102.2523,135.9605 -443.2847,175.8251 -709.778611,168.3031 -224.612299,-6.3399 -525.179199,-71.7293 -727.844799,-209.8028 -14.7562,-10.0532 -24.5119,6.3656 -13.0172,18.2805 56.2362,58.2915 138.2226,137.6437 195.3341,174.8781 80.6473,52.5789 349.5528,112.0511 523.830999,117.4522 234.449401,7.266 587.042011,-32.5462 716.628511,-173.342 15.8253,-17.194 40.4622,-63.1241 49.5711,-98.0983 17.2903,-66.387 3.4687,-169.7381 -30.0003,-235.8542 z"
     id="path2394-2"
     sodipodi:nodetypes="csssssssssssss" />
</svg>
