<?xml version="1.0" encoding="UTF-8" standalone="no"?>
<!-- Created with Inkscape (http://www.inkscape.org/) -->

<svg
   xmlns:dc="http://purl.org/dc/elements/1.1/"
   xmlns:cc="http://creativecommons.org/ns#"
   xmlns:rdf="http://www.w3.org/1999/02/22-rdf-syntax-ns#"
   xmlns:svg="http://www.w3.org/2000/svg"
   xmlns="http://www.w3.org/2000/svg"
   xmlns:sodipodi="http://sodipodi.sourceforge.net/DTD/sodipodi-0.dtd"
   xmlns:inkscape="http://www.inkscape.org/namespaces/inkscape"
   version="1.0"
   width="1000"
   height="1000"
   id="svg5496"
   sodipodi:version="0.32"
   inkscape:version="0.47pre4 r22446"
   sodipodi:docname="noon.fina.svg"
   inkscape:output_extension="org.inkscape.output.svg.inkscape">
  <metadata
     id="metadata5594">
    <rdf:RDF>
      <cc:Work
         rdf:about="">
        <dc:format>image/svg+xml</dc:format>
        <dc:type
           rdf:resource="http://purl.org/dc/dcmitype/StillImage" />
      </cc:Work>
    </rdf:RDF>
  </metadata>
  <sodipodi:namedview
     inkscape:pageshadow="2"
     inkscape:pageopacity="0.0"
     guidetolerance="10.0"
     gridtolerance="10.0"
     objecttolerance="10.0"
     borderopacity="1.0"
     bordercolor="#666666"
     pagecolor="#ffffff"
     id="base"
     showgrid="false"
     showguides="true"
     inkscape:guide-bbox="true"
     inkscape:zoom="0.51"
     inkscape:cx="500"
     inkscape:cy="264.70588"
     inkscape:window-x="0"
     inkscape:window-y="24"
     inkscape:current-layer="svg5496"
     inkscape:window-width="1280"
     inkscape:window-height="725"
     inkscape:window-maximized="1">
    <sodipodi:guide
       orientation="horizontal"
       position="200"
       id="guide5596" />
  </sodipodi:namedview>
  <defs
     id="defs5498">
    <inkscape:perspective
       sodipodi:type="inkscape:persp3d"
       inkscape:vp_x="0 : 500 : 1"
       inkscape:vp_y="0 : 1000 : 0"
       inkscape:vp_z="1000 : 500 : 1"
       inkscape:persp3d-origin="500 : 333.33333 : 1"
       id="perspective8" />
    <inkscape:perspective
       id="perspective2388"
       inkscape:persp3d-origin="372.04724 : 350.78739 : 1"
       inkscape:vp_z="744.09448 : 526.18109 : 1"
       inkscape:vp_y="0 : 1000 : 0"
       inkscape:vp_x="0 : 526.18109 : 1"
       sodipodi:type="inkscape:persp3d" />
    <inkscape:perspective
       id="perspective5023"
       inkscape:persp3d-origin="0.5 : 0.33333333 : 1"
       inkscape:vp_z="1 : 0.5 : 1"
       inkscape:vp_y="0 : 1000 : 0"
       inkscape:vp_x="0 : 0.5 : 1"
       sodipodi:type="inkscape:persp3d" />
  </defs>
  <g
     id="layer1"
     transform="matrix(1.3,0,0,1.3,-0.4398047,-240)" />
  <path
     style="fill:#ff0000;fill-opacity:0.60784313999999995;fill-rule:evenodd;stroke:#000000;stroke-width:1;stroke-linecap:butt;stroke-linejoin:miter;stroke-opacity:1;stroke-miterlimit:4;stroke-dasharray:none"
     d="m 472.18252,644.06245 c -2.96377,0.012 -5.91809,2.183 -8.46875,8.125 l -28.75,67.00001 c -2.98306,6.9493 2.54525,11.5941 4.9375,16.9063 22.85683,54.79244 29.52411,130.86374 19.71875,200.68744 -29.56957,43.4426 -137.39059,93.2759 -251.46875,91.0313 C 86.50723,1025.419 48.401255,957.8899 48.401255,893.0625 48.397255,846.5234 78.83778,796.2213 94.46377,761.7188 101.68277,745.77756 82.94252,739.88186 76.80752,750.56246 46.130945,797.487 3.026252,900.3392 0.276252,963.0312 c -3.994,91.0485 65.057478,172.8738 195.562518,173.5938 127.271,0.7021 221.30925,-52.2017 263.78125,-120.9375 31.27948,-67.0142 48.54769,-139.8083 61.8125,-215.6875 0,0 15.09483,2.2507 29.90625,-1.0938 -0.19712,-15.4971 -0.21875,-90.31244 -0.21875,-90.31244 -14.34913,0.144 -32.82673,-4.5476 -40.46875,-18.0938 -9.10332,-13.6105 -20.82283,-32.5145 -29.875,-41.65621 -2.64341,-2.6696 -5.62998,-4.7936 -8.59375,-4.7813 z"
     id="path2394-9"
     sodipodi:nodetypes="cccccscccsscccccsc" />
</svg>
