<?xml version="1.0" encoding="UTF-8" standalone="no"?>
<!-- Created with Inkscape (http://www.inkscape.org/) -->

<svg
   xmlns:dc="http://purl.org/dc/elements/1.1/"
   xmlns:cc="http://creativecommons.org/ns#"
   xmlns:rdf="http://www.w3.org/1999/02/22-rdf-syntax-ns#"
   xmlns:svg="http://www.w3.org/2000/svg"
   xmlns="http://www.w3.org/2000/svg"
   xmlns:sodipodi="http://sodipodi.sourceforge.net/DTD/sodipodi-0.dtd"
   xmlns:inkscape="http://www.inkscape.org/namespaces/inkscape"
   version="1.0"
   width="1000"
   height="1000"
   id="svg5496"
   sodipodi:version="0.32"
   inkscape:version="0.47pre4 r22446"
   sodipodi:docname="noon.fina.alt.svg"
   inkscape:output_extension="org.inkscape.output.svg.inkscape">
  <metadata
     id="metadata5594">
    <rdf:RDF>
      <cc:Work
         rdf:about="">
        <dc:format>image/svg+xml</dc:format>
        <dc:type
           rdf:resource="http://purl.org/dc/dcmitype/StillImage" />
        <dc:title />
      </cc:Work>
    </rdf:RDF>
  </metadata>
  <sodipodi:namedview
     inkscape:window-height="767"
     inkscape:window-width="1278"
     inkscape:pageshadow="2"
     inkscape:pageopacity="0.0"
     borderopacity="1.0"
     bordercolor="#666666"
     pagecolor="#ffffff"
     id="base"
     showgrid="false"
     showguides="true"
     inkscape:guide-bbox="true"
     inkscape:zoom="0.77430038"
     inkscape:cx="1515.2484"
     inkscape:cy="258.82319"
     inkscape:window-x="0"
     inkscape:window-y="0"
     inkscape:current-layer="svg5496"
     inkscape:window-maximized="1">
    <sodipodi:guide
       orientation="horizontal"
       position="200"
       id="guide5596" />
  </sodipodi:namedview>
  <defs
     id="defs5498">
    <inkscape:perspective
       sodipodi:type="inkscape:persp3d"
       inkscape:vp_x="0 : 500 : 1"
       inkscape:vp_y="0 : 1000 : 0"
       inkscape:vp_z="1000 : 500 : 1"
       inkscape:persp3d-origin="500 : 333.33333 : 1"
       id="perspective6370" />
    <inkscape:perspective
       id="perspective6359"
       inkscape:persp3d-origin="0.5 : 0.33333333 : 1"
       inkscape:vp_z="1 : 0.5 : 1"
       inkscape:vp_y="0 : 1000 : 0"
       inkscape:vp_x="0 : 0.5 : 1"
       sodipodi:type="inkscape:persp3d" />
  </defs>
  <path
     sodipodi:nodetypes="cssssssssssscssss"
     id="path2815"
     d="m 932.3444,477.88021 -32.5908,67.2371 c -1.9699,4.0641 -1.91184,8.14254 0.073,12.6231 12.61843,28.48474 23.08515,55.05824 23.9182,98.13039 0.068,3.5174 -2.3042,7.1292 -4.1872,9.8386 -97.08,139.7007 -436.37691,230.2797 -702.96545,232.7601 -224.6919955,2.0905 -494.4532,-34.7348 -730.75179,-208.411 -14.38731,-10.5745 -24.25581,7.2807 -12.32221,18.756 58.38331,56.1408 140.4269,141.7898 198.9398,176.7806 92.3674,55.2358 244.028105,115.2 526.2342,112.4254 234.5507,-2.306 577.23765,-57.8133 709.62155,-236.0524 13.9336,-18.7598 36.4186,-50.3892 48.3898,-82.1486 6.5051,-17.2579 13.66052,-48.07658 15.48632,-57.69388 6.4934,-0.4608 19.61104,-0.0377 30.53608,-0.53972 21.1927,-0.97389 21.0337,-88.30394 -0.1141,-91.16859 -29.69385,-4.02228 -40.2605,-29.0749 -53.3741,-52.1869 -3.431,-6.0469 -12.1241,-10.1893 -16.8933,-0.3502 z"
     style="fill:#ff0000;fill-opacity:0.60784314;fill-rule:evenodd;stroke:#000000;stroke-width:1;stroke-linecap:butt;stroke-linejoin:miter;stroke-miterlimit:4;stroke-opacity:1;stroke-dasharray:none" />
  <g
     id="layer1" />
</svg>
