<?xml version="1.0" encoding="UTF-8" standalone="no"?>
<!-- Created with Inkscape (http://www.inkscape.org/) -->
<svg
   xmlns:dc="http://purl.org/dc/elements/1.1/"
   xmlns:cc="http://creativecommons.org/ns#"
   xmlns:rdf="http://www.w3.org/1999/02/22-rdf-syntax-ns#"
   xmlns:svg="http://www.w3.org/2000/svg"
   xmlns="http://www.w3.org/2000/svg"
   xmlns:sodipodi="http://sodipodi.sourceforge.net/DTD/sodipodi-0.dtd"
   xmlns:inkscape="http://www.inkscape.org/namespaces/inkscape"
   version="1.0"
   width="1000"
   height="1000"
   id="svg5496"
   sodipodi:version="0.32"
   inkscape:version="0.46"
   sodipodi:docname="qaf.fina.svg"
   inkscape:output_extension="org.inkscape.output.svg.inkscape">
  <metadata
     id="metadata5594">
    <rdf:RDF>
      <cc:Work
         rdf:about="">
        <dc:format>image/svg+xml</dc:format>
        <dc:type
           rdf:resource="http://purl.org/dc/dcmitype/StillImage" />
      </cc:Work>
    </rdf:RDF>
  </metadata>
  <sodipodi:namedview
     inkscape:pageshadow="2"
     inkscape:pageopacity="0.0"
     guidetolerance="10.0"
     gridtolerance="10.0"
     objecttolerance="10.0"
     borderopacity="1.0"
     bordercolor="#666666"
     pagecolor="#ffffff"
     id="base"
     showgrid="false"
     showguides="true"
     inkscape:guide-bbox="true"
     inkscape:zoom="0.64205296"
     inkscape:cx="359.75151"
     inkscape:cy="314.01608"
     inkscape:window-x="0"
     inkscape:window-y="25"
     inkscape:current-layer="svg5496">
    <sodipodi:guide
       orientation="horizontal"
       position="200"
       id="guide5596" />
  </sodipodi:namedview>
  <defs
     id="defs5498">
    <inkscape:perspective
       sodipodi:type="inkscape:persp3d"
       inkscape:vp_x="0 : 500 : 1"
       inkscape:vp_y="0 : 1000 : 0"
       inkscape:vp_z="1000 : 500 : 1"
       inkscape:persp3d-origin="500 : 333.33333 : 1"
       id="perspective8" />
    <inkscape:perspective
       id="perspective2388"
       inkscape:persp3d-origin="372.04724 : 350.78739 : 1"
       inkscape:vp_z="744.09448 : 526.18109 : 1"
       inkscape:vp_y="0 : 1000 : 0"
       inkscape:vp_x="0 : 526.18109 : 1"
       sodipodi:type="inkscape:persp3d" />
  </defs>
  <path
     style="fill:#000000;fill-opacity:1;fill-rule:evenodd;stroke:#000000;stroke-width:1px;stroke-linecap:butt;stroke-linejoin:miter;stroke-opacity:1"
     d="M 458.92729,578.10625 C 429.73226,578.22412 320.55779,728.96744 378.40854,779.24063 C 398.80949,796.96938 452.48746,801.79734 507.23042,802.07188 C 510.89057,816.27835 513.71206,829.82871 515.27417,841.51875 C 515.81251,845.54739 516.64082,852.18721 514.70542,855.98125 C 465.60115,952.2423 257.15431,997.68472 175.44604,986.14375 C 122.82684,978.71146 87.156937,954.72636 69.455421,926.9125 C 13.790009,839.4471 56.68427,762.5671 98.867922,695.5125 C 106.87131,682.7904 93.708066,669.69988 83.796047,686.16875 C 32.597289,771.23571 -22.286852,858.53793 10.102297,968.95938 C 28.946854,1033.2044 91.380962,1097.4877 243.45229,1086.3656 C 319.18677,1080.7743 477.49064,1025.5346 536.96792,856.55 C 543.53991,838.78815 547.02066,819.80547 550.05168,801.42403 C 563.57763,801.03089 576.45228,800.56386 588.48042,800 L 588.48042,719.4 C 574.49702,721.05441 561.57586,722.19293 549.60229,722.93438 C 543.37157,675.07738 526.68327,633.50487 506.17417,609.95625 C 498.30484,600.92068 482.41621,578.01257 458.92729,578.10625 z M 472.50354,705.74201 C 474.7426,710.4197 473.50692,716.67891 467.88328,716.9512 C 426.1079,718.97403 411.7964,699.31478 407.69382,682.67078 C 406.40512,677.44258 406.76079,670.48477 411.76355,669.65991 C 448.70091,663.56963 460.79177,678.40593 472.50354,705.74201 z"
     id="path2394"
     sodipodi:nodetypes="cscsssssssccccccsccsssc" />
</svg>
