<?xml version="1.0" encoding="UTF-8" standalone="no"?>
<!-- Created with Inkscape (http://www.inkscape.org/) -->

<svg
   xmlns:dc="http://purl.org/dc/elements/1.1/"
   xmlns:cc="http://creativecommons.org/ns#"
   xmlns:rdf="http://www.w3.org/1999/02/22-rdf-syntax-ns#"
   xmlns:svg="http://www.w3.org/2000/svg"
   xmlns="http://www.w3.org/2000/svg"
   xmlns:sodipodi="http://sodipodi.sourceforge.net/DTD/sodipodi-0.dtd"
   xmlns:inkscape="http://www.inkscape.org/namespaces/inkscape"
   version="1.0"
   width="1000"
   height="1000"
   id="svg5496"
   sodipodi:version="0.32"
   inkscape:version="0.47pre0 r21549"
   sodipodi:docname="qaf.isol.svg"
   inkscape:output_extension="org.inkscape.output.svg.inkscape">
  <metadata
     id="metadata5594">
    <rdf:RDF>
      <cc:Work
         rdf:about="">
        <dc:format>image/svg+xml</dc:format>
        <dc:type
           rdf:resource="http://purl.org/dc/dcmitype/StillImage" />
      </cc:Work>
    </rdf:RDF>
  </metadata>
  <sodipodi:namedview
     inkscape:pageshadow="2"
     inkscape:pageopacity="0.0"
     guidetolerance="10.0"
     gridtolerance="10.0"
     objecttolerance="10.0"
     borderopacity="1.0"
     bordercolor="#666666"
     pagecolor="#ffffff"
     id="base"
     showgrid="false"
     showguides="true"
     inkscape:guide-bbox="true"
     inkscape:zoom="0.236"
     inkscape:cx="-381.35593"
     inkscape:cy="500"
     inkscape:window-x="0"
     inkscape:window-y="28"
     inkscape:current-layer="svg5496"
     inkscape:window-width="1280"
     inkscape:window-height="721"
     inkscape:window-maximized="1">
    <sodipodi:guide
       orientation="horizontal"
       position="200"
       id="guide5596" />
  </sodipodi:namedview>
  <defs
     id="defs5498">
    <inkscape:perspective
       sodipodi:type="inkscape:persp3d"
       inkscape:vp_x="0 : 500 : 1"
       inkscape:vp_y="0 : 1000 : 0"
       inkscape:vp_z="1000 : 500 : 1"
       inkscape:persp3d-origin="500 : 333.33333 : 1"
       id="perspective5018" />
    <inkscape:perspective
       id="perspective5027"
       inkscape:persp3d-origin="372.04724 : 350.78739 : 1"
       inkscape:vp_z="744.09448 : 526.18109 : 1"
       inkscape:vp_y="0 : 1000 : 0"
       inkscape:vp_x="0 : 526.18109 : 1"
       sodipodi:type="inkscape:persp3d" />
  </defs>
  <g
     id="layer1"
     transform="matrix(1.3,0,0,1.3,-304.8962,-226.25555)" />
  <path
     style="fill:#000000;fill-rule:evenodd;stroke:#000000;stroke-width:1px;stroke-linecap:butt;stroke-linejoin:miter;stroke-opacity:1"
     d="m 490.96875,387.20233 c -51.98239,0.57385 -87.55349,67.01651 -113.78125,132.4375 -43.53767,108.59785 8.49025,141.57017 42.6875,154.40625 44.57158,16.73012 111.21674,-9.29726 138.5625,-46.90625 12.31225,5.91958 31.59433,47.89858 28.21875,72.59375 -10.41036,76.16049 -190.21533,181.18034 -317.4375,182.25 -161.39226,1.35695 -217.042652,-84.60698 -214.375,-168.96875 2.097667,-66.33626 40.308812,-127.9197 74.3125,-177.4375 10.91632,-15.89686 -7.78119,-27.67902 -17.34375,-13.8125 -48.588381,70.45732 -88.44173,149.76152 -104.59375,237.09375 -34.82813,188.31207 145.1848,246.81922 260.5625,237.65625 168.10304,-13.3503 314.28685,-113.47624 343.125,-259.3125 33.12184,-166.99297 -66.49612,-350.58994 -119.9375,-350 z m -36.90625,123.6875 c 14.37578,-0.20567 28.5487,11.2838 42.09375,26.03125 -21.30841,19.77294 -54.54474,18.10379 -73.75,-3.5625 10.55406,-15.93767 21.16582,-22.31867 31.65625,-22.46875 z"
     id="path5033" />
</svg>
