<?xml version="1.0" encoding="UTF-8" standalone="no"?>
<!-- Created with Inkscape (http://www.inkscape.org/) -->

<svg
   xmlns:dc="http://purl.org/dc/elements/1.1/"
   xmlns:cc="http://creativecommons.org/ns#"
   xmlns:rdf="http://www.w3.org/1999/02/22-rdf-syntax-ns#"
   xmlns:svg="http://www.w3.org/2000/svg"
   xmlns="http://www.w3.org/2000/svg"
   xmlns:sodipodi="http://sodipodi.sourceforge.net/DTD/sodipodi-0.dtd"
   xmlns:inkscape="http://www.inkscape.org/namespaces/inkscape"
   version="1.0"
   width="1000"
   height="1000"
   id="svg5496"
   sodipodi:version="0.32"
   inkscape:version="0.47pre0 r21549"
   sodipodi:docname="qaf.isol.svg"
   inkscape:output_extension="org.inkscape.output.svg.inkscape">
  <metadata
     id="metadata5594">
    <rdf:RDF>
      <cc:Work
         rdf:about="">
        <dc:format>image/svg+xml</dc:format>
        <dc:type
           rdf:resource="http://purl.org/dc/dcmitype/StillImage" />
      </cc:Work>
    </rdf:RDF>
  </metadata>
  <sodipodi:namedview
     inkscape:pageshadow="2"
     inkscape:pageopacity="0.0"
     guidetolerance="10.0"
     gridtolerance="10.0"
     objecttolerance="10.0"
     borderopacity="1.0"
     bordercolor="#666666"
     pagecolor="#ffffff"
     id="base"
     showgrid="false"
     showguides="true"
     inkscape:guide-bbox="true"
     inkscape:zoom="0.236"
     inkscape:cx="-381.35593"
     inkscape:cy="500"
     inkscape:window-x="0"
     inkscape:window-y="25"
     inkscape:current-layer="svg5496">
    <sodipodi:guide
       orientation="horizontal"
       position="200"
       id="guide5596" />
  </sodipodi:namedview>
  <defs
     id="defs5498">
    <inkscape:perspective
       sodipodi:type="inkscape:persp3d"
       inkscape:vp_x="0 : 500 : 1"
       inkscape:vp_y="0 : 1000 : 0"
       inkscape:vp_z="1000 : 500 : 1"
       inkscape:persp3d-origin="500 : 333.33333 : 1"
       id="perspective5018" />
    <inkscape:perspective
       id="perspective5027"
       inkscape:persp3d-origin="372.04724 : 350.78739 : 1"
       inkscape:vp_z="744.09448 : 526.18109 : 1"
       inkscape:vp_y="0 : 1000 : 0"
       inkscape:vp_x="0 : 526.18109 : 1"
       sodipodi:type="inkscape:persp3d" />
  </defs>
  <g
     id="layer1"
     transform="matrix(1.3,0,0,1.3,-304.8962,-226.25555)" />
  <path
     style="fill:#000000;fill-rule:evenodd;stroke:#000000;stroke-width:1px;stroke-linecap:butt;stroke-linejoin:miter;stroke-opacity:1"
     d="M 490.96875 183.8125 C 438.98636 184.38635 403.41526 250.82901 377.1875 316.25 C 333.64983 424.84785 385.67775 457.82017 419.875 470.65625 C 464.44658 487.38637 531.09174 461.35899 558.4375 423.75 C 570.74975 429.66958 590.03183 471.64858 586.65625 496.34375 C 576.24589 572.50424 396.44092 677.52409 269.21875 678.59375 C 107.82649 679.9507 52.176098 593.98677 54.84375 509.625 C 56.941417 443.28874 95.152562 381.7053 129.15625 332.1875 C 140.07257 316.29064 121.37506 304.50848 111.8125 318.375 C 63.224119 388.83232 23.37077 468.13652 7.21875 555.46875 C -27.60938 743.78082 152.40355 802.28799 267.78125 793.125 C 435.88429 779.7747 582.0681 679.64876 610.90625 533.8125 C 644.02809 366.81953 544.41013 183.22256 490.96875 183.8125 z M 454.0625 307.5 C 468.43828 307.29433 482.6112 318.7838 496.15625 333.53125 C 474.84784 353.30419 441.61151 351.63504 422.40625 329.96875 C 432.96031 314.03108 443.57207 307.65008 454.0625 307.5 z "
     id="path5033" />
</svg>
