<?xml version="1.0" encoding="UTF-8" standalone="no"?>
<!-- Created with Inkscape (http://www.inkscape.org/) -->
<svg
   xmlns:dc="http://purl.org/dc/elements/1.1/"
   xmlns:cc="http://creativecommons.org/ns#"
   xmlns:rdf="http://www.w3.org/1999/02/22-rdf-syntax-ns#"
   xmlns:svg="http://www.w3.org/2000/svg"
   xmlns="http://www.w3.org/2000/svg"
   xmlns:sodipodi="http://sodipodi.sourceforge.net/DTD/sodipodi-0.dtd"
   xmlns:inkscape="http://www.inkscape.org/namespaces/inkscape"
   version="1.0"
   width="1000"
   height="1000"
   id="svg5496"
   sodipodi:version="0.32"
   inkscape:version="0.46"
   sodipodi:docname="question-mark.svg"
   inkscape:output_extension="org.inkscape.output.svg.inkscape">
  <metadata
     id="metadata5594">
    <rdf:RDF>
      <cc:Work
         rdf:about="">
        <dc:format>image/svg+xml</dc:format>
        <dc:type
           rdf:resource="http://purl.org/dc/dcmitype/StillImage" />
      </cc:Work>
    </rdf:RDF>
  </metadata>
  <sodipodi:namedview
     inkscape:pageshadow="2"
     inkscape:pageopacity="0.0"
     guidetolerance="10.0"
     gridtolerance="10.0"
     objecttolerance="10.0"
     borderopacity="1.0"
     bordercolor="#666666"
     pagecolor="#ffffff"
     id="base"
     showgrid="false"
     showguides="true"
     inkscape:guide-bbox="true"
     inkscape:zoom="0.32102648"
     inkscape:cx="496.33164"
     inkscape:cy="530.35904"
     inkscape:window-x="0"
     inkscape:window-y="25"
     inkscape:current-layer="svg5496">
    <sodipodi:guide
       orientation="horizontal"
       position="200"
       id="guide5596" />
  </sodipodi:namedview>
  <defs
     id="defs5498">
    <inkscape:perspective
       sodipodi:type="inkscape:persp3d"
       inkscape:vp_x="0 : 500 : 1"
       inkscape:vp_y="0 : 1000 : 0"
       inkscape:vp_z="1000 : 500 : 1"
       inkscape:persp3d-origin="500 : 333.33333 : 1"
       id="perspective8" />
    <inkscape:perspective
       id="perspective2388"
       inkscape:persp3d-origin="372.04724 : 350.78739 : 1"
       inkscape:vp_z="744.09448 : 526.18109 : 1"
       inkscape:vp_y="0 : 1000 : 0"
       inkscape:vp_x="0 : 526.18109 : 1"
       sodipodi:type="inkscape:persp3d" />
  </defs>
  <g
     id="layer1"
     transform="matrix(1,0,-4.189227e-2,1,-321.41819,57.418484)" />
  <path
     sodipodi:type="arc"
     style="fill:#000000;fill-opacity:1;stroke:#000000;stroke-width:1;stroke-miterlimit:4;stroke-dasharray:none;stroke-opacity:1"
     id="path3170"
     sodipodi:cx="505.78195"
     sodipodi:cy="306.44272"
     sodipodi:rx="56.44273"
     sodipodi:ry="56.44273"
     d="M 562.22468,306.44272 A 56.44273,56.44273 0 1 1 449.33922,306.44272 A 56.44273,56.44273 0 1 1 562.22468,306.44272 z"
     transform="matrix(1.1998562,0,-5.02647e-2,1.1998562,-414.90149,500.03596)" />
  <path
     style="fill:#000000;fill-rule:evenodd;stroke:#000000;stroke-width:1px;stroke-linecap:butt;stroke-linejoin:miter;stroke-opacity:1"
     d="M 44.154977,348.16738 C 68.046017,325.44561 114.51983,327.92467 134.88565,357.80394 C 148.10179,377.19372 151.39992,414.60451 128.25833,438.24351 C 117.90425,448.82014 101.71705,459.34975 79.693397,459.40086 C 45.147227,459.48103 23.451227,438.81273 12.131537,409.95028 C -1.631433,374.85811 1.944577,327.65276 14.413127,290.89865 C 22.797887,266.18251 45.760607,235.76922 79.888457,215.84897 C 107.85698,199.52388 141.77526,190.80797 179.49184,193.43169 C 204.30006,195.15745 233.25546,203.86228 257.6625,219.09914 C 282.40278,234.54401 302.51517,256.63626 315.70207,275.37126 C 354.16422,330.01554 354.82324,394.8535 330.38247,456.09689 C 300.61746,530.68167 203.4618,592.82497 177.67226,631.20703 C 165.90483,648.72025 161.2333,699.45803 175.48594,762.26429 C 179.09458,778.16626 167.56162,780.73091 161.97019,769.42288 C 131.1731,707.13932 147.24956,562.25879 197.30711,451.69161 C 221.39439,398.48758 258.76359,347.69929 253.5795,291.44932 C 248.43525,235.63162 210.26235,214.27181 176.00537,209.786 C 137.03308,204.68273 105.52283,218.52545 92.824517,224.81936 C 55.298107,243.4193 21.061517,311.10015 44.154977,348.16738 z"
     id="path2394"
     sodipodi:nodetypes="csssssssssssssssssc" />
</svg>
