<?xml version="1.0" encoding="UTF-8" standalone="no"?>
<!-- Created with Inkscape (http://www.inkscape.org/) -->

<svg
   xmlns:dc="http://purl.org/dc/elements/1.1/"
   xmlns:cc="http://creativecommons.org/ns#"
   xmlns:rdf="http://www.w3.org/1999/02/22-rdf-syntax-ns#"
   xmlns:svg="http://www.w3.org/2000/svg"
   xmlns="http://www.w3.org/2000/svg"
   xmlns:sodipodi="http://sodipodi.sourceforge.net/DTD/sodipodi-0.dtd"
   xmlns:inkscape="http://www.inkscape.org/namespaces/inkscape"
   version="1.0"
   width="1000"
   height="1000"
   id="svg5496"
   sodipodi:version="0.32"
   inkscape:version="0.47pre4 r22446"
   sodipodi:docname="question-mark.svg"
   inkscape:output_extension="org.inkscape.output.svg.inkscape">
  <metadata
     id="metadata5594">
    <rdf:RDF>
      <cc:Work
         rdf:about="">
        <dc:format>image/svg+xml</dc:format>
        <dc:type
           rdf:resource="http://purl.org/dc/dcmitype/StillImage" />
      </cc:Work>
    </rdf:RDF>
  </metadata>
  <sodipodi:namedview
     inkscape:pageshadow="2"
     inkscape:pageopacity="0.0"
     guidetolerance="10.0"
     gridtolerance="10.0"
     objecttolerance="10.0"
     borderopacity="1.0"
     bordercolor="#666666"
     pagecolor="#ffffff"
     id="base"
     showgrid="false"
     showguides="true"
     inkscape:guide-bbox="true"
     inkscape:zoom="0.32102648"
     inkscape:cx="496.33164"
     inkscape:cy="530.35904"
     inkscape:window-x="0"
     inkscape:window-y="24"
     inkscape:current-layer="svg5496"
     inkscape:window-width="1280"
     inkscape:window-height="725"
     inkscape:window-maximized="1">
    <sodipodi:guide
       orientation="horizontal"
       position="200"
       id="guide5596" />
  </sodipodi:namedview>
  <defs
     id="defs5498">
    <inkscape:perspective
       sodipodi:type="inkscape:persp3d"
       inkscape:vp_x="0 : 500 : 1"
       inkscape:vp_y="0 : 1000 : 0"
       inkscape:vp_z="1000 : 500 : 1"
       inkscape:persp3d-origin="500 : 333.33333 : 1"
       id="perspective8" />
    <inkscape:perspective
       id="perspective2388"
       inkscape:persp3d-origin="372.04724 : 350.78739 : 1"
       inkscape:vp_z="744.09448 : 526.18109 : 1"
       inkscape:vp_y="0 : 1000 : 0"
       inkscape:vp_x="0 : 526.18109 : 1"
       sodipodi:type="inkscape:persp3d" />
    <inkscape:perspective
       id="perspective3976"
       inkscape:persp3d-origin="0.5 : 0.33333333 : 1"
       inkscape:vp_z="1 : 0.5 : 1"
       inkscape:vp_y="0 : 1000 : 0"
       inkscape:vp_x="0 : 0.5 : 1"
       sodipodi:type="inkscape:persp3d" />
  </defs>
  <g
     transform="translate(-6428.3945,-444.48619)"
     id="g3964">
    <path
       sodipodi:nodetypes="csssssssssssssssssc"
       id="path2394-0"
       d="m 6463.0002,817.49668 c 22.091,-22.47441 66.5659,-21.60208 86.9825,6.28519 13.249,18.09709 17.6038,53.72835 -3.7418,77.05484 -9.5505,10.43681 -24.6639,19.9545 -45.7117,20.29375 -27.817,0.44835 -48.2112,-16.45405 -60.1315,-43.58367 -8.3552,-19.01582 -15.341,-76.8081 -4.6131,-109.35876 7.8086,-23.69275 20.6904,-55.15287 52.6506,-75.28057 26.192,-16.49509 59.793,-24.43247 95.907,-23.14009 23.7541,0.85007 47.9935,8.23355 71.7993,22.00328 24.1307,13.95772 44.0546,34.41443 57.2547,51.88698 38.5005,50.96208 46.918,112.87865 25.5417,172.16931 -26.033,72.20667 -118.1025,127.29556 -141.5031,164.79086 -10.6774,17.1086 -14.247,73.1292 1.3896,132.6674 3.9591,15.0745 -6.9755,17.8957 -12.6808,7.2734 -31.4242,-58.5063 -20.7301,-197.4239 23.5296,-304.65661 21.2974,-51.59953 59.0613,-101.31887 52.2986,-154.88594 -6.7107,-53.15541 -47.5647,-72.33114 -80.4337,-75.51367 -37.3934,-3.62061 -68.529,9.13676 -80.4568,15.55786 -35.2492,18.97583 -61.3347,81.77053 -38.0811,116.43644 z"
       style="fill:#ff0000;fill-opacity:0.60784314;fill-rule:evenodd;stroke:#000000;stroke-width:1;stroke-linecap:butt;stroke-linejoin:miter;stroke-miterlimit:4;stroke-opacity:1;stroke-dasharray:none" />
    <path
       transform="matrix(1.1682946,0,0,1.1682946,-1168.4057,-153.08569)"
       d="m 6705.7608,1251.7296 c 0,30.6408 -24.8392,55.4801 -55.48,55.4801 -30.6408,0 -55.4801,-24.8393 -55.4801,-55.4801 0,-30.6408 24.8393,-55.4801 55.4801,-55.4801 30.6408,0 55.48,24.8393 55.48,55.4801 z"
       sodipodi:ry="55.480068"
       sodipodi:rx="55.480068"
       sodipodi:cy="1251.7296"
       sodipodi:cx="6650.2808"
       id="path3962"
       style="fill:#ff0000;fill-opacity:0.60784314;fill-rule:nonzero;stroke:#000000;stroke-width:0.85594851;stroke-linejoin:round;stroke-miterlimit:4;stroke-opacity:1;stroke-dasharray:none"
       sodipodi:type="arc" />
  </g>
</svg>
