<?xml version="1.0" encoding="UTF-8" standalone="no"?>
<!-- Created with Inkscape (http://www.inkscape.org/) -->

<svg
   xmlns:dc="http://purl.org/dc/elements/1.1/"
   xmlns:cc="http://creativecommons.org/ns#"
   xmlns:rdf="http://www.w3.org/1999/02/22-rdf-syntax-ns#"
   xmlns:svg="http://www.w3.org/2000/svg"
   xmlns="http://www.w3.org/2000/svg"
   xmlns:sodipodi="http://sodipodi.sourceforge.net/DTD/sodipodi-0.dtd"
   xmlns:inkscape="http://www.inkscape.org/namespaces/inkscape"
   version="1.0"
   width="1000"
   height="1000"
   id="svg5496"
   sodipodi:version="0.32"
   inkscape:version="0.47pre0 r21549"
   sodipodi:docname="New document 1"
   inkscape:output_extension="org.inkscape.output.svg.inkscape">
  <metadata
     id="metadata5594">
    <rdf:RDF>
      <cc:Work
         rdf:about="">
        <dc:format>image/svg+xml</dc:format>
        <dc:type
           rdf:resource="http://purl.org/dc/dcmitype/StillImage" />
        <dc:title></dc:title>
      </cc:Work>
    </rdf:RDF>
  </metadata>
  <sodipodi:namedview
     inkscape:window-height="618"
     inkscape:pageshadow="2"
     inkscape:pageopacity="0.0"
     borderopacity="1.0"
     bordercolor="#666666"
     pagecolor="#ffffff"
     id="base"
     showgrid="false"
     showguides="true"
     inkscape:guide-bbox="true"
     inkscape:zoom="0.454"
     inkscape:cx="-42.160752"
     inkscape:cy="576.00174"
     inkscape:window-x="0"
     inkscape:window-y="25"
     inkscape:current-layer="svg5496">
    <sodipodi:guide
       orientation="horizontal"
       position="200"
       id="guide5596" />
  </sodipodi:namedview>
  <defs
     id="defs5498">
    <inkscape:perspective
       sodipodi:type="inkscape:persp3d"
       inkscape:vp_x="0 : 500 : 1"
       inkscape:vp_y="0 : 1000 : 0"
       inkscape:vp_z="1000 : 500 : 1"
       inkscape:persp3d-origin="500 : 333.33333 : 1"
       id="perspective8" />
    <inkscape:perspective
       id="perspective2822"
       inkscape:persp3d-origin="0.5 : 0.33333333 : 1"
       inkscape:vp_z="1 : 0.5 : 1"
       inkscape:vp_y="0 : 1000 : 0"
       inkscape:vp_x="0 : 0.5 : 1"
       sodipodi:type="inkscape:persp3d" />
  </defs>
  <g
     id="layer1"
     transform="translate(116.74009,381.05727)" />
  <path
     style="color:#000000;fill:#000000;stroke:#000000;stroke-width:1px;stroke-linecap:butt;stroke-linejoin:miter;stroke-miterlimit:4;stroke-opacity:1;stroke-dasharray:none;stroke-dashoffset:0;marker:none;visibility:visible;display:inline;overflow:visible;enable-background:accumulate"
     d="m 301.76212,533.86564 -22.87649,92.03796 c -0.85098,3.42371 0.0523,4.22553 2.0964,6.67285 44.57056,53.36375 61.4937,91.03854 71.56726,120.23963 1.90197,5.5134 1.27917,9.67359 -1.68537,14.41479 -35.78689,57.23414 -80.49188,101.48549 -127.78272,132.09643 -35.30635,22.85349 -76.51649,40.25263 -107.97094,44.13501 -32.521959,4.01414 -67.22994,-2.30812 -104.957702,-13.83618 -8.7486199,-2.67322 -14.6063499,9.91458 -6.8485999,13.65581 10.4459299,6.84021 76.9973449,36.06657 132.9646219,52.42099 14.51147,4.24046 33.53353,2.80896 43.85196,0.77038 43.21388,-10.45223 104.16854,-45.29096 142.3467,-95.01976 29.97184,-39.03969 56.84012,-101.67663 60.79267,-143.7443 7.17511,-76.36586 -14.46941,-169.19562 -70.4275,-226.93076 -2.0224,-2.08662 -9.23227,-4.30766 -11.07029,3.08715 z"
     id="path2828"
     sodipodi:nodetypes="cssssssscscssss" />
</svg>
