<?xml version="1.0" encoding="UTF-8" standalone="no"?>
<!-- Created with Inkscape (http://www.inkscape.org/) -->

<svg
   xmlns:dc="http://purl.org/dc/elements/1.1/"
   xmlns:cc="http://creativecommons.org/ns#"
   xmlns:rdf="http://www.w3.org/1999/02/22-rdf-syntax-ns#"
   xmlns:svg="http://www.w3.org/2000/svg"
   xmlns="http://www.w3.org/2000/svg"
   xmlns:sodipodi="http://sodipodi.sourceforge.net/DTD/sodipodi-0.dtd"
   xmlns:inkscape="http://www.inkscape.org/namespaces/inkscape"
   version="1.0"
   width="1000"
   height="1000"
   id="svg5496"
   sodipodi:version="0.32"
   inkscape:version="0.47pre0 r21549"
   sodipodi:docname="sad+haa.isol.svg"
   inkscape:output_extension="org.inkscape.output.svg.inkscape">
  <metadata
     id="metadata5594">
    <rdf:RDF>
      <cc:Work
         rdf:about="">
        <dc:format>image/svg+xml</dc:format>
        <dc:type
           rdf:resource="http://purl.org/dc/dcmitype/StillImage" />
        <dc:title></dc:title>
      </cc:Work>
    </rdf:RDF>
  </metadata>
  <sodipodi:namedview
     inkscape:window-height="721"
     inkscape:pageshadow="2"
     inkscape:pageopacity="0.0"
     borderopacity="1.0"
     bordercolor="#666666"
     pagecolor="#ffffff"
     id="base"
     showgrid="false"
     showguides="true"
     inkscape:guide-bbox="true"
     inkscape:zoom="0.454"
     inkscape:cx="252.27417"
     inkscape:cy="415.2179"
     inkscape:window-x="0"
     inkscape:window-y="28"
     inkscape:current-layer="svg5496"
     inkscape:window-width="1280"
     inkscape:window-maximized="1">
    <sodipodi:guide
       orientation="horizontal"
       position="200"
       id="guide5596" />
  </sodipodi:namedview>
  <defs
     id="defs5498">
    <inkscape:perspective
       sodipodi:type="inkscape:persp3d"
       inkscape:vp_x="0 : 500 : 1"
       inkscape:vp_y="0 : 1000 : 0"
       inkscape:vp_z="1000 : 500 : 1"
       inkscape:persp3d-origin="500 : 333.33333 : 1"
       id="perspective8" />
    <inkscape:perspective
       id="perspective2822"
       inkscape:persp3d-origin="0.5 : 0.33333333 : 1"
       inkscape:vp_z="1 : 0.5 : 1"
       inkscape:vp_y="0 : 1000 : 0"
       inkscape:vp_x="0 : 0.5 : 1"
       sodipodi:type="inkscape:persp3d" />
    <inkscape:perspective
       id="perspective3632"
       inkscape:persp3d-origin="0.5 : 0.33333333 : 1"
       inkscape:vp_z="1 : 0.5 : 1"
       inkscape:vp_y="0 : 1000 : 0"
       inkscape:vp_x="0 : 0.5 : 1"
       sodipodi:type="inkscape:persp3d" />
    <inkscape:perspective
       sodipodi:type="inkscape:persp3d"
       inkscape:vp_x="0 : 526.18109 : 1"
       inkscape:vp_y="0 : 1000 : 0"
       inkscape:vp_z="744.09448 : 526.18109 : 1"
       inkscape:persp3d-origin="372.04724 : 350.78739 : 1"
       id="perspective2388" />
    <inkscape:perspective
       id="perspective8-4"
       inkscape:persp3d-origin="500 : 333.33333 : 1"
       inkscape:vp_z="1000 : 500 : 1"
       inkscape:vp_y="0 : 1000 : 0"
       inkscape:vp_x="0 : 500 : 1"
       sodipodi:type="inkscape:persp3d" />
  </defs>
  <g
     id="layer1" />
  <path
     style="color:#000000;fill:#000000;stroke:#000000;stroke-width:1px;stroke-linecap:butt;stroke-linejoin:miter;stroke-miterlimit:4;stroke-opacity:1;stroke-dasharray:none;stroke-dashoffset:0;marker:none;visibility:visible;display:inline;overflow:visible;enable-background:accumulate;fill-opacity:1"
     d="M 751.00262,5.0305617 C 676.08038,4.4460617 527.56002,113.33242 433.15887,217.65556 c -48.51904,-11.47847 -86.90536,-33.90335 -101.90625,-72.4375 -7.74058,-19.88392 -27.59443,-12.85947 -31.9375,-3.125 -35.48642,79.53859 -107.30355,148.51995 -257.218754,224.21875 -3.106248,1.56848 -5.078591,2.92526 -6.53125,6.40625 L 6.0651156,443.43681 c -1.857918,4.45212 0.978788,8.33745 5.5000004,8.34375 76.953898,0.10744 151.349244,-9.69176 230.312504,2.5 4.64819,0.71767 5.01573,2.53821 0.5,5 -60.45167,32.95578 -184.82245,138.64813 -223.593754,311.53125 -51.425558,229.30909 91.589284,353.14079 446.031254,351.21879 9.19756,-0.05 27.94858,-3.9651 36.59375,-7.6563 60.80315,-25.9607 114.06774,-50.5409 170.34375,-84.5 8.90704,-5.3748 3.60179,-13.87 -2.125,-12.6562 -52.89332,11.2103 -272.28117,33.2727 -434.96875,-19.90629 C 133.84517,964.35803 53.402352,888.12265 64.158866,763.56181 74.353826,645.50378 152.81424,568.48511 257.28387,521.40556 c 86.532,-38.99591 190.74573,-56.41063 300.34375,-68.125 2.68065,-0.28652 7.97345,-0.80911 9.59375,-4.34375 l 29.53125,-64.4375 c 1.1696,-3.42589 0.44497,-5.89702 -4.59375,-6.21875 -145.86037,6.02406 -288.97421,2.9666 -438.875,-6.6875 -3.8162,-0.24577 -4.32796,-4.63323 -1.03125,-7.34375 45.16619,-37.13515 91.02125,-76.10866 128.375,-131.8125 28.4485,34.02043 53.55609,60.01908 88.15625,70.3125 -7.29502,12.64531 -12.90437,24.61711 -16.5,35.59375 -5.13625,15.67982 12.80546,19.76167 22.59375,3.125 5.75144,-9.77543 13.24254,-21.12422 22.15625,-33.40625 107.85523,14.28645 279.6565,0.75456 353.96875,-30.46875 39.5316,-16.60975 124.04092,-134.7417 123.03125,-165.875 C 872.48473,63.950472 783.90448,5.2872417 751.00262,5.0305617 z M 677.53387,104.65556 c 41.88967,-0.13105 85.86981,33.34923 110.84375,67.03125 -13.73204,24.72296 -187.85434,68.64561 -318.78125,52.40625 53.58023,-52.76229 121.83297,-102.47484 192.625,-117.8125 5.04169,-1.09232 10.16815,-1.60891 15.3125,-1.625 z"
     id="path2828" />
</svg>
