<?xml version="1.0" encoding="UTF-8" standalone="no"?>
<!-- Created with Inkscape (http://www.inkscape.org/) -->

<svg
   xmlns:dc="http://purl.org/dc/elements/1.1/"
   xmlns:cc="http://creativecommons.org/ns#"
   xmlns:rdf="http://www.w3.org/1999/02/22-rdf-syntax-ns#"
   xmlns:svg="http://www.w3.org/2000/svg"
   xmlns="http://www.w3.org/2000/svg"
   xmlns:sodipodi="http://sodipodi.sourceforge.net/DTD/sodipodi-0.dtd"
   xmlns:inkscape="http://www.inkscape.org/namespaces/inkscape"
   version="1.0"
   width="1000"
   height="1000"
   id="svg5496"
   sodipodi:version="0.32"
   inkscape:version="0.47pre4 r22446"
   sodipodi:docname="sad+haa.isol.svg"
   inkscape:output_extension="org.inkscape.output.svg.inkscape">
  <metadata
     id="metadata5594">
    <rdf:RDF>
      <cc:Work
         rdf:about="">
        <dc:format>image/svg+xml</dc:format>
        <dc:type
           rdf:resource="http://purl.org/dc/dcmitype/StillImage" />
        <dc:title />
      </cc:Work>
    </rdf:RDF>
  </metadata>
  <sodipodi:namedview
     inkscape:window-height="618"
     inkscape:pageshadow="2"
     inkscape:pageopacity="0.0"
     borderopacity="1.0"
     bordercolor="#666666"
     pagecolor="#ffffff"
     id="base"
     showgrid="false"
     showguides="true"
     inkscape:guide-bbox="true"
     inkscape:zoom="0.32102648"
     inkscape:cx="252.27417"
     inkscape:cy="415.2179"
     inkscape:window-x="-1"
     inkscape:window-y="25"
     inkscape:current-layer="svg5496"
     inkscape:window-width="641"
     inkscape:window-maximized="0">
    <sodipodi:guide
       orientation="horizontal"
       position="200"
       id="guide5596" />
  </sodipodi:namedview>
  <defs
     id="defs5498">
    <inkscape:perspective
       sodipodi:type="inkscape:persp3d"
       inkscape:vp_x="0 : 500 : 1"
       inkscape:vp_y="0 : 1000 : 0"
       inkscape:vp_z="1000 : 500 : 1"
       inkscape:persp3d-origin="500 : 333.33333 : 1"
       id="perspective8" />
    <inkscape:perspective
       id="perspective2822"
       inkscape:persp3d-origin="0.5 : 0.33333333 : 1"
       inkscape:vp_z="1 : 0.5 : 1"
       inkscape:vp_y="0 : 1000 : 0"
       inkscape:vp_x="0 : 0.5 : 1"
       sodipodi:type="inkscape:persp3d" />
    <inkscape:perspective
       id="perspective3632"
       inkscape:persp3d-origin="0.5 : 0.33333333 : 1"
       inkscape:vp_z="1 : 0.5 : 1"
       inkscape:vp_y="0 : 1000 : 0"
       inkscape:vp_x="0 : 0.5 : 1"
       sodipodi:type="inkscape:persp3d" />
    <inkscape:perspective
       sodipodi:type="inkscape:persp3d"
       inkscape:vp_x="0 : 526.18109 : 1"
       inkscape:vp_y="0 : 1000 : 0"
       inkscape:vp_z="744.09448 : 526.18109 : 1"
       inkscape:persp3d-origin="372.04724 : 350.78739 : 1"
       id="perspective2388" />
    <inkscape:perspective
       id="perspective8-4"
       inkscape:persp3d-origin="500 : 333.33333 : 1"
       inkscape:vp_z="1000 : 500 : 1"
       inkscape:vp_y="0 : 1000 : 0"
       inkscape:vp_x="0 : 500 : 1"
       sodipodi:type="inkscape:persp3d" />
    <inkscape:perspective
       id="perspective4921"
       inkscape:persp3d-origin="0.5 : 0.33333333 : 1"
       inkscape:vp_z="1 : 0.5 : 1"
       inkscape:vp_y="0 : 1000 : 0"
       inkscape:vp_x="0 : 0.5 : 1"
       sodipodi:type="inkscape:persp3d" />
  </defs>
  <g
     id="layer1" />
  <path
     style="color:#000000;fill:#ff0000;fill-opacity:0.60784314;stroke:#000000;stroke-width:1;stroke-linecap:butt;stroke-linejoin:miter;stroke-miterlimit:4;stroke-opacity:1;stroke-dasharray:none;stroke-dashoffset:0;marker:none;visibility:visible;display:inline;overflow:visible;enable-background:accumulate"
     d="m 729.44636,20.086234 c -72.1149,-0.5626 -215.0702,104.243706 -305.9342,204.658006 -46.701,-11.0485 -83.649,-32.6331 -98.0879,-69.7233 -7.4504,-19.139 -26.5604,-12.3777 -30.7408,-3.0079 -34.1567,76.5583 -103.2828,142.9549 -247.5808,215.8172 -2.9899,1.5098 -4.8883,2.8157 -6.2865,6.1663 l -28.394698,68.0689 c -1.7883,4.2853 0.942198,8.0251 5.293898,8.0312 74.0705,0.1033 145.6783,-9.3287 221.6828,2.4063 4.474,0.6907 4.8279,2.4431 0.4813,4.8126 -58.1865,31.7209 -177.8972,133.453 -215.2157,299.8582 -49.498698,220.717 88.1574,339.90876 429.3185,338.05886 8.853,-0.048 26.9014,-3.8166 35.2226,-7.3695 58.5249,-24.9879 109.7936,-48.6471 163.961,-81.3339 8.5734,-5.1734 3.4668,-13.35026 -2.0454,-12.18186 -50.9114,10.79016 -262.0788,32.02596 -418.6705,-19.1605 -97.0363,-31.719 -174.4649,-105.0978 -164.1114,-224.9914 9.813,-113.6344 85.3335,-187.7672 185.8886,-233.0827 83.2897,-37.5347 183.5985,-54.297 289.0899,-65.5724 2.5803,-0.2758 7.6748,-0.7787 9.2344,-4.181 l 28.4246,-62.023 c 1.1258,-3.2976 0.4284,-5.6761 -4.4215,-5.9857 -140.3951,5.7983 -278.1465,2.8554 -422.4305,-6.4369 -3.6732,-0.2366 -4.1658,-4.4597 -0.9927,-7.0687 43.4739,-35.7436 87.6108,-73.2568 123.5648,-126.8735 27.3826,32.7457 51.5494,57.7702 84.8532,67.6779 -7.0217,12.1715 -12.4209,23.6947 -15.8818,34.2601 -4.9438,15.0923 12.3257,19.0212 21.7471,3.0079 5.536,-9.4092 12.7464,-20.3327 21.3261,-32.1545 103.8139,13.7511 269.1779,0.7263 340.7056,-29.3271 38.0504,-15.9874 119.3932,-129.693 118.4214,-159.6597 -1.4911,-45.977806 -86.7523,-102.442906 -118.4214,-102.689906 z m -70.7158,95.891996 c 40.3201,-0.1262 82.6523,32.09961 106.6904,64.51961 -13.2175,23.7966 -180.8155,66.0735 -306.8366,50.4426 51.5726,-50.7853 117.268,-98.6352 185.4074,-113.39811 4.8528,-1.0514 9.7871,-1.5486 14.7388,-1.5641 z"
     id="path2828-2" />
</svg>
