<?xml version="1.0" encoding="UTF-8" standalone="no"?>
<!-- Created with Inkscape (http://www.inkscape.org/) -->

<svg
   xmlns:dc="http://purl.org/dc/elements/1.1/"
   xmlns:cc="http://creativecommons.org/ns#"
   xmlns:rdf="http://www.w3.org/1999/02/22-rdf-syntax-ns#"
   xmlns:svg="http://www.w3.org/2000/svg"
   xmlns="http://www.w3.org/2000/svg"
   xmlns:sodipodi="http://sodipodi.sourceforge.net/DTD/sodipodi-0.dtd"
   xmlns:inkscape="http://www.inkscape.org/namespaces/inkscape"
   version="1.0"
   width="1000"
   height="1000"
   id="svg5496"
   sodipodi:version="0.32"
   inkscape:version="0.47pre4 r22446"
   sodipodi:docname="sad+meem.init.svg"
   inkscape:output_extension="org.inkscape.output.svg.inkscape">
  <metadata
     id="metadata5594">
    <rdf:RDF>
      <cc:Work
         rdf:about="">
        <dc:format>image/svg+xml</dc:format>
        <dc:type
           rdf:resource="http://purl.org/dc/dcmitype/StillImage" />
        <dc:title />
      </cc:Work>
    </rdf:RDF>
  </metadata>
  <sodipodi:namedview
     inkscape:window-height="725"
     inkscape:pageshadow="2"
     inkscape:pageopacity="0.0"
     borderopacity="1.0"
     bordercolor="#666666"
     pagecolor="#ffffff"
     id="base"
     showgrid="false"
     showguides="true"
     inkscape:guide-bbox="true"
     inkscape:zoom="0.454"
     inkscape:cx="484.41322"
     inkscape:cy="570.87123"
     inkscape:window-x="0"
     inkscape:window-y="24"
     inkscape:current-layer="svg5496"
     inkscape:window-width="1280"
     inkscape:window-maximized="1">
    <sodipodi:guide
       orientation="horizontal"
       position="200"
       id="guide5596" />
  </sodipodi:namedview>
  <defs
     id="defs5498">
    <inkscape:perspective
       sodipodi:type="inkscape:persp3d"
       inkscape:vp_x="0 : 500 : 1"
       inkscape:vp_y="0 : 1000 : 0"
       inkscape:vp_z="1000 : 500 : 1"
       inkscape:persp3d-origin="500 : 333.33333 : 1"
       id="perspective8" />
    <inkscape:perspective
       id="perspective2822"
       inkscape:persp3d-origin="0.5 : 0.33333333 : 1"
       inkscape:vp_z="1 : 0.5 : 1"
       inkscape:vp_y="0 : 1000 : 0"
       inkscape:vp_x="0 : 0.5 : 1"
       sodipodi:type="inkscape:persp3d" />
    <inkscape:perspective
       id="perspective4773"
       inkscape:persp3d-origin="0.5 : 0.33333333 : 1"
       inkscape:vp_z="1 : 0.5 : 1"
       inkscape:vp_y="0 : 1000 : 0"
       inkscape:vp_x="0 : 0.5 : 1"
       sodipodi:type="inkscape:persp3d" />
  </defs>
  <g
     id="layer1"
     transform="translate(39.647577,146.90625)" />
  <path
     style="color:#000000;fill:#ff0000;fill-opacity:0.60784314;stroke:#000000;stroke-width:1;stroke-linecap:butt;stroke-linejoin:miter;stroke-miterlimit:4;stroke-opacity:1;stroke-dasharray:none;stroke-dashoffset:0;marker:none;visibility:visible;display:inline;overflow:visible;enable-background:accumulate"
     d="M 595.1961,247.6925 C 518.9804,249.0156 419.859,354.5757 336.24419,464.46 280.18189,461.0072 234.56489,450.7197 219.96589,396.1815 219.5287,390.3722 215.569,384.9144 208.33499,384.2607 166.57819,380.4871 98.1379,424.7353 69.4424,526.3807 58.4953,565.1578 56.9264,629.2882 77.2946,668.6373 54.9073,685.0834 41.2714,699.0019 0.3497,709.6402 L 0,800 c 62.2671,-15.1675 86.7748,-56.1369 137.9172,-59.654 32.3457,-2.2244 61.72849,31.4699 87.2012,55.6231 4.9495,4.6931 6.87029,5.2121 9.49149,-0.241 6.8909,-14.3359 24.9348,-58.1843 26.3954,-76.3839 0.4411,-5.4972 0.5075,-10.0521 -2.77209,-14.1318 C 234.23019,675.355 214.70539,662.2866 179.28749,655.775 126.714,646.1094 95.5366,587.5783 90.441,545.6548 c -0.5659,-4.6561 2.9073,-13.4298 5.366,-17.1066 22.7491,-34.0202 75.56209,-64.3865 91.06119,-47.7069 24.6437,26.5206 26.5393,56.6675 86.7924,68.6552 -7.4701,10.8071 -14.6888,22.9106 -21.5743,33.1401 -10.0142,14.8775 4.328,21.8409 11.5476,13.8305 9.6536,-10.711 22.9477,-25.1954 35.2168,-41.7625 146.3832,16.8639 298.66,-6.6486 343.0495,-53.3031 39.9427,-41.9807 82.2283,-117.0559 73.1598,-158.7339 -8.2047,-37.7089 -67.6426,-95.1073 -119.86389,-94.9751 z m 67.451,163.3693 c -20.0636,24.2179 -132.3847,61.7124 -296.6328,55.3869 51.7732,-62.6721 115.2801,-121.8771 187.63019,-124.8659 44.7288,2.1461 79.97901,39.8722 109.00261,69.479 z"
     id="path2828"
     sodipodi:nodetypes="cccsscccssssssssscsscssccccc" />
</svg>
