<?xml version="1.0" encoding="UTF-8" standalone="no"?>
<!-- Created with Inkscape (http://www.inkscape.org/) -->

<svg
   xmlns:dc="http://purl.org/dc/elements/1.1/"
   xmlns:cc="http://creativecommons.org/ns#"
   xmlns:rdf="http://www.w3.org/1999/02/22-rdf-syntax-ns#"
   xmlns:svg="http://www.w3.org/2000/svg"
   xmlns="http://www.w3.org/2000/svg"
   xmlns:sodipodi="http://sodipodi.sourceforge.net/DTD/sodipodi-0.dtd"
   xmlns:inkscape="http://www.inkscape.org/namespaces/inkscape"
   version="1.0"
   width="1000"
   height="1000"
   id="svg5496"
   sodipodi:version="0.32"
   inkscape:version="0.47pre0 r21549"
   sodipodi:docname="sad+meem.init.svg"
   inkscape:output_extension="org.inkscape.output.svg.inkscape">
  <metadata
     id="metadata5594">
    <rdf:RDF>
      <cc:Work
         rdf:about="">
        <dc:format>image/svg+xml</dc:format>
        <dc:type
           rdf:resource="http://purl.org/dc/dcmitype/StillImage" />
        <dc:title></dc:title>
      </cc:Work>
    </rdf:RDF>
  </metadata>
  <sodipodi:namedview
     inkscape:window-height="721"
     inkscape:pageshadow="2"
     inkscape:pageopacity="0.0"
     borderopacity="1.0"
     bordercolor="#666666"
     pagecolor="#ffffff"
     id="base"
     showgrid="false"
     showguides="true"
     inkscape:guide-bbox="true"
     inkscape:zoom="0.454"
     inkscape:cx="484.41322"
     inkscape:cy="570.87123"
     inkscape:window-x="0"
     inkscape:window-y="28"
     inkscape:current-layer="svg5496"
     inkscape:window-width="1280"
     inkscape:window-maximized="1">
    <sodipodi:guide
       orientation="horizontal"
       position="200"
       id="guide5596" />
  </sodipodi:namedview>
  <defs
     id="defs5498">
    <inkscape:perspective
       sodipodi:type="inkscape:persp3d"
       inkscape:vp_x="0 : 500 : 1"
       inkscape:vp_y="0 : 1000 : 0"
       inkscape:vp_z="1000 : 500 : 1"
       inkscape:persp3d-origin="500 : 333.33333 : 1"
       id="perspective8" />
    <inkscape:perspective
       id="perspective2822"
       inkscape:persp3d-origin="0.5 : 0.33333333 : 1"
       inkscape:vp_z="1 : 0.5 : 1"
       inkscape:vp_y="0 : 1000 : 0"
       inkscape:vp_x="0 : 0.5 : 1"
       sodipodi:type="inkscape:persp3d" />
  </defs>
  <g
     id="layer1"
     transform="translate(39.647577,146.90625)" />
  <path
     style="color:#000000;fill:#000000;stroke:#000000;stroke-width:1px;stroke-linecap:butt;stroke-linejoin:miter;stroke-miterlimit:4;stroke-opacity:1;stroke-dasharray:none;stroke-dashoffset:0;marker:none;visibility:visible;display:inline;overflow:visible;enable-background:accumulate;fill-opacity:1"
     d="m 621.27258,237.84375 c -79.04428,1.3723 -181.84438,110.84994 -268.5625,224.8125 -49.67483,-7.34453 -105.45296,-14.25034 -120.59375,-70.8125 -0.45336,-6.02507 -4.56004,-13.75949 -12.0625,-14.4375 C 176.74724,373.49257 105.76685,421.45721 76.00647,526.875 64.653065,567.09125 63.0259,633.60173 84.150075,674.41125 57.168381,691.93816 32.644369,709.66636 0.55382709,717.40625 L -1.1024229,800 C 53.125648,784.26951 93.982118,752.4288 147.02258,748.78125 c 33.5461,-2.30694 64.01952,32.63784 90.4375,57.6875 5.13313,4.86726 7.12526,5.40552 9.84375,-0.25 7.1467,-14.8679 25.86018,-60.34359 27.375,-79.21875 0.45754,-5.70117 0.5264,-10.42522 -2.875,-14.65625 -24.89378,-30.96553 -46.51796,-43.3909 -81.87561,-55.42063 -46.05659,-15.66982 -71.80481,-67.52023 -87.90984,-117.58587 -1.4896,-4.63069 -1.2188,-6.40103 1.3311,-10.21428 23.59349,-35.28286 76.16172,-64.98246 98.20435,-55.12297 12.47336,5.57923 27.86437,48.84954 45.40625,63.5 8.25974,6.8983 24.84459,10.07287 40.84375,13.34875 -7.74741,11.20813 -15.23392,23.76083 -22.375,34.37 -10.38579,15.42969 4.48864,22.65145 11.97624,14.34375 10.01188,-11.10847 23.79926,-26.13039 36.52376,-43.3125 151.81596,17.48985 309.74425,-6.89528 355.78125,-55.28125 41.42508,-43.53873 85.27999,-121.40018 75.875,-164.625 -8.50932,-39.10839 -70.15308,-98.63717 -124.3125,-98.5 z m -41.53125,97.34375 c 32.99267,0.0573 81.18602,36.69095 111.48562,72.08875 -20.8083,25.11676 -137.29803,64.00282 -307.64187,57.4425 53.69471,-64.99813 119.55843,-126.40033 194.59375,-129.5 0.51684,-0.0214 1.03881,-0.0322 1.5625,-0.0312 l 0,-5e-5 z"
     id="path2828"
     sodipodi:nodetypes="cccsscccsssssssssscsscssccccscc" />
</svg>
