<?xml version="1.0" encoding="UTF-8" standalone="no"?>
<!-- Created with Inkscape (http://www.inkscape.org/) -->

<svg
   xmlns:dc="http://purl.org/dc/elements/1.1/"
   xmlns:cc="http://creativecommons.org/ns#"
   xmlns:rdf="http://www.w3.org/1999/02/22-rdf-syntax-ns#"
   xmlns:svg="http://www.w3.org/2000/svg"
   xmlns="http://www.w3.org/2000/svg"
   xmlns:sodipodi="http://sodipodi.sourceforge.net/DTD/sodipodi-0.dtd"
   xmlns:inkscape="http://www.inkscape.org/namespaces/inkscape"
   version="1.0"
   width="1000"
   height="1000"
   id="svg5496"
   sodipodi:version="0.32"
   inkscape:version="0.47pre4 r22446"
   sodipodi:docname="sad.fina.svg"
   inkscape:output_extension="org.inkscape.output.svg.inkscape">
  <metadata
     id="metadata5594">
    <rdf:RDF>
      <cc:Work
         rdf:about="">
        <dc:format>image/svg+xml</dc:format>
        <dc:type
           rdf:resource="http://purl.org/dc/dcmitype/StillImage" />
      </cc:Work>
    </rdf:RDF>
  </metadata>
  <sodipodi:namedview
     inkscape:pageshadow="2"
     inkscape:pageopacity="0.0"
     guidetolerance="10.0"
     gridtolerance="10.0"
     objecttolerance="10.0"
     borderopacity="1.0"
     bordercolor="#666666"
     pagecolor="#ffffff"
     id="base"
     showgrid="false"
     showguides="true"
     inkscape:guide-bbox="true"
     inkscape:zoom="0.236"
     inkscape:cx="500"
     inkscape:cy="500"
     inkscape:window-x="0"
     inkscape:window-y="0"
     inkscape:current-layer="svg5496"
     inkscape:window-width="1214"
     inkscape:window-height="767"
     inkscape:window-maximized="1">
    <sodipodi:guide
       orientation="horizontal"
       position="200"
       id="guide5596" />
  </sodipodi:namedview>
  <defs
     id="defs5498">
    <inkscape:perspective
       sodipodi:type="inkscape:persp3d"
       inkscape:vp_x="0 : 500 : 1"
       inkscape:vp_y="0 : 1000 : 0"
       inkscape:vp_z="1000 : 500 : 1"
       inkscape:persp3d-origin="500 : 333.33333 : 1"
       id="perspective3437" />
    <inkscape:perspective
       id="perspective3446"
       inkscape:persp3d-origin="372.04724 : 350.78739 : 1"
       inkscape:vp_z="744.09448 : 526.18109 : 1"
       inkscape:vp_y="0 : 1000 : 0"
       inkscape:vp_x="0 : 526.18109 : 1"
       sodipodi:type="inkscape:persp3d" />
    <inkscape:perspective
       sodipodi:type="inkscape:persp3d"
       inkscape:vp_x="0 : 526.18109 : 1"
       inkscape:vp_y="0 : 1000 : 0"
       inkscape:vp_z="744.09448 : 526.18109 : 1"
       inkscape:persp3d-origin="372.04724 : 350.78739 : 1"
       id="perspective2388" />
    <inkscape:perspective
       id="perspective8"
       inkscape:persp3d-origin="500 : 333.33333 : 1"
       inkscape:vp_z="1000 : 500 : 1"
       inkscape:vp_y="0 : 1000 : 0"
       inkscape:vp_x="0 : 500 : 1"
       sodipodi:type="inkscape:persp3d" />
    <inkscape:perspective
       id="perspective4099"
       inkscape:persp3d-origin="0.5 : 0.33333333 : 1"
       inkscape:vp_z="1 : 0.5 : 1"
       inkscape:vp_y="0 : 1000 : 0"
       inkscape:vp_x="0 : 0.5 : 1"
       sodipodi:type="inkscape:persp3d" />
  </defs>
  <g
     id="layer1"
     transform="matrix(1.3,0,0,1.3,-415.32414,80.501001)" />
  <g
     id="g3515"
     transform="matrix(1.3,0,0,1.3,-255.00976,116.34555)" />
  <path
     style="fill:#ff0000;fill-opacity:0.60784314;fill-rule:evenodd;stroke:#000000;stroke-width:1;stroke-linecap:butt;stroke-linejoin:miter;stroke-miterlimit:4;stroke-opacity:1;stroke-dasharray:none"
     d="m 849.67337,448.0966 c -69.491,-0.6188 -221.143,121.6838 -310.778,222.0219 -46.278,-4.1328 -83.431,-10.0265 -108.781,-25.8236 l -36.832,-62.9043 c -3.702,-6.3234 -12.42,-11.8048 -17.803,2.2422 l -31.483,82.2071 c -3.115,8.1251 1.684,12.4739 5.438,17.7341 24.02,33.672 40.392,76.7228 50.91,147.4546 0.606,5.4294 1.169,8.3926 -1.342,14.2659 -39.828,98.6879 -218.511,136.989 -298.587,133.5867 -122.423004,-5.25 -181.072004,-84.5628 -182.177004,-157.3853 -0.856,-56.4643 32.943,-107.4512 59.373,-139.5036 10.667,-12.9356 0.999,-32.6692 -16.116,-13.2805 -44.214,50.0873 -138.828996,228.3916 -29.236,346.2543 49.11,52.8163 89.78,60.9279 178.561004,62.0004 34.924,0.03 192.553,-27.4424 266.37,-113.359 31.284,-36.3624 46.82,-119.2733 58.07,-206.072 48.64,11.3237 134.646,20.9275 212.967,14.9531 13.316,-1.0156 26.682,-2.3746 40.002,-4.0782 68.589,24.0814 208.16805,51.1049 311.52005,31.5896 l 0.31998,-90.146 c -37.56598,11.4451 -133.85003,27.8513 -182.44903,22.2333 28.325,-13.1378 67.25605,-38.8922 83.92205,-57.3943 14.487,-16.082 54.317,-75.1345 58.955,-113.4274 0.695,-5.7477 0.03,-10.8777 -1.606,-16.53969 -17.316,-46.4442 -54.66,-97.47971 -109.21805,-96.62931 z m -53.437,118.1164 c 36.139,-0.4279 60.6,22.716 74.616,39.7514 -54.861,50.2135 -185.832,69.3644 -262.961,66.5952 40.047,-37.2277 117.749,-105.5106 188.345,-106.3466 z"
     id="path2394-5"
     sodipodi:nodetypes="cccccccccssssscccccccccccccccs" />
</svg>
