<?xml version="1.0" encoding="UTF-8" standalone="no"?>
<!-- Created with Inkscape (http://www.inkscape.org/) -->

<svg
   xmlns:dc="http://purl.org/dc/elements/1.1/"
   xmlns:cc="http://creativecommons.org/ns#"
   xmlns:rdf="http://www.w3.org/1999/02/22-rdf-syntax-ns#"
   xmlns:svg="http://www.w3.org/2000/svg"
   xmlns="http://www.w3.org/2000/svg"
   xmlns:sodipodi="http://sodipodi.sourceforge.net/DTD/sodipodi-0.dtd"
   xmlns:inkscape="http://www.inkscape.org/namespaces/inkscape"
   version="1.0"
   width="1000"
   height="1000"
   id="svg5496"
   sodipodi:version="0.32"
   inkscape:version="0.47pre4 r22446"
   sodipodi:docname="sad.isol.svg"
   inkscape:output_extension="org.inkscape.output.svg.inkscape">
  <metadata
     id="metadata5594">
    <rdf:RDF>
      <cc:Work
         rdf:about="">
        <dc:format>image/svg+xml</dc:format>
        <dc:type
           rdf:resource="http://purl.org/dc/dcmitype/StillImage" />
      </cc:Work>
    </rdf:RDF>
  </metadata>
  <sodipodi:namedview
     inkscape:pageshadow="2"
     inkscape:pageopacity="0.0"
     guidetolerance="10.0"
     gridtolerance="10.0"
     objecttolerance="10.0"
     borderopacity="1.0"
     bordercolor="#666666"
     pagecolor="#ffffff"
     id="base"
     showgrid="false"
     showguides="true"
     inkscape:guide-bbox="true"
     inkscape:zoom="0.236"
     inkscape:cx="228.04314"
     inkscape:cy="500"
     inkscape:window-x="0"
     inkscape:window-y="25"
     inkscape:current-layer="svg5496"
     inkscape:window-width="641"
     inkscape:window-height="618"
     inkscape:window-maximized="0">
    <sodipodi:guide
       orientation="horizontal"
       position="200"
       id="guide5596" />
  </sodipodi:namedview>
  <defs
     id="defs5498">
    <inkscape:perspective
       sodipodi:type="inkscape:persp3d"
       inkscape:vp_x="0 : 500 : 1"
       inkscape:vp_y="0 : 1000 : 0"
       inkscape:vp_z="1000 : 500 : 1"
       inkscape:persp3d-origin="500 : 333.33333 : 1"
       id="perspective8" />
    <inkscape:perspective
       id="perspective2388"
       inkscape:persp3d-origin="372.04724 : 350.78739 : 1"
       inkscape:vp_z="744.09448 : 526.18109 : 1"
       inkscape:vp_y="0 : 1000 : 0"
       inkscape:vp_x="0 : 526.18109 : 1"
       sodipodi:type="inkscape:persp3d" />
    <inkscape:perspective
       id="perspective5208"
       inkscape:persp3d-origin="0.5 : 0.33333333 : 1"
       inkscape:vp_z="1 : 0.5 : 1"
       inkscape:vp_y="0 : 1000 : 0"
       inkscape:vp_x="0 : 0.5 : 1"
       sodipodi:type="inkscape:persp3d" />
  </defs>
  <g
     id="layer1"
     transform="matrix(1.3,0,0,1.3,-64.19854,145.37235)" />
  <path
     style="fill:#ff0000;fill-opacity:0.60784314;fill-rule:evenodd;stroke:#000000;stroke-width:1;stroke-linecap:butt;stroke-linejoin:miter;stroke-miterlimit:4;stroke-opacity:1;stroke-dasharray:none"
     d="m 973.52044,499.927 c -69.013,-0.218 -206.769,106.583 -312.811,214.104 -42.076,-1.526 -87.319,-8.936 -112.583,-24.477 l -36.936,-62.289 c -3.713,-6.259 -12.4,-11.623 -17.668,2.358 l -30.795,81.819 c -3.046,8.086 1.716,12.377 5.472,17.58 24.049,33.302 40.58,75.931 51.432,146.115 0.632,5.387 1.237,8.356 -1.223,14.203 -43.085,107.59704 -235.40601,134.379 -295.80901,130.367 C -5.8855632,1004.531 43.550437,769.344 101.48744,697.497 c 6.854,-8.5 2.743,-31.182 -13.331003,-11.147 -42.964,53.552 -149.779,270.225 -39.729,377.133 51.399,49.925 96.914993,57.015 185.085993,57.573 34.685,-0.169 191.06601,-28.381 263.88001,-114.126 30.859,-36.29 53.658,-120.668 64.333,-206.93 48.369,10.966 123.993,17.965 201.737,11.584 107.869,-8.853 219.843,-40.416 268.91506,-95.526 14.294,-16.055 47.531,-73.994 51.918,-112.048 0.659,-5.714 -0.03,-10.833 -1.69,-16.446 -17.186,-45.513 -55.269,-89.346 -109.08606,-87.637 z m -51.872,105.932 c 31.853,-0.521 66.735,9.916 101.84406,41.797 -80.08306,60.188 -202.81006,73.197 -315.25206,66.683 50.755,-38.86 116.564,-87.657 177.578,-103.444 11.368,-2.941 23.366,-4.831 35.83,-5.036 z"
     id="path2394-0"
     sodipodi:nodetypes="cccccccccssscccccccccccccc" />
</svg>
