<?xml version="1.0" encoding="UTF-8" standalone="no"?>
<!-- Created with Inkscape (http://www.inkscape.org/) -->

<svg
   xmlns:dc="http://purl.org/dc/elements/1.1/"
   xmlns:cc="http://creativecommons.org/ns#"
   xmlns:rdf="http://www.w3.org/1999/02/22-rdf-syntax-ns#"
   xmlns:svg="http://www.w3.org/2000/svg"
   xmlns="http://www.w3.org/2000/svg"
   xmlns:sodipodi="http://sodipodi.sourceforge.net/DTD/sodipodi-0.dtd"
   xmlns:inkscape="http://www.inkscape.org/namespaces/inkscape"
   version="1.0"
   width="1000"
   height="1000"
   id="svg5496"
   sodipodi:version="0.32"
   inkscape:version="0.47pre0 r21549"
   sodipodi:docname="sad.fina.svg"
   inkscape:output_extension="org.inkscape.output.svg.inkscape">
  <metadata
     id="metadata5594">
    <rdf:RDF>
      <cc:Work
         rdf:about="">
        <dc:format>image/svg+xml</dc:format>
        <dc:type
           rdf:resource="http://purl.org/dc/dcmitype/StillImage" />
      </cc:Work>
    </rdf:RDF>
  </metadata>
  <sodipodi:namedview
     inkscape:pageshadow="2"
     inkscape:pageopacity="0.0"
     guidetolerance="10.0"
     gridtolerance="10.0"
     objecttolerance="10.0"
     borderopacity="1.0"
     bordercolor="#666666"
     pagecolor="#ffffff"
     id="base"
     showgrid="false"
     showguides="true"
     inkscape:guide-bbox="true"
     inkscape:zoom="0.236"
     inkscape:cx="500"
     inkscape:cy="500"
     inkscape:window-x="0"
     inkscape:window-y="25"
     inkscape:current-layer="svg5496">
    <sodipodi:guide
       orientation="horizontal"
       position="200"
       id="guide5596" />
  </sodipodi:namedview>
  <defs
     id="defs5498">
    <inkscape:perspective
       sodipodi:type="inkscape:persp3d"
       inkscape:vp_x="0 : 500 : 1"
       inkscape:vp_y="0 : 1000 : 0"
       inkscape:vp_z="1000 : 500 : 1"
       inkscape:persp3d-origin="500 : 333.33333 : 1"
       id="perspective3437" />
    <inkscape:perspective
       id="perspective3446"
       inkscape:persp3d-origin="372.04724 : 350.78739 : 1"
       inkscape:vp_z="744.09448 : 526.18109 : 1"
       inkscape:vp_y="0 : 1000 : 0"
       inkscape:vp_x="0 : 526.18109 : 1"
       sodipodi:type="inkscape:persp3d" />
    <inkscape:perspective
       sodipodi:type="inkscape:persp3d"
       inkscape:vp_x="0 : 526.18109 : 1"
       inkscape:vp_y="0 : 1000 : 0"
       inkscape:vp_z="744.09448 : 526.18109 : 1"
       inkscape:persp3d-origin="372.04724 : 350.78739 : 1"
       id="perspective2388" />
    <inkscape:perspective
       id="perspective8"
       inkscape:persp3d-origin="500 : 333.33333 : 1"
       inkscape:vp_z="1000 : 500 : 1"
       inkscape:vp_y="0 : 1000 : 0"
       inkscape:vp_x="0 : 500 : 1"
       sodipodi:type="inkscape:persp3d" />
  </defs>
  <g
     id="layer1"
     transform="matrix(1.3,0,0,1.3,-415.32414,80.501001)" />
  <g
     id="g3515"
     transform="matrix(1.3,0,0,1.3,-255.00976,116.34555)" />
  <path
     style="fill:#000000;fill-rule:evenodd;stroke:#000000;stroke-width:1px;stroke-linecap:butt;stroke-linejoin:miter;stroke-opacity:1"
     d="M 867.8125 446.6875 C 866.55186 446.67027 865.33244 446.67768 864.09375 446.71875 C 789.9981 446.48557 635.35212 558.93416 521.5 674.375 C 476.32509 672.7357 427.75067 664.78137 400.625 648.09375 L 360.96875 581.25 C 356.98267 574.5305 347.65505 568.73975 342 583.75 L 308.9375 671.59375 C 305.66648 680.27599 310.81024 684.88333 314.84375 690.46875 C 340.66355 726.22324 358.38139 772.02428 370.03125 847.375 C 370.71044 853.16033 371.32773 856.31612 368.6875 862.59375 C 322.42869 978.11484 115.97694 1006.901 51.125 1002.5938 C -194.18687 986.30041 -144.48284 732.60604 -78.90625 653.21875 C -71.439492 644.17946 -74.605363 624.30621 -93.21875 644.65625 C -142.72112 698.7772 -254.02743 934.78141 -135.875 1049.5625 C -80.68938 1103.1639 -31.821561 1110.7764 62.84375 1111.375 C 100.08115 1111.1928 267.9791 1080.9339 346.15625 988.875 C 379.28866 949.9127 405.94449 863.58401 417.40625 770.96875 C 469.33582 782.74361 550.49844 790.28801 633.96875 783.4375 C 648.16025 782.27279 662.40185 780.74184 676.59375 778.84375 C 749.87209 804.09872 890.26829 821.44195 1000.3438 800 L 1002.375 723.0625 C 962.90184 727.1358 901.50994 737.56662 849.65625 731.875 C 879.77706 717.69347 905.0309 700.67326 922.6875 680.84375 C 938.03478 663.60792 971.57205 597.10696 976.28125 556.25 C 976.98815 550.11738 976.25315 544.65176 974.46875 538.625 C 955.89735 475.89758 906.89206 447.22158 867.8125 446.6875 z M 801.65625 562.53125 C 835.8541 561.97066 873.3058 573.20844 911 607.4375 C 825.01891 672.05854 693.25357 685.99387 572.53125 679 C 627.02409 637.2783 697.67887 584.88685 763.1875 567.9375 C 775.39197 564.77979 788.27448 562.75061 801.65625 562.53125 z "
     id="path2394" />
</svg>
