<?xml version="1.0" encoding="UTF-8" standalone="no"?>
<!-- Created with Inkscape (http://www.inkscape.org/) -->

<svg
   xmlns:dc="http://purl.org/dc/elements/1.1/"
   xmlns:cc="http://creativecommons.org/ns#"
   xmlns:rdf="http://www.w3.org/1999/02/22-rdf-syntax-ns#"
   xmlns:svg="http://www.w3.org/2000/svg"
   xmlns="http://www.w3.org/2000/svg"
   xmlns:sodipodi="http://sodipodi.sourceforge.net/DTD/sodipodi-0.dtd"
   xmlns:inkscape="http://www.inkscape.org/namespaces/inkscape"
   version="1.0"
   width="1000"
   height="1000"
   id="svg5496"
   sodipodi:version="0.32"
   inkscape:version="0.47pre4 r22446"
   sodipodi:docname="sad.init.svg"
   inkscape:output_extension="org.inkscape.output.svg.inkscape">
  <metadata
     id="metadata5594">
    <rdf:RDF>
      <cc:Work
         rdf:about="">
        <dc:format>image/svg+xml</dc:format>
        <dc:type
           rdf:resource="http://purl.org/dc/dcmitype/StillImage" />
        <dc:title />
      </cc:Work>
    </rdf:RDF>
  </metadata>
  <sodipodi:namedview
     inkscape:window-height="767"
     inkscape:window-width="1278"
     inkscape:pageshadow="2"
     inkscape:pageopacity="0.0"
     borderopacity="1.0"
     bordercolor="#666666"
     pagecolor="#ffffff"
     id="base"
     showgrid="false"
     showguides="true"
     inkscape:guide-bbox="true"
     inkscape:zoom="0.87160772"
     inkscape:cx="143.52402"
     inkscape:cy="346.29339"
     inkscape:window-x="0"
     inkscape:window-y="0"
     inkscape:current-layer="svg5496"
     inkscape:window-maximized="1">
    <sodipodi:guide
       orientation="horizontal"
       position="200"
       id="guide5596" />
  </sodipodi:namedview>
  <defs
     id="defs5498">
    <inkscape:perspective
       sodipodi:type="inkscape:persp3d"
       inkscape:vp_x="0 : 500 : 1"
       inkscape:vp_y="0 : 1000 : 0"
       inkscape:vp_z="1000 : 500 : 1"
       inkscape:persp3d-origin="500 : 333.33333 : 1"
       id="perspective4236" />
    <inkscape:perspective
       id="perspective4225"
       inkscape:persp3d-origin="0.5 : 0.33333333 : 1"
       inkscape:vp_z="1 : 0.5 : 1"
       inkscape:vp_y="0 : 1000 : 0"
       inkscape:vp_x="0 : 0.5 : 1"
       sodipodi:type="inkscape:persp3d" />
  </defs>
  <g
     id="layer1" />
  <path
     sodipodi:nodetypes="ccssssssccccscscccss"
     style="fill:#ff0000;fill-opacity:0.60784314;stroke:#000000;stroke-width:0;stroke-linecap:butt;stroke-linejoin:miter;stroke-miterlimit:4;stroke-opacity:1;stroke-dasharray:none"
     d="M 523.28073,514.68267 C 436.24978,510.42833 303.11862,633.86693 237.63478,706.59522 183.60374,692.25753 147.62785,662.2274 131.609,635.32939 119.01002,614.17387 96.89686,614.74892 86.77143,632.89813 68.33952,665.93624 39.585139,699.52871 -0.66687,709.25999 -36.540982,717.93287 -14.499771,804.79046 0,800 c 20.7403,-6.85222 48.63196,-35.21261 68.38778,-69.75971 10.00212,-17.49076 14.42782,-18.80987 28.84684,-1.18596 20.67895,25.27521 48.04507,43.88558 81.826,58.25172 -9.23684,22.51748 -20.90831,49.64979 -24.56611,82.57521 -4.89181,20.95395 24.24053,31.10835 33.67356,12.69867 4.96976,-25.24844 19.56949,-72.15183 27.17686,-81.67436 91.53397,25.58155 258.26026,22.20208 351.10052,-52.25 12.84062,-10.29737 60.23911,-86.69652 67.99194,-131.34097 9.68272,-55.49984 -80.66883,-101.14158 -111.15666,-102.63193 z m 43.40755,152.51883 c 3.55124,3.91735 3.96952,6.65793 -0.11678,9.80113 -30.4644,36.68214 -220.41401,50.18914 -287.21726,40.07228 19.85553,-20.59573 116.99335,-91.83751 159.39873,-96.39889 40.35051,-4.34035 94.85539,10.03521 127.93531,46.52548 z"
     id="path2815" />
</svg>
