<?xml version="1.0" encoding="UTF-8" standalone="no"?>
<!-- Created with Inkscape (http://www.inkscape.org/) -->

<svg
   xmlns:dc="http://purl.org/dc/elements/1.1/"
   xmlns:cc="http://creativecommons.org/ns#"
   xmlns:rdf="http://www.w3.org/1999/02/22-rdf-syntax-ns#"
   xmlns:svg="http://www.w3.org/2000/svg"
   xmlns="http://www.w3.org/2000/svg"
   xmlns:sodipodi="http://sodipodi.sourceforge.net/DTD/sodipodi-0.dtd"
   xmlns:inkscape="http://www.inkscape.org/namespaces/inkscape"
   version="1.0"
   width="1000"
   height="1000"
   id="svg5496"
   sodipodi:version="0.32"
   inkscape:version="0.47pre0 r21549"
   sodipodi:docname="sad.medi.svg"
   inkscape:output_extension="org.inkscape.output.svg.inkscape">
  <metadata
     id="metadata5594">
    <rdf:RDF>
      <cc:Work
         rdf:about="">
        <dc:format>image/svg+xml</dc:format>
        <dc:type
           rdf:resource="http://purl.org/dc/dcmitype/StillImage" />
      </cc:Work>
    </rdf:RDF>
  </metadata>
  <sodipodi:namedview
     inkscape:pageshadow="2"
     inkscape:pageopacity="0.0"
     guidetolerance="10.0"
     gridtolerance="10.0"
     objecttolerance="10.0"
     borderopacity="1.0"
     bordercolor="#666666"
     pagecolor="#ffffff"
     id="base"
     showgrid="false"
     showguides="true"
     inkscape:guide-bbox="true"
     inkscape:zoom="0.51"
     inkscape:cx="92.156863"
     inkscape:cy="500"
     inkscape:window-x="0"
     inkscape:window-y="25"
     inkscape:current-layer="svg5496">
    <sodipodi:guide
       orientation="horizontal"
       position="200"
       id="guide5596" />
  </sodipodi:namedview>
  <defs
     id="defs5498">
    <inkscape:perspective
       sodipodi:type="inkscape:persp3d"
       inkscape:vp_x="0 : 500 : 1"
       inkscape:vp_y="0 : 1000 : 0"
       inkscape:vp_z="1000 : 500 : 1"
       inkscape:persp3d-origin="500 : 333.33333 : 1"
       id="perspective8" />
    <inkscape:perspective
       id="perspective2388"
       inkscape:persp3d-origin="372.04724 : 350.78739 : 1"
       inkscape:vp_z="744.09448 : 526.18109 : 1"
       inkscape:vp_y="0 : 1000 : 0"
       inkscape:vp_x="0 : 526.18109 : 1"
       sodipodi:type="inkscape:persp3d" />
  </defs>
  <g
     id="layer1"
     transform="matrix(1.3,0,0,1.3,-205.44461,-82.184593)" />
  <path
     style="fill:#000000;fill-rule:evenodd;stroke:#000000;stroke-width:1px;stroke-linecap:butt;stroke-linejoin:miter;stroke-opacity:1"
     d="M 637.15625 452.96875 C 634.71774 452.94492 632.58574 453.11673 630.78125 453.46875 C 551.53561 468.92781 368.08569 588.96953 284.125 702.28125 C 220.59599 694.56519 183.03945 661.74585 162.53125 637.21875 C 149.41489 621.53203 143.1285 615.02534 127.40625 627.1875 C 102.16221 646.71536 59.059531 701.91272 3.09375 698.46875 L -9.59375 800 C 45.061307 800.62735 102.00755 715.76413 124.59375 706.5625 C 151.01708 745.52109 185.59478 774.21017 233.9375 785.53125 C 218.02987 814.71804 201.86113 854.63298 199.21875 905.9375 C 198.06537 928.33129 233.10335 931.456 237.6875 907.0625 C 244.36799 871.5139 254.285 837.94382 270.5 797.4375 C 349.05503 816.93221 439.71453 819.20336 516.8125 811.5625 C 615.54826 824.11396 721.72585 833.90976 815.03125 836.15625 L 818.0625 724.78125 C 753.28356 733.91911 692.54308 751.10918 622.6875 750.09375 C 654.07121 726.53999 696.72653 703.23243 718.25 672.1875 C 736.26329 646.20554 762.12195 601.36943 773.53125 556.71875 C 775.98079 495.23257 673.73387 453.32622 637.15625 452.96875 z M 582.5 573.09375 C 613.35558 572.39937 663.3066 599.14155 682.375 615.71875 C 684.32673 617.4155 685.14512 625.78899 682.4375 628.125 C 642.43536 662.637 460.28629 717.90666 338.84375 712.625 C 382.64375 645.92338 549.03825 575.83393 579.5625 573.25 C 580.51638 573.16925 581.50466 573.11615 582.5 573.09375 z "
     id="path2394" />
</svg>
