<?xml version="1.0" encoding="UTF-8" standalone="no"?>
<!-- Created with Inkscape (http://www.inkscape.org/) -->

<svg
   xmlns:dc="http://purl.org/dc/elements/1.1/"
   xmlns:cc="http://creativecommons.org/ns#"
   xmlns:rdf="http://www.w3.org/1999/02/22-rdf-syntax-ns#"
   xmlns:svg="http://www.w3.org/2000/svg"
   xmlns="http://www.w3.org/2000/svg"
   xmlns:sodipodi="http://sodipodi.sourceforge.net/DTD/sodipodi-0.dtd"
   xmlns:inkscape="http://www.inkscape.org/namespaces/inkscape"
   version="1.0"
   width="1000"
   height="1000"
   id="svg5496"
   sodipodi:version="0.32"
   inkscape:version="0.47pre4 r22446"
   sodipodi:docname="sad.medi.svg"
   inkscape:output_extension="org.inkscape.output.svg.inkscape">
  <metadata
     id="metadata5594">
    <rdf:RDF>
      <cc:Work
         rdf:about="">
        <dc:format>image/svg+xml</dc:format>
        <dc:type
           rdf:resource="http://purl.org/dc/dcmitype/StillImage" />
      </cc:Work>
    </rdf:RDF>
  </metadata>
  <sodipodi:namedview
     inkscape:pageshadow="2"
     inkscape:pageopacity="0.0"
     guidetolerance="10.0"
     gridtolerance="10.0"
     objecttolerance="10.0"
     borderopacity="1.0"
     bordercolor="#666666"
     pagecolor="#ffffff"
     id="base"
     showgrid="false"
     showguides="true"
     inkscape:guide-bbox="true"
     inkscape:zoom="0.51"
     inkscape:cx="92.156863"
     inkscape:cy="500"
     inkscape:window-x="0"
     inkscape:window-y="24"
     inkscape:current-layer="svg5496"
     inkscape:window-width="1280"
     inkscape:window-height="725"
     inkscape:window-maximized="1">
    <sodipodi:guide
       orientation="horizontal"
       position="200"
       id="guide5596" />
  </sodipodi:namedview>
  <defs
     id="defs5498">
    <inkscape:perspective
       sodipodi:type="inkscape:persp3d"
       inkscape:vp_x="0 : 500 : 1"
       inkscape:vp_y="0 : 1000 : 0"
       inkscape:vp_z="1000 : 500 : 1"
       inkscape:persp3d-origin="500 : 333.33333 : 1"
       id="perspective8" />
    <inkscape:perspective
       id="perspective2388"
       inkscape:persp3d-origin="372.04724 : 350.78739 : 1"
       inkscape:vp_z="744.09448 : 526.18109 : 1"
       inkscape:vp_y="0 : 1000 : 0"
       inkscape:vp_x="0 : 526.18109 : 1"
       sodipodi:type="inkscape:persp3d" />
    <inkscape:perspective
       id="perspective4121"
       inkscape:persp3d-origin="0.5 : 0.33333333 : 1"
       inkscape:vp_z="1 : 0.5 : 1"
       inkscape:vp_y="0 : 1000 : 0"
       inkscape:vp_x="0 : 0.5 : 1"
       sodipodi:type="inkscape:persp3d" />
  </defs>
  <g
     id="layer1"
     transform="matrix(1.3,0,0,1.3,-205.44461,-82.184593)" />
  <path
     style="fill:#ff0000;fill-opacity:0.60784314;fill-rule:evenodd;stroke:#000000;stroke-width:1;stroke-linecap:butt;stroke-linejoin:miter;stroke-miterlimit:4;stroke-opacity:1;stroke-dasharray:none"
     d="M 542.4924,478.2571 C 472.4038,493.4019 332.7492,589.8697 249.1591,711.1678 192.6112,705.4536 159.719,674.8973 141.0699,653.4858 129.1427,639.7918 123.4443,634.1267 109.7015,645.2074 87.6359,662.9988 50.3514,712.4134 0.5954,710.357 L 0,800 c 58.1323,-18.8649 88.7345,-75.6873 108.6249,-84.2621 24.1598,34.1199 57.5894,58.9752 100.7174,68.1624 -9.5451,19.93 -24.294,70.7851 -28.673,107.5348 -2.3563,19.7749 23.1669,22.0524 26.8007,0.3105 5.2954,-31.6847 13.5004,-61.6704 27.1733,-97.9278 70.101,15.9042 165.1959,18.3847 233.5174,10.2201 87.8961,9.3777 172.9607,9.7197 255.8505,10.0442 l -0.04,-90.5795 c -57.3563,9.2734 -110.2448,21.6243 -172.2904,21.973 27.4452,-21.476 64.9033,-42.9351 83.4593,-70.8865 15.5296,-23.3927 34.7369,-70.3071 44.0684,-110.1584 -10.7878,-49.1618 -83.3078,-96.3111 -136.7165,-86.1736 l 4e-4,0 z m 59.7824,140.9313 c 1.7635,1.4718 2.6399,8.8921 0.2759,11.015 -34.9018,31.3605 -176.6909,94.3833 -307.5722,87.694 42.862,-74.7659 185.2348,-132.4752 212.2922,-135.3161 34.7316,-1.1954 67.0765,18.4332 95.0041,36.6071 z"
     id="path2394-4"
     sodipodi:nodetypes="ccssccccsscccccscccccccc" />
</svg>
