<?xml version="1.0" encoding="UTF-8" standalone="no"?>
<!-- Created with Inkscape (http://www.inkscape.org/) -->

<svg
   xmlns:dc="http://purl.org/dc/elements/1.1/"
   xmlns:cc="http://creativecommons.org/ns#"
   xmlns:rdf="http://www.w3.org/1999/02/22-rdf-syntax-ns#"
   xmlns:svg="http://www.w3.org/2000/svg"
   xmlns="http://www.w3.org/2000/svg"
   xmlns:sodipodi="http://sodipodi.sourceforge.net/DTD/sodipodi-0.dtd"
   xmlns:inkscape="http://www.inkscape.org/namespaces/inkscape"
   version="1.0"
   width="1000"
   height="1000"
   id="svg5496"
   sodipodi:version="0.32"
   inkscape:version="0.47pre0 r21549"
   sodipodi:docname="sad.init.svg"
   inkscape:output_extension="org.inkscape.output.svg.inkscape">
  <metadata
     id="metadata5594">
    <rdf:RDF>
      <cc:Work
         rdf:about="">
        <dc:format>image/svg+xml</dc:format>
        <dc:type
           rdf:resource="http://purl.org/dc/dcmitype/StillImage" />
        <dc:title></dc:title>
      </cc:Work>
    </rdf:RDF>
  </metadata>
  <sodipodi:namedview
     inkscape:window-height="721"
     inkscape:pageshadow="2"
     inkscape:pageopacity="0.0"
     borderopacity="1.0"
     bordercolor="#666666"
     pagecolor="#ffffff"
     id="base"
     showgrid="false"
     showguides="true"
     inkscape:guide-bbox="true"
     inkscape:zoom="0.454"
     inkscape:cx="500"
     inkscape:cy="500"
     inkscape:window-x="0"
     inkscape:window-y="28"
     inkscape:current-layer="svg5496"
     inkscape:window-width="1280"
     inkscape:window-maximized="1">
    <sodipodi:guide
       orientation="horizontal"
       position="200"
       id="guide5596" />
  </sodipodi:namedview>
  <defs
     id="defs5498">
    <inkscape:perspective
       sodipodi:type="inkscape:persp3d"
       inkscape:vp_x="0 : 500 : 1"
       inkscape:vp_y="0 : 1000 : 0"
       inkscape:vp_z="1000 : 500 : 1"
       inkscape:persp3d-origin="500 : 333.33333 : 1"
       id="perspective3735" />
    <inkscape:perspective
       id="perspective3721"
       inkscape:persp3d-origin="0.5 : 0.33333333 : 1"
       inkscape:vp_z="1 : 0.5 : 1"
       inkscape:vp_y="0 : 1000 : 0"
       inkscape:vp_x="0 : 0.5 : 1"
       sodipodi:type="inkscape:persp3d" />
  </defs>
  <g
     id="layer1" />
  <g
     id="g3709"
     transform="translate(-11.443774,-6.73485)"
     style="fill:#000000;stroke:#000000;stroke-opacity:1;fill-opacity:1">
    <g
       transform="matrix(1.3,0,0,1.3,-421.67849,10.11098)"
       id="layer1-7"
       style="fill:#000000;stroke:#000000;stroke-opacity:1;fill-opacity:1" />
    <path
       id="path2394"
       d="m 387.29171,457.74807 c -98.73365,3.36557 -250.47706,182.8921 -298.39551,251.94604 -17.896476,-0.67706 -57.349889,2.6987 -75.499449,0.36646 l -0.689427,95.9967 c 4.545762,1.59799 23.813972,0.39375 29.372109,0.65294 -3.562302,11.09618 -7.398164,31.57003 -8.904873,41.78607 -3.202662,21.71521 17.426517,29.63737 25.460765,10.125 6.994426,-16.98701 14.23254,-40.56609 19.604212,-51.88643 73.167843,-2.84128 274.465693,-21.62367 372.701813,-114.7756 12.18383,-11.55326 53.9145,-93.2257 58.0241,-139.26652 5.15438,-57.23953 -90.55372,-96.00546 -121.67374,-94.94466 z M 436.59375,607.5 c 4.46319,3.02865 4.59796,6.4331 0.70937,9.97375 -40.69859,37.05699 -169.87441,76.92899 -302.50061,91.4275 43.08504,-57.82765 126.58346,-126.79026 175.5131,-136.2581 40.64548,-7.86487 93.40391,12.5489 126.27814,34.85685 z"
       style="fill:#000000;stroke:#000000;stroke-width:1px;stroke-linecap:butt;stroke-linejoin:miter;stroke-opacity:1;fill-opacity:1"
       sodipodi:nodetypes="cccccsscscscscss" />
  </g>
</svg>
