<?xml version="1.0" encoding="UTF-8" standalone="no"?>
<!-- Created with Inkscape (http://www.inkscape.org/) -->

<svg
   xmlns:dc="http://purl.org/dc/elements/1.1/"
   xmlns:cc="http://creativecommons.org/ns#"
   xmlns:rdf="http://www.w3.org/1999/02/22-rdf-syntax-ns#"
   xmlns:svg="http://www.w3.org/2000/svg"
   xmlns="http://www.w3.org/2000/svg"
   xmlns:sodipodi="http://sodipodi.sourceforge.net/DTD/sodipodi-0.dtd"
   xmlns:inkscape="http://www.inkscape.org/namespaces/inkscape"
   version="1.0"
   width="1000"
   height="1000"
   id="svg5496"
   sodipodi:version="0.32"
   inkscape:version="0.47pre4 r22446"
   sodipodi:docname="seen.init.svg"
   inkscape:output_extension="org.inkscape.output.svg.inkscape">
  <metadata
     id="metadata5594">
    <rdf:RDF>
      <cc:Work
         rdf:about="">
        <dc:format>image/svg+xml</dc:format>
        <dc:type
           rdf:resource="http://purl.org/dc/dcmitype/StillImage" />
      </cc:Work>
    </rdf:RDF>
  </metadata>
  <sodipodi:namedview
     inkscape:pageshadow="2"
     inkscape:pageopacity="0.0"
     guidetolerance="10.0"
     gridtolerance="10.0"
     objecttolerance="10.0"
     borderopacity="1.0"
     bordercolor="#666666"
     pagecolor="#ffffff"
     id="base"
     showgrid="false"
     showguides="true"
     inkscape:guide-bbox="true"
     inkscape:zoom="0.70674434"
     inkscape:cx="156.73036"
     inkscape:cy="318.80124"
     inkscape:window-x="19"
     inkscape:window-y="0"
     inkscape:current-layer="svg5496"
     inkscape:window-width="948"
     inkscape:window-height="555"
     inkscape:window-maximized="0">
    <sodipodi:guide
       orientation="horizontal"
       position="200"
       id="guide5596" />
  </sodipodi:namedview>
  <defs
     id="defs5498">
    <inkscape:perspective
       sodipodi:type="inkscape:persp3d"
       inkscape:vp_x="0 : 500 : 1"
       inkscape:vp_y="0 : 1000 : 0"
       inkscape:vp_z="1000 : 500 : 1"
       inkscape:persp3d-origin="500 : 333.33333 : 1"
       id="perspective5126" />
    <inkscape:perspective
       id="perspective5135"
       inkscape:persp3d-origin="372.04724 : 350.78739 : 1"
       inkscape:vp_z="744.09448 : 526.18109 : 1"
       inkscape:vp_y="0 : 1000 : 0"
       inkscape:vp_x="0 : 526.18109 : 1"
       sodipodi:type="inkscape:persp3d" />
    <inkscape:perspective
       id="perspective6059"
       inkscape:persp3d-origin="0.5 : 0.33333333 : 1"
       inkscape:vp_z="1 : 0.5 : 1"
       inkscape:vp_y="0 : 1000 : 0"
       inkscape:vp_x="0 : 0.5 : 1"
       sodipodi:type="inkscape:persp3d" />
  </defs>
  <path
     style="fill:#ff0000;fill-opacity:0.60784314;fill-rule:evenodd;stroke:#000000;stroke-width:0.92221451px;stroke-linecap:butt;stroke-linejoin:miter;stroke-opacity:1"
     d="m 485.13301,514.62949 c -9.633,15.39341 -19.041,30.65901 -26.936,45.18271 -2.352,4.3239 -3.7,5.7741 -1.949,9.8533 6.849,15.9467 13.837,51.3988 8.692,58.9324 -10.803,15.8208 -77.587,0.5801 -108.011,-31.0585 4.153,-19.833 7.966,-29.853 10.335,-42.8973 2.155,-11.8641 -13.46811,-18.94185 -17.698,-7.2683 -20.76111,57.29605 -41.113,132.6112 -118.032,135.3985 -40.567,1.47 -69.588,-10.4562 -81.151,-31.3355 5.289,-10.3056 11.138,-25.0553 15.949,-37.07 2.307,-5.7627 -8.732,-17.4849 -16.425,-5.7867 C 111.70201,666.6679 66.79765,693.98139 0,701.8793 -36.189361,706.1582 -20.72149,804.74902 0,800 c 27.351118,-6.26842 65.002003,-31.65485 99.794544,-74.46452 23.777896,28.26745 75.634356,65.97042 123.348466,51.98562 44.65923,-13.08942 80.703,-52.8934 98.344,-98.945 34.303,41.9888 100.876,53.807 124.31,50.0157 8.63,-1.3964 18.271,-6.7886 23.002,-14.5738 42.437,-53.7835 42.296,-167.0489 24.99,-196.50381 -2.03,-3.7059 -5.547,-7.2692 -8.656,-2.8847 z"
     id="path2818"
     sodipodi:nodetypes="cccccssscscsscscsccc" />
  <g
     id="layer1"
     transform="matrix(1.3,0,0,1.3,-368.87924,0.54063)" />
</svg>
