<?xml version="1.0" encoding="UTF-8" standalone="no"?>
<!-- Created with Inkscape (http://www.inkscape.org/) -->

<svg
   xmlns:dc="http://purl.org/dc/elements/1.1/"
   xmlns:cc="http://creativecommons.org/ns#"
   xmlns:rdf="http://www.w3.org/1999/02/22-rdf-syntax-ns#"
   xmlns:svg="http://www.w3.org/2000/svg"
   xmlns="http://www.w3.org/2000/svg"
   xmlns:sodipodi="http://sodipodi.sourceforge.net/DTD/sodipodi-0.dtd"
   xmlns:inkscape="http://www.inkscape.org/namespaces/inkscape"
   version="1.0"
   width="1000"
   height="1000"
   id="svg5496"
   sodipodi:version="0.32"
   inkscape:version="0.47pre4 r22446"
   sodipodi:docname="seen.medi.alt.svg"
   inkscape:output_extension="org.inkscape.output.svg.inkscape">
  <metadata
     id="metadata5594">
    <rdf:RDF>
      <cc:Work
         rdf:about="">
        <dc:format>image/svg+xml</dc:format>
        <dc:type
           rdf:resource="http://purl.org/dc/dcmitype/StillImage" />
      </cc:Work>
    </rdf:RDF>
  </metadata>
  <sodipodi:namedview
     inkscape:pageshadow="2"
     inkscape:pageopacity="0.0"
     guidetolerance="10.0"
     gridtolerance="10.0"
     objecttolerance="10.0"
     borderopacity="1.0"
     bordercolor="#666666"
     pagecolor="#ffffff"
     id="base"
     showgrid="false"
     showguides="true"
     inkscape:guide-bbox="true"
     inkscape:zoom="1.3381741"
     inkscape:cx="183.24494"
     inkscape:cy="355.59381"
     inkscape:window-x="20"
     inkscape:window-y="0"
     inkscape:current-layer="svg5496"
     inkscape:window-width="641"
     inkscape:window-height="618"
     inkscape:window-maximized="0">
    <sodipodi:guide
       orientation="horizontal"
       position="200"
       id="guide5596" />
  </sodipodi:namedview>
  <defs
     id="defs5498">
    <inkscape:perspective
       sodipodi:type="inkscape:persp3d"
       inkscape:vp_x="0 : 500 : 1"
       inkscape:vp_y="0 : 1000 : 0"
       inkscape:vp_z="1000 : 500 : 1"
       inkscape:persp3d-origin="500 : 333.33333 : 1"
       id="perspective8" />
    <inkscape:perspective
       id="perspective2388"
       inkscape:persp3d-origin="372.04724 : 350.78739 : 1"
       inkscape:vp_z="744.09448 : 526.18109 : 1"
       inkscape:vp_y="0 : 1000 : 0"
       inkscape:vp_x="0 : 526.18109 : 1"
       sodipodi:type="inkscape:persp3d" />
    <inkscape:perspective
       id="perspective5421"
       inkscape:persp3d-origin="0.5 : 0.33333333 : 1"
       inkscape:vp_z="1 : 0.5 : 1"
       inkscape:vp_y="0 : 1000 : 0"
       inkscape:vp_x="0 : 0.5 : 1"
       sodipodi:type="inkscape:persp3d" />
  </defs>
  <g
     id="layer1"
     transform="translate(-237.88546,351.11316)" />
  <path
     sodipodi:nodetypes="cscsssssssscssss"
     id="path2816"
     d="M -0.432,709.4236 C -35.612927,708.72954 -23.616301,800.62817 0,800 29.796419,799.20745 55.682998,786.5769 89.673998,753.6181 109.556,782.9833 136.554,807.6153 196.05,806.9436 c 25.453,-0.2873 48.818,-19.351 73.863,-105.4444 1.185,-4.072 3.378,-3.5413 5.025,-0.4698 17.571,32.7806 56.30843,90.82681 95.325,96.5719 20.78887,3.06111 28.82788,-69.03652 0.04,-90.8758 -30.16129,-22.88118 -52.063,-50.0747 -71.562,-95.8245 -4.784,-11.2232 -24.193,-9.8661 -26.389,0.194 -3.369,15.434 -19.116,66.7735 -32.023,80.8955 -10.782,11.7951 -36.581,13.9809 -51.555,10.0763 -52.125,-15.9214 -36.83785,-42.443 -26.653,-76.3696 7.81494,-26.03222 -19.753,-34.1404 -28.196,-8.1702 -8.133,25.0198 -18.701,47.2229 -29.735,60.3467 -22.588002,26.867 -77.682884,32.08136 -104.622,31.5499 z"
     style="fill:#ff0000;fill-opacity:0.60784314;fill-rule:evenodd;stroke:#000000;stroke-width:0;stroke-linecap:butt;stroke-linejoin:miter;stroke-miterlimit:4;stroke-opacity:1;stroke-dasharray:none" />
</svg>
