<?xml version="1.0" encoding="UTF-8" standalone="no"?>
<!-- Created with Inkscape (http://www.inkscape.org/) -->
<svg
   xmlns:dc="http://purl.org/dc/elements/1.1/"
   xmlns:cc="http://creativecommons.org/ns#"
   xmlns:rdf="http://www.w3.org/1999/02/22-rdf-syntax-ns#"
   xmlns:svg="http://www.w3.org/2000/svg"
   xmlns="http://www.w3.org/2000/svg"
   xmlns:sodipodi="http://sodipodi.sourceforge.net/DTD/sodipodi-0.dtd"
   xmlns:inkscape="http://www.inkscape.org/namespaces/inkscape"
   version="1.0"
   width="1000"
   height="1000"
   id="svg5496"
   sodipodi:version="0.32"
   inkscape:version="0.46"
   sodipodi:docname="seen+baa+meem.init.svg"
   inkscape:output_extension="org.inkscape.output.svg.inkscape">
  <metadata
     id="metadata5594">
    <rdf:RDF>
      <cc:Work
         rdf:about="">
        <dc:format>image/svg+xml</dc:format>
        <dc:type
           rdf:resource="http://purl.org/dc/dcmitype/StillImage" />
      </cc:Work>
    </rdf:RDF>
  </metadata>
  <sodipodi:namedview
     inkscape:window-height="618"
     inkscape:window-width="641"
     inkscape:pageshadow="2"
     inkscape:pageopacity="0.0"
     guidetolerance="10.0"
     gridtolerance="10.0"
     objecttolerance="10.0"
     borderopacity="1.0"
     bordercolor="#666666"
     pagecolor="#ffffff"
     id="base"
     showgrid="false"
     showguides="true"
     inkscape:guide-bbox="true"
     inkscape:zoom="0.454"
     inkscape:cx="456.97365"
     inkscape:cy="564.01732"
     inkscape:window-x="0"
     inkscape:window-y="25"
     inkscape:current-layer="svg5496">
    <sodipodi:guide
       orientation="horizontal"
       position="200"
       id="guide5596" />
  </sodipodi:namedview>
  <defs
     id="defs5498">
    <inkscape:perspective
       sodipodi:type="inkscape:persp3d"
       inkscape:vp_x="0 : 500 : 1"
       inkscape:vp_y="0 : 1000 : 0"
       inkscape:vp_z="1000 : 500 : 1"
       inkscape:persp3d-origin="500 : 333.33333 : 1"
       id="perspective3202" />
    <inkscape:perspective
       id="perspective3211"
       inkscape:persp3d-origin="372.04724 : 350.78739 : 1"
       inkscape:vp_z="744.09448 : 526.18109 : 1"
       inkscape:vp_y="0 : 1000 : 0"
       inkscape:vp_x="0 : 526.18109 : 1"
       sodipodi:type="inkscape:persp3d" />
    <inkscape:perspective
       sodipodi:type="inkscape:persp3d"
       inkscape:vp_x="0 : 0.5 : 1"
       inkscape:vp_y="0 : 1000 : 0"
       inkscape:vp_z="1 : 0.5 : 1"
       inkscape:persp3d-origin="0.5 : 0.33333333 : 1"
       id="perspective2867" />
    <inkscape:perspective
       id="perspective2857"
       inkscape:persp3d-origin="500 : 333.33333 : 1"
       inkscape:vp_z="1000 : 500 : 1"
       inkscape:vp_y="0 : 1000 : 0"
       inkscape:vp_x="0 : 500 : 1"
       sodipodi:type="inkscape:persp3d" />
  </defs>
  <g
     id="layer1"
     transform="translate(-57.268722,138.16355)" />
  <g
     id="g3305"
     transform="matrix(1.0578869,0,0,1.0578869,225.91585,-51.359936)"
     style="fill:#000000;fill-opacity:1;stroke:#000000;stroke-width:0.94528061;stroke-miterlimit:4;stroke-dasharray:none;stroke-opacity:1">
    <g
       id="g3307"
       style="fill:#000000;fill-opacity:1;stroke:#000000;stroke-width:0.94528061;stroke-miterlimit:4;stroke-dasharray:none;stroke-opacity:1" />
    <path
       sodipodi:nodetypes="csssssssssscsssssscccssssssssssscscssssss"
       id="path2873"
       d="M 613.99657,332.32626 C 606.65669,355.20859 599.74872,377.47391 592.24366,407.66155 C 591.43557,410.91195 590.32067,412.69326 592.78744,414.4729 C 595.46368,416.40366 602.63266,426.55143 603.21871,430.03477 C 603.78925,433.42593 602.64728,434.90771 599.9579,436.7858 C 588.91356,444.49846 568.56022,446.96014 550.96565,437.56706 C 542.53123,433.06424 527.13828,424.0264 527.24091,413.31575 C 527.29351,407.63064 533.97027,392.76218 536.2679,382.2605 C 542.1489,355.38045 513.97025,348.51458 505.5101,367.92276 C 491.89357,399.16005 478.00633,430.43541 455.88463,452.52821 C 435.27337,473.11253 407.72236,485.89748 373.24237,483.90602 C 359.87008,483.13368 336.74753,485.40908 314.99783,462.87153 C 320.81748,453.45135 335.1662,432.46613 343.13932,414.35126 C 352.20799,393.74731 333.45892,380.93727 321.58309,395.4192 C 280.58178,445.41809 218.86813,502.7572 159.73831,499.50989 C 92.216426,495.73525 41.714232,456.78604 34.613414,413.05971 C 32.559468,400.41165 13.971522,393.32807 8.3311671,392.16359 C -43.63921,381.43401 -99.981303,429.51742 -129.93255,487.4673 C -164.32276,554.00571 -144.45463,650.55003 -133.81205,677.61726 C -148.88924,693.42948 -176.91277,701.60148 -214.81027,704.95748 L -211.83019,804.77406 C -156.71623,793.58019 -116.37071,757.54999 -82.910878,756.43932 C -43.016358,755.11505 2.2078482,802.55427 36.650349,825.64992 C 41.832449,829.12481 46.244567,829.50314 48.970039,824.41268 C 62.967453,798.26922 75.814556,769.52009 78.550465,744.4702 C 79.359348,737.0641 79.65747,728.30643 75.591566,722.41794 C 64.19166,705.9079 23.907388,677.59195 -25.557048,660.85288 C -68.227665,646.41288 -97.514591,592.97273 -107.04421,556.51151 C -108.31797,551.63798 -101.8957,539.58549 -93.119205,531.38061 C -72.40053,512.01135 -36.343002,484.89829 -13.912518,494.72557 C -1.6881401,500.08133 8.5713556,511.29303 14.921865,522.27204 C 22.303292,535.03334 75.921346,596.3909 138.12307,602.02264 C 183.50756,606.13174 235.59928,559.48599 269.97843,522.14671 C 289.59675,566.90337 318.49286,584.7718 350.70389,588.97129 C 404.71772,596.01331 446.11993,553.59914 483.05095,501.26944 C 484.75504,498.81408 486.29061,499.7049 487.40553,501.19752 C 520.50072,545.50414 569.37691,549.39921 603.42948,535.68122 C 626.34868,526.44828 638.06777,491.28333 644.62071,463.67663 C 651.34402,435.35215 654.72377,395.84339 647.98741,365.7471 C 643.96732,347.78638 635.5066,333.01025 624.32164,326.42742 C 619.65783,323.68257 616.11925,325.70876 613.99657,332.32626 z"
       style="fill:#000000;fill-opacity:1;stroke:#000000;stroke-width:0.94528061;stroke-linecap:butt;stroke-linejoin:miter;marker:none;stroke-miterlimit:4;stroke-dasharray:none;stroke-dashoffset:0;stroke-opacity:1;visibility:visible;display:inline;overflow:visible;enable-background:accumulate" />
  </g>
</svg>
