<?xml version="1.0" encoding="UTF-8" standalone="no"?>
<!-- Created with Inkscape (http://www.inkscape.org/) -->
<svg
   xmlns:dc="http://purl.org/dc/elements/1.1/"
   xmlns:cc="http://creativecommons.org/ns#"
   xmlns:rdf="http://www.w3.org/1999/02/22-rdf-syntax-ns#"
   xmlns:svg="http://www.w3.org/2000/svg"
   xmlns="http://www.w3.org/2000/svg"
   xmlns:sodipodi="http://sodipodi.sourceforge.net/DTD/sodipodi-0.dtd"
   xmlns:inkscape="http://www.inkscape.org/namespaces/inkscape"
   version="1.0"
   width="1000"
   height="1000"
   id="svg5496"
   sodipodi:version="0.32"
   inkscape:version="0.46"
   sodipodi:docname="seen+meem.init.svg"
   inkscape:output_extension="org.inkscape.output.svg.inkscape">
  <metadata
     id="metadata5594">
    <rdf:RDF>
      <cc:Work
         rdf:about="">
        <dc:format>image/svg+xml</dc:format>
        <dc:type
           rdf:resource="http://purl.org/dc/dcmitype/StillImage" />
        <dc:title />
      </cc:Work>
    </rdf:RDF>
  </metadata>
  <sodipodi:namedview
     inkscape:window-height="618"
     inkscape:pageshadow="2"
     inkscape:pageopacity="0.0"
     borderopacity="1.0"
     bordercolor="#666666"
     pagecolor="#ffffff"
     id="base"
     showgrid="false"
     showguides="true"
     inkscape:guide-bbox="true"
     inkscape:zoom="0.64205296"
     inkscape:cx="646.76534"
     inkscape:cy="373.02969"
     inkscape:window-x="0"
     inkscape:window-y="25"
     inkscape:current-layer="svg5496">
    <sodipodi:guide
       orientation="horizontal"
       position="200"
       id="guide5596" />
  </sodipodi:namedview>
  <defs
     id="defs5498">
    <inkscape:perspective
       sodipodi:type="inkscape:persp3d"
       inkscape:vp_x="0 : 500 : 1"
       inkscape:vp_y="0 : 1000 : 0"
       inkscape:vp_z="1000 : 500 : 1"
       inkscape:persp3d-origin="500 : 333.33333 : 1"
       id="perspective2857" />
    <inkscape:perspective
       id="perspective2867"
       inkscape:persp3d-origin="0.5 : 0.33333333 : 1"
       inkscape:vp_z="1 : 0.5 : 1"
       inkscape:vp_y="0 : 1000 : 0"
       inkscape:vp_x="0 : 0.5 : 1"
       sodipodi:type="inkscape:persp3d" />
  </defs>
  <g
     id="layer1" />
  <g
     id="g3305"
     transform="matrix(1.0578869,0,0,1.0578869,0.3640003,-46.30952)"
     style="fill:#000000;fill-opacity:1;stroke:#000000;stroke-opacity:1;stroke-width:0.94528063;stroke-miterlimit:4;stroke-dasharray:none">
    <g
       id="g3307"
       style="fill:#000000;fill-opacity:1;stroke:#000000;stroke-opacity:1;stroke-width:0.94528063;stroke-miterlimit:4;stroke-dasharray:none" />
    <path
       sodipodi:nodetypes="cssssssssssscccssssssccssscsssss"
       id="path2873"
       d="M 653.38002,343.00028 C 639.27032,363.62635 626.6178,384.8353 614.32783,406.18927 C 612.65711,409.09216 612.82657,410.74898 614.87161,413.00062 C 622.97688,421.9247 630.14586,429.40397 636.34497,442.54914 C 637.81175,445.65945 636.85516,448.05535 633.8203,449.30017 C 619.2793,455.2645 571.96486,447.05215 543.23619,434.6225 C 534.46117,430.82593 526.09722,422.72508 526.19985,412.01443 C 526.25245,406.32932 533.44974,393.80324 537.04869,386.685 C 549.46395,362.12925 530.18787,349.60024 518.26306,365.84064 C 479.1199,419.14969 443.94835,488.81566 372.46158,484.68681 C 309.04925,481.02431 309.35234,401.29884 259.47874,399.39868 C 209.71678,397.50277 159.99994,436.01637 130.04869,493.96625 C 95.658477,560.50466 97.859277,622.45044 112.91869,679.69938 C 75.02119,695.5116 35.955564,705.15588 -1.9419328,708.51188 L 1.5586792,800 C 56.672641,788.80613 82.670007,764.99102 154.98619,768.09125 C 206.11657,770.28323 245.99403,798.74728 280.43653,821.84293 C 285.61863,825.31782 289.32574,825.25034 292.75622,820.60569 C 310.43433,796.67065 325.48985,770.86607 336.32329,740.66321 C 338.83866,733.65054 339.2054,730.2508 334.10053,725.2362 C 299.27682,691.02817 267.03048,678.105 221.17369,662.935 C 198.11401,655.30657 131.93918,593.43371 140.63828,531.74305 C 140.98127,526.69829 145.02795,522.35928 148.58486,519.08952 C 170.35889,500.77122 208.42426,492.51995 232.81822,496.80769 C 245.96286,499.11812 257.51051,509.69445 263.86102,520.67346 C 282.76188,553.35002 296.85019,582.34232 338.18952,585.29059 C 399.24497,589.60572 434.70977,567.95385 471.64079,515.62415 C 473.34488,513.16879 475.95403,513.72983 477.46765,514.81609 C 509.45863,537.77468 607.97273,571.03358 633.61119,543.77875 C 649.9653,526.3936 662.83624,491.97482 671.47129,460.72441 C 683.85184,415.91892 679.87981,368.03785 659.5643,343.72669 C 657.99212,341.8453 656.108,339.01242 653.38002,343.00028 L 653.38002,343.00028 z"
       style="fill:#000000;stroke:#000000;stroke-width:0.94528063;stroke-linecap:butt;stroke-linejoin:miter;marker:none;stroke-miterlimit:4;stroke-dasharray:none;stroke-dashoffset:0;stroke-opacity:1;visibility:visible;display:inline;overflow:visible;enable-background:accumulate;fill-opacity:1" />
  </g>
</svg>
