<?xml version="1.0" encoding="UTF-8" standalone="no"?>
<!-- Created with Inkscape (http://www.inkscape.org/) -->

<svg
   xmlns:dc="http://purl.org/dc/elements/1.1/"
   xmlns:cc="http://creativecommons.org/ns#"
   xmlns:rdf="http://www.w3.org/1999/02/22-rdf-syntax-ns#"
   xmlns:svg="http://www.w3.org/2000/svg"
   xmlns="http://www.w3.org/2000/svg"
   xmlns:sodipodi="http://sodipodi.sourceforge.net/DTD/sodipodi-0.dtd"
   xmlns:inkscape="http://www.inkscape.org/namespaces/inkscape"
   version="1.0"
   width="1000"
   height="1000"
   id="svg5496"
   sodipodi:version="0.32"
   inkscape:version="0.47pre4 r22446"
   sodipodi:docname="seen+haa.isol.svg"
   inkscape:output_extension="org.inkscape.output.svg.inkscape">
  <metadata
     id="metadata5594">
    <rdf:RDF>
      <cc:Work
         rdf:about="">
        <dc:format>image/svg+xml</dc:format>
        <dc:type
           rdf:resource="http://purl.org/dc/dcmitype/StillImage" />
      </cc:Work>
    </rdf:RDF>
  </metadata>
  <sodipodi:namedview
     inkscape:window-height="767"
     inkscape:window-width="1278"
     inkscape:pageshadow="2"
     inkscape:pageopacity="0.0"
     guidetolerance="10.0"
     gridtolerance="10.0"
     objecttolerance="10.0"
     borderopacity="1.0"
     bordercolor="#666666"
     pagecolor="#ffffff"
     id="base"
     showgrid="false"
     showguides="true"
     inkscape:guide-bbox="true"
     inkscape:zoom="0.31481528"
     inkscape:cx="108.7084"
     inkscape:cy="716.76468"
     inkscape:window-x="0"
     inkscape:window-y="0"
     inkscape:current-layer="svg5496"
     inkscape:window-maximized="1">
    <sodipodi:guide
       orientation="horizontal"
       position="200"
       id="guide5596" />
  </sodipodi:namedview>
  <defs
     id="defs5498">
    <inkscape:perspective
       sodipodi:type="inkscape:persp3d"
       inkscape:vp_x="0 : 500 : 1"
       inkscape:vp_y="0 : 1000 : 0"
       inkscape:vp_z="1000 : 500 : 1"
       inkscape:persp3d-origin="500 : 333.33333 : 1"
       id="perspective2389" />
    <inkscape:perspective
       id="perspective2398"
       inkscape:persp3d-origin="372.04724 : 350.78739 : 1"
       inkscape:vp_z="744.09448 : 526.18109 : 1"
       inkscape:vp_y="0 : 1000 : 0"
       inkscape:vp_x="0 : 526.18109 : 1"
       sodipodi:type="inkscape:persp3d" />
    <inkscape:perspective
       sodipodi:type="inkscape:persp3d"
       inkscape:vp_x="0 : 500 : 1"
       inkscape:vp_y="0 : 1000 : 0"
       inkscape:vp_z="1000 : 500 : 1"
       inkscape:persp3d-origin="500 : 333.33333 : 1"
       id="perspective8-4" />
    <inkscape:perspective
       id="perspective2388"
       inkscape:persp3d-origin="372.04724 : 350.78739 : 1"
       inkscape:vp_z="744.09448 : 526.18109 : 1"
       inkscape:vp_y="0 : 1000 : 0"
       inkscape:vp_x="0 : 526.18109 : 1"
       sodipodi:type="inkscape:persp3d" />
    <inkscape:perspective
       sodipodi:type="inkscape:persp3d"
       inkscape:vp_x="0 : 0.5 : 1"
       inkscape:vp_y="0 : 1000 : 0"
       inkscape:vp_z="1 : 0.5 : 1"
       inkscape:persp3d-origin="0.5 : 0.33333333 : 1"
       id="perspective3632" />
    <inkscape:perspective
       sodipodi:type="inkscape:persp3d"
       inkscape:vp_x="0 : 0.5 : 1"
       inkscape:vp_y="0 : 1000 : 0"
       inkscape:vp_z="1 : 0.5 : 1"
       inkscape:persp3d-origin="0.5 : 0.33333333 : 1"
       id="perspective2822" />
    <inkscape:perspective
       id="perspective8"
       inkscape:persp3d-origin="500 : 333.33333 : 1"
       inkscape:vp_z="1000 : 500 : 1"
       inkscape:vp_y="0 : 1000 : 0"
       inkscape:vp_x="0 : 500 : 1"
       sodipodi:type="inkscape:persp3d" />
    <inkscape:perspective
       sodipodi:type="inkscape:persp3d"
       inkscape:vp_x="0 : 0.5 : 1"
       inkscape:vp_y="0 : 1000 : 0"
       inkscape:vp_z="1 : 0.5 : 1"
       inkscape:persp3d-origin="0.5 : 0.33333333 : 1"
       id="perspective2873" />
    <inkscape:perspective
       id="perspective2884"
       inkscape:persp3d-origin="500 : 333.33333 : 1"
       inkscape:vp_z="1000 : 500 : 1"
       inkscape:vp_y="0 : 1000 : 0"
       inkscape:vp_x="0 : 500 : 1"
       sodipodi:type="inkscape:persp3d" />
    <inkscape:perspective
       id="perspective5583"
       inkscape:persp3d-origin="0.5 : 0.33333333 : 1"
       inkscape:vp_z="1 : 0.5 : 1"
       inkscape:vp_y="0 : 1000 : 0"
       inkscape:vp_x="0 : 0.5 : 1"
       sodipodi:type="inkscape:persp3d" />
  </defs>
  <path
     sodipodi:nodetypes="csssssscssssssscsssc"
     id="path2825"
     d="m 36.825601,312.64309 c -6.319778,14.88047 -10.505157,32.32943 -13.285824,49.1799 -0.745415,4.51711 1.29847,9.3907 5.58934,9.3967 73.033173,0.102 115.320083,-1.8323 191.124273,4.5545 4.44788,0.3748 4.61902,2.1667 0.47452,4.7451 -93.95409,58.4521 -174.338243,129.4024 -211.134203,293.4774 -29.1989,130.1993 8.87113,251.7508 110.377383,305.8613 103.95281,55.41481 197.73821,65.80861 320.33061,59.84961 8.72895,-0.047 36.83374,-6.162 45.1689,-9.3421 55.85762,-21.3124 132.35488,-50.55281 191.6763,-76.13001 9.06619,-3.9091 2.74751,-16.8376 -2.75574,-16.0764 -50.19852,6.9438 -230.91863,48.03368 -454.44346,-20.9977 C 94.63252,878.46019 31.170247,799.89549 42.187677,667.11609 c 7.87541,-94.9125 84.320213,-187.2436 183.467253,-231.9244 82.1233,-37.0092 180.74371,-60.1404 285.14729,-66.6541 14.15193,-0.8829 15.72009,-3.5497 18.47969,-10.8754 l 22.52823,-50.4919 c 3.16858,-7.1016 -1.0421,-11.8131 -7.4144,-11.7059 -139.41122,2.3456 -283.97864,12.06009 -428.32825,12.0015 -19.784385,-0.008 -75.667807,-3.02011 -79.241889,5.1772 z"
     style="fill:#ff0000;fill-opacity:0.60784314;stroke:#000000;stroke-width:1;stroke-linecap:butt;stroke-linejoin:miter;stroke-miterlimit:4;stroke-opacity:1;stroke-dasharray:none;stroke-dashoffset:0;marker:none;visibility:visible;display:inline;overflow:visible;enable-background:accumulate" />
  <g
     id="layer1" />
  <g
     style="fill:#000000;fill-opacity:1;stroke:#000000;stroke-opacity:1"
     id="g2499"
     transform="translate(83.362447,-554.72985)" />
  <g
     style="fill:#000000;fill-opacity:1;stroke:#000000;stroke-opacity:1"
     id="g3427"
     transform="translate(257.62461,-472.43734)" />
  <path
     style="fill:#ff0000;fill-opacity:0.60784314;stroke:#000000;stroke-width:1;stroke-linecap:butt;stroke-linejoin:miter;stroke-miterlimit:4;stroke-opacity:1;stroke-dasharray:none;stroke-dashoffset:0;marker:none;visibility:visible;display:inline;overflow:visible;enable-background:accumulate"
     d="m 641.20846,8.647789 c -7.81652,22.656201 -14.41429,42.128201 -21.87289,62.192101 -2.38512,6.4161 -3.41535,12.0393 0.91538,16.221299 11.94445,11.534101 19.55559,24.099901 18.80071,30.879201 -0.22559,2.0257 -3.32877,4.4296 -6.74361,4.7705 -31.32641,3.1273 -102.19485,-14.418 -100.36891,-50.4811 0.45895,-9.0642 6.29108,-26.0972 10.69931,-36.5977 5.91047,-14.0791 -10.6022,-26.643901 -19.1446,-8.8718 -35.74744,74.3707 -64.17373,112.573 -112.79651,115.0582 -35.70894,1.8254 -72.82099,-6.9779 -117.89468,-76.1933 -8.9797,-13.7893 -24.45276,-16.759 -34.83293,-1.398 -46.14878,68.2935 -64.59619,161.6156 -200.908253,216.7868 -3.06127,1.239 -9.01304,6.9525 -10.63295,10.1448 -11.81776,23.2886 -18.656331,45.88523 -22.88875,70.6642 -1.811636,10.60634 76.181151,-52.82577 92.071603,-64.8041 45.67239,-26.08104 89.87532,-69.6517 130.91043,-159.0582 5.97,-13.0073 23.4898,-9.1695 32.59329,6.6434 34.48187,59.8955 55.31778,92.8846 111.47931,91.8877 35.14046,-0.6238 73.98027,-33.3559 98.09404,-81.1961 2.03617,-4.0401 8.87608,-4.5378 10.69549,-0.7357 18.9226,39.5428 58.00867,54.1353 91.67241,56.6761 8.90802,0.6725 20.17843,-2.1073 29.82288,-10.7787 17.60656,-15.8301 29.71764,-37.6807 38.97046,-56.7947 24.8065,-51.244701 10.88125,-122.9076 -2.85902,-138.1694013 -2.47094,-2.7445 -11.74812,-8.53832 -15.78221,3.1545003 z"
     id="path2827"
     sodipodi:nodetypes="cssssssssssssscssssssssss" />
</svg>
