<?xml version="1.0" encoding="UTF-8" standalone="no"?>
<!-- Created with Inkscape (http://www.inkscape.org/) -->

<svg
   xmlns:dc="http://purl.org/dc/elements/1.1/"
   xmlns:cc="http://creativecommons.org/ns#"
   xmlns:rdf="http://www.w3.org/1999/02/22-rdf-syntax-ns#"
   xmlns:svg="http://www.w3.org/2000/svg"
   xmlns="http://www.w3.org/2000/svg"
   xmlns:sodipodi="http://sodipodi.sourceforge.net/DTD/sodipodi-0.dtd"
   xmlns:inkscape="http://www.inkscape.org/namespaces/inkscape"
   version="1.0"
   width="1000"
   height="1000"
   id="svg5496"
   sodipodi:version="0.32"
   inkscape:version="0.47pre4 r22446"
   sodipodi:docname="seen.fina.svg"
   inkscape:output_extension="org.inkscape.output.svg.inkscape">
  <metadata
     id="metadata5594">
    <rdf:RDF>
      <cc:Work
         rdf:about="">
        <dc:format>image/svg+xml</dc:format>
        <dc:type
           rdf:resource="http://purl.org/dc/dcmitype/StillImage" />
        <dc:title />
      </cc:Work>
    </rdf:RDF>
  </metadata>
  <sodipodi:namedview
     inkscape:window-height="727"
     inkscape:pageshadow="2"
     inkscape:pageopacity="0.0"
     borderopacity="1.0"
     bordercolor="#666666"
     pagecolor="#ffffff"
     id="base"
     showgrid="false"
     showguides="true"
     inkscape:guide-bbox="true"
     inkscape:zoom="0.454"
     inkscape:cx="667.14749"
     inkscape:cy="417.18118"
     inkscape:window-x="0"
     inkscape:window-y="24"
     inkscape:current-layer="svg5496"
     inkscape:window-width="1280"
     inkscape:window-maximized="1">
    <sodipodi:guide
       orientation="horizontal"
       position="200"
       id="guide5596" />
  </sodipodi:namedview>
  <defs
     id="defs5498">
    <inkscape:perspective
       sodipodi:type="inkscape:persp3d"
       inkscape:vp_x="0 : 500 : 1"
       inkscape:vp_y="0 : 1000 : 0"
       inkscape:vp_z="1000 : 500 : 1"
       inkscape:persp3d-origin="500 : 333.33333 : 1"
       id="perspective8" />
    <inkscape:perspective
       id="perspective2822"
       inkscape:persp3d-origin="0.5 : 0.33333333 : 1"
       inkscape:vp_z="1 : 0.5 : 1"
       inkscape:vp_y="0 : 1000 : 0"
       inkscape:vp_x="0 : 0.5 : 1"
       sodipodi:type="inkscape:persp3d" />
    <inkscape:perspective
       id="perspective5010"
       inkscape:persp3d-origin="0.5 : 0.33333333 : 1"
       inkscape:vp_z="1 : 0.5 : 1"
       inkscape:vp_y="0 : 1000 : 0"
       inkscape:vp_x="0 : 0.5 : 1"
       sodipodi:type="inkscape:persp3d" />
    <inkscape:perspective
       id="perspective5032"
       inkscape:persp3d-origin="0.5 : 0.33333333 : 1"
       inkscape:vp_z="1 : 0.5 : 1"
       inkscape:vp_y="0 : 1000 : 0"
       inkscape:vp_x="0 : 0.5 : 1"
       sodipodi:type="inkscape:persp3d" />
  </defs>
  <g
     id="layer1"
     transform="translate(15.973568,462.27313)" />
  <path
     style="color:#000000;fill:#ff0000;fill-opacity:0.60784314;stroke:#000000;stroke-width:0.99003291px;stroke-linecap:butt;stroke-linejoin:miter;stroke-miterlimit:4;stroke-opacity:1;stroke-dasharray:none;stroke-dashoffset:0;marker:none;visibility:visible;display:inline;overflow:visible;enable-background:accumulate"
     d="m 877.47696,617.23391 c -6.9759,22.8952 -19.9867,78.4215 -32.8639,84.33009 -25.3976,11.6534 -57.2648,2.3006 -80.4549,-11.82849 -20.7023,-12.6134 -4.3743,-46.3429 -0.5909,-55.9622 6.1265,-15.5772 -18.6941,-25.7967 -26.4266,-6.4826 -30.2503,63.4067 -35.0278,91.33959 -114.3713,96.52329 -22.4935,2.5537 -71.6422,2.787 -80.5436,-22.2449 -6.7853,-19.08099 -12.7358,-39.49029 -25.742,-56.28339 -3.7687,-4.8663 -11.5515,-6.8084 -15.0567,5.4389 l -23.7435,82.96009 c -0.7587,2.6508 1.2373,15.6454 3.6752,19.6729 33.2445,54.9227 45.9554,91.7779 40.0668,146.0814 0.3054,6.8673 -2.4371,13.1028 -4.0625,19.6875 -62.8146,91.9964 -193.6594,126.8188 -290.1563,124.1875 -105.3209,-7.4117 -174.910708,-62.8404 -188.218708,-134.5 -9.41,-50.6635 27.675,-113.6028 50.75,-162.9063 6.791,-14.5105 -11.247,-22.305 -18.875,-8.7187 -58.996,105.0749 -112.0565,259.8569 -23.5625,346.3125 44.421,43.3969 88.806008,66.1182 170.125008,66.0939 108.374,-0.033 191.536,-38.8808 253.125,-85.5001 28.4032,-21.4997 46.5316,-47.3553 58.5312,-75.3438 0.2344,0.119 0.4486,0.2239 0.6876,0.3438 20.0627,-46.6869 29.5357,-97.3949 31.9062,-169.4063 28.2893,3.347 85.3797,11.0307 143.8133,-49.689 22.6087,24.7955 68.5773,47.8359 105.9202,46.7825 34.3424,-0.2556 48.3964,-39.0028 73.7353,-129.06249 1.2272,-4.3617 7.0721,-3.8816 8.8124,-0.625 11.7963,22.07349 33.5104,91.68999 104.4063,113.11019 l 0.5313,-90.1102 c -39.9207,-17.78399 -67.3704,-64.35079 -90.81,-99.94119 -10.9191,-16.5793 -25.9407,-8.2362 -30.6074,7.0801 z"
     id="path2828-0-7"
     sodipodi:nodetypes="csssccsssssccccscccscccccssccss" />
</svg>
