<?xml version="1.0" encoding="UTF-8" standalone="no"?>
<!-- Created with Inkscape (http://www.inkscape.org/) -->

<svg
   xmlns:dc="http://purl.org/dc/elements/1.1/"
   xmlns:cc="http://creativecommons.org/ns#"
   xmlns:rdf="http://www.w3.org/1999/02/22-rdf-syntax-ns#"
   xmlns:svg="http://www.w3.org/2000/svg"
   xmlns="http://www.w3.org/2000/svg"
   xmlns:sodipodi="http://sodipodi.sourceforge.net/DTD/sodipodi-0.dtd"
   xmlns:inkscape="http://www.inkscape.org/namespaces/inkscape"
   version="1.0"
   width="1000"
   height="1000"
   id="svg5496"
   sodipodi:version="0.32"
   inkscape:version="0.47pre4 r22446"
   sodipodi:docname="seen+baa+meem.init.svg"
   inkscape:output_extension="org.inkscape.output.svg.inkscape">
  <metadata
     id="metadata5594">
    <rdf:RDF>
      <cc:Work
         rdf:about="">
        <dc:format>image/svg+xml</dc:format>
        <dc:type
           rdf:resource="http://purl.org/dc/dcmitype/StillImage" />
      </cc:Work>
    </rdf:RDF>
  </metadata>
  <sodipodi:namedview
     inkscape:window-height="725"
     inkscape:window-width="1280"
     inkscape:pageshadow="2"
     inkscape:pageopacity="0.0"
     guidetolerance="10.0"
     gridtolerance="10.0"
     objecttolerance="10.0"
     borderopacity="1.0"
     bordercolor="#666666"
     pagecolor="#ffffff"
     id="base"
     showgrid="false"
     showguides="true"
     inkscape:guide-bbox="true"
     inkscape:zoom="0.64205296"
     inkscape:cx="693.78685"
     inkscape:cy="395.02814"
     inkscape:window-x="0"
     inkscape:window-y="24"
     inkscape:current-layer="svg5496"
     inkscape:window-maximized="1">
    <sodipodi:guide
       orientation="horizontal"
       position="200"
       id="guide5596" />
  </sodipodi:namedview>
  <defs
     id="defs5498">
    <inkscape:perspective
       sodipodi:type="inkscape:persp3d"
       inkscape:vp_x="0 : 500 : 1"
       inkscape:vp_y="0 : 1000 : 0"
       inkscape:vp_z="1000 : 500 : 1"
       inkscape:persp3d-origin="500 : 333.33333 : 1"
       id="perspective3202" />
    <inkscape:perspective
       id="perspective3211"
       inkscape:persp3d-origin="372.04724 : 350.78739 : 1"
       inkscape:vp_z="744.09448 : 526.18109 : 1"
       inkscape:vp_y="0 : 1000 : 0"
       inkscape:vp_x="0 : 526.18109 : 1"
       sodipodi:type="inkscape:persp3d" />
    <inkscape:perspective
       sodipodi:type="inkscape:persp3d"
       inkscape:vp_x="0 : 0.5 : 1"
       inkscape:vp_y="0 : 1000 : 0"
       inkscape:vp_z="1 : 0.5 : 1"
       inkscape:persp3d-origin="0.5 : 0.33333333 : 1"
       id="perspective2867" />
    <inkscape:perspective
       id="perspective2857"
       inkscape:persp3d-origin="500 : 333.33333 : 1"
       inkscape:vp_z="1000 : 500 : 1"
       inkscape:vp_y="0 : 1000 : 0"
       inkscape:vp_x="0 : 500 : 1"
       sodipodi:type="inkscape:persp3d" />
    <inkscape:perspective
       sodipodi:type="inkscape:persp3d"
       inkscape:vp_x="0 : 0.5 : 1"
       inkscape:vp_y="0 : 1000 : 0"
       inkscape:vp_z="1 : 0.5 : 1"
       inkscape:persp3d-origin="0.5 : 0.33333333 : 1"
       id="perspective4533" />
    <inkscape:perspective
       sodipodi:type="inkscape:persp3d"
       inkscape:vp_x="0 : 0.5 : 1"
       inkscape:vp_y="0 : 1000 : 0"
       inkscape:vp_z="1 : 0.5 : 1"
       inkscape:persp3d-origin="0.5 : 0.33333333 : 1"
       id="perspective2867-3" />
    <inkscape:perspective
       id="perspective2857-8"
       inkscape:persp3d-origin="500 : 333.33333 : 1"
       inkscape:vp_z="1000 : 500 : 1"
       inkscape:vp_y="0 : 1000 : 0"
       inkscape:vp_x="0 : 500 : 1"
       sodipodi:type="inkscape:persp3d" />
    <inkscape:perspective
       id="perspective3732"
       inkscape:persp3d-origin="0.5 : 0.33333333 : 1"
       inkscape:vp_z="1 : 0.5 : 1"
       inkscape:vp_y="0 : 1000 : 0"
       inkscape:vp_x="0 : 0.5 : 1"
       sodipodi:type="inkscape:persp3d" />
    <inkscape:perspective
       id="perspective3760"
       inkscape:persp3d-origin="0.5 : 0.33333333 : 1"
       inkscape:vp_z="1 : 0.5 : 1"
       inkscape:vp_y="0 : 1000 : 0"
       inkscape:vp_x="0 : 0.5 : 1"
       sodipodi:type="inkscape:persp3d" />
  </defs>
  <g
     id="layer1"
     transform="translate(-57.268722,138.16355)" />
  <g
     id="g3305"
     transform="matrix(0.96023953,0,0,0.96023953,224.21892,22.592727)"
     style="fill:#ff0000;fill-opacity:0.60784314;stroke:#000000;stroke-width:0.94528061;stroke-miterlimit:4;stroke-opacity:1;stroke-dasharray:none">
    <g
       id="g3307"
       style="fill:#ff0000;fill-opacity:0.60784314;stroke:#000000;stroke-width:0.94528061;stroke-miterlimit:4;stroke-opacity:1;stroke-dasharray:none" />
    <path
       sodipodi:nodetypes="cssssssssscsssssscccssssszssscscssssssc"
       id="path2873"
       d="m 627.69353,398.64682 c -0.80809,3.2504 -1.92299,5.03171 0.54378,6.81135 2.67624,1.93076 11.51539,14.41677 12.10144,17.90011 0.57054,3.39116 -0.57143,4.87294 -3.26081,6.75103 -11.04434,7.71266 -42.24399,11.84451 -59.83856,2.45143 -8.43442,-4.50282 -23.82737,-13.54066 -23.72474,-24.25131 0.0526,-5.68511 6.72936,-20.55357 9.02699,-31.05525 5.881,-26.88005 -20.21484,-31.66311 -28.67499,-12.25493 -13.61653,31.23729 -29.58658,60.42984 -51.70828,82.52264 -20.61126,20.58432 -54.41071,33.36927 -88.8907,31.37781 -13.37229,-0.77234 -36.49484,1.50306 -58.24454,-21.03449 5.81965,-9.42018 12.34727,-20.3497 20.32039,-38.46457 9.06867,-20.60395 -9.6804,-33.41399 -21.55623,-18.93206 -41.00131,49.99889 -78.27319,89.42244 -156.10649,96.1178 C 112.21223,502.2181 62.957629,457.5565 33.810566,401.80495 27.873871,390.44943 19.241286,382.72096 2.1837741,380.90883 -46.490007,375.7379 -96.618523,422.42828 -126.56977,480.37816 c -34.39021,66.53841 -18.68771,167.24836 -8.04513,194.31559 -15.07719,15.81222 -64.17276,34.7725 -99.1146,40.71622 l 0.22639,94.18727 c 52.25403,-4.14386 95.14134,-51.78842 144.678965,-52.10904 39.915658,-0.25834 88.14633085,44.22537 122.588832,67.32102 5.1821,3.47489 9.594218,3.85322 12.31969,-1.23724 13.997414,-26.14346 26.844517,-54.89259 29.580426,-79.94248 0.808883,-7.4061 1.107005,-16.16377 -2.958899,-22.05226 C 61.305998,705.0672 17.624816,675.60172 -28.442711,660.01218 -74.510237,644.42264 -106.86831,590.50415 -110.11008,553.588 c -2.74577,-31.26795 70.449238,-90.90082 95.394713,-70.11719 42.985492,35.81389 73.417116,112.59334 172.863727,113.54551 57.05722,0.54631 97.47621,-42.53665 131.85536,-79.87593 19.61832,44.75666 48.37396,63.89769 80.72546,66.82458 55.684,5.03782 98.16692,-34.70408 137.43618,-85.36361 1.70409,-2.45536 2.93583,-1.27944 4.35458,-0.0719 52.0564,44.30662 76.88226,45.86345 110.93483,32.14546 22.9192,-9.23294 45.05236,-44.39789 51.6053,-72.00459 6.72331,-28.32448 10.10306,-67.83324 3.3667,-97.92953 -4.02009,-17.96072 -12.48081,-32.73685 -23.66577,-39.31968 -4.66381,-2.74485 -8.918,0.80999 -10.32507,5.89884 -6.79971,24.59209 -14.56113,59.3696 -16.7424,71.32686 z"
       style="fill:#ff0000;fill-opacity:0.60784314;stroke:#000000;stroke-width:1.04140687;stroke-linecap:butt;stroke-linejoin:miter;stroke-miterlimit:4;stroke-opacity:1;stroke-dasharray:none;stroke-dashoffset:0;marker:none;visibility:visible;display:inline;overflow:visible;enable-background:accumulate" />
  </g>
</svg>
