<?xml version="1.0" encoding="UTF-8" standalone="no"?>
<!-- Created with Inkscape (http://www.inkscape.org/) -->
<svg
   xmlns:dc="http://purl.org/dc/elements/1.1/"
   xmlns:cc="http://creativecommons.org/ns#"
   xmlns:rdf="http://www.w3.org/1999/02/22-rdf-syntax-ns#"
   xmlns:svg="http://www.w3.org/2000/svg"
   xmlns="http://www.w3.org/2000/svg"
   xmlns:sodipodi="http://sodipodi.sourceforge.net/DTD/sodipodi-0.dtd"
   xmlns:inkscape="http://www.inkscape.org/namespaces/inkscape"
   version="1.0"
   width="1000"
   height="1000"
   id="svg5496"
   sodipodi:version="0.32"
   inkscape:version="0.46"
   sodipodi:docname="seen.alt.medi.svg"
   inkscape:output_extension="org.inkscape.output.svg.inkscape">
  <metadata
     id="metadata5594">
    <rdf:RDF>
      <cc:Work
         rdf:about="">
        <dc:format>image/svg+xml</dc:format>
        <dc:type
           rdf:resource="http://purl.org/dc/dcmitype/StillImage" />
      </cc:Work>
    </rdf:RDF>
  </metadata>
  <sodipodi:namedview
     inkscape:pageshadow="2"
     inkscape:pageopacity="0.0"
     guidetolerance="10.0"
     gridtolerance="10.0"
     objecttolerance="10.0"
     borderopacity="1.0"
     bordercolor="#666666"
     pagecolor="#ffffff"
     id="base"
     showgrid="false"
     showguides="true"
     inkscape:guide-bbox="true"
     inkscape:zoom="0.454"
     inkscape:cx="557.0083"
     inkscape:cy="605.24614"
     inkscape:window-x="0"
     inkscape:window-y="25"
     inkscape:current-layer="svg5496">
    <sodipodi:guide
       orientation="horizontal"
       position="200"
       id="guide5596" />
  </sodipodi:namedview>
  <defs
     id="defs5498">
    <inkscape:perspective
       sodipodi:type="inkscape:persp3d"
       inkscape:vp_x="0 : 500 : 1"
       inkscape:vp_y="0 : 1000 : 0"
       inkscape:vp_z="1000 : 500 : 1"
       inkscape:persp3d-origin="500 : 333.33333 : 1"
       id="perspective8" />
    <inkscape:perspective
       id="perspective2388"
       inkscape:persp3d-origin="372.04724 : 350.78739 : 1"
       inkscape:vp_z="744.09448 : 526.18109 : 1"
       inkscape:vp_y="0 : 1000 : 0"
       inkscape:vp_x="0 : 526.18109 : 1"
       sodipodi:type="inkscape:persp3d" />
  </defs>
  <g
     id="layer1"
     transform="translate(-237.88546,351.11316)" />
  <path
     style="fill:#000000;fill-rule:evenodd;stroke:#000000;stroke-width:1px;stroke-linecap:butt;stroke-linejoin:miter;stroke-opacity:1"
     d="M 162.39579,587.14441 C 131.64667,661.04646 98.355407,699.23505 11.742837,694.61316 L 1.6382174,800 C 27.770307,793.49534 65.790737,777.7794 101.89579,742.76941 C 111.06258,763.9547 155.03007,798.45919 218.2277,797.74573 C 245.26613,797.44048 270.0835,767.18301 296.68802,675.73159 C 297.94634,671.40618 300.36323,671.92501 302.02614,675.23258 C 327.9182,726.73242 355.97089,776.0627 411.58329,795.86316 L 408.48954,693.23651 C 371.12036,675.30154 342.72064,632.4845 322.86454,593.39441 C 318.03414,583.65491 309.21505,583.56528 305.95237,589.70856 C 300.37117,600.21744 275.64001,662.30558 261.92869,677.30658 C 250.47675,689.83569 223.07205,692.15752 207.16577,688.01003 C 188.62418,683.17539 161.98665,670.07315 168.42454,643.42566 C 172.29698,627.39699 180.72036,611.60758 186.52079,593.39441 C 189.68739,576.37558 169.48025,574.56373 162.39579,587.14441 z"
     id="path2394"
     sodipodi:nodetypes="ccccssscccsssscc" />
</svg>
