<?xml version="1.0" encoding="UTF-8" standalone="no"?>
<!-- Created with Inkscape (http://www.inkscape.org/) -->
<svg
   xmlns:dc="http://purl.org/dc/elements/1.1/"
   xmlns:cc="http://creativecommons.org/ns#"
   xmlns:rdf="http://www.w3.org/1999/02/22-rdf-syntax-ns#"
   xmlns:svg="http://www.w3.org/2000/svg"
   xmlns="http://www.w3.org/2000/svg"
   xmlns:sodipodi="http://sodipodi.sourceforge.net/DTD/sodipodi-0.dtd"
   xmlns:inkscape="http://www.inkscape.org/namespaces/inkscape"
   version="1.0"
   width="1000"
   height="1000"
   id="svg5496"
   sodipodi:version="0.32"
   inkscape:version="0.46"
   sodipodi:docname="seen+haa.isol.svg"
   inkscape:output_extension="org.inkscape.output.svg.inkscape">
  <metadata
     id="metadata5594">
    <rdf:RDF>
      <cc:Work
         rdf:about="">
        <dc:format>image/svg+xml</dc:format>
        <dc:type
           rdf:resource="http://purl.org/dc/dcmitype/StillImage" />
      </cc:Work>
    </rdf:RDF>
  </metadata>
  <sodipodi:namedview
     inkscape:window-height="618"
     inkscape:window-width="641"
     inkscape:pageshadow="2"
     inkscape:pageopacity="0.0"
     guidetolerance="10.0"
     gridtolerance="10.0"
     objecttolerance="10.0"
     borderopacity="1.0"
     bordercolor="#666666"
     pagecolor="#ffffff"
     id="base"
     showgrid="false"
     showguides="true"
     inkscape:guide-bbox="true"
     inkscape:zoom="0.32102648"
     inkscape:cx="643.55672"
     inkscape:cy="195.64937"
     inkscape:window-x="0"
     inkscape:window-y="25"
     inkscape:current-layer="svg5496">
    <sodipodi:guide
       orientation="horizontal"
       position="200"
       id="guide5596" />
  </sodipodi:namedview>
  <defs
     id="defs5498">
    <inkscape:perspective
       sodipodi:type="inkscape:persp3d"
       inkscape:vp_x="0 : 500 : 1"
       inkscape:vp_y="0 : 1000 : 0"
       inkscape:vp_z="1000 : 500 : 1"
       inkscape:persp3d-origin="500 : 333.33333 : 1"
       id="perspective2389" />
    <inkscape:perspective
       id="perspective2398"
       inkscape:persp3d-origin="372.04724 : 350.78739 : 1"
       inkscape:vp_z="744.09448 : 526.18109 : 1"
       inkscape:vp_y="0 : 1000 : 0"
       inkscape:vp_x="0 : 526.18109 : 1"
       sodipodi:type="inkscape:persp3d" />
    <inkscape:perspective
       sodipodi:type="inkscape:persp3d"
       inkscape:vp_x="0 : 500 : 1"
       inkscape:vp_y="0 : 1000 : 0"
       inkscape:vp_z="1000 : 500 : 1"
       inkscape:persp3d-origin="500 : 333.33333 : 1"
       id="perspective8-4" />
    <inkscape:perspective
       id="perspective2388"
       inkscape:persp3d-origin="372.04724 : 350.78739 : 1"
       inkscape:vp_z="744.09448 : 526.18109 : 1"
       inkscape:vp_y="0 : 1000 : 0"
       inkscape:vp_x="0 : 526.18109 : 1"
       sodipodi:type="inkscape:persp3d" />
    <inkscape:perspective
       sodipodi:type="inkscape:persp3d"
       inkscape:vp_x="0 : 0.5 : 1"
       inkscape:vp_y="0 : 1000 : 0"
       inkscape:vp_z="1 : 0.5 : 1"
       inkscape:persp3d-origin="0.5 : 0.33333333 : 1"
       id="perspective3632" />
    <inkscape:perspective
       sodipodi:type="inkscape:persp3d"
       inkscape:vp_x="0 : 0.5 : 1"
       inkscape:vp_y="0 : 1000 : 0"
       inkscape:vp_z="1 : 0.5 : 1"
       inkscape:persp3d-origin="0.5 : 0.33333333 : 1"
       id="perspective2822" />
    <inkscape:perspective
       id="perspective8"
       inkscape:persp3d-origin="500 : 333.33333 : 1"
       inkscape:vp_z="1000 : 500 : 1"
       inkscape:vp_y="0 : 1000 : 0"
       inkscape:vp_x="0 : 500 : 1"
       sodipodi:type="inkscape:persp3d" />
    <inkscape:perspective
       sodipodi:type="inkscape:persp3d"
       inkscape:vp_x="0 : 0.5 : 1"
       inkscape:vp_y="0 : 1000 : 0"
       inkscape:vp_z="1 : 0.5 : 1"
       inkscape:persp3d-origin="0.5 : 0.33333333 : 1"
       id="perspective2873" />
    <inkscape:perspective
       id="perspective2884"
       inkscape:persp3d-origin="500 : 333.33333 : 1"
       inkscape:vp_z="1000 : 500 : 1"
       inkscape:vp_y="0 : 1000 : 0"
       inkscape:vp_x="0 : 500 : 1"
       sodipodi:type="inkscape:persp3d" />
  </defs>
  <g
     id="layer1" />
  <g
     style="fill:#000000;fill-opacity:1;stroke:#000000;stroke-opacity:1"
     id="g2499"
     transform="translate(83.362447,-554.72985)" />
  <path
     style="fill:#000000;fill-opacity:1;stroke:#000000;stroke-width:1px;stroke-linecap:butt;stroke-linejoin:miter;marker:none;stroke-miterlimit:4;stroke-dasharray:none;stroke-dashoffset:0;stroke-opacity:1;visibility:visible;display:inline;overflow:visible;enable-background:accumulate"
     d="M 681.6502,9.3971694 C 669.77253,30.538269 662.24736,51.679379 654.38836,72.820489 C 651.87519,79.581019 650.78966,85.505959 655.35288,89.912469 C 667.93856,102.06595 675.95829,117.41361 675.16288,124.55684 C 674.92518,126.69133 671.65541,129.22418 668.05725,129.5834 C 635.04911,132.87874 566.69827,112.28407 568.62225,74.284969 C 569.10582,64.734199 575.25106,46.786779 579.89593,35.722469 C 586.1237,20.887599 568.72456,7.6483694 559.72357,26.374449 C 522.05706,104.73763 485.78264,144.9909 434.54959,147.60952 C 396.92366,149.53266 357.81928,133.93491 310.32586,61.003719 C 300.86408,46.474159 288.7751,43.344969 277.8377,59.530699 C 229.21146,131.49029 205.55899,227.71509 61.929147,285.84808 C 58.703547,287.15362 52.432257,293.17382 50.725387,296.53747 C 38.273197,321.07641 29.861707,346.74885 26.607877,373.10247 C 26.016737,377.89034 27.976047,382.99742 32.497257,383.00372 C 109.45115,383.11116 148.59648,377.71821 227.55975,389.90997 C 232.20794,390.62764 232.42675,392.19309 228.05975,394.90997 C 129.06182,456.50011 44.362307,529.15186 5.5910068,702.03497 C -25.17543,839.22402 21.612087,966.64602 128.216,1024.3162 C 227.7352,1078.1538 332.35484,1093.6575 461.5285,1087.3787 C 470.72606,1087.3287 500.33962,1080.8859 509.12225,1077.535 C 567.97852,1055.0786 648.58246,1024.2684 711.0885,997.31812 C 720.64144,993.19922 713.98352,979.57662 708.18475,980.37872 C 655.29143,987.69522 471.39217,1023.0477 233.55975,958.25372 C 120.63519,927.48912 29.178237,834.76432 39.934757,694.78497 C 49.085327,576.6414 132.99636,497.48953 237.466,450.40997 C 323.998,411.41406 430.43048,393.99935 540.0285,382.28497 C 542.70915,381.99845 552.40822,383.69461 554.0285,380.15997 L 583.55975,315.72247 C 584.72935,312.29658 584.00474,309.82546 578.966,309.50372 C 432.00431,311.12249 276.21603,312.51634 124.10284,311.61261 C 115.32309,311.56372 115.15957,309.51859 123.62225,304.81952 C 171.19756,278.40243 217.98525,233.24937 265.7752,137.22247 C 272.49412,123.72177 286.31129,127.56066 295.9035,144.22247 C 332.23648,207.33343 368.75708,249.32604 413.36746,247.36523 C 450.36452,245.73906 495.53403,212.21859 520.94232,161.8103 C 523.08779,157.55312 526.08017,157.02884 527.99725,161.03497 C 547.93567,202.70078 589.12005,218.07642 624.591,220.75372 C 633.97722,221.46217 647.96005,220.64059 658.12225,211.50372 C 676.67399,194.82382 689.43525,171.80029 699.18475,151.65997 C 725.32295,97.664219 710.65024,22.154319 696.17226,6.0730994 C 693.56871,3.1812394 688.03416,-1.9656706 681.6502,9.3971694 z"
     id="path2828"
     sodipodi:nodetypes="csssssssssssssssssscsssscsscccssssssssssss" />
  <g
     style="fill:#000000;fill-opacity:1;stroke:#000000;stroke-opacity:1"
     id="g3427"
     transform="translate(257.62461,-472.43734)" />
</svg>
