<?xml version="1.0" encoding="UTF-8" standalone="no"?>
<!-- Created with Inkscape (http://www.inkscape.org/) -->

<svg
   xmlns:dc="http://purl.org/dc/elements/1.1/"
   xmlns:cc="http://creativecommons.org/ns#"
   xmlns:rdf="http://www.w3.org/1999/02/22-rdf-syntax-ns#"
   xmlns:svg="http://www.w3.org/2000/svg"
   xmlns="http://www.w3.org/2000/svg"
   xmlns:sodipodi="http://sodipodi.sourceforge.net/DTD/sodipodi-0.dtd"
   xmlns:inkscape="http://www.inkscape.org/namespaces/inkscape"
   version="1.0"
   width="1000"
   height="1000"
   id="svg5496"
   sodipodi:version="0.32"
   inkscape:version="0.47pre4 r22446"
   sodipodi:docname="seen.medi.svg"
   inkscape:output_extension="org.inkscape.output.svg.inkscape">
  <metadata
     id="metadata5594">
    <rdf:RDF>
      <cc:Work
         rdf:about="">
        <dc:format>image/svg+xml</dc:format>
        <dc:type
           rdf:resource="http://purl.org/dc/dcmitype/StillImage" />
        <dc:title />
      </cc:Work>
    </rdf:RDF>
  </metadata>
  <sodipodi:namedview
     inkscape:window-height="618"
     inkscape:window-width="765"
     inkscape:pageshadow="2"
     inkscape:pageopacity="0.0"
     borderopacity="1.0"
     bordercolor="#666666"
     pagecolor="#ffffff"
     id="base"
     showgrid="false"
     showguides="true"
     inkscape:guide-bbox="true"
     inkscape:zoom="1.0015078"
     inkscape:cx="361.81428"
     inkscape:cy="268.65627"
     inkscape:window-x="507"
     inkscape:window-y="2"
     inkscape:current-layer="svg5496"
     inkscape:window-maximized="0">
    <sodipodi:guide
       orientation="horizontal"
       position="200"
       id="guide5596" />
  </sodipodi:namedview>
  <defs
     id="defs5498">
    <inkscape:perspective
       sodipodi:type="inkscape:persp3d"
       inkscape:vp_x="0 : 500 : 1"
       inkscape:vp_y="0 : 1000 : 0"
       inkscape:vp_z="1000 : 500 : 1"
       inkscape:persp3d-origin="500 : 333.33333 : 1"
       id="perspective3005" />
    <inkscape:perspective
       id="perspective3015"
       inkscape:persp3d-origin="0.5 : 0.33333333 : 1"
       inkscape:vp_z="1 : 0.5 : 1"
       inkscape:vp_y="0 : 1000 : 0"
       inkscape:vp_x="0 : 0.5 : 1"
       sodipodi:type="inkscape:persp3d" />
    <inkscape:perspective
       sodipodi:type="inkscape:persp3d"
       inkscape:vp_x="0 : 526.18109 : 1"
       inkscape:vp_y="0 : 1000 : 0"
       inkscape:vp_z="744.09448 : 526.18109 : 1"
       inkscape:persp3d-origin="372.04724 : 350.78739 : 1"
       id="perspective2388" />
    <inkscape:perspective
       id="perspective8"
       inkscape:persp3d-origin="500 : 333.33333 : 1"
       inkscape:vp_z="1000 : 500 : 1"
       inkscape:vp_y="0 : 1000 : 0"
       inkscape:vp_x="0 : 500 : 1"
       sodipodi:type="inkscape:persp3d" />
    <inkscape:perspective
       sodipodi:type="inkscape:persp3d"
       inkscape:vp_x="0 : 526.18109 : 1"
       inkscape:vp_y="0 : 1000 : 0"
       inkscape:vp_z="744.09448 : 526.18109 : 1"
       inkscape:persp3d-origin="372.04724 : 350.78739 : 1"
       id="perspective4613" />
    <inkscape:perspective
       sodipodi:type="inkscape:persp3d"
       inkscape:vp_x="0 : 526.18109 : 1"
       inkscape:vp_y="0 : 1000 : 0"
       inkscape:vp_z="744.09448 : 526.18109 : 1"
       inkscape:persp3d-origin="372.04724 : 350.78739 : 1"
       id="perspective2388-3" />
    <inkscape:perspective
       id="perspective8-7"
       inkscape:persp3d-origin="500 : 333.33333 : 1"
       inkscape:vp_z="1000 : 500 : 1"
       inkscape:vp_y="0 : 1000 : 0"
       inkscape:vp_x="0 : 500 : 1"
       sodipodi:type="inkscape:persp3d" />
    <inkscape:perspective
       id="perspective6229"
       inkscape:persp3d-origin="0.5 : 0.33333333 : 1"
       inkscape:vp_z="1 : 0.5 : 1"
       inkscape:vp_y="0 : 1000 : 0"
       inkscape:vp_x="0 : 0.5 : 1"
       sodipodi:type="inkscape:persp3d" />
    <inkscape:perspective
       id="perspective6257"
       inkscape:persp3d-origin="0.5 : 0.33333333 : 1"
       inkscape:vp_z="1 : 0.5 : 1"
       inkscape:vp_y="0 : 1000 : 0"
       inkscape:vp_x="0 : 0.5 : 1"
       sodipodi:type="inkscape:persp3d" />
  </defs>
  <g
     id="g2830"
     transform="matrix(0.88132089,0.10496352,-0.10496352,0.88132089,70.733657,91.315556)"
     style="fill:#ff0000;fill-opacity:0.60784314;stroke:#000000;stroke-width:0;stroke-miterlimit:4;stroke-opacity:1;stroke-dasharray:none">
    <path
       sodipodi:nodetypes="csssssssssssscssssscsssss"
       id="path2834"
       d="m 595.08401,744.46368 c 20.85057,4.52734 25.48276,-98.86777 -12.39011,-99.8838 -28.99344,-0.77782 -55.25871,-34.29762 -68.33986,-71.61641 -4.29281,-12.24684 -17.34805,-16.80687 -22.42253,-2.31173 -7.74529,22.12427 -14.71932,45.24445 -26.45241,62.21946 -4.3172,6.24598 -7.82801,11.67632 -18.80411,12.87055 -17.98673,1.95699 -52.55814,0.0182 -71.71563,-17.78963 -4.44917,-4.13572 -3.17002,-9.72669 -2.90476,-13.63279 0.65805,-9.6903 5.81228,-18.49004 8.96779,-29.92908 4.1324,-14.98039 -17.41622,-23.8851 -25.18255,-6.46589 -24.27554,54.4479 -56.77844,94.17227 -123.89242,102.87326 -24.7384,3.21639 -45.32998,-3.48526 -51.28921,-21.56694 -2.62737,-7.97201 -3.40208,-28.06855 4.93807,-46.10484 4.41298,-9.54343 -16.89569,-17.82512 -24.7397,-3.16506 -58.95507,89.71829 -135.973449,93.66346 -157.715745,92.25836 -29.347807,-1.8966 -18.823931,108.74528 12.152162,100.07574 46.218136,-12.93546 60.758871,-32.48899 86.004643,-66.60266 1.36528,-1.84485 3.46646,-1.77067 5.15688,0.44376 20.54727,26.91661 46.14605,49.21603 94.7692,45.87922 68.66176,-4.71198 110.93739,-63.42445 122.91489,-76.53571 23.59661,16.83478 65.03412,33.22272 96.97391,38.56432 12.8261,2.14503 29.45651,1.59375 37.53194,-8.28909 14.18216,-17.38164 19.968,-37.43039 31.54445,-67.9044 2.39914,-6.31554 8.00347,-12.58405 15.39514,1.98359 24.1635,47.62182 68.15999,69.99616 89.49996,74.62977 z"
       style="fill:#ff0000;fill-opacity:0.60784314;fill-rule:evenodd;stroke:#000000;stroke-width:0;stroke-linecap:butt;stroke-linejoin:miter;stroke-miterlimit:4;stroke-opacity:1;stroke-dasharray:none" />
    <g
       style="fill:#ff0000;fill-opacity:0.60784314;stroke:#000000;stroke-width:0;stroke-miterlimit:4;stroke-opacity:1;stroke-dasharray:none"
       transform="matrix(1.3,0,0,1.3,-244.36598,-182.55101)"
       id="g2832" />
  </g>
  <g
     id="layer1"
     transform="translate(0,60)" />
  <g
     transform="translate(0,60)"
     id="g2836" />
</svg>
