<?xml version="1.0" encoding="UTF-8" standalone="no"?>
<!-- Created with Inkscape (http://www.inkscape.org/) -->

<svg
   xmlns:dc="http://purl.org/dc/elements/1.1/"
   xmlns:cc="http://creativecommons.org/ns#"
   xmlns:rdf="http://www.w3.org/1999/02/22-rdf-syntax-ns#"
   xmlns:svg="http://www.w3.org/2000/svg"
   xmlns="http://www.w3.org/2000/svg"
   xmlns:sodipodi="http://sodipodi.sourceforge.net/DTD/sodipodi-0.dtd"
   xmlns:inkscape="http://www.inkscape.org/namespaces/inkscape"
   version="1.0"
   width="1000"
   height="1000"
   id="svg5496"
   sodipodi:version="0.32"
   inkscape:version="0.47pre4 r22446"
   sodipodi:docname="seen+haa.init.svg"
   inkscape:output_extension="org.inkscape.output.svg.inkscape">
  <metadata
     id="metadata5594">
    <rdf:RDF>
      <cc:Work
         rdf:about="">
        <dc:format>image/svg+xml</dc:format>
        <dc:type
           rdf:resource="http://purl.org/dc/dcmitype/StillImage" />
        <dc:title />
      </cc:Work>
    </rdf:RDF>
  </metadata>
  <sodipodi:namedview
     inkscape:window-height="618"
     inkscape:pageshadow="2"
     inkscape:pageopacity="0.0"
     borderopacity="1.0"
     bordercolor="#666666"
     pagecolor="#ffffff"
     id="base"
     showgrid="false"
     showguides="true"
     inkscape:guide-bbox="true"
     inkscape:zoom="0.72722479"
     inkscape:cx="524.41438"
     inkscape:cy="422.888"
     inkscape:window-x="66"
     inkscape:window-y="125"
     inkscape:current-layer="svg5496"
     inkscape:window-width="641"
     inkscape:window-maximized="0">
    <sodipodi:guide
       orientation="horizontal"
       position="200"
       id="guide5596" />
  </sodipodi:namedview>
  <defs
     id="defs5498">
    <inkscape:perspective
       sodipodi:type="inkscape:persp3d"
       inkscape:vp_x="0 : 500 : 1"
       inkscape:vp_y="0 : 1000 : 0"
       inkscape:vp_z="1000 : 500 : 1"
       inkscape:persp3d-origin="500 : 333.33333 : 1"
       id="perspective2884" />
    <inkscape:perspective
       id="perspective2873"
       inkscape:persp3d-origin="0.5 : 0.33333333 : 1"
       inkscape:vp_z="1 : 0.5 : 1"
       inkscape:vp_y="0 : 1000 : 0"
       inkscape:vp_x="0 : 0.5 : 1"
       sodipodi:type="inkscape:persp3d" />
    <inkscape:perspective
       id="perspective5002"
       inkscape:persp3d-origin="0.5 : 0.33333333 : 1"
       inkscape:vp_z="1 : 0.5 : 1"
       inkscape:vp_y="0 : 1000 : 0"
       inkscape:vp_x="0 : 0.5 : 1"
       sodipodi:type="inkscape:persp3d" />
    <inkscape:perspective
       id="perspective5024"
       inkscape:persp3d-origin="0.5 : 0.33333333 : 1"
       inkscape:vp_z="1 : 0.5 : 1"
       inkscape:vp_y="0 : 1000 : 0"
       inkscape:vp_x="0 : 0.5 : 1"
       sodipodi:type="inkscape:persp3d" />
    <inkscape:perspective
       id="perspective5046"
       inkscape:persp3d-origin="0.5 : 0.33333333 : 1"
       inkscape:vp_z="1 : 0.5 : 1"
       inkscape:vp_y="0 : 1000 : 0"
       inkscape:vp_x="0 : 0.5 : 1"
       sodipodi:type="inkscape:persp3d" />
    <inkscape:perspective
       id="perspective2861"
       inkscape:persp3d-origin="0.5 : 0.33333333 : 1"
       inkscape:vp_z="1 : 0.5 : 1"
       inkscape:vp_y="0 : 1000 : 0"
       inkscape:vp_x="0 : 0.5 : 1"
       sodipodi:type="inkscape:persp3d" />
  </defs>
  <path
     sodipodi:nodetypes="cssssssssssss"
     id="path2827"
     d="m 70.573389,551.10743 c -24.887296,14.87956 -44.773945,33.82 -51.806389,60.12057 -0.593128,2.21823 -0.188,5.364 2.035,5.633 43.472,5.265 120.667,27.368 169.977,47.761 3.484,1.441 -1.689,4.745 -5.334,5.684 -47.85,12.33 -135.547817,37.66212 -185.895,39.154 -31.139761,0.92273 -16.827099,96.00803 0.45,90.54 130.31593,-41.24367 317.508,-124.394 486.645,-89.698 5.857,1.201 10.628,-1.403 14.075,-5.428 11.101,-12.965 23.419,-36.314 29.95,-53.888 3.59,-9.655 -4.132,-15.027 -11.711,-15.272 -108.13,-3.487 -252.8954,-24.15074 -380.651,-68.91 -33.31894,-11.67331 -56.101801,-22.65157 -67.734611,-15.69657 z"
     style="color:#000000;fill:#ff0000;fill-opacity:0.60784314;stroke:#000000;stroke-width:1;stroke-linecap:butt;stroke-linejoin:miter;stroke-miterlimit:4;stroke-opacity:1;stroke-dasharray:none;stroke-dashoffset:0;marker:none;visibility:visible;display:inline;overflow:visible;enable-background:accumulate" />
  <g
     id="layer1"
     transform="translate(-409.69163,202.90039)" />
  <path
     style="color:#000000;fill:#ff0000;fill-opacity:0.60784314;stroke:#000000;stroke-width:1;stroke-linecap:butt;stroke-linejoin:miter;stroke-miterlimit:4;stroke-opacity:1;stroke-dasharray:none;stroke-dashoffset:0;marker:none;visibility:visible;display:inline;overflow:visible;enable-background:accumulate"
     d="m 631.026,341.26801 -37.843,49.086 c -4.599,4.58 -4.399,9.365 -1.892,14.674 6.318,13.456 8.552,32.697 7.961,39.15999 -0.176,1.931 -1.984,5.383 -5.224,5.51 -26.097,1.021 -70.646,-8.924 -69.576,-43.26499 0.268,-8.631 3.604,-18.947 7.579,-29.017 5.327,-13.502 -14.84538,-21.37113 -20.242,-9.54 -19.80746,43.42427 -38.348,90.46499 -116.874,87.56299 -55.531,-2.068 -70.445,-33.71999 -89.165,-73.97599 -3.348,-7.201 -20.528,-8.925 -26.97,-1.764 C 248.9,412.91201 210.577,460.812 167.42,494.902 119.631,532.65 34.814,551.206 18.767,611.228 c -0.594,2.218 -0.188,5.364 2.035,5.633 47.256739,-17.42944 81.46533,-38.98675 118.092,-58.309 49.53489,-26.13193 99.549,-78.156 130.488,-116.8 1.324,-1.654 5.099,-2.059 6.651,0.825 12.916,23.997 31.542,80.04 78.3,94.34 47.559,12.571 89.706,-18.977 120.948,-51.741 2.773,-3.279 5.84349,-4.30748 7.307,-0.59 7.23627,18.381 42.821,43.725 74.672,45.525 8.429,0.478 25.904,0.403 34.859,-8.021 16.347,-15.382 26.118,-35.538 34.821,-53.745 26.238,-54.90099 24.17,-113.70299 11.117,-128.17799 -2.353,-2.612 -5.321,-1.116 -7.031,1.101 z"
     id="path2829"
     sodipodi:nodetypes="cccsssssssssscsssccssssss" />
</svg>
