<?xml version="1.0" encoding="UTF-8" standalone="no"?>
<!-- Created with Inkscape (http://www.inkscape.org/) -->

<svg
   xmlns:dc="http://purl.org/dc/elements/1.1/"
   xmlns:cc="http://creativecommons.org/ns#"
   xmlns:rdf="http://www.w3.org/1999/02/22-rdf-syntax-ns#"
   xmlns:svg="http://www.w3.org/2000/svg"
   xmlns="http://www.w3.org/2000/svg"
   xmlns:sodipodi="http://sodipodi.sourceforge.net/DTD/sodipodi-0.dtd"
   xmlns:inkscape="http://www.inkscape.org/namespaces/inkscape"
   version="1.0"
   width="1000"
   height="1000"
   id="svg5496"
   sodipodi:version="0.32"
   inkscape:version="0.47pre4 r22446"
   sodipodi:docname="seen.isol.svg"
   inkscape:output_extension="org.inkscape.output.svg.inkscape">
  <metadata
     id="metadata5594">
    <rdf:RDF>
      <cc:Work
         rdf:about="">
        <dc:format>image/svg+xml</dc:format>
        <dc:type
           rdf:resource="http://purl.org/dc/dcmitype/StillImage" />
      </cc:Work>
    </rdf:RDF>
  </metadata>
  <sodipodi:namedview
     inkscape:pageshadow="2"
     inkscape:pageopacity="0.0"
     guidetolerance="10.0"
     gridtolerance="10.0"
     objecttolerance="10.0"
     borderopacity="1.0"
     bordercolor="#666666"
     pagecolor="#ffffff"
     id="base"
     showgrid="false"
     showguides="true"
     inkscape:guide-bbox="true"
     inkscape:zoom="0.64205296"
     inkscape:cx="296.89667"
     inkscape:cy="382.40452"
     inkscape:window-x="0"
     inkscape:window-y="24"
     inkscape:current-layer="svg5496"
     inkscape:window-width="1280"
     inkscape:window-height="725"
     inkscape:window-maximized="1">
    <sodipodi:guide
       orientation="horizontal"
       position="200"
       id="guide5596" />
  </sodipodi:namedview>
  <defs
     id="defs5498">
    <inkscape:perspective
       sodipodi:type="inkscape:persp3d"
       inkscape:vp_x="0 : 500 : 1"
       inkscape:vp_y="0 : 1000 : 0"
       inkscape:vp_z="1000 : 500 : 1"
       inkscape:persp3d-origin="500 : 333.33333 : 1"
       id="perspective2422" />
    <inkscape:perspective
       id="perspective2431"
       inkscape:persp3d-origin="372.04724 : 350.78739 : 1"
       inkscape:vp_z="744.09448 : 526.18109 : 1"
       inkscape:vp_y="0 : 1000 : 0"
       inkscape:vp_x="0 : 526.18109 : 1"
       sodipodi:type="inkscape:persp3d" />
    <inkscape:perspective
       sodipodi:type="inkscape:persp3d"
       inkscape:vp_x="0 : 526.18109 : 1"
       inkscape:vp_y="0 : 1000 : 0"
       inkscape:vp_z="744.09448 : 526.18109 : 1"
       inkscape:persp3d-origin="372.04724 : 350.78739 : 1"
       id="perspective5135" />
    <inkscape:perspective
       id="perspective5126"
       inkscape:persp3d-origin="500 : 333.33333 : 1"
       inkscape:vp_z="1000 : 500 : 1"
       inkscape:vp_y="0 : 1000 : 0"
       inkscape:vp_x="0 : 500 : 1"
       sodipodi:type="inkscape:persp3d" />
    <inkscape:perspective
       id="perspective2506"
       inkscape:persp3d-origin="372.04724 : 350.78739 : 1"
       inkscape:vp_z="744.09448 : 526.18109 : 1"
       inkscape:vp_y="0 : 1000 : 0"
       inkscape:vp_x="0 : 526.18109 : 1"
       sodipodi:type="inkscape:persp3d" />
    <inkscape:perspective
       id="perspective4529"
       inkscape:persp3d-origin="0.5 : 0.33333333 : 1"
       inkscape:vp_z="1 : 0.5 : 1"
       inkscape:vp_y="0 : 1000 : 0"
       inkscape:vp_x="0 : 0.5 : 1"
       sodipodi:type="inkscape:persp3d" />
  </defs>
  <g
     id="layer1"
     transform="matrix(1.3,0,0,1.3,2.4002381,-240)" />
  <g
     id="g2486"
     transform="matrix(1.3,0,0,1.3,1080.1051,-351.76475)">
    <g
       transform="translate(-283.46571,185.03125)"
       id="g2488" />
  </g>
  <path
     style="fill:#ff0000;fill-opacity:0.60784314;fill-rule:evenodd;stroke:#000000;stroke-width:1;stroke-linecap:butt;stroke-linejoin:miter;stroke-miterlimit:4;stroke-opacity:1;stroke-dasharray:none"
     d="m 832.25884,405.78159 -18.5,72.5165 c -1.085,4.2522 -0.917,5.8567 1.473,8.9178 4.393,5.6265 7.616,18.65031 7.435,24.07981 -33.291,2.7063 -60.114,-7.6741 -88.755,-24.26511 2.948,-17.3132 4.754,-30.7348 3.766,-49.33 -0.54,-10.1191 -18.742,-16.1344 -23.365,2.0912 -9.94,39.1902 -13.449,67.45151 -37.752,91.17731 -32.122,31.3575 -78.416,36.8244 -103.296,31.0902 -14.672,-3.3815 -32.884,-49.2675 -45.662,-61.1696 -3.217,-2.9948 -6.943,-2.9576 -9.342,0.9101 -13.288,21.416 -25.043,43.2019 -36.006,67.016 -2.585,5.6171 -0.225,12.1064 2.827,16.8452 24.172,37.5442 51.214,155.0829 35.876,178.7411 -61.664,95.117 -194.985,131.0264 -292.927,128.3557 -105.321,-7.4117 -174.929002,-62.8389 -188.237002,-134.4985 -9.41,-50.6635 27.686,-113.6097 50.761,-162.9131 6.791,-14.5105 -11.244,-22.2973 -18.872,-8.711 -58.996,105.0749 -112.055997,259.8374 -23.562,346.293 44.421001,43.3968 88.792002,66.1265 170.111002,66.1021 108.374,-0.033 191.543,-38.8914 253.132,-85.5107 66.173,-50.0893 85.437,-123.0864 92.517,-192.3425 1.6,-15.6452 2.201,-45.3544 2.363,-61.0699 67.689,9.5211 100.373,-13.0365 133.836,-67.3907 27.744,13.2125 80.839,37.4103 108.755,28.2933 22.963,-8.1955 28.782,-22.5241 47.559,-72.6194 15.479,-41.2962 15.935,-114.34421 -1.649,-144.36041 -6.189,-10.5656 -18.945,-12.1296 -22.486,1.7516 z"
     id="path2491-1"
     sodipodi:nodetypes="csscccsssssssscssssssscccsss" />
</svg>
