<?xml version="1.0" encoding="UTF-8" standalone="no"?>
<!-- Created with Inkscape (http://www.inkscape.org/) -->

<svg
   xmlns:dc="http://purl.org/dc/elements/1.1/"
   xmlns:cc="http://creativecommons.org/ns#"
   xmlns:rdf="http://www.w3.org/1999/02/22-rdf-syntax-ns#"
   xmlns:svg="http://www.w3.org/2000/svg"
   xmlns="http://www.w3.org/2000/svg"
   xmlns:sodipodi="http://sodipodi.sourceforge.net/DTD/sodipodi-0.dtd"
   xmlns:inkscape="http://www.inkscape.org/namespaces/inkscape"
   version="1.0"
   width="1000"
   height="1000"
   id="svg5496"
   sodipodi:version="0.32"
   inkscape:version="0.47pre4 r22446"
   sodipodi:docname="seen+baa+meem.init.svg"
   inkscape:output_extension="org.inkscape.output.svg.inkscape">
  <metadata
     id="metadata5594">
    <rdf:RDF>
      <cc:Work
         rdf:about="">
        <dc:format>image/svg+xml</dc:format>
        <dc:type
           rdf:resource="http://purl.org/dc/dcmitype/StillImage" />
      </cc:Work>
    </rdf:RDF>
  </metadata>
  <sodipodi:namedview
     inkscape:window-height="725"
     inkscape:window-width="1280"
     inkscape:pageshadow="2"
     inkscape:pageopacity="0.0"
     guidetolerance="10.0"
     gridtolerance="10.0"
     objecttolerance="10.0"
     borderopacity="1.0"
     bordercolor="#666666"
     pagecolor="#ffffff"
     id="base"
     showgrid="false"
     showguides="true"
     inkscape:guide-bbox="true"
     inkscape:zoom="0.64205296"
     inkscape:cx="693.90992"
     inkscape:cy="395.02814"
     inkscape:window-x="0"
     inkscape:window-y="24"
     inkscape:current-layer="svg5496"
     inkscape:window-maximized="1">
    <sodipodi:guide
       orientation="horizontal"
       position="200"
       id="guide5596" />
  </sodipodi:namedview>
  <defs
     id="defs5498">
    <inkscape:perspective
       sodipodi:type="inkscape:persp3d"
       inkscape:vp_x="0 : 500 : 1"
       inkscape:vp_y="0 : 1000 : 0"
       inkscape:vp_z="1000 : 500 : 1"
       inkscape:persp3d-origin="500 : 333.33333 : 1"
       id="perspective3202" />
    <inkscape:perspective
       id="perspective3211"
       inkscape:persp3d-origin="372.04724 : 350.78739 : 1"
       inkscape:vp_z="744.09448 : 526.18109 : 1"
       inkscape:vp_y="0 : 1000 : 0"
       inkscape:vp_x="0 : 526.18109 : 1"
       sodipodi:type="inkscape:persp3d" />
    <inkscape:perspective
       sodipodi:type="inkscape:persp3d"
       inkscape:vp_x="0 : 0.5 : 1"
       inkscape:vp_y="0 : 1000 : 0"
       inkscape:vp_z="1 : 0.5 : 1"
       inkscape:persp3d-origin="0.5 : 0.33333333 : 1"
       id="perspective2867" />
    <inkscape:perspective
       id="perspective2857"
       inkscape:persp3d-origin="500 : 333.33333 : 1"
       inkscape:vp_z="1000 : 500 : 1"
       inkscape:vp_y="0 : 1000 : 0"
       inkscape:vp_x="0 : 500 : 1"
       sodipodi:type="inkscape:persp3d" />
    <inkscape:perspective
       sodipodi:type="inkscape:persp3d"
       inkscape:vp_x="0 : 0.5 : 1"
       inkscape:vp_y="0 : 1000 : 0"
       inkscape:vp_z="1 : 0.5 : 1"
       inkscape:persp3d-origin="0.5 : 0.33333333 : 1"
       id="perspective4533" />
    <inkscape:perspective
       sodipodi:type="inkscape:persp3d"
       inkscape:vp_x="0 : 0.5 : 1"
       inkscape:vp_y="0 : 1000 : 0"
       inkscape:vp_z="1 : 0.5 : 1"
       inkscape:persp3d-origin="0.5 : 0.33333333 : 1"
       id="perspective2867-3" />
    <inkscape:perspective
       id="perspective2857-8"
       inkscape:persp3d-origin="500 : 333.33333 : 1"
       inkscape:vp_z="1000 : 500 : 1"
       inkscape:vp_y="0 : 1000 : 0"
       inkscape:vp_x="0 : 500 : 1"
       sodipodi:type="inkscape:persp3d" />
  </defs>
  <g
     id="layer1"
     transform="translate(-57.268722,138.16355)" />
  <g
     id="g3305"
     transform="matrix(0.93332228,0,0,0.93332228,178.8211,53.558949)"
     style="fill:#ff0000;fill-opacity:0.60784314;stroke:#000000;stroke-width:0.94528061;stroke-miterlimit:4;stroke-opacity:1;stroke-dasharray:none">
    <g
       id="g3307"
       style="fill:#ff0000;fill-opacity:0.60784314;stroke:#000000;stroke-width:0.94528061;stroke-miterlimit:4;stroke-opacity:1;stroke-dasharray:none" />
    <path
       sodipodi:nodetypes="csssssssssscsssssscccssssssccscscssssssc"
       id="path2873"
       d="m 634.02186,327.31994 c -7.33988,22.88233 -14.24785,45.14765 -21.75291,75.33529 -0.80809,3.2504 -1.92299,5.03171 0.54378,6.81135 2.67624,1.93076 9.84522,12.07853 10.43127,15.56187 0.57054,3.39116 -0.57143,4.87294 -3.26081,6.75103 -11.04434,7.71266 -31.39768,10.17434 -48.99225,0.78126 -8.43442,-4.50282 -23.82737,-13.54066 -23.72474,-24.25131 0.0526,-5.68511 6.72936,-20.55357 9.02699,-31.05525 5.881,-26.88005 -22.29765,-33.74592 -30.7578,-14.33774 -13.61653,31.23729 -27.50377,62.51265 -49.62547,84.60545 -20.61126,20.58432 -48.16227,33.36927 -82.64226,31.37781 -13.37229,-0.77234 -36.49484,1.50306 -58.24454,-21.03449 5.81965,-9.42018 20.16837,-30.4054 28.14149,-48.52027 9.06867,-20.60395 -9.6804,-33.41399 -21.55623,-18.93206 C 300.60707,440.41177 238.89342,497.75088 179.7636,494.50357 112.24171,490.72893 61.73952,451.77972 54.638702,408.05339 52.584756,395.40533 33.99681,388.32175 28.356455,387.15727 c -51.970377,-10.72958 -108.31247,37.35383 -138.263715,95.30371 -34.39021,66.53841 -14.52208,163.08273 -3.8795,190.14996 -15.07719,15.81222 -51.0274,25.86159 -78.28646,30.46917 l 0.47692,96.68763 c 29.87375,-3.47579 95.250878,-47.22407 128.71071,-48.33474 39.89452,-1.32427 85.118726,46.11495 119.561227,69.2106 5.1821,3.47489 9.594218,3.85322 12.31969,-1.23724 13.997414,-26.14346 26.844517,-54.89259 29.580426,-79.94248 0.808883,-7.4061 1.107005,-16.16377 -2.958899,-22.05226 C 84.216948,700.90158 43.932676,672.58563 -5.5317604,655.84656 -48.202377,641.40656 -83.917951,587.96641 -93.44757,551.50519 c 3.542082,-31.72288 70.270884,-70.2746 99.5603396,-61.78594 26.2676414,21.30026 52.5889794,106.3449 152.0355904,107.29707 57.05722,0.54631 97.47621,-42.53665 131.85536,-79.87593 19.61832,44.75666 48.51443,62.62509 80.72546,66.82458 54.01383,7.04202 95.41604,-35.37215 132.34706,-87.70185 1.70409,-2.45536 3.23966,-1.56454 4.35458,-0.0719 33.09519,44.30662 81.97138,48.20169 116.02395,34.4837 22.9192,-9.23294 34.63829,-44.39789 41.19123,-72.00459 6.72331,-28.32448 10.10306,-67.83324 3.3667,-97.92953 -4.02009,-17.96072 -12.48081,-32.73685 -23.66577,-39.31968 -4.66381,-2.74485 -8.20239,-0.71866 -10.32507,5.89884 l 0,-2e-5 z"
       style="fill:#ff0000;fill-opacity:0.60784314;stroke:#000000;stroke-width:0.94528061;stroke-linecap:butt;stroke-linejoin:miter;stroke-miterlimit:4;stroke-opacity:1;stroke-dasharray:none;stroke-dashoffset:0;marker:none;visibility:visible;display:inline;overflow:visible;enable-background:accumulate" />
  </g>
</svg>
