<?xml version="1.0" encoding="UTF-8" standalone="no"?>
<!-- Created with Inkscape (http://www.inkscape.org/) -->

<svg
   xmlns:dc="http://purl.org/dc/elements/1.1/"
   xmlns:cc="http://creativecommons.org/ns#"
   xmlns:rdf="http://www.w3.org/1999/02/22-rdf-syntax-ns#"
   xmlns:svg="http://www.w3.org/2000/svg"
   xmlns="http://www.w3.org/2000/svg"
   xmlns:sodipodi="http://sodipodi.sourceforge.net/DTD/sodipodi-0.dtd"
   xmlns:inkscape="http://www.inkscape.org/namespaces/inkscape"
   version="1.0"
   width="1000"
   height="1000"
   id="svg5496"
   sodipodi:version="0.32"
   inkscape:version="0.47pre4 r22446"
   sodipodi:docname="seen.medi.svg"
   inkscape:output_extension="org.inkscape.output.svg.inkscape">
  <metadata
     id="metadata5594">
    <rdf:RDF>
      <cc:Work
         rdf:about="">
        <dc:format>image/svg+xml</dc:format>
        <dc:type
           rdf:resource="http://purl.org/dc/dcmitype/StillImage" />
        <dc:title />
      </cc:Work>
    </rdf:RDF>
  </metadata>
  <sodipodi:namedview
     inkscape:window-height="722"
     inkscape:window-width="1280"
     inkscape:pageshadow="2"
     inkscape:pageopacity="0.0"
     borderopacity="1.0"
     bordercolor="#666666"
     pagecolor="#ffffff"
     id="base"
     showgrid="false"
     showguides="true"
     inkscape:guide-bbox="true"
     inkscape:zoom="1.816"
     inkscape:cx="678.23771"
     inkscape:cy="296.18395"
     inkscape:window-x="0"
     inkscape:window-y="26"
     inkscape:current-layer="svg5496"
     inkscape:window-maximized="1">
    <sodipodi:guide
       orientation="horizontal"
       position="200"
       id="guide5596" />
  </sodipodi:namedview>
  <defs
     id="defs5498">
    <inkscape:perspective
       sodipodi:type="inkscape:persp3d"
       inkscape:vp_x="0 : 500 : 1"
       inkscape:vp_y="0 : 1000 : 0"
       inkscape:vp_z="1000 : 500 : 1"
       inkscape:persp3d-origin="500 : 333.33333 : 1"
       id="perspective3005" />
    <inkscape:perspective
       id="perspective3015"
       inkscape:persp3d-origin="0.5 : 0.33333333 : 1"
       inkscape:vp_z="1 : 0.5 : 1"
       inkscape:vp_y="0 : 1000 : 0"
       inkscape:vp_x="0 : 0.5 : 1"
       sodipodi:type="inkscape:persp3d" />
    <inkscape:perspective
       sodipodi:type="inkscape:persp3d"
       inkscape:vp_x="0 : 526.18109 : 1"
       inkscape:vp_y="0 : 1000 : 0"
       inkscape:vp_z="744.09448 : 526.18109 : 1"
       inkscape:persp3d-origin="372.04724 : 350.78739 : 1"
       id="perspective2388" />
    <inkscape:perspective
       id="perspective8"
       inkscape:persp3d-origin="500 : 333.33333 : 1"
       inkscape:vp_z="1000 : 500 : 1"
       inkscape:vp_y="0 : 1000 : 0"
       inkscape:vp_x="0 : 500 : 1"
       sodipodi:type="inkscape:persp3d" />
    <inkscape:perspective
       sodipodi:type="inkscape:persp3d"
       inkscape:vp_x="0 : 526.18109 : 1"
       inkscape:vp_y="0 : 1000 : 0"
       inkscape:vp_z="744.09448 : 526.18109 : 1"
       inkscape:persp3d-origin="372.04724 : 350.78739 : 1"
       id="perspective4613" />
    <inkscape:perspective
       sodipodi:type="inkscape:persp3d"
       inkscape:vp_x="0 : 526.18109 : 1"
       inkscape:vp_y="0 : 1000 : 0"
       inkscape:vp_z="744.09448 : 526.18109 : 1"
       inkscape:persp3d-origin="372.04724 : 350.78739 : 1"
       id="perspective2388-3" />
    <inkscape:perspective
       id="perspective8-7"
       inkscape:persp3d-origin="500 : 333.33333 : 1"
       inkscape:vp_z="1000 : 500 : 1"
       inkscape:vp_y="0 : 1000 : 0"
       inkscape:vp_x="0 : 500 : 1"
       sodipodi:type="inkscape:persp3d" />
  </defs>
  <g
     id="layer1" />
  <g
     id="g3166"
     transform="matrix(0.88132089,0.10496352,-0.10496352,0.88132089,82.733657,94.795945)"
     style="fill:#000000;fill-opacity:1;stroke:#000000;stroke-opacity:1">
    <g
       style="fill:#000000;fill-opacity:1;stroke:#000000;stroke-opacity:1"
       transform="matrix(1.3,0,0,1.3,-244.36598,-182.55101)"
       id="layer1-60" />
    <path
       sodipodi:nodetypes="ccssssssssssscccsszssssssc"
       id="path2394-2"
       d="m 584.02339,734.86267 c -4.0224,-34.64217 -7.2401,-60.37522 -10.71343,-85.8057 -26.94233,-12.63836 -45.87477,-38.77471 -58.95592,-76.0935 -4.29281,-12.24684 -17.34805,-16.80687 -22.42253,-2.31173 -7.74529,22.12427 -14.71932,45.24445 -26.45241,62.21946 -4.3172,6.24598 -7.82801,11.67632 -18.80411,12.87055 -17.98673,1.95699 -53.0468,0.64286 -69.47805,-18.05612 -4.00969,-4.56308 -3.17002,-9.72669 -2.90476,-13.63279 0.65805,-9.6903 3.5747,-18.22355 6.73021,-29.66259 4.1324,-14.98039 -19.59048,-18.18944 -27.93517,-1.03977 -25.1667,51.72165 -54.02582,88.74615 -121.1398,97.44714 -24.7384,3.21639 -45.32998,-3.48526 -51.28921,-21.56694 -2.62737,-7.97201 -3.40208,-28.06855 4.93807,-46.10484 4.41298,-9.54343 -18.94645,-20.94036 -26.79046,-6.2803 -49.21931,80.19497 -95.973133,82.07693 -155.9314765,93.13602 L 1.4037555,800 C 47.540841,786.77321 86.994305,755.90462 112.24008,721.79095 c 1.36528,-1.84485 3.46646,-1.77067 5.15688,0.44376 20.54727,26.91661 35.08894,59.88453 83.82676,59.78049 49.17358,-0.10497 85.80663,-31.05331 109.86438,-77.03221 4.06194,-7.76313 7.14924,-8.66328 11.02133,-4.96315 42.84652,40.9437 78.14758,40.9836 99.00309,44.02397 12.86934,1.87613 29.45651,1.59375 37.53194,-8.28909 14.18216,-17.38164 19.968,-37.43039 31.54445,-67.9044 2.39914,-6.31554 8.00347,-12.58405 15.39514,1.98359 24.1635,47.62182 57.1419,60.19918 78.43934,65.02876 z"
       style="fill:#000000;fill-opacity:1;fill-rule:evenodd;stroke:#000000;stroke-width:1px;stroke-linecap:butt;stroke-linejoin:miter;stroke-opacity:1" />
  </g>
</svg>
