<?xml version="1.0" encoding="UTF-8" standalone="no"?>
<!-- Created with Inkscape (http://www.inkscape.org/) -->
<svg
   xmlns:dc="http://purl.org/dc/elements/1.1/"
   xmlns:cc="http://creativecommons.org/ns#"
   xmlns:rdf="http://www.w3.org/1999/02/22-rdf-syntax-ns#"
   xmlns:svg="http://www.w3.org/2000/svg"
   xmlns="http://www.w3.org/2000/svg"
   xmlns:sodipodi="http://sodipodi.sourceforge.net/DTD/sodipodi-0.dtd"
   xmlns:inkscape="http://www.inkscape.org/namespaces/inkscape"
   version="1.0"
   width="1000"
   height="1000"
   id="svg5496"
   sodipodi:version="0.32"
   inkscape:version="0.46"
   sodipodi:docname="taa.isol.svg"
   inkscape:output_extension="org.inkscape.output.svg.inkscape">
  <metadata
     id="metadata5594">
    <rdf:RDF>
      <cc:Work
         rdf:about="">
        <dc:format>image/svg+xml</dc:format>
        <dc:type
           rdf:resource="http://purl.org/dc/dcmitype/StillImage" />
      </cc:Work>
    </rdf:RDF>
  </metadata>
  <sodipodi:namedview
     inkscape:pageshadow="2"
     inkscape:pageopacity="0.0"
     guidetolerance="10.0"
     gridtolerance="10.0"
     objecttolerance="10.0"
     borderopacity="1.0"
     bordercolor="#666666"
     pagecolor="#ffffff"
     id="base"
     showgrid="false"
     showguides="true"
     inkscape:guide-bbox="true"
     inkscape:zoom="0.6675088"
     inkscape:cx="253.81209"
     inkscape:cy="501.30623"
     inkscape:window-x="0"
     inkscape:window-y="25"
     inkscape:current-layer="svg5496">
    <sodipodi:guide
       orientation="horizontal"
       position="200"
       id="guide5596" />
  </sodipodi:namedview>
  <defs
     id="defs5498">
    <inkscape:perspective
       sodipodi:type="inkscape:persp3d"
       inkscape:vp_x="0 : 500 : 1"
       inkscape:vp_y="0 : 1000 : 0"
       inkscape:vp_z="1000 : 500 : 1"
       inkscape:persp3d-origin="500 : 333.33333 : 1"
       id="perspective8" />
    <inkscape:perspective
       id="perspective2388"
       inkscape:persp3d-origin="372.04724 : 350.78739 : 1"
       inkscape:vp_z="744.09448 : 526.18109 : 1"
       inkscape:vp_y="0 : 1000 : 0"
       inkscape:vp_x="0 : 526.18109 : 1"
       sodipodi:type="inkscape:persp3d" />
    <inkscape:perspective
       sodipodi:type="inkscape:persp3d"
       inkscape:vp_x="0 : 526.18109 : 1"
       inkscape:vp_y="0 : 1000 : 0"
       inkscape:vp_z="744.09448 : 526.18109 : 1"
       inkscape:persp3d-origin="372.04724 : 350.78739 : 1"
       id="perspective3220" />
    <inkscape:perspective
       sodipodi:type="inkscape:persp3d"
       inkscape:vp_x="0 : 526.18109 : 1"
       inkscape:vp_y="0 : 1000 : 0"
       inkscape:vp_z="744.09448 : 526.18109 : 1"
       inkscape:persp3d-origin="372.04724 : 350.78739 : 1"
       id="perspective3343" />
    <inkscape:perspective
       sodipodi:type="inkscape:persp3d"
       inkscape:vp_x="0 : 526.18109 : 1"
       inkscape:vp_y="0 : 1000 : 0"
       inkscape:vp_z="744.09448 : 526.18109 : 1"
       inkscape:persp3d-origin="372.04724 : 350.78739 : 1"
       id="perspective2474" />
    <inkscape:perspective
       sodipodi:type="inkscape:persp3d"
       inkscape:vp_x="0 : 526.18109 : 1"
       inkscape:vp_y="0 : 1000 : 0"
       inkscape:vp_z="744.09448 : 526.18109 : 1"
       inkscape:persp3d-origin="372.04724 : 350.78739 : 1"
       id="perspective2485" />
    <inkscape:perspective
       id="perspective2389"
       inkscape:persp3d-origin="500 : 333.33333 : 1"
       inkscape:vp_z="1000 : 500 : 1"
       inkscape:vp_y="0 : 1000 : 0"
       inkscape:vp_x="0 : 500 : 1"
       sodipodi:type="inkscape:persp3d" />
  </defs>
  <g
     id="layer1"
     transform="matrix(1.3,0,0,1.3,-287.20576,-135.63437)" />
  <path
     style="fill:#000000;fill-rule:evenodd;stroke:#000000;stroke-width:1px;stroke-linecap:butt;stroke-linejoin:miter;stroke-opacity:1;fill-opacity:1"
     d="M 297.6875 85.09375 C 295.10123 85.059994 292.61117 86.814995 290.96875 89.71875 C 279.43534 110.10951 269.64828 130.6204 258.8125 162.71875 C 256.9943 168.10475 257.51263 170.73469 259.15625 175.75 C 261.95681 184.29561 264.97352 196.89026 266.03125 205.53125 C 285.93243 368.11167 312.7913 554.0039 302.75 718.3125 L 299.875 720.65625 C 271.94384 744.01899 241.69735 770.3149 208.875 800 C 142.06149 804.75137 74.21552 803.77756 15.96875 795.34375 C 9.1392705 794.35487 -0.061550025 796.00752 9.875 815.75 C 25.18281 846.1644 78.704157 897.99174 168.40625 913.3125 C 415.55541 902.01956 633.44793 813.40429 660.59375 784.96875 C 677.63979 767.11286 738.51684 669.93343 732.90625 621.75 C 729.44773 592.04845 691.6168 564.01189 669.84375 549.9375 C 648.0707 535.8631 631.30918 533.00662 619.1875 534.5625 C 573.61109 540.41241 501.21228 560.6051 349.1875 680.53125 L 325.90625 699.46875 C 330.98674 676.05118 345.53485 607.00867 347.3125 574.84375 C 351.77573 494.86467 330.24286 290.94727 326.21875 247.65625 C 325.54374 240.39465 327.81267 234.26281 331.96875 228.90625 C 340.60867 217.77071 356.26845 198.25433 366.09375 188.21875 C 372.92906 181.23714 372.33154 175.89744 369.75 173.84375 C 324.56711 137.95585 318.00969 119.07319 304.96875 91.28125 C 302.93873 86.95501 300.27377 85.127506 297.6875 85.09375 z M 560.96875 647.375 C 609.24607 647.47517 636.25517 670.67266 648.0625 694.03125 C 548.00343 748.55901 401.93779 767.55925 301.21875 787.09375 C 364.87206 740.43392 419.26601 676.41277 515.28125 653.25 C 532.26423 649.15302 547.4511 647.34695 560.96875 647.375 z "
     id="path3914" />
</svg>
