<?xml version="1.0" encoding="UTF-8" standalone="no"?>
<!-- Created with Inkscape (http://www.inkscape.org/) -->

<svg
   xmlns:dc="http://purl.org/dc/elements/1.1/"
   xmlns:cc="http://creativecommons.org/ns#"
   xmlns:rdf="http://www.w3.org/1999/02/22-rdf-syntax-ns#"
   xmlns:svg="http://www.w3.org/2000/svg"
   xmlns="http://www.w3.org/2000/svg"
   xmlns:sodipodi="http://sodipodi.sourceforge.net/DTD/sodipodi-0.dtd"
   xmlns:inkscape="http://www.inkscape.org/namespaces/inkscape"
   version="1.0"
   width="1000"
   height="1000"
   id="svg5496"
   sodipodi:version="0.32"
   inkscape:version="0.47pre0 r21549"
   sodipodi:docname="taa.init.svg"
   inkscape:output_extension="org.inkscape.output.svg.inkscape">
  <metadata
     id="metadata5594">
    <rdf:RDF>
      <cc:Work
         rdf:about="">
        <dc:format>image/svg+xml</dc:format>
        <dc:type
           rdf:resource="http://purl.org/dc/dcmitype/StillImage" />
      </cc:Work>
    </rdf:RDF>
  </metadata>
  <sodipodi:namedview
     inkscape:pageshadow="2"
     inkscape:pageopacity="0.0"
     guidetolerance="10.0"
     gridtolerance="10.0"
     objecttolerance="10.0"
     borderopacity="1.0"
     bordercolor="#666666"
     pagecolor="#ffffff"
     id="base"
     showgrid="false"
     showguides="true"
     inkscape:guide-bbox="true"
     inkscape:zoom="0.236"
     inkscape:cx="1226.6949"
     inkscape:cy="500"
     inkscape:window-x="0"
     inkscape:window-y="25"
     inkscape:current-layer="svg5496">
    <sodipodi:guide
       orientation="horizontal"
       position="200"
       id="guide5596" />
  </sodipodi:namedview>
  <defs
     id="defs5498">
    <inkscape:perspective
       sodipodi:type="inkscape:persp3d"
       inkscape:vp_x="0 : 500 : 1"
       inkscape:vp_y="0 : 1000 : 0"
       inkscape:vp_z="1000 : 500 : 1"
       inkscape:persp3d-origin="500 : 333.33333 : 1"
       id="perspective3564" />
    <inkscape:perspective
       id="perspective3573"
       inkscape:persp3d-origin="372.04724 : 350.78739 : 1"
       inkscape:vp_z="744.09448 : 526.18109 : 1"
       inkscape:vp_y="0 : 1000 : 0"
       inkscape:vp_x="0 : 526.18109 : 1"
       sodipodi:type="inkscape:persp3d" />
    <inkscape:perspective
       sodipodi:type="inkscape:persp3d"
       inkscape:vp_x="0 : 500 : 1"
       inkscape:vp_y="0 : 1000 : 0"
       inkscape:vp_z="1000 : 500 : 1"
       inkscape:persp3d-origin="500 : 333.33333 : 1"
       id="perspective2389" />
    <inkscape:perspective
       id="perspective2485"
       inkscape:persp3d-origin="372.04724 : 350.78739 : 1"
       inkscape:vp_z="744.09448 : 526.18109 : 1"
       inkscape:vp_y="0 : 1000 : 0"
       inkscape:vp_x="0 : 526.18109 : 1"
       sodipodi:type="inkscape:persp3d" />
    <inkscape:perspective
       id="perspective2474"
       inkscape:persp3d-origin="372.04724 : 350.78739 : 1"
       inkscape:vp_z="744.09448 : 526.18109 : 1"
       inkscape:vp_y="0 : 1000 : 0"
       inkscape:vp_x="0 : 526.18109 : 1"
       sodipodi:type="inkscape:persp3d" />
    <inkscape:perspective
       id="perspective3343"
       inkscape:persp3d-origin="372.04724 : 350.78739 : 1"
       inkscape:vp_z="744.09448 : 526.18109 : 1"
       inkscape:vp_y="0 : 1000 : 0"
       inkscape:vp_x="0 : 526.18109 : 1"
       sodipodi:type="inkscape:persp3d" />
    <inkscape:perspective
       id="perspective3220"
       inkscape:persp3d-origin="372.04724 : 350.78739 : 1"
       inkscape:vp_z="744.09448 : 526.18109 : 1"
       inkscape:vp_y="0 : 1000 : 0"
       inkscape:vp_x="0 : 526.18109 : 1"
       sodipodi:type="inkscape:persp3d" />
    <inkscape:perspective
       sodipodi:type="inkscape:persp3d"
       inkscape:vp_x="0 : 526.18109 : 1"
       inkscape:vp_y="0 : 1000 : 0"
       inkscape:vp_z="744.09448 : 526.18109 : 1"
       inkscape:persp3d-origin="372.04724 : 350.78739 : 1"
       id="perspective2388" />
    <inkscape:perspective
       id="perspective8"
       inkscape:persp3d-origin="500 : 333.33333 : 1"
       inkscape:vp_z="1000 : 500 : 1"
       inkscape:vp_y="0 : 1000 : 0"
       inkscape:vp_x="0 : 500 : 1"
       sodipodi:type="inkscape:persp3d" />
    <inkscape:perspective
       sodipodi:type="inkscape:persp3d"
       inkscape:vp_x="0 : 500 : 1"
       inkscape:vp_y="0 : 1000 : 0"
       inkscape:vp_z="1000 : 500 : 1"
       inkscape:persp3d-origin="500 : 333.33333 : 1"
       id="perspective4294" />
    <inkscape:perspective
       id="perspective4292"
       inkscape:persp3d-origin="372.04724 : 350.78739 : 1"
       inkscape:vp_z="744.09448 : 526.18109 : 1"
       inkscape:vp_y="0 : 1000 : 0"
       inkscape:vp_x="0 : 526.18109 : 1"
       sodipodi:type="inkscape:persp3d" />
    <inkscape:perspective
       id="perspective4290"
       inkscape:persp3d-origin="372.04724 : 350.78739 : 1"
       inkscape:vp_z="744.09448 : 526.18109 : 1"
       inkscape:vp_y="0 : 1000 : 0"
       inkscape:vp_x="0 : 526.18109 : 1"
       sodipodi:type="inkscape:persp3d" />
    <inkscape:perspective
       id="perspective4288"
       inkscape:persp3d-origin="372.04724 : 350.78739 : 1"
       inkscape:vp_z="744.09448 : 526.18109 : 1"
       inkscape:vp_y="0 : 1000 : 0"
       inkscape:vp_x="0 : 526.18109 : 1"
       sodipodi:type="inkscape:persp3d" />
    <inkscape:perspective
       id="perspective4286"
       inkscape:persp3d-origin="372.04724 : 350.78739 : 1"
       inkscape:vp_z="744.09448 : 526.18109 : 1"
       inkscape:vp_y="0 : 1000 : 0"
       inkscape:vp_x="0 : 526.18109 : 1"
       sodipodi:type="inkscape:persp3d" />
    <inkscape:perspective
       sodipodi:type="inkscape:persp3d"
       inkscape:vp_x="0 : 526.18109 : 1"
       inkscape:vp_y="0 : 1000 : 0"
       inkscape:vp_z="744.09448 : 526.18109 : 1"
       inkscape:persp3d-origin="372.04724 : 350.78739 : 1"
       id="perspective4284" />
    <inkscape:perspective
       id="perspective4282"
       inkscape:persp3d-origin="500 : 333.33333 : 1"
       inkscape:vp_z="1000 : 500 : 1"
       inkscape:vp_y="0 : 1000 : 0"
       inkscape:vp_x="0 : 500 : 1"
       sodipodi:type="inkscape:persp3d" />
  </defs>
  <g
     id="layer1"
     transform="translate(3.048094,20.26955)" />
  <path
     style="fill:#000000;stroke:#000000;stroke-width:1.30000007px;stroke-linecap:butt;stroke-linejoin:miter;stroke-opacity:1"
     d="m 161.8422,27.88125 c -2.35823,-0.0411 -4.61302,1.0399 -6.25625,3.7375 -11.51665,18.90632 -23.38276,36.74229 -33.55625,59.67813 -4.495,10.13385 -5.53653,18.9643 -4.26563,27.70625 22.85007,157.17432 50.05447,427.45955 28.27501,516.62812 -26.22547,20.59533 -52.350595,41.31884 -78.487511,62.03438 l -13.934375,1.3 0,0.24375 c -17.516802,1.39157 -35.031841,2.66661 -52.5687509,3.77812 l 0.975,97.0125 c 47.6387609,-2.522 95.1535009,-7.30633 142.5125069,-13.04062 50.3425,-6.0957 100.53584,-13.36144 150.51562,-21.9375 22.5368,-3.8675 45.02943,-8.03852 67.4375,-12.59375 18.8981,-3.8402 37.73153,-7.95467 56.42813,-12.675 13.8541,-3.4996 27.67311,-7.21011 41.1125,-12.06563 4.5721,-1.651 9.14161,-3.43007 13.4875,-5.60625 2.8522,-1.4274 5.67841,-2.97312 7.9625,-5.2 0.7124,-0.6942 1.34711,-1.47646 1.99062,-2.23437 1.1453,-1.3481 2.26556,-2.72253 3.37188,-4.10313 3.445,-4.2939 6.80711,-8.64013 10.11562,-13.04062 9.8657,-13.1235 19.34399,-26.54925 28.4375,-40.21875 10.5066,-15.7963 20.54814,-31.91566 29.45313,-48.66875 4.108,-7.7285 7.95696,-15.60876 11.33437,-23.68438 2.8756,-6.8731 5.42718,-13.90773 7.10938,-21.16562 0.247,-1.0647 0.15081,-2.16841 0,-3.25 -0.2366,-1.6887 -0.69714,-3.36148 -1.17813,-4.99688 -1.4274,-4.8451 -3.38291,-9.50236 -5.56562,-14.05625 -6.3921,-13.338 -14.67083,-25.74354 -24.25313,-37.00937 -11.6961,-13.7514 -25.57556,-25.76665 -41.35625,-34.53125 -17.6358,-9.7955 -37.75915,-15.12809 -57.93125,-14.95 -10.3207,0.0923 -20.53511,2.13751 -30.42812,5.07812 -12.3383,3.6673 -24.21801,8.74574 -35.79063,14.38125 -30.9712,15.08 -59.87606,34.07657 -88.15625,53.74688 -34.51137,24.0043 -68.00205,49.44766 -101.2375,75.19687 35.93165,-133.73675 -1.72141,-308.95144 -2.51875,-426.84687 l 45.825,-44.76875 c 4.6144,-4.5071 7.3119,-10.31424 3.20938,-13.85313 C 202.10272,90.4681 187.99116,62.65332 172.12032,34.7875 170.00388,31.07149 165.77257,27.94973 161.8422,27.88125 z M 391.7797,551.7 c 5.18981,-0.008 10.39902,0.43063 15.51875,1.25938 13.4849,2.1827 26.47775,7.03656 38.26875,13.93437 11.1384,6.5143 21.29172,14.85867 29.29062,24.98438 7.0317,8.9011 12.467,19.34822 13.975,30.59062 -3.8649,3.1226 -8.22511,5.59002 -12.675,7.8 -5.7993,2.8808 -11.82514,5.27799 -17.91562,7.475 -16.0186,5.7746 -32.53801,10.12474 -49.11563,14.01563 -20.7571,4.8737 -41.68157,8.91995 -62.68437,12.59375 -23.7211,4.1509 -47.52573,7.80585 -71.37813,11.13125 -34.23715,4.77456 -68.57306,8.89343 -102.94375,12.59375 l 0,-0.24375 -14.42187,1.34062 c 8.36801,-6.96458 16.75136,-13.87718 25.1875,-20.75937 18.6225,-15.1918 37.52547,-30.07258 56.99687,-44.15938 19.9888,-14.4612 40.58633,-28.13103 62.11563,-40.17812 20.4919,-11.4673 41.82131,-21.53158 64.22812,-28.55938 8.24768,-2.587 16.90345,-3.80598 25.55313,-3.81875 z"
     id="path3680" />
</svg>
