<?xml version="1.0" encoding="UTF-8" standalone="no"?>
<!-- Created with Inkscape (http://www.inkscape.org/) -->

<svg
   xmlns:dc="http://purl.org/dc/elements/1.1/"
   xmlns:cc="http://creativecommons.org/ns#"
   xmlns:rdf="http://www.w3.org/1999/02/22-rdf-syntax-ns#"
   xmlns:svg="http://www.w3.org/2000/svg"
   xmlns="http://www.w3.org/2000/svg"
   xmlns:sodipodi="http://sodipodi.sourceforge.net/DTD/sodipodi-0.dtd"
   xmlns:inkscape="http://www.inkscape.org/namespaces/inkscape"
   version="1.0"
   width="1000"
   height="1000"
   id="svg5496"
   sodipodi:version="0.32"
   inkscape:version="0.47pre4 r22446"
   sodipodi:docname="taa.fina.svg"
   inkscape:output_extension="org.inkscape.output.svg.inkscape">
  <metadata
     id="metadata5594">
    <rdf:RDF>
      <cc:Work
         rdf:about="">
        <dc:format>image/svg+xml</dc:format>
        <dc:type
           rdf:resource="http://purl.org/dc/dcmitype/StillImage" />
      </cc:Work>
    </rdf:RDF>
  </metadata>
  <sodipodi:namedview
     inkscape:window-height="618"
     inkscape:window-width="641"
     inkscape:pageshadow="2"
     inkscape:pageopacity="0.0"
     guidetolerance="10.0"
     gridtolerance="10.0"
     objecttolerance="10.0"
     borderopacity="1.0"
     bordercolor="#666666"
     pagecolor="#ffffff"
     id="base"
     showgrid="false"
     showguides="true"
     inkscape:guide-bbox="true"
     inkscape:zoom="0.32102648"
     inkscape:cx="271.53566"
     inkscape:cy="399.93037"
     inkscape:window-x="0"
     inkscape:window-y="25"
     inkscape:current-layer="svg5496"
     inkscape:window-maximized="0">
    <sodipodi:guide
       orientation="horizontal"
       position="200"
       id="guide5596" />
  </sodipodi:namedview>
  <defs
     id="defs5498">
    <inkscape:perspective
       sodipodi:type="inkscape:persp3d"
       inkscape:vp_x="0 : 500 : 1"
       inkscape:vp_y="0 : 1000 : 0"
       inkscape:vp_z="1000 : 500 : 1"
       inkscape:persp3d-origin="500 : 333.33333 : 1"
       id="perspective5186" />
    <inkscape:perspective
       id="perspective5195"
       inkscape:persp3d-origin="372.04724 : 350.78739 : 1"
       inkscape:vp_z="744.09448 : 526.18109 : 1"
       inkscape:vp_y="0 : 1000 : 0"
       inkscape:vp_x="0 : 526.18109 : 1"
       sodipodi:type="inkscape:persp3d" />
    <inkscape:perspective
       sodipodi:type="inkscape:persp3d"
       inkscape:vp_x="0 : 526.18109 : 1"
       inkscape:vp_y="0 : 1000 : 0"
       inkscape:vp_z="744.09448 : 526.18109 : 1"
       inkscape:persp3d-origin="372.04724 : 350.78739 : 1"
       id="perspective3904" />
    <inkscape:perspective
       id="perspective3895"
       inkscape:persp3d-origin="500 : 333.33333 : 1"
       inkscape:vp_z="1000 : 500 : 1"
       inkscape:vp_y="0 : 1000 : 0"
       inkscape:vp_x="0 : 500 : 1"
       sodipodi:type="inkscape:persp3d" />
    <inkscape:perspective
       id="perspective5690"
       inkscape:persp3d-origin="0.5 : 0.33333333 : 1"
       inkscape:vp_z="1 : 0.5 : 1"
       inkscape:vp_y="0 : 1000 : 0"
       inkscape:vp_x="0 : 0.5 : 1"
       sodipodi:type="inkscape:persp3d" />
  </defs>
  <g
     id="layer1" />
  <path
     id="path3912-6"
     d="m 266.12985,42.035828 c -13.95468,14.50058 -23.03428,22.60741 -33.08682,53.63173 -1.68676,5.205772 -1.20591,7.717502 0.31891,12.565012 2.59813,8.25966 5.42576,20.46308 6.40704,28.81495 18.41238,156.71236 43.22708,335.80308 34.12258,494.29418 -30.74949,30.2947 -54.56107,58.5249 -66.76817,72.9435 -11.29349,4.5906 -146.411715,8.4285 -199.4612152,-3.6897 -7.1518803,-1.6338 -7.4471103,4.1175 -4.7595303,7.9025 17.9211705,25.239 54.0216705,66.0591 82.9535105,89.3972 3.81829,3.08 6.80582,4.1252 11.381602,4.5025 107.815123,8.8605 274.852673,-3.4704 319.630423,-10.8329 103.11777,11.3005 199.52687,13.0188 273.7351,8.4352 l 0.0917,-89.9458 c -57.80964,12.6329 -122.26499,25.5975 -181.10691,28.0901 37.90153,-19.5823 72.14157,-43.3179 88.423,-63.6708 22.57162,-28.2161 39.63068,-70.7158 45.66105,-102.0907 1.47195,-7.6583 1.91909,-21.9473 -1.44956,-29.419 -14.36563,-31.8635 -44.29886,-66.9391 -69.34682,-72.2488 -25.51145,-5.4081 -56.8764,2.7166 -83.61046,15.1625 -61.58566,28.671 -138.44584,79.84 -193.54332,126.5865 5.04912,-24.3711 17.82087,-88.2695 19.42407,-118.4917 4.14059,-77.30289 -15.83579,-274.36685 -19.56903,-316.20932 -0.62621,-7.01862 1.5077,-12.94528 5.36336,-18.12261 8.01541,-10.76294 22.51425,-29.62628 31.62934,-39.32606 6.34124,-6.748 5.8159,-11.93924 3.42096,-13.92421 -30.19923,-21.016372 -44.0945,-38.585982 -56.84378,-62.844052 -2.97228,-6.7743 -8.98943,-7.72989 -13.01703,-1.51022 z M 485.24863,573.8287 c 48.62207,0.3136 78.08724,41.2511 87.32918,58.7688 -59.65742,25.9823 -172.37172,57.926 -312.485,67.3486 59.50091,-50.8484 126.85123,-112.8313 212.63164,-125.0603 4.24554,-0.6052 8.40366,-1.0837 12.52418,-1.0571 z"
     style="fill:#ff0000;fill-opacity:0.60784314;fill-rule:evenodd;stroke:#000000;stroke-width:1;stroke-linecap:butt;stroke-linejoin:miter;stroke-miterlimit:4;stroke-opacity:1;stroke-dasharray:none"
     sodipodi:nodetypes="csssccssssccccsssssccsssccccccsc" />
</svg>
