<?xml version="1.0" encoding="UTF-8" standalone="no"?>
<!-- Created with Inkscape (http://www.inkscape.org/) -->

<svg
   xmlns:dc="http://purl.org/dc/elements/1.1/"
   xmlns:cc="http://creativecommons.org/ns#"
   xmlns:rdf="http://www.w3.org/1999/02/22-rdf-syntax-ns#"
   xmlns:svg="http://www.w3.org/2000/svg"
   xmlns="http://www.w3.org/2000/svg"
   xmlns:sodipodi="http://sodipodi.sourceforge.net/DTD/sodipodi-0.dtd"
   xmlns:inkscape="http://www.inkscape.org/namespaces/inkscape"
   version="1.0"
   width="1000"
   height="1000"
   id="svg5496"
   sodipodi:version="0.32"
   inkscape:version="0.47pre4 r22446"
   sodipodi:docname="taa.medi.svg"
   inkscape:output_extension="org.inkscape.output.svg.inkscape">
  <metadata
     id="metadata5594">
    <rdf:RDF>
      <cc:Work
         rdf:about="">
        <dc:format>image/svg+xml</dc:format>
        <dc:type
           rdf:resource="http://purl.org/dc/dcmitype/StillImage" />
      </cc:Work>
    </rdf:RDF>
  </metadata>
  <sodipodi:namedview
     inkscape:window-height="618"
     inkscape:window-width="672"
     inkscape:pageshadow="2"
     inkscape:pageopacity="0.0"
     guidetolerance="10.0"
     gridtolerance="10.0"
     objecttolerance="10.0"
     borderopacity="1.0"
     bordercolor="#666666"
     pagecolor="#ffffff"
     id="base"
     showgrid="false"
     showguides="true"
     inkscape:guide-bbox="true"
     inkscape:zoom="0.64205296"
     inkscape:cx="655.55824"
     inkscape:cy="573.46872"
     inkscape:window-x="0"
     inkscape:window-y="25"
     inkscape:current-layer="svg5496"
     inkscape:window-maximized="0">
    <sodipodi:guide
       orientation="horizontal"
       position="200"
       id="guide5596" />
  </sodipodi:namedview>
  <defs
     id="defs5498">
    <inkscape:perspective
       sodipodi:type="inkscape:persp3d"
       inkscape:vp_x="0 : 500 : 1"
       inkscape:vp_y="0 : 1000 : 0"
       inkscape:vp_z="1000 : 500 : 1"
       inkscape:persp3d-origin="500 : 333.33333 : 1"
       id="perspective3895" />
    <inkscape:perspective
       id="perspective3904"
       inkscape:persp3d-origin="372.04724 : 350.78739 : 1"
       inkscape:vp_z="744.09448 : 526.18109 : 1"
       inkscape:vp_y="0 : 1000 : 0"
       inkscape:vp_x="0 : 526.18109 : 1"
       sodipodi:type="inkscape:persp3d" />
    <inkscape:perspective
       id="perspective3945"
       inkscape:persp3d-origin="0.5 : 0.33333333 : 1"
       inkscape:vp_z="1 : 0.5 : 1"
       inkscape:vp_y="0 : 1000 : 0"
       inkscape:vp_x="0 : 0.5 : 1"
       sodipodi:type="inkscape:persp3d" />
  </defs>
  <g
     id="layer1" />
  <path
     style="fill:#ff0000;fill-opacity:0.60784313999999995;fill-rule:evenodd;stroke:#000000;stroke-width:1;stroke-linecap:butt;stroke-linejoin:miter;stroke-opacity:1;stroke-miterlimit:4;stroke-dasharray:none"
     d="m 86.034996,73.2876 c -12.964,21.0037 -20.971,31.4935 -31.63,62.3496 -1.789,5.1775 -1.278,7.6753 0.339,12.4968 2.754,8.2146 8.883,30.7854 9.923,39.092 19.522,155.8622 41.658014,312.0716 36.701014,464.4865 -28.572014,30.1424 -40.660014,43.0945 -56.185014,58.5416 -6.501,0.027 -38.631,-0.6268 -45.152996,-0.7249 L 0,800 c 51.063996,4.4969 199.83601,7.1874 251.21001,0.8256 109.331,11.2391 227.641,18.285 300.068,11.9212 l 0.06,-90.5584 c -105.557,21.4173 -137.275,24.3104 -200.032,24.2074 39.447,-22.7959 64.316,-41.9763 81.578,-62.2188 23.931,-28.0631 42.019,-70.3321 48.412,-101.5369 1.56,-7.6168 2.034,-21.8282 -1.536,-29.2594 -15.233,-31.6907 -46.97,-66.576 -73.527,-71.857 -27.047,-5.3786 -60.303,2.7019 -88.647,15.0804 -65.297,28.5154 -132.046,81.4935 -190.463,127.9865 5.352,-24.239 12.634,-89.8774 14.334,-119.9357 4.391,-76.8835 -16.79,-245.7522 -20.747,-287.3676 -0.664,-6.9806 2.561,-16.9938 5.685,-22.7193 5.811,-10.65 14.63,-20.4908 23.624,-30.7661 7.245,-8.2762 8.974,-19.3166 1.019,-26.3686 -29.211,-25.8982 -36.838,-38.5215 -49.635,-65.2522 -3.254014,-6.7969 -11.429014,-5.2728 -15.366014,1.1065 l 0,0 0,0 0,0 z M 312.11301,581.6327 c 51.551,0.3119 86.18,41.3492 95.978,58.7718 -77.248,36.8519 -183.263,66.3729 -316.168014,70.5276 C 146.72701,658.4172 233.42301,593.5518 298.83401,582.684 c 4.477,-0.7439 8.909,-1.0778 13.279,-1.0513 z"
     id="path3912-9"
     sodipodi:nodetypes="csssccccccccsccscccssssssccccsccc" />
</svg>
