<?xml version="1.0" encoding="UTF-8" standalone="no"?>
<!-- Created with Inkscape (http://www.inkscape.org/) -->
<svg
   xmlns:dc="http://purl.org/dc/elements/1.1/"
   xmlns:cc="http://creativecommons.org/ns#"
   xmlns:rdf="http://www.w3.org/1999/02/22-rdf-syntax-ns#"
   xmlns:svg="http://www.w3.org/2000/svg"
   xmlns="http://www.w3.org/2000/svg"
   xmlns:sodipodi="http://sodipodi.sourceforge.net/DTD/sodipodi-0.dtd"
   xmlns:inkscape="http://www.inkscape.org/namespaces/inkscape"
   version="1.0"
   width="1000"
   height="1000"
   id="svg5496"
   sodipodi:version="0.32"
   inkscape:version="0.46"
   sodipodi:docname="taa.medi.svg"
   inkscape:output_extension="org.inkscape.output.svg.inkscape">
  <metadata
     id="metadata5594">
    <rdf:RDF>
      <cc:Work
         rdf:about="">
        <dc:format>image/svg+xml</dc:format>
        <dc:type
           rdf:resource="http://purl.org/dc/dcmitype/StillImage" />
      </cc:Work>
    </rdf:RDF>
  </metadata>
  <sodipodi:namedview
     inkscape:window-height="618"
     inkscape:window-width="641"
     inkscape:pageshadow="2"
     inkscape:pageopacity="0.0"
     guidetolerance="10.0"
     gridtolerance="10.0"
     objecttolerance="10.0"
     borderopacity="1.0"
     bordercolor="#666666"
     pagecolor="#ffffff"
     id="base"
     showgrid="false"
     showguides="true"
     inkscape:guide-bbox="true"
     inkscape:zoom="0.64205296"
     inkscape:cx="387.66757"
     inkscape:cy="573.46872"
     inkscape:window-x="0"
     inkscape:window-y="25"
     inkscape:current-layer="svg5496">
    <sodipodi:guide
       orientation="horizontal"
       position="200"
       id="guide5596" />
  </sodipodi:namedview>
  <defs
     id="defs5498">
    <inkscape:perspective
       sodipodi:type="inkscape:persp3d"
       inkscape:vp_x="0 : 500 : 1"
       inkscape:vp_y="0 : 1000 : 0"
       inkscape:vp_z="1000 : 500 : 1"
       inkscape:persp3d-origin="500 : 333.33333 : 1"
       id="perspective3895" />
    <inkscape:perspective
       id="perspective3904"
       inkscape:persp3d-origin="372.04724 : 350.78739 : 1"
       inkscape:vp_z="744.09448 : 526.18109 : 1"
       inkscape:vp_y="0 : 1000 : 0"
       inkscape:vp_x="0 : 526.18109 : 1"
       sodipodi:type="inkscape:persp3d" />
  </defs>
  <g
     id="layer1" />
  <path
     style="fill:#000000;fill-opacity:1;fill-rule:evenodd;stroke:#000000;stroke-width:1px;stroke-linecap:butt;stroke-linejoin:miter;stroke-opacity:1"
     d="M 97.040559,2.843746 C 94.454289,2.809991 91.964229,4.596242 90.321809,7.499996 C 78.788379,27.89075 69.001339,48.401643 58.165559,80.499996 C 56.347369,85.885993 56.865689,88.484678 58.509309,93.499996 C 61.309879,102.0456 64.357829,114.6715 65.415559,123.3125 C 85.262549,285.45012 112.01069,470.7408 102.19681,634.71875 C 64.160209,667.00118 34.761279,695.26973 21.603059,710.1875 C 14.993119,710.21686 8.388799,710.03948 1.759309,709.9375 L 2.853059,799.0625 C 101.43902,799.39914 164.99933,796.51925 214.22806,788.75 C 325.38028,800.44169 466.7215,806.62017 540.35306,800 L 538.54056,716.15625 C 476.22667,729.22646 411.06091,742.63987 347.63431,745.21875 C 388.48895,724.95852 425.39681,700.40126 442.94681,679.34375 C 467.27711,650.15086 485.66533,606.17987 492.16556,573.71875 C 493.7522,565.79534 494.23418,551.01169 490.60306,543.28125 C 475.11812,510.31471 442.85264,474.02485 415.85306,468.53125 C 388.35387,462.93599 354.54511,471.34197 325.72806,484.21875 C 259.34393,513.88225 185.11848,566.82271 125.72806,615.1875 C 131.17059,589.97274 144.93745,523.86226 146.66556,492.59375 C 151.12877,412.61468 129.59592,208.72852 125.57181,165.4375 C 124.89681,158.1759 127.19698,152.04406 131.35306,146.6875 C 139.99299,135.55195 155.62151,116.03558 165.44681,106 C 172.28213,99.01839 171.71585,93.64743 169.13431,91.593746 C 123.95143,55.70583 117.394,36.854451 104.35306,9.062496 C 102.32305,4.736259 99.626829,2.877501 97.040559,2.843746 z M 320.69681,570.5 C 373.10729,570.8245 416.79728,623.28211 426.75931,641.40625 C 373.68099,660.2057 238.85206,697.96999 87.821809,707.71875 C 143.53826,653.08946 240.69598,582.89909 307.19681,571.59375 C 311.74857,570.81994 316.25524,570.4725 320.69681,570.5 z"
     id="path3912" />
</svg>
