<?xml version="1.0" encoding="UTF-8" standalone="no"?>
<!-- Created with Inkscape (http://www.inkscape.org/) -->

<svg
   xmlns:dc="http://purl.org/dc/elements/1.1/"
   xmlns:cc="http://creativecommons.org/ns#"
   xmlns:rdf="http://www.w3.org/1999/02/22-rdf-syntax-ns#"
   xmlns:svg="http://www.w3.org/2000/svg"
   xmlns="http://www.w3.org/2000/svg"
   xmlns:sodipodi="http://sodipodi.sourceforge.net/DTD/sodipodi-0.dtd"
   xmlns:inkscape="http://www.inkscape.org/namespaces/inkscape"
   version="1.0"
   width="1000"
   height="1000"
   id="svg5496"
   sodipodi:version="0.32"
   inkscape:version="0.47pre4 r22446"
   sodipodi:docname="taa.fina.svg"
   inkscape:output_extension="org.inkscape.output.svg.inkscape">
  <metadata
     id="metadata5594">
    <rdf:RDF>
      <cc:Work
         rdf:about="">
        <dc:format>image/svg+xml</dc:format>
        <dc:type
           rdf:resource="http://purl.org/dc/dcmitype/StillImage" />
      </cc:Work>
    </rdf:RDF>
  </metadata>
  <sodipodi:namedview
     inkscape:window-height="767"
     inkscape:window-width="1278"
     inkscape:pageshadow="2"
     inkscape:pageopacity="0.0"
     guidetolerance="10.0"
     gridtolerance="10.0"
     objecttolerance="10.0"
     borderopacity="1.0"
     bordercolor="#666666"
     pagecolor="#ffffff"
     id="base"
     showgrid="false"
     showguides="true"
     inkscape:guide-bbox="true"
     inkscape:zoom="0.28143573"
     inkscape:cx="750.76718"
     inkscape:cy="257.70835"
     inkscape:window-x="0"
     inkscape:window-y="0"
     inkscape:current-layer="svg5496"
     inkscape:window-maximized="1">
    <sodipodi:guide
       orientation="horizontal"
       position="200"
       id="guide5596" />
  </sodipodi:namedview>
  <defs
     id="defs5498">
    <inkscape:perspective
       sodipodi:type="inkscape:persp3d"
       inkscape:vp_x="0 : 500 : 1"
       inkscape:vp_y="0 : 1000 : 0"
       inkscape:vp_z="1000 : 500 : 1"
       inkscape:persp3d-origin="500 : 333.33333 : 1"
       id="perspective5186" />
    <inkscape:perspective
       id="perspective5195"
       inkscape:persp3d-origin="372.04724 : 350.78739 : 1"
       inkscape:vp_z="744.09448 : 526.18109 : 1"
       inkscape:vp_y="0 : 1000 : 0"
       inkscape:vp_x="0 : 526.18109 : 1"
       sodipodi:type="inkscape:persp3d" />
    <inkscape:perspective
       sodipodi:type="inkscape:persp3d"
       inkscape:vp_x="0 : 526.18109 : 1"
       inkscape:vp_y="0 : 1000 : 0"
       inkscape:vp_z="744.09448 : 526.18109 : 1"
       inkscape:persp3d-origin="372.04724 : 350.78739 : 1"
       id="perspective3904" />
    <inkscape:perspective
       id="perspective3895"
       inkscape:persp3d-origin="500 : 333.33333 : 1"
       inkscape:vp_z="1000 : 500 : 1"
       inkscape:vp_y="0 : 1000 : 0"
       inkscape:vp_x="0 : 500 : 1"
       sodipodi:type="inkscape:persp3d" />
    <inkscape:perspective
       id="perspective5690"
       inkscape:persp3d-origin="0.5 : 0.33333333 : 1"
       inkscape:vp_z="1 : 0.5 : 1"
       inkscape:vp_y="0 : 1000 : 0"
       inkscape:vp_x="0 : 0.5 : 1"
       sodipodi:type="inkscape:persp3d" />
    <inkscape:perspective
       id="perspective3638"
       inkscape:persp3d-origin="0.5 : 0.33333333 : 1"
       inkscape:vp_z="1 : 0.5 : 1"
       inkscape:vp_y="0 : 1000 : 0"
       inkscape:vp_x="0 : 0.5 : 1"
       sodipodi:type="inkscape:persp3d" />
  </defs>
  <path
     sodipodi:nodetypes="csssccsssscsscsssssccsssssscccsc"
     style="fill:#ff0000;fill-opacity:0.60784314;fill-rule:evenodd;stroke:#000000;stroke-width:1;stroke-linecap:butt;stroke-linejoin:miter;stroke-miterlimit:4;stroke-opacity:1;stroke-dasharray:none"
     d="m 258.55234,33.807872 c -9.14709,17.5475 -15.55992,32.926033 -24.14991,56.345899 -1.88437,5.137548 1.89481,18.236079 3.09158,24.517079 1.26798,6.6547 2.07885,14.33886 3.06013,22.69073 18.41238,156.71236 42.44192,335.48902 33.33742,493.98012 -28.23699,30.2947 -51.42045,58.5249 -66.76817,72.9435 -11.29349,4.5906 -146.411715,8.4285 -199.4612152,-3.6897 -7.1518803,-1.6338 -6.72678093,3.69783 -4.7595303,7.9025 14.3293905,30.62667 50.9209815,70.71013 82.9535105,89.3972 4.237345,2.47197 6.805722,4.12639 11.381602,4.5025 107.815023,8.86169 274.852673,-3.4704 319.630423,-10.8329 103.11777,11.3005 199.53159,13.0926 273.7351,8.4352 22.0617,-1.38471 32.48544,-96.50253 0.0917,-89.9458 -56.99364,11.53592 -122.26499,25.5975 -181.10691,28.0901 37.90153,-19.5823 72.14157,-43.3179 88.423,-63.6708 22.57162,-28.2161 39.63068,-70.7158 45.66105,-102.0907 1.47195,-7.6583 1.91909,-21.9473 -1.44956,-29.419 -14.36563,-31.8635 -44.29886,-66.9391 -69.34682,-72.2488 -25.51145,-5.4081 -56.8764,2.7166 -83.61046,15.1625 -61.58566,28.671 -138.44584,79.84 -193.54332,126.5865 5.04912,-24.3711 17.82087,-88.2695 19.42407,-118.4917 4.14059,-77.30289 -15.83579,-274.36685 -19.56903,-316.20932 -0.62621,-7.01862 0.72254,-13.25935 4.5782,-18.43667 8.01541,-10.76295 10.59375,-14.0088 19.11691,-25.11323 7.0752,-9.21795 2.01062,-19.82095 -0.15919,-22.04902 -27.1465,-27.87525 -31.5298,-53.666228 -43.90952,-78.102217 -3.34184,-6.596381 -12.61448,-7.997627 -16.65106,-0.253971 z M 485.24863,573.8287 c 48.62207,0.3136 78.08724,41.2511 87.32918,58.7688 -59.65742,25.9823 -172.37172,57.926 -312.485,67.3486 59.50091,-50.8484 126.85123,-112.8313 212.63164,-125.0603 4.24554,-0.6052 8.40366,-1.0837 12.52418,-1.0571 z"
     id="path2835" />
  <g
     id="layer1" />
</svg>
