<?xml version="1.0" encoding="UTF-8" standalone="no"?>
<!-- Created with Inkscape (http://www.inkscape.org/) -->

<svg
   xmlns:dc="http://purl.org/dc/elements/1.1/"
   xmlns:cc="http://creativecommons.org/ns#"
   xmlns:rdf="http://www.w3.org/1999/02/22-rdf-syntax-ns#"
   xmlns:svg="http://www.w3.org/2000/svg"
   xmlns="http://www.w3.org/2000/svg"
   xmlns:sodipodi="http://sodipodi.sourceforge.net/DTD/sodipodi-0.dtd"
   xmlns:inkscape="http://www.inkscape.org/namespaces/inkscape"
   version="1.0"
   width="1000"
   height="1000"
   id="svg5496"
   sodipodi:version="0.32"
   inkscape:version="0.47pre4 r22446"
   sodipodi:docname="taa.isol.svg"
   inkscape:output_extension="org.inkscape.output.svg.inkscape">
  <metadata
     id="metadata5594">
    <rdf:RDF>
      <cc:Work
         rdf:about="">
        <dc:format>image/svg+xml</dc:format>
        <dc:type
           rdf:resource="http://purl.org/dc/dcmitype/StillImage" />
      </cc:Work>
    </rdf:RDF>
  </metadata>
  <sodipodi:namedview
     inkscape:pageshadow="2"
     inkscape:pageopacity="0.0"
     guidetolerance="10.0"
     gridtolerance="10.0"
     objecttolerance="10.0"
     borderopacity="1.0"
     bordercolor="#666666"
     pagecolor="#ffffff"
     id="base"
     showgrid="false"
     showguides="true"
     inkscape:guide-bbox="true"
     inkscape:zoom="0.3337544"
     inkscape:cx="253.81209"
     inkscape:cy="501.30623"
     inkscape:window-x="0"
     inkscape:window-y="25"
     inkscape:current-layer="svg5496"
     inkscape:window-width="641"
     inkscape:window-height="618"
     inkscape:window-maximized="0">
    <sodipodi:guide
       orientation="horizontal"
       position="200"
       id="guide5596" />
  </sodipodi:namedview>
  <defs
     id="defs5498">
    <inkscape:perspective
       sodipodi:type="inkscape:persp3d"
       inkscape:vp_x="0 : 500 : 1"
       inkscape:vp_y="0 : 1000 : 0"
       inkscape:vp_z="1000 : 500 : 1"
       inkscape:persp3d-origin="500 : 333.33333 : 1"
       id="perspective8" />
    <inkscape:perspective
       id="perspective2388"
       inkscape:persp3d-origin="372.04724 : 350.78739 : 1"
       inkscape:vp_z="744.09448 : 526.18109 : 1"
       inkscape:vp_y="0 : 1000 : 0"
       inkscape:vp_x="0 : 526.18109 : 1"
       sodipodi:type="inkscape:persp3d" />
    <inkscape:perspective
       sodipodi:type="inkscape:persp3d"
       inkscape:vp_x="0 : 526.18109 : 1"
       inkscape:vp_y="0 : 1000 : 0"
       inkscape:vp_z="744.09448 : 526.18109 : 1"
       inkscape:persp3d-origin="372.04724 : 350.78739 : 1"
       id="perspective3220" />
    <inkscape:perspective
       sodipodi:type="inkscape:persp3d"
       inkscape:vp_x="0 : 526.18109 : 1"
       inkscape:vp_y="0 : 1000 : 0"
       inkscape:vp_z="744.09448 : 526.18109 : 1"
       inkscape:persp3d-origin="372.04724 : 350.78739 : 1"
       id="perspective3343" />
    <inkscape:perspective
       sodipodi:type="inkscape:persp3d"
       inkscape:vp_x="0 : 526.18109 : 1"
       inkscape:vp_y="0 : 1000 : 0"
       inkscape:vp_z="744.09448 : 526.18109 : 1"
       inkscape:persp3d-origin="372.04724 : 350.78739 : 1"
       id="perspective2474" />
    <inkscape:perspective
       sodipodi:type="inkscape:persp3d"
       inkscape:vp_x="0 : 526.18109 : 1"
       inkscape:vp_y="0 : 1000 : 0"
       inkscape:vp_z="744.09448 : 526.18109 : 1"
       inkscape:persp3d-origin="372.04724 : 350.78739 : 1"
       id="perspective2485" />
    <inkscape:perspective
       id="perspective2389"
       inkscape:persp3d-origin="500 : 333.33333 : 1"
       inkscape:vp_z="1000 : 500 : 1"
       inkscape:vp_y="0 : 1000 : 0"
       inkscape:vp_x="0 : 500 : 1"
       sodipodi:type="inkscape:persp3d" />
    <inkscape:perspective
       id="perspective5296"
       inkscape:persp3d-origin="0.5 : 0.33333333 : 1"
       inkscape:vp_z="1 : 0.5 : 1"
       inkscape:vp_y="0 : 1000 : 0"
       inkscape:vp_x="0 : 0.5 : 1"
       sodipodi:type="inkscape:persp3d" />
  </defs>
  <g
     id="layer1"
     transform="matrix(1.3,0,0,1.3,-287.20576,-135.63437)" />
  <path
     style="fill:#ff0000;fill-opacity:0.60784314;fill-rule:evenodd;stroke:#000000;stroke-width:1;stroke-linecap:butt;stroke-linejoin:miter;stroke-miterlimit:4;stroke-opacity:1;stroke-dasharray:none"
     d="m 270.85905,152.83302 c -10.5446,18.643 -20.8899,35.785 -33.9384,61.991 -2.3169,4.653 -1.1885,7.329 0.3143,11.915 2.5604,7.813 10.3005,27.04001 11.2675,34.93901 18.1951,148.643 44.3844,323.783 35.204,474.005 -27.5848,23.078 -39.3333,40.02197 -65.8338,64.31697 -61.0856,4.344 -137.184698,5.676 -190.438198,-2.034 -6.2439,-0.905 -14.656,0.606 -5.5712,18.656 13.9955,27.806 62.9284,75.191 144.940498,89.199 225.9613,-10.325 425.1742,-91.344 449.9929,-117.341 15.5847,-16.32597 71.2428,-105.17497 66.1132,-149.22697 -3.162,-27.154 -37.7497,-52.788 -57.6562,-65.655 -19.9065,-12.869 -35.2311,-15.479 -46.3135,-14.057 -41.6692,5.348 -103.8615,23.81 -242.8533,133.454 l -24.2475,18.795 c 4.6451,-21.41 8.908,-86.015 10.5333,-115.422 4.0806,-73.122 -15.6063,-259.558 -19.2854,-299.138 -0.6172,-6.638 1.4572,-12.245 5.257,-17.143 7.8993,-10.18 22.2165,-28.024 31.1995,-37.19901 6.2494,-6.383 2.0005,-18.669 -0.3597,-20.547 -32.4234,-27.629 -40.6401,-42.672 -52.5631,-68.08 -3.9714,-6.076 -11.499,-7.735 -15.7619,-1.428 z m 254.8532,509.84801 c 44.1293,-0.723 68.8323,21.301 79.6274,42.657 -91.4812,49.853 -232.4297,79.07197 -328.9573,88.04597 72.7744,-63.20697 153.0676,-129.12597 249.3299,-130.70297 z"
     id="path3914-6"
     sodipodi:nodetypes="cssccccsccscccccsssccccccs" />
</svg>
