<?xml version="1.0" encoding="UTF-8" standalone="no"?>
<!-- Created with Inkscape (http://www.inkscape.org/) -->

<svg
   xmlns:dc="http://purl.org/dc/elements/1.1/"
   xmlns:cc="http://creativecommons.org/ns#"
   xmlns:rdf="http://www.w3.org/1999/02/22-rdf-syntax-ns#"
   xmlns:svg="http://www.w3.org/2000/svg"
   xmlns="http://www.w3.org/2000/svg"
   xmlns:sodipodi="http://sodipodi.sourceforge.net/DTD/sodipodi-0.dtd"
   xmlns:inkscape="http://www.inkscape.org/namespaces/inkscape"
   version="1.0"
   width="1000"
   height="1000"
   id="svg5496"
   sodipodi:version="0.32"
   inkscape:version="0.47pre4 r22446"
   sodipodi:docname="taa.medi.svg"
   inkscape:output_extension="org.inkscape.output.svg.inkscape">
  <metadata
     id="metadata5594">
    <rdf:RDF>
      <cc:Work
         rdf:about="">
        <dc:format>image/svg+xml</dc:format>
        <dc:type
           rdf:resource="http://purl.org/dc/dcmitype/StillImage" />
      </cc:Work>
    </rdf:RDF>
  </metadata>
  <sodipodi:namedview
     inkscape:window-height="767"
     inkscape:window-width="1278"
     inkscape:pageshadow="2"
     inkscape:pageopacity="0.0"
     guidetolerance="10.0"
     gridtolerance="10.0"
     objecttolerance="10.0"
     borderopacity="1.0"
     bordercolor="#666666"
     pagecolor="#ffffff"
     id="base"
     showgrid="false"
     showguides="true"
     inkscape:guide-bbox="true"
     inkscape:zoom="0.227"
     inkscape:cx="142.49139"
     inkscape:cy="295.58429"
     inkscape:window-x="0"
     inkscape:window-y="0"
     inkscape:current-layer="svg5496"
     inkscape:window-maximized="1">
    <sodipodi:guide
       orientation="horizontal"
       position="200"
       id="guide5596" />
  </sodipodi:namedview>
  <defs
     id="defs5498">
    <inkscape:perspective
       sodipodi:type="inkscape:persp3d"
       inkscape:vp_x="0 : 500 : 1"
       inkscape:vp_y="0 : 1000 : 0"
       inkscape:vp_z="1000 : 500 : 1"
       inkscape:persp3d-origin="500 : 333.33333 : 1"
       id="perspective3895" />
    <inkscape:perspective
       id="perspective3904"
       inkscape:persp3d-origin="372.04724 : 350.78739 : 1"
       inkscape:vp_z="744.09448 : 526.18109 : 1"
       inkscape:vp_y="0 : 1000 : 0"
       inkscape:vp_x="0 : 526.18109 : 1"
       sodipodi:type="inkscape:persp3d" />
    <inkscape:perspective
       id="perspective3945"
       inkscape:persp3d-origin="0.5 : 0.33333333 : 1"
       inkscape:vp_z="1 : 0.5 : 1"
       inkscape:vp_y="0 : 1000 : 0"
       inkscape:vp_x="0 : 0.5 : 1"
       sodipodi:type="inkscape:persp3d" />
    <inkscape:perspective
       id="perspective2845"
       inkscape:persp3d-origin="0.5 : 0.33333333 : 1"
       inkscape:vp_z="1 : 0.5 : 1"
       inkscape:vp_y="0 : 1000 : 0"
       inkscape:vp_x="0 : 0.5 : 1"
       sodipodi:type="inkscape:persp3d" />
  </defs>
  <g
     id="layer1" />
  <path
     sodipodi:nodetypes="cssccsscsscsccscccsssssssccccc"
     id="path2833"
     d="m 58.298756,124.92936 c -1.935478,5.12397 -0.57042,10.50035 0.728376,15.41712 2.169936,8.2146 5.96268,38.76761 7.00268,47.07421 19.522,155.8622 40.295198,311.87691 35.338198,464.29181 C 72.795996,681.8549 60.707996,694.807 45.182996,710.2541 38.681996,710.2811 6.5525599,709.51096 0.03,709.5292 -45.610498,709.65685 -31.318061,797.35684 0,800 c 51.079473,4.31097 199.83601,7.1874 251.21001,0.8256 109.331,11.2391 228.12911,16.63422 300.068,11.9212 23.62512,-1.54778 31.25544,-96.44428 0.06,-90.5584 -103.57051,19.54143 -137.275,24.3104 -200.032,24.2074 39.447,-22.7959 64.316,-41.9763 81.578,-62.2188 23.931,-28.0631 42.019,-70.3321 48.412,-101.5369 1.56,-7.6168 2.034,-21.8282 -1.536,-29.2594 -15.233,-31.6907 -46.97,-66.576 -73.527,-71.857 -27.047,-5.3786 -60.303,2.7019 -88.647,15.0804 -65.297,28.5154 -132.046,81.4935 -190.463,127.9865 5.352,-24.239 12.634,-89.8774 14.334,-119.9357 4.391,-76.8835 -16.79,-245.7522 -20.747,-287.3676 -0.664,-6.9806 -0.55179,-17.10244 3.34874,-22.32992 6.78444,-9.0925 8.20504,-11.53538 17.1993,-21.81046 7.24474,-8.27642 7.03275,-18.71359 -0.34382,-26.3686 C 115.20762,120.10137 111.10828,99.54095 99.261442,72.375788 95.618051,64.021384 86.387614,62.705412 82.532612,70.36728 73.248709,88.819159 66.317621,103.70026 58.298756,124.92936 z M 312.11301,581.6327 c 51.551,0.3119 86.18,41.3492 95.978,58.7718 -77.248,36.8519 -183.263,66.3729 -316.168014,70.5276 C 146.72701,658.4172 233.42301,593.5518 298.83401,582.684 c 4.477,-0.7439 8.909,-1.0778 13.279,-1.0513 z"
     style="fill:#ff0000;fill-opacity:0.60784314;fill-rule:evenodd;stroke:#000000;stroke-width:1;stroke-linecap:butt;stroke-linejoin:miter;stroke-miterlimit:4;stroke-opacity:1;stroke-dasharray:none" />
</svg>
