<?xml version="1.0" encoding="UTF-8" standalone="no"?>
<!-- Created with Inkscape (http://www.inkscape.org/) -->

<svg
   xmlns:dc="http://purl.org/dc/elements/1.1/"
   xmlns:cc="http://creativecommons.org/ns#"
   xmlns:rdf="http://www.w3.org/1999/02/22-rdf-syntax-ns#"
   xmlns:svg="http://www.w3.org/2000/svg"
   xmlns="http://www.w3.org/2000/svg"
   xmlns:sodipodi="http://sodipodi.sourceforge.net/DTD/sodipodi-0.dtd"
   xmlns:inkscape="http://www.inkscape.org/namespaces/inkscape"
   version="1.0"
   width="1000"
   height="1000"
   id="svg5496"
   sodipodi:version="0.32"
   inkscape:version="0.47pre4 r22446"
   sodipodi:docname="waw.isol.svg"
   inkscape:output_extension="org.inkscape.output.svg.inkscape">
  <metadata
     id="metadata5594">
    <rdf:RDF>
      <cc:Work
         rdf:about="">
        <dc:format>image/svg+xml</dc:format>
        <dc:type
           rdf:resource="http://purl.org/dc/dcmitype/StillImage" />
      </cc:Work>
    </rdf:RDF>
  </metadata>
  <sodipodi:namedview
     inkscape:pageshadow="2"
     inkscape:pageopacity="0.0"
     guidetolerance="10.0"
     gridtolerance="10.0"
     objecttolerance="10.0"
     borderopacity="1.0"
     bordercolor="#666666"
     pagecolor="#ffffff"
     id="base"
     showgrid="false"
     showguides="true"
     inkscape:guide-bbox="true"
     inkscape:zoom="0.51"
     inkscape:cx="92.156863"
     inkscape:cy="107.84314"
     inkscape:window-x="0"
     inkscape:window-y="24"
     inkscape:current-layer="svg5496"
     inkscape:window-width="1280"
     inkscape:window-height="725"
     inkscape:window-maximized="1">
    <sodipodi:guide
       orientation="horizontal"
       position="200"
       id="guide5596" />
  </sodipodi:namedview>
  <defs
     id="defs5498">
    <inkscape:perspective
       sodipodi:type="inkscape:persp3d"
       inkscape:vp_x="0 : 500 : 1"
       inkscape:vp_y="0 : 1000 : 0"
       inkscape:vp_z="1000 : 500 : 1"
       inkscape:persp3d-origin="500 : 333.33333 : 1"
       id="perspective8" />
    <inkscape:perspective
       id="perspective2388"
       inkscape:persp3d-origin="372.04724 : 350.78739 : 1"
       inkscape:vp_z="744.09448 : 526.18109 : 1"
       inkscape:vp_y="0 : 1000 : 0"
       inkscape:vp_x="0 : 526.18109 : 1"
       sodipodi:type="inkscape:persp3d" />
    <inkscape:perspective
       id="perspective6790"
       inkscape:persp3d-origin="0.5 : 0.33333333 : 1"
       inkscape:vp_z="1 : 0.5 : 1"
       inkscape:vp_y="0 : 1000 : 0"
       inkscape:vp_x="0 : 0.5 : 1"
       sodipodi:type="inkscape:persp3d" />
  </defs>
  <g
     id="layer1"
     transform="matrix(1.3,0,0,1.3,-434.31486,162.09492)" />
  <path
     style="fill:#ff0000;fill-opacity:0.60784314;fill-rule:evenodd;stroke:#000000;stroke-width:0.92672044px;stroke-linecap:butt;stroke-linejoin:miter;stroke-opacity:1"
     d="m 252.51639,583.06429 c -21.7672,56.97819 -26.9685,126.99706 18.5952,147.25576 41.2076,18.3219 72.1693,6.4029 95.5392,-29.3944 5.3141,3.1154 10.071,25.4566 12.4481,45.4429 -21.3506,65.9418 -164.1479,184.5755 -217.4757,196.9981 -52.7379,12.2851 -99.437595,11.8301 -154.3372953,5.949 -9.1886,-0.9843 -9.2796,13.1951 2.4617,18.3897 35.5189003,15.7143 146.3387953,36.07145 196.6673953,30.324 50.3286,-5.7477 180.3179,-131.6113 200.5191,-254.156 9.8217,-45.75 17.7932,-83.6503 15.5805,-116.39027 -5.9142,-86.56819 -63.81,-138.74679 -87.8068,-140.00639 -41.4667,-2.2155 -64.4003,49.0173 -82.1914,95.5876 z m 59.2841,13.28679 c 11.1169,0.4443 21.4798,9.2993 31.1899,24.3264 -17.4574,12.9577 -43.7107,20.606 -62.4667,-4.344 11.0771,-14.2055 21.4677,-20.3745 31.2768,-19.9824 z"
     id="path2394-0"
     sodipodi:nodetypes="csccssscccsscccc" />
</svg>
