<?xml version="1.0" encoding="UTF-8" standalone="no"?>
<!-- Created with Inkscape (http://www.inkscape.org/) -->

<svg
   xmlns:dc="http://purl.org/dc/elements/1.1/"
   xmlns:cc="http://creativecommons.org/ns#"
   xmlns:rdf="http://www.w3.org/1999/02/22-rdf-syntax-ns#"
   xmlns:svg="http://www.w3.org/2000/svg"
   xmlns="http://www.w3.org/2000/svg"
   xmlns:sodipodi="http://sodipodi.sourceforge.net/DTD/sodipodi-0.dtd"
   xmlns:inkscape="http://www.inkscape.org/namespaces/inkscape"
   version="1.0"
   width="1000"
   height="1000"
   id="svg5496"
   sodipodi:version="0.32"
   inkscape:version="0.47pre4 r22446"
   sodipodi:docname="yaa.fina.svg"
   inkscape:output_extension="org.inkscape.output.svg.inkscape">
  <metadata
     id="metadata5594">
    <rdf:RDF>
      <cc:Work
         rdf:about="">
        <dc:format>image/svg+xml</dc:format>
        <dc:type
           rdf:resource="http://purl.org/dc/dcmitype/StillImage" />
        <dc:title />
      </cc:Work>
    </rdf:RDF>
  </metadata>
  <sodipodi:namedview
     inkscape:window-height="618"
     inkscape:pageshadow="2"
     inkscape:pageopacity="0.0"
     borderopacity="1.0"
     bordercolor="#666666"
     pagecolor="#ffffff"
     id="base"
     showgrid="false"
     showguides="true"
     inkscape:guide-bbox="true"
     inkscape:zoom="0.22719636"
     inkscape:cx="304.37005"
     inkscape:cy="217.62802"
     inkscape:window-x="0"
     inkscape:window-y="25"
     inkscape:current-layer="svg5496"
     inkscape:window-width="641"
     inkscape:window-maximized="0">
    <sodipodi:guide
       orientation="horizontal"
       position="200"
       id="guide5596" />
  </sodipodi:namedview>
  <defs
     id="defs5498">
    <inkscape:perspective
       sodipodi:type="inkscape:persp3d"
       inkscape:vp_x="0 : 500 : 1"
       inkscape:vp_y="0 : 1000 : 0"
       inkscape:vp_z="1000 : 500 : 1"
       inkscape:persp3d-origin="500 : 333.33333 : 1"
       id="perspective3678" />
    <inkscape:perspective
       id="perspective3644"
       inkscape:persp3d-origin="0.5 : 0.33333333 : 1"
       inkscape:vp_z="1 : 0.5 : 1"
       inkscape:vp_y="0 : 1000 : 0"
       inkscape:vp_x="0 : 0.5 : 1"
       sodipodi:type="inkscape:persp3d" />
    <inkscape:perspective
       id="perspective3964"
       inkscape:persp3d-origin="0.5 : 0.33333333 : 1"
       inkscape:vp_z="1 : 0.5 : 1"
       inkscape:vp_y="0 : 1000 : 0"
       inkscape:vp_x="0 : 0.5 : 1"
       sodipodi:type="inkscape:persp3d" />
  </defs>
  <g
     id="layer1"
     transform="translate(-180.67046,327.07582)" />
  <g
     id="layer1-8"
     transform="matrix(0.5,0,0,0.5,25.276705,662.9789)" />
  <path
     style="color:#000000;fill:#ff0000;fill-opacity:0.60784314;stroke:#000000;stroke-width:1;stroke-linecap:butt;stroke-linejoin:miter;stroke-miterlimit:4;stroke-opacity:1;stroke-dasharray:none;stroke-dashoffset:0;marker:none;visibility:visible;display:inline;overflow:visible;enable-background:accumulate"
     d="M 74.529436,572.172 C 35.231136,622.02 9.639836,708.642 2.3216363,772.913 -12.581164,903.79298 43.953536,999.687 245.78224,997.491 c 105.8119,-1.151 269.6753,-76.70802 324.6179,-143.31102 16.72,-20.267 44.731,-79.27798 36.929,-108.26198 -15.025,-55.821 -115.4336,-59.765 -181.5918,-62.479 0.7171,-29.443 80.18,-24.19 98.739,-26.216 l 0.059,-90.007 c -53.6993,13.791 -127.5609,45.395 -157.5791,95.648 -16.3389,27.353 -24.1312,71.772 13.1195,83.818 55.9173,13.97 198.5564,6.967 172.7964,41.318 -82.2931,72.91798 -197.8791,107.16398 -300.9837,115.30198 -117.0386,9.238 -177.792604,-50.65 -200.681504,-100.35598 -40.0886,-87.058 17.4606,-182.712 39.1972,-221.009 7.285404,-12.836 -7.9765,-19.783 -15.8746,-9.765 l -10e-5,0 z"
     id="path2828"
     sodipodi:nodetypes="csssscccsccssssc" />
</svg>
