<?xml version="1.0" encoding="UTF-8" standalone="no"?>
<!-- Created with Inkscape (http://www.inkscape.org/) -->

<svg
   xmlns:dc="http://purl.org/dc/elements/1.1/"
   xmlns:cc="http://creativecommons.org/ns#"
   xmlns:rdf="http://www.w3.org/1999/02/22-rdf-syntax-ns#"
   xmlns:svg="http://www.w3.org/2000/svg"
   xmlns="http://www.w3.org/2000/svg"
   xmlns:sodipodi="http://sodipodi.sourceforge.net/DTD/sodipodi-0.dtd"
   xmlns:inkscape="http://www.inkscape.org/namespaces/inkscape"
   version="1.0"
   width="1000"
   height="1000"
   id="svg5496"
   sodipodi:version="0.32"
   inkscape:version="0.47pre4 r22446"
   sodipodi:docname="ayn.isol.svg"
   inkscape:output_extension="org.inkscape.output.svg.inkscape">
  <metadata
     id="metadata5594">
    <rdf:RDF>
      <cc:Work
         rdf:about="">
        <dc:format>image/svg+xml</dc:format>
        <dc:type
           rdf:resource="http://purl.org/dc/dcmitype/StillImage" />
      </cc:Work>
    </rdf:RDF>
  </metadata>
  <sodipodi:namedview
     inkscape:pageshadow="2"
     inkscape:pageopacity="0.0"
     guidetolerance="10.0"
     gridtolerance="10.0"
     objecttolerance="10.0"
     borderopacity="1.0"
     bordercolor="#666666"
     pagecolor="#ffffff"
     id="base"
     showgrid="false"
     showguides="true"
     inkscape:guide-bbox="true"
     inkscape:zoom="0.454"
     inkscape:cx="433.9412"
     inkscape:cy="593.18166"
     inkscape:window-x="0"
     inkscape:window-y="24"
     inkscape:current-layer="svg5496"
     inkscape:window-width="1280"
     inkscape:window-height="725"
     inkscape:window-maximized="1">
    <sodipodi:guide
       orientation="horizontal"
       position="200"
       id="guide5596" />
  </sodipodi:namedview>
  <defs
     id="defs5498">
    <inkscape:perspective
       sodipodi:type="inkscape:persp3d"
       inkscape:vp_x="0 : 500 : 1"
       inkscape:vp_y="0 : 1000 : 0"
       inkscape:vp_z="1000 : 500 : 1"
       inkscape:persp3d-origin="500 : 333.33333 : 1"
       id="perspective2424" />
    <inkscape:perspective
       id="perspective3781"
       inkscape:persp3d-origin="0.5 : 0.33333333 : 1"
       inkscape:vp_z="1 : 0.5 : 1"
       inkscape:vp_y="0 : 1000 : 0"
       inkscape:vp_x="0 : 0.5 : 1"
       sodipodi:type="inkscape:persp3d" />
  </defs>
  <g
     id="layer1"
     transform="translate(-165.19824,11.013216)" />
  <path
     style="fill:#ff0000;fill-opacity:0.60784314;fill-rule:evenodd;stroke:#000000;stroke-width:0;stroke-linecap:butt;stroke-linejoin:miter;stroke-miterlimit:4;stroke-opacity:1;stroke-dasharray:none"
     d="m 169.73061,69.718474 c -5.608,0.4161 -10.996,1.5713 -16.011,3.6107 -40.868,16.614996 -88.327008,76.899296 -106.812008,116.437596 -12.625003,27.0095 -22.081003,51.4075 -24.966003,85.5287 -1.092,12.9115 1.892,22.0002 9.018,31.5849 11.908,16.0141 36.699003,39.4159 103.283011,66.0165 -65.276008,68.7443 -113.367011,158.2504 -129.9790107,284.5194 -15.8330003,120.3417 1.87,293.1314 208.8190107,331.17653 75.691,13.9148 177.539,12.5127 241.176,6.118 51.044,-5.153 158.023,-63.90683 198.44,-93.25423 13.954,-10.1314 9.894,-20.0721 -4.259,-17.2793 -142.707,28.1608 -264.026,35.8132 -417.722,12.7437 C 82.819602,874.61157 18.057599,771.27037 30.059599,663.05857 c 10.344,-93.2554 47.788003,-185.6601 148.032011,-259.0949 66.755,-48.9022 123.819,-88.1711 198.43,-122.2116 2.704,-1.2334 5.857,-5.2717 8.675,-9.7839 8.301,-13.2807 21.654,-45.3703 28.223,-66.7046 2.555,-8.2981 -2.88,-13.9595 -10.972,-9.7931 -58.752,30.2549 -142.145,94.1209 -178.995,100.2711 -49.149,8.2028 -123.005,-10.5392 -164.505008,-54.3379 -2.43,-2.5644 -5.836,-8.4933 -2.402,-12.8906 74.155008,-94.9656 171.469008,-99.9818 216.336008,-85.4524 10.065,3.2594 16.404,-1.6898 9.672,-10.964 -22.698,-31.2721 -73.572,-65.290696 -112.823,-62.378196 z"
     id="path2427-0"
     sodipodi:nodetypes="csssscsscsscsssssssssssc" />
</svg>
