<?xml version="1.0" encoding="UTF-8" standalone="no"?>
<!-- Created with Inkscape (http://www.inkscape.org/) -->

<svg
   xmlns:dc="http://purl.org/dc/elements/1.1/"
   xmlns:cc="http://creativecommons.org/ns#"
   xmlns:rdf="http://www.w3.org/1999/02/22-rdf-syntax-ns#"
   xmlns:svg="http://www.w3.org/2000/svg"
   xmlns="http://www.w3.org/2000/svg"
   xmlns:sodipodi="http://sodipodi.sourceforge.net/DTD/sodipodi-0.dtd"
   xmlns:inkscape="http://www.inkscape.org/namespaces/inkscape"
   version="1.0"
   width="1000"
   height="1000"
   id="svg5496"
   sodipodi:version="0.32"
   inkscape:version="0.47pre4 r22446"
   sodipodi:docname="baa+heh.init.svg"
   inkscape:output_extension="org.inkscape.output.svg.inkscape">
  <metadata
     id="metadata5594">
    <rdf:RDF>
      <cc:Work
         rdf:about="">
        <dc:format>image/svg+xml</dc:format>
        <dc:type
           rdf:resource="http://purl.org/dc/dcmitype/StillImage" />
      </cc:Work>
    </rdf:RDF>
  </metadata>
  <sodipodi:namedview
     inkscape:pageshadow="2"
     inkscape:pageopacity="0.0"
     guidetolerance="10.0"
     gridtolerance="10.0"
     objecttolerance="10.0"
     borderopacity="1.0"
     bordercolor="#666666"
     pagecolor="#ffffff"
     id="base"
     showgrid="false"
     showguides="true"
     inkscape:guide-bbox="true"
     inkscape:zoom="0.3337544"
     inkscape:cx="198.75709"
     inkscape:cy="231.08623"
     inkscape:window-x="0"
     inkscape:window-y="0"
     inkscape:current-layer="svg5496"
     inkscape:window-width="1278"
     inkscape:window-height="767"
     inkscape:window-maximized="1">
    <sodipodi:guide
       orientation="horizontal"
       position="200"
       id="guide5596" />
  </sodipodi:namedview>
  <defs
     id="defs5498">
    <inkscape:perspective
       sodipodi:type="inkscape:persp3d"
       inkscape:vp_x="0 : 500 : 1"
       inkscape:vp_y="0 : 1000 : 0"
       inkscape:vp_z="1000 : 500 : 1"
       inkscape:persp3d-origin="500 : 333.33333 : 1"
       id="perspective5174" />
    <inkscape:perspective
       id="perspective5183"
       inkscape:persp3d-origin="372.04724 : 350.78739 : 1"
       inkscape:vp_z="744.09448 : 526.18109 : 1"
       inkscape:vp_y="0 : 1000 : 0"
       inkscape:vp_x="0 : 526.18109 : 1"
       sodipodi:type="inkscape:persp3d" />
    <inkscape:perspective
       id="perspective3763"
       inkscape:persp3d-origin="0.5 : 0.33333333 : 1"
       inkscape:vp_z="1 : 0.5 : 1"
       inkscape:vp_y="0 : 1000 : 0"
       inkscape:vp_x="0 : 0.5 : 1"
       sodipodi:type="inkscape:persp3d" />
    <inkscape:perspective
       id="perspective5082"
       inkscape:persp3d-origin="0.5 : 0.33333333 : 1"
       inkscape:vp_z="1 : 0.5 : 1"
       inkscape:vp_y="0 : 1000 : 0"
       inkscape:vp_x="0 : 0.5 : 1"
       sodipodi:type="inkscape:persp3d" />
  </defs>
  <path
     sodipodi:nodetypes="cssssssssc"
     id="path2819"
     d="m 407.62399,737.273 c -16.037,-32.463 -35.82,-43.257 -74.423,-41.444 -87.207,4.148 -161.66235,50.10633 -180.227,90.127 -13.98729,30.15305 -20.82618,31.09157 -22.18189,27.08601 -2.77624,-8.20263 9.47998,-31.58479 13.94316,-39.1563 39.32166,-66.70681 81.2104,-104.38072 126.72273,-129.02371 59.15307,-32.02887 113.584,-40.156 158.488,-22.663 15.789,6.151 34.27,18.855 35.256,40.664 0.861,19.045 -7.267,45.814 -29.959,72.07 -9.45,10.932 -21.277,11.514 -27.619,2.34 z"
     style="fill:#ff0000;fill-opacity:0.60784314;fill-rule:evenodd;stroke:#000000;stroke-width:0;stroke-linecap:butt;stroke-linejoin:miter;stroke-opacity:1" />
  <g
     id="layer1"
     transform="matrix(1.3,0,0,1.3,-336.89526,441.51112)" />
  <path
     style="fill:#ff0000;fill-opacity:0.60784314;fill-rule:evenodd;stroke:#000000;stroke-width:0;stroke-linecap:butt;stroke-linejoin:miter;stroke-opacity:1"
     d="m 152.97399,785.956 c -38.73731,87.00071 -18.758,164.903 4.213,225.628 1.791,4.734 3.07,8.543 0,13.107 l -34.64,51.491 c -2.696,4.008 -4.778,11.567 -10.299,5.15 -65.809,-76.505 -67.67,-194.417 -39.789,-314.568 C 41.81699,789.339 16.883829,797.21032 0,800 -12.910187,802.13312 -22.67866,758.92382 -24.74342,736.19728 -26.810485,713.44535 -19.282344,713.06097 0,710.123 71.94486,699.16107 107.80899,652.695 144.07999,591.692 c 14.296,-19.059 29.882,-6.148 22.937,6.085 -18.046,31.789 -42.385,81.034 -59.391,132.321 -19.21,57.927 -29.43,118.092 -17.495,151.82 0.495,1.398 2.084013,1.20701 2.778,-0.534 16.89069,-42.37368 34.05352,-77.8083 51.82627,-107.49829 28.4682,-47.55713 28.07003,-32.46914 8.23873,12.07029 z"
     id="path2823"
     sodipodi:nodetypes="csssscszscssssss" />
</svg>
