<?xml version="1.0" encoding="UTF-8" standalone="no"?>
<!-- Created with Inkscape (http://www.inkscape.org/) -->

<svg
   xmlns:dc="http://purl.org/dc/elements/1.1/"
   xmlns:cc="http://creativecommons.org/ns#"
   xmlns:rdf="http://www.w3.org/1999/02/22-rdf-syntax-ns#"
   xmlns:svg="http://www.w3.org/2000/svg"
   xmlns="http://www.w3.org/2000/svg"
   xmlns:sodipodi="http://sodipodi.sourceforge.net/DTD/sodipodi-0.dtd"
   xmlns:inkscape="http://www.inkscape.org/namespaces/inkscape"
   version="1.0"
   width="1000"
   height="1000"
   id="svg5496"
   sodipodi:version="0.32"
   inkscape:version="0.47pre4 r22446"
   sodipodi:docname="baa+seen.init.svg"
   inkscape:output_extension="org.inkscape.output.svg.inkscape">
  <metadata
     id="metadata5594">
    <rdf:RDF>
      <cc:Work
         rdf:about="">
        <dc:format>image/svg+xml</dc:format>
        <dc:type
           rdf:resource="http://purl.org/dc/dcmitype/StillImage" />
      </cc:Work>
    </rdf:RDF>
  </metadata>
  <sodipodi:namedview
     inkscape:pageshadow="2"
     inkscape:pageopacity="0.0"
     guidetolerance="10.0"
     gridtolerance="10.0"
     objecttolerance="10.0"
     borderopacity="1.0"
     bordercolor="#666666"
     pagecolor="#ffffff"
     id="base"
     showgrid="false"
     showguides="true"
     inkscape:guide-bbox="true"
     inkscape:zoom="1.5963193"
     inkscape:cx="242.65803"
     inkscape:cy="323.64476"
     inkscape:window-x="0"
     inkscape:window-y="0"
     inkscape:current-layer="svg5496"
     inkscape:window-width="1278"
     inkscape:window-height="767"
     inkscape:window-maximized="1">
    <sodipodi:guide
       orientation="horizontal"
       position="200"
       id="guide5596" />
  </sodipodi:namedview>
  <defs
     id="defs5498">
    <inkscape:perspective
       sodipodi:type="inkscape:persp3d"
       inkscape:vp_x="0 : 500 : 1"
       inkscape:vp_y="0 : 1000 : 0"
       inkscape:vp_z="1000 : 500 : 1"
       inkscape:persp3d-origin="500 : 333.33333 : 1"
       id="perspective8" />
    <inkscape:perspective
       id="perspective2388"
       inkscape:persp3d-origin="372.04724 : 350.78739 : 1"
       inkscape:vp_z="744.09448 : 526.18109 : 1"
       inkscape:vp_y="0 : 1000 : 0"
       inkscape:vp_x="0 : 526.18109 : 1"
       sodipodi:type="inkscape:persp3d" />
    <inkscape:perspective
       id="perspective4613"
       inkscape:persp3d-origin="372.04724 : 350.78739 : 1"
       inkscape:vp_z="744.09448 : 526.18109 : 1"
       inkscape:vp_y="0 : 1000 : 0"
       inkscape:vp_x="0 : 526.18109 : 1"
       sodipodi:type="inkscape:persp3d" />
    <inkscape:perspective
       id="perspective4379"
       inkscape:persp3d-origin="0.5 : 0.33333333 : 1"
       inkscape:vp_z="1 : 0.5 : 1"
       inkscape:vp_y="0 : 1000 : 0"
       inkscape:vp_x="0 : 0.5 : 1"
       sodipodi:type="inkscape:persp3d" />
    <inkscape:perspective
       id="perspective4401"
       inkscape:persp3d-origin="0.5 : 0.33333333 : 1"
       inkscape:vp_z="1 : 0.5 : 1"
       inkscape:vp_y="0 : 1000 : 0"
       inkscape:vp_x="0 : 0.5 : 1"
       sodipodi:type="inkscape:persp3d" />
    <inkscape:perspective
       id="perspective4401-9"
       inkscape:persp3d-origin="0.5 : 0.33333333 : 1"
       inkscape:vp_z="1 : 0.5 : 1"
       inkscape:vp_y="0 : 1000 : 0"
       inkscape:vp_x="0 : 0.5 : 1"
       sodipodi:type="inkscape:persp3d" />
    <inkscape:perspective
       id="perspective4441"
       inkscape:persp3d-origin="0.5 : 0.33333333 : 1"
       inkscape:vp_z="1 : 0.5 : 1"
       inkscape:vp_y="0 : 1000 : 0"
       inkscape:vp_x="0 : 0.5 : 1"
       sodipodi:type="inkscape:persp3d" />
    <inkscape:perspective
       id="perspective2826"
       inkscape:persp3d-origin="0.5 : 0.33333333 : 1"
       inkscape:vp_z="1 : 0.5 : 1"
       inkscape:vp_y="0 : 1000 : 0"
       inkscape:vp_x="0 : 0.5 : 1"
       sodipodi:type="inkscape:persp3d" />
  </defs>
  <path
     style="fill:#ff0000;fill-opacity:0.60784314;fill-rule:evenodd;stroke:#000000;stroke-width:0;stroke-linecap:butt;stroke-linejoin:miter;stroke-miterlimit:4;stroke-opacity:1;stroke-dasharray:none"
     d="m 497.955,561.8281 c -5.4584,-11.13265 -12.37646,-13.70051 -16.957,0.2439 -9.74306,29.66051 -18.52929,61.75101 -29.079,87.5019 -2.75089,6.71468 -10.366,15.3027 -20.856,16.4442 -17.189,1.8703 -65.095,-9.7312 -80.798,-27.602 -3.833,-4.361 -3.61693,-9.383 -2.777,-13.029 3.80876,-16.53332 6.855,-26.3308 10.971,-38.661 4.703,-14.0874 -14.60188,-21.90328 -21.324,-4.2604 -19.57234,51.3696 -64.727,101.5614 -122.356,102.2232 -37.109,0.4261 -62.13521,-19.95644 -69.133,-34.7634 -3.42765,-7.25272 4.00088,-23.06675 10.719,-44.0629 3.06224,-9.57042 -12.597,-18.8776 -20.094,-4.8668 C 98.243001,671.9178 46.574591,698.35152 0.36,709.3663 -38.818322,718.70406 -12.085803,804.68302 0,800 c 38.96022,-15.09635 81.317001,-47.0113 102.86,-74.4412 1.354,-1.7247 3.78194,-1.97928 4.927,0.4241 9.70877,20.37789 37.38701,53.43771 80.163,54.3804 42.77599,0.94269 75.01779,-28.21887 101.46331,-61.51633 30.47813,28.95402 65.33406,44.26747 95.61669,46.25483 15.15973,0.99489 31.40767,0.23641 40.392,-8.0121 17.66463,-16.21788 47.585,-78.3413 58.649,-107.4656 2.292,-6.0359 5.33888,-6.04656 8.115,-1.8908 14.73381,22.05603 18.08088,-60.79459 5.769,-85.9052 z"
     id="path2822"
     sodipodi:nodetypes="csssssssssscsssszcsssss" />
  <g
     id="layer1"
     transform="matrix(1.3,0,0,1.3,-244.36598,-182.55101)"
     style="fill:#000000;fill-opacity:1;stroke:#000000;stroke-opacity:1" />
  <path
     style="fill:#ff0000;fill-opacity:0.60784314;fill-rule:evenodd;stroke:#000000;stroke-width:0;stroke-linecap:butt;stroke-linejoin:miter;stroke-miterlimit:4;stroke-opacity:1;stroke-dasharray:none"
     d="m 580.037,302.83832 c -4.54,-8.69181 -10.78948,-7.40098 -12.828,-0.47941 -6.03068,20.47648 -15.54552,68.68576 -19.28837,93.90287 -0.89301,6.0166 -3.06,10.25034 1.57,18.2196 29.304,50.4366 70.98843,160.14553 71.08137,234.61472 0.011,8.83511 -3.13195,10.42103 -6.956,9.7785 -15.42663,-2.59202 -84.14789,-29.34885 -115.661,-97.0465 -8.68489,-18.6572 -17.39778,-7.46368 -19.65019,12.83682 -2.33782,21.07022 1.73456,54.72664 13.88119,73.06838 18.37393,27.74512 65.13638,83.10786 114.929,88.4103 24.5522,2.61458 37.50588,-50.1103 40.67462,-72.02177 C 666.67823,533.50922 612.434,364.87045 580.037,302.83832 z"
     id="path2831"
     sodipodi:nodetypes="csssssssssss" />
</svg>
