<?xml version="1.0" encoding="UTF-8" standalone="no"?>
<!-- Created with Inkscape (http://www.inkscape.org/) -->

<svg
   xmlns:dc="http://purl.org/dc/elements/1.1/"
   xmlns:cc="http://creativecommons.org/ns#"
   xmlns:rdf="http://www.w3.org/1999/02/22-rdf-syntax-ns#"
   xmlns:svg="http://www.w3.org/2000/svg"
   xmlns="http://www.w3.org/2000/svg"
   xmlns:sodipodi="http://sodipodi.sourceforge.net/DTD/sodipodi-0.dtd"
   xmlns:inkscape="http://www.inkscape.org/namespaces/inkscape"
   version="1.0"
   width="1000"
   height="1000"
   id="svg5496"
   sodipodi:version="0.32"
   inkscape:version="0.47pre4 r22446"
   sodipodi:docname="baa+raa.isol.svg"
   inkscape:output_extension="org.inkscape.output.svg.inkscape">
  <metadata
     id="metadata5594">
    <rdf:RDF>
      <cc:Work
         rdf:about="">
        <dc:format>image/svg+xml</dc:format>
        <dc:type
           rdf:resource="http://purl.org/dc/dcmitype/StillImage" />
        <dc:title />
      </cc:Work>
    </rdf:RDF>
  </metadata>
  <sodipodi:namedview
     inkscape:window-height="767"
     inkscape:window-width="1278"
     inkscape:pageshadow="2"
     inkscape:pageopacity="0.0"
     borderopacity="1.0"
     bordercolor="#666666"
     pagecolor="#ffffff"
     id="base"
     showgrid="false"
     showguides="true"
     inkscape:guide-bbox="true"
     inkscape:zoom="1.2193274"
     inkscape:cx="428.47818"
     inkscape:cy="330.37881"
     inkscape:window-x="0"
     inkscape:window-y="0"
     inkscape:current-layer="svg5496"
     inkscape:window-maximized="1">
    <sodipodi:guide
       orientation="horizontal"
       position="200"
       id="guide5596" />
  </sodipodi:namedview>
  <defs
     id="defs5498">
    <inkscape:perspective
       sodipodi:type="inkscape:persp3d"
       inkscape:vp_x="0 : 500 : 1"
       inkscape:vp_y="0 : 1000 : 0"
       inkscape:vp_z="1000 : 500 : 1"
       inkscape:persp3d-origin="500 : 333.33333 : 1"
       id="perspective5286" />
    <inkscape:perspective
       id="perspective5275"
       inkscape:persp3d-origin="0.5 : 0.33333333 : 1"
       inkscape:vp_z="1 : 0.5 : 1"
       inkscape:vp_y="0 : 1000 : 0"
       inkscape:vp_x="0 : 0.5 : 1"
       sodipodi:type="inkscape:persp3d" />
    <inkscape:perspective
       id="perspective5326"
       inkscape:persp3d-origin="0.5 : 0.33333333 : 1"
       inkscape:vp_z="1 : 0.5 : 1"
       inkscape:vp_y="0 : 1000 : 0"
       inkscape:vp_x="0 : 0.5 : 1"
       sodipodi:type="inkscape:persp3d" />
    <inkscape:perspective
       id="perspective5357"
       inkscape:persp3d-origin="0.5 : 0.33333333 : 1"
       inkscape:vp_z="1 : 0.5 : 1"
       inkscape:vp_y="0 : 1000 : 0"
       inkscape:vp_x="0 : 0.5 : 1"
       sodipodi:type="inkscape:persp3d" />
  </defs>
  <path
     style="fill:#ff0000;fill-opacity:0.60784314;fill-rule:evenodd;stroke:#000000;stroke-width:0;stroke-linecap:butt;stroke-linejoin:miter;stroke-miterlimit:4;stroke-opacity:1;stroke-dasharray:none"
     d="m 502.1087,537.23015 c -4.8262,0.1495 -10.40693,3.95868 -10.125,12.875 2.6822,84.82694 -84.74594,92.15016 -116.0377,53.9673 -3.76744,-4.59711 -16.0683,-4.7418 -18.1584,6.1449 -5.7486,29.9428 -11.2611,54.1851 -15.1277,75.9283 -1.384,7.7827 -5.57575,24.91659 7.7457,31.6967 20.26357,10.31339 43.0513,11.74131 68.4531,7.5754 79.3089,-13.00672 105.03106,-83.60666 95.1563,-176.5938 -0.76342,-7.18885 -6.4366,-11.7631 -11.9063,-11.5938 z"
     id="path2819"
     sodipodi:nodetypes="csssssssc" />
  <g
     id="layer1" />
  <path
     sodipodi:nodetypes="cssscccccsss"
     id="path2817"
     d="m 375.946,604.07245 c -3.76854,-4.59768 -16.0683,-4.7418 -18.1584,6.1449 -5.7486,29.9428 -11.2611,54.1851 -15.1277,75.9283 -1.384,7.7827 -5.4616,24.6957 7.7457,31.6967 29.8237,15.8091 27.2629,22.7297 24.9531,41.8566 -16.6612,53.2883 -81.5814,110.5892 -135.0625,141.9375 -75.9718,42.7454 -145.342404,53.1725 -227.556704,26.0977 -12.95650001,-4.9288 -19.4719,9.8137 -5.0625,18.2187 60.2274,39.1555 117.063804,55.10935 188.681704,52.33995 43.4302,-1.6797 87.4471,-32.37065 128.3437,-78.15635 47.9764,-53.712 77.41383,-109.33823 83.9688,-177.4375 6.83357,-70.99365 0.52645,-98.05899 -32.7252,-138.6265 z"
     style="fill:#ff0000;fill-opacity:0.60784314;fill-rule:evenodd;stroke:#000000;stroke-width:0;stroke-linecap:butt;stroke-linejoin:miter;stroke-miterlimit:4;stroke-opacity:1;stroke-dasharray:none" />
</svg>
