<?xml version="1.0" encoding="UTF-8" standalone="no"?>
<!-- Created with Inkscape (http://www.inkscape.org/) -->

<svg
   xmlns:dc="http://purl.org/dc/elements/1.1/"
   xmlns:cc="http://creativecommons.org/ns#"
   xmlns:rdf="http://www.w3.org/1999/02/22-rdf-syntax-ns#"
   xmlns:svg="http://www.w3.org/2000/svg"
   xmlns="http://www.w3.org/2000/svg"
   xmlns:sodipodi="http://sodipodi.sourceforge.net/DTD/sodipodi-0.dtd"
   xmlns:inkscape="http://www.inkscape.org/namespaces/inkscape"
   version="1.0"
   width="1000"
   height="1000"
   id="svg5496"
   sodipodi:version="0.32"
   inkscape:version="0.47pre4 r22446"
   sodipodi:docname="dal.fina.svg"
   inkscape:output_extension="org.inkscape.output.svg.inkscape">
  <metadata
     id="metadata5594">
    <rdf:RDF>
      <cc:Work
         rdf:about="">
        <dc:format>image/svg+xml</dc:format>
        <dc:type
           rdf:resource="http://purl.org/dc/dcmitype/StillImage" />
      </cc:Work>
    </rdf:RDF>
  </metadata>
  <sodipodi:namedview
     inkscape:pageshadow="2"
     inkscape:pageopacity="0.0"
     guidetolerance="10.0"
     gridtolerance="10.0"
     objecttolerance="10.0"
     borderopacity="1.0"
     bordercolor="#666666"
     pagecolor="#ffffff"
     id="base"
     showgrid="false"
     showguides="true"
     inkscape:guide-bbox="true"
     inkscape:zoom="0.64205296"
     inkscape:cx="190.28717"
     inkscape:cy="181.94107"
     inkscape:window-x="0"
     inkscape:window-y="0"
     inkscape:current-layer="svg5496"
     inkscape:window-width="1278"
     inkscape:window-height="767"
     inkscape:window-maximized="1">
    <sodipodi:guide
       orientation="horizontal"
       position="200"
       id="guide5596" />
  </sodipodi:namedview>
  <defs
     id="defs5498">
    <inkscape:perspective
       sodipodi:type="inkscape:persp3d"
       inkscape:vp_x="0 : 500 : 1"
       inkscape:vp_y="0 : 1000 : 0"
       inkscape:vp_z="1000 : 500 : 1"
       inkscape:persp3d-origin="500 : 333.33333 : 1"
       id="perspective2437" />
    <inkscape:perspective
       id="perspective2467"
       inkscape:persp3d-origin="372.04724 : 350.78739 : 1"
       inkscape:vp_z="744.09448 : 526.18109 : 1"
       inkscape:vp_y="0 : 1000 : 0"
       inkscape:vp_x="0 : 526.18109 : 1"
       sodipodi:type="inkscape:persp3d" />
    <inkscape:perspective
       id="perspective5308"
       inkscape:persp3d-origin="0.5 : 0.33333333 : 1"
       inkscape:vp_z="1 : 0.5 : 1"
       inkscape:vp_y="0 : 1000 : 0"
       inkscape:vp_x="0 : 0.5 : 1"
       sodipodi:type="inkscape:persp3d" />
  </defs>
  <g
     id="g2824"
     transform="matrix(0.98397004,0,0,0.98397004,-4.035154,-26.309481)"
     style="fill:#ff0000;fill-opacity:0.60784314;stroke:#000000;stroke-opacity:1">
    <g
       transform="translate(-269.44818,27.515446)"
       id="g2826"
       style="fill:#ff0000;fill-opacity:0.60784314;stroke:#000000;stroke-opacity:1" />
    <path
       sodipodi:nodetypes="csssssssssssssssss"
       id="path2828"
       d="m 420.35643,747.86931 c -28.54537,-7.03329 -38.78653,-46.78829 -45.95903,-75.37966 -11.73269,-46.76944 -39.5886,-213.5065 -54.24292,-339.6627 -1.46218,-12.58768 -14.69317,-13.04063 -18.94263,-3.88221 -8.4186,18.14372 -16.54829,34.08016 -23.35338,51.62069 -3.96913,10.23065 -5.58526,16.71276 -3.69361,31.97471 3.85417,31.09579 14.09353,97.10078 22.47863,152.08555 6.31868,41.43435 11.75742,76.58663 9.67648,85.44868 -5.37182,22.87685 -27.99967,46.27138 -51.78569,56.23999 -39.37842,16.50332 -124.90498,28.96124 -177.367211,11.12039 -21.460362,-7.29804 -23.966226,-25.67186 -30.50012,-41.29703 -2.776356,-6.63939 -18.481203,-11.97559 -26.406408,9.67753 -11.6564,31.84742 -32.001208,113.37213 19.046921,129.55065 47.282084,14.98496 160.838038,1.31388 194.941108,-13.58649 51.07483,-22.3157 75.78688,-89.7198 81.88754,-107.72127 1.19423,-3.52388 4.43577,-5.9921 5.79815,0.15676 14.50313,65.45699 30.06536,141.92588 98.28166,145.55607 26.32922,1.40113 33.50749,-83.68037 0.14051,-91.90166 z"
       style="fill:#ff0000;fill-opacity:0.60784314;fill-rule:evenodd;stroke:#000000;stroke-width:0;stroke-linecap:butt;stroke-linejoin:miter;stroke-opacity:1" />
  </g>
  <g
     id="layer1"
     transform="translate(-269.44818,27.515446)" />
</svg>
