<?xml version="1.0" encoding="UTF-8" standalone="no"?>
<!-- Created with Inkscape (http://www.inkscape.org/) -->

<svg
   xmlns:dc="http://purl.org/dc/elements/1.1/"
   xmlns:cc="http://creativecommons.org/ns#"
   xmlns:rdf="http://www.w3.org/1999/02/22-rdf-syntax-ns#"
   xmlns:svg="http://www.w3.org/2000/svg"
   xmlns="http://www.w3.org/2000/svg"
   xmlns:sodipodi="http://sodipodi.sourceforge.net/DTD/sodipodi-0.dtd"
   xmlns:inkscape="http://www.inkscape.org/namespaces/inkscape"
   version="1.0"
   width="1000"
   height="1000"
   id="svg5496"
   sodipodi:version="0.32"
   inkscape:version="0.47pre4 r22446"
   sodipodi:docname="heh.init.svg"
   inkscape:output_extension="org.inkscape.output.svg.inkscape">
  <metadata
     id="metadata5594">
    <rdf:RDF>
      <cc:Work
         rdf:about="">
        <dc:format>image/svg+xml</dc:format>
        <dc:type
           rdf:resource="http://purl.org/dc/dcmitype/StillImage" />
        <dc:title />
      </cc:Work>
    </rdf:RDF>
  </metadata>
  <sodipodi:namedview
     inkscape:window-height="767"
     inkscape:pageshadow="2"
     inkscape:pageopacity="0.0"
     borderopacity="1.0"
     bordercolor="#666666"
     pagecolor="#ffffff"
     id="base"
     showgrid="false"
     showguides="true"
     inkscape:guide-bbox="true"
     inkscape:zoom="1.1341679"
     inkscape:cx="91.304479"
     inkscape:cy="326.01915"
     inkscape:window-x="0"
     inkscape:window-y="0"
     inkscape:current-layer="svg5496"
     inkscape:window-width="1278"
     inkscape:window-maximized="1">
    <sodipodi:guide
       orientation="horizontal"
       position="200"
       id="guide5596" />
  </sodipodi:namedview>
  <defs
     id="defs5498">
    <inkscape:perspective
       sodipodi:type="inkscape:persp3d"
       inkscape:vp_x="0 : 500 : 1"
       inkscape:vp_y="0 : 1000 : 0"
       inkscape:vp_z="1000 : 500 : 1"
       inkscape:persp3d-origin="500 : 333.33333 : 1"
       id="perspective2849" />
    <inkscape:perspective
       id="perspective2838"
       inkscape:persp3d-origin="0.5 : 0.33333333 : 1"
       inkscape:vp_z="1 : 0.5 : 1"
       inkscape:vp_y="0 : 1000 : 0"
       inkscape:vp_x="0 : 0.5 : 1"
       sodipodi:type="inkscape:persp3d" />
    <inkscape:perspective
       id="perspective4280"
       inkscape:persp3d-origin="0.5 : 0.33333333 : 1"
       inkscape:vp_z="1 : 0.5 : 1"
       inkscape:vp_y="0 : 1000 : 0"
       inkscape:vp_x="0 : 0.5 : 1"
       sodipodi:type="inkscape:persp3d" />
    <inkscape:perspective
       id="perspective4293"
       inkscape:persp3d-origin="0.5 : 0.33333333 : 1"
       inkscape:vp_z="1 : 0.5 : 1"
       inkscape:vp_y="0 : 1000 : 0"
       inkscape:vp_x="0 : 0.5 : 1"
       sodipodi:type="inkscape:persp3d" />
    <inkscape:perspective
       id="perspective4306"
       inkscape:persp3d-origin="0.5 : 0.33333333 : 1"
       inkscape:vp_z="1 : 0.5 : 1"
       inkscape:vp_y="0 : 1000 : 0"
       inkscape:vp_x="0 : 0.5 : 1"
       sodipodi:type="inkscape:persp3d" />
  </defs>
  <path
     style="color:#000000;fill:#ff0000;fill-opacity:0.60784314;stroke:#000000;stroke-width:0;stroke-linecap:butt;stroke-linejoin:miter;stroke-miterlimit:4;stroke-opacity:1;stroke-dasharray:none;stroke-dashoffset:0;marker:none;visibility:visible;display:inline;overflow:visible;enable-background:accumulate"
     d="m 86.105,478.4178 c -1.413,4.3902 0.244,11.454 6.238,11.8198 13.159,0.8032 36.652,12.6127 35.084,19.4997 -42.21,36.8686 -64.151,80.7545 -73.486,110.8454 -7.63,23.1116 -4.08093,45.01853 15.58907,61.29943 C 51.64407,691.60383 31.686376,700.07125 -0.01,709.9206 -44.341074,723.69607 -15.346754,807.26274 0,800 35.963126,782.98071 85.691477,755.38624 132.86348,714.39854 206.75035,742.68063 265.94921,753.83407 303.742,757.789 370.15582,764.73906 395.229,664.6732 387.419,619.3598 380.468,579.0274 322.397,514.8367 279.13,472.5676 244.723,438.9513 182.178,388.2403 153.352,390.068 c -47.179,3.0382 -58.835,62.526 -67.247,88.3498 z m 74.583,72.6494 c 24.6,7.3329 28.556,27.3207 30.964,57.308 0.285,3.5579 -0.0823,4.43694 -2.535,6.9356 -8.12321,8.27539 -19.82709,14.7189 -30.54009,20.0843 C 96.802257,616.42496 74.56,604.8722 86.044,585.7212 c 13.33,-18.6383 47.844,-41.7286 74.644,-34.654 z m 73.419,12.0157 c 37.462,23.6561 86.731,58.2396 103.679,100.6749 2.254,5.6433 -0.28571,5.21304 -4.868,8.087 -18.55339,11.63645 -92.92883,-10.1232 -137.03683,-23.99032 8.786,-8.7132 39.22783,-56.14418 34.64583,-83.01938 -1.077,-3.036 1.082,-3.3294 3.58,-1.7522 z"
     id="path2824"
     sodipodi:nodetypes="cscccsscssssccssccccssccs" />
  <g
     id="layer1"
     transform="translate(-531.10884,134.21875)" />
</svg>
