<?xml version="1.0" encoding="UTF-8" standalone="no"?>
<!-- Created with Inkscape (http://www.inkscape.org/) -->

<svg
   xmlns:dc="http://purl.org/dc/elements/1.1/"
   xmlns:cc="http://creativecommons.org/ns#"
   xmlns:rdf="http://www.w3.org/1999/02/22-rdf-syntax-ns#"
   xmlns:svg="http://www.w3.org/2000/svg"
   xmlns="http://www.w3.org/2000/svg"
   xmlns:sodipodi="http://sodipodi.sourceforge.net/DTD/sodipodi-0.dtd"
   xmlns:inkscape="http://www.inkscape.org/namespaces/inkscape"
   version="1.0"
   width="1000"
   height="1000"
   id="svg5496"
   sodipodi:version="0.32"
   inkscape:version="0.47pre4 r22446"
   sodipodi:docname="kaf+meem+lam.fina.svg"
   inkscape:output_extension="org.inkscape.output.svg.inkscape">
  <metadata
     id="metadata5594">
    <rdf:RDF>
      <cc:Work
         rdf:about="">
        <dc:format>image/svg+xml</dc:format>
        <dc:type
           rdf:resource="http://purl.org/dc/dcmitype/StillImage" />
      </cc:Work>
    </rdf:RDF>
  </metadata>
  <sodipodi:namedview
     inkscape:pageshadow="2"
     inkscape:pageopacity="0.0"
     guidetolerance="10.0"
     gridtolerance="10.0"
     objecttolerance="10.0"
     borderopacity="1.0"
     bordercolor="#666666"
     pagecolor="#ffffff"
     id="base"
     showgrid="false"
     showguides="true"
     inkscape:guide-bbox="true"
     inkscape:zoom="0.31004121"
     inkscape:cx="400.89156"
     inkscape:cy="136.93165"
     inkscape:window-x="0"
     inkscape:window-y="0"
     inkscape:current-layer="svg5496"
     inkscape:window-width="1278"
     inkscape:window-height="767"
     inkscape:window-maximized="1">
    <sodipodi:guide
       orientation="horizontal"
       position="200"
       id="guide5596" />
  </sodipodi:namedview>
  <defs
     id="defs5498">
    <inkscape:perspective
       sodipodi:type="inkscape:persp3d"
       inkscape:vp_x="0 : 500 : 1"
       inkscape:vp_y="0 : 1000 : 0"
       inkscape:vp_z="1000 : 500 : 1"
       inkscape:persp3d-origin="500 : 333.33333 : 1"
       id="perspective8" />
    <inkscape:perspective
       id="perspective2517"
       inkscape:persp3d-origin="372.04724 : 350.78739 : 1"
       inkscape:vp_z="744.09448 : 526.18109 : 1"
       inkscape:vp_y="0 : 1000 : 0"
       inkscape:vp_x="0 : 526.18109 : 1"
       sodipodi:type="inkscape:persp3d" />
    <inkscape:perspective
       id="perspective8609"
       inkscape:persp3d-origin="0.5 : 0.33333333 : 1"
       inkscape:vp_z="1 : 0.5 : 1"
       inkscape:vp_y="0 : 1000 : 0"
       inkscape:vp_x="0 : 0.5 : 1"
       sodipodi:type="inkscape:persp3d" />
    <inkscape:perspective
       sodipodi:type="inkscape:persp3d"
       inkscape:vp_x="0 : 0.5 : 1"
       inkscape:vp_y="0 : 1000 : 0"
       inkscape:vp_z="1 : 0.5 : 1"
       inkscape:persp3d-origin="0.5 : 0.33333333 : 1"
       id="perspective4759" />
    <inkscape:perspective
       sodipodi:type="inkscape:persp3d"
       inkscape:vp_x="0 : 526.18109 : 1"
       inkscape:vp_y="0 : 1000 : 0"
       inkscape:vp_z="744.09448 : 526.18109 : 1"
       inkscape:persp3d-origin="372.04724 : 350.78739 : 1"
       id="perspective2477" />
    <inkscape:perspective
       id="perspective8-8"
       inkscape:persp3d-origin="500 : 333.33333 : 1"
       inkscape:vp_z="1000 : 500 : 1"
       inkscape:vp_y="0 : 1000 : 0"
       inkscape:vp_x="0 : 500 : 1"
       sodipodi:type="inkscape:persp3d" />
  </defs>
  <g
     id="layer1"
     transform="translate(20,296)" />
  <path
     style="fill:#ff0000;fill-opacity:0.60784314;fill-rule:evenodd;stroke:#000000;stroke-width:0;stroke-linecap:butt;stroke-linejoin:miter;stroke-miterlimit:4;stroke-opacity:1;stroke-dasharray:none"
     d="m 311.60211,485.49868 c 5.71845,48.22002 16.19089,217.82369 125.32014,300.59463 46.94161,35.60367 28.21022,117.81121 -10.445,91.88953 -37.56145,-25.18822 -70.82188,-61.26501 -102.37147,-110.81534 12.40618,104.1074 15.73607,266.887 -15.07713,313.5731 -52.46499,79.4915 -165.43397,117.9701 -278.665605,108.2171 -99.914851,-8.6059 -152.472855,-77.9967 -157.392385,-156.4138 -5.40059,-86.08509 34.807252,-190.48008 82.127195,-269.1859 8.09357,-13.46179 23.264396,-2.54682 17.293758,7.98788 -50.564532,89.21694 -112.924433,280.48652 61.015352,316.60382 99.675735,20.6969 228.395535,-36.96 271.098765,-93.28418 l -70.53348,-746.4534 c -2.06326,-21.82997 -3.27336,-32.2958 -0.6788,-39.97787 8.4367,-24.97976 17.85808,-49.59614 30.0537,-73.74352 7.90882,-15.65954 15.61644,-3.03535 16.44769,5.90606 l 24.74758,266.32914 c 2.36822,25.4864 3.94498,52.50841 7.05969,78.77275 z"
     id="path2843"
     sodipodi:nodetypes="csscssssssccsscss" />
  <path
     sodipodi:nodetypes="ccsssssss"
     id="path2845"
     d="m 436.92225,786.09331 c 9.4893,6.85042 19.29908,13.79418 30.11274,19.90669 -1.3727,-31.87367 16.30639,-34.9416 32.53296,-20.5514 23.17402,20.5514 58.20255,48.50588 117.85864,58.7852 4.75933,0.82008 8.12758,5.91958 7.84422,11.2741 l -4.34202,82.04832 c -0.47585,8.99174 -5.84031,9.80659 -10.5124,9.2676 -55.61204,-6.41564 -130.84955,-30.80789 -183.93914,-68.84098 -37.0452,-26.53898 -36.87173,-126.04795 10.445,-91.88953 z"
     style="fill:#ff0000;fill-opacity:0.60784314;fill-rule:evenodd;stroke:#000000;stroke-width:0;stroke-linecap:butt;stroke-linejoin:miter;stroke-miterlimit:4;stroke-opacity:1;stroke-dasharray:none" />
  <path
     style="fill:#ff0000;fill-opacity:0.60784314;fill-rule:evenodd;stroke:#000000;stroke-width:0;stroke-linecap:butt;stroke-linejoin:miter;stroke-miterlimit:4;stroke-opacity:1;stroke-dasharray:none"
     d="m 467.03499,806 c -0.0903,-7.7803 -12.23927,-46.2043 18.49312,-86.365 43.84875,-57.301 131.55169,-44.7184 163.28737,-73.6087 -52.44277,-92.0126 -210.59869,-141.95466 -339.21337,-160.52762 -32.6939,-4.74891 -22.22639,-39.46501 -5.05969,-78.77275 65.13833,-149.15152 391.16294,-307.630013 687.31446,-417.9506 8.74552,-3.25781 19.59102,1.361866 16.87592,10.89165 0,0 -13.01287,45.679663 -19.52122,68.51895 -5.71093,20.040953 -15.4831,21.34011 -24.0332,24.47452 -139.968,51.31134 -533.42617,224.763 -594.78694,292.83848 -2.54735,2.82611 -1.16092,5.40692 2.67069,6.17519 92.41342,18.6011 214.46654,62.78624 321.36135,123.77615 100.47425,57.3266 220.76147,184.43445 311.71912,193.85203 30.3199,3.13926 34.13,86.5507 -0.1397,90.6865 -68.4354,8.25906 -242.49812,-168.0389 -342.93962,-214.6149 17.7839,71.4239 -17.93985,133.6255 -45.75626,147.3327 -39.96954,19.6958 -85.09442,11.947 -117.16338,38.5947 -6.63504,5.5133 -5.95284,9.19226 -0.57569,14.1473 61.77186,56.92267 -32.12858,55.37606 -32.53296,20.5514 z"
     id="path2847"
     sodipodi:nodetypes="cscssssssscssscssss" />
</svg>
