<?xml version="1.0" encoding="UTF-8" standalone="no"?>
<!-- Created with Inkscape (http://www.inkscape.org/) -->

<svg
   xmlns:dc="http://purl.org/dc/elements/1.1/"
   xmlns:cc="http://creativecommons.org/ns#"
   xmlns:rdf="http://www.w3.org/1999/02/22-rdf-syntax-ns#"
   xmlns:svg="http://www.w3.org/2000/svg"
   xmlns="http://www.w3.org/2000/svg"
   xmlns:sodipodi="http://sodipodi.sourceforge.net/DTD/sodipodi-0.dtd"
   xmlns:inkscape="http://www.inkscape.org/namespaces/inkscape"
   version="1.0"
   width="1000"
   height="1000"
   id="svg5496"
   sodipodi:version="0.32"
   inkscape:version="0.47pre4 r22446"
   sodipodi:docname="kaf+lam+heh.isol.svg"
   inkscape:output_extension="org.inkscape.output.svg.inkscape">
  <metadata
     id="metadata5594">
    <rdf:RDF>
      <cc:Work
         rdf:about="">
        <dc:format>image/svg+xml</dc:format>
        <dc:type
           rdf:resource="http://purl.org/dc/dcmitype/StillImage" />
        <dc:title></dc:title>
      </cc:Work>
    </rdf:RDF>
  </metadata>
  <sodipodi:namedview
     inkscape:pageshadow="2"
     inkscape:pageopacity="0.0"
     guidetolerance="10.0"
     gridtolerance="10.0"
     objecttolerance="10.0"
     borderopacity="1.0"
     bordercolor="#666666"
     pagecolor="#ffffff"
     id="base"
     showgrid="false"
     showguides="true"
     inkscape:guide-bbox="true"
     inkscape:zoom="0.23689226"
     inkscape:cx="-459.83151"
     inkscape:cy="926.14039"
     inkscape:window-x="0"
     inkscape:window-y="0"
     inkscape:current-layer="svg5496"
     inkscape:window-width="1214"
     inkscape:window-height="767"
     inkscape:window-maximized="1">
    <sodipodi:guide
       orientation="horizontal"
       position="200"
       id="guide5596" />
  </sodipodi:namedview>
  <defs
     id="defs5498">
    <inkscape:perspective
       sodipodi:type="inkscape:persp3d"
       inkscape:vp_x="0 : 500 : 1"
       inkscape:vp_y="0 : 1000 : 0"
       inkscape:vp_z="1000 : 500 : 1"
       inkscape:persp3d-origin="500 : 333.33333 : 1"
       id="perspective8" />
    <inkscape:perspective
       id="perspective2477"
       inkscape:persp3d-origin="372.04724 : 350.78739 : 1"
       inkscape:vp_z="744.09448 : 526.18109 : 1"
       inkscape:vp_y="0 : 1000 : 0"
       inkscape:vp_x="0 : 526.18109 : 1"
       sodipodi:type="inkscape:persp3d" />
    <inkscape:perspective
       id="perspective3839"
       inkscape:persp3d-origin="0.5 : 0.33333333 : 1"
       inkscape:vp_z="1 : 0.5 : 1"
       inkscape:vp_y="0 : 1000 : 0"
       inkscape:vp_x="0 : 0.5 : 1"
       sodipodi:type="inkscape:persp3d" />
    <inkscape:perspective
       id="perspective2856"
       inkscape:persp3d-origin="0.5 : 0.33333333 : 1"
       inkscape:vp_z="1 : 0.5 : 1"
       inkscape:vp_y="0 : 1000 : 0"
       inkscape:vp_x="0 : 0.5 : 1"
       sodipodi:type="inkscape:persp3d" />
    <inkscape:perspective
       sodipodi:type="inkscape:persp3d"
       inkscape:vp_x="0 : 0.5 : 1"
       inkscape:vp_y="0 : 1000 : 0"
       inkscape:vp_z="1 : 0.5 : 1"
       inkscape:persp3d-origin="0.5 : 0.33333333 : 1"
       id="perspective3711" />
    <inkscape:perspective
       sodipodi:type="inkscape:persp3d"
       inkscape:vp_x="0 : 526.18109 : 1"
       inkscape:vp_y="0 : 1000 : 0"
       inkscape:vp_z="744.09448 : 526.18109 : 1"
       inkscape:persp3d-origin="372.04724 : 350.78739 : 1"
       id="perspective2782" />
    <inkscape:perspective
       sodipodi:type="inkscape:persp3d"
       inkscape:vp_x="0 : 500 : 1"
       inkscape:vp_y="0 : 1000 : 0"
       inkscape:vp_z="1000 : 500 : 1"
       inkscape:persp3d-origin="500 : 333.33333 : 1"
       id="perspective2389" />
    <inkscape:perspective
       id="perspective2524"
       inkscape:persp3d-origin="372.04724 : 350.78739 : 1"
       inkscape:vp_z="744.09448 : 526.18109 : 1"
       inkscape:vp_y="0 : 1000 : 0"
       inkscape:vp_x="0 : 526.18109 : 1"
       sodipodi:type="inkscape:persp3d" />
    <inkscape:perspective
       sodipodi:type="inkscape:persp3d"
       inkscape:vp_x="0 : 526.18109 : 1"
       inkscape:vp_y="0 : 1000 : 0"
       inkscape:vp_z="744.09448 : 526.18109 : 1"
       inkscape:persp3d-origin="372.04724 : 350.78739 : 1"
       id="perspective2477-9" />
    <inkscape:perspective
       id="perspective8-8"
       inkscape:persp3d-origin="500 : 333.33333 : 1"
       inkscape:vp_z="1000 : 500 : 1"
       inkscape:vp_y="0 : 1000 : 0"
       inkscape:vp_x="0 : 500 : 1"
       sodipodi:type="inkscape:persp3d" />
    <inkscape:perspective
       id="perspective3719"
       inkscape:persp3d-origin="0.5 : 0.33333333 : 1"
       inkscape:vp_z="1 : 0.5 : 1"
       inkscape:vp_y="0 : 1000 : 0"
       inkscape:vp_x="0 : 0.5 : 1"
       sodipodi:type="inkscape:persp3d" />
  </defs>
  <path
     sodipodi:nodetypes="ccccssssssccss"
     id="path2824"
     d="m 461.3421,458.89671 c 23.53948,-125.68062 461.26269,-261.59254 577.7411,-305.23063 10.427,-3.41672 19.6956,-0.57471 15.8103,11.19026 l -16.6936,52.80056 c -2.2752,8.44176 -5.0085,14.4131 -13.1868,17.43311 -158.88731,58.67235 -474.3573,153.89969 -527.9798,222.72748 -3.5691,4.58117 -2.54991,4.95514 1.95023,6.73536 121.79714,48.18203 242.30264,137.92783 241.18264,230.86657 -1.48812,121.90291 -89.6769,170.47535 -148.608,172.7662 -43.68347,1.69812 -40.93383,-99.93456 -6.38447,-101.52206 58.73452,-2.69877 104.30857,-30.3271 135.58043,-60.97037 2.5382,-2.4977 2.5639,-2.8604 1.8711,-5.1555 C 670.6828,611.5347 530.09218,556.18411 467.36897,537.1816 436.34235,527.78184 455.93428,487.76979 461.3421,458.89671 z"
     style="fill:#ff0000;fill-opacity:0.60784313999999995;fill-rule:evenodd;stroke:#000000;stroke-width:0;stroke-linecap:butt;stroke-linejoin:miter;stroke-miterlimit:4;stroke-opacity:1;stroke-dasharray:none" />
  <path
     style="fill:#ff0000;fill-opacity:0.60784313999999995;stroke:#000000;stroke-width:0;stroke-miterlimit:4;stroke-opacity:1;stroke-dasharray:none"
     sodipodi:nodetypes="ccccccssscss"
     d="M 407.62446,851.24339 C 435.96962,835.525 447.35352,775.333 439.91073,729.9647 413.93405,571.6064 397.75987,458.33557 374.50222,290.72138 c -1.88092,-13.55313 -4.76278,-23.07198 0.53713,-43.2297 l 22.01766,-52.62761 c 12.1541,-21.71769 19.16447,-12.41506 21.7492,-4.83232 16.4788,133.27275 60.91641,457.57245 85.69772,523.41675 14.62639,38.8626 44.29609,55.06514 89.08372,52.62103 39.60174,-2.16112 33.02584,96.58867 7.08155,101.14189 C 529.97119,879.61892 478.74967,834.646 458.54114,800 c -15.92665,76.39822 -36.85385,141.55195 -71.59175,142.27114 -25.19814,0.52168 -23.19326,-66.7012 20.67507,-91.02775 z"
     id="path2831" />
  <g
     id="g2598"
     transform="matrix(0.5,0,0,0.5,-102.78443,307.10469)"
     style="stroke:#000000;stroke-width:0;stroke-miterlimit:4;stroke-opacity:1;stroke-dasharray:none" />
  <path
     id="path2829"
     d="m 221.2999,802.2725 c -8.18557,15.5493 -15.1245,20.8788 -24.9519,23.5206 -43.74404,8.4532 -107.446504,4.3047 -119.271064,-5.9342 -7.68558,-6.6541 -22.42248,-23.5929 -16.0026,-42.4078 5.33991,-15.6474 21.94443,-57.658 25.27861,-66.7313 6.07513,-16.535 17.118744,-28.1633 17.118744,-28.1633 33.53366,-33.4433 75.16634,-58.7551 117.81353,-79.0339 l -5.8799,-38.8488 c -0.65809,-5.6599 -1.92854,-18.3816 0.62952,-27.80619 l 19.46249,-45.10973 c 13.05597,-13.82259 12.79782,4.3057 16.49021,12.95406 6.8736,47.4431 25.52751,148.36244 45.57269,222.35561 19.4806,71.90913 50.61114,144.91842 121.76525,116.84794 39.5136,-15.58822 6.99453,83.05342 -19.55572,95.31858 -73.67799,34.03629 -116.14729,-53.50071 -156.34635,-202.34947 -4.66025,22.68841 -11.35964,44.85393 -22.12351,65.3879 z M 116.35339,730.882 c 27.42907,21.6844 81.31185,11.87012 104.12099,3.0371 27.44132,-10.62687 12.93915,-57.37688 7.84044,-79.7425 -51.53872,14.41658 -90.54155,38.26235 -111.96143,76.7054 z"
     sodipodi:nodetypes="ccscsccccccssscccscc"
     style="fill:#ff0000;fill-opacity:0.60784313999999995;stroke:#000000;stroke-width:0;stroke-miterlimit:4;stroke-opacity:1;stroke-dasharray:none" />
</svg>
