<?xml version="1.0" encoding="UTF-8" standalone="no"?>
<!-- Created with Inkscape (http://www.inkscape.org/) -->

<svg
   xmlns:dc="http://purl.org/dc/elements/1.1/"
   xmlns:cc="http://creativecommons.org/ns#"
   xmlns:rdf="http://www.w3.org/1999/02/22-rdf-syntax-ns#"
   xmlns:svg="http://www.w3.org/2000/svg"
   xmlns="http://www.w3.org/2000/svg"
   xmlns:sodipodi="http://sodipodi.sourceforge.net/DTD/sodipodi-0.dtd"
   xmlns:inkscape="http://www.inkscape.org/namespaces/inkscape"
   version="1.0"
   width="1000"
   height="1000"
   id="svg5496"
   sodipodi:version="0.32"
   inkscape:version="0.47pre4 r22446"
   sodipodi:docname="kaf+lam+alef.fina.svg"
   inkscape:output_extension="org.inkscape.output.svg.inkscape">
  <metadata
     id="metadata5594">
    <rdf:RDF>
      <cc:Work
         rdf:about="">
        <dc:format>image/svg+xml</dc:format>
        <dc:type
           rdf:resource="http://purl.org/dc/dcmitype/StillImage" />
      </cc:Work>
    </rdf:RDF>
  </metadata>
  <sodipodi:namedview
     inkscape:pageshadow="2"
     inkscape:pageopacity="0.0"
     guidetolerance="10.0"
     gridtolerance="10.0"
     objecttolerance="10.0"
     borderopacity="1.0"
     bordercolor="#666666"
     pagecolor="#ffffff"
     id="base"
     showgrid="false"
     showguides="true"
     inkscape:guide-bbox="true"
     inkscape:zoom="0.472"
     inkscape:cx="417.90254"
     inkscape:cy="617.64665"
     inkscape:window-x="0"
     inkscape:window-y="0"
     inkscape:current-layer="svg5496"
     inkscape:window-width="1278"
     inkscape:window-height="767"
     inkscape:window-maximized="1">
    <sodipodi:guide
       orientation="horizontal"
       position="200"
       id="guide5596" />
  </sodipodi:namedview>
  <defs
     id="defs5498">
    <inkscape:perspective
       sodipodi:type="inkscape:persp3d"
       inkscape:vp_x="0 : 500 : 1"
       inkscape:vp_y="0 : 1000 : 0"
       inkscape:vp_z="1000 : 500 : 1"
       inkscape:persp3d-origin="500 : 333.33333 : 1"
       id="perspective8" />
    <inkscape:perspective
       id="perspective2477"
       inkscape:persp3d-origin="372.04724 : 350.78739 : 1"
       inkscape:vp_z="744.09448 : 526.18109 : 1"
       inkscape:vp_y="0 : 1000 : 0"
       inkscape:vp_x="0 : 526.18109 : 1"
       sodipodi:type="inkscape:persp3d" />
    <inkscape:perspective
       sodipodi:type="inkscape:persp3d"
       inkscape:vp_x="0 : 500 : 1"
       inkscape:vp_y="0 : 1000 : 0"
       inkscape:vp_z="1000 : 500 : 1"
       inkscape:persp3d-origin="500 : 333.33333 : 1"
       id="perspective2670" />
    <inkscape:perspective
       id="perspective2457"
       inkscape:persp3d-origin="372.04724 : 350.78739 : 1"
       inkscape:vp_z="744.09448 : 526.18109 : 1"
       inkscape:vp_y="0 : 1000 : 0"
       inkscape:vp_x="0 : 526.18109 : 1"
       sodipodi:type="inkscape:persp3d" />
    <inkscape:perspective
       id="perspective2459"
       inkscape:persp3d-origin="372.04724 : 350.78739 : 1"
       inkscape:vp_z="744.09448 : 526.18109 : 1"
       inkscape:vp_y="0 : 1000 : 0"
       inkscape:vp_x="0 : 526.18109 : 1"
       sodipodi:type="inkscape:persp3d" />
    <inkscape:perspective
       sodipodi:type="inkscape:persp3d"
       inkscape:vp_x="0 : 500 : 1"
       inkscape:vp_y="0 : 1000 : 0"
       inkscape:vp_z="1000 : 500 : 1"
       inkscape:persp3d-origin="500 : 333.33333 : 1"
       id="perspective2611" />
    <inkscape:perspective
       id="perspective2711"
       inkscape:persp3d-origin="372.04724 : 350.78739 : 1"
       inkscape:vp_z="744.09448 : 526.18109 : 1"
       inkscape:vp_y="0 : 1000 : 0"
       inkscape:vp_x="0 : 526.18109 : 1"
       sodipodi:type="inkscape:persp3d" />
    <inkscape:perspective
       sodipodi:type="inkscape:persp3d"
       inkscape:vp_x="0 : 526.18109 : 1"
       inkscape:vp_y="0 : 1000 : 0"
       inkscape:vp_z="744.09448 : 526.18109 : 1"
       inkscape:persp3d-origin="372.04724 : 350.78739 : 1"
       id="perspective2709" />
    <inkscape:perspective
       id="perspective2707"
       inkscape:persp3d-origin="500 : 333.33333 : 1"
       inkscape:vp_z="1000 : 500 : 1"
       inkscape:vp_y="0 : 1000 : 0"
       inkscape:vp_x="0 : 500 : 1"
       sodipodi:type="inkscape:persp3d" />
    <inkscape:perspective
       id="perspective4639"
       inkscape:persp3d-origin="0.5 : 0.33333333 : 1"
       inkscape:vp_z="1 : 0.5 : 1"
       inkscape:vp_y="0 : 1000 : 0"
       inkscape:vp_x="0 : 0.5 : 1"
       sodipodi:type="inkscape:persp3d" />
  </defs>
  <g
     id="layer1"
     transform="translate(125.85766,97.48325)" />
  <path
     sodipodi:nodetypes="cssccccss"
     id="path2823"
     d="m 303.05815,609.10098 c -30.71662,-237.1455 -188.2323,-336.692 -360.523394,-410.703 -11.0436,-4.744 -24.202,-2.825 -26.7875,12.979 -11.8905,72.684 -31.727996,144.851 119.892595,192.436 8.6006,2.913 16.7248,1.261 19.1282,-9.271 l 1.4197,-24.238 c 0.3923,-6.731 4.1595,-6.688 6.5744,-5.809 138.643899,45.602 211.607319,213.24504 209.749499,293.75 -1.30922,57.2601 35.26619,-12.70594 30.5465,-49.144 z"
     style="fill:#ff0000;fill-opacity:0.60784314;fill-rule:evenodd;stroke:#000000;stroke-width:0;stroke-linecap:butt;stroke-linejoin:miter;stroke-miterlimit:4;stroke-opacity:1;stroke-dasharray:none" />
  <path
     style="fill:#ff0000;fill-opacity:0.60784314;fill-rule:evenodd;stroke:#000000;stroke-width:0;stroke-linecap:butt;stroke-linejoin:miter;stroke-miterlimit:4;stroke-opacity:1;stroke-dasharray:none"
     d="m 576.92497,707.09166 c -34.31507,2.81754 -66.55322,-4.01183 -87.43582,-18.54768 -38.82751,-27.02685 -43.10329,-176.65404 -47.0833,-238.099 -2.2206,-34.28257 -2.76542,-60.97199 -3.707,-99.034 l -6.9708,-281.78501 c -0.2152,-9.872 -11.6362,-14.052 -18.5005,-2.424 l -33.3616,56.57501 c -6.4844,10.984 -7.764,24.987 -9.3862,40.015 -9.4597,153.241 -33.1351,386.20292 -67.4216,445.309 -10.10435,17.41877 -16.23384,35.11118 -30.5465,49.144 C 159.16609,769.37441 53.817751,802.576 -61.822744,839.733 c -7.3234,2.87 -16.5646,14.161 4.6164,15.347 88.175695,4.939 178.607794,0.694 260.738594,-54.757 112.3702,-75.868 162.664,-262.86502 186.7537,-394.45202 29.1819,287.799 3.22136,415.33333 189.7488,399.84402 20.75413,-1.72343 28.39251,-101.20993 -3.10978,-98.62334 z"
     id="path2825"
     sodipodi:nodetypes="csssccccssccscss" />
  <path
     sodipodi:nodetypes="ccssccccccssssccss"
     id="path2827"
     d="m 576.92497,707.09166 c 47.91552,-2.63034 103.56756,-25.70367 134.40908,-69.07368 -15.8739,-40.071 -105.00867,-153.14395 -265.2569,-194.577 -27.04898,-6.99366 -21.33063,-57.67331 -7.3783,-92.03 14.76691,-36.36252 37.8461,-58.369 62.9511,-79.79 113.6528,-100.477 452.12874,-232.96101 550.39835,-272.51901 10.2276,-3.732 24.211,-1.517 23.2121,12.349 l -12.1146,59.211 c -1.4106,6.902 -6.8316,10.545 -12.3454,12.483 -144.27795,46.97901 -550.82805,239.37001 -570.90835,276.74601 86.7455,21.588 178.1358,68.087 273.2276,135.98 85.6336,61.14 157.70454,128.921 239.47874,182.117 32.74801,21.303 51.77791,22.74248 79.11941,30.911 37.2431,11.12672 30.0603,97.49257 0.3695,91.10102 C 971.26,778.29484 785.14915,589.10398 727.82205,561.17898 c 7.5391,20.52 11.1737,42.863 11.7423,70.948 1.8869,93.17702 -40.16179,165.21768 -159.5296,173.58802 -47.774,3.35002 -37.90842,-96.71306 -3.10978,-98.62334 z"
     style="fill:#ff0000;fill-opacity:0.60784314;fill-rule:evenodd;stroke:#000000;stroke-width:0;stroke-linecap:butt;stroke-linejoin:miter;stroke-miterlimit:4;stroke-opacity:1;stroke-dasharray:none" />
</svg>
