<?xml version="1.0" encoding="UTF-8" standalone="no"?>
<!-- Created with Inkscape (http://www.inkscape.org/) -->

<svg
   xmlns:dc="http://purl.org/dc/elements/1.1/"
   xmlns:cc="http://creativecommons.org/ns#"
   xmlns:rdf="http://www.w3.org/1999/02/22-rdf-syntax-ns#"
   xmlns:svg="http://www.w3.org/2000/svg"
   xmlns="http://www.w3.org/2000/svg"
   xmlns:sodipodi="http://sodipodi.sourceforge.net/DTD/sodipodi-0.dtd"
   xmlns:inkscape="http://www.inkscape.org/namespaces/inkscape"
   version="1.0"
   width="1000"
   height="1000"
   id="svg5496"
   sodipodi:version="0.32"
   inkscape:version="0.47pre4 r22446"
   sodipodi:docname="kaf+meem+lam.init.svg"
   inkscape:output_extension="org.inkscape.output.svg.inkscape">
  <metadata
     id="metadata5594">
    <rdf:RDF>
      <cc:Work
         rdf:about="">
        <dc:format>image/svg+xml</dc:format>
        <dc:type
           rdf:resource="http://purl.org/dc/dcmitype/StillImage" />
        <dc:title />
      </cc:Work>
    </rdf:RDF>
  </metadata>
  <sodipodi:namedview
     inkscape:window-height="767"
     inkscape:window-width="1278"
     inkscape:pageshadow="2"
     inkscape:pageopacity="0.0"
     borderopacity="1.0"
     bordercolor="#666666"
     pagecolor="#ffffff"
     id="base"
     showgrid="false"
     showguides="true"
     inkscape:guide-bbox="true"
     inkscape:zoom="0.40682337"
     inkscape:cx="267.95226"
     inkscape:cy="321.81913"
     inkscape:window-x="0"
     inkscape:window-y="0"
     inkscape:current-layer="svg5496"
     inkscape:window-maximized="1">
    <sodipodi:guide
       orientation="horizontal"
       position="200"
       id="guide5596" />
  </sodipodi:namedview>
  <defs
     id="defs5498">
    <inkscape:perspective
       sodipodi:type="inkscape:persp3d"
       inkscape:vp_x="0 : 500 : 1"
       inkscape:vp_y="0 : 1000 : 0"
       inkscape:vp_z="1000 : 500 : 1"
       inkscape:persp3d-origin="500 : 333.33333 : 1"
       id="perspective5725" />
    <inkscape:perspective
       id="perspective5714"
       inkscape:persp3d-origin="0.5 : 0.33333333 : 1"
       inkscape:vp_z="1 : 0.5 : 1"
       inkscape:vp_y="0 : 1000 : 0"
       inkscape:vp_x="0 : 0.5 : 1"
       sodipodi:type="inkscape:persp3d" />
    <inkscape:perspective
       id="perspective5714-2"
       inkscape:persp3d-origin="0.5 : 0.33333333 : 1"
       inkscape:vp_z="1 : 0.5 : 1"
       inkscape:vp_y="0 : 1000 : 0"
       inkscape:vp_x="0 : 0.5 : 1"
       sodipodi:type="inkscape:persp3d" />
    <inkscape:perspective
       id="perspective5714-7"
       inkscape:persp3d-origin="0.5 : 0.33333333 : 1"
       inkscape:vp_z="1 : 0.5 : 1"
       inkscape:vp_y="0 : 1000 : 0"
       inkscape:vp_x="0 : 0.5 : 1"
       sodipodi:type="inkscape:persp3d" />
  </defs>
  <g
     id="layer1" />
  <path
     sodipodi:nodetypes="csscssscsscss"
     id="path2817"
     d="m 109.6327,405.9048 c 21.72063,180.43298 37.82502,252.57276 96.8677,304.6181 37.73361,33.26167 2.51758,113.80577 -26.10623,85.64844 C 148.71325,765.00672 121.35063,722.12567 98.041,661.7098 69.5544,752.2176 20.508924,795.99312 0,800 -18.99778,803.71164 -41.430607,716.43961 0.035,708.8327 31.116374,703.13079 72.5945,688.896 71.8959,648.2446 71.2124,608.4689 47.2426,320.2562 27.218,150.535 26.2195,129.8652 25.5325,119.946 28.3117,112.8162 37.3487,89.6323 44.9756,79.6505 53.6713,57.4143 59.7012,41.994895 68.6971,49.9398 69.093,58.4054 l 29.243,260.4998 c 3.1011,27.62497 6.69224,48.75039 11.2967,86.9996 z"
     style="fill:#ff0000;fill-opacity:0.60784314;fill-rule:evenodd;stroke:#000000;stroke-width:0;stroke-linecap:butt;stroke-linejoin:miter;stroke-opacity:1" />
  <path
     style="fill:#ff0000;fill-opacity:0.60784314;fill-rule:evenodd;stroke:#000000;stroke-width:0;stroke-linecap:butt;stroke-linejoin:miter;stroke-opacity:1"
     d="m 206.5004,710.5229 c -41.95786,-29.39074 -68.09098,44.40275 -27.15463,84.6044 48.79533,47.91957 106.3398,69.52619 173.84963,85.5989 4.3188,1.02822 9.9393,0.2083 10.3125,-8.2813 l 14.1704,-82.4911 c 0.2222,-5.0554 -2.4319,-10.1009 -6.9063,-10.9688 -69.9084,-13.561 -98.9105,-40.3215 -120.8266,-62.9463 -4.8013,-4.9565 -3.16705,-12.18527 3.1563,-17.3125 45.20569,-36.65462 -24.66542,-60.91211 -46.6013,11.7967 z"
     id="path2819"
     sodipodi:nodetypes="cssccsssc" />
  <path
     sodipodi:nodetypes="csssssscsssccss"
     id="path2821"
     d="m 109.6327,405.9048 c 120.35905,23.13366 263.6121,82.1457 309.0625,171.1651 -37.3435,44.3756 -122.57431,12.48978 -170.0979,60.5825 -31.89593,32.27791 -38.74777,58.13341 -42.0969,72.8705 -13.06267,57.47924 13.50805,13.8399 46.6013,-11.7967 29.70603,-23.0126 82.842,-9.614 141.6562,-41.4375 25.7397,-13.9274 66.0471,-74.0612 42,-138.7813 -32.838,-88.38 -135.87573,-166.65354 -277.5801,-194.0692 -3.5789,-0.8904 -5.0014,-3.6302 -2.25,-5.9375 86.2707,-72.3446 354.5682,-164.7015 491.3148,-196.7415 8.3677,-1.9606 17.4657,-3.3852 23.7188,-22.0313 7.1262,-21.2496 13.0354,-61.184005 13.0354,-61.184005 2.0524,-9.7432 -7.6335,-13.4825 -15.4377,-11 C 375.2203,121.4173 151.0986,213.23299 98.336,318.9052 c -21.806071,43.6729 -23.454637,80.32021 11.2967,86.9996 z"
     style="fill:#ff0000;fill-opacity:0.60784314;fill-rule:evenodd;stroke:#000000;stroke-width:0;stroke-linecap:butt;stroke-linejoin:miter;stroke-opacity:1" />
</svg>
