<?xml version="1.0" encoding="UTF-8" standalone="no"?>
<!-- Created with Inkscape (http://www.inkscape.org/) -->

<svg
   xmlns:dc="http://purl.org/dc/elements/1.1/"
   xmlns:cc="http://creativecommons.org/ns#"
   xmlns:rdf="http://www.w3.org/1999/02/22-rdf-syntax-ns#"
   xmlns:svg="http://www.w3.org/2000/svg"
   xmlns="http://www.w3.org/2000/svg"
   xmlns:sodipodi="http://sodipodi.sourceforge.net/DTD/sodipodi-0.dtd"
   xmlns:inkscape="http://www.inkscape.org/namespaces/inkscape"
   version="1.0"
   width="1000"
   height="1000"
   id="svg5496"
   sodipodi:version="0.32"
   inkscape:version="0.47pre4 r22446"
   sodipodi:docname="kaf+meem+alef.isol.svg"
   inkscape:output_extension="org.inkscape.output.svg.inkscape">
  <metadata
     id="metadata5594">
    <rdf:RDF>
      <cc:Work
         rdf:about="">
        <dc:format>image/svg+xml</dc:format>
        <dc:type
           rdf:resource="http://purl.org/dc/dcmitype/StillImage" />
      </cc:Work>
    </rdf:RDF>
  </metadata>
  <sodipodi:namedview
     inkscape:pageshadow="2"
     inkscape:pageopacity="0.0"
     guidetolerance="10.0"
     gridtolerance="10.0"
     objecttolerance="10.0"
     borderopacity="1.0"
     bordercolor="#666666"
     pagecolor="#ffffff"
     id="base"
     showgrid="false"
     showguides="true"
     inkscape:guide-bbox="true"
     inkscape:zoom="0.27838018"
     inkscape:cx="103.64883"
     inkscape:cy="287.41609"
     inkscape:window-x="0"
     inkscape:window-y="0"
     inkscape:current-layer="svg5496"
     inkscape:window-width="1278"
     inkscape:window-height="767"
     inkscape:window-maximized="1">
    <sodipodi:guide
       orientation="horizontal"
       position="200"
       id="guide5596" />
  </sodipodi:namedview>
  <defs
     id="defs5498">
    <inkscape:perspective
       sodipodi:type="inkscape:persp3d"
       inkscape:vp_x="0 : 500 : 1"
       inkscape:vp_y="0 : 1000 : 0"
       inkscape:vp_z="1000 : 500 : 1"
       inkscape:persp3d-origin="500 : 333.33333 : 1"
       id="perspective8" />
    <inkscape:perspective
       id="perspective2537"
       inkscape:persp3d-origin="372.04724 : 350.78739 : 1"
       inkscape:vp_z="744.09448 : 526.18109 : 1"
       inkscape:vp_y="0 : 1000 : 0"
       inkscape:vp_x="0 : 526.18109 : 1"
       sodipodi:type="inkscape:persp3d" />
    <inkscape:perspective
       id="perspective4334"
       inkscape:persp3d-origin="0.5 : 0.33333333 : 1"
       inkscape:vp_z="1 : 0.5 : 1"
       inkscape:vp_y="0 : 1000 : 0"
       inkscape:vp_x="0 : 0.5 : 1"
       sodipodi:type="inkscape:persp3d" />
  </defs>
  <g
     id="layer1"
     transform="translate(-37.380094,241.62995)" />
  <path
     sodipodi:nodetypes="csscccccss"
     id="path2822"
     d="M 84.184538,486.795 C 88.682942,559.97528 83.281482,732.04224 176.71654,808 250.1721,867.71549 181.2307,933.72225 136.70387,883.09069 112.65989,855.75023 93.429099,827.13343 81.378538,797.951 27.024538,666.052 53.221538,467.807 1.5825385,136.799 c -1.445,-9.293 -4.255,-15.313 0.09,-21.97 L 32.064538,68.261 c 3.992,-6.118 13.068,-10.47 15.422,7.183 12.732,95.516 20.835082,186.64041 28.731,278.409 4.076226,47.37505 4.622561,78.53448 7.967,132.942 z"
     style="fill:#ff0000;fill-opacity:0.60784314;fill-rule:evenodd;stroke:#000000;stroke-width:0;stroke-linecap:butt;stroke-linejoin:miter;stroke-miterlimit:4;stroke-opacity:1;stroke-dasharray:none" />
  <path
     style="fill:#ff0000;fill-opacity:0.60784314;fill-rule:evenodd;stroke:#000000;stroke-width:0;stroke-linecap:butt;stroke-linejoin:miter;stroke-miterlimit:4;stroke-opacity:1;stroke-dasharray:none"
     d="m 136.70387,883.09069 c 46.02451,52.54959 110.48047,95.47063 172.34667,113.41927 15.6131,4.52964 26.64,-0.801 31.406,-14.81 l 24.034,-70.638 c 4.09,-12.021 -5.483,-20.128 -13.133,-22.706 -57.739,-19.459 -95.07654,-42.36369 -128.193,-78.21296 -19.84249,-21.47992 -37.92352,-27.05986 -36.005,-7.002 0.8121,8.49038 -6.91272,8.0439 -10.443,4.859 -48.17051,-43.45789 -110.888419,-5.8334 -40.01267,75.09069 z"
     id="path2824"
     sodipodi:nodetypes="cssssssss" />
  <path
     sodipodi:nodetypes="ccsssscccccccccccscss"
     id="path2826"
     d="m 187.15954,803.141 c -0.63582,-26.41033 13.53,-64.243 39.565,-84.893 43.477,-34.484 124.06673,-25.31246 193.151,-47.053 8.78773,-2.76546 7.50323,-11.62428 2.415,-19.406 C 367.13642,567.43864 193.15241,513.59059 84.184538,486.795 53.970075,479.36516 39.277608,412.80045 76.217538,353.853 156.16654,226.27318 481.28454,124.27 683.52754,19.339 c 3.761,-1.952 7.317,-2.928 10.381,-3.018 l 10e-4,0 0,0 0,0 0,0 c 7.832,-0.215 12.544,5.479 9.839,16.297 l -15.421,61.688 c -5.161,20.642 -12.912,23.596 -22.333,27.132 -93.835,35.209 -478.122,185.395 -565.089,264.406 -3.31,3.007 -3.785,6.559 1.147,7.968 351.299,100.078 376.532,220.754 351.173,305.148 -22.547,75.036 -173.263,58.694 -217.241,73.062 -20.422,6.671 -25.90527,23.70359 -12.82,38.121 21.93684,24.17011 -34.38935,60.10759 -36.005,-7.002 z"
     style="fill:#ff0000;fill-opacity:0.60784314;fill-rule:evenodd;stroke:#000000;stroke-width:0;stroke-linecap:butt;stroke-linejoin:miter;stroke-miterlimit:4;stroke-opacity:1;stroke-dasharray:none" />
</svg>
