<?xml version="1.0" encoding="UTF-8" standalone="no"?>
<!-- Created with Inkscape (http://www.inkscape.org/) -->

<svg
   xmlns:dc="http://purl.org/dc/elements/1.1/"
   xmlns:cc="http://creativecommons.org/ns#"
   xmlns:rdf="http://www.w3.org/1999/02/22-rdf-syntax-ns#"
   xmlns:svg="http://www.w3.org/2000/svg"
   xmlns="http://www.w3.org/2000/svg"
   xmlns:sodipodi="http://sodipodi.sourceforge.net/DTD/sodipodi-0.dtd"
   xmlns:inkscape="http://www.inkscape.org/namespaces/inkscape"
   version="1.0"
   width="1000"
   height="1000"
   id="svg5496"
   sodipodi:version="0.32"
   inkscape:version="0.47pre4 r22446"
   sodipodi:docname="kaf+meem.medi.svg"
   inkscape:output_extension="org.inkscape.output.svg.inkscape">
  <metadata
     id="metadata5594">
    <rdf:RDF>
      <cc:Work
         rdf:about="">
        <dc:format>image/svg+xml</dc:format>
        <dc:type
           rdf:resource="http://purl.org/dc/dcmitype/StillImage" />
      </cc:Work>
    </rdf:RDF>
  </metadata>
  <sodipodi:namedview
     inkscape:pageshadow="2"
     inkscape:pageopacity="0.0"
     guidetolerance="10.0"
     gridtolerance="10.0"
     objecttolerance="10.0"
     borderopacity="1.0"
     bordercolor="#666666"
     pagecolor="#ffffff"
     id="base"
     showgrid="false"
     showguides="true"
     inkscape:guide-bbox="true"
     inkscape:zoom="0.50128389"
     inkscape:cx="814.52754"
     inkscape:cy="232.91498"
     inkscape:window-x="0"
     inkscape:window-y="0"
     inkscape:current-layer="svg5496"
     inkscape:window-width="1278"
     inkscape:window-height="767"
     inkscape:window-maximized="1">
    <sodipodi:guide
       orientation="horizontal"
       position="200"
       id="guide5596" />
  </sodipodi:namedview>
  <defs
     id="defs5498">
    <inkscape:perspective
       sodipodi:type="inkscape:persp3d"
       inkscape:vp_x="0 : 500 : 1"
       inkscape:vp_y="0 : 1000 : 0"
       inkscape:vp_z="1000 : 500 : 1"
       inkscape:persp3d-origin="500 : 333.33333 : 1"
       id="perspective8" />
    <inkscape:perspective
       id="perspective2477"
       inkscape:persp3d-origin="372.04724 : 350.78739 : 1"
       inkscape:vp_z="744.09448 : 526.18109 : 1"
       inkscape:vp_y="0 : 1000 : 0"
       inkscape:vp_x="0 : 526.18109 : 1"
       sodipodi:type="inkscape:persp3d" />
    <inkscape:perspective
       id="perspective4745"
       inkscape:persp3d-origin="0.5 : 0.33333333 : 1"
       inkscape:vp_z="1 : 0.5 : 1"
       inkscape:vp_y="0 : 1000 : 0"
       inkscape:vp_x="0 : 0.5 : 1"
       sodipodi:type="inkscape:persp3d" />
  </defs>
  <g
     id="layer1"
     transform="matrix(0.5,0,0,0.5,199.85902,191.70926)" />
  <path
     style="fill:#ff0000;fill-opacity:0.60784314;fill-rule:evenodd;stroke:#000000;stroke-width:0;stroke-linecap:butt;stroke-linejoin:miter;stroke-miterlimit:4;stroke-opacity:1;stroke-dasharray:none"
     d="m 154.746,572.327 c -29.74287,16.07403 -49.151,73.637 -73,100.651 C 62.635,694.628 26.888201,708.05808 0.05,709.382 -31.816435,710.95396 -29.067778,800.95101 0,800 c 61.099918,-1.999 80.134,-68.576 100.883,-101.906 37.06059,36.08423 97.06578,58.30007 133.16485,64.83333 34.85502,6.30811 78.55923,-103.94816 39.4366,-155.03722 C 229.52666,550.48696 170.50408,563.81081 154.746,572.327 z m 27.48,58.327 c 36.865,-0.242 74.144,27.62 78.806,51.946 0.9,4.696 -3.913,5.543 -8.651,4.634 -32.418,-6.219 -66.37,-16.32 -99.527,-43.417 -2.335,-1.908 -2.932,-6.401 1.127,-7.937 9.389,-3.553 18.923,-5.17 28.245,-5.226 z"
     id="path2831"
     sodipodi:nodetypes="ccsscsssccsccc" />
  <path
     sodipodi:nodetypes="cccscccccssccccccccc"
     id="path2833"
     d="m 787.875,-55.785 c -1.224,0.01 -2.537,0.132 -3.944,0.393 C 631.78,-27.195 176.361,65.506 90.815,153.956 76.586,168.663 55.691,213.841 59.016,266.833 c 0.272,4.337 0.611,7.337 3.829,10.039 74.594,62.617 231.691,183.868 238.866,253.393 -32.585,39.073 -106.956,20.312 -146.965,42.062 -20.77627,18.13821 81.82257,68.04229 127.202,37.679 11.465,-14.164 68.474,-35.844 35.2,-176.077 109.784,66.397 341.39737,356.49009 440.588,354.764 33.81835,-0.5885 27.90847,-83.5295 -0.467,-90.65 C 665.79248,675.08801 580.812,575.61 450.788,459.623 342.437,362.968 214.062,264.86 106.357,218.067 c -4.354,-2.422 13.578,-15.55 18.786,-18.186 C 307.73,101.829 639.68,60.964 751.408,38.041 c 3.984,-0.813 7.682,-0.333 11.71,-7.909 l 35.76,-67.267 c 4.105,-7.722 0.826,-18.725 -11.006,-18.65 l 0,0 0.003,0 z"
     style="fill:#ff0000;fill-opacity:0.60784314;fill-rule:evenodd;stroke:#000000;stroke-width:0;stroke-linecap:butt;stroke-linejoin:miter;stroke-miterlimit:4;stroke-opacity:1;stroke-dasharray:none" />
</svg>
