<?xml version="1.0" encoding="UTF-8" standalone="no"?>
<!-- Created with Inkscape (http://www.inkscape.org/) -->

<svg
   xmlns:dc="http://purl.org/dc/elements/1.1/"
   xmlns:cc="http://creativecommons.org/ns#"
   xmlns:rdf="http://www.w3.org/1999/02/22-rdf-syntax-ns#"
   xmlns:svg="http://www.w3.org/2000/svg"
   xmlns="http://www.w3.org/2000/svg"
   xmlns:sodipodi="http://sodipodi.sourceforge.net/DTD/sodipodi-0.dtd"
   xmlns:inkscape="http://www.inkscape.org/namespaces/inkscape"
   version="1.0"
   width="1000"
   height="1000"
   id="svg5496"
   sodipodi:version="0.32"
   inkscape:version="0.47pre4 r22446"
   sodipodi:docname="lam+alef.fina.svg"
   inkscape:output_extension="org.inkscape.output.svg.inkscape">
  <metadata
     id="metadata5594">
    <rdf:RDF>
      <cc:Work
         rdf:about="">
        <dc:format>image/svg+xml</dc:format>
        <dc:type
           rdf:resource="http://purl.org/dc/dcmitype/StillImage" />
      </cc:Work>
    </rdf:RDF>
  </metadata>
  <sodipodi:namedview
     inkscape:pageshadow="2"
     inkscape:pageopacity="0.0"
     guidetolerance="10.0"
     gridtolerance="10.0"
     objecttolerance="10.0"
     borderopacity="1.0"
     bordercolor="#666666"
     pagecolor="#ffffff"
     id="base"
     showgrid="false"
     showguides="true"
     inkscape:guide-bbox="true"
     inkscape:zoom="0.32102648"
     inkscape:cx="416.92167"
     inkscape:cy="285.76485"
     inkscape:window-x="0"
     inkscape:window-y="0"
     inkscape:current-layer="svg5496"
     inkscape:window-width="1278"
     inkscape:window-height="767"
     inkscape:window-maximized="1">
    <sodipodi:guide
       orientation="horizontal"
       position="200"
       id="guide5596" />
  </sodipodi:namedview>
  <defs
     id="defs5498">
    <inkscape:perspective
       sodipodi:type="inkscape:persp3d"
       inkscape:vp_x="0 : 500 : 1"
       inkscape:vp_y="0 : 1000 : 0"
       inkscape:vp_z="1000 : 500 : 1"
       inkscape:persp3d-origin="500 : 333.33333 : 1"
       id="perspective8" />
    <inkscape:perspective
       id="perspective2711"
       inkscape:persp3d-origin="372.04724 : 350.78739 : 1"
       inkscape:vp_z="744.09448 : 526.18109 : 1"
       inkscape:vp_y="0 : 1000 : 0"
       inkscape:vp_x="0 : 526.18109 : 1"
       sodipodi:type="inkscape:persp3d" />
    <inkscape:perspective
       id="perspective8539"
       inkscape:persp3d-origin="0.5 : 0.33333333 : 1"
       inkscape:vp_z="1 : 0.5 : 1"
       inkscape:vp_y="0 : 1000 : 0"
       inkscape:vp_x="0 : 0.5 : 1"
       sodipodi:type="inkscape:persp3d" />
  </defs>
  <g
     id="layer1"
     transform="matrix(0.5,0,0,0.5,221.61944,298.8987)"
     style="stroke-width:0;stroke-miterlimit:4;stroke-dasharray:none" />
  <path
     style="fill:#ff0000;fill-opacity:0.60784314;fill-rule:evenodd;stroke:#000000;stroke-width:0;stroke-linecap:butt;stroke-linejoin:miter;stroke-miterlimit:4;stroke-opacity:1;stroke-dasharray:none"
     d="M 393.9345,601.95294 C 374.29075,436.49204 200.73439,290.39738 37.75726,208.6284 19.847373,199.64264 0.28477253,213.43837 0.53656968,225.90212 c 0.0859028,4.25212 2.05121002,106.20992 2.05121002,106.20992 -0.87689,11.59074 3.00296,19.27327 19.4735203,30.64317 l 87.17307,60.17713 c 17.9565,12.3956 28.9342,17.9197 37.2595,2.193 2.4608,-4.6486 7.6816,-16.0121 9.7109,-20.1405 4.8321,-9.8308 14.0973,-3.1875 19.1088,-0.063 90.18513,56.2366 170.13973,130.12365 197.09973,242.0012 13.09894,54.35748 27.19094,2.78658 21.5212,-44.9701 z"
     id="path2818"
     sodipodi:nodetypes="cssssssssss" />
  <path
     sodipodi:nodetypes="csssssssssssssss"
     id="path2820"
     d="m 452.4911,166.08638 c -5.31548,8.30987 -7.83873,31.55744 -7.433,48.05855 2.94827,119.90713 -18.99105,321.71619 -51.1236,387.80801 -6.94674,14.28841 -12.89811,32.45901 -21.5212,44.9701 -52.07507,75.55479 -224.02698,168.03278 -292.77982,193.66036 -8.126951,3.02932 -7.120955,12.90002 -0.1888,15.501 11.337045,4.25372 91.38249,-7.852 158.63519,-24.9583 C 391.9371,791.99144 449.8729,575.177 464.7747,402.96504 c 1.21511,-14.0424 4.9612,-5.79771 6.1654,0.498 6.0282,31.51619 19.26616,193.26255 43.4248,292.4566 16.58722,68.10623 72.91103,102.89693 104.8188,104.08036 15.79764,0.58592 15.15655,-82.63803 0.1686,-91.30296 -41.73865,-24.13022 -59.2501,-69.6285 -69.4393,-113.7346 -28.018,-121.2819 -51.95569,-445.0769 -50.8976,-467.89667 0.62984,-13.58376 -10.3,-17.61006 -17.5829,-6.22446 l -28.9414,45.24507 z"
     style="fill:#ff0000;fill-opacity:0.60784314;fill-rule:evenodd;stroke:#000000;stroke-width:0;stroke-linecap:butt;stroke-linejoin:miter;stroke-miterlimit:4;stroke-opacity:1;stroke-dasharray:none" />
</svg>
