<?xml version="1.0" encoding="UTF-8" standalone="no"?>
<!-- Created with Inkscape (http://www.inkscape.org/) -->

<svg
   xmlns:dc="http://purl.org/dc/elements/1.1/"
   xmlns:cc="http://creativecommons.org/ns#"
   xmlns:rdf="http://www.w3.org/1999/02/22-rdf-syntax-ns#"
   xmlns:svg="http://www.w3.org/2000/svg"
   xmlns="http://www.w3.org/2000/svg"
   xmlns:sodipodi="http://sodipodi.sourceforge.net/DTD/sodipodi-0.dtd"
   xmlns:inkscape="http://www.inkscape.org/namespaces/inkscape"
   version="1.0"
   width="1000"
   height="1000"
   id="svg5496"
   sodipodi:version="0.32"
   inkscape:version="0.47pre4 r22446"
   sodipodi:docname="lam+heh.fina.svg"
   inkscape:output_extension="org.inkscape.output.svg.inkscape">
  <metadata
     id="metadata5594">
    <rdf:RDF>
      <cc:Work
         rdf:about="">
        <dc:format>image/svg+xml</dc:format>
        <dc:type
           rdf:resource="http://purl.org/dc/dcmitype/StillImage" />
      </cc:Work>
    </rdf:RDF>
  </metadata>
  <sodipodi:namedview
     inkscape:pageshadow="2"
     inkscape:pageopacity="0.0"
     guidetolerance="10.0"
     gridtolerance="10.0"
     objecttolerance="10.0"
     borderopacity="1.0"
     bordercolor="#666666"
     pagecolor="#ffffff"
     id="base"
     showgrid="false"
     showguides="true"
     inkscape:guide-bbox="true"
     inkscape:zoom="0.40030954"
     inkscape:cx="412.73932"
     inkscape:cy="401.83567"
     inkscape:window-x="0"
     inkscape:window-y="0"
     inkscape:current-layer="svg5496"
     inkscape:window-width="1278"
     inkscape:window-height="767"
     inkscape:window-maximized="1">
    <sodipodi:guide
       orientation="horizontal"
       position="200"
       id="guide5596" />
  </sodipodi:namedview>
  <defs
     id="defs5498">
    <inkscape:perspective
       sodipodi:type="inkscape:persp3d"
       inkscape:vp_x="0 : 500 : 1"
       inkscape:vp_y="0 : 1000 : 0"
       inkscape:vp_z="1000 : 500 : 1"
       inkscape:persp3d-origin="500 : 333.33333 : 1"
       id="perspective8" />
    <inkscape:perspective
       id="perspective2477"
       inkscape:persp3d-origin="372.04724 : 350.78739 : 1"
       inkscape:vp_z="744.09448 : 526.18109 : 1"
       inkscape:vp_y="0 : 1000 : 0"
       inkscape:vp_x="0 : 526.18109 : 1"
       sodipodi:type="inkscape:persp3d" />
    <inkscape:perspective
       sodipodi:type="inkscape:persp3d"
       inkscape:vp_x="0 : 526.18109 : 1"
       inkscape:vp_y="0 : 1000 : 0"
       inkscape:vp_z="744.09448 : 526.18109 : 1"
       inkscape:persp3d-origin="372.04724 : 350.78739 : 1"
       id="perspective2524" />
    <inkscape:perspective
       id="perspective2389"
       inkscape:persp3d-origin="500 : 333.33333 : 1"
       inkscape:vp_z="1000 : 500 : 1"
       inkscape:vp_y="0 : 1000 : 0"
       inkscape:vp_x="0 : 500 : 1"
       sodipodi:type="inkscape:persp3d" />
    <inkscape:perspective
       id="perspective2782"
       inkscape:persp3d-origin="372.04724 : 350.78739 : 1"
       inkscape:vp_z="744.09448 : 526.18109 : 1"
       inkscape:vp_y="0 : 1000 : 0"
       inkscape:vp_x="0 : 526.18109 : 1"
       sodipodi:type="inkscape:persp3d" />
    <inkscape:perspective
       id="perspective3711"
       inkscape:persp3d-origin="0.5 : 0.33333333 : 1"
       inkscape:vp_z="1 : 0.5 : 1"
       inkscape:vp_y="0 : 1000 : 0"
       inkscape:vp_x="0 : 0.5 : 1"
       sodipodi:type="inkscape:persp3d" />
  </defs>
  <path
     style="fill:#ff0000;fill-opacity:0.60784314;stroke:#000000;stroke-width:0;stroke-miterlimit:4;stroke-opacity:1;stroke-dasharray:none"
     sodipodi:nodetypes="ccccccssscss"
     d="m 370.21507,783.2984 c 31.33009,2.19118 27.31195,-71.433 19.86916,-116.8013 -25.97668,-158.3583 -48.15086,-291.62913 -71.40851,-459.24332 -1.88092,-13.55313 -4.76278,-23.07198 0.53713,-43.2297 l 22.01766,-52.62761 c 12.1541,-21.71769 19.16447,-12.41506 21.7492,-4.83232 16.4788,133.27275 60.91641,457.57245 85.69772,523.41675 14.62639,38.8626 49.55722,71.62766 88.01285,79.2092 38.91166,7.67144 26.5622,90.972 0.2219,90.8099 -41.67638,-0.25648 -98.55683,-51.9548 -118.76536,-86.6008 3.84851,80.5025 -7.00455,181.47538 -68.60682,182.9408 -25.19641,0.59938 -29.36454,-116.5413 20.67507,-113.0416 z"
     id="path2831" />
  <g
     id="layer1"
     transform="translate(0,200)" />
  <g
     id="g2596"
     transform="translate(-379.9765,54.03354)">
    <g
       style="stroke:#000000;stroke-width:0;stroke-miterlimit:4;stroke-opacity:1;stroke-dasharray:none"
       transform="matrix(0.5,0,0,0.5,221.36564,169.60355)"
       id="g2598" />
  </g>
  <path
     id="path2829"
     d="m 161.4734,704.8049 c -8.18557,15.5493 -15.1245,20.8788 -24.9519,23.5206 -43.74404,8.4532 -107.446503,4.3047 -119.271063,-5.9342 -7.68558,-6.6541 -22.42248,-23.5929 -16.0026,-42.4078 5.33991,-15.6474 21.94443,-57.658 25.27861,-66.7313 6.07513,-16.535 17.11874,-28.1633 17.11874,-28.1633 33.53366,-33.4433 75.166343,-58.7551 117.813533,-79.0339 l -5.8799,-38.8488 c -0.65809,-5.6599 -1.92854,-18.3816 0.62952,-27.80619 l 19.46249,-45.10973 c 13.05597,-13.82259 12.79782,4.3057 16.49021,12.95406 6.8736,47.4431 28.31542,158.11026 45.57269,232.80286 13.51074,58.47695 52.37244,141.09927 132.48134,143.2512 42.46194,1.14064 18.77338,111.91073 -20.67507,113.0416 -82.77149,2.37282 -140.66868,-133.44615 -165.94309,-256.923 -4.66025,22.68841 -11.35964,44.85393 -22.12351,65.3879 z M 56.526887,633.4144 c 27.42907,21.6844 81.311853,11.87012 104.120993,3.0371 27.44132,-10.62687 12.93915,-57.37688 7.84044,-79.7425 -51.53872,14.41658 -90.541549,38.26235 -111.961433,76.7054 z"
     sodipodi:nodetypes="ccscsccccccssscccscc"
     style="fill:#ff0000;fill-opacity:0.60784314;stroke:#000000;stroke-width:0;stroke-miterlimit:4;stroke-opacity:1;stroke-dasharray:none" />
</svg>
