<?xml version="1.0" encoding="UTF-8" standalone="no"?>
<!-- Created with Inkscape (http://www.inkscape.org/) -->

<svg
   xmlns:dc="http://purl.org/dc/elements/1.1/"
   xmlns:cc="http://creativecommons.org/ns#"
   xmlns:rdf="http://www.w3.org/1999/02/22-rdf-syntax-ns#"
   xmlns:svg="http://www.w3.org/2000/svg"
   xmlns="http://www.w3.org/2000/svg"
   xmlns:sodipodi="http://sodipodi.sourceforge.net/DTD/sodipodi-0.dtd"
   xmlns:inkscape="http://www.inkscape.org/namespaces/inkscape"
   version="1.0"
   width="1000"
   height="1000"
   id="svg5496"
   sodipodi:version="0.32"
   inkscape:version="0.47pre4 r22446"
   sodipodi:docname="lam+baa+meem.init.svg"
   inkscape:output_extension="org.inkscape.output.svg.inkscape">
  <metadata
     id="metadata5594">
    <rdf:RDF>
      <cc:Work
         rdf:about="">
        <dc:format>image/svg+xml</dc:format>
        <dc:type
           rdf:resource="http://purl.org/dc/dcmitype/StillImage" />
        <dc:title />
      </cc:Work>
    </rdf:RDF>
  </metadata>
  <sodipodi:namedview
     inkscape:window-height="767"
     inkscape:window-width="1278"
     inkscape:pageshadow="2"
     inkscape:pageopacity="0.0"
     borderopacity="1.0"
     bordercolor="#666666"
     pagecolor="#ffffff"
     id="base"
     showgrid="false"
     showguides="true"
     inkscape:guide-bbox="true"
     inkscape:zoom="0.47498014"
     inkscape:cx="422.31124"
     inkscape:cy="622.71495"
     inkscape:window-x="-11"
     inkscape:window-y="0"
     inkscape:current-layer="svg5496"
     inkscape:window-maximized="1">
    <sodipodi:guide
       orientation="horizontal"
       position="200"
       id="guide5596" />
  </sodipodi:namedview>
  <defs
     id="defs5498">
    <inkscape:perspective
       sodipodi:type="inkscape:persp3d"
       inkscape:vp_x="0 : 500 : 1"
       inkscape:vp_y="0 : 1000 : 0"
       inkscape:vp_z="1000 : 500 : 1"
       inkscape:persp3d-origin="500 : 333.33333 : 1"
       id="perspective9094" />
    <inkscape:perspective
       id="perspective9083"
       inkscape:persp3d-origin="0.5 : 0.33333333 : 1"
       inkscape:vp_z="1 : 0.5 : 1"
       inkscape:vp_y="0 : 1000 : 0"
       inkscape:vp_x="0 : 0.5 : 1"
       sodipodi:type="inkscape:persp3d" />
    <inkscape:perspective
       id="perspective9113"
       inkscape:persp3d-origin="0.5 : 0.33333333 : 1"
       inkscape:vp_z="1 : 0.5 : 1"
       inkscape:vp_y="0 : 1000 : 0"
       inkscape:vp_x="0 : 0.5 : 1"
       sodipodi:type="inkscape:persp3d" />
    <inkscape:perspective
       sodipodi:type="inkscape:persp3d"
       inkscape:vp_x="0 : 0.5 : 1"
       inkscape:vp_y="0 : 1000 : 0"
       inkscape:vp_z="1 : 0.5 : 1"
       inkscape:persp3d-origin="0.5 : 0.33333333 : 1"
       id="perspective2871" />
    <inkscape:perspective
       sodipodi:type="inkscape:persp3d"
       inkscape:vp_x="0 : 0.5 : 1"
       inkscape:vp_y="0 : 1000 : 0"
       inkscape:vp_z="1 : 0.5 : 1"
       inkscape:persp3d-origin="0.5 : 0.33333333 : 1"
       id="perspective6052" />
    <inkscape:perspective
       sodipodi:type="inkscape:persp3d"
       inkscape:vp_x="0 : 0.5 : 1"
       inkscape:vp_y="0 : 1000 : 0"
       inkscape:vp_z="1 : 0.5 : 1"
       inkscape:persp3d-origin="0.5 : 0.33333333 : 1"
       id="perspective6028" />
    <inkscape:perspective
       sodipodi:type="inkscape:persp3d"
       inkscape:vp_x="0 : 526.18109 : 1"
       inkscape:vp_y="0 : 1000 : 0"
       inkscape:vp_z="744.09448 : 526.18109 : 1"
       inkscape:persp3d-origin="372.04724 : 350.78739 : 1"
       id="perspective2398" />
    <inkscape:perspective
       id="perspective2389"
       inkscape:persp3d-origin="500 : 333.33333 : 1"
       inkscape:vp_z="1000 : 500 : 1"
       inkscape:vp_y="0 : 1000 : 0"
       inkscape:vp_x="0 : 500 : 1"
       sodipodi:type="inkscape:persp3d" />
  </defs>
  <g
     id="layer1" />
  <path
     sodipodi:nodetypes="cssssccsss"
     id="path2816"
     d="M 119.9195,676.5141 C 91.934549,693.11697 41.969736,706.71932 0.086,709.3986 -38.231371,711.84974 -23.407518,799.85643 0,800 c 61.861172,0.37942 109.2224,-50.7753 163.3808,-48.1324 39.3294,1.9193 65.2678,22.4841 123.9317,50.5334 11.8782,5.6794 14.0072,-2.3341 15.6874,-8.0313 5.8354,-29.5188 9.7034,-62.8466 8.8963,-82.9495 2.8383,-9.6237 -4.8821,-20.4224 -12.375,-24.7187 -39.2396,-22.4991 -63.19782,-18.60642 -98.3006,-35.236 -48.9174,-23.17412 -48.38325,5.51915 -81.3011,25.0486 z"
     style="fill:#ff0000;fill-opacity:0.60784314;fill-rule:evenodd;stroke:#000000;stroke-width:0;stroke-linecap:butt;stroke-linejoin:miter;stroke-miterlimit:4;stroke-opacity:1;stroke-dasharray:none" />
  <path
     style="fill:#ff0000;fill-opacity:0.60784314;fill-rule:evenodd;stroke:#000000;stroke-width:0;stroke-linecap:butt;stroke-linejoin:miter;stroke-miterlimit:4;stroke-opacity:1;stroke-dasharray:none"
     d="m 322.7183,475.0777 c -33.2727,-11.24723 -31.2526,-75.6961 -73.6124,-73.8848 -59.2794,2.5347 -122.8124,57.8409 -144.7997,121.214 -17.5142,56.1931 -9.025526,109.60871 15.6133,154.1072 26.67076,48.16822 153.21346,13.90653 81.3011,-25.0486 -41.52284,-22.49304 -71.2101,-90.6115 -71.4395,-116.1681 -0.035,-3.9089 1.0068,-9.2226 3.7891,-12.3535 12.9028,-17.02924 54.65588,-47.50059 93.2594,-43.5629 34.40403,3.50934 42.33216,72.99134 80.7015,79.8851 23.49165,4.22071 30.43238,-79.03504 15.1872,-84.1884 z"
     id="path2818"
     sodipodi:nodetypes="cscssscsss" />
  <g
     id="layer1-8"
     transform="translate(-870.16936,-49.34123)" />
  <path
     style="fill:#ff0000;fill-opacity:0.60784314;fill-rule:evenodd;stroke:#000000;stroke-width:0;stroke-linecap:butt;stroke-linejoin:miter;stroke-miterlimit:4;stroke-opacity:1;stroke-dasharray:none"
     d="m 385.20492,106.23783 c -7.23082,14.45354 -15.09645,28.69548 -21.38644,43.46263 -2.97563,6.98594 -3.08526,15.80232 -0.15124,24.71588 3.40845,10.35489 14.59399,34.32695 18.80106,56.09976 13.598,84.1395 26.7531,150.839 31.9991,197.5986 -5.0349,34.1704 -65.04513,55.88737 -91.7491,46.963 -37.0009,-12.36557 -45.8722,78.70181 -15.1872,84.1884 97.37498,17.411 131.4477,-57.3329 142.1777,-143.4687 3.9076,-31.369 -7.18545,-115.40957 -18.55766,-179.79436 -0.55171,-3.12353 13.65522,-23.89172 20.70856,-33.98198 4.42267,-6.32693 6.05686,-15.88432 0.50972,-21.20401 -16.05775,-15.39934 -44.04907,-50.78889 -53.12652,-75.42141 -2.78591,-7.559845 -10.54185,-6.14615 -14.03798,0.84219 z"
     id="path3620"
     sodipodi:nodetypes="cssccssssssss" />
</svg>
