<?xml version="1.0" encoding="UTF-8" standalone="no"?>
<!-- Created with Inkscape (http://www.inkscape.org/) -->

<svg
   xmlns:dc="http://purl.org/dc/elements/1.1/"
   xmlns:cc="http://creativecommons.org/ns#"
   xmlns:rdf="http://www.w3.org/1999/02/22-rdf-syntax-ns#"
   xmlns:svg="http://www.w3.org/2000/svg"
   xmlns="http://www.w3.org/2000/svg"
   xmlns:sodipodi="http://sodipodi.sourceforge.net/DTD/sodipodi-0.dtd"
   xmlns:inkscape="http://www.inkscape.org/namespaces/inkscape"
   version="1.0"
   width="1000"
   height="1000"
   id="svg5496"
   sodipodi:version="0.32"
   inkscape:version="0.47pre4 r22446"
   sodipodi:docname="lam+meem.fina.svg"
   inkscape:output_extension="org.inkscape.output.svg.inkscape">
  <metadata
     id="metadata5594">
    <rdf:RDF>
      <cc:Work
         rdf:about="">
        <dc:format>image/svg+xml</dc:format>
        <dc:type
           rdf:resource="http://purl.org/dc/dcmitype/StillImage" />
      </cc:Work>
    </rdf:RDF>
  </metadata>
  <sodipodi:namedview
     inkscape:pageshadow="2"
     inkscape:pageopacity="0.0"
     guidetolerance="10.0"
     gridtolerance="10.0"
     objecttolerance="10.0"
     borderopacity="1.0"
     bordercolor="#666666"
     pagecolor="#ffffff"
     id="base"
     showgrid="false"
     showguides="true"
     inkscape:guide-bbox="true"
     inkscape:zoom="0.454"
     inkscape:cx="180.27147"
     inkscape:cy="227.35096"
     inkscape:window-x="0"
     inkscape:window-y="0"
     inkscape:current-layer="svg5496"
     inkscape:window-width="1278"
     inkscape:window-height="767"
     inkscape:window-maximized="1">
    <sodipodi:guide
       orientation="horizontal"
       position="200"
       id="guide5596" />
  </sodipodi:namedview>
  <defs
     id="defs5498">
    <inkscape:perspective
       sodipodi:type="inkscape:persp3d"
       inkscape:vp_x="0 : 500 : 1"
       inkscape:vp_y="0 : 1000 : 0"
       inkscape:vp_z="1000 : 500 : 1"
       inkscape:persp3d-origin="500 : 333.33333 : 1"
       id="perspective3401" />
    <inkscape:perspective
       sodipodi:type="inkscape:persp3d"
       inkscape:vp_x="0 : 526.18109 : 1"
       inkscape:vp_y="0 : 1000 : 0"
       inkscape:vp_z="744.09448 : 526.18109 : 1"
       inkscape:persp3d-origin="372.04724 : 350.78739 : 1"
       id="perspective2504" />
    <inkscape:perspective
       id="perspective2389"
       inkscape:persp3d-origin="500 : 333.33333 : 1"
       inkscape:vp_z="1000 : 500 : 1"
       inkscape:vp_y="0 : 1000 : 0"
       inkscape:vp_x="0 : 500 : 1"
       sodipodi:type="inkscape:persp3d" />
    <inkscape:perspective
       id="perspective4121"
       inkscape:persp3d-origin="0.5 : 0.33333333 : 1"
       inkscape:vp_z="1 : 0.5 : 1"
       inkscape:vp_y="0 : 1000 : 0"
       inkscape:vp_x="0 : 0.5 : 1"
       sodipodi:type="inkscape:persp3d" />
    <inkscape:perspective
       id="perspective3707"
       inkscape:persp3d-origin="0.5 : 0.33333333 : 1"
       inkscape:vp_z="1 : 0.5 : 1"
       inkscape:vp_y="0 : 1000 : 0"
       inkscape:vp_x="0 : 0.5 : 1"
       sodipodi:type="inkscape:persp3d" />
  </defs>
  <path
     sodipodi:nodetypes="cssscccccssc"
     id="path2844"
     d="M 256.3038,560.5171 C 275.6946,699.3314 323.73511,787.46715 383.0867,800 c 18.96137,4.00393 44.30578,-54.1871 0.1002,-90.0285 C 325.87997,663.50767 302.5033,592.7298 294.9498,533.5277 274.3536,372.1002 263.16,232.3648 247.8959,76.433595 c -1.4354,-18.977 -9.1166,-23.2046 -16.9606,-13.4159 L 206.3485,110.0582 c -3.0019,6.40109 -6.6214,10.1859 -5.8408,22.45119 27.0294,264.06501 26.4019,330.74351 29.579,398.53571 2.045,87.0926 -19.94654,171.69896 -110.4718,204.5307 -35.754397,12.96742 43.37263,45.01961 70.9818,14.22 38.7886,-43.27091 59.6069,-92.0069 65.7071,-189.2787 z"
     style="fill:#ff0000;fill-opacity:0.60784314;fill-rule:evenodd;stroke:#000000;stroke-width:0;stroke-linecap:butt;stroke-linejoin:miter;stroke-miterlimit:4;stroke-opacity:1;stroke-dasharray:none" />
  <g
     id="layer1" />
  <g
     id="g3403"
     transform="translate(330.39648,-667.40088)" />
  <g
     id="g3405"
     transform="matrix(0.5,0,0,0.5,67.180554,807.26875)" />
  <path
     style="fill:#ff0000;fill-opacity:0.60784314;fill-rule:evenodd;stroke:#000000;stroke-width:0;stroke-linecap:butt;stroke-linejoin:miter;stroke-miterlimit:4;stroke-opacity:1;stroke-dasharray:none"
     d="m 119.6149,735.5758 c -10.63644,4.07699 -35.225706,13.7599 -34.935006,36.1409 l 0.7241,55.7432 c 7.2577,4.0403 13.081102,6.4366 21.117006,11.6755 -75.827806,19.524 -102.3225064,66.0672 -119.373402,137.794 -26.5117,111.5252 49.182896,308.4232 69.005596,463.4293 3.6657,41.2938 30.3117,42.3386 30.824,-10.7381 0.9758,-101.0893 -29.1868,-193.4362 -47.6692,-280.8755 -15.2059,-71.9387 -22.9137,-151.3127 -17.7412,-171.3807 57.6776,-68.9945 156.262706,-68.5706 242.725506,-64.8531 11.9974,0.5158 23.9146,2.554 26.9746,-9.5306 3.9817,-14.2486 18.0199,-66.1883 18.0199,-66.1883 2.8216,-14.6763 -5.7395,-17.7581 -12.2803,-22.4456 -33.7063,-24.156 -49.44011,-34.50057 -106.4098,-64.551 -27.97743,-14.75757 -52.05787,-21.47361 -70.9818,-14.22 z"
     id="path2572-1-3"
     sodipodi:nodetypes="csccscsscsccsss" />
</svg>
