<?xml version="1.0" encoding="UTF-8" standalone="no"?>
<!-- Created with Inkscape (http://www.inkscape.org/) -->

<svg
   xmlns:dc="http://purl.org/dc/elements/1.1/"
   xmlns:cc="http://creativecommons.org/ns#"
   xmlns:rdf="http://www.w3.org/1999/02/22-rdf-syntax-ns#"
   xmlns:svg="http://www.w3.org/2000/svg"
   xmlns="http://www.w3.org/2000/svg"
   xmlns:sodipodi="http://sodipodi.sourceforge.net/DTD/sodipodi-0.dtd"
   xmlns:inkscape="http://www.inkscape.org/namespaces/inkscape"
   version="1.0"
   width="1000"
   height="1000"
   id="svg5496"
   sodipodi:version="0.32"
   inkscape:version="0.47pre4 r22446"
   sodipodi:docname="lam+dal.isol.svg"
   inkscape:output_extension="org.inkscape.output.svg.inkscape">
  <metadata
     id="metadata5594">
    <rdf:RDF>
      <cc:Work
         rdf:about="">
        <dc:format>image/svg+xml</dc:format>
        <dc:type
           rdf:resource="http://purl.org/dc/dcmitype/StillImage" />
      </cc:Work>
    </rdf:RDF>
  </metadata>
  <sodipodi:namedview
     inkscape:pageshadow="2"
     inkscape:pageopacity="0.0"
     guidetolerance="10.0"
     gridtolerance="10.0"
     objecttolerance="10.0"
     borderopacity="1.0"
     bordercolor="#666666"
     pagecolor="#ffffff"
     id="base"
     showgrid="false"
     showguides="true"
     inkscape:guide-bbox="true"
     inkscape:zoom="0.34661908"
     inkscape:cx="452.69854"
     inkscape:cy="278.6416"
     inkscape:window-x="0"
     inkscape:window-y="0"
     inkscape:current-layer="svg5496"
     inkscape:window-width="1278"
     inkscape:window-height="767"
     inkscape:window-maximized="1">
    <sodipodi:guide
       orientation="horizontal"
       position="200"
       id="guide5596" />
  </sodipodi:namedview>
  <defs
     id="defs5498">
    <inkscape:perspective
       sodipodi:type="inkscape:persp3d"
       inkscape:vp_x="0 : 500 : 1"
       inkscape:vp_y="0 : 1000 : 0"
       inkscape:vp_z="1000 : 500 : 1"
       inkscape:persp3d-origin="500 : 333.33333 : 1"
       id="perspective8" />
    <inkscape:perspective
       sodipodi:type="inkscape:persp3d"
       inkscape:vp_x="0 : 526.18109 : 1"
       inkscape:vp_y="0 : 1000 : 0"
       inkscape:vp_z="744.09448 : 526.18109 : 1"
       inkscape:persp3d-origin="372.04724 : 350.78739 : 1"
       id="perspective2524" />
    <inkscape:perspective
       id="perspective2389"
       inkscape:persp3d-origin="500 : 333.33333 : 1"
       inkscape:vp_z="1000 : 500 : 1"
       inkscape:vp_y="0 : 1000 : 0"
       inkscape:vp_x="0 : 500 : 1"
       sodipodi:type="inkscape:persp3d" />
    <inkscape:perspective
       id="perspective2583"
       inkscape:persp3d-origin="372.04724 : 350.78739 : 1"
       inkscape:vp_z="744.09448 : 526.18109 : 1"
       inkscape:vp_y="0 : 1000 : 0"
       inkscape:vp_x="0 : 526.18109 : 1"
       sodipodi:type="inkscape:persp3d" />
    <inkscape:perspective
       id="perspective4404"
       inkscape:persp3d-origin="0.5 : 0.33333333 : 1"
       inkscape:vp_z="1 : 0.5 : 1"
       inkscape:vp_y="0 : 1000 : 0"
       inkscape:vp_x="0 : 0.5 : 1"
       sodipodi:type="inkscape:persp3d" />
    <inkscape:perspective
       id="perspective3786"
       inkscape:persp3d-origin="0.5 : 0.33333333 : 1"
       inkscape:vp_z="1 : 0.5 : 1"
       inkscape:vp_y="0 : 1000 : 0"
       inkscape:vp_x="0 : 0.5 : 1"
       sodipodi:type="inkscape:persp3d" />
    <inkscape:perspective
       id="perspective2841"
       inkscape:persp3d-origin="0.5 : 0.33333333 : 1"
       inkscape:vp_z="1 : 0.5 : 1"
       inkscape:vp_y="0 : 1000 : 0"
       inkscape:vp_x="0 : 0.5 : 1"
       sodipodi:type="inkscape:persp3d" />
  </defs>
  <path
     style="fill:#ff0000;fill-opacity:0.60784314;fill-rule:evenodd;stroke:#000000;stroke-width:0;stroke-linecap:butt;stroke-linejoin:miter;stroke-miterlimit:4;stroke-opacity:1;stroke-dasharray:none"
     d="m 389.4934,25.359523 c -9.35419,20.582542 -14.7974,32.613307 -18.72449,43.290424 -6.49487,17.658494 8.72105,51.514143 13.45906,76.632443 17.80065,94.36909 61.888,293.8817 81.625,430.875 1.721,13.305 14.872,103.5268 -2.781,109.0937 -8.93,1.6221 -44.10689,9.02636 -69.781,-11.7812 -71.68949,-58.10069 -55.7191,73.44919 -23.375,106.53124 20.60543,21.07556 84.09964,34.82476 108.625,-16.1562 13.88064,-28.85374 21.526,-60.65714 23.875,-92.68754 1.186,-0.3387 6.961,-100.392 -2.531,-166.2813 -17.87,-124.0353 -56.937,-304.8829 -65.844,-358.0312 7.55683,-12.62772 14.42597,-25.64725 19.36854,-33.3426 6.11243,-9.51677 2.33894,-16.048239 -4.5123,-22.529005 -17.61026,-16.657994 -33.88537,-35.693578 -43.17246,-64.69747 -2.69001,-8.401 -11.40236,-11.541776 -16.23135,-0.916292 z"
     id="path2865"
     sodipodi:nodetypes="cssccssscccssss" />
  <g
     id="layer1"
     transform="translate(-204.84581,-24.229075)" />
  <path
     sodipodi:nodetypes="cccsscccccscsc"
     id="path2863"
     d="m 393.29097,673.46989 c -74.32844,-53.06703 -99.76861,-252.27411 -130.688,-358.9688 -2.185,-9.4142 -6.915,-12.3036 -10.125,-6.625 0,0 -13.49898,23.89645 -20.25,35.8438 -2.88798,5.11088 -3.25381,23.12436 -1.625,30.4375 14.56286,65.38539 43.688,196.1563 43.688,196.1563 -2.722,34.7876 -41.435,74.0531 -128.5,86.4374 -43.063,6.1256 -87.643002,2.2592 -111.375002,-41.25 -5.704,-10.6017 -13.741,-8.6685 -17.5,1.5626 -25.945,70.6213 -22.6080002,132.12924 27.625,143.28124 51.185,11.3631 151.193402,-13.6901 192.375002,-43.625 17.1606,-12.47404 39.46,-51.89174 52.156,-91.50004 18.59618,57.38031 48.85254,125.23698 80.844,154.78124 21.63089,19.97623 62.19009,-80.08294 23.375,-106.53124 z"
     style="fill:#ff0000;fill-opacity:0.60784314;fill-rule:evenodd;stroke:#000000;stroke-width:0;stroke-linecap:butt;stroke-linejoin:miter;stroke-miterlimit:4;stroke-opacity:1;stroke-dasharray:none" />
</svg>
