<?xml version="1.0" encoding="UTF-8" standalone="no"?>
<!-- Created with Inkscape (http://www.inkscape.org/) -->

<svg
   xmlns:dc="http://purl.org/dc/elements/1.1/"
   xmlns:cc="http://creativecommons.org/ns#"
   xmlns:rdf="http://www.w3.org/1999/02/22-rdf-syntax-ns#"
   xmlns:svg="http://www.w3.org/2000/svg"
   xmlns="http://www.w3.org/2000/svg"
   xmlns:sodipodi="http://sodipodi.sourceforge.net/DTD/sodipodi-0.dtd"
   xmlns:inkscape="http://www.inkscape.org/namespaces/inkscape"
   version="1.0"
   width="1000"
   height="1000"
   id="svg5496"
   sodipodi:version="0.32"
   inkscape:version="0.47pre4 r22446"
   sodipodi:docname="lam+meem.medi.svg"
   inkscape:output_extension="org.inkscape.output.svg.inkscape">
  <metadata
     id="metadata5594">
    <rdf:RDF>
      <cc:Work
         rdf:about="">
        <dc:format>image/svg+xml</dc:format>
        <dc:type
           rdf:resource="http://purl.org/dc/dcmitype/StillImage" />
      </cc:Work>
    </rdf:RDF>
  </metadata>
  <sodipodi:namedview
     inkscape:pageshadow="2"
     inkscape:pageopacity="0.0"
     guidetolerance="10.0"
     gridtolerance="10.0"
     objecttolerance="10.0"
     borderopacity="1.0"
     bordercolor="#666666"
     pagecolor="#ffffff"
     id="base"
     showgrid="false"
     showguides="true"
     inkscape:guide-bbox="true"
     inkscape:zoom="0.454"
     inkscape:cx="484.58627"
     inkscape:cy="353.00015"
     inkscape:window-x="0"
     inkscape:window-y="0"
     inkscape:current-layer="svg5496"
     inkscape:window-width="1278"
     inkscape:window-height="767"
     inkscape:window-maximized="1">
    <sodipodi:guide
       orientation="horizontal"
       position="200"
       id="guide5596" />
  </sodipodi:namedview>
  <defs
     id="defs5498">
    <inkscape:perspective
       sodipodi:type="inkscape:persp3d"
       inkscape:vp_x="0 : 500 : 1"
       inkscape:vp_y="0 : 1000 : 0"
       inkscape:vp_z="1000 : 500 : 1"
       inkscape:persp3d-origin="500 : 333.33333 : 1"
       id="perspective2389" />
    <inkscape:perspective
       id="perspective2504"
       inkscape:persp3d-origin="372.04724 : 350.78739 : 1"
       inkscape:vp_z="744.09448 : 526.18109 : 1"
       inkscape:vp_y="0 : 1000 : 0"
       inkscape:vp_x="0 : 526.18109 : 1"
       sodipodi:type="inkscape:persp3d" />
    <inkscape:perspective
       id="perspective4011"
       inkscape:persp3d-origin="0.5 : 0.33333333 : 1"
       inkscape:vp_z="1 : 0.5 : 1"
       inkscape:vp_y="0 : 1000 : 0"
       inkscape:vp_x="0 : 0.5 : 1"
       sodipodi:type="inkscape:persp3d" />
  </defs>
  <path
     style="fill:#ff0000;fill-opacity:0.60784314;fill-rule:evenodd;stroke:#000000;stroke-width:0;stroke-linecap:butt;stroke-linejoin:miter;stroke-miterlimit:4;stroke-opacity:1;stroke-dasharray:none"
     d="m 215.71589,667.0288 c -35.21754,-12.97797 -38.9554,-53.2811 -64.99529,-50.7648 -16.0098,1.5471 -29.151,24.5755 -37.6894,32.9006 C 83.2951,678.1587 26.894268,704.82318 0.3353,709.2766 -24.51188,713.44299 -24.741074,806.17114 0,800 c 61.088761,-15.23731 106.7455,-90.8118 128.3044,-90.5956 16.7684,0.1682 13.8749,19.4532 18.1671,37.9449 12.0419,51.8792 66.14479,118.385 131.02769,128.0067 16.7893,2.4897 19.4946,1.5968 23.8869,-15.3232 7.6024,-29.2856 3.36584,-88.25628 -9.9148,-112.8135 -17.81941,-32.94986 -50.99368,-71.06559 -75.7554,-80.1905 z"
     id="path2817"
     sodipodi:nodetypes="cssssssssss" />
  <g
     id="layer1"
     transform="translate(-300,100)" />
  <g
     transform="translate(-300,100)"
     id="g2816" />
  <path
     sodipodi:nodetypes="czscsscsssss"
     id="path2819"
     d="m 344.31039,116.7862 -26.1826,51.6832 c -7.23976,14.29094 -3.48404,26.988 -2.1818,39.9557 14.37516,143.1479 52.54171,391.9239 41.3194,418.7736 -16.90039,36.772 -85.61895,50.39358 -141.5495,39.8301 -73.3092,-13.84574 -4.48247,102.3935 75.7554,80.1905 42.9776,-11.89253 75.2926,-51.6896 81.4936,-93.4702 9.3103,60.1304 40.04999,126.70095 97.23211,144.6858 15.81149,4.97301 22.13347,-71.66454 -0.52171,-92.5414 -29.35888,-27.05435 -35.6675,-50.9838 -45.7263,-82.6387 -25.00159,-78.6796 -41.23571,-330.6502 -64.9109,-503.1959 -1.1467,-8.3572 -10.21911,-12.17244 -14.7277,-3.2727 z"
     style="fill:#ff0000;fill-opacity:0.60784314;fill-rule:evenodd;stroke:#000000;stroke-width:0;stroke-linecap:butt;stroke-linejoin:miter;stroke-miterlimit:4;stroke-opacity:1;stroke-dasharray:none" />
</svg>
