<?xml version="1.0" encoding="UTF-8" standalone="no"?>
<!-- Created with Inkscape (http://www.inkscape.org/) -->

<svg
   xmlns:dc="http://purl.org/dc/elements/1.1/"
   xmlns:cc="http://creativecommons.org/ns#"
   xmlns:rdf="http://www.w3.org/1999/02/22-rdf-syntax-ns#"
   xmlns:svg="http://www.w3.org/2000/svg"
   xmlns="http://www.w3.org/2000/svg"
   xmlns:sodipodi="http://sodipodi.sourceforge.net/DTD/sodipodi-0.dtd"
   xmlns:inkscape="http://www.inkscape.org/namespaces/inkscape"
   version="1.0"
   width="1000"
   height="1000"
   id="svg5496"
   sodipodi:version="0.32"
   inkscape:version="0.47pre4 r22446"
   sodipodi:docname="lam+yaa.isol.svg"
   inkscape:output_extension="org.inkscape.output.svg.inkscape">
  <metadata
     id="metadata5594">
    <rdf:RDF>
      <cc:Work
         rdf:about="">
        <dc:format>image/svg+xml</dc:format>
        <dc:type
           rdf:resource="http://purl.org/dc/dcmitype/StillImage" />
      </cc:Work>
    </rdf:RDF>
  </metadata>
  <sodipodi:namedview
     inkscape:pageshadow="2"
     inkscape:pageopacity="0.0"
     guidetolerance="10.0"
     gridtolerance="10.0"
     objecttolerance="10.0"
     borderopacity="1.0"
     bordercolor="#666666"
     pagecolor="#ffffff"
     id="base"
     showgrid="false"
     showguides="true"
     inkscape:guide-bbox="true"
     inkscape:zoom="0.36568214"
     inkscape:cx="422.4544"
     inkscape:cy="830.91205"
     inkscape:window-x="0"
     inkscape:window-y="0"
     inkscape:current-layer="svg5496"
     inkscape:window-width="1278"
     inkscape:window-height="767"
     inkscape:window-maximized="1">
    <sodipodi:guide
       orientation="horizontal"
       position="200"
       id="guide5596" />
  </sodipodi:namedview>
  <defs
     id="defs5498">
    <inkscape:perspective
       sodipodi:type="inkscape:persp3d"
       inkscape:vp_x="0 : 500 : 1"
       inkscape:vp_y="0 : 1000 : 0"
       inkscape:vp_z="1000 : 500 : 1"
       inkscape:persp3d-origin="500 : 333.33333 : 1"
       id="perspective2389" />
    <inkscape:perspective
       id="perspective2487"
       inkscape:persp3d-origin="372.04724 : 350.78739 : 1"
       inkscape:vp_z="744.09448 : 526.18109 : 1"
       inkscape:vp_y="0 : 1000 : 0"
       inkscape:vp_x="0 : 526.18109 : 1"
       sodipodi:type="inkscape:persp3d" />
    <inkscape:perspective
       id="perspective4693"
       inkscape:persp3d-origin="0.5 : 0.33333333 : 1"
       inkscape:vp_z="1 : 0.5 : 1"
       inkscape:vp_y="0 : 1000 : 0"
       inkscape:vp_x="0 : 0.5 : 1"
       sodipodi:type="inkscape:persp3d" />
    <inkscape:perspective
       id="perspective4715"
       inkscape:persp3d-origin="0.5 : 0.33333333 : 1"
       inkscape:vp_z="1 : 0.5 : 1"
       inkscape:vp_y="0 : 1000 : 0"
       inkscape:vp_x="0 : 0.5 : 1"
       sodipodi:type="inkscape:persp3d" />
    <inkscape:perspective
       id="perspective2834"
       inkscape:persp3d-origin="0.5 : 0.33333333 : 1"
       inkscape:vp_z="1 : 0.5 : 1"
       inkscape:vp_y="0 : 1000 : 0"
       inkscape:vp_x="0 : 0.5 : 1"
       sodipodi:type="inkscape:persp3d" />
    <inkscape:perspective
       id="perspective2851"
       inkscape:persp3d-origin="0.5 : 0.33333333 : 1"
       inkscape:vp_z="1 : 0.5 : 1"
       inkscape:vp_y="0 : 1000 : 0"
       inkscape:vp_x="0 : 0.5 : 1"
       sodipodi:type="inkscape:persp3d" />
    <inkscape:perspective
       id="perspective2827"
       inkscape:persp3d-origin="0.5 : 0.33333333 : 1"
       inkscape:vp_z="1 : 0.5 : 1"
       inkscape:vp_y="0 : 1000 : 0"
       inkscape:vp_x="0 : 0.5 : 1"
       sodipodi:type="inkscape:persp3d" />
  </defs>
  <path
     sodipodi:nodetypes="csscsssscssccssss"
     id="path2829"
     d="m 397.90135,95.235619 c -7.51692,15.925901 -14.31668,30.753271 -19.97992,42.632151 -2.90037,6.08364 -3.415,11.67829 -1.87515,18.69242 3.15877,14.38848 13.43925,56.59406 13.43925,56.59406 19.487,119.3485 44.406,246.9317 63.893,366.2802 2.745,16.8177 7.15,32.491 6.616,50.3702 -0.123,4.0835 -2.759,11.8998 -11.736,17.0206 -15.444,8.8098 -41.239,14.5249 -65.7,28.2037 -14.22,7.952 -24.872,30.1539 -21.314,54.0848 51.39154,2.54946 105.19878,-14.82931 110.457,-44.8619 1.77573,-10.14215 9.64668,-45.7541 11.937,-83.9686 2.64242,-44.08936 -2.939,-88.3105 -2.082,-92.8994 -5.704,-59.8583 -42.301,-227.84839 -49.025,-278.98469 4.52731,-7.9671 18.93637,-24.28327 26.45318,-35.84183 5.66611,-8.71275 4.76701,-14.90133 -2.51832,-22.15068 -20.80401,-20.70127 -34.61126,-45.72736 -43.15436,-74.211763 -3.01962,-10.068017 -12.20459,-7.751925 -15.41068,-0.959268 z"
     style="fill:#ff0000;fill-opacity:0.60784314;fill-rule:evenodd;stroke:#000000;stroke-width:0;stroke-linecap:butt;stroke-linejoin:miter;stroke-opacity:1" />
  <path
     sodipodi:nodetypes="ccssssssssszsssss"
     id="path2835"
     d="m 382.55853,675.02895 c -13.90698,7.46707 -24.872,30.1539 -21.314,54.0848 73.083,6.6763 139.93812,21.9437 187.727,37.8222 10.50737,3.49121 15.75811,11.97042 6.378,19.8419 -84.8663,71.21703 -242.853,116.34823 -323.781,119.2995 C 120.66153,910.12188 39.012859,825.5112 41.659528,746.01655 43.198676,698.51573 81.884677,617.15571 91.226005,599.43173 98.730644,585.19263 81.153608,572.58328 71.980454,587.91279 62.74107,603.35297 22.194471,688.65474 7.765528,759.94905 c -9.3860565,46.37709 -7.1379997,81.1781 3.682,116.8003 21.348,70.2849 82.933,112.35331 161.304002,120.30821 62.757,6.37004 104.576,0.5478 174.963,-20.8859 70.386,-21.4338 145.552,-55.67701 202.789,-122.31891 18.76,-21.8418 42.266,-60.9313 43.745,-82.1353 1.338,-19.1397 -4.3,-35.6558 -12.97,-47.6001 -17.366,-23.9238 -90.10169,-35.98216 -109.577,-39.8655 -25.89054,-5.16252 -81.84486,-13.14149 -89.143,-9.2229 z"
     style="fill:#ff0000;fill-opacity:0.60784314;fill-rule:evenodd;stroke:#000000;stroke-width:0;stroke-linecap:butt;stroke-linejoin:miter;stroke-opacity:1" />
  <g
     id="layer1"
     transform="translate(-180,0)" />
</svg>
