<?xml version="1.0" encoding="UTF-8" standalone="no"?>
<!-- Created with Inkscape (http://www.inkscape.org/) -->

<svg
   xmlns:dc="http://purl.org/dc/elements/1.1/"
   xmlns:cc="http://creativecommons.org/ns#"
   xmlns:rdf="http://www.w3.org/1999/02/22-rdf-syntax-ns#"
   xmlns:svg="http://www.w3.org/2000/svg"
   xmlns="http://www.w3.org/2000/svg"
   xmlns:sodipodi="http://sodipodi.sourceforge.net/DTD/sodipodi-0.dtd"
   xmlns:inkscape="http://www.inkscape.org/namespaces/inkscape"
   version="1.0"
   width="1000"
   height="1000"
   id="svg5496"
   sodipodi:version="0.32"
   inkscape:version="0.47pre4 r22446"
   sodipodi:docname="meem+raa.isol.svg"
   inkscape:output_extension="org.inkscape.output.svg.inkscape">
  <metadata
     id="metadata5594">
    <rdf:RDF>
      <cc:Work
         rdf:about="">
        <dc:format>image/svg+xml</dc:format>
        <dc:type
           rdf:resource="http://purl.org/dc/dcmitype/StillImage" />
        <dc:title />
      </cc:Work>
    </rdf:RDF>
  </metadata>
  <sodipodi:namedview
     inkscape:window-height="767"
     inkscape:pageshadow="2"
     inkscape:pageopacity="0.0"
     borderopacity="1.0"
     bordercolor="#666666"
     pagecolor="#ffffff"
     id="base"
     showgrid="false"
     showguides="true"
     inkscape:guide-bbox="true"
     inkscape:zoom="0.54424113"
     inkscape:cx="547.87252"
     inkscape:cy="463.18915"
     inkscape:window-x="0"
     inkscape:window-y="0"
     inkscape:current-layer="svg5496"
     inkscape:window-width="1278"
     inkscape:window-maximized="1">
    <sodipodi:guide
       orientation="horizontal"
       position="200"
       id="guide5596" />
  </sodipodi:namedview>
  <defs
     id="defs5498">
    <inkscape:perspective
       sodipodi:type="inkscape:persp3d"
       inkscape:vp_x="0 : 500 : 1"
       inkscape:vp_y="0 : 1000 : 0"
       inkscape:vp_z="1000 : 500 : 1"
       inkscape:persp3d-origin="500 : 333.33333 : 1"
       id="perspective8" />
    <inkscape:perspective
       id="perspective2836"
       inkscape:persp3d-origin="0.5 : 0.33333333 : 1"
       inkscape:vp_z="1 : 0.5 : 1"
       inkscape:vp_y="0 : 1000 : 0"
       inkscape:vp_x="0 : 0.5 : 1"
       sodipodi:type="inkscape:persp3d" />
    <inkscape:perspective
       id="perspective4574"
       inkscape:persp3d-origin="0.5 : 0.33333333 : 1"
       inkscape:vp_z="1 : 0.5 : 1"
       inkscape:vp_y="0 : 1000 : 0"
       inkscape:vp_x="0 : 0.5 : 1"
       sodipodi:type="inkscape:persp3d" />
    <inkscape:perspective
       id="perspective2835"
       inkscape:persp3d-origin="0.5 : 0.33333333 : 1"
       inkscape:vp_z="1 : 0.5 : 1"
       inkscape:vp_y="0 : 1000 : 0"
       inkscape:vp_x="0 : 0.5 : 1"
       sodipodi:type="inkscape:persp3d" />
  </defs>
  <path
     style="color:#000000;fill:#ff0000;fill-opacity:0.60784314;stroke:#000000;stroke-width:0;stroke-linecap:butt;stroke-linejoin:miter;stroke-miterlimit:4;stroke-opacity:1;stroke-dasharray:none;stroke-dashoffset:0;marker:none;visibility:visible;display:inline;overflow:visible;enable-background:accumulate"
     d="m 461.98585,667.11003 c -46.14813,-21.00119 -0.66171,-99.32228 -0.66171,-99.32228 18.78522,-9.91384 99.12966,-43.5329 145.65125,-59.92307 4.7615,-1.67754 3.67857,-4.72951 -1.90823,-6.91551 l -19.8095,-7.7516 c -12.5099,-4.8952 -15.9114,-9.725 -12.9492,-21.4094 8.4824,-33.4583 13.3957,-62.3217 33.4226,-92.323 5.6448,-8.4562 12.7925,-14.1184 22.8174,-14.4884 26.0004,-0.9596 87.3975,15.0226 116.1228,30.1412 33.8204,19.9956 39.6046,62.4358 35.131,98.0796 -4.9632,25.6859 -22.7681,51.9404 -54.351,68.1447 -66.69969,34.22175 -177.94152,65.30436 -263.46541,105.76776 z"
     id="path2842-2-6"
     sodipodi:nodetypes="ccssssssccsc" />
  <g
     id="layer1"
     transform="translate(85.662716,0)" />
  <path
     sodipodi:nodetypes="cssssssssscss"
     id="path2825"
     d="m 461.89143,567.84087 c 27.94134,-14.32304 23.56391,88.4867 0.66171,99.32228 -22.9022,10.83558 -43.96015,22.34386 -61.82469,34.76524 -49.15009,34.17451 -108.7082,104.4512 -145.2299,157.7917 -51.8915,75.7881 -89.06,152.13631 -167.793199,135.9259 -55.564803,-11.4402 -93.2774076,-58.7495 -85.6184076,-141.0085 4.4723,-48.0337 23.7624046,-106.3353 62.6365046,-179.1349 8.3152,-15.5719 24.589303,-8.2129 17.802801,6.948 -12.972001,28.9787 -43.927701,81.0583 -49.055201,126.2677 -4.1252,36.3726 8.9453,80.3867 56.249903,94.2457 62.987999,18.454 96.769999,-18.0272 127.661399,-71.1302 35.1046,-63.8205 108.46268,-171.00493 160.1456,-210.7639 28.39895,-21.84693 56.42214,-38.90598 84.36348,-53.22902 z"
     style="color:#000000;fill:#ff0000;fill-opacity:0.60784314;stroke:#000000;stroke-width:0;stroke-linecap:butt;stroke-linejoin:miter;stroke-miterlimit:4;stroke-opacity:1;stroke-dasharray:none;stroke-dashoffset:0;marker:none;visibility:visible;display:inline;overflow:visible;enable-background:accumulate" />
</svg>
