<?xml version="1.0" encoding="UTF-8" standalone="no"?>
<!-- Created with Inkscape (http://www.inkscape.org/) -->

<svg
   xmlns:dc="http://purl.org/dc/elements/1.1/"
   xmlns:cc="http://creativecommons.org/ns#"
   xmlns:rdf="http://www.w3.org/1999/02/22-rdf-syntax-ns#"
   xmlns:svg="http://www.w3.org/2000/svg"
   xmlns="http://www.w3.org/2000/svg"
   xmlns:sodipodi="http://sodipodi.sourceforge.net/DTD/sodipodi-0.dtd"
   xmlns:inkscape="http://www.inkscape.org/namespaces/inkscape"
   version="1.0"
   width="1000"
   height="1000"
   id="svg5496"
   sodipodi:version="0.32"
   inkscape:version="0.47pre4 r22446"
   sodipodi:docname="meem.medi.svg"
   inkscape:output_extension="org.inkscape.output.svg.inkscape">
  <metadata
     id="metadata5594">
    <rdf:RDF>
      <cc:Work
         rdf:about="">
        <dc:format>image/svg+xml</dc:format>
        <dc:type
           rdf:resource="http://purl.org/dc/dcmitype/StillImage" />
        <dc:title />
      </cc:Work>
    </rdf:RDF>
  </metadata>
  <sodipodi:namedview
     inkscape:window-height="767"
     inkscape:pageshadow="2"
     inkscape:pageopacity="0.0"
     borderopacity="1.0"
     bordercolor="#666666"
     pagecolor="#ffffff"
     id="base"
     showgrid="false"
     showguides="true"
     inkscape:guide-bbox="true"
     inkscape:zoom="1.1185114"
     inkscape:cx="230.71238"
     inkscape:cy="355.35882"
     inkscape:window-x="0"
     inkscape:window-y="0"
     inkscape:current-layer="svg5496"
     inkscape:window-width="1278"
     inkscape:window-maximized="1">
    <sodipodi:guide
       orientation="horizontal"
       position="200"
       id="guide5596" />
  </sodipodi:namedview>
  <defs
     id="defs5498">
    <inkscape:perspective
       sodipodi:type="inkscape:persp3d"
       inkscape:vp_x="0 : 500 : 1"
       inkscape:vp_y="0 : 1000 : 0"
       inkscape:vp_z="1000 : 500 : 1"
       inkscape:persp3d-origin="500 : 333.33333 : 1"
       id="perspective8" />
    <inkscape:perspective
       id="perspective2822"
       inkscape:persp3d-origin="0.5 : 0.33333333 : 1"
       inkscape:vp_z="1 : 0.5 : 1"
       inkscape:vp_y="0 : 1000 : 0"
       inkscape:vp_x="0 : 0.5 : 1"
       sodipodi:type="inkscape:persp3d" />
    <inkscape:perspective
       id="perspective6134"
       inkscape:persp3d-origin="0.5 : 0.33333333 : 1"
       inkscape:vp_z="1 : 0.5 : 1"
       inkscape:vp_y="0 : 1000 : 0"
       inkscape:vp_x="0 : 0.5 : 1"
       sodipodi:type="inkscape:persp3d" />
  </defs>
  <path
     style="color:#000000;fill:#ff0000;fill-opacity:0.60784314;stroke:#000000;stroke-width:0;stroke-linecap:butt;stroke-linejoin:miter;stroke-miterlimit:4;stroke-opacity:1;stroke-dasharray:none;stroke-dashoffset:0;marker:none;visibility:visible;display:inline;overflow:visible;enable-background:accumulate"
     d="M 229.916,557.231 C 143.4205,584.82141 125.37399,674.18997 100.69,687.633 73.675985,702.34497 41.97089,709.36022 -0.361,709.582 -25.138822,709.71181 -20.262989,809.97379 0,800 c 35.992118,-17.71594 70.021,-44.099 100.108,-74.111 4.313,-3.424 3.305,-4.083 7.06,-0.692 35.003,47.151 110.242,99.483 184.376,104.444 26.452,1.771 30.016,-43.134 32.869,-69.809 41.127,30.342 89.69341,48.09061 140.618,53.488 15.9057,1.68581 24.82422,-84.94288 -1.479,-90.543 -52.49018,-11.17549 -95.376,-30.886 -135.466,-62.703 -35.374,-28.142 -66.293,-64.414 -89.155,-100.914 -2.293,-2.307 -5.961,-2.502 -9.015,-1.929 z m -6.328,73.393 c 13.44771,31.35854 28.34021,58.11556 41.321,75.442 2.77479,3.70373 -2.26959,6.97651 -6.466,5.485 -33.05824,-11.74973 -59.10404,-25.99695 -84.297,-48.278 -3.86804,-3.42095 -3.75007,-6.94135 -0.72,-10.953 8.94667,-11.84492 25.83847,-19.80029 43.572,-23.735 3.68347,-0.81729 5.28271,-1.00946 6.59,2.039 z"
     id="path2818"
     sodipodi:nodetypes="csssccccssccccssssss" />
  <g
     id="layer1"
     transform="translate(-191.62996,265.69364)" />
</svg>
