<?xml version="1.0" encoding="UTF-8" standalone="no"?>
<!-- Created with Inkscape (http://www.inkscape.org/) -->

<svg
   xmlns:dc="http://purl.org/dc/elements/1.1/"
   xmlns:cc="http://creativecommons.org/ns#"
   xmlns:rdf="http://www.w3.org/1999/02/22-rdf-syntax-ns#"
   xmlns:svg="http://www.w3.org/2000/svg"
   xmlns="http://www.w3.org/2000/svg"
   xmlns:sodipodi="http://sodipodi.sourceforge.net/DTD/sodipodi-0.dtd"
   xmlns:inkscape="http://www.inkscape.org/namespaces/inkscape"
   version="1.0"
   width="1000"
   height="1000"
   id="svg5496"
   sodipodi:version="0.32"
   inkscape:version="0.47pre4 r22446"
   sodipodi:docname="meem+yaa.isol.svg"
   inkscape:output_extension="org.inkscape.output.svg.inkscape">
  <metadata
     id="metadata5594">
    <rdf:RDF>
      <cc:Work
         rdf:about="">
        <dc:format>image/svg+xml</dc:format>
        <dc:type
           rdf:resource="http://purl.org/dc/dcmitype/StillImage" />
        <dc:title />
      </cc:Work>
    </rdf:RDF>
  </metadata>
  <sodipodi:namedview
     inkscape:window-height="767"
     inkscape:pageshadow="2"
     inkscape:pageopacity="0.0"
     borderopacity="1.0"
     bordercolor="#666666"
     pagecolor="#ffffff"
     id="base"
     showgrid="false"
     showguides="true"
     inkscape:guide-bbox="true"
     inkscape:zoom="0.82783081"
     inkscape:cx="305.06058"
     inkscape:cy="200.6277"
     inkscape:window-x="0"
     inkscape:window-y="0"
     inkscape:current-layer="svg5496"
     inkscape:window-width="1278"
     inkscape:window-maximized="1">
    <sodipodi:guide
       orientation="horizontal"
       position="200"
       id="guide5596" />
  </sodipodi:namedview>
  <defs
     id="defs5498">
    <inkscape:perspective
       sodipodi:type="inkscape:persp3d"
       inkscape:vp_x="0 : 500 : 1"
       inkscape:vp_y="0 : 1000 : 0"
       inkscape:vp_z="1000 : 500 : 1"
       inkscape:persp3d-origin="500 : 333.33333 : 1"
       id="perspective8" />
    <inkscape:perspective
       id="perspective2822"
       inkscape:persp3d-origin="0.5 : 0.33333333 : 1"
       inkscape:vp_z="1 : 0.5 : 1"
       inkscape:vp_y="0 : 1000 : 0"
       inkscape:vp_x="0 : 0.5 : 1"
       sodipodi:type="inkscape:persp3d" />
    <inkscape:perspective
       id="perspective5068"
       inkscape:persp3d-origin="0.5 : 0.33333333 : 1"
       inkscape:vp_z="1 : 0.5 : 1"
       inkscape:vp_y="0 : 1000 : 0"
       inkscape:vp_x="0 : 0.5 : 1"
       sodipodi:type="inkscape:persp3d" />
    <inkscape:perspective
       id="perspective5090"
       inkscape:persp3d-origin="0.5 : 0.33333333 : 1"
       inkscape:vp_z="1 : 0.5 : 1"
       inkscape:vp_y="0 : 1000 : 0"
       inkscape:vp_x="0 : 0.5 : 1"
       sodipodi:type="inkscape:persp3d" />
    <inkscape:perspective
       id="perspective2869"
       inkscape:persp3d-origin="0.5 : 0.33333333 : 1"
       inkscape:vp_z="1 : 0.5 : 1"
       inkscape:vp_y="0 : 1000 : 0"
       inkscape:vp_x="0 : 0.5 : 1"
       sodipodi:type="inkscape:persp3d" />
  </defs>
  <path
     sodipodi:nodetypes="csssssssssssscs"
     id="path2828"
     d="m 446.67053,653.02117 c 60.33569,12.69456 157.8,34.575 163.07,70.493 3.557,24.236 -19.64855,97.35047 -37.571,118.056 C 518.84946,903.17004 327.60608,1006.8716 193.83752,997.53413 40.468439,986.74411 -7.2537831,880.05914 3.4825259,767.35417 10.113217,697.74814 57.195574,620.94307 68.598977,606.84049 79.038453,593.93 97.601678,604.51582 87.282681,618.91817 c -18.145767,25.32626 -59.54015,105.44411 -52.538159,153.269 19.499369,133.18428 178.070998,131.872 277.918008,108.249 110.134,-26.058 191.884,-71.483 227.188,-109.303 5.774,-6.183 5.873,-9.188 -0.876,-13.616 -39.954,-26.213 -138.823,-40.295 -198.155,-46.718 -6.736,-0.729 -6.14619,-2.845 -6.275,-9.101 -0.34683,-16.84522 13.5043,-47.61757 24.97435,-66.6803 32.54642,5.8005 58.88231,12.05546 87.15165,18.0033 z"
     style="color:#000000;fill:#ff0000;fill-opacity:0.60784314;stroke:#000000;stroke-width:0;stroke-linecap:butt;stroke-linejoin:miter;stroke-miterlimit:4;stroke-opacity:1;stroke-dasharray:none;stroke-dashoffset:0;marker:none;visibility:visible;display:inline;overflow:visible;enable-background:accumulate" />
  <g
     id="layer1"
     transform="translate(87.22022,328.63333)"
     style="fill:#000000;fill-opacity:1;stroke:#000000;stroke-opacity:1" />
  <path
     style="color:#000000;fill:#ff0000;fill-opacity:0.60784314;stroke:#000000;stroke-width:0;stroke-linecap:butt;stroke-linejoin:miter;stroke-miterlimit:4;stroke-opacity:1;stroke-dasharray:none;stroke-dashoffset:0;marker:none;visibility:visible;display:inline;overflow:visible;enable-background:accumulate"
     d="m 518.10353,523.32417 c -8.051,-7.224 -18.081,-11.457 -26.743,-20.308 -6.854,-7.004 -7.79,-18.373 -4.443,-26.87301 13.569,-34.457 23.657,-60.039 46.234,-88.51 4.707,-5.937 17.621,-9.768 24.438,-8.62 67.823,11.417 128.355,67.377 135.492,95.154 1.638,6.37301 1.724,9.07601 1.462,15.24601 -0.918,21.638 -13.53,63.333 -30.522,74.171 -12.845,8.193 -38.633,11.034 -53.032,13.315 -53.736,6.861 -118.86315,24.91881 -165.842,64.983 -18.56366,15.83134 -80.0051,65.09736 -103.46947,68.28778 -6.01097,0.81731 -7.23039,-0.89247 -7.13353,-8.47178 0.30397,-23.78669 25.399,-72.105 35.853,-81.691 40.223,-36.881 66.313,-58.837 147.706,-96.683 z"
     id="path2830"
     sodipodi:nodetypes="cssssssscssssc" />
</svg>
