<?xml version="1.0" encoding="UTF-8" standalone="no"?>
<!-- Created with Inkscape (http://www.inkscape.org/) -->

<svg
   xmlns:dc="http://purl.org/dc/elements/1.1/"
   xmlns:cc="http://creativecommons.org/ns#"
   xmlns:rdf="http://www.w3.org/1999/02/22-rdf-syntax-ns#"
   xmlns:svg="http://www.w3.org/2000/svg"
   xmlns="http://www.w3.org/2000/svg"
   xmlns:sodipodi="http://sodipodi.sourceforge.net/DTD/sodipodi-0.dtd"
   xmlns:inkscape="http://www.inkscape.org/namespaces/inkscape"
   version="1.0"
   width="1000"
   height="1000"
   id="svg5496"
   sodipodi:version="0.32"
   inkscape:version="0.47pre4 r22446"
   sodipodi:docname="sad+meem.init.svg"
   inkscape:output_extension="org.inkscape.output.svg.inkscape">
  <metadata
     id="metadata5594">
    <rdf:RDF>
      <cc:Work
         rdf:about="">
        <dc:format>image/svg+xml</dc:format>
        <dc:type
           rdf:resource="http://purl.org/dc/dcmitype/StillImage" />
        <dc:title />
      </cc:Work>
    </rdf:RDF>
  </metadata>
  <sodipodi:namedview
     inkscape:window-height="618"
     inkscape:pageshadow="2"
     inkscape:pageopacity="0.0"
     borderopacity="1.0"
     bordercolor="#666666"
     pagecolor="#ffffff"
     id="base"
     showgrid="false"
     showguides="true"
     inkscape:guide-bbox="true"
     inkscape:zoom="0.64205296"
     inkscape:cx="395.26279"
     inkscape:cy="570.47989"
     inkscape:window-x="66"
     inkscape:window-y="125"
     inkscape:current-layer="svg5496"
     inkscape:window-width="641"
     inkscape:window-maximized="0">
    <sodipodi:guide
       orientation="horizontal"
       position="200"
       id="guide5596" />
  </sodipodi:namedview>
  <defs
     id="defs5498">
    <inkscape:perspective
       sodipodi:type="inkscape:persp3d"
       inkscape:vp_x="0 : 500 : 1"
       inkscape:vp_y="0 : 1000 : 0"
       inkscape:vp_z="1000 : 500 : 1"
       inkscape:persp3d-origin="500 : 333.33333 : 1"
       id="perspective8" />
    <inkscape:perspective
       id="perspective2822"
       inkscape:persp3d-origin="0.5 : 0.33333333 : 1"
       inkscape:vp_z="1 : 0.5 : 1"
       inkscape:vp_y="0 : 1000 : 0"
       inkscape:vp_x="0 : 0.5 : 1"
       sodipodi:type="inkscape:persp3d" />
    <inkscape:perspective
       id="perspective4773"
       inkscape:persp3d-origin="0.5 : 0.33333333 : 1"
       inkscape:vp_z="1 : 0.5 : 1"
       inkscape:vp_y="0 : 1000 : 0"
       inkscape:vp_x="0 : 0.5 : 1"
       sodipodi:type="inkscape:persp3d" />
  </defs>
  <path
     style="color:#000000;fill:#ff0000;fill-opacity:0.60784314;stroke:#000000;stroke-width:0;stroke-linecap:butt;stroke-linejoin:miter;stroke-miterlimit:4;stroke-opacity:1;stroke-dasharray:none;stroke-dashoffset:0;marker:none;visibility:visible;display:inline;overflow:visible;enable-background:accumulate"
     d="M 595.1875,247.6875 C 518.9718,249.0106 419.86481,354.58445 336.25,464.46875 280.62453,460.26066 236.32172,452.45766 219.96875,396.1875 218.48723,390.55851 215.57776,384.9037 208.34375,384.25 166.58695,380.4764 98.133,424.7296 69.4375,526.375 c -10.9471,38.7771 -12.874462,103.08598 7.84375,142.25 21.628918,40.88555 146.622,43.09873 102,-12.84375 -52.57349,-9.6656 -83.74815,-68.2015 -88.84375,-110.125 -0.5659,-4.6561 2.9163,-13.41695 5.375,-17.09375 22.7491,-34.0202 76.09577,-63.82614 91.0625,-47.71875 17.81541,18.67284 29.41256,59.5754 86.78125,68.65625 -7.4701,10.8071 -14.677,22.8955 -21.5625,33.125 -10.0142,14.8775 4.31165,21.85415 11.53125,13.84375 9.6536,-10.711 22.94965,-25.1829 35.21875,-41.75 146.3832,16.8639 298.673,-6.658 343.0625,-53.3125 39.9427,-41.9807 82.22475,-117.072 73.15625,-158.75 -8.2047,-37.7089 -67.65371,-95.10095 -119.875,-94.96875 z m -41.53125,93.90625 c 44.7288,2.1461 81.5339,30.51693 109,69.46875 C 642.59265,435.2804 530.2481,472.763 366,466.4375 417.7732,403.7654 481.30616,344.58255 553.65625,341.59375 z"
     id="path2831"
     sodipodi:nodetypes="cccssscssccsscssccccc" />
  <g
     id="layer1"
     transform="translate(39.647577,146.90625)" />
  <path
     sodipodi:nodetypes="csssssssss"
     id="path2825"
     d="M 77.2946,668.6373 C 55.565705,685.89833 41.247337,698.91022 0.3497,709.6402 -36.989598,719.4366 -18.802658,804.49446 0,800 c 62.329887,-14.89892 86.7748,-56.1369 137.9172,-59.654 32.3457,-2.2244 61.72849,31.4699 87.2012,55.6231 4.9495,4.6931 6.87029,5.2121 9.49149,-0.241 6.8909,-14.3359 24.9348,-58.1843 26.3954,-76.3839 0.4411,-5.4972 0.5075,-10.0521 -2.77209,-14.1318 C 234.23019,675.355 214.58412,662.89521 179.28749,655.775 130.6242,645.9584 92.413376,656.62723 77.2946,668.6373 z"
     style="color:#000000;fill:#ff0000;fill-opacity:0.60784314;stroke:#000000;stroke-width:0;stroke-linecap:butt;stroke-linejoin:miter;stroke-miterlimit:4;stroke-opacity:1;stroke-dasharray:none;stroke-dashoffset:0;marker:none;visibility:visible;display:inline;overflow:visible;enable-background:accumulate" />
</svg>
