<?xml version="1.0" encoding="UTF-8" standalone="no"?>
<!-- Created with Inkscape (http://www.inkscape.org/) -->

<svg
   xmlns:dc="http://purl.org/dc/elements/1.1/"
   xmlns:cc="http://creativecommons.org/ns#"
   xmlns:rdf="http://www.w3.org/1999/02/22-rdf-syntax-ns#"
   xmlns:svg="http://www.w3.org/2000/svg"
   xmlns="http://www.w3.org/2000/svg"
   xmlns:sodipodi="http://sodipodi.sourceforge.net/DTD/sodipodi-0.dtd"
   xmlns:inkscape="http://www.inkscape.org/namespaces/inkscape"
   version="1.0"
   width="1000"
   height="1000"
   id="svg5496"
   sodipodi:version="0.32"
   inkscape:version="0.47pre4 r22446"
   sodipodi:docname="seen+meem.init.svg"
   inkscape:output_extension="org.inkscape.output.svg.inkscape">
  <metadata
     id="metadata5594">
    <rdf:RDF>
      <cc:Work
         rdf:about="">
        <dc:format>image/svg+xml</dc:format>
        <dc:type
           rdf:resource="http://purl.org/dc/dcmitype/StillImage" />
        <dc:title />
      </cc:Work>
    </rdf:RDF>
  </metadata>
  <sodipodi:namedview
     inkscape:window-height="618"
     inkscape:pageshadow="2"
     inkscape:pageopacity="0.0"
     borderopacity="1.0"
     bordercolor="#666666"
     pagecolor="#ffffff"
     id="base"
     showgrid="false"
     showguides="true"
     inkscape:guide-bbox="true"
     inkscape:zoom="0.80773868"
     inkscape:cx="184.33988"
     inkscape:cy="326.16267"
     inkscape:window-x="66"
     inkscape:window-y="125"
     inkscape:current-layer="svg5496"
     inkscape:window-width="641"
     inkscape:window-maximized="0">
    <sodipodi:guide
       orientation="horizontal"
       position="200"
       id="guide5596" />
  </sodipodi:namedview>
  <defs
     id="defs5498">
    <inkscape:perspective
       sodipodi:type="inkscape:persp3d"
       inkscape:vp_x="0 : 500 : 1"
       inkscape:vp_y="0 : 1000 : 0"
       inkscape:vp_z="1000 : 500 : 1"
       inkscape:persp3d-origin="500 : 333.33333 : 1"
       id="perspective2857" />
    <inkscape:perspective
       id="perspective2867"
       inkscape:persp3d-origin="0.5 : 0.33333333 : 1"
       inkscape:vp_z="1 : 0.5 : 1"
       inkscape:vp_y="0 : 1000 : 0"
       inkscape:vp_x="0 : 0.5 : 1"
       sodipodi:type="inkscape:persp3d" />
    <inkscape:perspective
       id="perspective4533"
       inkscape:persp3d-origin="0.5 : 0.33333333 : 1"
       inkscape:vp_z="1 : 0.5 : 1"
       inkscape:vp_y="0 : 1000 : 0"
       inkscape:vp_x="0 : 0.5 : 1"
       sodipodi:type="inkscape:persp3d" />
  </defs>
  <path
     sodipodi:nodetypes="cssssssssssscccssscsssssc"
     id="path2831"
     d="m 559.17545,412.92046 c -1.55731,2.70585 -1.39936,4.25021 0.50687,6.34901 7.5551,8.31833 14.23746,15.28992 20.01578,27.54282 1.36722,2.89918 0.47556,5.13245 -2.35329,6.29277 -13.55399,5.55949 -57.65681,-2.09542 -84.43542,-13.68137 -8.17939,-3.53886 -15.97561,-11.08984 -15.87995,-21.07347 0.049,-5.29922 6.75778,-16.97505 10.11244,-23.61011 11.57254,-22.88895 -6.39512,-34.56751 -17.51049,-19.42948 -36.48619,49.69052 -69.27036,114.62768 -135.90473,110.77909 -59.10801,-3.41389 -60.67293,-80.68361 -107.16119,-82.4548 -46.38421,-1.76721 -90.87893,37.08803 -118.79714,91.10437 -32.055866,62.0219 -30.003508,129.76266 -15.967246,183.12589 11.045546,41.9931 124.586336,77.22796 100.906836,-15.62645 -32.57896,-9.69702 -83.17742,-74.78366 -75.0688,-132.28686 0.31971,-4.70233 4.0917,-8.74682 7.40718,-11.79463 20.29604,-17.07489 55.7776,-24.76608 78.51574,-20.76938 12.25241,2.1536 23.01623,12.01203 28.93567,22.2458 17.61791,30.45853 30.74993,57.48289 69.28322,60.23103 56.91111,4.02223 89.96862,-16.15995 124.39283,-64.9376 1.58842,-2.2887 4.02046,-1.76574 5.43134,-0.75321 29.81949,21.4002 121.64662,52.40154 145.54479,26.99672 15.24402,-16.20507 27.2413,-48.28757 35.29022,-77.41675 11.54018,-41.76417 7.83778,-86.39517 -11.09876,-109.05612 -1.46546,-1.75369 -3.21241,-4.3879 -5.7645,-0.6771 -13.08809,19.03047 -24.81229,38.93794 -36.4014,58.89983 z"
     style="fill:#ff0000;fill-opacity:0.60784314;stroke:#000000;stroke-width:0;stroke-linecap:butt;stroke-linejoin:miter;stroke-miterlimit:4;stroke-opacity:1;stroke-dasharray:none;stroke-dashoffset:0;marker:none;visibility:visible;display:inline;overflow:visible;enable-background:accumulate" />
  <g
     id="layer1" />
  <path
     style="fill:#ff0000;fill-opacity:0.60784314;stroke:#000000;stroke-width:0;stroke-linecap:butt;stroke-linejoin:miter;stroke-miterlimit:4;stroke-opacity:1;stroke-dasharray:none;stroke-dashoffset:0;marker:none;visibility:visible;display:inline;overflow:visible;enable-background:accumulate"
     d="M 91.801084,677.86518 C 56.740262,693.19955 34.785771,706.32193 -0.524026,709.61348 -31.246187,712.47737 -17.887665,803.50951 0,800 c 51.437832,-10.09195 63.605634,-42.63263 131.01312,-39.74284 47.65974,2.04319 84.83038,28.57515 116.93499,50.10311 4.83035,3.23902 8.28582,3.17612 11.48345,-1.15326 16.47815,-22.31037 31.62018,-49.68874 41.71826,-77.84148 2.34463,-6.53667 2.68648,-9.70564 -2.07188,-14.37986 C 266.618,685.09963 236.08902,674.25003 192.70792,662.23873 153.05304,651.25914 113.2849,668.46892 91.801084,677.86518 z"
     id="path2829"
     sodipodi:nodetypes="csssssssss" />
</svg>
