<?xml version="1.0" encoding="UTF-8" standalone="no"?>
<!-- Created with Inkscape (http://www.inkscape.org/) -->

<svg
   xmlns:dc="http://purl.org/dc/elements/1.1/"
   xmlns:cc="http://creativecommons.org/ns#"
   xmlns:rdf="http://www.w3.org/1999/02/22-rdf-syntax-ns#"
   xmlns:svg="http://www.w3.org/2000/svg"
   xmlns="http://www.w3.org/2000/svg"
   xmlns:sodipodi="http://sodipodi.sourceforge.net/DTD/sodipodi-0.dtd"
   xmlns:inkscape="http://www.inkscape.org/namespaces/inkscape"
   version="1.0"
   width="1000"
   height="1000"
   id="svg5496"
   sodipodi:version="0.32"
   inkscape:version="0.47pre4 r22446"
   sodipodi:docname="seen+baa+meem.init.svg"
   inkscape:output_extension="org.inkscape.output.svg.inkscape">
  <metadata
     id="metadata5594">
    <rdf:RDF>
      <cc:Work
         rdf:about="">
        <dc:format>image/svg+xml</dc:format>
        <dc:type
           rdf:resource="http://purl.org/dc/dcmitype/StillImage" />
      </cc:Work>
    </rdf:RDF>
  </metadata>
  <sodipodi:namedview
     inkscape:window-height="420"
     inkscape:window-width="642"
     inkscape:pageshadow="2"
     inkscape:pageopacity="0.0"
     guidetolerance="10.0"
     gridtolerance="10.0"
     objecttolerance="10.0"
     borderopacity="1.0"
     bordercolor="#666666"
     pagecolor="#ffffff"
     id="base"
     showgrid="false"
     showguides="true"
     inkscape:guide-bbox="true"
     inkscape:zoom="0.454"
     inkscape:cx="678.24571"
     inkscape:cy="494.60327"
     inkscape:window-x="633"
     inkscape:window-y="0"
     inkscape:current-layer="svg5496"
     inkscape:window-maximized="0">
    <sodipodi:guide
       orientation="horizontal"
       position="200"
       id="guide5596" />
  </sodipodi:namedview>
  <defs
     id="defs5498">
    <inkscape:perspective
       sodipodi:type="inkscape:persp3d"
       inkscape:vp_x="0 : 500 : 1"
       inkscape:vp_y="0 : 1000 : 0"
       inkscape:vp_z="1000 : 500 : 1"
       inkscape:persp3d-origin="500 : 333.33333 : 1"
       id="perspective3202" />
    <inkscape:perspective
       id="perspective3211"
       inkscape:persp3d-origin="372.04724 : 350.78739 : 1"
       inkscape:vp_z="744.09448 : 526.18109 : 1"
       inkscape:vp_y="0 : 1000 : 0"
       inkscape:vp_x="0 : 526.18109 : 1"
       sodipodi:type="inkscape:persp3d" />
    <inkscape:perspective
       sodipodi:type="inkscape:persp3d"
       inkscape:vp_x="0 : 0.5 : 1"
       inkscape:vp_y="0 : 1000 : 0"
       inkscape:vp_z="1 : 0.5 : 1"
       inkscape:persp3d-origin="0.5 : 0.33333333 : 1"
       id="perspective2867" />
    <inkscape:perspective
       id="perspective2857"
       inkscape:persp3d-origin="500 : 333.33333 : 1"
       inkscape:vp_z="1000 : 500 : 1"
       inkscape:vp_y="0 : 1000 : 0"
       inkscape:vp_x="0 : 500 : 1"
       sodipodi:type="inkscape:persp3d" />
    <inkscape:perspective
       sodipodi:type="inkscape:persp3d"
       inkscape:vp_x="0 : 0.5 : 1"
       inkscape:vp_y="0 : 1000 : 0"
       inkscape:vp_z="1 : 0.5 : 1"
       inkscape:persp3d-origin="0.5 : 0.33333333 : 1"
       id="perspective4533" />
    <inkscape:perspective
       sodipodi:type="inkscape:persp3d"
       inkscape:vp_x="0 : 0.5 : 1"
       inkscape:vp_y="0 : 1000 : 0"
       inkscape:vp_z="1 : 0.5 : 1"
       inkscape:persp3d-origin="0.5 : 0.33333333 : 1"
       id="perspective2867-3" />
    <inkscape:perspective
       id="perspective2857-8"
       inkscape:persp3d-origin="500 : 333.33333 : 1"
       inkscape:vp_z="1000 : 500 : 1"
       inkscape:vp_y="0 : 1000 : 0"
       inkscape:vp_x="0 : 500 : 1"
       sodipodi:type="inkscape:persp3d" />
    <inkscape:perspective
       id="perspective3732"
       inkscape:persp3d-origin="0.5 : 0.33333333 : 1"
       inkscape:vp_z="1 : 0.5 : 1"
       inkscape:vp_y="0 : 1000 : 0"
       inkscape:vp_x="0 : 0.5 : 1"
       sodipodi:type="inkscape:persp3d" />
    <inkscape:perspective
       id="perspective3760"
       inkscape:persp3d-origin="0.5 : 0.33333333 : 1"
       inkscape:vp_z="1 : 0.5 : 1"
       inkscape:vp_y="0 : 1000 : 0"
       inkscape:vp_x="0 : 0.5 : 1"
       sodipodi:type="inkscape:persp3d" />
  </defs>
  <path
     sodipodi:nodetypes="csssssssscsssscscssssssc"
     id="path2839"
     d="m 826.07487,407.77154 c -0.7742,3.11407 -1.84234,4.82067 0.52097,6.52567 2.56399,1.84978 11.03241,13.8121 11.59388,17.14934 0.54661,3.24893 -0.54746,4.66856 -3.12404,6.46788 -10.58112,7.38918 -44.36596,2.67522 -64.33759,-4.76639 -8.5836,-3.19833 -15.81924,-5.85774 -15.72092,-16.11916 0.0504,-5.44667 6.44712,-19.69152 8.64839,-29.75274 5.63434,-25.75265 -15.367,-28.3351 -23.47231,-9.74093 -13.04543,29.92714 -26.94606,59.46174 -49.53955,79.06149 -38.76475,33.62827 -114.51164,43.02813 -144.96412,7.9095 5.57557,-9.02508 11.82941,-19.4962 19.46812,-36.8513 8.68831,-19.73978 -9.27439,-32.01254 -20.65212,-18.13801 -39.28164,47.90184 -74.95734,86.08606 -149.5591,92.08644 -56.05025,4.50825 -53.3876,95.47953 -18.71321,96.21773 49.19517,1.04734 85.49809,-32.81622 116.28165,-65.68213 14.71155,17.60991 39.43174,51.61819 87.38315,53.17818 55.19365,1.79559 94.04962,-33.24853 131.67186,-81.78331 1.63261,-2.35238 2.8325,-1.24867 4.17194,-0.0689 29.6255,26.09452 81.44519,35.37358 106.28202,30.79722 23.2808,-4.28966 43.16278,-42.53576 49.44088,-68.98459 6.44132,-27.1365 9.67932,-64.98819 3.22549,-93.82219 -3.85148,-17.20741 -11.95734,-31.3638 -22.67318,-37.67054 -4.4682,-2.62972 -8.54396,0.77602 -9.89202,5.65143 -6.51452,23.56066 -13.95041,56.87953 -16.04019,68.33529 z"
     style="fill:#ff0000;fill-opacity:0.60784314;stroke:#000000;stroke-width:0;stroke-linecap:butt;stroke-linejoin:miter;stroke-miterlimit:4;stroke-opacity:1;stroke-dasharray:none;stroke-dashoffset:0;marker:none;visibility:visible;display:inline;overflow:visible;enable-background:accumulate" />
  <g
     style="fill:#ff0000;fill-opacity:0.60784314;stroke:#000000;stroke-width:0;stroke-miterlimit:4;stroke-opacity:1;stroke-dasharray:none"
     id="g2835"
     transform="matrix(0.95805819,0,0,0.95805819,224.70794,25.844685)" />
  <g
     id="layer1"
     transform="matrix(0.99772833,0,0,0.99772833,-56.140256,141.15297)" />
  <g
     style="fill:#ff0000;fill-opacity:0.60784314;stroke:#000000;stroke-width:0;stroke-miterlimit:4;stroke-opacity:1;stroke-dasharray:none"
     transform="matrix(0.95805819,0,0,0.95805819,224.70794,25.844685)"
     id="g2824">
    <g
       style="fill:#ff0000;fill-opacity:0.60784314;stroke:#000000;stroke-width:0;stroke-miterlimit:4;stroke-opacity:1;stroke-dasharray:none"
       id="g2826" />
    <path
       style="fill:#ff0000;fill-opacity:0.60784314;stroke:#000000;stroke-width:0;stroke-linecap:butt;stroke-linejoin:miter;stroke-miterlimit:4;stroke-opacity:1;stroke-dasharray:none;stroke-dashoffset:0;marker:none;visibility:visible;display:inline;overflow:visible;enable-background:accumulate"
       d="m -134.6149,674.69375 c -14.59181,16.25021 -64.27611,34.21507 -99.1146,40.71622 -40.79823,7.61329 -32.79011,96.47413 0.22639,94.18727 52.28867,-3.62173 95.14134,-51.78842 144.678965,-52.10904 39.915658,-0.25834 88.14633085,44.22537 122.588832,67.32102 5.1821,3.47489 9.594218,3.85322 12.31969,-1.23724 13.997414,-26.14346 26.844517,-54.89259 29.580426,-79.94248 0.808883,-7.4061 1.107005,-16.16377 -2.958899,-22.05226 C 61.305998,705.0672 17.564687,675.77755 -28.442711,660.01218 -96.584333,636.66207 -117.17955,655.27682 -134.6149,674.69375 z"
       id="path2828"
       sodipodi:nodetypes="csssssssss" />
  </g>
  <g
     id="g2830"
     transform="matrix(0.95805819,0,0,0.95805819,224.70794,25.844685)"
     style="fill:#ff0000;fill-opacity:0.60784314;stroke:#000000;stroke-width:0;stroke-miterlimit:4;stroke-opacity:1;stroke-dasharray:none">
    <g
       id="g2832"
       style="fill:#ff0000;fill-opacity:0.60784314;stroke:#000000;stroke-width:0;stroke-miterlimit:4;stroke-opacity:1;stroke-dasharray:none" />
    <path
       sodipodi:nodetypes="csssssssss"
       id="path2834"
       d="M 177.68079,496.58638 C 112.31551,503.20175 62.957629,457.5565 33.810566,401.80495 27.873871,390.44943 19.241286,382.72096 2.1837741,380.90883 -46.490007,375.7379 -96.618523,422.42828 -126.56977,480.37816 c -34.39021,66.53841 -18.95583,167.35605 -8.04513,194.31559 23.03644,56.92136 142.7337066,-0.5396 106.172189,-14.68157 -45.307512,-17.52491 -78.425599,-69.50803 -81.667369,-106.42418 -2.74577,-31.26795 70.449238,-90.90082 95.394713,-70.11719 42.985492,35.81389 73.422131,113.50393 172.863727,113.54551 43.3455,0.0181 63.16899,-104.84623 19.53243,-100.42994 z"
       style="fill:#ff0000;fill-opacity:0.60784314;stroke:#000000;stroke-width:0;stroke-linecap:butt;stroke-linejoin:miter;stroke-miterlimit:4;stroke-opacity:1;stroke-dasharray:none;stroke-dashoffset:0;marker:none;visibility:visible;display:inline;overflow:visible;enable-background:accumulate" />
  </g>
</svg>
