<?xml version="1.0" encoding="UTF-8" standalone="no"?>
<!-- Created with Inkscape (http://www.inkscape.org/) -->

<svg
   xmlns:dc="http://purl.org/dc/elements/1.1/"
   xmlns:cc="http://creativecommons.org/ns#"
   xmlns:rdf="http://www.w3.org/1999/02/22-rdf-syntax-ns#"
   xmlns:svg="http://www.w3.org/2000/svg"
   xmlns="http://www.w3.org/2000/svg"
   xmlns:sodipodi="http://sodipodi.sourceforge.net/DTD/sodipodi-0.dtd"
   xmlns:inkscape="http://www.inkscape.org/namespaces/inkscape"
   version="1.0"
   width="1000"
   height="1000"
   id="svg5496"
   sodipodi:version="0.32"
   inkscape:version="0.47pre0 r21549"
   sodipodi:docname="ayn+meem.init.svg"
   inkscape:output_extension="org.inkscape.output.svg.inkscape">
  <metadata
     id="metadata5594">
    <rdf:RDF>
      <cc:Work
         rdf:about="">
        <dc:format>image/svg+xml</dc:format>
        <dc:type
           rdf:resource="http://purl.org/dc/dcmitype/StillImage" />
      </cc:Work>
    </rdf:RDF>
  </metadata>
  <sodipodi:namedview
     inkscape:pageshadow="2"
     inkscape:pageopacity="0.0"
     guidetolerance="10.0"
     gridtolerance="10.0"
     objecttolerance="10.0"
     borderopacity="1.0"
     bordercolor="#666666"
     pagecolor="#ffffff"
     id="base"
     showgrid="false"
     showguides="true"
     inkscape:guide-bbox="true"
     inkscape:zoom="0.236"
     inkscape:cx="368.64407"
     inkscape:cy="500"
     inkscape:window-x="0"
     inkscape:window-y="25"
     inkscape:current-layer="svg5496">
    <sodipodi:guide
       orientation="horizontal"
       position="200"
       id="guide5596" />
  </sodipodi:namedview>
  <defs
     id="defs5498">
    <inkscape:perspective
       sodipodi:type="inkscape:persp3d"
       inkscape:vp_x="0 : 500 : 1"
       inkscape:vp_y="0 : 1000 : 0"
       inkscape:vp_z="1000 : 500 : 1"
       inkscape:persp3d-origin="500 : 333.33333 : 1"
       id="perspective8" />
    <inkscape:perspective
       id="perspective2388"
       inkscape:persp3d-origin="372.04724 : 350.78739 : 1"
       inkscape:vp_z="744.09448 : 526.18109 : 1"
       inkscape:vp_y="0 : 1000 : 0"
       inkscape:vp_x="0 : 526.18109 : 1"
       sodipodi:type="inkscape:persp3d" />
  </defs>
  <g
     id="layer1"
     transform="translate(47.058824,228.29074)" />
  <path
     style="fill:#000000;fill-rule:evenodd;stroke:#000000;stroke-width:1px;stroke-linecap:butt;stroke-linejoin:miter;stroke-opacity:1"
     d="M 431.71875 191.03125 C 396.62916 191.53993 306.00422 238.40574 255.875 332.21875 C 226.81063 386.61051 238.98694 436.07371 314.46875 486.40625 C 266.1499 514.58623 193.10838 531.87453 129.65625 570.28125 C 91.284234 593.50732 79.309263 644.60783 77.40625 684.40625 C 64.743188 698.68163 23.08015 713.69418 1.96875 717.5 L 0 797.90625 C 44.986362 783.73079 74.670068 741.95896 86.28125 717.5 C 146.33739 735.48264 233.52223 772.46879 268.15625 753.15625 C 293.0121 739.2962 302.07713 699.04979 295.3125 657.25 C 290.10887 625.09597 267.17651 596.01964 243.125 574.375 C 348.23347 531.73251 505.56955 483.87362 605 435.65625 C 608.43998 433.98808 611.52067 431.80122 613.5 427.59375 L 641.96875 367.0625 C 645.32928 359.919 641.50719 352.54701 633.34375 355.75 C 569.74583 380.70312 498.40144 424.91757 437.75 421.90625 C 360.51738 418.07167 298.22362 362.23804 288.125 337.46875 C 286.30772 333.01143 286.98196 328.94709 290.3125 325.78125 C 369.55872 250.45409 500.03751 251.43588 545.09375 271.4375 C 552.59548 274.76772 555.18443 267.57456 549.03125 260.65625 C 526.13725 234.91545 487.71931 192.60328 433.34375 191.03125 C 432.81513 191.01597 432.27573 191.02318 431.71875 191.03125 z M 155.15625 611.90625 C 194.24231 611.7122 241.00786 642.10568 247.3125 676.34375 C 220.82141 674.12967 147.74489 659.99434 117.28125 638.8125 C 113.29424 636.04027 112.90727 630.87994 115.6875 627.78125 C 125.75262 616.74598 139.8617 611.98218 155.15625 611.90625 z "
     id="path2394" />
</svg>
