<?xml version="1.0" encoding="UTF-8" standalone="no"?>
<!-- Created with Inkscape (http://www.inkscape.org/) -->
<svg
   xmlns:dc="http://purl.org/dc/elements/1.1/"
   xmlns:cc="http://creativecommons.org/ns#"
   xmlns:rdf="http://www.w3.org/1999/02/22-rdf-syntax-ns#"
   xmlns:svg="http://www.w3.org/2000/svg"
   xmlns="http://www.w3.org/2000/svg"
   xmlns:sodipodi="http://sodipodi.sourceforge.net/DTD/sodipodi-0.dtd"
   xmlns:inkscape="http://www.inkscape.org/namespaces/inkscape"
   version="1.0"
   width="1000"
   height="1000"
   id="svg5496"
   sodipodi:version="0.32"
   inkscape:version="0.46"
   sodipodi:docname="ayn+meem.init.svg"
   inkscape:output_extension="org.inkscape.output.svg.inkscape">
  <metadata
     id="metadata5594">
    <rdf:RDF>
      <cc:Work
         rdf:about="">
        <dc:format>image/svg+xml</dc:format>
        <dc:type
           rdf:resource="http://purl.org/dc/dcmitype/StillImage" />
      </cc:Work>
    </rdf:RDF>
  </metadata>
  <sodipodi:namedview
     inkscape:pageshadow="2"
     inkscape:pageopacity="0.0"
     guidetolerance="10.0"
     gridtolerance="10.0"
     objecttolerance="10.0"
     borderopacity="1.0"
     bordercolor="#666666"
     pagecolor="#ffffff"
     id="base"
     showgrid="false"
     showguides="true"
     inkscape:guide-bbox="true"
     inkscape:zoom="0.51"
     inkscape:cx="157.86766"
     inkscape:cy="527.60761"
     inkscape:window-x="0"
     inkscape:window-y="25"
     inkscape:current-layer="svg5496">
    <sodipodi:guide
       orientation="horizontal"
       position="200"
       id="guide5596" />
  </sodipodi:namedview>
  <defs
     id="defs5498">
    <inkscape:perspective
       sodipodi:type="inkscape:persp3d"
       inkscape:vp_x="0 : 500 : 1"
       inkscape:vp_y="0 : 1000 : 0"
       inkscape:vp_z="1000 : 500 : 1"
       inkscape:persp3d-origin="500 : 333.33333 : 1"
       id="perspective8" />
    <inkscape:perspective
       id="perspective2388"
       inkscape:persp3d-origin="372.04724 : 350.78739 : 1"
       inkscape:vp_z="744.09448 : 526.18109 : 1"
       inkscape:vp_y="0 : 1000 : 0"
       inkscape:vp_x="0 : 526.18109 : 1"
       sodipodi:type="inkscape:persp3d" />
  </defs>
  <g
     id="layer1"
     transform="translate(47.058824,228.29074)" />
  <path
     style="fill:none;fill-rule:evenodd;stroke:#000000;stroke-width:1px;stroke-linecap:butt;stroke-linejoin:miter;stroke-opacity:1"
     d="M 633.33333,355.74172 C 569.73541,380.69484 498.39654,424.92951 437.7451,421.91819 C 360.51248,418.08361 298.21309,362.25177 288.11447,337.48248 C 286.29719,333.02516 286.97795,328.94782 290.30849,325.78198 C 369.55471,250.45482 500.0418,251.42637 545.09804,271.42799 C 552.59977,274.75821 555.17278,267.56199 549.0196,260.64368 C 526.1256,234.90288 487.70889,192.60787 433.33333,191.03584 C 399.50165,190.05774 306.80727,236.9102 255.88235,332.21231 C 226.81798,386.60407 238.99638,436.08849 314.47819,486.42103 C 266.15934,514.60101 193.11198,531.86247 129.65985,570.26919 C 91.287834,593.49526 79.294523,644.60236 77.39151,684.40078 C 64.728448,698.67616 23.072184,713.70061 1.9607845,717.50643 L -4.7058786e-07,797.89858 C 44.986362,783.72312 74.663328,741.96539 86.27451,717.50643 C 146.33065,735.48907 233.52786,772.4597 268.16188,753.14716 C 293.01773,739.28711 302.09035,699.04694 295.32572,657.24715 C 290.12209,625.09312 267.18876,596.01382 243.13725,574.36918 C 348.24572,531.72669 505.57297,483.87395 605.00342,435.65658 C 608.4434,433.98841 611.52318,431.78993 613.50251,427.58246 L 641.97845,367.05107 C 645.33898,359.90757 641.49677,352.53873 633.33333,355.74172 z"
     id="path2394"
     sodipodi:nodetypes="cssssssscsccccsscssss" />
  <path
     style="fill:none;fill-rule:evenodd;stroke:#000000;stroke-width:1px;stroke-linecap:butt;stroke-linejoin:miter;stroke-opacity:1"
     d="M 115.68267,627.78312 C 112.90244,630.88181 113.29369,636.05281 117.2807,638.82504 C 147.74434,660.00688 220.81283,674.11588 247.30392,676.32996 C 238.53225,628.69438 151.46976,588.54659 115.68267,627.78312 z"
     id="path2396"
     sodipodi:nodetypes="cscc" />
</svg>
