<?xml version="1.0" encoding="UTF-8" standalone="no"?>
<!-- Created with Inkscape (http://www.inkscape.org/) -->
<svg
   xmlns:dc="http://purl.org/dc/elements/1.1/"
   xmlns:cc="http://creativecommons.org/ns#"
   xmlns:rdf="http://www.w3.org/1999/02/22-rdf-syntax-ns#"
   xmlns:svg="http://www.w3.org/2000/svg"
   xmlns="http://www.w3.org/2000/svg"
   xmlns:sodipodi="http://sodipodi.sourceforge.net/DTD/sodipodi-0.dtd"
   xmlns:inkscape="http://www.inkscape.org/namespaces/inkscape"
   version="1.0"
   width="1000"
   height="1000"
   id="svg5496"
   sodipodi:version="0.32"
   inkscape:version="0.46"
   sodipodi:docname="baa+haa.init.svg"
   inkscape:output_extension="org.inkscape.output.svg.inkscape">
  <metadata
     id="metadata5594">
    <rdf:RDF>
      <cc:Work
         rdf:about="">
        <dc:format>image/svg+xml</dc:format>
        <dc:type
           rdf:resource="http://purl.org/dc/dcmitype/StillImage" />
      </cc:Work>
    </rdf:RDF>
  </metadata>
  <sodipodi:namedview
     inkscape:pageshadow="2"
     inkscape:pageopacity="0.0"
     guidetolerance="10.0"
     gridtolerance="10.0"
     objecttolerance="10.0"
     borderopacity="1.0"
     bordercolor="#666666"
     pagecolor="#ffffff"
     id="base"
     showgrid="false"
     showguides="true"
     inkscape:guide-bbox="true"
     inkscape:zoom="0.908"
     inkscape:cx="163.37049"
     inkscape:cy="408.3168"
     inkscape:window-x="0"
     inkscape:window-y="25"
     inkscape:current-layer="svg5496">
    <sodipodi:guide
       orientation="horizontal"
       position="200"
       id="guide5596" />
  </sodipodi:namedview>
  <defs
     id="defs5498">
    <inkscape:perspective
       sodipodi:type="inkscape:persp3d"
       inkscape:vp_x="0 : 500 : 1"
       inkscape:vp_y="0 : 1000 : 0"
       inkscape:vp_z="1000 : 500 : 1"
       inkscape:persp3d-origin="500 : 333.33333 : 1"
       id="perspective8" />
    <inkscape:perspective
       id="perspective2477"
       inkscape:persp3d-origin="372.04724 : 350.78739 : 1"
       inkscape:vp_z="744.09448 : 526.18109 : 1"
       inkscape:vp_y="0 : 1000 : 0"
       inkscape:vp_x="0 : 526.18109 : 1"
       sodipodi:type="inkscape:persp3d" />
    <inkscape:perspective
       id="perspective2574"
       inkscape:persp3d-origin="372.04724 : 350.78739 : 1"
       inkscape:vp_z="744.09448 : 526.18109 : 1"
       inkscape:vp_y="0 : 1000 : 0"
       inkscape:vp_x="0 : 526.18109 : 1"
       sodipodi:type="inkscape:persp3d" />
  </defs>
  <g
     id="layer1" />
  <path
     style="fill:none;fill-rule:evenodd;stroke:#000000;stroke-width:1px;stroke-linecap:butt;stroke-linejoin:miter;stroke-opacity:1"
     d="M 334.44352,506.24952 C 334.56025,527.17235 360.88542,522.15961 360.87384,505.10096 C 360.84984,469.73952 352.93281,334.23872 310.80563,335.77746 C 280.72291,336.84781 274.56999,389.51175 254.84353,416.91625 C 238.92107,439.03612 210.78873,474.57014 175.73031,493.67986 C 45.903896,564.44594 -11.810532,557.93199 -12.315514,647.27824 C 53.657976,643.74282 114.36737,658.05424 167.35834,677.02211 C 171.76269,678.59863 170.48238,681.07698 166.66525,682.64227 C 117.15959,702.94305 58.201916,715.9442 -0.32342608,719.78855 L -6.7051891,800 C 94.927606,765.39046 252.5621,684.02336 404.25923,710.09028 C 410.23473,711.11708 417.25324,705.45165 419.23905,700.02912 L 433.68013,660.59562 C 437.8729,649.14664 429.15626,642.39814 421.04672,642.04305 C 314.33415,637.37053 222.38189,615.24496 121.95009,585.57394 C 116.80475,584.05383 118.45951,581.17234 121.94842,579.12568 C 150.92879,562.12527 182.33916,540.23697 215.14561,508.9825 C 238.49634,486.73643 266.70871,451.50471 284.67851,428.54145 C 289.72107,422.09766 296.89457,422.29053 300.40652,422.72234 C 324.70381,425.7098 334.23123,468.19818 334.44352,506.24952 z"
     id="path2483"
     sodipodi:nodetypes="csssscssccssssssssss" />
</svg>
