<?xml version="1.0" encoding="UTF-8" standalone="no"?>
<!-- Created with Inkscape (http://www.inkscape.org/) -->
<svg
   xmlns:dc="http://purl.org/dc/elements/1.1/"
   xmlns:cc="http://creativecommons.org/ns#"
   xmlns:rdf="http://www.w3.org/1999/02/22-rdf-syntax-ns#"
   xmlns:svg="http://www.w3.org/2000/svg"
   xmlns="http://www.w3.org/2000/svg"
   xmlns:sodipodi="http://sodipodi.sourceforge.net/DTD/sodipodi-0.dtd"
   xmlns:inkscape="http://www.inkscape.org/namespaces/inkscape"
   version="1.0"
   width="1000"
   height="1000"
   id="svg5496"
   sodipodi:version="0.32"
   inkscape:version="0.46"
   sodipodi:docname="baa+haa.isol.svg"
   inkscape:output_extension="org.inkscape.output.svg.inkscape">
  <metadata
     id="metadata5594">
    <rdf:RDF>
      <cc:Work
         rdf:about="">
        <dc:format>image/svg+xml</dc:format>
        <dc:type
           rdf:resource="http://purl.org/dc/dcmitype/StillImage" />
      </cc:Work>
    </rdf:RDF>
  </metadata>
  <sodipodi:namedview
     inkscape:pageshadow="2"
     inkscape:pageopacity="0.0"
     guidetolerance="10.0"
     gridtolerance="10.0"
     objecttolerance="10.0"
     borderopacity="1.0"
     bordercolor="#666666"
     pagecolor="#ffffff"
     id="base"
     showgrid="false"
     showguides="true"
     inkscape:guide-bbox="true"
     inkscape:zoom="0.454"
     inkscape:cx="509.20257"
     inkscape:cy="546.26663"
     inkscape:window-x="0"
     inkscape:window-y="25"
     inkscape:current-layer="svg5496">
    <sodipodi:guide
       orientation="horizontal"
       position="200"
       id="guide5596" />
  </sodipodi:namedview>
  <defs
     id="defs5498">
    <inkscape:perspective
       sodipodi:type="inkscape:persp3d"
       inkscape:vp_x="0 : 500 : 1"
       inkscape:vp_y="0 : 1000 : 0"
       inkscape:vp_z="1000 : 500 : 1"
       inkscape:persp3d-origin="500 : 333.33333 : 1"
       id="perspective3282" />
    <inkscape:perspective
       id="perspective3291"
       inkscape:persp3d-origin="372.04724 : 350.78739 : 1"
       inkscape:vp_z="744.09448 : 526.18109 : 1"
       inkscape:vp_y="0 : 1000 : 0"
       inkscape:vp_x="0 : 526.18109 : 1"
       sodipodi:type="inkscape:persp3d" />
    <inkscape:perspective
       sodipodi:type="inkscape:persp3d"
       inkscape:vp_x="0 : 526.18109 : 1"
       inkscape:vp_y="0 : 1000 : 0"
       inkscape:vp_z="744.09448 : 526.18109 : 1"
       inkscape:persp3d-origin="372.04724 : 350.78739 : 1"
       id="perspective2574" />
    <inkscape:perspective
       sodipodi:type="inkscape:persp3d"
       inkscape:vp_x="0 : 526.18109 : 1"
       inkscape:vp_y="0 : 1000 : 0"
       inkscape:vp_z="744.09448 : 526.18109 : 1"
       inkscape:persp3d-origin="372.04724 : 350.78739 : 1"
       id="perspective2477" />
    <inkscape:perspective
       id="perspective8"
       inkscape:persp3d-origin="500 : 333.33333 : 1"
       inkscape:vp_z="1000 : 500 : 1"
       inkscape:vp_y="0 : 1000 : 0"
       inkscape:vp_x="0 : 500 : 1"
       sodipodi:type="inkscape:persp3d" />
  </defs>
  <g
     id="layer1"
     transform="matrix(1.3,0,0,1.3,6.3679104,-283.88005)" />
  <path
     style="fill:none;fill-rule:evenodd;stroke:#000000;stroke-width:1px;stroke-linecap:butt;stroke-linejoin:miter;stroke-opacity:1"
     d="M 134.58162,322.36161 C 290.04448,325.54637 446.57294,324.88224 602.00353,316.57641 C 606.9431,316.31246 613.71268,319.34727 611.04299,325.8615 L 585.80549,387.44284 C 580.75617,399.76355 569.60512,398.03047 561.38561,399.59137 C 506.10615,410.08906 417.15896,422.05367 333.25759,455.83645 C 223.83458,499.89551 80.670414,606.4163 77.714773,759.52756 C 75.17456,891.11853 139.71641,958.53188 225.10572,989.50417 C 374.71966,1043.7719 654.09146,1011.3494 763.02244,998.08021 C 779.62017,996.07159 776.06453,1016.7881 768.03346,1021.1912 C 677.11182,1071.0396 530.20428,1126.2117 418.34386,1128.2827 C 291.0151,1130.6401 86.030509,1101.0896 40.921796,909.1138 C 8.1108094,769.4753 47.960906,596.96531 260.78141,418.28438 L 3.7392604,416.15788 C 1.4441884,353.53141 34.367898,322.5122 102.52232,282.16377 C 200.15833,226.19108 290.70824,178.10647 329.52745,80.817693 C 354.63786,15.901868 368.79935,-45.956247 401.22028,-45.775365 C 433.64362,-45.59447 463.93032,12.556487 474.00298,74.395147 C 479.80745,110.0303 477.65364,147.51977 476.22308,177.56309 C 474.70386,209.46829 450.65586,206.70989 447.99933,185.68319 C 443.09015,146.57366 431.23956,60.525369 393.93223,60.644618 C 374.73818,60.705965 363.82868,85.264785 343.06075,128.47745 C 315.39895,176.87045 280.01609,222.44041 237.46141,258.7608 C 208.76961,281.98142 172.58938,303.51118 136.27668,317.51257 C 133.56336,318.55875 130.46017,322.27718 134.58162,322.36161 z"
     id="path3297"
     sodipodi:nodetypes="cssssssssssscccczssssccss" />
  <g
     id="g3371"
     transform="matrix(1.3,0,0,1.3,214.2626,-869.8597)">
    <g
       id="g3373" />
  </g>
</svg>
