<?xml version="1.0" encoding="UTF-8" standalone="no"?>
<!-- Created with Inkscape (http://www.inkscape.org/) -->
<svg
   xmlns:dc="http://purl.org/dc/elements/1.1/"
   xmlns:cc="http://creativecommons.org/ns#"
   xmlns:rdf="http://www.w3.org/1999/02/22-rdf-syntax-ns#"
   xmlns:svg="http://www.w3.org/2000/svg"
   xmlns="http://www.w3.org/2000/svg"
   xmlns:sodipodi="http://sodipodi.sourceforge.net/DTD/sodipodi-0.dtd"
   xmlns:inkscape="http://www.inkscape.org/namespaces/inkscape"
   version="1.0"
   width="1000"
   height="1000"
   id="svg5496"
   sodipodi:version="0.32"
   inkscape:version="0.46"
   sodipodi:docname="baa+haa+meem.init.svg"
   inkscape:output_extension="org.inkscape.output.svg.inkscape">
  <metadata
     id="metadata5594">
    <rdf:RDF>
      <cc:Work
         rdf:about="">
        <dc:format>image/svg+xml</dc:format>
        <dc:type
           rdf:resource="http://purl.org/dc/dcmitype/StillImage" />
      </cc:Work>
    </rdf:RDF>
  </metadata>
  <sodipodi:namedview
     inkscape:pageshadow="2"
     inkscape:pageopacity="0.0"
     guidetolerance="10.0"
     gridtolerance="10.0"
     objecttolerance="10.0"
     borderopacity="1.0"
     bordercolor="#666666"
     pagecolor="#ffffff"
     id="base"
     showgrid="false"
     showguides="true"
     inkscape:guide-bbox="true"
     inkscape:zoom="0.64205296"
     inkscape:cx="242.83949"
     inkscape:cy="467.2293"
     inkscape:window-x="0"
     inkscape:window-y="25"
     inkscape:current-layer="svg5496">
    <sodipodi:guide
       orientation="horizontal"
       position="200"
       id="guide5596" />
  </sodipodi:namedview>
  <defs
     id="defs5498">
    <inkscape:perspective
       sodipodi:type="inkscape:persp3d"
       inkscape:vp_x="0 : 500 : 1"
       inkscape:vp_y="0 : 1000 : 0"
       inkscape:vp_z="1000 : 500 : 1"
       inkscape:persp3d-origin="500 : 333.33333 : 1"
       id="perspective8" />
    <inkscape:perspective
       id="perspective2388"
       inkscape:persp3d-origin="372.04724 : 350.78739 : 1"
       inkscape:vp_z="744.09448 : 526.18109 : 1"
       inkscape:vp_y="0 : 1000 : 0"
       inkscape:vp_x="0 : 526.18109 : 1"
       sodipodi:type="inkscape:persp3d" />
  </defs>
  <g
     id="layer1"
     transform="translate(-20.247551,402.42291)" />
  <path
     style="fill:none;fill-rule:evenodd;stroke:#000000;stroke-width:1px;stroke-linecap:butt;stroke-linejoin:miter;stroke-opacity:1"
     d="M 742.96831,487.22467 C 745.20859,476.50249 743.99653,469.07799 729.04051,470.38228 C 587.05157,484.33865 451.33241,438.11651 318.18075,395.4256 C 420.23655,364.22149 492.24385,262.95343 531.63671,268.77362 C 573.206,274.91538 556.28238,348.07777 568.9595,379.29516 C 574.50631,392.95418 592.75111,385.72667 604.13498,371.5191 C 639.07235,327.91575 651.48674,139.78319 568.9595,139.20705 C 519.08198,138.86156 495.76856,226.15167 414.63993,279.6081 C 322.90029,340.05622 200.96722,352.53061 173.12887,376.44737 C 152.34353,394.30468 128.9964,443.40745 120.39904,472.0734 C 196.21786,460.02592 276.18317,472.85744 360.80972,513.65639 C 288.10864,530.89752 218.67881,536.80967 168.40486,569.41952 C 130.28616,594.14494 119.77423,651.7475 114.11368,662.65738 C 104.70001,680.80083 37.275796,697.89643 6.573543,698.87883 L 0.67755899,800 C 26.910427,801.42856 65.144871,787.90571 121.68932,710.47038 C 177.91018,737.79851 279.51579,780.72099 296.47689,774.85856 C 313.43798,768.99614 400.73755,688.53702 305.54322,579.02374 C 450.00719,543.4433 564.47541,544.13889 701.11809,568.72247 C 711.57313,570.60345 737.94058,511.28789 742.96831,487.22467 z"
     id="path2394"
     sodipodi:nodetypes="cccssssssccssccczcss" />
  <path
     style="fill:none;fill-rule:evenodd;stroke:#000000;stroke-width:1px;stroke-linecap:butt;stroke-linejoin:miter;stroke-opacity:1"
     d="M 178.06813,633.27617 C 192.2498,648.03552 244.15099,672.83098 293.57373,686.43997 C 298.85892,687.89529 300.92782,685.72351 300.66429,680.55409 C 301.30106,642.09154 214.88155,597.09595 179.23726,620.32757 C 174.33567,623.94619 173.86842,628.90539 178.06813,633.27617 z"
     id="path2396"
     sodipodi:nodetypes="csccs" />
</svg>
