<?xml version="1.0" encoding="UTF-8" standalone="no"?>
<!-- Created with Inkscape (http://www.inkscape.org/) -->
<svg
   xmlns:dc="http://purl.org/dc/elements/1.1/"
   xmlns:cc="http://creativecommons.org/ns#"
   xmlns:rdf="http://www.w3.org/1999/02/22-rdf-syntax-ns#"
   xmlns:svg="http://www.w3.org/2000/svg"
   xmlns="http://www.w3.org/2000/svg"
   xmlns:sodipodi="http://sodipodi.sourceforge.net/DTD/sodipodi-0.dtd"
   xmlns:inkscape="http://www.inkscape.org/namespaces/inkscape"
   version="1.0"
   width="1000"
   height="1000"
   id="svg5496"
   sodipodi:version="0.32"
   inkscape:version="0.46"
   sodipodi:docname="baa+noon.isol.svg"
   inkscape:output_extension="org.inkscape.output.svg.inkscape">
  <metadata
     id="metadata5594">
    <rdf:RDF>
      <cc:Work
         rdf:about="">
        <dc:format>image/svg+xml</dc:format>
        <dc:type
           rdf:resource="http://purl.org/dc/dcmitype/StillImage" />
      </cc:Work>
    </rdf:RDF>
  </metadata>
  <sodipodi:namedview
     inkscape:pageshadow="2"
     inkscape:pageopacity="0.0"
     guidetolerance="10.0"
     gridtolerance="10.0"
     objecttolerance="10.0"
     borderopacity="1.0"
     bordercolor="#666666"
     pagecolor="#ffffff"
     id="base"
     showgrid="false"
     showguides="true"
     inkscape:guide-bbox="true"
     inkscape:zoom="0.454"
     inkscape:cx="534.55892"
     inkscape:cy="512.02514"
     inkscape:window-x="0"
     inkscape:window-y="25"
     inkscape:current-layer="svg5496">
    <sodipodi:guide
       orientation="horizontal"
       position="200"
       id="guide5596" />
  </sodipodi:namedview>
  <defs
     id="defs5498">
    <inkscape:perspective
       sodipodi:type="inkscape:persp3d"
       inkscape:vp_x="0 : 500 : 1"
       inkscape:vp_y="0 : 1000 : 0"
       inkscape:vp_z="1000 : 500 : 1"
       inkscape:persp3d-origin="500 : 333.33333 : 1"
       id="perspective3413" />
    <inkscape:perspective
       id="perspective3422"
       inkscape:persp3d-origin="372.04724 : 350.78739 : 1"
       inkscape:vp_z="744.09448 : 526.18109 : 1"
       inkscape:vp_y="0 : 1000 : 0"
       inkscape:vp_x="0 : 526.18109 : 1"
       sodipodi:type="inkscape:persp3d" />
  </defs>
  <g
     id="layer1" />
  <path
     style="fill:none;fill-rule:evenodd;stroke:#000000;stroke-width:1px;stroke-linecap:butt;stroke-linejoin:miter;stroke-opacity:1"
     d="M 516.51983,648.95374 C 523.9915,727.50016 506.81998,783.39999 435.60834,799.09055 C 432.10856,799.86168 432.24988,801.99303 431.81293,805.04869 C 424.01974,859.54794 407.69881,932.35188 387.78224,964.58406 C 351.67673,1023.0158 271.73705,1079.892 163.54626,1079.2952 C 52.605838,1078.6832 1.3846877,1011.317 0.86051771,931.71413 C 0.47888771,873.35694 37.419448,785.65217 57.268718,751.10132 C 62.484908,742.0217 73.951708,751.04438 70.484578,758.81057 C 57.358688,788.21193 33.109018,832.68643 33.113388,872.24898 C 33.119468,927.35807 70.600058,984.74952 174.00881,986.78413 C 272.595,988.72386 365.69188,932.62054 388.98514,895.68275 C 391.28382,892.03756 392.32826,888.49184 392.89485,884.36078 C 400.21179,831.01309 387.32687,781.22085 364.53745,733.48017 C 362.33786,728.87234 360.88138,724.96775 362.268,720.06962 C 367.28581,702.34459 380.35114,675.07634 385.39575,664.2916 C 387.45872,659.88124 390.45551,657.97299 394.5957,661.5717 C 406.03762,671.51718 413.72513,683.15469 421.47276,698.18286 C 424.14181,703.36005 427.99626,705.95935 433.05098,708.06637 C 446.81021,713.8018 474.58256,710.31379 482.99018,702.76152 C 491.8876,694.76928 496.29337,669.59353 497.79736,650.05506 C 499.03951,633.91827 515.42436,637.43758 516.51983,648.95374 z"
     id="path3428"
     sodipodi:nodetypes="cssssssssssssssssssss" />
</svg>
