<?xml version="1.0" encoding="UTF-8" standalone="no"?>
<!-- Created with Inkscape (http://www.inkscape.org/) -->
<svg
   xmlns:dc="http://purl.org/dc/elements/1.1/"
   xmlns:cc="http://creativecommons.org/ns#"
   xmlns:rdf="http://www.w3.org/1999/02/22-rdf-syntax-ns#"
   xmlns:svg="http://www.w3.org/2000/svg"
   xmlns="http://www.w3.org/2000/svg"
   xmlns:sodipodi="http://sodipodi.sourceforge.net/DTD/sodipodi-0.dtd"
   xmlns:inkscape="http://www.inkscape.org/namespaces/inkscape"
   version="1.0"
   width="1000"
   height="1000"
   id="svg5496"
   sodipodi:version="0.32"
   inkscape:version="0.46"
   sodipodi:docname="baa+heh.init.svg"
   inkscape:output_extension="org.inkscape.output.svg.inkscape">
  <metadata
     id="metadata5594">
    <rdf:RDF>
      <cc:Work
         rdf:about="">
        <dc:format>image/svg+xml</dc:format>
        <dc:type
           rdf:resource="http://purl.org/dc/dcmitype/StillImage" />
      </cc:Work>
    </rdf:RDF>
  </metadata>
  <sodipodi:namedview
     inkscape:pageshadow="2"
     inkscape:pageopacity="0.0"
     guidetolerance="10.0"
     gridtolerance="10.0"
     objecttolerance="10.0"
     borderopacity="1.0"
     bordercolor="#666666"
     pagecolor="#ffffff"
     id="base"
     showgrid="false"
     showguides="true"
     inkscape:guide-bbox="true"
     inkscape:zoom="0.64205296"
     inkscape:cx="358.38641"
     inkscape:cy="511.89086"
     inkscape:window-x="0"
     inkscape:window-y="25"
     inkscape:current-layer="svg5496">
    <sodipodi:guide
       orientation="horizontal"
       position="200"
       id="guide5596" />
  </sodipodi:namedview>
  <defs
     id="defs5498">
    <inkscape:perspective
       sodipodi:type="inkscape:persp3d"
       inkscape:vp_x="0 : 500 : 1"
       inkscape:vp_y="0 : 1000 : 0"
       inkscape:vp_z="1000 : 500 : 1"
       inkscape:persp3d-origin="500 : 333.33333 : 1"
       id="perspective5174" />
    <inkscape:perspective
       id="perspective5183"
       inkscape:persp3d-origin="372.04724 : 350.78739 : 1"
       inkscape:vp_z="744.09448 : 526.18109 : 1"
       inkscape:vp_y="0 : 1000 : 0"
       inkscape:vp_x="0 : 526.18109 : 1"
       sodipodi:type="inkscape:persp3d" />
  </defs>
  <g
     id="layer1"
     transform="translate(-258.54565,524.23932)" />
  <path
     style="fill:none;fill-rule:evenodd;stroke:#000000;stroke-width:1px;stroke-linecap:butt;stroke-linejoin:miter;stroke-opacity:1"
     d="M 351.99589,747.82361 C 338.656,720.82026 322.19984,711.84141 290.08998,713.35002 C 217.55029,716.79996 154.97969,754.73719 140.17536,788.31872 C 108.21961,860.80579 124.57278,925.48665 143.67973,975.99794 C 145.16929,979.93575 146.23356,983.10425 143.67974,986.90047 L 114.86592,1029.7318 C 112.62323,1033.0655 110.89155,1039.3531 106.29965,1034.015 C 51.558379,970.37795 50.010349,872.29678 73.202689,772.3543 C 47.713829,791.13255 14.839539,797.77723 0.77874866,800 L 0.77874866,725.23981 C 30.203019,720.19218 58.785789,709.53841 82.937079,693.31097 C 102.60206,680.09792 115.80373,649.35665 132.77721,626.72768 C 144.66862,610.87411 157.63327,621.61397 151.85663,631.78957 C 136.84563,658.23156 116.60052,699.19441 102.45399,741.85498 C 86.475769,790.03924 77.974009,840.08564 87.901629,868.14078 C 88.313189,869.30383 89.635549,869.14471 90.212829,867.6965 C 135.56439,753.92383 183.8808,700.65413 238.73157,670.95468 C 287.93585,644.31258 333.21133,637.55257 370.56378,652.10393 C 383.69686,657.22017 399.06936,667.78741 399.88987,685.92864 C 400.60637,701.77003 393.84469,724.03712 374.96908,745.87674 C 367.10938,754.97063 357.27092,755.45399 351.99589,747.82361 z"
     id="path5189"
     sodipodi:nodetypes="csssssscccssssssssssc" />
</svg>
