<?xml version="1.0" encoding="UTF-8" standalone="no"?>
<!-- Created with Inkscape (http://www.inkscape.org/) -->

<svg
   xmlns:dc="http://purl.org/dc/elements/1.1/"
   xmlns:cc="http://creativecommons.org/ns#"
   xmlns:rdf="http://www.w3.org/1999/02/22-rdf-syntax-ns#"
   xmlns:svg="http://www.w3.org/2000/svg"
   xmlns="http://www.w3.org/2000/svg"
   xmlns:sodipodi="http://sodipodi.sourceforge.net/DTD/sodipodi-0.dtd"
   xmlns:inkscape="http://www.inkscape.org/namespaces/inkscape"
   version="1.0"
   width="1000"
   height="1000"
   id="svg5496"
   sodipodi:version="0.32"
   inkscape:version="0.47pre0 r21549"
   sodipodi:docname="baa+seen.alt.init.svg"
   inkscape:output_extension="org.inkscape.output.svg.inkscape">
  <metadata
     id="metadata5594">
    <rdf:RDF>
      <cc:Work
         rdf:about="">
        <dc:format>image/svg+xml</dc:format>
        <dc:type
           rdf:resource="http://purl.org/dc/dcmitype/StillImage" />
        <dc:title></dc:title>
      </cc:Work>
    </rdf:RDF>
  </metadata>
  <sodipodi:namedview
     inkscape:window-height="717"
     inkscape:pageshadow="2"
     inkscape:pageopacity="0.0"
     borderopacity="1.0"
     bordercolor="#666666"
     pagecolor="#ffffff"
     id="base"
     showgrid="false"
     showguides="true"
     inkscape:guide-bbox="true"
     inkscape:zoom="0.454"
     inkscape:cx="901.12702"
     inkscape:cy="663.83322"
     inkscape:window-x="0"
     inkscape:window-y="28"
     inkscape:current-layer="svg5496"
     inkscape:
     inkscape:window-maximized="1">
    <sodipodi:guide
       orientation="horizontal"
       position="200"
       id="guide5596" />
  </sodipodi:namedview>
  <defs
     id="defs5498">
    <inkscape:perspective
       sodipodi:type="inkscape:persp3d"
       inkscape:vp_x="0 : 500 : 1"
       inkscape:vp_y="0 : 1000 : 0"
       inkscape:vp_z="1000 : 500 : 1"
       inkscape:persp3d-origin="500 : 333.33333 : 1"
       id="perspective3749" />
    <inkscape:perspective
       id="perspective3738"
       inkscape:persp3d-origin="0.5 : 0.33333333 : 1"
       inkscape:vp_z="1 : 0.5 : 1"
       inkscape:vp_y="0 : 1000 : 0"
       inkscape:vp_x="0 : 0.5 : 1"
       sodipodi:type="inkscape:persp3d" />
    <inkscape:perspective
       sodipodi:type="inkscape:persp3d"
       inkscape:vp_x="0 : 526.18109 : 1"
       inkscape:vp_y="0 : 1000 : 0"
       inkscape:vp_z="744.09448 : 526.18109 : 1"
       inkscape:persp3d-origin="372.04724 : 350.78739 : 1"
       id="perspective2388" />
    <inkscape:perspective
       id="perspective8"
       inkscape:persp3d-origin="500 : 333.33333 : 1"
       inkscape:vp_z="1000 : 500 : 1"
       inkscape:vp_y="0 : 1000 : 0"
       inkscape:vp_x="0 : 500 : 1"
       sodipodi:type="inkscape:persp3d" />
  </defs>
  <g
     id="layer1"
     transform="translate(-502.20264,128.25)" />
  <path
     style="color:#000000;fill:none;stroke:#000000;stroke-width:1px;stroke-linecap:butt;stroke-linejoin:miter;stroke-miterlimit:4;stroke-opacity:1;stroke-dasharray:none;stroke-dashoffset:0;marker:none;visibility:visible;display:inline;overflow:visible;enable-background:accumulate"
     d="m 405.14111,366.125 c -2.69304,-0.0172 -5.13702,1.48331 -6.3125,5.1875 -9.50788,29.96132 -16.22385,63.81528 -20.5,92.3125 -0.32034,2.13477 -0.36059,4.389 1.125,7.25 21.55988,41.52078 37.78659,83.47343 49.31698,122.65447 13.12268,44.59172 22.88805,92.99165 22.05802,118.28303 -0.0855,2.60506 -0.97005,5.12067 -2.09375,5.96875 -32.24348,24.33491 -108.07474,-38.38487 -141.1875,-90.09375 -3.76136,-5.87374 -7.79814,-4.12369 -9.65625,0.96875 -11.13182,30.5084 -31.74092,86.7944 -46.65625,93.46875 -29.71846,13.29848 -77.9203,-15.16332 -91.21875,-29.1875 -4.56609,-4.81527 -6.13852,-15.19161 -4.08187,-25.02406 2.15026,-10.27998 7.88686,-20.52813 11.76937,-32.03844 2.96481,-8.78962 -9.05168,-18.25092 -15.5625,-3.5 -20.78103,47.08152 -33.91692,85.78218 -146.2187532,87.40625 L -6.1401432,800 c 32.4135802,0.16708 65.6816102,-8.35571 100.0937502,-43.375 30.129093,31.2113 76.322183,59.12827 112.906253,56.21875 37.2448,-2.96206 72.53027,-75.1661 90.4375,-112.84375 2.28852,-4.81514 4.91796,-4.655 6.75,0.1875 13.08766,34.59376 70.44689,108.85504 127.15625,99.75 19.83654,-3.18488 48.53398,-83.30574 49.375,-128.03125 0.55619,-29.57852 -0.49105,-64.62445 -6.15625,-100.5 -12.47127,-78.97564 -38.85938,-161.94344 -60.03125,-199.3125 -1.94127,-3.4264 -5.78753,-5.94659 -9.25,-5.96875 z"
     id="path3861"
     sodipodi:nodetypes="cssssssssssssscccsssssssc" />
</svg>
