<?xml version="1.0" encoding="UTF-8" standalone="no"?>
<!-- Created with Inkscape (http://www.inkscape.org/) -->

<svg
   xmlns:dc="http://purl.org/dc/elements/1.1/"
   xmlns:cc="http://creativecommons.org/ns#"
   xmlns:rdf="http://www.w3.org/1999/02/22-rdf-syntax-ns#"
   xmlns:svg="http://www.w3.org/2000/svg"
   xmlns="http://www.w3.org/2000/svg"
   xmlns:sodipodi="http://sodipodi.sourceforge.net/DTD/sodipodi-0.dtd"
   xmlns:inkscape="http://www.inkscape.org/namespaces/inkscape"
   version="1.0"
   width="1000"
   height="1000"
   id="svg5496"
   sodipodi:version="0.32"
   inkscape:version="0.47pre0 r21549"
   sodipodi:docname="New document 1"
   inkscape:output_extension="org.inkscape.output.svg.inkscape">
  <metadata
     id="metadata5594">
    <rdf:RDF>
      <cc:Work
         rdf:about="">
        <dc:format>image/svg+xml</dc:format>
        <dc:type
           rdf:resource="http://purl.org/dc/dcmitype/StillImage" />
        <dc:title></dc:title>
      </cc:Work>
    </rdf:RDF>
  </metadata>
  <sodipodi:namedview
     inkscape:window-height="618"
     inkscape:pageshadow="2"
     inkscape:pageopacity="0.0"
     borderopacity="1.0"
     bordercolor="#666666"
     pagecolor="#ffffff"
     id="base"
     showgrid="false"
     showguides="true"
     inkscape:guide-bbox="true"
     inkscape:zoom="0.454"
     inkscape:cx="580.89573"
     inkscape:cy="556.39976"
     inkscape:window-x="0"
     inkscape:window-y="25"
     inkscape:current-layer="svg5496">
    <sodipodi:guide
       orientation="horizontal"
       position="200"
       id="guide5596" />
  </sodipodi:namedview>
  <defs
     id="defs5498">
    <inkscape:perspective
       sodipodi:type="inkscape:persp3d"
       inkscape:vp_x="0 : 500 : 1"
       inkscape:vp_y="0 : 1000 : 0"
       inkscape:vp_z="1000 : 500 : 1"
       inkscape:persp3d-origin="500 : 333.33333 : 1"
       id="perspective8" />
    <inkscape:perspective
       id="perspective2822"
       inkscape:persp3d-origin="0.5 : 0.33333333 : 1"
       inkscape:vp_z="1 : 0.5 : 1"
       inkscape:vp_y="0 : 1000 : 0"
       inkscape:vp_x="0 : 0.5 : 1"
       sodipodi:type="inkscape:persp3d" />
  </defs>
  <g
     id="layer1"
     transform="translate(40.281938,293.33895)" />
  <path
     style="color:#000000;fill:#000000;stroke:#000000;stroke-width:1px;stroke-linecap:butt;stroke-linejoin:miter;stroke-miterlimit:4;stroke-opacity:1;stroke-dasharray:none;stroke-dashoffset:0;marker:none;visibility:visible;display:inline;overflow:visible;enable-background:accumulate"
     d="m 750.95693,798 c -28.6208,4.3669 -54.61547,-10.83244 -68.58598,-35.68731 -14.88397,-26.47999 -30.18229,-118.13991 -43.9483,-185.14828 -0.81333,-3.95898 -2.28784,-4.12081 -3.97211,-0.64543 -14.89412,30.73297 -40.60436,71.89599 -94.16768,79.98648 -4.0963,0.61873 -3.59324,1.52678 -3.46848,5.23107 1.29742,38.52036 2.82778,96.32086 -18.40983,156.15929 C 484.65052,913.00011 394.30136,1003.3213 223.10132,1009.198 -16.870355,1017.3976 -13.512807,841.74636 7.24229,758.09666 18.905199,711.09139 40.671823,663.29721 68.365638,619.8808 83.00529,596.92979 101.37592,602.55196 88.74009,627.0394 73.34538,656.87335 24.672082,749.61121 53.4771,822.20889 c 18.193795,45.85407 79.9295,90.59309 181.73876,83.46486 148.60426,-10.4046 234.36884,-65.14609 262.15458,-117.67627 0.87931,-1.66237 1.62595,-4.18188 2.00537,-6.01794 5.28736,-25.58644 -13.78734,-118.84229 -43.86421,-170.33865 -3.44605,-5.90018 -0.64653,-9.22838 0.7576,-13.55779 l 22.60284,-69.69213 c 1.78708,-5.51015 1.23459,-6.14119 6.24816,-3.56592 15.85144,8.14225 27.70218,41.76995 37.94144,44.75666 20.62263,6.01546 74.95963,-3.24031 89.64718,-20.79421 16.60554,-19.8462 24.24632,-41.12406 35.27823,-62.47718 3.89394,-7.53703 11.77211,-5.40103 15.24037,0.83797 16.37192,29.45128 25.97197,139.48451 45.68537,193.45157 8.31371,22.75945 20.30606,33.93538 40.62025,29.03865 L 750.95693,798 z"
     id="path2828"
     sodipodi:nodetypes="cssssssssssssssssssssssscc" />
</svg>
