<?xml version="1.0" encoding="UTF-8" standalone="no"?>
<!-- Created with Inkscape (http://www.inkscape.org/) -->
<svg
   xmlns:dc="http://purl.org/dc/elements/1.1/"
   xmlns:cc="http://creativecommons.org/ns#"
   xmlns:rdf="http://www.w3.org/1999/02/22-rdf-syntax-ns#"
   xmlns:svg="http://www.w3.org/2000/svg"
   xmlns="http://www.w3.org/2000/svg"
   xmlns:sodipodi="http://sodipodi.sourceforge.net/DTD/sodipodi-0.dtd"
   xmlns:inkscape="http://www.inkscape.org/namespaces/inkscape"
   version="1.0"
   width="1000"
   height="1000"
   id="svg5496"
   sodipodi:version="0.32"
   inkscape:version="0.46"
   sodipodi:docname="baa+seen.init.svg"
   inkscape:output_extension="org.inkscape.output.svg.inkscape">
  <metadata
     id="metadata5594">
    <rdf:RDF>
      <cc:Work
         rdf:about="">
        <dc:format>image/svg+xml</dc:format>
        <dc:type
           rdf:resource="http://purl.org/dc/dcmitype/StillImage" />
      </cc:Work>
    </rdf:RDF>
  </metadata>
  <sodipodi:namedview
     inkscape:pageshadow="2"
     inkscape:pageopacity="0.0"
     guidetolerance="10.0"
     gridtolerance="10.0"
     objecttolerance="10.0"
     borderopacity="1.0"
     bordercolor="#666666"
     pagecolor="#ffffff"
     id="base"
     showgrid="false"
     showguides="true"
     inkscape:guide-bbox="true"
     inkscape:zoom="0.51"
     inkscape:cx="500"
     inkscape:cy="500"
     inkscape:window-x="0"
     inkscape:window-y="25"
     inkscape:current-layer="svg5496">
    <sodipodi:guide
       orientation="horizontal"
       position="200"
       id="guide5596" />
  </sodipodi:namedview>
  <defs
     id="defs5498">
    <inkscape:perspective
       sodipodi:type="inkscape:persp3d"
       inkscape:vp_x="0 : 500 : 1"
       inkscape:vp_y="0 : 1000 : 0"
       inkscape:vp_z="1000 : 500 : 1"
       inkscape:persp3d-origin="500 : 333.33333 : 1"
       id="perspective8" />
    <inkscape:perspective
       id="perspective2388"
       inkscape:persp3d-origin="372.04724 : 350.78739 : 1"
       inkscape:vp_z="744.09448 : 526.18109 : 1"
       inkscape:vp_y="0 : 1000 : 0"
       inkscape:vp_x="0 : 526.18109 : 1"
       sodipodi:type="inkscape:persp3d" />
  </defs>
  <g
     id="layer1"
     transform="matrix(1.3,0,0,1.3,-244.36598,-182.55101)" />
  <path
     style="fill:none;fill-rule:evenodd;stroke:#000000;stroke-width:1.29999995px;stroke-linecap:butt;stroke-linejoin:miter;stroke-opacity:1"
     d="M 660.78778,286.77431 C 656.03788,277.67969 650.44954,277.30978 645.89602,283.33151 C 630.46166,303.74235 618.40492,326.64219 607.85992,349.08545 C 605.15362,354.84538 607.89169,361.60863 612.44356,370.11012 C 652.70214,445.30065 690.43488,576.30664 702.71214,642.21586 C 704.40508,651.3042 698.95447,652.5733 694.94312,651.95743 C 635.28313,642.7977 590.34365,615.10611 562.40241,558.99194 C 556.61792,547.375 545.74529,543.09976 540.49259,557.53128 L 493.75164,661.72466 C 490.64391,668.65231 485.37903,674.10658 477.19754,671.94926 C 445.83214,663.67867 427.62413,648.20351 400.26972,632.51157 C 393.20446,628.45857 393.83271,622.64159 394.91398,618.87878 L 407.0861,576.51979 C 409.91538,566.67392 394.22751,555.0246 387.12382,570.1903 C 365.0898,617.23077 306.51821,678.73875 265.36799,680.79672 C 245.58077,681.7863 178.30772,660.67523 172.34849,642.59355 C 169.72112,634.62154 178.75033,613.54461 187.09048,595.50832 C 191.50346,585.96489 175.8696,572.81465 168.02559,587.47471 C 117.32748,674.95756 61.962783,686.4715 1.0240478,694.58941 L 1.0240478,800 C 45.200349,800.4987 101.34284,756.90916 126.58862,722.79549 C 127.9539,720.95064 130.2205,720.90781 131.7455,723.23925 C 149.35159,750.15586 167.94721,781.44386 209.41081,788.76703 C 249.53964,795.85447 299.07794,756.53932 331.51179,715.01001 C 334.38608,711.32969 337.33361,713.0183 341.60008,716.25578 C 372.69648,739.8524 418.22703,764.52873 446.7082,771.03531 C 459.38693,773.93179 472.955,771.93343 481.81379,762.74622 C 502.36163,741.43662 530.21279,679.52784 542.44013,649.30911 C 543.45279,646.8064 545.98174,648.14005 546.89178,649.46993 C 576.3178,692.47147 618.32081,731.38438 677.35619,745.55242 C 681.85558,746.63224 688.74664,745.75196 691.54476,743.82397 C 718.72598,725.09526 736.96259,673.59429 739.3851,655.88205 C 753.82328,550.31697 694.68709,351.68118 660.78778,286.77431 z"
     id="path2394"
     sodipodi:nodetypes="csssssscssssssssscccsszssssssssss" />
</svg>
