<?xml version="1.0" encoding="UTF-8" standalone="no"?>
<!-- Created with Inkscape (http://www.inkscape.org/) -->
<svg
   xmlns:dc="http://purl.org/dc/elements/1.1/"
   xmlns:cc="http://creativecommons.org/ns#"
   xmlns:rdf="http://www.w3.org/1999/02/22-rdf-syntax-ns#"
   xmlns:svg="http://www.w3.org/2000/svg"
   xmlns="http://www.w3.org/2000/svg"
   xmlns:sodipodi="http://sodipodi.sourceforge.net/DTD/sodipodi-0.dtd"
   xmlns:inkscape="http://www.inkscape.org/namespaces/inkscape"
   version="1.0"
   width="1000"
   height="1000"
   id="svg5496"
   sodipodi:version="0.32"
   inkscape:version="0.46"
   sodipodi:docname="baa+heh.init.svg"
   inkscape:output_extension="org.inkscape.output.svg.inkscape">
  <metadata
     id="metadata5594">
    <rdf:RDF>
      <cc:Work
         rdf:about="">
        <dc:format>image/svg+xml</dc:format>
        <dc:type
           rdf:resource="http://purl.org/dc/dcmitype/StillImage" />
      </cc:Work>
    </rdf:RDF>
  </metadata>
  <sodipodi:namedview
     inkscape:pageshadow="2"
     inkscape:pageopacity="0.0"
     guidetolerance="10.0"
     gridtolerance="10.0"
     objecttolerance="10.0"
     borderopacity="1.0"
     bordercolor="#666666"
     pagecolor="#ffffff"
     id="base"
     showgrid="false"
     showguides="true"
     inkscape:guide-bbox="true"
     inkscape:zoom="0.236"
     inkscape:cx="500"
     inkscape:cy="500"
     inkscape:window-x="0"
     inkscape:window-y="25"
     inkscape:current-layer="svg5496">
    <sodipodi:guide
       orientation="horizontal"
       position="200"
       id="guide5596" />
  </sodipodi:namedview>
  <defs
     id="defs5498">
    <inkscape:perspective
       sodipodi:type="inkscape:persp3d"
       inkscape:vp_x="0 : 500 : 1"
       inkscape:vp_y="0 : 1000 : 0"
       inkscape:vp_z="1000 : 500 : 1"
       inkscape:persp3d-origin="500 : 333.33333 : 1"
       id="perspective5174" />
    <inkscape:perspective
       id="perspective5183"
       inkscape:persp3d-origin="372.04724 : 350.78739 : 1"
       inkscape:vp_z="744.09448 : 526.18109 : 1"
       inkscape:vp_y="0 : 1000 : 0"
       inkscape:vp_x="0 : 526.18109 : 1"
       sodipodi:type="inkscape:persp3d" />
  </defs>
  <g
     id="layer1"
     transform="matrix(1.3,0,0,1.3,-336.89526,441.51112)" />
  <path
     style="fill:none;fill-rule:evenodd;stroke:#000000;stroke-width:1.29999995px;stroke-linecap:butt;stroke-linejoin:miter;stroke-opacity:1"
     d="M 456.80875,732.1707 C 439.46689,697.06634 418.07388,685.39384 376.33106,687.35503 C 282.02947,691.83995 200.68769,741.15835 181.44206,784.81434 C 139.89959,879.04753 161.1587,963.13265 185.99774,1028.7973 C 187.93417,1033.9165 189.31772,1038.0355 185.99775,1042.9706 L 148.53979,1098.6513 C 145.62429,1102.9851 143.37311,1111.159 137.40364,1104.2195 C 66.239985,1021.4913 64.227546,893.98582 94.377589,764.06059 C 61.24207,788.47232 18.505494,797.1104 0.2264659,800 L 0.2264659,702.81176 C 38.478018,696.24984 75.635619,682.39994 107.0323,661.30427 C 132.59677,644.1273 149.75894,604.16365 171.82446,574.74599 C 187.28329,554.13635 204.13734,568.09817 196.62771,581.32645 C 177.11341,615.70103 150.79477,668.95274 132.40428,724.41148 C 111.63259,787.05102 100.5803,852.11134 113.48621,888.58302 C 114.02124,890.09498 115.74031,889.88813 116.49077,888.00545 C 175.4478,740.10098 238.25913,670.85037 309.56513,632.24109 C 373.53069,597.60636 432.38882,588.81835 480.947,607.73511 C 498.02001,614.38623 518.00426,628.12364 519.07092,651.70724 C 520.00237,672.30104 511.21219,701.24826 486.67389,729.63977 C 476.45628,741.46182 463.66628,742.09019 456.80875,732.1707 z"
     id="path5189"
     sodipodi:nodetypes="csssssscccssssssssssc" />
</svg>
