<?xml version="1.0" encoding="UTF-8" standalone="no"?>
<!-- Created with Inkscape (http://www.inkscape.org/) -->
<svg
   xmlns:dc="http://purl.org/dc/elements/1.1/"
   xmlns:cc="http://creativecommons.org/ns#"
   xmlns:rdf="http://www.w3.org/1999/02/22-rdf-syntax-ns#"
   xmlns:svg="http://www.w3.org/2000/svg"
   xmlns="http://www.w3.org/2000/svg"
   xmlns:sodipodi="http://sodipodi.sourceforge.net/DTD/sodipodi-0.dtd"
   xmlns:inkscape="http://www.inkscape.org/namespaces/inkscape"
   version="1.0"
   width="1000"
   height="1000"
   id="svg5496"
   sodipodi:version="0.32"
   inkscape:version="0.46"
   sodipodi:docname="baa+seen.init.svg"
   inkscape:output_extension="org.inkscape.output.svg.inkscape">
  <metadata
     id="metadata5594">
    <rdf:RDF>
      <cc:Work
         rdf:about="">
        <dc:format>image/svg+xml</dc:format>
        <dc:type
           rdf:resource="http://purl.org/dc/dcmitype/StillImage" />
      </cc:Work>
    </rdf:RDF>
  </metadata>
  <sodipodi:namedview
     inkscape:pageshadow="2"
     inkscape:pageopacity="0.0"
     guidetolerance="10.0"
     gridtolerance="10.0"
     objecttolerance="10.0"
     borderopacity="1.0"
     bordercolor="#666666"
     pagecolor="#ffffff"
     id="base"
     showgrid="false"
     showguides="true"
     inkscape:guide-bbox="true"
     inkscape:zoom="0.944"
     inkscape:cx="315.7799"
     inkscape:cy="332.32598"
     inkscape:window-x="0"
     inkscape:window-y="25"
     inkscape:current-layer="svg5496">
    <sodipodi:guide
       orientation="horizontal"
       position="200"
       id="guide5596" />
  </sodipodi:namedview>
  <defs
     id="defs5498">
    <inkscape:perspective
       sodipodi:type="inkscape:persp3d"
       inkscape:vp_x="0 : 500 : 1"
       inkscape:vp_y="0 : 1000 : 0"
       inkscape:vp_z="1000 : 500 : 1"
       inkscape:persp3d-origin="500 : 333.33333 : 1"
       id="perspective8" />
    <inkscape:perspective
       id="perspective2388"
       inkscape:persp3d-origin="372.04724 : 350.78739 : 1"
       inkscape:vp_z="744.09448 : 526.18109 : 1"
       inkscape:vp_y="0 : 1000 : 0"
       inkscape:vp_x="0 : 526.18109 : 1"
       sodipodi:type="inkscape:persp3d" />
  </defs>
  <g
     id="layer1"
     transform="translate(-188.55932,73.771186)" />
  <path
     style="fill:none;fill-rule:evenodd;stroke:#000000;stroke-width:1px;stroke-linecap:butt;stroke-linejoin:miter;stroke-opacity:1"
     d="M 507.7128,434.79066 C 504.05903,427.7948 499.76031,427.51025 496.2576,432.14235 C 484.38502,447.843 475.1106,465.45826 466.99906,482.72231 C 464.91729,487.15302 467.0235,492.35552 470.52494,498.89513 C 501.49308,556.734 530.51826,657.50784 539.96231,708.20724 C 541.26457,715.19827 537.07179,716.1745 533.98614,715.70075 C 488.09384,708.65481 453.52501,687.35358 432.03175,644.18884 C 427.58214,635.25273 419.21858,631.96408 415.17804,643.06525 L 379.22346,723.21401 C 376.8329,728.54297 372.78299,732.73856 366.48954,731.07908 C 342.36231,724.71709 328.35615,712.81312 307.31429,700.7424 C 301.87948,697.62471 302.36275,693.15011 303.19449,690.25564 L 312.55766,657.6718 C 314.73403,650.09805 302.66644,641.13704 297.20206,652.80296 C 280.25282,688.98794 235.19775,736.30177 203.54373,737.88482 C 188.32279,738.64604 136.57429,722.40675 131.99027,708.49777 C 129.96922,702.36545 136.91476,686.15243 143.33026,672.27836 C 146.72486,664.93726 134.69882,654.82169 128.66496,666.09866 C 89.666418,733.39316 47.078188,742.25004 0.20223777,748.49458 L 0.20223777,829.57965 C 34.184008,829.96327 77.370538,796.43285 96.790368,770.19157 C 97.840588,768.77245 99.584128,768.73951 100.7572,770.53292 C 114.30035,791.23801 128.60467,815.3057 160.49975,820.93891 C 191.36808,826.39078 229.47446,796.14836 254.42358,764.20274 C 256.63457,761.37172 258.9019,762.67065 262.1838,765.16102 C 286.10411,783.31227 321.12761,802.29406 343.0362,807.29912 C 352.78907,809.52718 363.22605,807.98998 370.0405,800.9229 C 385.84653,784.5309 407.2705,736.90876 416.67615,713.66358 C 417.45512,711.73842 419.40046,712.76431 420.10049,713.78729 C 442.73589,746.8654 475.0459,776.79841 520.45773,787.6969 C 523.9188,788.52753 529.21962,787.85039 531.37202,786.36732 C 552.28065,771.96062 566.30881,732.34449 568.17228,718.71969 C 579.27857,637.51578 533.78919,484.71902 507.7128,434.79066 z"
     id="path2394"
     sodipodi:nodetypes="csssssscssssssssscccsszssssssssss" />
</svg>
