<?xml version="1.0" encoding="UTF-8" standalone="no"?>
<!-- Created with Inkscape (http://www.inkscape.org/) -->
<svg
   xmlns:dc="http://purl.org/dc/elements/1.1/"
   xmlns:cc="http://creativecommons.org/ns#"
   xmlns:rdf="http://www.w3.org/1999/02/22-rdf-syntax-ns#"
   xmlns:svg="http://www.w3.org/2000/svg"
   xmlns="http://www.w3.org/2000/svg"
   xmlns:sodipodi="http://sodipodi.sourceforge.net/DTD/sodipodi-0.dtd"
   xmlns:inkscape="http://www.inkscape.org/namespaces/inkscape"
   version="1.0"
   width="1000"
   height="1000"
   id="svg5496"
   sodipodi:version="0.32"
   inkscape:version="0.46"
   sodipodi:docname="baa+meem.init.svg"
   inkscape:output_extension="org.inkscape.output.svg.inkscape">
  <metadata
     id="metadata5594">
    <rdf:RDF>
      <cc:Work
         rdf:about="">
        <dc:format>image/svg+xml</dc:format>
        <dc:type
           rdf:resource="http://purl.org/dc/dcmitype/StillImage" />
      </cc:Work>
    </rdf:RDF>
  </metadata>
  <sodipodi:namedview
     inkscape:pageshadow="2"
     inkscape:pageopacity="0.0"
     guidetolerance="10.0"
     gridtolerance="10.0"
     objecttolerance="10.0"
     borderopacity="1.0"
     bordercolor="#666666"
     pagecolor="#ffffff"
     id="base"
     showgrid="false"
     showguides="true"
     inkscape:guide-bbox="true"
     inkscape:zoom="0.236"
     inkscape:cx="500"
     inkscape:cy="500"
     inkscape:window-x="0"
     inkscape:window-y="25"
     inkscape:current-layer="svg5496">
    <sodipodi:guide
       orientation="horizontal"
       position="200"
       id="guide5596" />
  </sodipodi:namedview>
  <defs
     id="defs5498">
    <inkscape:perspective
       sodipodi:type="inkscape:persp3d"
       inkscape:vp_x="0 : 500 : 1"
       inkscape:vp_y="0 : 1000 : 0"
       inkscape:vp_z="1000 : 500 : 1"
       inkscape:persp3d-origin="500 : 333.33333 : 1"
       id="perspective8" />
    <inkscape:perspective
       id="perspective2388"
       inkscape:persp3d-origin="372.04724 : 350.78739 : 1"
       inkscape:vp_z="744.09448 : 526.18109 : 1"
       inkscape:vp_y="0 : 1000 : 0"
       inkscape:vp_x="0 : 526.18109 : 1"
       sodipodi:type="inkscape:persp3d" />
  </defs>
  <g
     id="layer1"
     transform="matrix(1.3,0,0,1.3,-443.77435,124.22907)" />
  <path
     style="fill:#000000;fill-rule:evenodd;stroke:#000000;stroke-width:1px;stroke-linecap:butt;stroke-linejoin:miter;stroke-opacity:1"
     d="M 356.55605,426.32157 C 363.7915,432.59267 367.8579,430.48421 371.5891,424.88987 C 387.16632,401.53423 395.75282,376.78043 401.83562,351.5259 C 404.52969,340.34073 397.64614,333.05821 390.91727,326.10131 C 364.64114,298.9347 330.43682,289.84542 296.39698,290.51485 C 261.90569,291.19316 202.64709,330.16164 162.27019,385.30517 C 143.2035,411.34495 129.4597,442.38322 122.47014,472.13656 C 105.53411,544.23035 119.27021,627.71673 145.71013,661.2102 C 121.09797,684.80934 56.255437,711.45138 1.1320315,708.01211 L 1.4899605,800 C 70.711177,805.93322 130.1448,736.8865 183.67608,736.28854 C 228.41354,734.03845 245.3826,748.47204 308.23556,778.52423 C 320.96196,784.60917 323.25799,776.03789 325.05825,769.93391 L 347.96574,692.26321 C 351.00672,681.9524 342.21211,671.21127 334.72236,665.77643 C 292.68076,635.26944 252.61902,626.99178 218.75319,602.78083 C 199.30728,588.8788 162.73164,534.86639 154.07961,493.25883 C 153.22693,489.15832 153.68893,484.77405 155.56755,480.69853 C 172.90768,443.08037 203.81558,417.68032 234.86001,401.98238 C 273.42586,382.48115 315.65013,390.86769 356.55605,426.32157 z"
     id="path2394"
     sodipodi:nodetypes="cssssssccccsssssssss" />
</svg>
