<?xml version="1.0" encoding="UTF-8" standalone="no"?>
<!-- Created with Inkscape (http://www.inkscape.org/) -->
<svg
   xmlns:dc="http://purl.org/dc/elements/1.1/"
   xmlns:cc="http://creativecommons.org/ns#"
   xmlns:rdf="http://www.w3.org/1999/02/22-rdf-syntax-ns#"
   xmlns:svg="http://www.w3.org/2000/svg"
   xmlns="http://www.w3.org/2000/svg"
   xmlns:sodipodi="http://sodipodi.sourceforge.net/DTD/sodipodi-0.dtd"
   xmlns:inkscape="http://www.inkscape.org/namespaces/inkscape"
   version="1.0"
   width="1000"
   height="1000"
   id="svg5496"
   sodipodi:version="0.32"
   inkscape:version="0.46"
   sodipodi:docname="baa+haa.isol.svg"
   inkscape:output_extension="org.inkscape.output.svg.inkscape">
  <metadata
     id="metadata5594">
    <rdf:RDF>
      <cc:Work
         rdf:about="">
        <dc:format>image/svg+xml</dc:format>
        <dc:type
           rdf:resource="http://purl.org/dc/dcmitype/StillImage" />
      </cc:Work>
    </rdf:RDF>
  </metadata>
  <sodipodi:namedview
     inkscape:pageshadow="2"
     inkscape:pageopacity="0.0"
     guidetolerance="10.0"
     gridtolerance="10.0"
     objecttolerance="10.0"
     borderopacity="1.0"
     bordercolor="#666666"
     pagecolor="#ffffff"
     id="base"
     showgrid="false"
     showguides="true"
     inkscape:guide-bbox="true"
     inkscape:zoom="0.454"
     inkscape:cx="327.70246"
     inkscape:cy="546.26663"
     inkscape:window-x="0"
     inkscape:window-y="25"
     inkscape:current-layer="svg5496">
    <sodipodi:guide
       orientation="horizontal"
       position="200"
       id="guide5596" />
  </sodipodi:namedview>
  <defs
     id="defs5498">
    <inkscape:perspective
       sodipodi:type="inkscape:persp3d"
       inkscape:vp_x="0 : 500 : 1"
       inkscape:vp_y="0 : 1000 : 0"
       inkscape:vp_z="1000 : 500 : 1"
       inkscape:persp3d-origin="500 : 333.33333 : 1"
       id="perspective3282" />
    <inkscape:perspective
       id="perspective3291"
       inkscape:persp3d-origin="372.04724 : 350.78739 : 1"
       inkscape:vp_z="744.09448 : 526.18109 : 1"
       inkscape:vp_y="0 : 1000 : 0"
       inkscape:vp_x="0 : 526.18109 : 1"
       sodipodi:type="inkscape:persp3d" />
    <inkscape:perspective
       sodipodi:type="inkscape:persp3d"
       inkscape:vp_x="0 : 526.18109 : 1"
       inkscape:vp_y="0 : 1000 : 0"
       inkscape:vp_z="744.09448 : 526.18109 : 1"
       inkscape:persp3d-origin="372.04724 : 350.78739 : 1"
       id="perspective2574" />
    <inkscape:perspective
       sodipodi:type="inkscape:persp3d"
       inkscape:vp_x="0 : 526.18109 : 1"
       inkscape:vp_y="0 : 1000 : 0"
       inkscape:vp_z="744.09448 : 526.18109 : 1"
       inkscape:persp3d-origin="372.04724 : 350.78739 : 1"
       id="perspective2477" />
    <inkscape:perspective
       id="perspective8"
       inkscape:persp3d-origin="500 : 333.33333 : 1"
       inkscape:vp_z="1000 : 500 : 1"
       inkscape:vp_y="0 : 1000 : 0"
       inkscape:vp_x="0 : 500 : 1"
       sodipodi:type="inkscape:persp3d" />
  </defs>
  <g
     id="layer1"
     transform="translate(0,-93.450235)" />
  <path
     style="fill:none;fill-rule:evenodd;stroke:#000000;stroke-width:1px;stroke-linecap:butt;stroke-linejoin:miter;stroke-opacity:1"
     d="M 98.625932,372.8895 C 218.21274,375.33932 338.61925,374.82845 458.18124,368.43935 C 461.98091,368.23631 467.18828,370.57078 465.13467,375.58173 L 445.72121,422.95199 C 441.83712,432.42946 433.25939,431.09632 426.93669,432.29701 C 384.41403,440.37216 315.99311,449.5757 251.4536,475.56246 C 167.28205,509.45404 57.155772,591.39311 54.882202,709.171 C 52.928192,810.39483 102.57577,862.25125 168.25985,886.07609 C 283.3475,927.82053 498.24888,902.8801 582.04194,892.67304 C 594.80943,891.12795 592.07432,907.06372 585.89657,910.45072 C 515.95685,948.79565 402.95105,991.23572 316.90457,992.8288 C 218.95937,994.64217 61.278922,971.91102 26.579912,824.23734 C 1.3406916,716.82311 31.994612,584.12312 195.70269,446.67625 L -2.0220384,445.04048 C -3.7874784,396.86627 21.538452,373.00534 73.964932,341.96809 C 149.06955,298.91217 218.72333,261.92401 248.58426,187.08649 C 267.89996,137.15124 278.79341,89.568075 303.73259,89.707215 C 328.67362,89.846365 351.97108,134.57787 359.71928,182.14607 C 364.18426,209.55773 362.52748,238.39578 361.42705,261.50603 C 360.25842,286.04849 341.75996,283.92664 339.71647,267.75226 C 335.94018,237.668 326.82434,171.47701 298.1264,171.56874 C 283.36174,171.61593 274.96982,190.50733 258.99449,223.74784 C 237.71618,260.97323 210.4986,296.02704 177.76423,323.9658 C 155.69361,341.82782 127.86267,358.38917 99.929822,369.15947 C 97.842652,369.96423 95.455582,372.82456 98.625932,372.8895 z"
     id="path3297"
     sodipodi:nodetypes="cssssssssssscccczssssccss" />
  <g
     id="g3371"
     transform="translate(159.91899,-544.20381)">
    <g
       id="g3373" />
  </g>
</svg>
