<?xml version="1.0" encoding="UTF-8" standalone="no"?>
<!-- Created with Inkscape (http://www.inkscape.org/) -->

<svg
   xmlns:dc="http://purl.org/dc/elements/1.1/"
   xmlns:cc="http://creativecommons.org/ns#"
   xmlns:rdf="http://www.w3.org/1999/02/22-rdf-syntax-ns#"
   xmlns:svg="http://www.w3.org/2000/svg"
   xmlns="http://www.w3.org/2000/svg"
   xmlns:sodipodi="http://sodipodi.sourceforge.net/DTD/sodipodi-0.dtd"
   xmlns:inkscape="http://www.inkscape.org/namespaces/inkscape"
   version="1.0"
   width="1000"
   height="1000"
   id="svg5496"
   sodipodi:version="0.32"
   inkscape:version="0.47pre0 r21549"
   sodipodi:docname="baa+haa+meem.init.svg"
   inkscape:output_extension="org.inkscape.output.svg.inkscape">
  <metadata
     id="metadata5594">
    <rdf:RDF>
      <cc:Work
         rdf:about="">
        <dc:format>image/svg+xml</dc:format>
        <dc:type
           rdf:resource="http://purl.org/dc/dcmitype/StillImage" />
      </cc:Work>
    </rdf:RDF>
  </metadata>
  <sodipodi:namedview
     inkscape:pageshadow="2"
     inkscape:pageopacity="0.0"
     guidetolerance="10.0"
     gridtolerance="10.0"
     objecttolerance="10.0"
     borderopacity="1.0"
     bordercolor="#666666"
     pagecolor="#ffffff"
     id="base"
     showgrid="false"
     showguides="true"
     inkscape:guide-bbox="true"
     inkscape:zoom="0.236"
     inkscape:cx="431.48305"
     inkscape:cy="500"
     inkscape:window-x="0"
     inkscape:window-y="25"
     inkscape:current-layer="svg5496">
    <sodipodi:guide
       orientation="horizontal"
       position="200"
       id="guide5596" />
  </sodipodi:namedview>
  <defs
     id="defs5498">
    <inkscape:perspective
       sodipodi:type="inkscape:persp3d"
       inkscape:vp_x="0 : 500 : 1"
       inkscape:vp_y="0 : 1000 : 0"
       inkscape:vp_z="1000 : 500 : 1"
       inkscape:persp3d-origin="500 : 333.33333 : 1"
       id="perspective8" />
    <inkscape:perspective
       id="perspective2388"
       inkscape:persp3d-origin="372.04724 : 350.78739 : 1"
       inkscape:vp_z="744.09448 : 526.18109 : 1"
       inkscape:vp_y="0 : 1000 : 0"
       inkscape:vp_x="0 : 526.18109 : 1"
       sodipodi:type="inkscape:persp3d" />
  </defs>
  <g
     id="layer1"
     transform="translate(-20.247551,402.42291)" />
  <path
     style="fill:#000000;fill-rule:evenodd;stroke:#000000;stroke-width:1px;stroke-linecap:butt;stroke-linejoin:miter;stroke-opacity:1"
     d="M 568.96875 139.21875 C 519.09123 138.87326 495.75363 226.13732 414.625 279.59375 C 322.88536 340.04187 200.96335 352.52074 173.125 376.4375 C 152.33966 394.29481 129.00361 443.39655 120.40625 472.0625 C 196.22507 460.01502 276.18595 472.8573 360.8125 513.65625 C 288.11142 530.89738 218.6802 536.7964 168.40625 569.40625 C 130.28755 594.13167 119.78555 651.74637 114.125 662.65625 C 104.71133 680.7997 37.264753 697.8926 6.5625 698.875 L 0.6875 800 C 26.920368 801.42856 65.143051 787.90408 121.6875 710.46875 C 177.90836 737.79688 279.50765 780.70618 296.46875 774.84375 C 313.42984 768.98133 400.72558 688.54453 305.53125 579.03125 C 449.99522 543.45081 564.48232 544.13517 701.125 568.71875 C 711.58004 570.59973 737.94102 511.28197 742.96875 487.21875 C 745.20903 476.49657 743.98727 469.07071 729.03125 470.375 C 587.04231 484.33137 451.33916 438.12841 318.1875 395.4375 C 420.2433 364.23339 492.23214 262.96106 531.625 268.78125 C 573.19429 274.92301 556.29163 348.06386 568.96875 379.28125 C 574.51556 392.94027 592.74113 385.73882 604.125 371.53125 C 639.06237 327.9279 651.49599 139.79489 568.96875 139.21875 z M 203.71875 613.96875 C 244.21323 613.74555 301.17363 649.31168 300.65625 680.5625 C 300.91978 685.73192 298.84769 687.89282 293.5625 686.4375 C 244.13976 672.82851 192.24417 648.0406 178.0625 633.28125 C 173.86279 628.91047 174.34841 623.93112 179.25 620.3125 C 185.9333 615.95657 194.37387 614.02026 203.71875 613.96875 z "
     id="path2394" />
</svg>
