<?xml version="1.0" encoding="UTF-8" standalone="no"?>
<!-- Created with Inkscape (http://www.inkscape.org/) -->
<svg
   xmlns:dc="http://purl.org/dc/elements/1.1/"
   xmlns:cc="http://creativecommons.org/ns#"
   xmlns:rdf="http://www.w3.org/1999/02/22-rdf-syntax-ns#"
   xmlns:svg="http://www.w3.org/2000/svg"
   xmlns="http://www.w3.org/2000/svg"
   xmlns:sodipodi="http://sodipodi.sourceforge.net/DTD/sodipodi-0.dtd"
   xmlns:inkscape="http://www.inkscape.org/namespaces/inkscape"
   version="1.0"
   width="1000"
   height="1000"
   id="svg5496"
   sodipodi:version="0.32"
   inkscape:version="0.46"
   sodipodi:docname="baa+meem.init.svg"
   inkscape:output_extension="org.inkscape.output.svg.inkscape">
  <metadata
     id="metadata5594">
    <rdf:RDF>
      <cc:Work
         rdf:about="">
        <dc:format>image/svg+xml</dc:format>
        <dc:type
           rdf:resource="http://purl.org/dc/dcmitype/StillImage" />
      </cc:Work>
    </rdf:RDF>
  </metadata>
  <sodipodi:namedview
     inkscape:pageshadow="2"
     inkscape:pageopacity="0.0"
     guidetolerance="10.0"
     gridtolerance="10.0"
     objecttolerance="10.0"
     borderopacity="1.0"
     bordercolor="#666666"
     pagecolor="#ffffff"
     id="base"
     showgrid="false"
     showguides="true"
     inkscape:guide-bbox="true"
     inkscape:zoom="0.908"
     inkscape:cx="483.36052"
     inkscape:cy="422.35405"
     inkscape:window-x="0"
     inkscape:window-y="25"
     inkscape:current-layer="svg5496">
    <sodipodi:guide
       orientation="horizontal"
       position="200"
       id="guide5596" />
  </sodipodi:namedview>
  <defs
     id="defs5498">
    <inkscape:perspective
       sodipodi:type="inkscape:persp3d"
       inkscape:vp_x="0 : 500 : 1"
       inkscape:vp_y="0 : 1000 : 0"
       inkscape:vp_z="1000 : 500 : 1"
       inkscape:persp3d-origin="500 : 333.33333 : 1"
       id="perspective8" />
    <inkscape:perspective
       id="perspective2388"
       inkscape:persp3d-origin="372.04724 : 350.78739 : 1"
       inkscape:vp_z="744.09448 : 526.18109 : 1"
       inkscape:vp_y="0 : 1000 : 0"
       inkscape:vp_x="0 : 526.18109 : 1"
       sodipodi:type="inkscape:persp3d" />
  </defs>
  <g
     id="layer1"
     transform="translate(-341.40969,280.17621)" />
  <path
     style="fill:none;fill-rule:evenodd;stroke:#000000;stroke-width:1px;stroke-linecap:butt;stroke-linejoin:miter;stroke-opacity:1"
     d="M 274.22908,512.55506 C 279.79481,517.37898 282.92281,515.75709 285.79296,511.45375 C 297.77544,493.48787 304.38044,474.44649 309.05952,455.01993 C 311.13188,446.41595 305.83684,440.81401 300.66079,435.46255 C 280.44838,414.56516 254.13736,407.5734 227.95287,408.08835 C 201.42111,408.61013 155.83757,438.58588 124.77842,481.00398 C 110.11173,501.03458 99.539578,524.91017 94.162998,547.79736 C 81.135278,603.25412 91.701508,667.47441 112.03991,693.23862 C 93.107478,711.3918 43.228608,731.88568 0.82598819,729.24009 L 1.1013182,800 C 54.348408,804.56402 100.06658,751.45116 141.24449,750.99119 C 175.65792,749.26035 188.71104,760.36311 237.05947,783.48018 C 246.84901,788.1609 248.61519,781.56761 250,776.87224 L 267.62115,717.12555 C 269.96036,709.19416 263.19528,700.93175 257.43393,696.7511 C 225.09424,673.28419 194.27752,666.91676 168.22688,648.29295 C 153.26849,637.59908 125.13338,596.05107 118.47797,564.04526 C 117.82206,560.89102 118.17745,557.5185 119.62254,554.38349 C 132.9611,525.44644 156.73641,505.90794 180.61674,493.8326 C 210.28278,478.83166 242.76299,485.28284 274.22908,512.55506 z"
     id="path2394"
     sodipodi:nodetypes="cssssssccccsssssssss" />
</svg>
