<?xml version="1.0" encoding="UTF-8" standalone="no"?>
<!-- Created with Inkscape (http://www.inkscape.org/) -->
<svg
   xmlns:dc="http://purl.org/dc/elements/1.1/"
   xmlns:cc="http://creativecommons.org/ns#"
   xmlns:rdf="http://www.w3.org/1999/02/22-rdf-syntax-ns#"
   xmlns:svg="http://www.w3.org/2000/svg"
   xmlns="http://www.w3.org/2000/svg"
   xmlns:sodipodi="http://sodipodi.sourceforge.net/DTD/sodipodi-0.dtd"
   xmlns:inkscape="http://www.inkscape.org/namespaces/inkscape"
   version="1.0"
   width="1000"
   height="1000"
   id="svg5496"
   sodipodi:version="0.32"
   inkscape:version="0.46"
   sodipodi:docname="dal.fina.svg"
   inkscape:output_extension="org.inkscape.output.svg.inkscape">
  <metadata
     id="metadata5594">
    <rdf:RDF>
      <cc:Work
         rdf:about="">
        <dc:format>image/svg+xml</dc:format>
        <dc:type
           rdf:resource="http://purl.org/dc/dcmitype/StillImage" />
      </cc:Work>
    </rdf:RDF>
  </metadata>
  <sodipodi:namedview
     inkscape:pageshadow="2"
     inkscape:pageopacity="0.0"
     guidetolerance="10.0"
     gridtolerance="10.0"
     objecttolerance="10.0"
     borderopacity="1.0"
     bordercolor="#666666"
     pagecolor="#ffffff"
     id="base"
     showgrid="false"
     showguides="true"
     inkscape:guide-bbox="true"
     inkscape:zoom="0.64205296"
     inkscape:cx="514.24798"
     inkscape:cy="514.46816"
     inkscape:window-x="0"
     inkscape:window-y="25"
     inkscape:current-layer="svg5496">
    <sodipodi:guide
       orientation="horizontal"
       position="200"
       id="guide5596" />
  </sodipodi:namedview>
  <defs
     id="defs5498">
    <inkscape:perspective
       sodipodi:type="inkscape:persp3d"
       inkscape:vp_x="0 : 500 : 1"
       inkscape:vp_y="0 : 1000 : 0"
       inkscape:vp_z="1000 : 500 : 1"
       inkscape:persp3d-origin="500 : 333.33333 : 1"
       id="perspective2437" />
    <inkscape:perspective
       id="perspective2467"
       inkscape:persp3d-origin="372.04724 : 350.78739 : 1"
       inkscape:vp_z="744.09448 : 526.18109 : 1"
       inkscape:vp_y="0 : 1000 : 0"
       inkscape:vp_x="0 : 526.18109 : 1"
       sodipodi:type="inkscape:persp3d" />
  </defs>
  <g
     id="layer1"
     transform="translate(-269.44818,27.515446)" />
  <path
     style="fill:none;fill-rule:evenodd;stroke:#000000;stroke-width:1px;stroke-linecap:butt;stroke-linejoin:miter;stroke-opacity:1"
     d="M 454.99839,695.37445 C 432.78372,694.50822 406.65934,692.13417 387.81777,659.5815 C 365.82793,621.58955 339.30738,398.00569 324.65306,271.84949 C 323.19088,259.26181 318.12979,255.11593 312.45829,263.4687 C 300.85872,280.5521 289.16214,301.29768 277.85847,319.58797 C 272.08942,328.92276 272.27321,336.30073 274.16486,351.56268 C 278.01903,382.65847 288.25839,448.66346 296.64349,503.64823 C 302.96217,545.08258 308.93821,580.37848 306.31997,589.09691 C 298.32398,615.72257 271.64571,647.36745 247.03665,655.08381 C 194.40417,671.58713 102.63784,670.54933 68.169917,659.45634 C 46.594887,652.50461 31.115957,636.21569 24.582057,620.59052 C 21.805707,613.95113 14.281937,612.31831 11.520667,624.52723 C 2.1407669,666.00026 -11.628073,739.01693 40.806987,749.88986 C 102.62711,762.70889 197.53105,753.47219 232.21599,740.80195 C 283.11825,722.2076 297.97983,673.57982 316.78253,621.58591 C 335.54147,704.4074 348.18861,743.01168 373.84926,767.1403 C 398.56059,790.37629 428.23096,795.51184 457.20103,800 L 454.99839,695.37445 z"
     id="path2394"
     sodipodi:nodetypes="cssssssssssssscscc" />
</svg>
