<?xml version="1.0" encoding="UTF-8" standalone="no"?>
<!-- Created with Inkscape (http://www.inkscape.org/) -->
<svg
   xmlns:dc="http://purl.org/dc/elements/1.1/"
   xmlns:cc="http://creativecommons.org/ns#"
   xmlns:rdf="http://www.w3.org/1999/02/22-rdf-syntax-ns#"
   xmlns:svg="http://www.w3.org/2000/svg"
   xmlns="http://www.w3.org/2000/svg"
   xmlns:sodipodi="http://sodipodi.sourceforge.net/DTD/sodipodi-0.dtd"
   xmlns:inkscape="http://www.inkscape.org/namespaces/inkscape"
   version="1.0"
   width="1000"
   height="1000"
   id="svg5496"
   sodipodi:version="0.32"
   inkscape:version="0.46"
   sodipodi:docname="faa+meem.init.svg"
   inkscape:output_extension="org.inkscape.output.svg.inkscape">
  <metadata
     id="metadata5594">
    <rdf:RDF>
      <cc:Work
         rdf:about="">
        <dc:format>image/svg+xml</dc:format>
        <dc:type
           rdf:resource="http://purl.org/dc/dcmitype/StillImage" />
      </cc:Work>
    </rdf:RDF>
  </metadata>
  <sodipodi:namedview
     inkscape:pageshadow="2"
     inkscape:pageopacity="0.0"
     guidetolerance="10.0"
     gridtolerance="10.0"
     objecttolerance="10.0"
     borderopacity="1.0"
     bordercolor="#666666"
     pagecolor="#ffffff"
     id="base"
     showgrid="false"
     showguides="true"
     inkscape:guide-bbox="true"
     inkscape:zoom="1.2841059"
     inkscape:cx="385.00746"
     inkscape:cy="519.92152"
     inkscape:window-x="0"
     inkscape:window-y="25"
     inkscape:current-layer="svg5496">
    <sodipodi:guide
       orientation="horizontal"
       position="200"
       id="guide5596" />
  </sodipodi:namedview>
  <defs
     id="defs5498">
    <inkscape:perspective
       sodipodi:type="inkscape:persp3d"
       inkscape:vp_x="0 : 500 : 1"
       inkscape:vp_y="0 : 1000 : 0"
       inkscape:vp_z="1000 : 500 : 1"
       inkscape:persp3d-origin="500 : 333.33333 : 1"
       id="perspective8" />
    <inkscape:perspective
       id="perspective2388"
       inkscape:persp3d-origin="372.04724 : 350.78739 : 1"
       inkscape:vp_z="744.09448 : 526.18109 : 1"
       inkscape:vp_y="0 : 1000 : 0"
       inkscape:vp_x="0 : 526.18109 : 1"
       sodipodi:type="inkscape:persp3d" />
  </defs>
  <g
     id="layer1"
     transform="translate(-271.00568,34.17625)" />
  <path
     style="fill:none;fill-rule:evenodd;stroke:#000000;stroke-width:1px;stroke-linecap:butt;stroke-linejoin:miter;stroke-opacity:1"
     d="M 300.59826,415.84719 C 275.26609,481.69601 231.02294,474.70487 204.31645,471.46115 C 134.6625,463.00111 135.0301,374.7899 152.10651,325.98148 C 169.01942,277.64036 202.50538,220.81536 254.26726,206.49653 C 283.17805,207.73402 310.82758,246.66682 329.32965,273.96276 C 369.97921,333.9327 376.13264,436.51883 363.08295,493.49693 C 354.33698,531.68399 328.47761,555.31306 312.86934,570.49626 C 329.39525,593.93122 348.09711,634.26875 341.91124,669.16967 C 334.30968,712.05803 296.93139,762.99186 290.34087,764.72807 C 248.34217,775.79226 175.95579,731.0454 124.60032,707.10043 C 98.768067,752.728 23.424257,799.014 1.3685474,800 L 1.5575074,714.88795 C 21.867117,714.76244 75.216377,703.41481 112.59647,678.97088 C 120.89496,633.53958 136.19907,593.17591 174.44044,562.25256 C 217.36884,527.53911 295.10012,526.84849 332.94503,492.19452 C 335.50387,489.84923 336.90363,486.2973 336.59561,483.11471 C 333.72088,453.4118 315.83105,417.78811 300.59826,415.84719 z"
     id="path2394"
     sodipodi:nodetypes="csscsscssccccsssc" />
  <path
     style="fill:none;fill-rule:evenodd;stroke:#000000;stroke-width:1px;stroke-linecap:butt;stroke-linejoin:miter;stroke-opacity:1"
     d="M 260.03042,359.07463 C 238.41442,372.33872 212.9066,373.05836 193.78478,355.227 C 189.14663,350.90186 187.9311,344.93118 191.52171,339.88174 C 213.71071,308.67756 243.43008,317.15361 262.62158,347.24976 C 265.83821,352.29408 264.90563,356.08309 260.03042,359.07463 z"
     id="path2416"
     sodipodi:nodetypes="cssss" />
  <path
     style="fill:none;fill-rule:evenodd;stroke:#000000;stroke-width:1px;stroke-linecap:butt;stroke-linejoin:miter;stroke-opacity:1"
     d="M 161.26304,620.07933 C 175.68749,599.40163 202.93128,589.6095 243.3115,609.61678 C 286.4624,630.99686 298.13664,662.66663 299.4789,675.69607 C 284.1988,680.2309 169.22921,639.83033 161.26304,620.07933 z"
     id="path2418"
     sodipodi:nodetypes="cscc" />
</svg>
