<?xml version="1.0" encoding="UTF-8" standalone="no"?>
<!-- Created with Inkscape (http://www.inkscape.org/) -->

<svg
   xmlns:dc="http://purl.org/dc/elements/1.1/"
   xmlns:cc="http://creativecommons.org/ns#"
   xmlns:rdf="http://www.w3.org/1999/02/22-rdf-syntax-ns#"
   xmlns:svg="http://www.w3.org/2000/svg"
   xmlns="http://www.w3.org/2000/svg"
   xmlns:sodipodi="http://sodipodi.sourceforge.net/DTD/sodipodi-0.dtd"
   xmlns:inkscape="http://www.inkscape.org/namespaces/inkscape"
   version="1.0"
   width="1000"
   height="1000"
   id="svg5496"
   sodipodi:version="0.32"
   inkscape:version="0.47pre0 r21549"
   sodipodi:docname="faa+yaa.isol.svg"
   inkscape:output_extension="org.inkscape.output.svg.inkscape">
  <metadata
     id="metadata5594">
    <rdf:RDF>
      <cc:Work
         rdf:about="">
        <dc:format>image/svg+xml</dc:format>
        <dc:type
           rdf:resource="http://purl.org/dc/dcmitype/StillImage" />
      </cc:Work>
    </rdf:RDF>
  </metadata>
  <sodipodi:namedview
     inkscape:pageshadow="2"
     inkscape:pageopacity="0.0"
     guidetolerance="10.0"
     gridtolerance="10.0"
     objecttolerance="10.0"
     borderopacity="1.0"
     bordercolor="#666666"
     pagecolor="#ffffff"
     id="base"
     showgrid="false"
     showguides="true"
     inkscape:guide-bbox="true"
     inkscape:zoom="0.236"
     inkscape:cx="500"
     inkscape:cy="500"
     inkscape:window-x="0"
     inkscape:window-y="25"
     inkscape:current-layer="svg5496">
    <sodipodi:guide
       orientation="horizontal"
       position="200"
       id="guide5596" />
  </sodipodi:namedview>
  <defs
     id="defs5498">
    <inkscape:perspective
       sodipodi:type="inkscape:persp3d"
       inkscape:vp_x="0 : 500 : 1"
       inkscape:vp_y="0 : 1000 : 0"
       inkscape:vp_z="1000 : 500 : 1"
       inkscape:persp3d-origin="500 : 333.33333 : 1"
       id="perspective8" />
    <inkscape:perspective
       id="perspective2388"
       inkscape:persp3d-origin="372.04724 : 350.78739 : 1"
       inkscape:vp_z="744.09448 : 526.18109 : 1"
       inkscape:vp_y="0 : 1000 : 0"
       inkscape:vp_x="0 : 526.18109 : 1"
       sodipodi:type="inkscape:persp3d" />
  </defs>
  <g
     id="layer1"
     transform="translate(-103.52423,266.51982)" />
  <path
     style="fill:#000000;fill-rule:evenodd;stroke:#000000;stroke-width:1px;stroke-linecap:butt;stroke-linejoin:miter;stroke-opacity:1"
     d="M 503 302.625 C 501.64005 302.62535 500.27465 302.72098 498.90625 302.875 C 466.89713 306.47782 425.67876 360.18292 405.28125 413.53125 C 383.40939 474.66739 384.25382 544.33139 454.84375 560.5625 C 479.70673 566.27937 516.94696 553.61802 547.28125 493.90625 C 564.13962 502.86922 597.78466 543.43809 582.53125 571.96875 C 565.99845 602.89244 498.49835 638.40885 427.59375 646.125 C 424.99094 646.40825 424.1093 646.31803 422.78125 648.90625 L 391.21875 710.40625 C 389.43451 713.88352 390.37269 716.58822 395.25 717.625 C 457.18615 730.79085 510.37339 725.53353 579.3125 760.1875 C 585.82599 763.46167 587.02815 766.07197 581.4375 771.3125 C 541.73928 808.52464 389.78867 901.75685 243.40625 896.46875 C 132.54908 892.46401 52.53195 830.41811 49.25 742.34375 C 47.32711 690.74125 80.794561 636.43066 125.5625 570.5 C 133.56019 558.72164 121.24529 544.03358 109.59375 556.71875 C 76.000771 593.29187 25.66982 686.36613 10.5625 738.59375 C -27.408764 869.86447 31.015641 1001.9492 226.3125 1002.75 C 364.44376 1003.3164 539.98038 903.80692 605.71875 830.9375 C 629.32902 804.76608 633.68672 741.22369 626.09375 720.25 C 614.17109 687.31662 562.9024 672.27398 547.34375 670.71875 C 579.48279 639.90679 607.98512 612.23036 608.3125 500.03125 C 608.50618 433.65471 559.66449 302.61032 503 302.625 z M 455.4375 406.0625 C 468.55679 405.55805 481.58205 415.25859 496.28125 427.21875 C 499.21427 429.60524 499.11772 433.69581 497 436 C 477.01177 457.74829 449.52994 452.6281 430.5625 439.40625 C 426.00103 436.22653 422.89225 430.31581 427.78125 424 C 437.43424 411.52989 446.46114 406.40765 455.4375 406.0625 z "
     id="path2394" />
</svg>
