<?xml version="1.0" encoding="UTF-8" standalone="no"?>
<!-- Created with Inkscape (http://www.inkscape.org/) -->

<svg
   xmlns:dc="http://purl.org/dc/elements/1.1/"
   xmlns:cc="http://creativecommons.org/ns#"
   xmlns:rdf="http://www.w3.org/1999/02/22-rdf-syntax-ns#"
   xmlns:svg="http://www.w3.org/2000/svg"
   xmlns="http://www.w3.org/2000/svg"
   xmlns:sodipodi="http://sodipodi.sourceforge.net/DTD/sodipodi-0.dtd"
   xmlns:inkscape="http://www.inkscape.org/namespaces/inkscape"
   version="1.0"
   width="1000"
   height="1000"
   id="svg5496"
   sodipodi:version="0.32"
   inkscape:version="0.47pre0 r21549"
   sodipodi:docname="faa+haa.init.svg"
   inkscape:output_extension="org.inkscape.output.svg.inkscape">
  <metadata
     id="metadata5594">
    <rdf:RDF>
      <cc:Work
         rdf:about="">
        <dc:format>image/svg+xml</dc:format>
        <dc:type
           rdf:resource="http://purl.org/dc/dcmitype/StillImage" />
      </cc:Work>
    </rdf:RDF>
  </metadata>
  <sodipodi:namedview
     inkscape:pageshadow="2"
     inkscape:pageopacity="0.0"
     guidetolerance="10.0"
     gridtolerance="10.0"
     objecttolerance="10.0"
     borderopacity="1.0"
     bordercolor="#666666"
     pagecolor="#ffffff"
     id="base"
     showgrid="false"
     showguides="true"
     inkscape:guide-bbox="true"
     inkscape:zoom="0.236"
     inkscape:cx="458.47458"
     inkscape:cy="500"
     inkscape:window-x="0"
     inkscape:window-y="25"
     inkscape:current-layer="svg5496">
    <sodipodi:guide
       orientation="horizontal"
       position="200"
       id="guide5596" />
  </sodipodi:namedview>
  <defs
     id="defs5498">
    <inkscape:perspective
       sodipodi:type="inkscape:persp3d"
       inkscape:vp_x="0 : 500 : 1"
       inkscape:vp_y="0 : 1000 : 0"
       inkscape:vp_z="1000 : 500 : 1"
       inkscape:persp3d-origin="500 : 333.33333 : 1"
       id="perspective4311" />
    <inkscape:perspective
       id="perspective4320"
       inkscape:persp3d-origin="372.04724 : 350.78739 : 1"
       inkscape:vp_z="744.09448 : 526.18109 : 1"
       inkscape:vp_y="0 : 1000 : 0"
       inkscape:vp_x="0 : 526.18109 : 1"
       sodipodi:type="inkscape:persp3d" />
  </defs>
  <g
     id="layer1"
     transform="matrix(1.3,0,0,1.3,-366.76721,-80.875698)" />
  <path
     style="fill:#000000;fill-rule:evenodd;stroke:#000000;stroke-width:1px;stroke-linecap:butt;stroke-linejoin:miter;stroke-opacity:1"
     d="M 161.6875 153.09375 C 137.19104 152.74156 91.780744 202.83555 74.5 262.71875 C 53.847329 334.28666 47.778234 411.94316 110.0625 421.84375 C 149.47873 428.1093 191.83909 389.05178 211.9375 357.09375 C 215.64583 351.19722 225.48824 353.95763 231.5625 361.125 C 241.82688 376.64812 248.61202 389.66438 250.78125 405.1875 C 228.0448 471.9094 138.90976 476.10692 53.375 497.3125 C 23.062211 504.82756 5.304657 552.39073 5.78125 575.25 C 85.511785 594.70928 168.46277 609.23051 245.71875 641.0625 C 173.74685 677.22879 65.845045 703.76661 1.75 720.03125 L 3.25 800 C 67.64671 785.74333 185.92443 731.19544 253.34375 709 C 340.23434 680.39434 438.77437 673.38181 558.03125 682.0625 C 569.75064 682.35413 577.3599 678.5449 578.28125 673.4375 L 605.125 612.71875 C 604.45422 598.87603 596.54773 597.05822 587.90625 596.5 C 436.98575 595.66789 307.0471 569.67072 203.1875 530.71875 C 240.2141 506.32678 278.19792 451.6655 279.34375 384.9375 C 281.218 275.78993 226.02927 154.01151 161.6875 153.09375 z M 124.15625 261.53125 C 125.86478 261.50476 127.57594 261.63789 129.3125 261.875 C 141.22276 263.50125 156.25196 273.62729 168.78125 287.75 C 161.73703 305.94951 146.62808 312.75174 133 312.15625 C 110.89108 311.2027 102.35185 284.14522 102.5 273.8125 C 109.58843 264.63841 116.75262 261.64605 124.15625 261.53125 z "
     id="path4326" />
</svg>
