<?xml version="1.0" encoding="UTF-8" standalone="no"?>
<!-- Created with Inkscape (http://www.inkscape.org/) -->
<svg
   xmlns:dc="http://purl.org/dc/elements/1.1/"
   xmlns:cc="http://creativecommons.org/ns#"
   xmlns:rdf="http://www.w3.org/1999/02/22-rdf-syntax-ns#"
   xmlns:svg="http://www.w3.org/2000/svg"
   xmlns="http://www.w3.org/2000/svg"
   xmlns:sodipodi="http://sodipodi.sourceforge.net/DTD/sodipodi-0.dtd"
   xmlns:inkscape="http://www.inkscape.org/namespaces/inkscape"
   version="1.0"
   width="1000"
   height="1000"
   id="svg5496"
   sodipodi:version="0.32"
   inkscape:version="0.46"
   sodipodi:docname="faa+yaa.isol.svg"
   inkscape:output_extension="org.inkscape.output.svg.inkscape">
  <metadata
     id="metadata5594">
    <rdf:RDF>
      <cc:Work
         rdf:about="">
        <dc:format>image/svg+xml</dc:format>
        <dc:type
           rdf:resource="http://purl.org/dc/dcmitype/StillImage" />
      </cc:Work>
    </rdf:RDF>
  </metadata>
  <sodipodi:namedview
     inkscape:pageshadow="2"
     inkscape:pageopacity="0.0"
     guidetolerance="10.0"
     gridtolerance="10.0"
     objecttolerance="10.0"
     borderopacity="1.0"
     bordercolor="#666666"
     pagecolor="#ffffff"
     id="base"
     showgrid="false"
     showguides="true"
     inkscape:guide-bbox="true"
     inkscape:zoom="0.454"
     inkscape:cx="511.65744"
     inkscape:cy="560.08639"
     inkscape:window-x="0"
     inkscape:window-y="25"
     inkscape:current-layer="svg5496">
    <sodipodi:guide
       orientation="horizontal"
       position="200"
       id="guide5596" />
  </sodipodi:namedview>
  <defs
     id="defs5498">
    <inkscape:perspective
       sodipodi:type="inkscape:persp3d"
       inkscape:vp_x="0 : 500 : 1"
       inkscape:vp_y="0 : 1000 : 0"
       inkscape:vp_z="1000 : 500 : 1"
       inkscape:persp3d-origin="500 : 333.33333 : 1"
       id="perspective8" />
    <inkscape:perspective
       id="perspective2388"
       inkscape:persp3d-origin="372.04724 : 350.78739 : 1"
       inkscape:vp_z="744.09448 : 526.18109 : 1"
       inkscape:vp_y="0 : 1000 : 0"
       inkscape:vp_x="0 : 526.18109 : 1"
       sodipodi:type="inkscape:persp3d" />
  </defs>
  <g
     id="layer1"
     transform="translate(-103.52423,266.51982)" />
  <path
     style="fill:none;fill-rule:evenodd;stroke:#000000;stroke-width:1px;stroke-linecap:butt;stroke-linejoin:miter;stroke-opacity:1"
     d="M 547.29002,493.90933 C 516.95573,553.6211 479.70879,566.28956 454.84581,560.57269 C 384.25588,544.34158 383.41449,474.68239 405.28635,413.54625 C 425.68386,360.19792 466.88956,306.46626 498.89868,302.86344 C 557.2836,296.29184 608.49661,432.0561 608.29828,500.02568 C 607.9709,612.22479 579.49587,639.89288 547.35683,670.70484 C 562.91548,672.26007 614.17866,687.33093 626.10132,720.26431 C 633.69429,741.238 629.33714,804.77571 605.72687,830.94713 C 539.9885,903.81655 364.45284,1003.3197 226.32158,1002.7533 C 31.024721,1001.9525 -27.419673,869.85055 10.551591,738.57983 C 25.658911,686.35221 75.988511,593.29118 109.58149,556.71806 C 121.23303,544.03289 133.54835,558.70621 125.55066,570.48457 C 80.782721,636.41523 47.340451,690.7399 49.263341,742.3424 C 52.545291,830.41676 132.5349,892.47103 243.39207,896.47577 C 389.77449,901.76387 541.74971,808.5332 581.44793,771.32106 C 587.03858,766.08053 585.83467,763.45847 579.32118,760.1843 C 510.38207,725.53033 457.17218,730.80641 395.23603,717.64056 C 390.35872,716.60378 389.42146,713.88253 391.2057,710.40526 L 422.76736,648.89522 C 424.09541,646.307 424.99139,646.40709 427.5942,646.12384 C 498.4988,638.40769 565.99951,602.89897 582.53231,571.97528 C 597.78572,543.44462 564.14839,502.8723 547.29002,493.90933 z"
     id="path2394"
     sodipodi:nodetypes="cscsscsssssssssssssssc" />
  <path
     style="fill:none;fill-rule:evenodd;stroke:#000000;stroke-width:1px;stroke-linecap:butt;stroke-linejoin:miter;stroke-opacity:1"
     d="M 496.98737,436.00778 C 476.99914,457.75607 449.51715,452.62673 430.54971,439.40488 C 425.98824,436.22516 422.89742,430.31461 427.78642,423.9988 C 451.54762,393.30315 471.51583,407.08229 496.27238,427.22572 C 499.2054,429.61221 499.10509,433.70359 496.98737,436.00778 z"
     id="path2396"
     sodipodi:nodetypes="cssss" />
</svg>
