<?xml version="1.0" encoding="UTF-8" standalone="no"?>
<!-- Created with Inkscape (http://www.inkscape.org/) -->
<svg
   xmlns:dc="http://purl.org/dc/elements/1.1/"
   xmlns:cc="http://creativecommons.org/ns#"
   xmlns:rdf="http://www.w3.org/1999/02/22-rdf-syntax-ns#"
   xmlns:svg="http://www.w3.org/2000/svg"
   xmlns="http://www.w3.org/2000/svg"
   xmlns:sodipodi="http://sodipodi.sourceforge.net/DTD/sodipodi-0.dtd"
   xmlns:inkscape="http://www.inkscape.org/namespaces/inkscape"
   version="1.0"
   width="1000"
   height="1000"
   id="svg5496"
   sodipodi:version="0.32"
   inkscape:version="0.46"
   sodipodi:docname="faa+haa.init.svg"
   inkscape:output_extension="org.inkscape.output.svg.inkscape">
  <metadata
     id="metadata5594">
    <rdf:RDF>
      <cc:Work
         rdf:about="">
        <dc:format>image/svg+xml</dc:format>
        <dc:type
           rdf:resource="http://purl.org/dc/dcmitype/StillImage" />
      </cc:Work>
    </rdf:RDF>
  </metadata>
  <sodipodi:namedview
     inkscape:pageshadow="2"
     inkscape:pageopacity="0.0"
     guidetolerance="10.0"
     gridtolerance="10.0"
     objecttolerance="10.0"
     borderopacity="1.0"
     bordercolor="#666666"
     pagecolor="#ffffff"
     id="base"
     showgrid="false"
     showguides="true"
     inkscape:guide-bbox="true"
     inkscape:zoom="0.454"
     inkscape:cx="380.38677"
     inkscape:cy="228.12454"
     inkscape:window-x="0"
     inkscape:window-y="25"
     inkscape:current-layer="svg5496">
    <sodipodi:guide
       orientation="horizontal"
       position="200"
       id="guide5596" />
  </sodipodi:namedview>
  <defs
     id="defs5498">
    <inkscape:perspective
       sodipodi:type="inkscape:persp3d"
       inkscape:vp_x="0 : 500 : 1"
       inkscape:vp_y="0 : 1000 : 0"
       inkscape:vp_z="1000 : 500 : 1"
       inkscape:persp3d-origin="500 : 333.33333 : 1"
       id="perspective4311" />
    <inkscape:perspective
       id="perspective4320"
       inkscape:persp3d-origin="372.04724 : 350.78739 : 1"
       inkscape:vp_z="744.09448 : 526.18109 : 1"
       inkscape:vp_y="0 : 1000 : 0"
       inkscape:vp_x="0 : 526.18109 : 1"
       sodipodi:type="inkscape:persp3d" />
  </defs>
  <g
     id="layer1"
     transform="translate(-284.14097,122.40331)" />
  <path
     style="fill:none;fill-rule:evenodd;stroke:#000000;stroke-width:1px;stroke-linecap:butt;stroke-linejoin:miter;stroke-opacity:1"
     d="M 176.10144,462.41103 C 171.42893,456.89767 163.85876,454.76023 161.0062,459.29602 C 145.54588,483.87912 112.97139,513.93216 82.651211,509.11251 C 34.740241,501.49667 39.402311,441.74811 55.288981,386.69587 C 68.581861,340.63187 103.52412,302.10658 122.36755,302.37749 C 171.86122,303.08346 214.30469,396.75461 212.86296,480.71428 C 211.98155,532.04351 182.77839,574.08892 154.29639,592.85198 C 234.18839,622.81503 334.12944,642.83076 450.22213,643.47085 C 456.86942,643.90025 462.94493,645.28263 463.46091,655.93088 L 442.82399,702.65601 C 442.11526,706.58478 436.26387,709.49972 427.24895,709.27539 C 335.51289,702.59794 259.70861,707.98952 192.8697,729.99388 C 141.00868,747.06729 50.028801,789.03333 0.49287084,800 L -0.67525916,738.47859 C 48.628621,725.96733 131.64097,705.55616 187.00397,677.73594 C 127.57629,653.24979 63.770941,642.08574 2.4397608,627.11706 C 2.0731508,609.53301 15.723571,572.93398 39.041101,567.15316 C 104.83707,550.84118 173.40815,547.61128 190.89773,496.28674 C 189.22909,484.34588 183.99711,474.35189 176.10144,462.41103 z"
     id="path4326"
     sodipodi:nodetypes="cssssscccccsccccscc" />
  <path
     style="fill:none;fill-rule:evenodd;stroke:#000000;stroke-width:1px;stroke-linecap:butt;stroke-linejoin:miter;stroke-opacity:1"
     d="M 127.81882,405.9515 C 122.40019,419.95112 110.77436,425.1941 100.29122,424.73603 C 83.284361,424.00253 76.720231,403.17808 76.834191,395.22983 C 83.545131,386.5443 90.339731,385.08209 97.464091,386.05487 C 106.62583,387.30583 118.18091,395.08788 127.81882,405.9515 z"
     id="path4328"
     sodipodi:nodetypes="cscsc" />
</svg>
