<?xml version="1.0" encoding="UTF-8" standalone="no"?>
<!-- Created with Inkscape (http://www.inkscape.org/) -->
<svg
   xmlns:dc="http://purl.org/dc/elements/1.1/"
   xmlns:cc="http://creativecommons.org/ns#"
   xmlns:rdf="http://www.w3.org/1999/02/22-rdf-syntax-ns#"
   xmlns:svg="http://www.w3.org/2000/svg"
   xmlns="http://www.w3.org/2000/svg"
   xmlns:sodipodi="http://sodipodi.sourceforge.net/DTD/sodipodi-0.dtd"
   xmlns:inkscape="http://www.inkscape.org/namespaces/inkscape"
   version="1.0"
   width="1000"
   height="1000"
   id="svg5496"
   sodipodi:version="0.32"
   inkscape:version="0.46"
   sodipodi:docname="faa+haa.init.svg"
   inkscape:output_extension="org.inkscape.output.svg.inkscape">
  <metadata
     id="metadata5594">
    <rdf:RDF>
      <cc:Work
         rdf:about="">
        <dc:format>image/svg+xml</dc:format>
        <dc:type
           rdf:resource="http://purl.org/dc/dcmitype/StillImage" />
      </cc:Work>
    </rdf:RDF>
  </metadata>
  <sodipodi:namedview
     inkscape:pageshadow="2"
     inkscape:pageopacity="0.0"
     guidetolerance="10.0"
     gridtolerance="10.0"
     objecttolerance="10.0"
     borderopacity="1.0"
     bordercolor="#666666"
     pagecolor="#ffffff"
     id="base"
     showgrid="false"
     showguides="true"
     inkscape:guide-bbox="true"
     inkscape:zoom="0.236"
     inkscape:cx="500"
     inkscape:cy="500"
     inkscape:window-x="0"
     inkscape:window-y="25"
     inkscape:current-layer="svg5496">
    <sodipodi:guide
       orientation="horizontal"
       position="200"
       id="guide5596" />
  </sodipodi:namedview>
  <defs
     id="defs5498">
    <inkscape:perspective
       sodipodi:type="inkscape:persp3d"
       inkscape:vp_x="0 : 500 : 1"
       inkscape:vp_y="0 : 1000 : 0"
       inkscape:vp_z="1000 : 500 : 1"
       inkscape:persp3d-origin="500 : 333.33333 : 1"
       id="perspective4311" />
    <inkscape:perspective
       id="perspective4320"
       inkscape:persp3d-origin="372.04724 : 350.78739 : 1"
       inkscape:vp_z="744.09448 : 526.18109 : 1"
       inkscape:vp_y="0 : 1000 : 0"
       inkscape:vp_x="0 : 526.18109 : 1"
       sodipodi:type="inkscape:persp3d" />
  </defs>
  <g
     id="layer1"
     transform="matrix(1.3,0,0,1.3,-366.76721,-80.875698)" />
  <path
     style="fill:none;fill-rule:evenodd;stroke:#000000;stroke-width:1px;stroke-linecap:butt;stroke-linejoin:miter;stroke-opacity:1"
     d="M 231.54792,361.13434 C 225.47366,353.96697 215.63244,351.1883 211.92411,357.08483 C 191.8257,389.04286 149.47886,428.11181 110.06263,421.84626 C 47.778364,411.94567 53.839055,334.27254 74.491726,262.70463 C 91.77247,202.82143 137.19741,152.73855 161.69387,153.09074 C 226.03564,154.0085 281.21215,275.78099 279.3379,384.92856 C 278.19207,451.65656 240.22796,506.3156 203.20136,530.70757 C 307.06096,569.65954 436.98432,595.67999 587.90482,596.5121 C 596.5463,597.07032 604.44446,598.86742 605.11524,612.71014 L 578.28724,673.45281 C 577.36589,678.56021 569.75908,682.34964 558.03969,682.05801 C 438.78281,673.37732 340.23725,680.38638 253.34666,708.99204 C 185.92734,731.18748 67.653492,785.74333 3.2567823,800 L 1.7382133,720.02217 C 65.833258,703.75753 173.74931,677.22301 245.72121,641.05672 C 168.46523,609.22473 85.518274,594.71146 5.7877393,575.25218 C 5.3111463,552.39291 23.056693,504.81417 53.369482,497.29911 C 138.90424,476.09353 228.04665,471.89466 250.7831,405.17276 C 248.61387,389.64964 241.8123,376.65746 231.54792,361.13434 z"
     id="path4326"
     sodipodi:nodetypes="cssssscccccsccccscc" />
  <path
     style="fill:none;fill-rule:evenodd;stroke:#000000;stroke-width:1px;stroke-linecap:butt;stroke-linejoin:miter;stroke-opacity:1"
     d="M 168.78052,287.73695 C 161.7363,305.93646 146.62272,312.75233 132.99464,312.15684 C 110.88572,311.20329 102.35235,284.1315 102.5005,273.79878 C 111.22472,262.50759 120.0577,260.60672 129.31937,261.87133 C 141.22963,263.49758 156.25123,273.61424 168.78052,287.73695 z"
     id="path4328"
     sodipodi:nodetypes="cscsc" />
</svg>
