<?xml version="1.0" encoding="UTF-8" standalone="no"?>
<!-- Created with Inkscape (http://www.inkscape.org/) -->

<svg
   xmlns:dc="http://purl.org/dc/elements/1.1/"
   xmlns:cc="http://creativecommons.org/ns#"
   xmlns:rdf="http://www.w3.org/1999/02/22-rdf-syntax-ns#"
   xmlns:svg="http://www.w3.org/2000/svg"
   xmlns="http://www.w3.org/2000/svg"
   xmlns:sodipodi="http://sodipodi.sourceforge.net/DTD/sodipodi-0.dtd"
   xmlns:inkscape="http://www.inkscape.org/namespaces/inkscape"
   version="1.0"
   width="1000"
   height="1000"
   id="svg5496"
   sodipodi:version="0.32"
   inkscape:version="0.47pre0 r21549"
   sodipodi:docname="faa+yaa.fina.svg"
   inkscape:output_extension="org.inkscape.output.svg.inkscape">
  <metadata
     id="metadata5594">
    <rdf:RDF>
      <cc:Work
         rdf:about="">
        <dc:format>image/svg+xml</dc:format>
        <dc:type
           rdf:resource="http://purl.org/dc/dcmitype/StillImage" />
      </cc:Work>
    </rdf:RDF>
  </metadata>
  <sodipodi:namedview
     inkscape:pageshadow="2"
     inkscape:pageopacity="0.0"
     guidetolerance="10.0"
     gridtolerance="10.0"
     objecttolerance="10.0"
     borderopacity="1.0"
     bordercolor="#666666"
     pagecolor="#ffffff"
     id="base"
     showgrid="false"
     showguides="true"
     inkscape:guide-bbox="true"
     inkscape:zoom="0.454"
     inkscape:cx="659.445"
     inkscape:cy="403.61286"
     inkscape:window-x="0"
     inkscape:window-y="28"
     inkscape:current-layer="svg5496"
     inkscape:window-height="717"
     inkscape:window-maximized="1">
    <sodipodi:guide
       orientation="horizontal"
       position="200"
       id="guide5596" />
  </sodipodi:namedview>
  <defs
     id="defs5498">
    <inkscape:perspective
       sodipodi:type="inkscape:persp3d"
       inkscape:vp_x="0 : 500 : 1"
       inkscape:vp_y="0 : 1000 : 0"
       inkscape:vp_z="1000 : 500 : 1"
       inkscape:persp3d-origin="500 : 333.33333 : 1"
       id="perspective8" />
    <inkscape:perspective
       id="perspective2388"
       inkscape:persp3d-origin="372.04724 : 350.78739 : 1"
       inkscape:vp_z="744.09448 : 526.18109 : 1"
       inkscape:vp_y="0 : 1000 : 0"
       inkscape:vp_x="0 : 526.18109 : 1"
       sodipodi:type="inkscape:persp3d" />
    <inkscape:perspective
       sodipodi:type="inkscape:persp3d"
       inkscape:vp_x="0 : 526.18109 : 1"
       inkscape:vp_y="0 : 1000 : 0"
       inkscape:vp_z="744.09448 : 526.18109 : 1"
       inkscape:persp3d-origin="372.04724 : 350.78739 : 1"
       id="perspective2506" />
    <inkscape:perspective
       id="perspective2504"
       inkscape:persp3d-origin="500 : 333.33333 : 1"
       inkscape:vp_z="1000 : 500 : 1"
       inkscape:vp_y="0 : 1000 : 0"
       inkscape:vp_x="0 : 500 : 1"
       sodipodi:type="inkscape:persp3d" />
  </defs>
  <g
     id="layer1"
     transform="translate(-129.95595,237.88546)" />
  <path
     style="fill:#000000;stroke:#000000;stroke-width:1px;stroke-linecap:butt;stroke-linejoin:miter;stroke-opacity:1"
     d="m 599.10655,507.04171 c -10.44335,-94.053 -58.6446,-165.80942 -85.90625,-166.71875 -40.11752,-1.33815 -136.23682,133.62938 -112.875,203.71875 9.682,29.04767 94.40894,45.4037 167.40625,51.375 1.62514,28.5892 -2.40885,48.4081 -10.46875,53.25 -27.46592,16.4999 -70.7218,33.58293 -133.25,30.15625 -4.87181,-0.26698 -5.31608,-0.71916 -7.71875,4.28125 -8.57012,17.83595 -16.33691,35.58427 -20.28125,52.90625 -1.00944,4.4331 -1.46698,6.20282 2.25,6.90625 40.18088,7.60412 125.48792,24.12193 184.65625,67.6875 1.95179,1.4371 1.98238,3.63965 -0.1875,4.875 C 500.75141,862.15137 366.4754,900.0352 250.0128,894.26046 126.04059,888.11333 52.328252,835.7594 53.544052,756.60421 c 0.777,-50.58615 29.57316,-109.21662 64.312498,-168.5 9.25589,-15.79535 -5.5649,-22.94642 -14.34375,-9.90625 -28.797258,42.77564 -67.130818,104.29324 -87.406248,168 -27.0528,85.00172 -21.9461104,171.90097 80.8125,225.375 43.039548,22.39714 101.505138,26.68291 158.593748,22.28125 130.75221,-10.12382 293.04282,-79.32582 346.90625,-132.625 11.68728,-11.56485 31.13436,-71.70892 27,-85.34375 -8.15302,-26.88829 -53.06394,-50.77257 -83.46875,-68 -2.44274,-1.38406 -3.12215,-2.80166 -0.875,-5.28125 20.12919,-22.21153 43.90786,-62.06991 52.34375,-105.15625 15.31483,0.84504 30.0245,0.0895 41.34375,-0.53125 l -2.1875,-89.26188 c -8.87543,0.47993 -22.60959,0.28515 -37.46875,-0.61312 z m -60.19528,-5.6966 c -17.18381,-2.47777 -88.09405,-13.24099 -85.83597,-36.9284 1.47388,-15.46112 16.52804,-31.84828 29.3125,-33.38219 22.55568,-2.70628 49.35992,44.02573 60.16611,64.82613 1.80462,3.63478 -0.34281,5.89934 -3.64264,5.48446 z"
     id="path2394"
     sodipodi:nodetypes="ccscssssssssssssscsssscccccsscc" />
</svg>
