<?xml version="1.0" encoding="UTF-8" standalone="no"?>
<!-- Created with Inkscape (http://www.inkscape.org/) -->
<svg
   xmlns:dc="http://purl.org/dc/elements/1.1/"
   xmlns:cc="http://creativecommons.org/ns#"
   xmlns:rdf="http://www.w3.org/1999/02/22-rdf-syntax-ns#"
   xmlns:svg="http://www.w3.org/2000/svg"
   xmlns="http://www.w3.org/2000/svg"
   xmlns:sodipodi="http://sodipodi.sourceforge.net/DTD/sodipodi-0.dtd"
   xmlns:inkscape="http://www.inkscape.org/namespaces/inkscape"
   version="1.0"
   width="1000"
   height="1000"
   id="svg5496"
   sodipodi:version="0.32"
   inkscape:version="0.46"
   sodipodi:docname="faa.isol.svg"
   inkscape:output_extension="org.inkscape.output.svg.inkscape">
  <metadata
     id="metadata5594">
    <rdf:RDF>
      <cc:Work
         rdf:about="">
        <dc:format>image/svg+xml</dc:format>
        <dc:type
           rdf:resource="http://purl.org/dc/dcmitype/StillImage" />
      </cc:Work>
    </rdf:RDF>
  </metadata>
  <sodipodi:namedview
     inkscape:pageshadow="2"
     inkscape:pageopacity="0.0"
     guidetolerance="10.0"
     gridtolerance="10.0"
     objecttolerance="10.0"
     borderopacity="1.0"
     bordercolor="#666666"
     pagecolor="#ffffff"
     id="base"
     showgrid="false"
     showguides="true"
     inkscape:guide-bbox="true"
     inkscape:zoom="0.236"
     inkscape:cx="500"
     inkscape:cy="500"
     inkscape:window-x="0"
     inkscape:window-y="25"
     inkscape:current-layer="svg5496">
    <sodipodi:guide
       orientation="horizontal"
       position="200"
       id="guide5596" />
  </sodipodi:namedview>
  <defs
     id="defs5498">
    <inkscape:perspective
       sodipodi:type="inkscape:persp3d"
       inkscape:vp_x="0 : 500 : 1"
       inkscape:vp_y="0 : 1000 : 0"
       inkscape:vp_z="1000 : 500 : 1"
       inkscape:persp3d-origin="500 : 333.33333 : 1"
       id="perspective3382" />
    <inkscape:perspective
       id="perspective3391"
       inkscape:persp3d-origin="372.04724 : 350.78739 : 1"
       inkscape:vp_z="744.09448 : 526.18109 : 1"
       inkscape:vp_y="0 : 1000 : 0"
       inkscape:vp_x="0 : 526.18109 : 1"
       sodipodi:type="inkscape:persp3d" />
  </defs>
  <g
     id="layer1"
     transform="matrix(1.3,0,0,1.3,-45.841058,-260.90308)" />
  <path
     style="fill:none;fill-rule:evenodd;stroke:#000000;stroke-width:1px;stroke-linecap:butt;stroke-linejoin:miter;stroke-opacity:1"
     d="M 894.79771,482.15858 C 875.00989,583.73895 522.79731,671.86889 430.92107,681.16739 C 238.86193,700.60507 73.032431,682.80539 48.652337,572.35683 C 42.749703,545.61626 61.89273,490.90272 91.517027,445.85943 C 101.55066,430.60345 80.865893,414.05707 68.609545,429.77804 C -17.509898,540.38492 -85.237298,807.30889 284.88583,800 C 522.24546,795.28703 859.62577,698.01648 915.17427,553.65763 C 944.51003,477.42014 910.23817,275.17465 824.50731,240.44435 C 814.46713,236.37699 803.76252,236.43605 792.13336,236.49611 C 764.66547,236.63799 726.23529,289.40096 702.6733,350.9058 C 678.89569,412.97348 673.98477,462.9873 722.06603,495.46339 C 795.09649,532.78062 847.04123,478.84773 860.65545,440.5909 C 861.82576,437.24288 862.17354,433.17331 866.57393,435.55154 C 882.24737,449.41099 891.63866,463.50097 894.79771,482.15858 z"
     id="path3397"
     sodipodi:nodetypes="cssssssssscccc" />
  <path
     style="fill:none;fill-rule:evenodd;stroke:#000000;stroke-width:1px;stroke-linecap:butt;stroke-linejoin:miter;stroke-opacity:1"
     d="M 815.58301,379.82671 C 802.93195,391.4952 791.54973,398.53709 776.6939,399.41267 C 758.55349,400.48183 739.92735,393.10226 737.13503,383.03754 C 734.88624,374.93189 753.383,349.16564 765.01757,348.08327 C 780.11992,346.67829 808.02864,369.95619 815.58301,379.82671 z"
     id="path3399"
     sodipodi:nodetypes="csssc" />
</svg>
