<?xml version="1.0" encoding="UTF-8" standalone="no"?>
<!-- Created with Inkscape (http://www.inkscape.org/) -->
<svg
   xmlns:dc="http://purl.org/dc/elements/1.1/"
   xmlns:cc="http://creativecommons.org/ns#"
   xmlns:rdf="http://www.w3.org/1999/02/22-rdf-syntax-ns#"
   xmlns:svg="http://www.w3.org/2000/svg"
   xmlns="http://www.w3.org/2000/svg"
   xmlns:sodipodi="http://sodipodi.sourceforge.net/DTD/sodipodi-0.dtd"
   xmlns:inkscape="http://www.inkscape.org/namespaces/inkscape"
   version="1.0"
   width="1000"
   height="1000"
   id="svg5496"
   sodipodi:version="0.32"
   inkscape:version="0.46"
   sodipodi:docname="faa.init.svg"
   inkscape:output_extension="org.inkscape.output.svg.inkscape">
  <metadata
     id="metadata5594">
    <rdf:RDF>
      <cc:Work
         rdf:about="">
        <dc:format>image/svg+xml</dc:format>
        <dc:type
           rdf:resource="http://purl.org/dc/dcmitype/StillImage" />
      </cc:Work>
    </rdf:RDF>
  </metadata>
  <sodipodi:namedview
     inkscape:pageshadow="2"
     inkscape:pageopacity="0.0"
     guidetolerance="10.0"
     gridtolerance="10.0"
     objecttolerance="10.0"
     borderopacity="1.0"
     bordercolor="#666666"
     pagecolor="#ffffff"
     id="base"
     showgrid="false"
     showguides="true"
     inkscape:guide-bbox="true"
     inkscape:zoom="0.454"
     inkscape:cx="371.16844"
     inkscape:cy="682.4336"
     inkscape:window-x="0"
     inkscape:window-y="25"
     inkscape:current-layer="svg5496">
    <sodipodi:guide
       orientation="horizontal"
       position="200"
       id="guide5596" />
  </sodipodi:namedview>
  <defs
     id="defs5498">
    <inkscape:perspective
       sodipodi:type="inkscape:persp3d"
       inkscape:vp_x="0 : 500 : 1"
       inkscape:vp_y="0 : 1000 : 0"
       inkscape:vp_z="1000 : 500 : 1"
       inkscape:persp3d-origin="500 : 333.33333 : 1"
       id="perspective8" />
    <inkscape:perspective
       id="perspective2474"
       inkscape:persp3d-origin="372.04724 : 350.78739 : 1"
       inkscape:vp_z="744.09448 : 526.18109 : 1"
       inkscape:vp_y="0 : 1000 : 0"
       inkscape:vp_x="0 : 526.18109 : 1"
       sodipodi:type="inkscape:persp3d" />
  </defs>
  <g
     id="layer1"
     transform="translate(-288.54626,309.65613)" />
  <path
     style="fill:none;fill-rule:evenodd;stroke:#000000;stroke-width:1px;stroke-linecap:butt;stroke-linejoin:miter;stroke-opacity:1"
     d="M 141.51982,635.64732 C 135.8949,631.47943 132.09465,632.67504 130.82918,636.00329 C 114.56019,678.79148 70.121844,690.61463 31.777044,671.56815 C 13.987974,662.73203 6.8428145,638.67549 9.0735345,609.15043 C 13.200714,554.52434 59.396654,472.84663 93.598504,473.20239 C 118.18115,473.45956 192.04235,545.20555 186.83529,644.29088 C 183.19102,713.63784 151.5067,749.58266 98.138834,774.62387 C 64.947134,790.19804 36.735944,795.82967 1.6265345,800 L 1.9214345,727.05701 C 63.791224,721.37636 123.85271,690.4709 151.78768,671.01749 C 153.56463,649.63041 147.8665,640.35001 141.51982,635.64732 z"
     id="path2480"
     sodipodi:nodetypes="csssssscccs" />
  <path
     style="fill:none;fill-rule:evenodd;stroke:#000000;stroke-width:1px;stroke-linecap:butt;stroke-linejoin:miter;stroke-opacity:1"
     d="M 95.969354,589.69782 C 91.812804,577.54348 78.562474,559.66764 67.180614,559.93146 C 54.232944,560.23157 48.892734,578.09606 45.193834,590.52423 C 44.709964,592.15001 45.111234,594.95014 46.642004,595.43266 C 65.215524,601.28733 80.143114,599.12836 94.832014,592.65994 C 96.222824,592.04748 96.313424,590.70395 95.969354,589.69782 z"
     id="path2482"
     sodipodi:nodetypes="csssss" />
</svg>
