<?xml version="1.0" encoding="UTF-8" standalone="no"?>
<!-- Created with Inkscape (http://www.inkscape.org/) -->
<svg
   xmlns:dc="http://purl.org/dc/elements/1.1/"
   xmlns:cc="http://creativecommons.org/ns#"
   xmlns:rdf="http://www.w3.org/1999/02/22-rdf-syntax-ns#"
   xmlns:svg="http://www.w3.org/2000/svg"
   xmlns="http://www.w3.org/2000/svg"
   xmlns:sodipodi="http://sodipodi.sourceforge.net/DTD/sodipodi-0.dtd"
   xmlns:inkscape="http://www.inkscape.org/namespaces/inkscape"
   version="1.0"
   width="1000"
   height="1000"
   id="svg5496"
   sodipodi:version="0.32"
   inkscape:version="0.46"
   sodipodi:docname="faa.isol.svg"
   inkscape:output_extension="org.inkscape.output.svg.inkscape">
  <metadata
     id="metadata5594">
    <rdf:RDF>
      <cc:Work
         rdf:about="">
        <dc:format>image/svg+xml</dc:format>
        <dc:type
           rdf:resource="http://purl.org/dc/dcmitype/StillImage" />
      </cc:Work>
    </rdf:RDF>
  </metadata>
  <sodipodi:namedview
     inkscape:pageshadow="2"
     inkscape:pageopacity="0.0"
     guidetolerance="10.0"
     gridtolerance="10.0"
     objecttolerance="10.0"
     borderopacity="1.0"
     bordercolor="#666666"
     pagecolor="#ffffff"
     id="base"
     showgrid="false"
     showguides="true"
     inkscape:guide-bbox="true"
     inkscape:zoom="0.454"
     inkscape:cx="721.15804"
     inkscape:cy="481.98195"
     inkscape:window-x="0"
     inkscape:window-y="25"
     inkscape:current-layer="svg5496">
    <sodipodi:guide
       orientation="horizontal"
       position="200"
       id="guide5596" />
  </sodipodi:namedview>
  <defs
     id="defs5498">
    <inkscape:perspective
       sodipodi:type="inkscape:persp3d"
       inkscape:vp_x="0 : 500 : 1"
       inkscape:vp_y="0 : 1000 : 0"
       inkscape:vp_z="1000 : 500 : 1"
       inkscape:persp3d-origin="500 : 333.33333 : 1"
       id="perspective3382" />
    <inkscape:perspective
       id="perspective3391"
       inkscape:persp3d-origin="372.04724 : 350.78739 : 1"
       inkscape:vp_z="744.09448 : 526.18109 : 1"
       inkscape:vp_y="0 : 1000 : 0"
       inkscape:vp_x="0 : 526.18109 : 1"
       sodipodi:type="inkscape:persp3d" />
  </defs>
  <g
     id="layer1"
     transform="translate(-38.546256,32.674004)" />
  <path
     style="fill:none;fill-rule:evenodd;stroke:#000000;stroke-width:1px;stroke-linecap:butt;stroke-linejoin:miter;stroke-opacity:1"
     d="M 685.02203,604.2599 C 669.80063,682.39865 398.86787,750.19091 328.19384,757.3436 C 180.45604,772.29566 52.894887,758.6036 34.140969,673.64317 C 29.600481,653.0735 44.325886,610.98616 67.113807,576.33748 C 74.831987,564.60211 58.920627,551.87412 49.492667,563.96718 C -16.753058,649.04939 -68.851057,854.37552 215.85904,848.7533 C 398.44337,845.12794 657.96669,770.30444 700.6963,659.25917 C 723.26227,600.61495 696.8993,445.04149 630.95249,418.32588 C 623.22927,415.19714 614.99496,415.24257 606.04945,415.28877 C 584.9203,415.39791 555.35863,455.98481 537.23402,503.29622 C 518.94355,551.04059 515.16592,589.51276 552.1515,614.49437 C 608.32878,643.19993 648.28627,601.71309 658.75875,572.28476 C 659.65899,569.70936 659.92651,566.57892 663.31143,568.40833 C 675.36792,579.06945 682.59199,589.90789 685.02203,604.2599 z"
     id="path3397"
     sodipodi:nodetypes="cssssssssscccc" />
  <path
     style="fill:none;fill-rule:evenodd;stroke:#000000;stroke-width:1px;stroke-linecap:butt;stroke-linejoin:miter;stroke-opacity:1"
     d="M 624.08764,525.54308 C 614.35606,534.51884 605.6005,539.93568 594.17294,540.6092 C 580.21878,541.43163 565.89098,535.75504 563.74304,528.01295 C 562.0132,521.77783 576.24148,501.95764 585.19115,501.12505 C 596.80834,500.04429 618.27659,517.95037 624.08764,525.54308 z"
     id="path3399"
     sodipodi:nodetypes="csssc" />
</svg>
