<?xml version="1.0" encoding="UTF-8" standalone="no"?>
<!-- Created with Inkscape (http://www.inkscape.org/) -->
<svg
   xmlns:dc="http://purl.org/dc/elements/1.1/"
   xmlns:cc="http://creativecommons.org/ns#"
   xmlns:rdf="http://www.w3.org/1999/02/22-rdf-syntax-ns#"
   xmlns:svg="http://www.w3.org/2000/svg"
   xmlns="http://www.w3.org/2000/svg"
   xmlns:sodipodi="http://sodipodi.sourceforge.net/DTD/sodipodi-0.dtd"
   xmlns:inkscape="http://www.inkscape.org/namespaces/inkscape"
   version="1.0"
   width="1000"
   height="1000"
   id="svg5496"
   sodipodi:version="0.32"
   inkscape:version="0.46"
   sodipodi:docname="faa.init.svg"
   inkscape:output_extension="org.inkscape.output.svg.inkscape">
  <metadata
     id="metadata5594">
    <rdf:RDF>
      <cc:Work
         rdf:about="">
        <dc:format>image/svg+xml</dc:format>
        <dc:type
           rdf:resource="http://purl.org/dc/dcmitype/StillImage" />
      </cc:Work>
    </rdf:RDF>
  </metadata>
  <sodipodi:namedview
     inkscape:pageshadow="2"
     inkscape:pageopacity="0.0"
     guidetolerance="10.0"
     gridtolerance="10.0"
     objecttolerance="10.0"
     borderopacity="1.0"
     bordercolor="#666666"
     pagecolor="#ffffff"
     id="base"
     showgrid="false"
     showguides="true"
     inkscape:guide-bbox="true"
     inkscape:zoom="0.236"
     inkscape:cx="500"
     inkscape:cy="500"
     inkscape:window-x="0"
     inkscape:window-y="25"
     inkscape:current-layer="svg5496">
    <sodipodi:guide
       orientation="horizontal"
       position="200"
       id="guide5596" />
  </sodipodi:namedview>
  <defs
     id="defs5498">
    <inkscape:perspective
       sodipodi:type="inkscape:persp3d"
       inkscape:vp_x="0 : 500 : 1"
       inkscape:vp_y="0 : 1000 : 0"
       inkscape:vp_z="1000 : 500 : 1"
       inkscape:persp3d-origin="500 : 333.33333 : 1"
       id="perspective8" />
    <inkscape:perspective
       id="perspective2474"
       inkscape:persp3d-origin="372.04724 : 350.78739 : 1"
       inkscape:vp_z="744.09448 : 526.18109 : 1"
       inkscape:vp_y="0 : 1000 : 0"
       inkscape:vp_x="0 : 526.18109 : 1"
       sodipodi:type="inkscape:persp3d" />
  </defs>
  <g
     id="layer1"
     transform="matrix(1.3,0,0,1.3,-373.75769,162.55296)" />
  <path
     style="fill:none;fill-rule:evenodd;stroke:#000000;stroke-width:1.29999995px;stroke-linecap:butt;stroke-linejoin:miter;stroke-opacity:1"
     d="M 185.32822,586.34151 C 178.01582,580.92325 173.0755,582.47755 171.43039,586.80427 C 150.2807,642.42892 92.510846,657.79901 42.662606,633.03859 C 19.536815,621.55163 10.248108,590.27813 13.148044,551.89555 C 18.513377,480.88164 78.568099,374.70061 123.0305,375.1631 C 154.98795,375.49742 251.00751,468.76721 244.23833,597.57814 C 239.50078,687.72919 198.31116,734.45745 128.93293,767.01103 C 85.783723,787.25745 49.109176,794.57857 3.4669439,800 L 3.8503139,705.17411 C 84.28104,697.78926 162.36098,657.61217 198.67644,632.32273 C 200.98647,604.51953 193.5789,592.45501 185.32822,586.34151 z"
     id="path2480"
     sodipodi:nodetypes="csssssscccs" />
  <path
     style="fill:none;fill-rule:evenodd;stroke:#000000;stroke-width:1.29999995px;stroke-linecap:butt;stroke-linejoin:miter;stroke-opacity:1"
     d="M 126.11261,526.60716 C 120.70909,510.80652 103.48366,487.56793 88.687247,487.91089 C 71.855276,488.30104 64.913003,511.52487 60.104433,527.68149 C 59.475402,529.79501 59.997053,533.43518 61.987054,534.06245 C 86.13263,541.67352 105.5385,538.86686 124.63407,530.45792 C 126.44212,529.66172 126.5599,527.91513 126.11261,526.60716 z"
     id="path2482"
     sodipodi:nodetypes="csssss" />
</svg>
