<?xml version="1.0" encoding="UTF-8" standalone="no"?>
<!-- Created with Inkscape (http://www.inkscape.org/) -->
<svg
   xmlns:dc="http://purl.org/dc/elements/1.1/"
   xmlns:cc="http://creativecommons.org/ns#"
   xmlns:rdf="http://www.w3.org/1999/02/22-rdf-syntax-ns#"
   xmlns:svg="http://www.w3.org/2000/svg"
   xmlns="http://www.w3.org/2000/svg"
   xmlns:sodipodi="http://sodipodi.sourceforge.net/DTD/sodipodi-0.dtd"
   xmlns:inkscape="http://www.inkscape.org/namespaces/inkscape"
   version="1.0"
   width="1000"
   height="1000"
   id="svg5496"
   sodipodi:version="0.32"
   inkscape:version="0.46"
   sodipodi:docname="haa+meem.init.svg"
   inkscape:output_extension="org.inkscape.output.svg.inkscape">
  <metadata
     id="metadata5594">
    <rdf:RDF>
      <cc:Work
         rdf:about="">
        <dc:format>image/svg+xml</dc:format>
        <dc:type
           rdf:resource="http://purl.org/dc/dcmitype/StillImage" />
      </cc:Work>
    </rdf:RDF>
  </metadata>
  <sodipodi:namedview
     inkscape:pageshadow="2"
     inkscape:pageopacity="0.0"
     guidetolerance="10.0"
     gridtolerance="10.0"
     objecttolerance="10.0"
     borderopacity="1.0"
     bordercolor="#666666"
     pagecolor="#ffffff"
     id="base"
     showgrid="false"
     showguides="true"
     inkscape:guide-bbox="true"
     inkscape:zoom="0.908"
     inkscape:cx="562.71805"
     inkscape:cy="385.53526"
     inkscape:window-x="0"
     inkscape:window-y="25"
     inkscape:current-layer="svg5496">
    <sodipodi:guide
       orientation="horizontal"
       position="200"
       id="guide5596" />
  </sodipodi:namedview>
  <defs
     id="defs5498">
    <inkscape:perspective
       sodipodi:type="inkscape:persp3d"
       inkscape:vp_x="0 : 500 : 1"
       inkscape:vp_y="0 : 1000 : 0"
       inkscape:vp_z="1000 : 500 : 1"
       inkscape:persp3d-origin="500 : 333.33333 : 1"
       id="perspective4915" />
    <inkscape:perspective
       id="perspective4924"
       inkscape:persp3d-origin="372.04724 : 350.78739 : 1"
       inkscape:vp_z="744.09448 : 526.18109 : 1"
       inkscape:vp_y="0 : 1000 : 0"
       inkscape:vp_x="0 : 526.18109 : 1"
       sodipodi:type="inkscape:persp3d" />
  </defs>
  <g
     id="layer1"
     transform="translate(-466.96035,132.59912)" />
  <path
     style="fill:none;fill-rule:evenodd;stroke:#000000;stroke-width:1px;stroke-linecap:butt;stroke-linejoin:miter;stroke-opacity:1"
     d="M 285.79295,555.50661 C 254.62019,533.57334 209.97072,495.3672 111.78414,513.65639 C 103.78507,515.14637 103.61289,506.45485 107.57355,501.0914 C 139.9849,457.20062 180.29451,439.19479 213.1506,442.55434 C 265.56959,446.89467 315.74107,493.57241 375.86931,518.78886 C 425.93781,539.74917 480.22794,558.36318 529.18503,564.31718 C 531.84844,564.6411 535.77715,567.51757 535.24225,571.61344 C 532.5221,592.44385 523.81358,604.75499 513.76652,621.72357 C 511.56562,625.4407 506.732,627.80205 501.92731,626.12885 C 382.61007,584.57744 298.37456,577.09981 208.24427,604.6767 C 246.40396,653.36555 243.78346,715.6984 214.11257,745.80715 C 196.80317,763.37199 126.08136,743.24669 77.643167,712.9956 C 57.668707,772.90149 15.590047,791.8588 0.55065733,800 L 1.2508473,730.84483 C 13.931837,727.64567 44.499317,718.06015 64.927727,700.27995 C 66.930047,698.53721 67.548187,694.85825 67.496547,692.32445 C 66.561237,646.14871 94.798517,609.61001 111.23348,598.45815 C 156.41491,567.80052 240.28447,563.5469 285.79295,555.50661 z"
     id="path4930"
     sodipodi:nodetypes="csscssssscscccsssc" />
  <path
     style="fill:none;fill-rule:evenodd;stroke:#000000;stroke-width:1px;stroke-linecap:butt;stroke-linejoin:miter;stroke-opacity:1"
     d="M 95.814977,641.40969 C 109.9705,660.96573 159.33078,686.2329 204.29516,691.51982 C 194.66662,667.32435 177.7777,646.59788 154.73569,633.70044 C 146.26614,628.95973 105.89357,616.92471 95.814977,641.40969 z"
     id="path4932"
     sodipodi:nodetypes="ccsc" />
</svg>
