<?xml version="1.0" encoding="UTF-8" standalone="no"?>
<!-- Created with Inkscape (http://www.inkscape.org/) -->

<svg
   xmlns:dc="http://purl.org/dc/elements/1.1/"
   xmlns:cc="http://creativecommons.org/ns#"
   xmlns:rdf="http://www.w3.org/1999/02/22-rdf-syntax-ns#"
   xmlns:svg="http://www.w3.org/2000/svg"
   xmlns="http://www.w3.org/2000/svg"
   xmlns:sodipodi="http://sodipodi.sourceforge.net/DTD/sodipodi-0.dtd"
   xmlns:inkscape="http://www.inkscape.org/namespaces/inkscape"
   version="1.0"
   width="1000"
   height="1000"
   id="svg5496"
   sodipodi:version="0.32"
   inkscape:version="0.47pre0 r21549"
   sodipodi:docname="haa+yaa.isol.svg"
   inkscape:output_extension="org.inkscape.output.svg.inkscape">
  <metadata
     id="metadata5594">
    <rdf:RDF>
      <cc:Work
         rdf:about="">
        <dc:format>image/svg+xml</dc:format>
        <dc:type
           rdf:resource="http://purl.org/dc/dcmitype/StillImage" />
        <dc:title></dc:title>
      </cc:Work>
    </rdf:RDF>
  </metadata>
  <sodipodi:namedview
     inkscape:window-height="618"
     inkscape:pageshadow="2"
     inkscape:pageopacity="0.0"
     borderopacity="1.0"
     bordercolor="#666666"
     pagecolor="#ffffff"
     id="base"
     showgrid="false"
     showguides="true"
     inkscape:guide-bbox="true"
     inkscape:zoom="0.454"
     inkscape:cx="492.22164"
     inkscape:cy="370.9322"
     inkscape:window-x="0"
     inkscape:window-y="25"
     inkscape:current-layer="svg5496">
    <sodipodi:guide
       orientation="horizontal"
       position="200"
       id="guide5596" />
  </sodipodi:namedview>
  <defs
     id="defs5498">
    <inkscape:perspective
       sodipodi:type="inkscape:persp3d"
       inkscape:vp_x="0 : 500 : 1"
       inkscape:vp_y="0 : 1000 : 0"
       inkscape:vp_z="1000 : 500 : 1"
       inkscape:persp3d-origin="500 : 333.33333 : 1"
       id="perspective2918" />
    <inkscape:perspective
       id="perspective2907"
       inkscape:persp3d-origin="0.5 : 0.33333333 : 1"
       inkscape:vp_z="1 : 0.5 : 1"
       inkscape:vp_y="0 : 1000 : 0"
       inkscape:vp_x="0 : 0.5 : 1"
       sodipodi:type="inkscape:persp3d" />
  </defs>
  <g
     id="layer1" />
  <path
     style="color:#000000;fill:none;stroke:#000000;stroke-width:1px;stroke-linecap:butt;stroke-linejoin:miter;stroke-miterlimit:4;stroke-opacity:1;stroke-dasharray:none;stroke-dashoffset:0;marker:none;visibility:visible;display:inline;overflow:visible;enable-background:accumulate"
     d="m 664.59016,664.74898 c -102.49101,25.88185 -164.0736,49.10996 -255.98529,90.78924 -5.83431,2.64569 -10.42647,6.45619 -13.19855,11.96033 -14.81944,29.42486 -29.0972,56.53834 -35.95116,85.84166 -1.80979,7.73752 0.39569,10.24232 7.90821,12.00779 55.7817,13.10894 134.66237,14.19707 200.38216,48.99779 3.32198,1.75909 5.51285,3.47259 2.21695,6.11917 C 462.70039,1006.5958 312.40408,1049.237 214.75771,1044.6035 99.763821,1039.1469 36.716321,971.69462 36.343611,888.76652 c -0.23862,-53.09395 27.95879,-109.244 54.74351,-163.25136 5.45133,-10.99178 -5.86271,-25.25427 -16.06364,-8.488 C 11.791791,820.95488 -0.37814859,917.75894 1.4096914e-6,970.26432 0.78152141,1078.7758 99.811681,1138.3614 207.04846,1139.8678 c 159.86183,2.2621 365.54387,-129.3627 387.6652,-176.21141 10.98837,-23.27123 24.17793,-53.8467 26.49058,-84.23253 0.77559,-10.19042 -2.23987,-14.39066 -9.65466,-20.66559 -37.50359,-31.73822 -110.90516,-45.24579 -171.46953,-57.49562 -9.2112,-1.86307 -8.43099,-3.95249 -0.96787,-7.77249 82.56643,-42.2616 181.86367,-68.49533 246.48231,-79.15089 108.57976,-17.90471 176.88724,-0.0921 250.66345,13.59646 5.0877,0.94397 6.6323,1.05202 9.9987,-2.52351 16.2175,-17.22502 29.5458,-38.2453 36.321,-62.73308 4.1958,-15.16501 -30.2521,-16.5444 -43.2616,-16.60107 -61.13012,-0.2663 -135.75261,-17.47294 -207.48785,-48.61111 -33.62137,-14.59406 -85.29964,-45.9411 -128.69039,-66.0769 -23.21689,-10.77396 -46.40568,-12.6241 -64.13537,-6.83842 -59.17897,19.31173 -79.63097,57.55755 -95.2412,94.66151 -3.62301,8.61153 -2.72863,15.29522 6.34436,11.87358 98.98312,-37.32893 157.36178,-7.18829 214.58535,28.42648 3.54339,2.20533 4.1609,4.15958 -0.10078,5.23577 z"
     id="path2929"
     sodipodi:nodetypes="csssssssssssssssssssssssssssss" />
</svg>
