<?xml version="1.0" encoding="UTF-8" standalone="no"?>
<!-- Created with Inkscape (http://www.inkscape.org/) -->
<svg
   xmlns:dc="http://purl.org/dc/elements/1.1/"
   xmlns:cc="http://creativecommons.org/ns#"
   xmlns:rdf="http://www.w3.org/1999/02/22-rdf-syntax-ns#"
   xmlns:svg="http://www.w3.org/2000/svg"
   xmlns="http://www.w3.org/2000/svg"
   xmlns:sodipodi="http://sodipodi.sourceforge.net/DTD/sodipodi-0.dtd"
   xmlns:inkscape="http://www.inkscape.org/namespaces/inkscape"
   version="1.0"
   width="1000"
   height="1000"
   id="svg5496"
   sodipodi:version="0.32"
   inkscape:version="0.46"
   sodipodi:docname="haa+meem.init.svg"
   inkscape:output_extension="org.inkscape.output.svg.inkscape">
  <metadata
     id="metadata5594">
    <rdf:RDF>
      <cc:Work
         rdf:about="">
        <dc:format>image/svg+xml</dc:format>
        <dc:type
           rdf:resource="http://purl.org/dc/dcmitype/StillImage" />
      </cc:Work>
    </rdf:RDF>
  </metadata>
  <sodipodi:namedview
     inkscape:pageshadow="2"
     inkscape:pageopacity="0.0"
     guidetolerance="10.0"
     gridtolerance="10.0"
     objecttolerance="10.0"
     borderopacity="1.0"
     bordercolor="#666666"
     pagecolor="#ffffff"
     id="base"
     showgrid="false"
     showguides="true"
     inkscape:guide-bbox="true"
     inkscape:zoom="0.908"
     inkscape:cx="197.65321"
     inkscape:cy="385.53526"
     inkscape:window-x="0"
     inkscape:window-y="25"
     inkscape:current-layer="svg5496">
    <sodipodi:guide
       orientation="horizontal"
       position="200"
       id="guide5596" />
  </sodipodi:namedview>
  <defs
     id="defs5498">
    <inkscape:perspective
       sodipodi:type="inkscape:persp3d"
       inkscape:vp_x="0 : 500 : 1"
       inkscape:vp_y="0 : 1000 : 0"
       inkscape:vp_z="1000 : 500 : 1"
       inkscape:persp3d-origin="500 : 333.33333 : 1"
       id="perspective4915" />
    <inkscape:perspective
       id="perspective4924"
       inkscape:persp3d-origin="372.04724 : 350.78739 : 1"
       inkscape:vp_z="744.09448 : 526.18109 : 1"
       inkscape:vp_y="0 : 1000 : 0"
       inkscape:vp_x="0 : 526.18109 : 1"
       sodipodi:type="inkscape:persp3d" />
  </defs>
  <g
     id="layer1"
     transform="matrix(1.3,0,0,1.3,-607.02832,-67.621141)" />
  <path
     style="fill:none;fill-rule:evenodd;stroke:#000000;stroke-width:1px;stroke-linecap:butt;stroke-linejoin:miter;stroke-opacity:1"
     d="M 371.55097,482.1586 C 331.02638,453.64535 272.98207,403.97736 145.33951,427.75331 C 134.94072,429.69028 134.71689,418.39131 139.86575,411.41882 C 182.00051,354.36081 234.403,330.95323 277.11592,335.32065 C 345.2606,340.96307 410.48353,401.64414 488.65024,434.42552 C 553.73929,461.67392 624.31646,485.87214 687.96068,493.61234 C 691.42311,494.03343 696.53043,497.77284 695.83506,503.09748 C 692.29887,530.17701 680.97779,546.18149 667.91661,568.24064 C 665.05544,573.07291 658.77174,576.14267 652.52564,573.96751 C 497.41323,519.95068 387.90706,510.22976 270.73769,546.07971 C 320.34528,609.37522 316.93863,690.40792 278.36648,729.5493 C 255.86426,752.38359 163.9259,726.2207 100.95625,686.89428 C 74.989451,764.77194 20.287193,789.41644 0.73598677,800 L 1.6462338,710.09828 C 18.13152,705.93937 57.869244,693.4782 84.426177,670.36394 C 87.029193,668.09838 87.832775,663.31573 87.765643,660.02179 C 86.54974,599.99333 123.2582,552.49302 144.62366,537.9956 C 203.35952,498.14068 312.38995,492.61097 371.55097,482.1586 z"
     id="path4930"
     sodipodi:nodetypes="csscssssscscccsssc" />
  <path
     style="fill:none;fill-rule:evenodd;stroke:#000000;stroke-width:1px;stroke-linecap:butt;stroke-linejoin:miter;stroke-opacity:1"
     d="M 124.5796,593.8326 C 142.98178,619.25545 207.15015,652.10277 265.60384,658.97577 C 253.08674,627.52166 231.13115,600.57725 201.17653,583.81058 C 190.16612,577.64765 137.68177,562.00213 124.5796,593.8326 z"
     id="path4932"
     sodipodi:nodetypes="ccsc" />
</svg>
