<?xml version="1.0" encoding="UTF-8" standalone="no"?>
<!-- Created with Inkscape (http://www.inkscape.org/) -->
<svg
   xmlns:dc="http://purl.org/dc/elements/1.1/"
   xmlns:cc="http://creativecommons.org/ns#"
   xmlns:rdf="http://www.w3.org/1999/02/22-rdf-syntax-ns#"
   xmlns:svg="http://www.w3.org/2000/svg"
   xmlns="http://www.w3.org/2000/svg"
   xmlns:sodipodi="http://sodipodi.sourceforge.net/DTD/sodipodi-0.dtd"
   xmlns:inkscape="http://www.inkscape.org/namespaces/inkscape"
   version="1.0"
   width="1000"
   height="1000"
   id="svg5496"
   sodipodi:version="0.32"
   inkscape:version="0.46"
   sodipodi:docname="haa.alt.init.svg"
   inkscape:output_extension="org.inkscape.output.svg.inkscape">
  <metadata
     id="metadata5594">
    <rdf:RDF>
      <cc:Work
         rdf:about="">
        <dc:format>image/svg+xml</dc:format>
        <dc:type
           rdf:resource="http://purl.org/dc/dcmitype/StillImage" />
      </cc:Work>
    </rdf:RDF>
  </metadata>
  <sodipodi:namedview
     inkscape:pageshadow="2"
     inkscape:pageopacity="0.0"
     guidetolerance="10.0"
     gridtolerance="10.0"
     objecttolerance="10.0"
     borderopacity="1.0"
     bordercolor="#666666"
     pagecolor="#ffffff"
     id="base"
     showgrid="false"
     showguides="true"
     inkscape:guide-bbox="true"
     inkscape:zoom="0.64205296"
     inkscape:cx="404.88321"
     inkscape:cy="369.46329"
     inkscape:window-x="0"
     inkscape:window-y="25"
     inkscape:current-layer="svg5496">
    <sodipodi:guide
       orientation="horizontal"
       position="200"
       id="guide5596" />
  </sodipodi:namedview>
  <defs
     id="defs5498">
    <inkscape:perspective
       sodipodi:type="inkscape:persp3d"
       inkscape:vp_x="0 : 500 : 1"
       inkscape:vp_y="0 : 1000 : 0"
       inkscape:vp_z="1000 : 500 : 1"
       inkscape:persp3d-origin="500 : 333.33333 : 1"
       id="perspective8" />
    <inkscape:perspective
       id="perspective2388"
       inkscape:persp3d-origin="372.04724 : 350.78739 : 1"
       inkscape:vp_z="744.09448 : 526.18109 : 1"
       inkscape:vp_y="0 : 1000 : 0"
       inkscape:vp_x="0 : 526.18109 : 1"
       sodipodi:type="inkscape:persp3d" />
  </defs>
  <g
     id="layer1"
     transform="matrix(1.3,0,0,1.3,-59.286175,-171.26635)" />
  <path
     style="fill:none;fill-rule:evenodd;stroke:#000000;stroke-width:1.29999995px;stroke-linecap:butt;stroke-linejoin:miter;stroke-opacity:1"
     d="M 1.9626645,688.09631 C 21.324191,618.27759 129.14716,500.18162 178.67341,501.30521 C 241.21515,502.73873 380.1114,623.94708 566.86933,614.44585 C 577.15465,613.92259 588.21323,617.39951 581.8019,633.68103 C 571.86063,658.92677 560.52813,682.08567 547.88725,703.28197 C 542.43239,712.42872 536.43818,715.26407 531.43612,714.92433 C 343.36388,702.15005 163.69319,797.70659 58.149619,804.77283 C 34.359005,806.37331 23.489309,805.93438 1.7231915,800 C -1.5190485,771.21704 -6.8427885,719.84926 1.9626645,688.09631 z"
     id="path2394"
     sodipodi:nodetypes="csssssscs" />
  <path
     style="fill:none;fill-rule:evenodd;stroke:#000000;stroke-width:1.29999995px;stroke-linecap:butt;stroke-linejoin:miter;stroke-opacity:1"
     d="M 123.9033,615.45824 C 174.43602,614.47531 222.05951,634.67544 264.57979,656.63923 C 268.09889,658.45702 270.29162,662.10823 265.0849,663.49377 C 243.74956,669.17126 211.41984,677.52802 177.62861,687.89971 C 148.24411,697.04087 87.791091,718.52781 32.167741,692.5389 C 36.330661,642.52165 102.63327,615.87689 123.9033,615.45824 z"
     id="path2396"
     sodipodi:nodetypes="cssccs" />
</svg>
