<?xml version="1.0" encoding="UTF-8" standalone="no"?>
<!-- Created with Inkscape (http://www.inkscape.org/) -->
<svg
   xmlns:dc="http://purl.org/dc/elements/1.1/"
   xmlns:cc="http://creativecommons.org/ns#"
   xmlns:rdf="http://www.w3.org/1999/02/22-rdf-syntax-ns#"
   xmlns:svg="http://www.w3.org/2000/svg"
   xmlns="http://www.w3.org/2000/svg"
   xmlns:sodipodi="http://sodipodi.sourceforge.net/DTD/sodipodi-0.dtd"
   xmlns:inkscape="http://www.inkscape.org/namespaces/inkscape"
   version="1.0"
   width="1000"
   height="1000"
   id="svg5496"
   sodipodi:version="0.32"
   inkscape:version="0.46"
   sodipodi:docname="haa.alt.medi.svg"
   inkscape:output_extension="org.inkscape.output.svg.inkscape">
  <metadata
     id="metadata5594">
    <rdf:RDF>
      <cc:Work
         rdf:about="">
        <dc:format>image/svg+xml</dc:format>
        <dc:type
           rdf:resource="http://purl.org/dc/dcmitype/StillImage" />
      </cc:Work>
    </rdf:RDF>
  </metadata>
  <sodipodi:namedview
     inkscape:pageshadow="2"
     inkscape:pageopacity="0.0"
     guidetolerance="10.0"
     gridtolerance="10.0"
     objecttolerance="10.0"
     borderopacity="1.0"
     bordercolor="#666666"
     pagecolor="#ffffff"
     id="base"
     showgrid="false"
     showguides="true"
     inkscape:guide-bbox="true"
     inkscape:zoom="0.64205296"
     inkscape:cx="744.47238"
     inkscape:cy="392.31085"
     inkscape:window-x="0"
     inkscape:window-y="25"
     inkscape:current-layer="svg5496">
    <sodipodi:guide
       orientation="horizontal"
       position="200"
       id="guide5596" />
  </sodipodi:namedview>
  <defs
     id="defs5498">
    <inkscape:perspective
       sodipodi:type="inkscape:persp3d"
       inkscape:vp_x="0 : 500 : 1"
       inkscape:vp_y="0 : 1000 : 0"
       inkscape:vp_z="1000 : 500 : 1"
       inkscape:persp3d-origin="500 : 333.33333 : 1"
       id="perspective4356" />
    <inkscape:perspective
       id="perspective4365"
       inkscape:persp3d-origin="372.04724 : 350.78739 : 1"
       inkscape:vp_z="744.09448 : 526.18109 : 1"
       inkscape:vp_y="0 : 1000 : 0"
       inkscape:vp_x="0 : 526.18109 : 1"
       sodipodi:type="inkscape:persp3d" />
  </defs>
  <g
     id="layer1"
     transform="translate(-404.95102,127.65625)" />
  <path
     style="fill:none;fill-opacity:1;fill-rule:evenodd;stroke:#000000;stroke-width:1px;stroke-linecap:butt;stroke-linejoin:miter;stroke-opacity:1"
     d="M 137.67398,570.15625 C 136.06345,570.16669 134.52864,570.23352 133.04898,570.375 C 61.26852,577.23857 10.84607,672.57702 0.89272983,721.28125 L 0.33022983,800 C 61.24009,802.14661 140.87244,777.74489 192.42398,757.78125 C 223.32168,745.81593 255.40988,731.33751 288.64273,720.03125 C 287.84529,751.69038 287.16514,785.59043 295.48648,798.90625 C 299.69366,805.63862 311.96106,817.80726 325.23648,818.15625 C 369.78096,819.32725 447.42303,819.81288 456.54898,818.46875 L 455.73648,745.15625 C 420.9452,745.89333 365.39098,742.68071 340.42398,742.9375 C 334.66847,742.99954 328.67228,739.68406 327.42398,738.34375 C 319.99347,730.36555 318.38692,721.22346 318.11148,711.09375 C 350.84175,702.43035 384.62326,698.24193 419.39273,703.65625 C 424.77976,704.49512 431.25961,704.8419 434.39273,697.59375 L 454.51773,650.96875 C 458.09513,642.69293 453.11015,639.47051 449.14273,639.875 C 413.50591,643.50846 396.01865,641.41698 367.17398,638.21875 C 298.7451,630.6315 187.60044,569.83248 137.67398,570.15625 z"
     id="path4373" />
  <path
     style="fill:none;fill-opacity:1;fill-rule:evenodd;stroke:#000000;stroke-width:1px;stroke-linecap:butt;stroke-linejoin:miter;stroke-opacity:1"
     d="M 17.86199,721.42987 C 19.83248,724.12824 27.15715,725.26794 31.8225,725.68357 C 46.70808,727.00971 96.87659,719.29579 150.26557,706.73139 C 181.80829,699.30822 213.6054,689.6929 237.94546,678.04171 C 219.18712,670.69895 191.7705,663.92161 163.60522,658.77619 C 134.19398,653.40316 104.49334,649.06739 81.22712,652.14109 C 58.13537,655.19174 26.59101,693.48525 17.86199,721.42987 z"
     id="path4377"
     sodipodi:nodetypes="csscssc" />
</svg>
