<?xml version="1.0" encoding="UTF-8" standalone="no"?>
<!-- Created with Inkscape (http://www.inkscape.org/) -->
<svg
   xmlns:dc="http://purl.org/dc/elements/1.1/"
   xmlns:cc="http://creativecommons.org/ns#"
   xmlns:rdf="http://www.w3.org/1999/02/22-rdf-syntax-ns#"
   xmlns:svg="http://www.w3.org/2000/svg"
   xmlns="http://www.w3.org/2000/svg"
   xmlns:sodipodi="http://sodipodi.sourceforge.net/DTD/sodipodi-0.dtd"
   xmlns:inkscape="http://www.inkscape.org/namespaces/inkscape"
   version="1.0"
   width="1000"
   height="1000"
   id="svg5496"
   sodipodi:version="0.32"
   inkscape:version="0.46"
   sodipodi:docname="haa.medi.svg"
   inkscape:output_extension="org.inkscape.output.svg.inkscape">
  <metadata
     id="metadata5594">
    <rdf:RDF>
      <cc:Work
         rdf:about="">
        <dc:format>image/svg+xml</dc:format>
        <dc:type
           rdf:resource="http://purl.org/dc/dcmitype/StillImage" />
      </cc:Work>
    </rdf:RDF>
  </metadata>
  <sodipodi:namedview
     inkscape:pageshadow="2"
     inkscape:pageopacity="0.0"
     guidetolerance="10.0"
     gridtolerance="10.0"
     objecttolerance="10.0"
     borderopacity="1.0"
     bordercolor="#666666"
     pagecolor="#ffffff"
     id="base"
     showgrid="false"
     showguides="true"
     inkscape:guide-bbox="true"
     inkscape:zoom="0.64205296"
     inkscape:cx="623.05071"
     inkscape:cy="455.94714"
     inkscape:window-x="0"
     inkscape:window-y="25"
     inkscape:current-layer="svg5496">
    <sodipodi:guide
       orientation="horizontal"
       position="200"
       id="guide5596" />
  </sodipodi:namedview>
  <defs
     id="defs5498">
    <inkscape:perspective
       sodipodi:type="inkscape:persp3d"
       inkscape:vp_x="0 : 500 : 1"
       inkscape:vp_y="0 : 1000 : 0"
       inkscape:vp_z="1000 : 500 : 1"
       inkscape:persp3d-origin="500 : 333.33333 : 1"
       id="perspective8" />
    <inkscape:perspective
       id="perspective2388"
       inkscape:persp3d-origin="372.04724 : 350.78739 : 1"
       inkscape:vp_z="744.09448 : 526.18109 : 1"
       inkscape:vp_y="0 : 1000 : 0"
       inkscape:vp_x="0 : 526.18109 : 1"
       sodipodi:type="inkscape:persp3d" />
    <inkscape:perspective
       sodipodi:type="inkscape:persp3d"
       inkscape:vp_x="0 : 526.18109 : 1"
       inkscape:vp_y="0 : 1000 : 0"
       inkscape:vp_z="744.09448 : 526.18109 : 1"
       inkscape:persp3d-origin="372.04724 : 350.78739 : 1"
       id="perspective4365" />
    <inkscape:perspective
       id="perspective4356"
       inkscape:persp3d-origin="500 : 333.33333 : 1"
       inkscape:vp_z="1000 : 500 : 1"
       inkscape:vp_y="0 : 1000 : 0"
       inkscape:vp_x="0 : 500 : 1"
       sodipodi:type="inkscape:persp3d" />
  </defs>
  <g
     id="layer1"
     transform="translate(-239.8556,129.40625)" />
  <path
     style="fill:#000000;fill-rule:evenodd;stroke:#000000;stroke-width:1px;stroke-linecap:butt;stroke-linejoin:miter;stroke-opacity:1"
     d="M 141.73815,473.6875 C 94.613556,472.92915 33.602186,501.60747 2.3318957,581.15625 C -4.7558943,599.18694 4.4817157,600.01149 15.581896,596.75 C 82.128926,577.19702 149.10635,586.86209 236.23815,616.4375 C 248.06561,620.45213 250.30758,627.89276 243.2069,631.6875 C 205.86356,651.64447 81.854946,689.94636 -0.011854254,714.46875 L 0.76939575,800 C 69.533016,779.42206 180.99543,724.49909 269.8319,694.59375 C 333.05134,673.31197 390.17187,665.3613 455.67565,666.09375 C 455.37369,671.50858 455.30931,677.48764 455.5194,684.03125 C 454.48274,725.18809 453.57666,769.25193 464.3944,786.5625 C 469.86371,795.31458 485.82386,811.14006 503.0819,811.59375 C 560.98971,813.11602 613.93692,813.74737 625.80065,812 L 624.73815,718.90625 C 579.50951,719.86445 558.039,717.32243 525.5819,717.65625 C 518.09977,717.73688 507.54844,709.58615 505.92565,707.84375 C 496.26597,697.4721 494.18997,685.57487 493.8319,672.40625 C 493.79987,670.68744 493.7328,669.00871 493.6444,667.375 C 521.19825,668.90193 550.52147,671.69989 582.5194,675.40625 C 586.60921,675.87998 592.72063,673.95186 595.05065,669.34375 C 606.06934,647.55224 614.8886,624.65734 622.98815,601.40625 C 626.30008,591.89881 616.87352,589.28803 611.4569,589.125 C 560.97241,587.60546 482.54729,581.41035 423.6444,570.8125 C 378.12816,562.62317 332.69348,546.15935 291.61315,530.125 C 240.37273,510.12499 197.45198,474.57371 141.73815,473.6875 z"
     id="path2394"
     sodipodi:nodetypes="cssssccsccsscccsccssssssc" />
</svg>
