<?xml version="1.0" encoding="UTF-8" standalone="no"?>
<!-- Created with Inkscape (http://www.inkscape.org/) -->
<svg
   xmlns:dc="http://purl.org/dc/elements/1.1/"
   xmlns:cc="http://creativecommons.org/ns#"
   xmlns:rdf="http://www.w3.org/1999/02/22-rdf-syntax-ns#"
   xmlns:svg="http://www.w3.org/2000/svg"
   xmlns="http://www.w3.org/2000/svg"
   xmlns:sodipodi="http://sodipodi.sourceforge.net/DTD/sodipodi-0.dtd"
   xmlns:inkscape="http://www.inkscape.org/namespaces/inkscape"
   version="1.0"
   width="1000"
   height="1000"
   id="svg5496"
   sodipodi:version="0.32"
   inkscape:version="0.46"
   sodipodi:docname="haa.alt.medi.svg"
   inkscape:output_extension="org.inkscape.output.svg.inkscape">
  <metadata
     id="metadata5594">
    <rdf:RDF>
      <cc:Work
         rdf:about="">
        <dc:format>image/svg+xml</dc:format>
        <dc:type
           rdf:resource="http://purl.org/dc/dcmitype/StillImage" />
      </cc:Work>
    </rdf:RDF>
  </metadata>
  <sodipodi:namedview
     inkscape:pageshadow="2"
     inkscape:pageopacity="0.0"
     guidetolerance="10.0"
     gridtolerance="10.0"
     objecttolerance="10.0"
     borderopacity="1.0"
     bordercolor="#666666"
     pagecolor="#ffffff"
     id="base"
     showgrid="false"
     showguides="true"
     inkscape:guide-bbox="true"
     inkscape:zoom="0.64205296"
     inkscape:cx="316.90061"
     inkscape:cy="392.31085"
     inkscape:window-x="0"
     inkscape:window-y="25"
     inkscape:current-layer="svg5496">
    <sodipodi:guide
       orientation="horizontal"
       position="200"
       id="guide5596" />
  </sodipodi:namedview>
  <defs
     id="defs5498">
    <inkscape:perspective
       sodipodi:type="inkscape:persp3d"
       inkscape:vp_x="0 : 500 : 1"
       inkscape:vp_y="0 : 1000 : 0"
       inkscape:vp_z="1000 : 500 : 1"
       inkscape:persp3d-origin="500 : 333.33333 : 1"
       id="perspective4356" />
    <inkscape:perspective
       id="perspective4365"
       inkscape:persp3d-origin="372.04724 : 350.78739 : 1"
       inkscape:vp_z="744.09448 : 526.18109 : 1"
       inkscape:vp_y="0 : 1000 : 0"
       inkscape:vp_x="0 : 526.18109 : 1"
       sodipodi:type="inkscape:persp3d" />
  </defs>
  <g
     id="layer1"
     transform="matrix(1.3,0,0,1.3,-524.88053,-98.056251)" />
  <path
     style="fill:none;fill-opacity:1;fill-rule:evenodd;stroke:#000000;stroke-width:1.29999995px;stroke-linecap:butt;stroke-linejoin:miter;stroke-opacity:1"
     d="M 180.53197,477.19375 C 178.43828,477.20732 176.44303,477.2942 174.51947,477.47812 C 81.204871,486.40077 15.655686,610.34075 2.7163433,673.65625 L 1.9850933,775.99062 C 81.167912,778.78122 184.68997,747.05898 251.70697,721.10625 C 291.87398,705.55133 333.58864,686.72939 376.79135,672.03125 C 375.75468,713.18812 374.87048,757.25818 385.68822,774.56875 C 391.15756,783.32083 407.10518,799.14006 424.36322,799.59375 C 482.27105,801.11605 583.20574,801.74737 595.06947,800 L 594.01322,704.69375 C 548.78456,705.65195 476.56407,701.47555 444.10697,701.80937 C 436.62481,701.89003 428.82976,697.5799 427.20697,695.8375 C 417.54731,685.46584 415.45879,673.58112 415.10072,660.4125 C 457.65007,649.15008 501.56604,643.70513 546.76635,650.74375 C 553.76949,651.83428 562.19329,652.28509 566.26635,642.8625 L 592.42885,582.25 C 597.07947,571.49143 590.59899,567.30229 585.44135,567.82812 C 539.11348,572.55162 516.38004,569.8327 478.88197,565.675 C 389.92443,555.81157 245.43637,476.77285 180.53197,477.19375 z"
     id="path4373" />
  <path
     style="fill:none;fill-opacity:1;fill-rule:evenodd;stroke:#000000;stroke-width:1.29999995px;stroke-linecap:butt;stroke-linejoin:miter;stroke-opacity:1"
     d="M 24.776382,673.84946 C 27.338019,677.35734 36.86009,678.83895 42.925045,679.37927 C 62.276299,681.10325 127.49536,671.07515 196.90104,654.74143 C 237.90658,645.09131 279.24282,632.59139 310.8849,617.44485 C 286.49905,607.89926 250.85745,599.08872 214.24258,592.39967 C 176.00797,585.41473 137.39714,579.77823 107.15105,583.77404 C 77.131776,587.73989 36.124108,637.52145 24.776382,673.84946 z"
     id="path4377"
     sodipodi:nodetypes="csscssc" />
</svg>
