<?xml version="1.0" encoding="UTF-8" standalone="no"?>
<!-- Created with Inkscape (http://www.inkscape.org/) -->

<svg
   xmlns:dc="http://purl.org/dc/elements/1.1/"
   xmlns:cc="http://creativecommons.org/ns#"
   xmlns:rdf="http://www.w3.org/1999/02/22-rdf-syntax-ns#"
   xmlns:svg="http://www.w3.org/2000/svg"
   xmlns="http://www.w3.org/2000/svg"
   xmlns:sodipodi="http://sodipodi.sourceforge.net/DTD/sodipodi-0.dtd"
   xmlns:inkscape="http://www.inkscape.org/namespaces/inkscape"
   version="1.0"
   width="1000"
   height="1000"
   id="svg5496"
   sodipodi:version="0.32"
   inkscape:version="0.47pre0 r21549"
   sodipodi:docname="New document 1"
   inkscape:output_extension="org.inkscape.output.svg.inkscape">
  <metadata
     id="metadata5594">
    <rdf:RDF>
      <cc:Work
         rdf:about="">
        <dc:format>image/svg+xml</dc:format>
        <dc:type
           rdf:resource="http://purl.org/dc/dcmitype/StillImage" />
        <dc:title></dc:title>
      </cc:Work>
    </rdf:RDF>
  </metadata>
  <sodipodi:namedview
     inkscape:window-height="618"
     inkscape:pageshadow="2"
     inkscape:pageopacity="0.0"
     borderopacity="1.0"
     bordercolor="#666666"
     pagecolor="#ffffff"
     id="base"
     showgrid="false"
     showguides="true"
     inkscape:guide-bbox="true"
     inkscape:zoom="0.454"
     inkscape:cx="377.92063"
     inkscape:cy="461.21395"
     inkscape:window-x="0"
     inkscape:window-y="25"
     inkscape:current-layer="svg5496">
    <sodipodi:guide
       orientation="horizontal"
       position="200"
       id="guide5596" />
  </sodipodi:namedview>
  <defs
     id="defs5498">
    <inkscape:perspective
       sodipodi:type="inkscape:persp3d"
       inkscape:vp_x="0 : 500 : 1"
       inkscape:vp_y="0 : 1000 : 0"
       inkscape:vp_z="1000 : 500 : 1"
       inkscape:persp3d-origin="500 : 333.33333 : 1"
       id="perspective8" />
    <inkscape:perspective
       id="perspective2822"
       inkscape:persp3d-origin="0.5 : 0.33333333 : 1"
       inkscape:vp_z="1 : 0.5 : 1"
       inkscape:vp_y="0 : 1000 : 0"
       inkscape:vp_x="0 : 0.5 : 1"
       sodipodi:type="inkscape:persp3d" />
    <inkscape:perspective
       sodipodi:type="inkscape:persp3d"
       inkscape:vp_x="0 : 0.5 : 1"
       inkscape:vp_y="0 : 1000 : 0"
       inkscape:vp_z="1 : 0.5 : 1"
       inkscape:persp3d-origin="0.5 : 0.33333333 : 1"
       id="perspective2838" />
    <inkscape:perspective
       id="perspective2849"
       inkscape:persp3d-origin="500 : 333.33333 : 1"
       inkscape:vp_z="1000 : 500 : 1"
       inkscape:vp_y="0 : 1000 : 0"
       inkscape:vp_x="0 : 500 : 1"
       sodipodi:type="inkscape:persp3d" />
  </defs>
  <g
     id="layer1"
     transform="translate(-164.09692,10.112059)" />
  <path
     style="color:#000000;fill:none;stroke:#000000;stroke-width:1px;stroke-linecap:butt;stroke-linejoin:miter;stroke-miterlimit:4;stroke-opacity:1;stroke-dasharray:none;stroke-dashoffset:0;marker:none;visibility:visible;display:inline;overflow:visible;enable-background:accumulate"
     d="m 409.03566,209.8125 c -1.40899,0.0434 -2.59678,0.24138 -3.5625,0.5625 -16.29037,5.41685 -37.56629,49.57914 -44.4375,81 -1.66083,7.59469 0.83992,11.8344 9.9375,13.0625 13.1978,1.7816 26.11338,4.56542 37.8125,14.875 -38.25238,25.95416 -114.58873,163.86422 -61.53125,190.25 12.89617,6.41333 19.06181,10.01885 26.53624,13.14187 -24.83158,19.42719 -58.34055,32.3124 -144.16124,26.51438 -47.75269,-3.22616 -82.99685,21.6423 -106.375,52.09375 -22.81314,29.71549 -34.271645,65.45977 -44.093755,85.28125 -10.40127,20.99023 -53.2279,33.5986 -79.15624971,36.0625 L -1.0268447,800 C 51.959165,792.5776 84.341205,709.91129 101.31691,716.0625 c 32.85345,11.90457 91.56357,40.44538 123.125,46.40625 9.39948,1.77524 23.21184,-2.462 31.40625,-7.78125 27.69814,-17.97978 59.72281,-79.8966 36.9375,-139.09375 -1.37842,-3.58119 0.17521,-6.38076 3.1875,-7.46875 54.18404,-19.57051 95.39979,-35.11707 135.21875,-70.21875 54.24416,11.38495 128.46494,22.88514 166.65625,23.21875 7.02272,0.0614 13.58621,-1.7587 19.25,-6.78125 13.5189,-11.98834 45.18715,-49.4364 46.9375,-92.25 C 666.74572,397.01176 617.24994,333.57831 558.94191,287 499.27461,239.33586 430.17052,209.16209 409.03566,209.8125 z m 37.81701,148.48075 c 11.44383,11.71483 30.41631,40.58899 38.81972,56.1974 3.31138,6.15053 1.31041,12.33211 -2.77405,18.00075 -5.29644,7.35071 -16.81449,17.39505 -30.30018,29.0086 -40.63941,-7.84314 -74.80104,-14.87033 -87.4375,-28.625 -4.99492,-5.43692 -7.39467,-15.56445 -4.75,-21.875 8.61773,-20.56314 49.14562,-49.83825 67.87043,-56.74018 6.6219,-2.44082 13.80984,-0.84107 18.57158,4.03343 z M 626.16066,469.625 c 3.61399,4.634 8.62828,12.6865 0.15625,14.375 -20.53658,4.09298 -80.6562,-4.82962 -137.09375,-15.4375 19.78169,-36.24737 21.04048,-72.73541 17.375,-103.5625 33.91707,18.44978 88.60066,64.92456 119.5625,104.625 z"
     id="path2932"
     sodipodi:nodetypes="cssscscsssccssssscsscsccsscsssscsccs" />
  <path
     style="color:#000000;fill:none;stroke:#000000;stroke-width:1px;stroke-linecap:butt;stroke-linejoin:miter;stroke-miterlimit:4;stroke-opacity:1;stroke-dasharray:none;stroke-dashoffset:0;marker:none;visibility:visible;display:inline;overflow:visible;enable-background:accumulate"
     d="m 133.0253,632.63837 c 21.9638,27.22637 87.19988,48.72252 119.35559,53.7408 6.16556,0.96221 8.62198,-2.98522 7.75221,-8.36491 -5.8896,-36.42855 -86.72229,-81.84695 -120.57621,-65.45839 -7.28715,3.52767 -11.49342,13.93181 -6.53159,20.0825 z"
     id="path2934"
     sodipodi:nodetypes="cssss" />
</svg>
