<?xml version="1.0" encoding="UTF-8" standalone="no"?>
<!-- Created with Inkscape (http://www.inkscape.org/) -->
<svg
   xmlns:dc="http://purl.org/dc/elements/1.1/"
   xmlns:cc="http://creativecommons.org/ns#"
   xmlns:rdf="http://www.w3.org/1999/02/22-rdf-syntax-ns#"
   xmlns:svg="http://www.w3.org/2000/svg"
   xmlns="http://www.w3.org/2000/svg"
   xmlns:sodipodi="http://sodipodi.sourceforge.net/DTD/sodipodi-0.dtd"
   xmlns:inkscape="http://www.inkscape.org/namespaces/inkscape"
   version="1.0"
   width="1000"
   height="1000"
   id="svg5496"
   sodipodi:version="0.32"
   inkscape:version="0.46"
   sodipodi:docname="heh.medi.svg"
   inkscape:output_extension="org.inkscape.output.svg.inkscape">
  <metadata
     id="metadata5594">
    <rdf:RDF>
      <cc:Work
         rdf:about="">
        <dc:format>image/svg+xml</dc:format>
        <dc:type
           rdf:resource="http://purl.org/dc/dcmitype/StillImage" />
      </cc:Work>
    </rdf:RDF>
  </metadata>
  <sodipodi:namedview
     inkscape:pageshadow="2"
     inkscape:pageopacity="0.0"
     guidetolerance="10.0"
     gridtolerance="10.0"
     objecttolerance="10.0"
     borderopacity="1.0"
     bordercolor="#666666"
     pagecolor="#ffffff"
     id="base"
     showgrid="false"
     showguides="true"
     inkscape:guide-bbox="true"
     inkscape:zoom="0.908"
     inkscape:cx="347.68475"
     inkscape:cy="369.92755"
     inkscape:window-x="0"
     inkscape:window-y="25"
     inkscape:current-layer="svg5496">
    <sodipodi:guide
       orientation="horizontal"
       position="200"
       id="guide5596" />
  </sodipodi:namedview>
  <defs
     id="defs5498">
    <inkscape:perspective
       sodipodi:type="inkscape:persp3d"
       inkscape:vp_x="0 : 500 : 1"
       inkscape:vp_y="0 : 1000 : 0"
       inkscape:vp_z="1000 : 500 : 1"
       inkscape:persp3d-origin="500 : 333.33333 : 1"
       id="perspective8" />
    <inkscape:perspective
       id="perspective2388"
       inkscape:persp3d-origin="372.04724 : 350.78739 : 1"
       inkscape:vp_z="744.09448 : 526.18109 : 1"
       inkscape:vp_y="0 : 1000 : 0"
       inkscape:vp_x="0 : 526.18109 : 1"
       sodipodi:type="inkscape:persp3d" />
  </defs>
  <g
     id="layer1"
     transform="translate(-174.00881,290.41068)" />
  <path
     style="fill:none;fill-rule:evenodd;stroke:#000000;stroke-width:1px;stroke-linecap:butt;stroke-linejoin:miter;stroke-opacity:1"
     d="M 258.22078,483.07515 C 237.68975,474.80105 143.20153,602.02181 114.53745,686.95326 C 76.725409,702.95741 26.842709,714.6077 1.1013194,718.82478 L 0.0079494,800 C 29.015489,793.64693 57.275949,781.61215 84.801759,772.78953 L 80.724769,802.9146 L 105.41911,806.36124 C 119.38254,950.34324 179.44792,986.53162 216.40969,980.38865 C 310.97583,964.76346 299.78249,835.0667 267.07049,786.55605 C 293.33748,787.37971 322.56164,788.28532 350.22026,782.15077 L 350.22027,703.95694 C 303.66373,714.31668 249.7066,729.38776 196.68039,726.53403 C 286.76034,659.18274 297.23392,498.79763 258.22078,483.07515 z"
     id="path2394"
     sodipodi:nodetypes="cccccccsccccs" />
  <path
     style="fill:none;fill-rule:evenodd;stroke:#000000;stroke-width:1px;stroke-linecap:butt;stroke-linejoin:miter;stroke-opacity:1"
     d="M 136.44983,679.66105 C 140.95792,657.56847 166.15262,602.36281 205.12115,585.15188 C 218.28057,579.33986 236.57977,583.40128 244.51603,597.5768 C 246.56104,601.22952 245.48263,608.38735 243.3428,611.1612 C 213.30696,650.09647 173.74293,662.54834 136.44983,679.66105 z"
     id="path2396"
     sodipodi:nodetypes="csssc" />
  <path
     style="fill:none;fill-rule:evenodd;stroke:#000000;stroke-width:1px;stroke-linecap:butt;stroke-linejoin:miter;stroke-opacity:1"
     d="M 140.14317,810.23447 C 145.27875,825.60165 154.58308,878.44529 196.03524,896.41288 C 213.8343,904.12795 234.95178,907.56136 264.87384,887.06047 C 269.003,884.23141 266.93878,877.63948 264.51487,873.54239 C 249.14821,847.56835 191.76611,818.49348 140.14317,810.23447 z"
     id="path2398"
     sodipodi:nodetypes="csssc" />
</svg>
