<?xml version="1.0" encoding="UTF-8" standalone="no"?>
<!-- Created with Inkscape (http://www.inkscape.org/) -->

<svg
   xmlns:dc="http://purl.org/dc/elements/1.1/"
   xmlns:cc="http://creativecommons.org/ns#"
   xmlns:rdf="http://www.w3.org/1999/02/22-rdf-syntax-ns#"
   xmlns:svg="http://www.w3.org/2000/svg"
   xmlns="http://www.w3.org/2000/svg"
   xmlns:sodipodi="http://sodipodi.sourceforge.net/DTD/sodipodi-0.dtd"
   xmlns:inkscape="http://www.inkscape.org/namespaces/inkscape"
   version="1.0"
   width="1000"
   height="1000"
   id="svg5496"
   sodipodi:version="0.32"
   inkscape:version="0.47pre0 r21549"
   sodipodi:docname="heh.init.svg"
   inkscape:output_extension="org.inkscape.output.svg.inkscape">
  <metadata
     id="metadata5594">
    <rdf:RDF>
      <cc:Work
         rdf:about="">
        <dc:format>image/svg+xml</dc:format>
        <dc:type
           rdf:resource="http://purl.org/dc/dcmitype/StillImage" />
        <dc:title></dc:title>
      </cc:Work>
    </rdf:RDF>
  </metadata>
  <sodipodi:namedview
     inkscape:window-height="618"
     inkscape:pageshadow="2"
     inkscape:pageopacity="0.0"
     borderopacity="1.0"
     bordercolor="#666666"
     pagecolor="#ffffff"
     id="base"
     showgrid="false"
     showguides="true"
     inkscape:guide-bbox="true"
     inkscape:zoom="0.64205296"
     inkscape:cx="773.51782"
     inkscape:cy="464.0706"
     inkscape:window-x="0"
     inkscape:window-y="25"
     inkscape:current-layer="svg5496">
    <sodipodi:guide
       orientation="horizontal"
       position="200"
       id="guide5596" />
  </sodipodi:namedview>
  <defs
     id="defs5498">
    <inkscape:perspective
       sodipodi:type="inkscape:persp3d"
       inkscape:vp_x="0 : 500 : 1"
       inkscape:vp_y="0 : 1000 : 0"
       inkscape:vp_z="1000 : 500 : 1"
       inkscape:persp3d-origin="500 : 333.33333 : 1"
       id="perspective2849" />
    <inkscape:perspective
       id="perspective2838"
       inkscape:persp3d-origin="0.5 : 0.33333333 : 1"
       inkscape:vp_z="1 : 0.5 : 1"
       inkscape:vp_y="0 : 1000 : 0"
       inkscape:vp_x="0 : 0.5 : 1"
       sodipodi:type="inkscape:persp3d" />
  </defs>
  <g
     id="layer1"
     transform="translate(-531.10884,74.21875)" />
  <path
     style="color:#000000;fill:none;stroke:#000000;stroke-width:1px;stroke-linecap:butt;stroke-linejoin:miter;stroke-miterlimit:4;stroke-opacity:1;stroke-dasharray:none;stroke-dashoffset:0;marker:none;visibility:visible;display:inline;overflow:visible;enable-background:accumulate"
     d="m 91.203662,469.59375 c -1.47907,4.59642 0.25639,11.99198 6.53125,12.375 13.776878,0.84095 38.374328,13.20518 36.733128,20.41563 -44.193048,38.60048 -67.165888,84.54781 -76.938958,116.05232 -7.98759,24.19714 -9.354,44.33508 11.23988,61.3808 -19.50192,10.17832 -43.87193,22.81143 -67.72405,32.15344 L -0.26508799,800 C 38.371942,785.93928 92.557752,758.06336 141.94609,715.15033 c 66.7207,23.8023 141.67784,37.84543 194.16703,48.48754 68.52012,13.89237 78.73596,-99.03956 70.55929,-146.48162 -7.27784,-42.22691 -68.07766,-109.43289 -113.375,-153.6875 -36.02467,-35.19539 -88.41134,-86.16613 -131.6875,-86.375 -33.27172,-0.16059 -61.59821,65.4631 -70.406248,92.5 z m 67.437498,63.59375 c 2.13193,0.0156 4.14033,0.28942 6,0.84375 25.75559,7.67729 37.6461,47.20324 40.16703,78.59918 0.2991,3.72499 0.56537,5.50642 -2.65448,7.2614 -11.11131,6.05621 -20.35214,10.88346 -31.56748,16.50093 -65.0023,-16.92756 -91.468718,-34.40456 -79.445068,-54.45526 15.026748,-25.05868 46.891388,-48.90081 67.499998,-48.75 z m 87.51751,25.04837 c 46.9718,34.06679 87.7045,70.27484 120.17343,114.70342 3.75365,5.13627 0.56566,8.38352 -5.09719,8.46696 -24.13509,0.35562 -92.15829,-19.1234 -156.16217,-35.75757 9.19911,-9.12254 42.13527,-57.44069 37.33685,-85.57827 -1.12661,-3.17865 1.24506,-3.65061 3.74908,-1.83454 z"
     id="path3007"
     sodipodi:nodetypes="csccccccssssccssscsccssccs" />
</svg>
