<?xml version="1.0" encoding="UTF-8" standalone="no"?>
<!-- Created with Inkscape (http://www.inkscape.org/) -->
<svg
   xmlns:dc="http://purl.org/dc/elements/1.1/"
   xmlns:cc="http://creativecommons.org/ns#"
   xmlns:rdf="http://www.w3.org/1999/02/22-rdf-syntax-ns#"
   xmlns:svg="http://www.w3.org/2000/svg"
   xmlns="http://www.w3.org/2000/svg"
   xmlns:sodipodi="http://sodipodi.sourceforge.net/DTD/sodipodi-0.dtd"
   xmlns:inkscape="http://www.inkscape.org/namespaces/inkscape"
   version="1.0"
   width="1000"
   height="1000"
   id="svg5496"
   sodipodi:version="0.32"
   inkscape:version="0.46"
   sodipodi:docname="heh.medi.svg"
   inkscape:output_extension="org.inkscape.output.svg.inkscape">
  <metadata
     id="metadata5594">
    <rdf:RDF>
      <cc:Work
         rdf:about="">
        <dc:format>image/svg+xml</dc:format>
        <dc:type
           rdf:resource="http://purl.org/dc/dcmitype/StillImage" />
      </cc:Work>
    </rdf:RDF>
  </metadata>
  <sodipodi:namedview
     inkscape:pageshadow="2"
     inkscape:pageopacity="0.0"
     guidetolerance="10.0"
     gridtolerance="10.0"
     objecttolerance="10.0"
     borderopacity="1.0"
     bordercolor="#666666"
     pagecolor="#ffffff"
     id="base"
     showgrid="false"
     showguides="true"
     inkscape:guide-bbox="true"
     inkscape:zoom="0.454"
     inkscape:cx="241.80812"
     inkscape:cy="369.92755"
     inkscape:window-x="0"
     inkscape:window-y="25"
     inkscape:current-layer="svg5496">
    <sodipodi:guide
       orientation="horizontal"
       position="200"
       id="guide5596" />
  </sodipodi:namedview>
  <defs
     id="defs5498">
    <inkscape:perspective
       sodipodi:type="inkscape:persp3d"
       inkscape:vp_x="0 : 500 : 1"
       inkscape:vp_y="0 : 1000 : 0"
       inkscape:vp_z="1000 : 500 : 1"
       inkscape:persp3d-origin="500 : 333.33333 : 1"
       id="perspective8" />
    <inkscape:perspective
       id="perspective2388"
       inkscape:persp3d-origin="372.04724 : 350.78739 : 1"
       inkscape:vp_z="744.09448 : 526.18109 : 1"
       inkscape:vp_y="0 : 1000 : 0"
       inkscape:vp_x="0 : 526.18109 : 1"
       sodipodi:type="inkscape:persp3d" />
  </defs>
  <g
     id="layer1"
     transform="matrix(1.3,0,0,1.3,-225.88225,137.53389)" />
  <path
     style="fill:none;fill-rule:evenodd;stroke:#000000;stroke-width:1px;stroke-linecap:butt;stroke-linejoin:miter;stroke-opacity:1"
     d="M 336.01622,387.9977 C 309.32588,377.24137 186.4912,542.62836 149.22789,653.03924 C 100.07224,673.84464 35.224725,688.99001 1.7609181,694.47222 L 0.3395371,800 C 38.049339,791.74101 74.787937,776.0958 110.57149,764.62639 L 105.2714,803.78898 L 137.37405,808.26962 C 155.52651,995.44617 233.6115,1042.4911 281.6618,1034.5053 C 404.59779,1014.1925 390.04644,845.58671 347.52084,782.52287 C 381.66793,783.59363 419.65934,784.77092 455.61555,776.79601 L 455.61556,675.14403 C 395.09206,688.61169 324.94779,708.20409 256.01371,704.49424 C 373.11765,616.93757 386.7333,408.43692 336.01622,387.9977 z"
     id="path2394"
     sodipodi:nodetypes="cccccccsccccs" />
  <path
     style="fill:none;fill-rule:evenodd;stroke:#000000;stroke-width:1px;stroke-linecap:butt;stroke-linejoin:miter;stroke-opacity:1"
     d="M 177.71399,643.55937 C 183.5745,614.83902 216.32761,543.07166 266.9867,520.69745 C 284.09395,513.14182 307.88291,518.42167 318.20005,536.84984 C 320.85856,541.59838 319.45663,550.90356 316.67485,554.50956 C 277.62826,605.12542 226.19502,621.31285 177.71399,643.55937 z"
     id="path2396"
     sodipodi:nodetypes="csssc" />
  <path
     style="fill:none;fill-rule:evenodd;stroke:#000000;stroke-width:1px;stroke-linecap:butt;stroke-linejoin:miter;stroke-opacity:1"
     d="M 182.51533,813.30482 C 189.19158,833.28215 201.28721,901.97888 255.17502,925.33675 C 278.3138,935.36634 305.76652,939.82977 344.6652,913.17862 C 350.03311,909.50084 347.34962,900.93133 344.19854,895.60511 C 324.22188,861.83886 249.62515,824.04153 182.51533,813.30482 z"
     id="path2398"
     sodipodi:nodetypes="csssc" />
</svg>
