<?xml version="1.0" encoding="UTF-8" standalone="no"?>
<!-- Created with Inkscape (http://www.inkscape.org/) -->
<svg
   xmlns:dc="http://purl.org/dc/elements/1.1/"
   xmlns:cc="http://creativecommons.org/ns#"
   xmlns:rdf="http://www.w3.org/1999/02/22-rdf-syntax-ns#"
   xmlns:svg="http://www.w3.org/2000/svg"
   xmlns="http://www.w3.org/2000/svg"
   xmlns:sodipodi="http://sodipodi.sourceforge.net/DTD/sodipodi-0.dtd"
   xmlns:inkscape="http://www.inkscape.org/namespaces/inkscape"
   version="1.0"
   width="1000"
   height="1000"
   id="svg5496"
   sodipodi:version="0.32"
   inkscape:version="0.46"
   sodipodi:docname="kaf+lam.medi.svg"
   inkscape:output_extension="org.inkscape.output.svg.inkscape">
  <metadata
     id="metadata5594">
    <rdf:RDF>
      <cc:Work
         rdf:about="">
        <dc:format>image/svg+xml</dc:format>
        <dc:type
           rdf:resource="http://purl.org/dc/dcmitype/StillImage" />
      </cc:Work>
    </rdf:RDF>
  </metadata>
  <sodipodi:namedview
     inkscape:pageshadow="2"
     inkscape:pageopacity="0.0"
     guidetolerance="10.0"
     gridtolerance="10.0"
     objecttolerance="10.0"
     borderopacity="1.0"
     bordercolor="#666666"
     pagecolor="#ffffff"
     id="base"
     showgrid="false"
     showguides="true"
     inkscape:guide-bbox="true"
     inkscape:zoom="0.454"
     inkscape:cx="588.85787"
     inkscape:cy="583.94508"
     inkscape:window-x="0"
     inkscape:window-y="25"
     inkscape:current-layer="svg5496">
    <sodipodi:guide
       orientation="horizontal"
       position="200"
       id="guide5596" />
  </sodipodi:namedview>
  <defs
     id="defs5498">
    <inkscape:perspective
       sodipodi:type="inkscape:persp3d"
       inkscape:vp_x="0 : 500 : 1"
       inkscape:vp_y="0 : 1000 : 0"
       inkscape:vp_z="1000 : 500 : 1"
       inkscape:persp3d-origin="500 : 333.33333 : 1"
       id="perspective8" />
    <inkscape:perspective
       id="perspective2477"
       inkscape:persp3d-origin="372.04724 : 350.78739 : 1"
       inkscape:vp_z="744.09448 : 526.18109 : 1"
       inkscape:vp_y="0 : 1000 : 0"
       inkscape:vp_x="0 : 526.18109 : 1"
       sodipodi:type="inkscape:persp3d" />
  </defs>
  <g
     id="layer1"
     transform="translate(-136.02643,-108)" />
  <path
     style="fill:none;fill-rule:evenodd;stroke:#000000;stroke-width:1px;stroke-linecap:butt;stroke-linejoin:miter;stroke-opacity:1"
     d="M 720.546,-39.72952 C 725.02052,-58.83961 708.2526,-60.68826 697.87443,-56.04893 C 538.32093,15.275927 212.55036,156.49616 103.79445,336.41092 L 80.08836,12.366618 C 79.16013,-0.321628 73.25945,-0.974592 69.46453,5.625082 L 39.66204,57.454 C 34.32102,66.742456 37.76079,75.101411 37.98238,83.62996 C 45.65474,378.92111 80.14519,582.17797 67.60738,655.62675 C 63.69652,678.53728 11.94389,704.62128 0.53744,704.82984 L 0.53745,781.31718 C 39.23769,772.59992 75.82959,707.22375 87.17204,660.91143 C 103.90542,721.841 113.06591,831.86209 269.25992,804.44493 C 424.53703,777.18871 420.50889,617.54772 416.83701,568.11697 C 505.99495,635.78326 680.98299,804.60437 721.00441,799.48899 L 720.80176,698.60793 C 665.38835,716.89591 466.19122,458.29444 146.16766,339.13656 C 266.40469,245.15058 503.83379,101.90728 688.54087,47.085926 C 699.7997,43.744287 702.8094,36.0211 704.86027,27.262136 L 720.546,-39.72952 z"
     id="path2483"
     sodipodi:nodetypes="cscssssscccsccccsss" />
  <path
     style="fill:none;fill-rule:evenodd;stroke:#000000;stroke-width:1px;stroke-linecap:butt;stroke-linejoin:miter;stroke-opacity:1"
     d="M 113.39557,428.9809 C 110.03018,427.94073 105.54875,425.61503 107.16556,439.88342 C 110.52691,469.54738 107.70253,666.58869 197.50079,696.87157 C 284.78863,726.30785 389.43193,653.05981 396.86129,637.68642 C 392.53446,540.50685 211.84552,459.40982 113.39557,428.9809 z"
     id="path2485"
     sodipodi:nodetypes="csscs" />
</svg>
