<?xml version="1.0" encoding="UTF-8" standalone="no"?>
<!-- Created with Inkscape (http://www.inkscape.org/) -->
<svg
   xmlns:dc="http://purl.org/dc/elements/1.1/"
   xmlns:cc="http://creativecommons.org/ns#"
   xmlns:rdf="http://www.w3.org/1999/02/22-rdf-syntax-ns#"
   xmlns:svg="http://www.w3.org/2000/svg"
   xmlns="http://www.w3.org/2000/svg"
   xmlns:sodipodi="http://sodipodi.sourceforge.net/DTD/sodipodi-0.dtd"
   xmlns:inkscape="http://www.inkscape.org/namespaces/inkscape"
   version="1.0"
   width="1000"
   height="1000"
   id="svg5496"
   sodipodi:version="0.32"
   inkscape:version="0.46"
   sodipodi:docname="kaf+kaf.fina.svg"
   inkscape:output_extension="org.inkscape.output.svg.inkscape">
  <metadata
     id="metadata5594">
    <rdf:RDF>
      <cc:Work
         rdf:about="">
        <dc:format>image/svg+xml</dc:format>
        <dc:type
           rdf:resource="http://purl.org/dc/dcmitype/StillImage" />
      </cc:Work>
    </rdf:RDF>
  </metadata>
  <sodipodi:namedview
     inkscape:pageshadow="2"
     inkscape:pageopacity="0.0"
     guidetolerance="10.0"
     gridtolerance="10.0"
     objecttolerance="10.0"
     borderopacity="1.0"
     bordercolor="#666666"
     pagecolor="#ffffff"
     id="base"
     showgrid="false"
     showguides="true"
     inkscape:guide-bbox="true"
     inkscape:zoom="0.6675088"
     inkscape:cx="377.10536"
     inkscape:cy="603.80286"
     inkscape:window-x="0"
     inkscape:window-y="25"
     inkscape:current-layer="svg5496">
    <sodipodi:guide
       orientation="horizontal"
       position="200"
       id="guide5596" />
  </sodipodi:namedview>
  <defs
     id="defs5498">
    <inkscape:perspective
       sodipodi:type="inkscape:persp3d"
       inkscape:vp_x="0 : 500 : 1"
       inkscape:vp_y="0 : 1000 : 0"
       inkscape:vp_z="1000 : 500 : 1"
       inkscape:persp3d-origin="500 : 333.33333 : 1"
       id="perspective8" />
    <inkscape:perspective
       id="perspective2497"
       inkscape:persp3d-origin="372.04724 : 350.78739 : 1"
       inkscape:vp_z="744.09448 : 526.18109 : 1"
       inkscape:vp_y="0 : 1000 : 0"
       inkscape:vp_x="0 : 526.18109 : 1"
       sodipodi:type="inkscape:persp3d" />
    <inkscape:perspective
       sodipodi:type="inkscape:persp3d"
       inkscape:vp_x="0 : 500 : 1"
       inkscape:vp_y="0 : 1000 : 0"
       inkscape:vp_z="1000 : 500 : 1"
       inkscape:persp3d-origin="500 : 333.33333 : 1"
       id="perspective2677" />
    <inkscape:perspective
       id="perspective2711"
       inkscape:persp3d-origin="372.04724 : 350.78739 : 1"
       inkscape:vp_z="744.09448 : 526.18109 : 1"
       inkscape:vp_y="0 : 1000 : 0"
       inkscape:vp_x="0 : 526.18109 : 1"
       sodipodi:type="inkscape:persp3d" />
    <inkscape:perspective
       sodipodi:type="inkscape:persp3d"
       inkscape:vp_x="0 : 500 : 1"
       inkscape:vp_y="0 : 1000 : 0"
       inkscape:vp_z="1000 : 500 : 1"
       inkscape:persp3d-origin="500 : 333.33333 : 1"
       id="perspective3295" />
    <inkscape:perspective
       sodipodi:type="inkscape:persp3d"
       inkscape:vp_x="0 : 526.18109 : 1"
       inkscape:vp_y="0 : 1000 : 0"
       inkscape:vp_z="744.09448 : 526.18109 : 1"
       inkscape:persp3d-origin="372.04724 : 350.78739 : 1"
       id="perspective2477" />
    <inkscape:perspective
       id="perspective2626"
       inkscape:persp3d-origin="500 : 333.33333 : 1"
       inkscape:vp_z="1000 : 500 : 1"
       inkscape:vp_y="0 : 1000 : 0"
       inkscape:vp_x="0 : 500 : 1"
       sodipodi:type="inkscape:persp3d" />
  </defs>
  <g
     id="layer1"
     transform="translate(53.771186,-41)" />
  <path
     style="fill:none;fill-rule:evenodd;stroke:#000000;stroke-width:1px;stroke-linecap:butt;stroke-linejoin:miter;stroke-opacity:1"
     d="M 1078.8204,119.77093 C 1081.4298,109.78339 1076.0031,106.04796 1069.253,106.9495 C 913.88207,160.62446 634.39146,306.58461 577.07628,408.59133 L 567.27754,157.09322 C 566.80766,145.03299 552.82929,145.8367 550.3284,154.70975 L 530.99576,223.30085 C 528.06867,233.68602 528.29977,248.91857 528.28028,259.39882 C 528.0906,361.38273 537.01341,468.81028 544.23729,573.40678 C 503.48591,643.60282 350.7783,692.56017 224.32203,679.33898 C -12.472037,654.66012 27.303041,523.88643 61.716102,467.20975 C 65.902895,460.3143 54.818998,450.88167 49.269067,460.58898 C -19.439722,580.76666 -56.273551,770.85232 234.70233,771.93879 C 472.27024,772.82583 532.91634,649.5451 550.06356,620.5466 C 569.09992,697.38924 566.18218,820.22676 706.88087,798.47507 C 815.08215,781.74741 852.45639,694.5603 833.30369,583.56121 C 894.05571,606.44295 1058.4365,801.56776 1130.0424,798.51271 L 1130.8644,713.23729 C 1076.6253,703.98709 963.1809,597.46791 879.88681,541.43635 C 796.92041,485.62522 713.00556,434.76743 616.89172,408.59133 C 742.52304,320.25207 923.80806,235.48276 1050.4647,188.80862 C 1056.4739,186.59418 1062.4705,182.35061 1064.3644,175.10169 L 1078.8204,119.77093 z"
     id="path2503"
     sodipodi:nodetypes="cccsssscsssscscccscsss" />
  <path
     style="fill:none;fill-rule:evenodd;stroke:#000000;stroke-width:1px;stroke-linecap:butt;stroke-linejoin:miter;stroke-opacity:1"
     d="M 582.6189,485.35453 C 590.97025,568.79468 599.16471,682.73969 640.38958,703.51062 C 697.88014,732.47692 793.21826,687.48931 822.08994,652.72742 C 778.70678,582.04906 698.17482,517.93402 582.6189,485.35453 z"
     id="path2505"
     sodipodi:nodetypes="cscc" />
  <g
     id="g2634"
     style="stroke:#000000;stroke-opacity:1"
     transform="translate(272.94007,536.51242)" />
  <g
     id="g2608"
     transform="translate(90.53658,1847.7649)"
     style="stroke:#000000;stroke-opacity:1" />
  <g
     id="g3297"
     transform="matrix(0.5,0,0,0.5,285.75212,1966.8337)"
     style="stroke:#000000;stroke-width:2;stroke-miterlimit:4;stroke-dasharray:none;stroke-opacity:1" />
  <path
     style="fill:none;fill-rule:evenodd;stroke:#000000;stroke-width:0.77263331;stroke-linecap:butt;stroke-linejoin:miter;stroke-miterlimit:4;stroke-dasharray:none;stroke-opacity:1"
     d="M 333.97025,252.92659 C 295.62306,269.28626 246.51436,329.04342 231.98386,390.11182 C 227.44195,409.20042 239.54113,428.36506 265.67848,431.92929 L 305.39,437.34445 C 312.62873,438.62832 307.40167,443.39315 302.38155,446.06894 C 282.61197,456.60657 224.61379,477.70588 185.05205,492.09827 C 182.51268,493.02203 182.38159,497.314 186.25543,496.91177 C 221.86653,493.21402 266.44878,492.98502 290.07716,486.95051 C 311.73209,481.42001 339.95383,440.75083 348.71163,416.28531 C 351.0684,409.70163 362.74791,374.30043 323.74151,373.26447 C 295.76295,371.18663 260.98587,373.70055 265.97932,347.99357 C 268.77029,333.6253 285.10833,322.92804 308.09761,314.29887 C 310.72882,313.31129 313.79903,315.13671 317.12298,307.07861 L 336.97874,258.94349 C 338.3354,255.15642 338.75008,253.04373 333.97025,252.92659 z"
     id="path2515"
     sodipodi:nodetypes="csscssssscssscc" />
</svg>
