<?xml version="1.0" encoding="UTF-8" standalone="no"?>
<!-- Created with Inkscape (http://www.inkscape.org/) -->
<svg
   xmlns:dc="http://purl.org/dc/elements/1.1/"
   xmlns:cc="http://creativecommons.org/ns#"
   xmlns:rdf="http://www.w3.org/1999/02/22-rdf-syntax-ns#"
   xmlns:svg="http://www.w3.org/2000/svg"
   xmlns="http://www.w3.org/2000/svg"
   xmlns:sodipodi="http://sodipodi.sourceforge.net/DTD/sodipodi-0.dtd"
   xmlns:inkscape="http://www.inkscape.org/namespaces/inkscape"
   version="1.0"
   width="1000"
   height="1000"
   id="svg5496"
   sodipodi:version="0.32"
   inkscape:version="0.46"
   sodipodi:docname="kaf+meem.isol.svg"
   inkscape:output_extension="org.inkscape.output.svg.inkscape">
  <metadata
     id="metadata5594">
    <rdf:RDF>
      <cc:Work
         rdf:about="">
        <dc:format>image/svg+xml</dc:format>
        <dc:type
           rdf:resource="http://purl.org/dc/dcmitype/StillImage" />
      </cc:Work>
    </rdf:RDF>
  </metadata>
  <sodipodi:namedview
     inkscape:pageshadow="2"
     inkscape:pageopacity="0.0"
     guidetolerance="10.0"
     gridtolerance="10.0"
     objecttolerance="10.0"
     borderopacity="1.0"
     bordercolor="#666666"
     pagecolor="#ffffff"
     id="base"
     showgrid="false"
     showguides="true"
     inkscape:guide-bbox="true"
     inkscape:zoom="0.36062446"
     inkscape:cx="-91.976994"
     inkscape:cy="753.50847"
     inkscape:window-x="0"
     inkscape:window-y="25"
     inkscape:current-layer="svg5496">
    <sodipodi:guide
       orientation="horizontal"
       position="200"
       id="guide5596" />
  </sodipodi:namedview>
  <defs
     id="defs5498">
    <inkscape:perspective
       sodipodi:type="inkscape:persp3d"
       inkscape:vp_x="0 : 500 : 1"
       inkscape:vp_y="0 : 1000 : 0"
       inkscape:vp_z="1000 : 500 : 1"
       inkscape:persp3d-origin="500 : 333.33333 : 1"
       id="perspective8" />
    <inkscape:perspective
       id="perspective2517"
       inkscape:persp3d-origin="372.04724 : 350.78739 : 1"
       inkscape:vp_z="744.09448 : 526.18109 : 1"
       inkscape:vp_y="0 : 1000 : 0"
       inkscape:vp_x="0 : 526.18109 : 1"
       sodipodi:type="inkscape:persp3d" />
  </defs>
  <g
     id="layer1"
     transform="translate(174.69697,432.58297)" />
  <path
     style="fill:none;fill-rule:evenodd;stroke:#000000;stroke-width:1px;stroke-linecap:butt;stroke-linejoin:miter;stroke-opacity:1"
     d="M 684.50089,-63.495458 C 692.03931,-88.829428 672.86198,-84.160738 668.92635,-82.858198 C 459.55734,-13.565248 167.74291,53.372652 64.814919,146.62447 C 45.840579,163.81505 11.344559,212.99068 1.8658994,253.34962 C -0.27018058,262.44479 -0.052300576,273.41164 3.8810494,279.87967 L 60.971479,373.75944 C 64.961089,380.31998 68.880099,384.87422 76.018881,381.83026 L 112.65532,366.20856 C 121.15545,362.58412 123.51136,364.67486 127.98477,368.39702 C 176.62101,408.86546 233.19293,508.89197 259.46605,566.03525 C 262.71919,573.11073 265.03355,581.10478 259.585,586.67275 C 220.68186,626.42854 161.85569,642.50167 111.95187,665.9163 C 111.95187,665.9163 102.35053,669.60037 100.18717,675.95811 C 88.977891,708.90015 81.314616,735.27904 81.314616,735.27904 C 79.65423,741.678 83.373916,743.31717 87.196969,744.59278 L 122.58241,756.39954 C 44.433879,776.89485 -0.27593058,882.73306 18.285859,970.78503 C 46.980289,1106.9035 67.974469,1230.5605 76.202399,1369.8379 C 80.170146,1385.6234 92.995321,1380.3777 97.067576,1364.2919 C 126.58155,1247.7091 55.041789,1014.8003 51.604219,884.79532 C 51.494449,880.64391 53.697539,874.79486 57.371449,872.65685 C 152.31312,817.40608 268.05322,830.32962 333.11458,845.70554 C 338.04141,846.8699 342.94301,841.75086 344.60257,837.23047 L 375.27156,753.69286 C 377.49841,747.62725 373.49336,741.69719 370.4751,739.77734 L 258.52771,668.57033 C 277.73475,636.4737 297.40333,605.37773 303.65905,575.04852 C 334.6763,425.36287 105.24921,219.36313 78.163179,197.28885 C 262.7919,115.50946 462.8154,59.520862 651.74186,4.4387519 C 658.32251,2.5201419 665.5783,0.096711906 668.57674,-9.9799781 L 684.50089,-63.495458 z"
     id="path2523"
     sodipodi:nodetypes="csssssssssssssscscssssssscscsss" />
</svg>
