<?xml version="1.0" encoding="UTF-8" standalone="no"?>
<!-- Created with Inkscape (http://www.inkscape.org/) -->
<svg
   xmlns:dc="http://purl.org/dc/elements/1.1/"
   xmlns:cc="http://creativecommons.org/ns#"
   xmlns:rdf="http://www.w3.org/1999/02/22-rdf-syntax-ns#"
   xmlns:svg="http://www.w3.org/2000/svg"
   xmlns="http://www.w3.org/2000/svg"
   xmlns:sodipodi="http://sodipodi.sourceforge.net/DTD/sodipodi-0.dtd"
   xmlns:inkscape="http://www.inkscape.org/namespaces/inkscape"
   version="1.0"
   width="1000"
   height="1000"
   id="svg5496"
   sodipodi:version="0.32"
   inkscape:version="0.46"
   sodipodi:docname="kaf+alef.isol.svg"
   inkscape:output_extension="org.inkscape.output.svg.inkscape">
  <metadata
     id="metadata5594">
    <rdf:RDF>
      <cc:Work
         rdf:about="">
        <dc:format>image/svg+xml</dc:format>
        <dc:type
           rdf:resource="http://purl.org/dc/dcmitype/StillImage" />
      </cc:Work>
    </rdf:RDF>
  </metadata>
  <sodipodi:namedview
     inkscape:pageshadow="2"
     inkscape:pageopacity="0.0"
     guidetolerance="10.0"
     gridtolerance="10.0"
     objecttolerance="10.0"
     borderopacity="1.0"
     bordercolor="#666666"
     pagecolor="#ffffff"
     id="base"
     showgrid="false"
     showguides="true"
     inkscape:guide-bbox="true"
     inkscape:zoom="0.227"
     inkscape:cx="-320.52751"
     inkscape:cy="550.82334"
     inkscape:window-x="0"
     inkscape:window-y="25"
     inkscape:current-layer="svg5496">
    <sodipodi:guide
       orientation="horizontal"
       position="200"
       id="guide5596" />
  </sodipodi:namedview>
  <defs
     id="defs5498">
    <inkscape:perspective
       sodipodi:type="inkscape:persp3d"
       inkscape:vp_x="0 : 500 : 1"
       inkscape:vp_y="0 : 1000 : 0"
       inkscape:vp_z="1000 : 500 : 1"
       inkscape:persp3d-origin="500 : 333.33333 : 1"
       id="perspective8" />
    <inkscape:perspective
       id="perspective2457"
       inkscape:persp3d-origin="372.04724 : 350.78739 : 1"
       inkscape:vp_z="744.09448 : 526.18109 : 1"
       inkscape:vp_y="0 : 1000 : 0"
       inkscape:vp_x="0 : 526.18109 : 1"
       sodipodi:type="inkscape:persp3d" />
  </defs>
  <g
     id="layer1"
     transform="matrix(0.5,0,0,0.5,49.760543,12.754394)"
     style="stroke:#000000;stroke-opacity:1;stroke-width:2;stroke-miterlimit:4;stroke-dasharray:none" />
  <path
     style="fill:none;fill-rule:evenodd;stroke:#000000;stroke-width:1;stroke-linecap:butt;stroke-linejoin:miter;stroke-opacity:1;stroke-miterlimit:4;stroke-dasharray:none"
     d="M 799.6269,-48.736406 C 802.5191,-57.290206 795.3374,-64.153706 783.8858,-59.999706 C 657.0949,-14.007306 106.46474,200.83999 88.306743,334.34029 C 78.601443,215.44019 64.489343,85.802194 46.424243,-22.360006 C 45.449543,-28.210706 41.732243,-31.891006 36.544643,-23.589206 L 3.6328429,29.079494 C 0.7893429,33.629994 0.2417429,39.357194 2.4036429,45.793994 C 22.286843,104.99349 39.920143,276.00389 44.266043,344.09509 C 55.390043,518.38489 75.477343,729.12469 114.54954,764.82339 C 171.17594,816.56079 341.43274,831.20939 414.80947,671.15569 C 425.33282,648.20159 420.50837,536.61659 381.31364,490.27179 C 329.18284,428.63099 191.95124,365.61289 123.27374,342.60019 C 209.17684,263.27619 597.35895,97.228494 765.9421,26.103794 C 771.33285,23.829494 776.5347,19.558694 778.8354,12.754394 L 799.6269,-48.736406 z"
     id="path2483"
     sodipodi:nodetypes="cscsssssssscsss" />
  <path
     style="fill:none;fill-rule:evenodd;stroke:#000000;stroke-width:1;stroke-linecap:butt;stroke-linejoin:miter;stroke-opacity:1;stroke-miterlimit:4;stroke-dasharray:none"
     d="M 96.53904,434.62729 C 172.19304,451.72179 379.15524,555.26599 386.07654,623.16179 C 293.76194,707.49229 210.94674,706.93409 152.70644,674.19249 C 113.81524,652.32859 100.49084,504.54629 96.53904,434.62729 z"
     id="path2485"
     sodipodi:nodetypes="ccsc" />
</svg>
