<?xml version="1.0" encoding="UTF-8" standalone="no"?>
<!-- Created with Inkscape (http://www.inkscape.org/) -->
<svg
   xmlns:dc="http://purl.org/dc/elements/1.1/"
   xmlns:cc="http://creativecommons.org/ns#"
   xmlns:rdf="http://www.w3.org/1999/02/22-rdf-syntax-ns#"
   xmlns:svg="http://www.w3.org/2000/svg"
   xmlns="http://www.w3.org/2000/svg"
   xmlns:sodipodi="http://sodipodi.sourceforge.net/DTD/sodipodi-0.dtd"
   xmlns:inkscape="http://www.inkscape.org/namespaces/inkscape"
   version="1.0"
   width="1000"
   height="1000"
   id="svg5496"
   sodipodi:version="0.32"
   inkscape:version="0.46"
   sodipodi:docname="kaf+lam.isol.svg"
   inkscape:output_extension="org.inkscape.output.svg.inkscape">
  <metadata
     id="metadata5594">
    <rdf:RDF>
      <cc:Work
         rdf:about="">
        <dc:format>image/svg+xml</dc:format>
        <dc:type
           rdf:resource="http://purl.org/dc/dcmitype/StillImage" />
      </cc:Work>
    </rdf:RDF>
  </metadata>
  <sodipodi:namedview
     inkscape:pageshadow="2"
     inkscape:pageopacity="0.0"
     guidetolerance="10.0"
     gridtolerance="10.0"
     objecttolerance="10.0"
     borderopacity="1.0"
     bordercolor="#666666"
     pagecolor="#ffffff"
     id="base"
     showgrid="false"
     showguides="true"
     inkscape:guide-bbox="true"
     inkscape:zoom="0.32102648"
     inkscape:cx="626.00865"
     inkscape:cy="698.16796"
     inkscape:window-x="0"
     inkscape:window-y="25"
     inkscape:current-layer="svg5496">
    <sodipodi:guide
       orientation="horizontal"
       position="200"
       id="guide5596" />
  </sodipodi:namedview>
  <defs
     id="defs5498">
    <inkscape:perspective
       sodipodi:type="inkscape:persp3d"
       inkscape:vp_x="0 : 500 : 1"
       inkscape:vp_y="0 : 1000 : 0"
       inkscape:vp_z="1000 : 500 : 1"
       inkscape:persp3d-origin="500 : 333.33333 : 1"
       id="perspective8" />
    <inkscape:perspective
       id="perspective2477"
       inkscape:persp3d-origin="372.04724 : 350.78739 : 1"
       inkscape:vp_z="744.09448 : 526.18109 : 1"
       inkscape:vp_y="0 : 1000 : 0"
       inkscape:vp_x="0 : 526.18109 : 1"
       sodipodi:type="inkscape:persp3d" />
  </defs>
  <g
     id="layer1"
     transform="translate(87.22022,386.26097)" />
  <path
     style="fill:none;fill-rule:evenodd;stroke:#000000;stroke-width:1px;stroke-linecap:butt;stroke-linejoin:miter;stroke-opacity:1"
     d="M 1083.3656,53.111193 C 1086.4759,41.171703 1079.8617,35.544663 1067.3964,40.445993 C 891.39877,109.64819 512.97885,243.84139 424.77528,417.64864 C 416.28803,343.6416 408.21464,235.25246 402.74886,162.14203 C 402.08442,153.18755 397.54365,138.9776 385.67837,155.5341 C 375.72821,168.87409 354.81068,199.53548 357.04401,219.41075 C 385.52206,472.84736 417.78062,791.91863 426.29365,960.11632 C 381.0757,1028.7016 257.8272,1063.7472 181.93388,1053.6619 C -10.965383,1028.0278 45.21161,865.11824 93.828149,760.71031 C 101.54569,744.13627 82.567883,731.99106 74.555022,751.34908 C 49.502754,811.87207 -24.02479,929.43399 12.330352,1051.4592 C 62.960914,1170.2512 169.07379,1177.631 270.68475,1153.1587 C 352.75983,1133.3915 439.16602,1081.7058 457.17432,980.18081 C 467.29758,923.10908 455.77325,812.68564 447.54133,749.42987 C 472.99626,799.52981 495.8742,859.38726 579.08513,853.50753 C 683.29688,835.50196 756.6453,754.08982 750.63017,649.4185 C 727.56267,487.03983 546.21316,437.04882 468.27749,414.89533 C 669.72759,262.1784 874.20283,209.17376 1043.1674,143.97022 C 1051.4114,140.78882 1061.3117,137.76973 1066.2951,118.63982 L 1083.3656,53.111193 z"
     id="path2483"
     sodipodi:nodetypes="cscscscssscssccccsss" />
  <path
     style="fill:none;fill-rule:evenodd;stroke:#000000;stroke-width:1px;stroke-linecap:butt;stroke-linejoin:miter;stroke-opacity:1"
     d="M 437.44048,499.69709 C 453.86965,583.23552 459.71277,689.38043 523.34357,729.32265 C 577.47356,763.30104 642.46983,740.84691 719.59173,673.11529 C 721.9625,671.03318 722.1551,667.64558 720.81415,665.50983 C 655.09029,560.83052 535.17243,528.31591 437.44048,499.69709 z"
     id="path2485"
     sodipodi:nodetypes="csssc" />
</svg>
