<?xml version="1.0" encoding="UTF-8" standalone="no"?>
<!-- Created with Inkscape (http://www.inkscape.org/) -->
<svg
   xmlns:dc="http://purl.org/dc/elements/1.1/"
   xmlns:cc="http://creativecommons.org/ns#"
   xmlns:rdf="http://www.w3.org/1999/02/22-rdf-syntax-ns#"
   xmlns:svg="http://www.w3.org/2000/svg"
   xmlns="http://www.w3.org/2000/svg"
   xmlns:sodipodi="http://sodipodi.sourceforge.net/DTD/sodipodi-0.dtd"
   xmlns:inkscape="http://www.inkscape.org/namespaces/inkscape"
   version="1.0"
   width="1000"
   height="1000"
   id="svg5496"
   sodipodi:version="0.32"
   inkscape:version="0.46"
   sodipodi:docname="kaf+heh.fina.svg"
   inkscape:output_extension="org.inkscape.output.svg.inkscape">
  <metadata
     id="metadata5594">
    <rdf:RDF>
      <cc:Work
         rdf:about="">
        <dc:format>image/svg+xml</dc:format>
        <dc:type
           rdf:resource="http://purl.org/dc/dcmitype/StillImage" />
      </cc:Work>
    </rdf:RDF>
  </metadata>
  <sodipodi:namedview
     inkscape:pageshadow="2"
     inkscape:pageopacity="0.0"
     guidetolerance="10.0"
     gridtolerance="10.0"
     objecttolerance="10.0"
     borderopacity="1.0"
     bordercolor="#666666"
     pagecolor="#ffffff"
     id="base"
     showgrid="false"
     showguides="true"
     inkscape:guide-bbox="true"
     inkscape:zoom="0.454"
     inkscape:cx="492.28518"
     inkscape:cy="693.65022"
     inkscape:window-x="0"
     inkscape:window-y="25"
     inkscape:current-layer="svg5496">
    <sodipodi:guide
       orientation="horizontal"
       position="200"
       id="guide5596" />
  </sodipodi:namedview>
  <defs
     id="defs5498">
    <inkscape:perspective
       sodipodi:type="inkscape:persp3d"
       inkscape:vp_x="0 : 500 : 1"
       inkscape:vp_y="0 : 1000 : 0"
       inkscape:vp_z="1000 : 500 : 1"
       inkscape:persp3d-origin="500 : 333.33333 : 1"
       id="perspective8" />
    <inkscape:perspective
       id="perspective2477"
       inkscape:persp3d-origin="372.04724 : 350.78739 : 1"
       inkscape:vp_z="744.09448 : 526.18109 : 1"
       inkscape:vp_y="0 : 1000 : 0"
       inkscape:vp_x="0 : 526.18109 : 1"
       sodipodi:type="inkscape:persp3d" />
    <inkscape:perspective
       sodipodi:type="inkscape:persp3d"
       inkscape:vp_x="0 : 500 : 1"
       inkscape:vp_y="0 : 1000 : 0"
       inkscape:vp_z="1000 : 500 : 1"
       inkscape:persp3d-origin="500 : 333.33333 : 1"
       id="perspective2389" />
    <inkscape:perspective
       id="perspective2524"
       inkscape:persp3d-origin="372.04724 : 350.78739 : 1"
       inkscape:vp_z="744.09448 : 526.18109 : 1"
       inkscape:vp_y="0 : 1000 : 0"
       inkscape:vp_x="0 : 526.18109 : 1"
       sodipodi:type="inkscape:persp3d" />
    <inkscape:perspective
       sodipodi:type="inkscape:persp3d"
       inkscape:vp_x="0 : 526.18109 : 1"
       inkscape:vp_y="0 : 1000 : 0"
       inkscape:vp_z="744.09448 : 526.18109 : 1"
       inkscape:persp3d-origin="372.04724 : 350.78739 : 1"
       id="perspective2457" />
    <inkscape:perspective
       id="perspective2594"
       inkscape:persp3d-origin="500 : 333.33333 : 1"
       inkscape:vp_z="1000 : 500 : 1"
       inkscape:vp_y="0 : 1000 : 0"
       inkscape:vp_x="0 : 500 : 1"
       sodipodi:type="inkscape:persp3d" />
  </defs>
  <g
     id="layer1" />
  <g
     id="g2601"
     transform="matrix(0.5,0,0,0.5,198.16843,-109.86789)"
     style="stroke:#000000;stroke-width:2;stroke-miterlimit:4;stroke-dasharray:none;stroke-opacity:1" />
  <g
     id="g2652"
     transform="translate(-68,114)">
    <path
       id="path2463"
       d="M 920.375,-184.90625 C 919.16254,-184.86135 917.89123,-184.64793 916.5625,-184.25 C 685.33205,-115.00067 359.40425,-5.311837 262.125,93.0625 L 234.59375,173.46875 C 227.63873,193.77742 235.83294,211.47706 251.09375,223.875 C 355.477,308.67638 537.64224,454.96236 550.65625,574.875 C 507.06032,631.53069 430.04945,657.06924 364.46875,631.3125 C 333.7196,609.92761 318.44623,573.01575 311.46875,551.96875 C 282.74536,465.32671 262.09375,332.15625 262.09375,332.15625 C 258.30749,323.28842 258.57455,304.70099 245.1875,318.875 L 225.21875,365.125 C 222.59619,374.78942 223.88746,387.82136 224.5625,393.625 L 230.59375,433.46875 C 186.86296,454.26296 148.167,480.20745 113.78125,514.5 C 113.78125,514.49998 102.48,526.42 96.25,543.375 C 92.831423,552.67871 75.78737,595.7677 70.3125,611.8125 C 63.729268,631.10547 78.83807,648.489 86.71875,655.3125 C 98.843398,665.81057 170.33168,670.0429 215.1875,661.375 C 225.26488,658.66531 232.38739,653.1944 240.78125,637.25 C 245.44832,628.57121 254.15445,612.78475 263.4375,570.21875 C 268.74976,597.14293 288.98645,702.17059 345.78125,734.02748 C 377.91691,752.05275 546.96209,767.99566 574.22844,624.20906 C 580.31659,572.16218 568.95925,520.25835 560.5625,469.15625 C 559.4203,460.24824 566.53377,461.6122 572.6875,468.0625 C 663.96267,563.73658 807.88145,694.53526 848.03125,685.03125 L 845.8125,579.28125 C 709.47778,540.83552 518.68358,291.47663 289.84375,153.65625 C 434.91111,44.621838 723.87879,-39.84541 912.53125,-85.3125 C 916.02853,-86.155378 921.05796,-89.559103 921.9375,-95.40625 L 932.6875,-167 C 934.23462,-177.28541 928.86219,-185.22054 920.375,-184.90625 z"
       style="fill:none;fill-rule:evenodd;stroke:#000000;stroke-width:1px;stroke-linecap:butt;stroke-linejoin:miter;stroke-miterlimit:4;stroke-dasharray:none;stroke-opacity:1"
       sodipodi:nodetypes="csccsccscccccsssscccsccscccsccc" />
    <g
       style="stroke:#000000;stroke-width:2;stroke-miterlimit:4;stroke-dasharray:none;stroke-opacity:1"
       transform="matrix(0.5,0,0,0.5,558.33138,7.084083)"
       id="g3351">
      <g
         id="g2541"
         transform="matrix(2,0,0,2,-1017.2453,-198.60512)"
         style="stroke:#000000;stroke-width:1px;stroke-miterlimit:4;stroke-dasharray:none;stroke-opacity:1">
        <g
           style="stroke:#000000;stroke-width:2;stroke-miterlimit:4;stroke-dasharray:none;stroke-opacity:1"
           transform="matrix(0.5,0,0,0.5,221.36564,169.60355)"
           id="g2543" />
        <path
           sodipodi:nodetypes="ccsc"
           id="path2552"
           d="M 193.7198,576.84393 C 165.98958,583.29986 100.99387,610.43407 77.296396,656.27663 C 105.42233,678.51226 166.79387,668.36272 190.21541,659.39164 C 220.56265,647.76782 195.49606,596.80843 193.7198,576.84393 z"
           style="fill:none;fill-rule:evenodd;stroke:#000000;stroke-width:1px;stroke-linecap:butt;stroke-linejoin:miter;stroke-miterlimit:4;stroke-dasharray:none;stroke-opacity:1" />
      </g>
    </g>
  </g>
</svg>
