<?xml version="1.0" encoding="UTF-8" standalone="no"?>
<!-- Created with Inkscape (http://www.inkscape.org/) -->

<svg
   xmlns:dc="http://purl.org/dc/elements/1.1/"
   xmlns:cc="http://creativecommons.org/ns#"
   xmlns:rdf="http://www.w3.org/1999/02/22-rdf-syntax-ns#"
   xmlns:svg="http://www.w3.org/2000/svg"
   xmlns="http://www.w3.org/2000/svg"
   xmlns:sodipodi="http://sodipodi.sourceforge.net/DTD/sodipodi-0.dtd"
   xmlns:inkscape="http://www.inkscape.org/namespaces/inkscape"
   version="1.0"
   width="1000"
   height="1000"
   id="svg5496"
   sodipodi:version="0.32"
   inkscape:version="0.47pre0 r21549"
   sodipodi:docname="kaf+meem+alef.isol.svg"
   inkscape:output_extension="org.inkscape.output.svg.inkscape">
  <metadata
     id="metadata5594">
    <rdf:RDF>
      <cc:Work
         rdf:about="">
        <dc:format>image/svg+xml</dc:format>
        <dc:type
           rdf:resource="http://purl.org/dc/dcmitype/StillImage" />
      </cc:Work>
    </rdf:RDF>
  </metadata>
  <sodipodi:namedview
     inkscape:pageshadow="2"
     inkscape:pageopacity="0.0"
     guidetolerance="10.0"
     gridtolerance="10.0"
     objecttolerance="10.0"
     borderopacity="1.0"
     bordercolor="#666666"
     pagecolor="#ffffff"
     id="base"
     showgrid="false"
     showguides="true"
     inkscape:guide-bbox="true"
     inkscape:zoom="0.236"
     inkscape:cx="368.64407"
     inkscape:cy="500"
     inkscape:window-x="0"
     inkscape:window-y="25"
     inkscape:current-layer="svg5496">
    <sodipodi:guide
       orientation="horizontal"
       position="200"
       id="guide5596" />
  </sodipodi:namedview>
  <defs
     id="defs5498">
    <inkscape:perspective
       sodipodi:type="inkscape:persp3d"
       inkscape:vp_x="0 : 500 : 1"
       inkscape:vp_y="0 : 1000 : 0"
       inkscape:vp_z="1000 : 500 : 1"
       inkscape:persp3d-origin="500 : 333.33333 : 1"
       id="perspective8" />
    <inkscape:perspective
       id="perspective2537"
       inkscape:persp3d-origin="372.04724 : 350.78739 : 1"
       inkscape:vp_z="744.09448 : 526.18109 : 1"
       inkscape:vp_y="0 : 1000 : 0"
       inkscape:vp_x="0 : 526.18109 : 1"
       sodipodi:type="inkscape:persp3d" />
  </defs>
  <g
     id="layer1"
     transform="translate(-37.380094,241.62995)" />
  <path
     style="fill:#000000;fill-rule:evenodd;stroke:#000000;stroke-width:1px;stroke-linecap:butt;stroke-linejoin:miter;stroke-opacity:1"
     d="M 721.15625 -19.75 C 717.98314 -19.662958 714.30074 -18.645596 710.40625 -16.625 C 500.99289 92.02587 158.0375 207.56215 81.5625 329.75 C 72.34277 234.81074 64.996742 140.37252 51.8125 41.46875 C 49.376076 23.19151 39.977792 27.69716 35.84375 34.03125 L 4.375 82.25 C -0.12440305 89.14388 2.785515 95.37709 4.28125 105 C 57.750464 447.7451 30.623855 653.01792 86.90625 789.59375 C 123.62793 878.52261 240.9755 974.31377 337.625 1003.75 C 349.51411 1007.371 349.75081 1002.0453 353.03125 991.625 L 381.125 902.4375 C 385.07329 889.89589 380.79701 888.01366 372.875 885.34375 C 313.08929 865.19453 268.04086 839.31163 233.71875 802.21875 C 220.02641 787.42106 226.91698 775.00152 248.0625 768.09375 C 293.60014 753.21763 448.59091 764.78979 471.9375 687.09375 C 498.19587 599.7075 472.06758 474.75301 108.3125 371.125 C 103.20629 369.6672 103.69762 365.9888 107.125 362.875 C 197.17594 281.06327 595.08832 125.55232 692.25 89.09375 C 702.00611 85.4329 710.03157 82.37371 715.375 61 L 731.34375 -2.875 C 734.14432 -14.077251 729.2653 -19.972441 721.15625 -19.75 z M 89.8125 467.40625 C 202.41686 496.12411 336.1806 540.79143 439.90625 638.25 C 446.93212 644.85137 446.7194 656.26338 437.40625 658.34375 C 371.43516 673.08038 298.68693 678.87752 237.40625 711.34375 C 206.59531 727.66725 195.05849 767.64468 196.4375 794.96875 C 196.8828 803.79197 189.6764 802.80142 185.625 800 C 87.181546 716.92445 97.02619 543.03848 89.8125 467.40625 z "
     id="path2543" />
</svg>
