<?xml version="1.0" encoding="UTF-8" standalone="no"?>
<!-- Created with Inkscape (http://www.inkscape.org/) -->

<svg
   xmlns:dc="http://purl.org/dc/elements/1.1/"
   xmlns:cc="http://creativecommons.org/ns#"
   xmlns:rdf="http://www.w3.org/1999/02/22-rdf-syntax-ns#"
   xmlns:svg="http://www.w3.org/2000/svg"
   xmlns="http://www.w3.org/2000/svg"
   xmlns:sodipodi="http://sodipodi.sourceforge.net/DTD/sodipodi-0.dtd"
   xmlns:inkscape="http://www.inkscape.org/namespaces/inkscape"
   version="1.0"
   width="1000"
   height="1000"
   id="svg5496"
   sodipodi:version="0.32"
   inkscape:version="0.47pre0 r21549"
   sodipodi:docname="kaf+meem.medi.svg"
   inkscape:output_extension="org.inkscape.output.svg.inkscape">
  <metadata
     id="metadata5594">
    <rdf:RDF>
      <cc:Work
         rdf:about="">
        <dc:format>image/svg+xml</dc:format>
        <dc:type
           rdf:resource="http://purl.org/dc/dcmitype/StillImage" />
      </cc:Work>
    </rdf:RDF>
  </metadata>
  <sodipodi:namedview
     inkscape:pageshadow="2"
     inkscape:pageopacity="0.0"
     guidetolerance="10.0"
     gridtolerance="10.0"
     objecttolerance="10.0"
     borderopacity="1.0"
     bordercolor="#666666"
     pagecolor="#ffffff"
     id="base"
     showgrid="false"
     showguides="true"
     inkscape:guide-bbox="true"
     inkscape:zoom="0.236"
     inkscape:cx="500"
     inkscape:cy="669.49153"
     inkscape:window-x="0"
     inkscape:window-y="25"
     inkscape:current-layer="svg5496">
    <sodipodi:guide
       orientation="horizontal"
       position="200"
       id="guide5596" />
  </sodipodi:namedview>
  <defs
     id="defs5498">
    <inkscape:perspective
       sodipodi:type="inkscape:persp3d"
       inkscape:vp_x="0 : 500 : 1"
       inkscape:vp_y="0 : 1000 : 0"
       inkscape:vp_z="1000 : 500 : 1"
       inkscape:persp3d-origin="500 : 333.33333 : 1"
       id="perspective8" />
    <inkscape:perspective
       id="perspective2477"
       inkscape:persp3d-origin="372.04724 : 350.78739 : 1"
       inkscape:vp_z="744.09448 : 526.18109 : 1"
       inkscape:vp_y="0 : 1000 : 0"
       inkscape:vp_x="0 : 526.18109 : 1"
       sodipodi:type="inkscape:persp3d" />
  </defs>
  <g
     id="layer1"
     transform="matrix(0.5,0,0,0.5,199.85902,131.70926)" />
  <path
     style="fill:#000000;fill-rule:evenodd;stroke:#000000;stroke-width:1px;stroke-linecap:butt;stroke-linejoin:miter;stroke-miterlimit:4;stroke-dasharray:none;stroke-opacity:1"
     d="M 805.125 -94.53125 C 803.86383 -94.512837 802.51119 -94.374593 801.0625 -94.09375 C 644.50772 -63.74405 175.90645 27.40685 88.5 119.28125 C 73.960569 134.55734 52.81206 181.29282 56.6875 235.875 C 57.00455 240.34039 57.37909 243.43064 60.71875 246.1875 C 138.12101 310.08248 301.10844 441.94548 309.09375 513.53125 C 275.84461 554.07333 199.04517 535.37149 158 558.125 C 127.52686 575.01787 107.97235 634.42625 83.625 662.46875 C 64.114475 684.9404 16.60619 696.86175 0.1875 697.71875 L 0.5 798.375 C 63.953685 800.8057 82.463034 722.71195 103.5625 688.1875 C 125.03139 720.3059 244.91186 770.27905 279.96875 766.375 C 311.16338 762.90105 352.00606 668.29724 289.40625 595.875 C 301.10126 581.1813 359.66695 558.35522 324.1875 414.125 C 437.88529 481.61684 670.81682 783.4317 773.03125 781.21875 L 768.34375 690.90625 C 714.34 682.18245 597.10063 557.89316 462.125 439.46875 C 349.64722 340.78343 216.45247 232.525 105.0625 185.21875 C 100.55442 182.75929 100.40553 175.91763 105.75 173.15625 C 279.71168 71.41599 653.39924 27.03845 768.34375 2.46875 C 772.4431 1.59668 776.25785 2.05928 780.34375 -5.78125 L 816.625 -75.40625 C 820.78981 -83.398165 817.31627 -94.70924 805.125 -94.53125 z M 186.8125 618 C 228.43643 617.40628 266.10696 646.80219 268.8125 672.84375 C 269.32169 677.7449 268.14104 679.5529 263.25 678.65625 C 229.78982 672.52245 192.41313 663.7422 156.65625 631.8125 C 154.33953 629.7428 153.58028 625.24251 157.75 623.625 C 167.39608 619.88308 177.20698 618.13701 186.8125 618 z "
     id="path2483" />
</svg>
