<?xml version="1.0" encoding="UTF-8" standalone="no"?>
<!-- Created with Inkscape (http://www.inkscape.org/) -->
<svg
   xmlns:dc="http://purl.org/dc/elements/1.1/"
   xmlns:cc="http://creativecommons.org/ns#"
   xmlns:rdf="http://www.w3.org/1999/02/22-rdf-syntax-ns#"
   xmlns:svg="http://www.w3.org/2000/svg"
   xmlns="http://www.w3.org/2000/svg"
   xmlns:sodipodi="http://sodipodi.sourceforge.net/DTD/sodipodi-0.dtd"
   xmlns:inkscape="http://www.inkscape.org/namespaces/inkscape"
   version="1.0"
   width="1000"
   height="1000"
   id="svg5496"
   sodipodi:version="0.32"
   inkscape:version="0.46"
   sodipodi:docname="kaf+raa.fina.svg"
   inkscape:output_extension="org.inkscape.output.svg.inkscape">
  <metadata
     id="metadata5594">
    <rdf:RDF>
      <cc:Work
         rdf:about="">
        <dc:format>image/svg+xml</dc:format>
        <dc:type
           rdf:resource="http://purl.org/dc/dcmitype/StillImage" />
      </cc:Work>
    </rdf:RDF>
  </metadata>
  <sodipodi:namedview
     inkscape:pageshadow="2"
     inkscape:pageopacity="0.0"
     guidetolerance="10.0"
     gridtolerance="10.0"
     objecttolerance="10.0"
     borderopacity="1.0"
     bordercolor="#666666"
     pagecolor="#ffffff"
     id="base"
     showgrid="false"
     showguides="true"
     inkscape:guide-bbox="true"
     inkscape:zoom="0.305"
     inkscape:cx="781.14754"
     inkscape:cy="453.63234"
     inkscape:window-x="0"
     inkscape:window-y="25"
     inkscape:current-layer="svg5496">
    <sodipodi:guide
       orientation="horizontal"
       position="200"
       id="guide5596" />
  </sodipodi:namedview>
  <defs
     id="defs5498">
    <inkscape:perspective
       sodipodi:type="inkscape:persp3d"
       inkscape:vp_x="0 : 500 : 1"
       inkscape:vp_y="0 : 1000 : 0"
       inkscape:vp_z="1000 : 500 : 1"
       inkscape:persp3d-origin="500 : 333.33333 : 1"
       id="perspective8" />
    <inkscape:perspective
       id="perspective2457"
       inkscape:persp3d-origin="372.04724 : 350.78739 : 1"
       inkscape:vp_z="744.09448 : 526.18109 : 1"
       inkscape:vp_y="0 : 1000 : 0"
       inkscape:vp_x="0 : 526.18109 : 1"
       sodipodi:type="inkscape:persp3d" />
  </defs>
  <g
     id="layer1"
     transform="matrix(0.5,0,0,0.5,195.54055,254.8458)"
     style="stroke:#000000;stroke-opacity:1" />
  <path
     style="fill:none;fill-rule:evenodd;stroke:#000000;stroke-width:1px;stroke-linecap:butt;stroke-linejoin:miter;stroke-miterlimit:4;stroke-dasharray:none;stroke-opacity:1"
     d="M 902.69036,-41.4097 C 905.30796,-50.13497 902.81066,-58.45623 891.57581,-55.72688 C 623.05872,9.505567 328.65273,144.12027 312.28064,172.24668 C 312.28064,172.24668 273.98677,226.31328 269.32909,246.03523 C 264.31649,267.26002 268.22777,316.72245 268.22777,316.72245 C 370.56621,402.2038 517.21829,593.65768 514.92381,666.74008 C 465.59039,693.29033 394.05503,685.69545 365.38005,663.28512 C 361.41144,660.18354 360.0998,662.16735 359.5455,664.10022 L 333.20575,755.9471 C 331.16379,763.06744 334.50035,769.6771 339.4911,775.95984 C 353.81429,794.68506 369.47686,816.44729 365.08616,841.13814 C 324.65086,933.18319 192.53116,993.07784 152.17812,997.23444 C 97.884265,1002.827 58.485495,990.09379 8.8665325,985.57264 C -1.0639975,984.66779 -4.6656825,997.32854 6.1132275,1003.1938 C 25.382195,1013.6789 149.93524,1080.3924 191.13526,1077.6343 C 265.50099,1072.656 391.39137,944.25639 407.19693,797.79733 C 438.28775,795.05984 479.4829,791.99895 503.91059,782.37885 C 530.87709,739.37598 543.77683,656.75136 530.34231,545.04404 C 557.9454,573.86874 621.68021,648.06062 657.38931,689.36995 C 717.25321,758.62224 761.34926,808.13274 799.06481,800 L 797.96346,702.88104 C 757.23265,682.38783 726.57955,657.21161 692.31191,619.76618 C 611.43606,531.39036 437.06715,322.93811 321.09121,241.62994 C 388.44364,178.39048 682.83933,63.662122 882.86656,24.669592 L 902.69036,-41.4097 z"
     id="path2483"
     sodipodi:nodetypes="csssccsssccsssscccsccsccs" />
</svg>
