<?xml version="1.0" encoding="UTF-8" standalone="no"?>
<!-- Created with Inkscape (http://www.inkscape.org/) -->
<svg
   xmlns:dc="http://purl.org/dc/elements/1.1/"
   xmlns:cc="http://creativecommons.org/ns#"
   xmlns:rdf="http://www.w3.org/1999/02/22-rdf-syntax-ns#"
   xmlns:svg="http://www.w3.org/2000/svg"
   xmlns="http://www.w3.org/2000/svg"
   xmlns:sodipodi="http://sodipodi.sourceforge.net/DTD/sodipodi-0.dtd"
   xmlns:inkscape="http://www.inkscape.org/namespaces/inkscape"
   version="1.0"
   width="1000"
   height="1000"
   id="svg5496"
   sodipodi:version="0.32"
   inkscape:version="0.46"
   sodipodi:docname="kaf+lam+alef.isol.svg"
   inkscape:output_extension="org.inkscape.output.svg.inkscape">
  <metadata
     id="metadata5594">
    <rdf:RDF>
      <cc:Work
         rdf:about="">
        <dc:format>image/svg+xml</dc:format>
        <dc:type
           rdf:resource="http://purl.org/dc/dcmitype/StillImage" />
      </cc:Work>
    </rdf:RDF>
  </metadata>
  <sodipodi:namedview
     inkscape:pageshadow="2"
     inkscape:pageopacity="0.0"
     guidetolerance="10.0"
     gridtolerance="10.0"
     objecttolerance="10.0"
     borderopacity="1.0"
     bordercolor="#666666"
     pagecolor="#ffffff"
     id="base"
     showgrid="false"
     showguides="true"
     inkscape:guide-bbox="true"
     inkscape:zoom="0.454"
     inkscape:cx="498.67631"
     inkscape:cy="541.24808"
     inkscape:window-x="0"
     inkscape:window-y="25"
     inkscape:current-layer="svg5496">
    <sodipodi:guide
       orientation="horizontal"
       position="200"
       id="guide5596" />
  </sodipodi:namedview>
  <defs
     id="defs5498">
    <inkscape:perspective
       sodipodi:type="inkscape:persp3d"
       inkscape:vp_x="0 : 500 : 1"
       inkscape:vp_y="0 : 1000 : 0"
       inkscape:vp_z="1000 : 500 : 1"
       inkscape:persp3d-origin="500 : 333.33333 : 1"
       id="perspective8" />
    <inkscape:perspective
       id="perspective2477"
       inkscape:persp3d-origin="372.04724 : 350.78739 : 1"
       inkscape:vp_z="744.09448 : 526.18109 : 1"
       inkscape:vp_y="0 : 1000 : 0"
       inkscape:vp_x="0 : 526.18109 : 1"
       sodipodi:type="inkscape:persp3d" />
    <inkscape:perspective
       sodipodi:type="inkscape:persp3d"
       inkscape:vp_x="0 : 526.18109 : 1"
       inkscape:vp_y="0 : 1000 : 0"
       inkscape:vp_z="744.09448 : 526.18109 : 1"
       inkscape:persp3d-origin="372.04724 : 350.78739 : 1"
       id="perspective2711" />
    <inkscape:perspective
       id="perspective2611"
       inkscape:persp3d-origin="500 : 333.33333 : 1"
       inkscape:vp_z="1000 : 500 : 1"
       inkscape:vp_y="0 : 1000 : 0"
       inkscape:vp_x="0 : 500 : 1"
       sodipodi:type="inkscape:persp3d" />
    <inkscape:perspective
       sodipodi:type="inkscape:persp3d"
       inkscape:vp_x="0 : 526.18109 : 1"
       inkscape:vp_y="0 : 1000 : 0"
       inkscape:vp_z="744.09448 : 526.18109 : 1"
       inkscape:persp3d-origin="372.04724 : 350.78739 : 1"
       id="perspective2459" />
    <inkscape:perspective
       sodipodi:type="inkscape:persp3d"
       inkscape:vp_x="0 : 526.18109 : 1"
       inkscape:vp_y="0 : 1000 : 0"
       inkscape:vp_z="744.09448 : 526.18109 : 1"
       inkscape:persp3d-origin="372.04724 : 350.78739 : 1"
       id="perspective2457" />
    <inkscape:perspective
       id="perspective2670"
       inkscape:persp3d-origin="500 : 333.33333 : 1"
       inkscape:vp_z="1000 : 500 : 1"
       inkscape:vp_y="0 : 1000 : 0"
       inkscape:vp_x="0 : 500 : 1"
       sodipodi:type="inkscape:persp3d" />
  </defs>
  <g
     id="layer1"
     transform="translate(60,-30)" />
  <path
     style="fill:none;fill-rule:evenodd;stroke:#000000;stroke-width:1px;stroke-linecap:butt;stroke-linejoin:miter;stroke-opacity:1"
     d="M 1107.2267,79.88651 C 1112.2211,66.997473 1097.7744,64.127979 1087.9526,68.399916 C 924.5512,139.47068 592.54528,237.78829 499.60549,372.69725 C 500.72654,289.28617 503.13721,207.97073 496.29579,111.62065 C 495.28689,97.412 487.56875,90.56349 481.43843,103.47716 C 472.54933,122.20226 463.89371,141.36331 457.35819,162.23952 C 455.05672,169.59105 453.14809,176.9793 453.23061,183.9167 C 455.06781,338.37717 408.81439,584.22983 376.03968,622.12596 C 371.85382,500.73172 317.48804,404.836 249.69893,338.31882 C 185.13582,280.44502 75.441396,233.77311 23.398658,219.42482 C 18.008856,217.99258 6.896131,216.49117 5.306511,224.97057 C -9.970944,306.73935 -1.878704,376.25687 129.35616,417.35333 C 140.08577,420.71333 142.03973,415.07637 142.72856,410.12458 L 144.84483,394.91125 C 145.32621,391.4507 149.2059,390.95235 152.06548,391.97709 C 198.02585,408.44718 353.43644,501.83598 350.79705,647.05414 C 284.327,737.35626 154.49743,783.92466 55.327488,822.03713 C 46.027644,825.6112 46.611827,836.62339 59.449339,836.23552 C 272.04014,829.81226 372.03417,799.51801 456.02514,462.31151 C 457.02554,458.30437 462.73164,457.75456 463.03181,462.07287 C 476.85377,660.36994 451.00337,811.38535 614.75484,799.3035 C 715.20387,791.8922 785.38632,703.21886 783.79683,627.34914 C 781.7347,529.17155 685.06143,435.5378 543.59113,380.04815 C 649.76706,308.19212 919.25602,202.7483 1066.1475,152.31044 C 1076.0286,148.9176 1083.356,141.48827 1089.1207,126.61163 L 1107.2267,79.88651 z"
     id="path2680"
     sodipodi:nodetypes="cscsssscccssssscsssssscsss" />
  <path
     style="fill:none;fill-rule:evenodd;stroke:#000000;stroke-width:1px;stroke-linecap:butt;stroke-linejoin:miter;stroke-opacity:1"
     d="M 498.4333,464.58592 C 560.16792,484.77407 714.12032,544.4435 753.38128,644.9684 C 752.17171,646.75117 746.2803,653.59396 742.55089,655.99258 C 667.55149,704.22938 570.04441,717.73746 534.75122,675.87021 C 497.30531,631.44925 499.94623,547.69124 498.4333,464.58592 z"
     id="path2682"
     sodipodi:nodetypes="ccssc" />
</svg>
