<?xml version="1.0" encoding="UTF-8" standalone="no"?>
<!-- Created with Inkscape (http://www.inkscape.org/) -->
<svg
   xmlns:dc="http://purl.org/dc/elements/1.1/"
   xmlns:cc="http://creativecommons.org/ns#"
   xmlns:rdf="http://www.w3.org/1999/02/22-rdf-syntax-ns#"
   xmlns:svg="http://www.w3.org/2000/svg"
   xmlns="http://www.w3.org/2000/svg"
   xmlns:sodipodi="http://sodipodi.sourceforge.net/DTD/sodipodi-0.dtd"
   xmlns:inkscape="http://www.inkscape.org/namespaces/inkscape"
   version="1.0"
   width="1000"
   height="1000"
   id="svg5496"
   sodipodi:version="0.32"
   inkscape:version="0.46"
   sodipodi:docname="kaf+meem.medi.svg"
   inkscape:output_extension="org.inkscape.output.svg.inkscape">
  <metadata
     id="metadata5594">
    <rdf:RDF>
      <cc:Work
         rdf:about="">
        <dc:format>image/svg+xml</dc:format>
        <dc:type
           rdf:resource="http://purl.org/dc/dcmitype/StillImage" />
      </cc:Work>
    </rdf:RDF>
  </metadata>
  <sodipodi:namedview
     inkscape:pageshadow="2"
     inkscape:pageopacity="0.0"
     guidetolerance="10.0"
     gridtolerance="10.0"
     objecttolerance="10.0"
     borderopacity="1.0"
     bordercolor="#666666"
     pagecolor="#ffffff"
     id="base"
     showgrid="false"
     showguides="true"
     inkscape:guide-bbox="true"
     inkscape:zoom="0.454"
     inkscape:cx="310.80275"
     inkscape:cy="510.77971"
     inkscape:window-x="0"
     inkscape:window-y="25"
     inkscape:current-layer="svg5496">
    <sodipodi:guide
       orientation="horizontal"
       position="200"
       id="guide5596" />
  </sodipodi:namedview>
  <defs
     id="defs5498">
    <inkscape:perspective
       sodipodi:type="inkscape:persp3d"
       inkscape:vp_x="0 : 500 : 1"
       inkscape:vp_y="0 : 1000 : 0"
       inkscape:vp_z="1000 : 500 : 1"
       inkscape:persp3d-origin="500 : 333.33333 : 1"
       id="perspective8" />
    <inkscape:perspective
       id="perspective2477"
       inkscape:persp3d-origin="372.04724 : 350.78739 : 1"
       inkscape:vp_z="744.09448 : 526.18109 : 1"
       inkscape:vp_y="0 : 1000 : 0"
       inkscape:vp_x="0 : 526.18109 : 1"
       sodipodi:type="inkscape:persp3d" />
  </defs>
  <g
     id="layer1"
     transform="matrix(0.5,0,0,0.5,199.85902,131.70926)" />
  <path
     style="fill:none;fill-rule:evenodd;stroke:#000000;stroke-width:1;stroke-linecap:butt;stroke-linejoin:miter;stroke-miterlimit:4;stroke-dasharray:none;stroke-opacity:1"
     d="M 816.63057,-75.397525 C 821.22622,-84.21619 816.50822,-97.083235 801.05552,-94.087575 C 644.50074,-63.737875 175.90394,27.41607 88.49749,119.29047 C 73.958059,134.56656 52.817799,181.28614 56.693239,235.86832 C 57.010289,240.33371 57.379694,243.42942 60.719354,246.18628 C 138.12161,310.08126 301.09368,441.94788 309.07899,513.53365 C 275.82985,554.07573 199.04628,535.36369 158.00111,558.1172 C 127.52797,575.01007 107.97764,634.42746 83.630294,662.46996 C 64.119769,684.94161 16.607514,696.85146 0.188824,697.70846 L 0.498524,798.36216 C 63.952209,800.79286 82.469644,722.71281 103.56911,688.18836 C 125.038,720.30676 244.91911,770.29016 279.976,766.38611 C 311.17063,762.91216 352.01531,668.30891 289.4155,595.88667 C 301.11051,581.19297 359.66346,558.34512 324.18401,414.1149 C 437.8818,481.60674 670.80604,783.44261 773.02047,781.22966 L 768.34797,690.89441 C 714.34422,682.17061 597.0963,557.892 462.12067,439.46759 C 349.64289,340.78227 216.46748,232.54027 105.07751,185.23402 C 100.56943,182.77456 100.41925,175.90205 105.76372,173.14067 C 279.7254,71.40041 653.40346,27.04738 768.34797,2.47768 C 772.44732,1.60561 776.25777,2.0745 780.34367,-5.76603 L 816.63057,-75.397525 z"
     id="path2483"
     sodipodi:nodetypes="csssscsscccsccccsccsss" />
  <path
     style="fill:none;fill-rule:evenodd;stroke:#000000;stroke-width:1;stroke-linecap:butt;stroke-linejoin:miter;stroke-miterlimit:4;stroke-dasharray:none;stroke-opacity:1"
     d="M 156.65384,631.81431 C 192.41072,663.74401 229.78514,672.51471 263.24532,678.64851 C 268.13636,679.54516 269.3282,677.75456 268.81901,672.85341 C 265.48912,640.80226 209.20149,603.65888 157.75571,623.61576 C 153.58599,625.23327 154.33712,629.74461 156.65384,631.81431 z"
     id="path2485"
     sodipodi:nodetypes="cssss" />
</svg>
