<?xml version="1.0" encoding="UTF-8" standalone="no"?>
<!-- Created with Inkscape (http://www.inkscape.org/) -->
<svg
   xmlns:dc="http://purl.org/dc/elements/1.1/"
   xmlns:cc="http://creativecommons.org/ns#"
   xmlns:rdf="http://www.w3.org/1999/02/22-rdf-syntax-ns#"
   xmlns:svg="http://www.w3.org/2000/svg"
   xmlns="http://www.w3.org/2000/svg"
   xmlns:sodipodi="http://sodipodi.sourceforge.net/DTD/sodipodi-0.dtd"
   xmlns:inkscape="http://www.inkscape.org/namespaces/inkscape"
   version="1.0"
   width="1000"
   height="1000"
   id="svg5496"
   sodipodi:version="0.32"
   inkscape:version="0.46"
   sodipodi:docname="kaf+meem+lam.fina.svg"
   inkscape:output_extension="org.inkscape.output.svg.inkscape">
  <metadata
     id="metadata5594">
    <rdf:RDF>
      <cc:Work
         rdf:about="">
        <dc:format>image/svg+xml</dc:format>
        <dc:type
           rdf:resource="http://purl.org/dc/dcmitype/StillImage" />
      </cc:Work>
    </rdf:RDF>
  </metadata>
  <sodipodi:namedview
     inkscape:pageshadow="2"
     inkscape:pageopacity="0.0"
     guidetolerance="10.0"
     gridtolerance="10.0"
     objecttolerance="10.0"
     borderopacity="1.0"
     bordercolor="#666666"
     pagecolor="#ffffff"
     id="base"
     showgrid="false"
     showguides="true"
     inkscape:guide-bbox="true"
     inkscape:zoom="0.454"
     inkscape:cx="567.83789"
     inkscape:cy="624.60031"
     inkscape:window-x="0"
     inkscape:window-y="25"
     inkscape:current-layer="svg5496">
    <sodipodi:guide
       orientation="horizontal"
       position="200"
       id="guide5596" />
  </sodipodi:namedview>
  <defs
     id="defs5498">
    <inkscape:perspective
       sodipodi:type="inkscape:persp3d"
       inkscape:vp_x="0 : 500 : 1"
       inkscape:vp_y="0 : 1000 : 0"
       inkscape:vp_z="1000 : 500 : 1"
       inkscape:persp3d-origin="500 : 333.33333 : 1"
       id="perspective8" />
    <inkscape:perspective
       id="perspective2517"
       inkscape:persp3d-origin="372.04724 : 350.78739 : 1"
       inkscape:vp_z="744.09448 : 526.18109 : 1"
       inkscape:vp_y="0 : 1000 : 0"
       inkscape:vp_x="0 : 526.18109 : 1"
       sodipodi:type="inkscape:persp3d" />
  </defs>
  <g
     id="layer1"
     transform="translate(20,356)" />
  <path
     style="fill:none;fill-rule:evenodd;stroke:#000000;stroke-width:1px;stroke-linecap:butt;stroke-linejoin:miter;stroke-opacity:1"
     d="M 1119.1189,43.22467 C 1121.6404,35.70751 1113.5023,28.53674 1103.7004,32.21145 C 744.56958,167.14112 504.67539,258.23967 437.58984,396.42633 L 425.79787,144.27903 C 425.40197,135.81342 418.69539,123.56545 410.56022,137.98557 C 398.01557,160.22175 388.06786,183.03633 379.03084,206.22026 C 376.25167,213.35004 376.93106,223.27075 377.92952,243.94053 L 412.07048,950.71366 C 369.36926,1001.9617 245.49804,1050.7285 152.42582,1026.8938 C -9.990445,985.30093 50.237703,817.26464 107.27974,724.6674 C 112.89147,715.55778 100.0783,704.65887 92.687224,717.50881 C -10.707444,897.26819 -70.889981,1079.8793 145.17275,1122.0083 C 184.45759,1129.6683 369.47623,1109.1977 412.58201,1032.0778 C 438.33914,985.99618 447.60265,835.79036 440.42141,737.10451 C 507.85894,854.6101 595.26477,904.20876 706.26712,930.63612 C 710.58592,931.66434 716.23428,930.82705 716.60751,922.3375 L 720.51548,833.44787 C 720.73774,828.3925 718.05252,823.46277 713.60121,822.48325 C 657.80593,810.20534 626.93322,784.56443 605.01716,761.93961 C 600.21588,756.98307 599.69412,753.53155 606.18842,748.62153 C 637.57718,724.89001 689.30143,732.01717 727.83703,715.1822 C 754.65552,703.46605 781.52111,648.50894 767.8527,580.40238 C 869.07758,629.0615 1027.9301,810.58509 1085.5449,801.31183 L 1084.7934,704.01762 C 1028.1654,721.62911 896.25609,572.79631 800.51189,514.56595 C 705.74284,456.92866 589.1538,406.75764 502.83727,385.21376 C 499.25833,384.32332 497.94671,381.70625 500.5834,379.26881 C 626.52954,262.84031 939.8394,171.29827 1074.0201,128.99414 C 1082.2167,126.40994 1091.4834,125.61334 1097.7377,106.9677 L 1119.1189,43.22467 z"
     id="path2523"
     sodipodi:nodetypes="cscsssscssssscssssssscccssssss" />
  <path
     style="fill:none;fill-rule:evenodd;stroke:#000000;stroke-width:1px;stroke-linecap:butt;stroke-linejoin:miter;stroke-opacity:1"
     d="M 442.70485,471.08811 C 450.29926,544.68105 453.70367,701.75825 581.67401,785.51542 C 569.8577,763.31671 562.97102,738.65525 592.76971,702.62868 C 636.17207,650.1553 720.61725,662.83102 751.78906,636.97062 C 706.33862,547.9512 562.97357,494.70463 442.70485,471.08811 z"
     id="path2525"
     sodipodi:nodetypes="ccscc" />
</svg>
