<?xml version="1.0" encoding="UTF-8" standalone="no"?>
<!-- Created with Inkscape (http://www.inkscape.org/) -->

<svg
   xmlns:dc="http://purl.org/dc/elements/1.1/"
   xmlns:cc="http://creativecommons.org/ns#"
   xmlns:rdf="http://www.w3.org/1999/02/22-rdf-syntax-ns#"
   xmlns:svg="http://www.w3.org/2000/svg"
   xmlns="http://www.w3.org/2000/svg"
   xmlns:sodipodi="http://sodipodi.sourceforge.net/DTD/sodipodi-0.dtd"
   xmlns:inkscape="http://www.inkscape.org/namespaces/inkscape"
   version="1.0"
   width="1000"
   height="1000"
   id="svg5496"
   sodipodi:version="0.32"
   inkscape:version="0.47pre0 r21549"
   sodipodi:docname="kaf+meem+alef.fina.svg"
   inkscape:output_extension="org.inkscape.output.svg.inkscape">
  <metadata
     id="metadata5594">
    <rdf:RDF>
      <cc:Work
         rdf:about="">
        <dc:format>image/svg+xml</dc:format>
        <dc:type
           rdf:resource="http://purl.org/dc/dcmitype/StillImage" />
      </cc:Work>
    </rdf:RDF>
  </metadata>
  <sodipodi:namedview
     inkscape:pageshadow="2"
     inkscape:pageopacity="0.0"
     guidetolerance="10.0"
     gridtolerance="10.0"
     objecttolerance="10.0"
     borderopacity="1.0"
     bordercolor="#666666"
     pagecolor="#ffffff"
     id="base"
     showgrid="false"
     showguides="true"
     inkscape:guide-bbox="true"
     inkscape:zoom="0.236"
     inkscape:cx="500"
     inkscape:cy="500"
     inkscape:window-x="0"
     inkscape:window-y="25"
     inkscape:current-layer="svg5496">
    <sodipodi:guide
       orientation="horizontal"
       position="200"
       id="guide5596" />
  </sodipodi:namedview>
  <defs
     id="defs5498">
    <inkscape:perspective
       sodipodi:type="inkscape:persp3d"
       inkscape:vp_x="0 : 500 : 1"
       inkscape:vp_y="0 : 1000 : 0"
       inkscape:vp_z="1000 : 500 : 1"
       inkscape:persp3d-origin="500 : 333.33333 : 1"
       id="perspective8" />
    <inkscape:perspective
       id="perspective2497"
       inkscape:persp3d-origin="372.04724 : 350.78739 : 1"
       inkscape:vp_z="744.09448 : 526.18109 : 1"
       inkscape:vp_y="0 : 1000 : 0"
       inkscape:vp_x="0 : 526.18109 : 1"
       sodipodi:type="inkscape:persp3d" />
  </defs>
  <g
     id="layer1"
     transform="matrix(0.5,0,0,0.5,136.83035,291.78593)"
     style="stroke:#000000;stroke-width:2;stroke-miterlimit:4;stroke-dasharray:none;stroke-opacity:1" />
  <path
     style="fill:#000000;fill-rule:evenodd;stroke:#000000;stroke-width:1px;stroke-linecap:butt;stroke-linejoin:miter;stroke-miterlimit:4;stroke-dasharray:none;stroke-opacity:1"
     d="M 739.78125 -29.125 C 738.48994 -29.176645 737.236 -29.004909 736.09375 -28.625 C 551.99624 32.605155 130.13336 179.74146 71.40625 305.84375 C 72.11529 237.33146 66.51134 139.19834 51.625 27.90625 C 49.62458 12.950865 41.78211 13.520505 36.0625 22.15625 L 2.875 72.21875 C -0.59039 77.450955 1.13304 84.7119 2.875 94.03125 C 17.30814 170.85831 30.50765 268.85149 30.25 357.09375 C 29.19493 718.43893 63.24082 932.9757 318.46875 964.09375 C 327.40715 965.1859 328.13559 961.60545 328.40625 947.53125 L 329.96875 866.53125 C 330.23327 852.776 325.07623 848.6172 318.46875 847.46875 C 260.01536 837.30865 192.13818 776.71725 184.625 755.25 C 182.62933 749.54782 183.34137 747.32306 186.65625 744.625 C 234.58384 705.54305 340.65371 763.64563 384.875 657.0625 C 401.73437 616.42766 396.92594 580.09631 391.8125 544.59375 C 440.80767 583.11145 481.64079 622.28255 532.3125 671.65625 C 589.9623 727.82929 655.6103 786.59949 710.4375 801.125 L 709.09375 707.03125 C 626.79325 684.07334 546.91165 582.97363 438.71875 488.21875 C 346.20109 407.19219 207.94728 335.46176 123.78125 309.34375 C 325.21842 192.88073 536.72153 125.12456 728.5 58 C 732.13215 56.72871 737.7725 56.622885 739.375 47.09375 L 750.28125 -17.71875 C 751.46047 -24.730999 745.37693 -28.901206 739.78125 -29.125 z M 77.65625 400.6875 C 210.49164 433.56614 348.46003 536.46149 370.09375 620.90625 C 373.02159 632.37201 372.69221 641.27113 365.90625 642.59375 C 267.67465 661.73961 177.7464 657.26481 164.65625 762.03125 C 164.32176 764.70826 160.46859 764.55563 158.8125 762.9375 C 119.65601 724.67857 74.50443 668.86329 77.65625 400.6875 z "
     id="path2503" />
</svg>
