<?xml version="1.0" encoding="UTF-8" standalone="no"?>
<!-- Created with Inkscape (http://www.inkscape.org/) -->

<svg
   xmlns:dc="http://purl.org/dc/elements/1.1/"
   xmlns:cc="http://creativecommons.org/ns#"
   xmlns:rdf="http://www.w3.org/1999/02/22-rdf-syntax-ns#"
   xmlns:svg="http://www.w3.org/2000/svg"
   xmlns="http://www.w3.org/2000/svg"
   xmlns:sodipodi="http://sodipodi.sourceforge.net/DTD/sodipodi-0.dtd"
   xmlns:inkscape="http://www.inkscape.org/namespaces/inkscape"
   version="1.0"
   width="1000"
   height="1000"
   id="svg5496"
   sodipodi:version="0.32"
   inkscape:version="0.47pre0 r21549"
   sodipodi:docname="kaf+heh.isol.svg"
   inkscape:output_extension="org.inkscape.output.svg.inkscape">
  <metadata
     id="metadata5594">
    <rdf:RDF>
      <cc:Work
         rdf:about="">
        <dc:format>image/svg+xml</dc:format>
        <dc:type
           rdf:resource="http://purl.org/dc/dcmitype/StillImage" />
      </cc:Work>
    </rdf:RDF>
  </metadata>
  <sodipodi:namedview
     inkscape:pageshadow="2"
     inkscape:pageopacity="0.0"
     guidetolerance="10.0"
     gridtolerance="10.0"
     objecttolerance="10.0"
     borderopacity="1.0"
     bordercolor="#666666"
     pagecolor="#ffffff"
     id="base"
     showgrid="false"
     showguides="true"
     inkscape:guide-bbox="true"
     inkscape:zoom="0.227"
     inkscape:cx="-587.0044"
     inkscape:cy="118.33883"
     inkscape:window-x="0"
     inkscape:window-y="25"
     inkscape:current-layer="svg5496">
    <sodipodi:guide
       orientation="horizontal"
       position="200"
       id="guide5596" />
  </sodipodi:namedview>
  <defs
     id="defs5498">
    <inkscape:perspective
       sodipodi:type="inkscape:persp3d"
       inkscape:vp_x="0 : 500 : 1"
       inkscape:vp_y="0 : 1000 : 0"
       inkscape:vp_z="1000 : 500 : 1"
       inkscape:persp3d-origin="500 : 333.33333 : 1"
       id="perspective8" />
    <inkscape:perspective
       id="perspective2457"
       inkscape:persp3d-origin="372.04724 : 350.78739 : 1"
       inkscape:vp_z="744.09448 : 526.18109 : 1"
       inkscape:vp_y="0 : 1000 : 0"
       inkscape:vp_x="0 : 526.18109 : 1"
       sodipodi:type="inkscape:persp3d" />
    <inkscape:perspective
       sodipodi:type="inkscape:persp3d"
       inkscape:vp_x="0 : 526.18109 : 1"
       inkscape:vp_y="0 : 1000 : 0"
       inkscape:vp_z="744.09448 : 526.18109 : 1"
       inkscape:persp3d-origin="372.04724 : 350.78739 : 1"
       id="perspective2524" />
    <inkscape:perspective
       id="perspective2389"
       inkscape:persp3d-origin="500 : 333.33333 : 1"
       inkscape:vp_z="1000 : 500 : 1"
       inkscape:vp_y="0 : 1000 : 0"
       inkscape:vp_x="0 : 500 : 1"
       sodipodi:type="inkscape:persp3d" />
  </defs>
  <g
     id="layer1"
     transform="matrix(0.5,0,0,0.5,129.04219,-59.993804)"
     style="stroke:#000000;stroke-width:2;stroke-miterlimit:4;stroke-dasharray:none;stroke-opacity:1" />
  <path
     style="fill:#000000;fill-rule:evenodd;stroke:#000000;stroke-width:1px;stroke-linecap:butt;stroke-linejoin:miter;stroke-miterlimit:4;stroke-dasharray:none;stroke-opacity:1"
     d="M 875.28125 -191.78125 C 874.21135 -191.73414 873.0611 -191.52117 871.875 -191.0625 C 666.19728 -111.52724 446.17407 -52.00577 261.1875 67.75 C 232.07137 86.59908 216.22657 117.91544 200.625 148.15625 C 188.32202 185.60119 186.16555 255.85243 191 261.03125 L 241.25 314.875 C 244.75345 318.62801 249.98819 318.91872 253.625 315.53125 L 263.9375 305.9375 C 268.81229 301.39694 271.37607 302.30745 273.875 304.8125 C 330.19815 361.27366 456.4622 511.88118 474.84375 633.84375 C 420.397 684.67555 340.99765 712.9382 295.34375 681.1875 C 264.59459 659.8026 249.32123 622.89075 242.34375 601.84375 C 213.62037 515.20173 192.96875 382.03125 192.96875 382.03125 C 189.18248 373.16341 189.44955 354.57599 176.0625 368.75 L 156.09375 415 C 153.4712 424.66441 154.76246 437.69636 155.4375 443.5 L 161.46875 483.34375 C 117.73796 504.13795 79.042 530.08245 44.65625 564.375 C 44.65625 564.375 33.355 576.295 27.125 593.25 C 23.70642 602.5537 6.66237 645.6427 1.1875 661.6875 C -5.39573 680.9805 9.71307 698.364 17.59375 705.1875 C 29.7184 715.6856 101.20668 719.9179 146.0625 711.25 C 156.13989 708.5403 163.26239 703.0694 171.65625 687.125 C 176.32333 678.4462 185.02945 662.65975 194.3125 620.09375 C 199.62476 647.01795 221.42009 757.9487 276.65625 792.4375 C 301.78315 808.1265 478.42115 817.2866 505.6875 673.5 C 548.74357 446.44793 316.66754 209.45914 253.5 151.46875 C 337.21931 70.297856 646.36853 -30.629874 855.3125 -106.625 C 861.6618 -108.93433 865.6701 -113.10743 869.375 -122.15625 C 876.2136 -138.85836 882.2076 -155.79808 885.4375 -173.53125 C 887.1668 -183.02598 882.77085 -192.11102 875.28125 -191.78125 z M 174.3125 534.5 C 176.08876 554.4645 201.15974 605.43868 170.8125 617.0625 C 147.39096 626.03358 86.000934 636.17313 57.875 613.9375 C 81.572474 568.09494 146.58228 540.95593 174.3125 534.5 z "
     id="path2463" />
</svg>
