<?xml version="1.0" encoding="UTF-8" standalone="no"?>
<!-- Created with Inkscape (http://www.inkscape.org/) -->

<svg
   xmlns:dc="http://purl.org/dc/elements/1.1/"
   xmlns:cc="http://creativecommons.org/ns#"
   xmlns:rdf="http://www.w3.org/1999/02/22-rdf-syntax-ns#"
   xmlns:svg="http://www.w3.org/2000/svg"
   xmlns="http://www.w3.org/2000/svg"
   xmlns:sodipodi="http://sodipodi.sourceforge.net/DTD/sodipodi-0.dtd"
   xmlns:inkscape="http://www.inkscape.org/namespaces/inkscape"
   version="1.0"
   width="1000"
   height="1000"
   id="svg5496"
   sodipodi:version="0.32"
   inkscape:version="0.47pre0 r21549"
   sodipodi:docname="kaf+alef.isol.svg"
   inkscape:output_extension="org.inkscape.output.svg.inkscape">
  <metadata
     id="metadata5594">
    <rdf:RDF>
      <cc:Work
         rdf:about="">
        <dc:format>image/svg+xml</dc:format>
        <dc:type
           rdf:resource="http://purl.org/dc/dcmitype/StillImage" />
      </cc:Work>
    </rdf:RDF>
  </metadata>
  <sodipodi:namedview
     inkscape:pageshadow="2"
     inkscape:pageopacity="0.0"
     guidetolerance="10.0"
     gridtolerance="10.0"
     objecttolerance="10.0"
     borderopacity="1.0"
     bordercolor="#666666"
     pagecolor="#ffffff"
     id="base"
     showgrid="false"
     showguides="true"
     inkscape:guide-bbox="true"
     inkscape:zoom="0.236"
     inkscape:cx="1381.3559"
     inkscape:cy="669.49153"
     inkscape:window-x="0"
     inkscape:window-y="25"
     inkscape:current-layer="svg5496">
    <sodipodi:guide
       orientation="horizontal"
       position="200"
       id="guide5596" />
  </sodipodi:namedview>
  <defs
     id="defs5498">
    <inkscape:perspective
       sodipodi:type="inkscape:persp3d"
       inkscape:vp_x="0 : 500 : 1"
       inkscape:vp_y="0 : 1000 : 0"
       inkscape:vp_z="1000 : 500 : 1"
       inkscape:persp3d-origin="500 : 333.33333 : 1"
       id="perspective8" />
    <inkscape:perspective
       id="perspective2457"
       inkscape:persp3d-origin="372.04724 : 350.78739 : 1"
       inkscape:vp_z="744.09448 : 526.18109 : 1"
       inkscape:vp_y="0 : 1000 : 0"
       inkscape:vp_x="0 : 526.18109 : 1"
       sodipodi:type="inkscape:persp3d" />
    <inkscape:perspective
       id="perspective2459"
       inkscape:persp3d-origin="372.04724 : 350.78739 : 1"
       inkscape:vp_z="744.09448 : 526.18109 : 1"
       inkscape:vp_y="0 : 1000 : 0"
       inkscape:vp_x="0 : 526.18109 : 1"
       sodipodi:type="inkscape:persp3d" />
  </defs>
  <g
     id="layer1"
     transform="matrix(0.5,0,0,0.5,49.760543,12.754394)"
     style="stroke:#000000;stroke-opacity:1;stroke-width:2;stroke-miterlimit:4;stroke-dasharray:none" />
  <path
     style="fill:#000000;fill-rule:evenodd;stroke:#000000;stroke-width:1px;stroke-linecap:butt;stroke-linejoin:miter;stroke-opacity:1;stroke-miterlimit:4;stroke-dasharray:none"
     d="M 789.84375 -61.25 C 788.03506 -61.18431 786.02217 -60.778875 783.875 -60 C 657.0841 -14.0076 106.4705 200.84345 88.3125 334.34375 C 78.6072 215.44365 64.5026 85.7872 46.4375 -22.375 C 45.4628 -28.2257 41.71885 -31.89555 36.53125 -23.59375 L 3.625 29.09375 C 0.7815 33.64425 0.24435 39.34445 2.40625 45.78125 C 22.28945 104.98075 39.93535 276.00255 44.28125 344.09375 C 55.40525 518.38355 73.680809 714.49651 116.875 761.71875 C 169.33902 819.07529 341.43577 831.20995 414.8125 671.15625 C 425.33585 648.20215 420.50723 536.62605 381.3125 490.28125 C 329.1817 428.64045 191.95875 365.60645 123.28125 342.59375 C 209.18435 263.26975 597.35435 97.21845 765.9375 26.09375 C 771.32825 23.81945 776.54305 19.5543 778.84375 12.75 L 799.625 -48.75 C 801.97491 -55.699962 797.6814 -61.534657 789.84375 -61.25 z M 96.53125 434.625 C 172.18525 451.7195 379.1412 555.26045 386.0625 623.15625 C 293.7479 707.48675 191.64511 708.3359 155.03125 668.75 C 111.64574 621.84279 112.94308 592.54297 96.53125 434.625 z "
     id="path2483" />
</svg>
