<?xml version="1.0" encoding="UTF-8" standalone="no"?>
<!-- Created with Inkscape (http://www.inkscape.org/) -->
<svg
   xmlns:dc="http://purl.org/dc/elements/1.1/"
   xmlns:cc="http://creativecommons.org/ns#"
   xmlns:rdf="http://www.w3.org/1999/02/22-rdf-syntax-ns#"
   xmlns:svg="http://www.w3.org/2000/svg"
   xmlns="http://www.w3.org/2000/svg"
   xmlns:sodipodi="http://sodipodi.sourceforge.net/DTD/sodipodi-0.dtd"
   xmlns:inkscape="http://www.inkscape.org/namespaces/inkscape"
   version="1.0"
   width="1000"
   height="1000"
   id="svg5496"
   sodipodi:version="0.32"
   inkscape:version="0.46"
   sodipodi:docname="kaf+meem.fina.svg"
   inkscape:output_extension="org.inkscape.output.svg.inkscape">
  <metadata
     id="metadata5594">
    <rdf:RDF>
      <cc:Work
         rdf:about="">
        <dc:format>image/svg+xml</dc:format>
        <dc:type
           rdf:resource="http://purl.org/dc/dcmitype/StillImage" />
      </cc:Work>
    </rdf:RDF>
  </metadata>
  <sodipodi:namedview
     inkscape:pageshadow="2"
     inkscape:pageopacity="0.0"
     guidetolerance="10.0"
     gridtolerance="10.0"
     objecttolerance="10.0"
     borderopacity="1.0"
     bordercolor="#666666"
     pagecolor="#ffffff"
     id="base"
     showgrid="false"
     showguides="true"
     inkscape:guide-bbox="true"
     inkscape:zoom="0.32102648"
     inkscape:cx="-307.56123"
     inkscape:cy="735.87079"
     inkscape:window-x="0"
     inkscape:window-y="25"
     inkscape:current-layer="svg5496">
    <sodipodi:guide
       orientation="horizontal"
       position="200"
       id="guide5596" />
  </sodipodi:namedview>
  <defs
     id="defs5498">
    <inkscape:perspective
       sodipodi:type="inkscape:persp3d"
       inkscape:vp_x="0 : 500 : 1"
       inkscape:vp_y="0 : 1000 : 0"
       inkscape:vp_z="1000 : 500 : 1"
       inkscape:persp3d-origin="500 : 333.33333 : 1"
       id="perspective8" />
    <inkscape:perspective
       id="perspective2477"
       inkscape:persp3d-origin="372.04724 : 350.78739 : 1"
       inkscape:vp_z="744.09448 : 526.18109 : 1"
       inkscape:vp_y="0 : 1000 : 0"
       inkscape:vp_x="0 : 526.18109 : 1"
       sodipodi:type="inkscape:persp3d" />
    <inkscape:perspective
       sodipodi:type="inkscape:persp3d"
       inkscape:vp_x="0 : 500 : 1"
       inkscape:vp_y="0 : 1000 : 0"
       inkscape:vp_z="1000 : 500 : 1"
       inkscape:persp3d-origin="500 : 333.33333 : 1"
       id="perspective2389" />
    <inkscape:perspective
       id="perspective2504"
       inkscape:persp3d-origin="372.04724 : 350.78739 : 1"
       inkscape:vp_z="744.09448 : 526.18109 : 1"
       inkscape:vp_y="0 : 1000 : 0"
       inkscape:vp_x="0 : 526.18109 : 1"
       sodipodi:type="inkscape:persp3d" />
    <inkscape:perspective
       id="perspective3401"
       inkscape:persp3d-origin="500 : 333.33333 : 1"
       inkscape:vp_z="1000 : 500 : 1"
       inkscape:vp_y="0 : 1000 : 0"
       inkscape:vp_x="0 : 500 : 1"
       sodipodi:type="inkscape:persp3d" />
  </defs>
  <g
     id="layer1"
     transform="translate(308.38578,328.43172)"
     style="stroke:#000000;stroke-opacity:1" />
  <path
     style="fill:#000000;fill-rule:evenodd;stroke:#000000;stroke-width:1px;stroke-linecap:butt;stroke-linejoin:miter;stroke-opacity:1"
     d="M 788.56199,-17.38326 C 794.43897,-30.09542 788.73688,-32.85471 779.75142,-32.80176 C 634.14406,-31.95021 209.5069,26.04847 63.892387,147.81498 C 50.727297,158.82396 8.1768467,226.00407 0.56638674,254.09251 C -3.0911033,267.59148 9.1141667,281.65003 17.636877,290.98679 C 80.352527,359.69268 236.79435,478.56506 273.14349,598.25551 C 231.38683,635.8811 144.23635,660.83417 120.34111,662.47273 C 111.45903,663.07485 107.84179,667.38059 105.88218,674.67872 L 88.834167,738.17012 C 86.961987,745.14263 89.201937,749.91379 95.063817,752.3492 C 104.66886,756.33977 113.57551,761.19935 120.61045,769.51102 C 43.351327,806.89707 1.9223167,884.14632 4.9900767,966.11628 C 8.2496967,1053.2129 52.593267,1313.5687 46.271237,1405.5242 C 44.351427,1433.4484 65.083987,1412.9691 71.944167,1393.8226 C 90.038077,1343.3231 67.964477,1150.0054 50.789677,1028.7313 C 43.496687,977.23429 38.973787,897.66237 44.068597,893.40969 C 126.53863,824.57127 236.82322,830.02142 316.92102,859.81939 C 324.7826,862.74405 328.06712,854.55683 329.53898,849.0896 L 350.93846,769.60108 C 353.47419,760.18209 350.62101,753.44829 345.12346,750.3048 C 307.93009,729.03771 269.87805,705.19462 234.59723,689.6652 C 251.23623,672.85743 287.34225,631.77715 293.57554,602.79018 C 300.5352,570.42538 287.42809,518.69587 273.14349,477.11014 C 379.84088,544.99329 560.64567,801.3672 649.79547,800 L 649.79547,694.07049 C 601.24609,709.37239 481.22481,577.52649 341.11222,453.09341 C 238.78486,362.21713 130.31081,277.26706 69.398987,233.1674 C 50.042977,219.15381 51.966417,210.37293 56.733797,204.53305 C 129.00564,162.56341 477.08045,56.36252 748.91441,50.89868 C 757.39427,50.72824 760.31878,43.70804 763.2316,37.40749 L 788.56199,-17.38326 z"
     id="path3379"
     sodipodi:nodetypes="csssscsssscssssssssscscccsscsss" />
</svg>
