<?xml version="1.0" encoding="UTF-8" standalone="no"?>
<!-- Created with Inkscape (http://www.inkscape.org/) -->
<svg
   xmlns:dc="http://purl.org/dc/elements/1.1/"
   xmlns:cc="http://creativecommons.org/ns#"
   xmlns:rdf="http://www.w3.org/1999/02/22-rdf-syntax-ns#"
   xmlns:svg="http://www.w3.org/2000/svg"
   xmlns="http://www.w3.org/2000/svg"
   xmlns:sodipodi="http://sodipodi.sourceforge.net/DTD/sodipodi-0.dtd"
   xmlns:inkscape="http://www.inkscape.org/namespaces/inkscape"
   version="1.0"
   width="1000"
   height="1000"
   id="svg5496"
   sodipodi:version="0.32"
   inkscape:version="0.46"
   sodipodi:docname="kaf+lam.init.svg"
   inkscape:output_extension="org.inkscape.output.svg.inkscape">
  <metadata
     id="metadata5594">
    <rdf:RDF>
      <cc:Work
         rdf:about="">
        <dc:format>image/svg+xml</dc:format>
        <dc:type
           rdf:resource="http://purl.org/dc/dcmitype/StillImage" />
      </cc:Work>
    </rdf:RDF>
  </metadata>
  <sodipodi:namedview
     inkscape:pageshadow="2"
     inkscape:pageopacity="0.0"
     guidetolerance="10.0"
     gridtolerance="10.0"
     objecttolerance="10.0"
     borderopacity="1.0"
     bordercolor="#666666"
     pagecolor="#ffffff"
     id="base"
     showgrid="false"
     showguides="true"
     inkscape:guide-bbox="true"
     inkscape:zoom="0.32102648"
     inkscape:cx="595.14939"
     inkscape:cy="428.93766"
     inkscape:window-x="0"
     inkscape:window-y="25"
     inkscape:current-layer="svg5496">
    <sodipodi:guide
       orientation="horizontal"
       position="200"
       id="guide5596" />
  </sodipodi:namedview>
  <defs
     id="defs5498">
    <inkscape:perspective
       sodipodi:type="inkscape:persp3d"
       inkscape:vp_x="0 : 500 : 1"
       inkscape:vp_y="0 : 1000 : 0"
       inkscape:vp_z="1000 : 500 : 1"
       inkscape:persp3d-origin="500 : 333.33333 : 1"
       id="perspective8" />
    <inkscape:perspective
       id="perspective2477"
       inkscape:persp3d-origin="372.04724 : 350.78739 : 1"
       inkscape:vp_z="744.09448 : 526.18109 : 1"
       inkscape:vp_y="0 : 1000 : 0"
       inkscape:vp_x="0 : 526.18109 : 1"
       sodipodi:type="inkscape:persp3d" />
  </defs>
  <g
     id="layer1"
     transform="translate(-117.25529,67.62115)" />
  <path
     style="fill:none;fill-rule:evenodd;stroke:#000000;stroke-width:1px;stroke-linecap:butt;stroke-linejoin:miter;stroke-opacity:1"
     d="M 753.89009,-32.048456 C 758.88054,-49.13115 744.63485,-51.81817 736.26894,-48.56828 C 608.71769,0.981241 228.83056,182.42732 149.53987,342.67621 L 123.38347,21.365643 C 122.55278,11.161226 110.34239,13.386971 108.51564,18.612338 L 84.83722,86.343616 C 81.03981,95.769209 82.93271,103.75255 83.46057,110.57269 C 97.41148,290.82431 124.41446,592.79501 119.78461,650.93221 C 117.00827,685.79476 64.60852,709.41852 1.6874397,706.38767 L 1.8900797,800 C 56.27374,799.50323 97.79172,752.12928 131.64339,678.30397 C 150.52063,750.62114 187.47686,836.60004 300.14559,812.11455 C 358.80299,799.36695 442.19788,760.22964 456.9503,620.16201 C 464.86495,544.80712 399.50147,421.08299 187.81079,350.6608 C 182.75906,348.98026 181.05663,344.04327 186.15881,340.19824 C 351.36989,215.69416 552.65719,119.8823 721.95176,45.594718 C 730.73439,41.74084 736.06062,28.983149 739.5729,16.960356 L 753.89009,-32.048456 z"
     id="path2483"
     sodipodi:nodetypes="cscsscsscccsssssss" />
  <path
     style="fill:none;fill-rule:evenodd;stroke:#000000;stroke-width:1px;stroke-linecap:butt;stroke-linejoin:miter;stroke-opacity:1"
     d="M 161.37907,440.96917 C 211.21291,441.88087 377.81418,501.04472 434.52471,627.22132 C 435.31727,629.73698 435.31152,631.86371 432.55265,634.64493 C 382.16158,685.22929 293.36637,730.25894 215.34383,693.72247 C 145.56907,661.04828 161.04349,494.28355 153.66982,446.47578 C 152.5578,439.26589 157.10475,440.89097 161.37907,440.96917 z"
     id="path2485"
     sodipodi:nodetypes="cccsss" />
</svg>
