<?xml version="1.0" encoding="UTF-8" standalone="no"?>
<!-- Created with Inkscape (http://www.inkscape.org/) -->

<svg
   xmlns:dc="http://purl.org/dc/elements/1.1/"
   xmlns:cc="http://creativecommons.org/ns#"
   xmlns:rdf="http://www.w3.org/1999/02/22-rdf-syntax-ns#"
   xmlns:svg="http://www.w3.org/2000/svg"
   xmlns="http://www.w3.org/2000/svg"
   xmlns:sodipodi="http://sodipodi.sourceforge.net/DTD/sodipodi-0.dtd"
   xmlns:inkscape="http://www.inkscape.org/namespaces/inkscape"
   version="1.0"
   width="1000"
   height="1000"
   id="svg5496"
   sodipodi:version="0.32"
   inkscape:version="0.47pre0 r21549"
   sodipodi:docname="New document 1"
   inkscape:output_extension="org.inkscape.output.svg.inkscape">
  <metadata
     id="metadata5594">
    <rdf:RDF>
      <cc:Work
         rdf:about="">
        <dc:format>image/svg+xml</dc:format>
        <dc:type
           rdf:resource="http://purl.org/dc/dcmitype/StillImage" />
        <dc:title></dc:title>
      </cc:Work>
    </rdf:RDF>
  </metadata>
  <sodipodi:namedview
     inkscape:window-height="618"
     inkscape:pageshadow="2"
     inkscape:pageopacity="0.0"
     borderopacity="1.0"
     bordercolor="#666666"
     pagecolor="#ffffff"
     id="base"
     showgrid="false"
     showguides="true"
     inkscape:guide-bbox="true"
     inkscape:zoom="0.64205296"
     inkscape:cx="442.84098"
     inkscape:cy="481.53428"
     inkscape:window-x="0"
     inkscape:window-y="25"
     inkscape:current-layer="svg5496">
    <sodipodi:guide
       orientation="horizontal"
       position="200"
       id="guide5596" />
  </sodipodi:namedview>
  <defs
     id="defs5498">
    <inkscape:perspective
       sodipodi:type="inkscape:persp3d"
       inkscape:vp_x="0 : 500 : 1"
       inkscape:vp_y="0 : 1000 : 0"
       inkscape:vp_z="1000 : 500 : 1"
       inkscape:persp3d-origin="500 : 333.33333 : 1"
       id="perspective8" />
    <inkscape:perspective
       id="perspective2822"
       inkscape:persp3d-origin="0.5 : 0.33333333 : 1"
       inkscape:vp_z="1 : 0.5 : 1"
       inkscape:vp_y="0 : 1000 : 0"
       inkscape:vp_x="0 : 0.5 : 1"
       sodipodi:type="inkscape:persp3d" />
  </defs>
  <g
     id="layer1"
     transform="translate(-271.00568,33.48018)" />
  <path
     style="color:#000000;fill:none;stroke:#000000;stroke-width:1px;stroke-linecap:butt;stroke-linejoin:miter;stroke-miterlimit:4;stroke-opacity:1;stroke-dasharray:none;stroke-dashoffset:0;marker:none;visibility:visible;display:inline;overflow:visible;enable-background:accumulate"
     d="M 515.44523,152.33529 C 333.17224,217.43673 86.273817,316.03924 -50.217463,402.10671 c -5.67411,3.57794 -2.56014,6.89218 2.03688,8.53609 65.49588,23.42151 204.783143,45.93416 298.468653,113.40752 50.00717,36.01574 87.24766,95.40955 92.14237,153.70299 1.33927,15.94997 -15.82115,72.43482 -27.86875,95.01063 -1.55789,2.91931 -4.30345,5.70957 -7.43656,6.61019 -72.59381,20.86733 -160.3724,-40.87399 -189.59229,-59.59476 -1.51074,-0.96791 -4.25442,-1.19517 -6.1046,1.20081 C 82.580697,758.3378 54.970807,803.81793 2.1220673,800 l -1.10132,-85.90308 c 48.1385597,-0.12091 89.4384897,-24.02181 121.9713727,-59.7467 2.97268,-3.26435 4.354,-4.37975 9.69139,-0.91465 57.81212,37.5323 88.40329,58.94011 165.58166,56.56242 3.95734,-0.12192 5.04118,-0.48072 4.53914,-3.96422 C 285.53294,586.19187 87.964197,550.94602 -73.647433,502.54358 c -6.69165,-2.00414 -9.97921,-6.89608 -10.53238,-13.36044 -2.34723,-27.42956 -2.8031,-58.66042 -1.80384,-90.06419 0.95622,-30.05115 28.61265,-59.10034 50.87267,-75.1571 C 129.94131,204.90511 330.15384,137.7377 525.8835,60.36808 c 10.6859,-4.22401 15.29973,5.860986 12.77114,15.874685 l -17.52351,69.396365 c -1.13149,4.48091 -1.72095,5.28002 -5.6859,6.69616 z"
     id="path2828"
     sodipodi:nodetypes="cssssssssccssssssssssss" />
</svg>
