<?xml version="1.0" encoding="UTF-8" standalone="no"?>
<!-- Created with Inkscape (http://www.inkscape.org/) -->
<svg
   xmlns:dc="http://purl.org/dc/elements/1.1/"
   xmlns:cc="http://creativecommons.org/ns#"
   xmlns:rdf="http://www.w3.org/1999/02/22-rdf-syntax-ns#"
   xmlns:svg="http://www.w3.org/2000/svg"
   xmlns="http://www.w3.org/2000/svg"
   xmlns:sodipodi="http://sodipodi.sourceforge.net/DTD/sodipodi-0.dtd"
   xmlns:inkscape="http://www.inkscape.org/namespaces/inkscape"
   version="1.0"
   width="1000"
   height="1000"
   id="svg5496"
   sodipodi:version="0.32"
   inkscape:version="0.46"
   sodipodi:docname="kaf+lam+alef.fina.svg"
   inkscape:output_extension="org.inkscape.output.svg.inkscape">
  <metadata
     id="metadata5594">
    <rdf:RDF>
      <cc:Work
         rdf:about="">
        <dc:format>image/svg+xml</dc:format>
        <dc:type
           rdf:resource="http://purl.org/dc/dcmitype/StillImage" />
      </cc:Work>
    </rdf:RDF>
  </metadata>
  <sodipodi:namedview
     inkscape:pageshadow="2"
     inkscape:pageopacity="0.0"
     guidetolerance="10.0"
     gridtolerance="10.0"
     objecttolerance="10.0"
     borderopacity="1.0"
     bordercolor="#666666"
     pagecolor="#ffffff"
     id="base"
     showgrid="false"
     showguides="true"
     inkscape:guide-bbox="true"
     inkscape:zoom="0.64205296"
     inkscape:cx="400.68826"
     inkscape:cy="557.20436"
     inkscape:window-x="0"
     inkscape:window-y="25"
     inkscape:current-layer="svg5496">
    <sodipodi:guide
       orientation="horizontal"
       position="200"
       id="guide5596" />
  </sodipodi:namedview>
  <defs
     id="defs5498">
    <inkscape:perspective
       sodipodi:type="inkscape:persp3d"
       inkscape:vp_x="0 : 500 : 1"
       inkscape:vp_y="0 : 1000 : 0"
       inkscape:vp_z="1000 : 500 : 1"
       inkscape:persp3d-origin="500 : 333.33333 : 1"
       id="perspective8" />
    <inkscape:perspective
       id="perspective2477"
       inkscape:persp3d-origin="372.04724 : 350.78739 : 1"
       inkscape:vp_z="744.09448 : 526.18109 : 1"
       inkscape:vp_y="0 : 1000 : 0"
       inkscape:vp_x="0 : 526.18109 : 1"
       sodipodi:type="inkscape:persp3d" />
    <inkscape:perspective
       sodipodi:type="inkscape:persp3d"
       inkscape:vp_x="0 : 500 : 1"
       inkscape:vp_y="0 : 1000 : 0"
       inkscape:vp_z="1000 : 500 : 1"
       inkscape:persp3d-origin="500 : 333.33333 : 1"
       id="perspective2670" />
    <inkscape:perspective
       id="perspective2457"
       inkscape:persp3d-origin="372.04724 : 350.78739 : 1"
       inkscape:vp_z="744.09448 : 526.18109 : 1"
       inkscape:vp_y="0 : 1000 : 0"
       inkscape:vp_x="0 : 526.18109 : 1"
       sodipodi:type="inkscape:persp3d" />
    <inkscape:perspective
       id="perspective2459"
       inkscape:persp3d-origin="372.04724 : 350.78739 : 1"
       inkscape:vp_z="744.09448 : 526.18109 : 1"
       inkscape:vp_y="0 : 1000 : 0"
       inkscape:vp_x="0 : 526.18109 : 1"
       sodipodi:type="inkscape:persp3d" />
    <inkscape:perspective
       sodipodi:type="inkscape:persp3d"
       inkscape:vp_x="0 : 500 : 1"
       inkscape:vp_y="0 : 1000 : 0"
       inkscape:vp_z="1000 : 500 : 1"
       inkscape:persp3d-origin="500 : 333.33333 : 1"
       id="perspective2611" />
    <inkscape:perspective
       id="perspective2711"
       inkscape:persp3d-origin="372.04724 : 350.78739 : 1"
       inkscape:vp_z="744.09448 : 526.18109 : 1"
       inkscape:vp_y="0 : 1000 : 0"
       inkscape:vp_x="0 : 526.18109 : 1"
       sodipodi:type="inkscape:persp3d" />
    <inkscape:perspective
       sodipodi:type="inkscape:persp3d"
       inkscape:vp_x="0 : 526.18109 : 1"
       inkscape:vp_y="0 : 1000 : 0"
       inkscape:vp_z="744.09448 : 526.18109 : 1"
       inkscape:persp3d-origin="372.04724 : 350.78739 : 1"
       id="perspective2709" />
    <inkscape:perspective
       id="perspective2707"
       inkscape:persp3d-origin="500 : 333.33333 : 1"
       inkscape:vp_z="1000 : 500 : 1"
       inkscape:vp_y="0 : 1000 : 0"
       inkscape:vp_x="0 : 500 : 1"
       sodipodi:type="inkscape:persp3d" />
  </defs>
  <g
     id="layer1"
     transform="translate(125.85766,97.48325)" />
  <path
     style="fill:none;fill-rule:evenodd;stroke:#000000;stroke-width:1px;stroke-linecap:butt;stroke-linejoin:miter;stroke-opacity:1"
     d="M 1112.9258,40.327461 C 1114.2856,32.277496 1105.8752,22.227874 1090.7313,29.035558 C 999.2505,70.159369 689.37342,201.41861 572.28463,310.39571 C 549.23201,331.8513 525.64841,360.91192 513.94336,377.46025 L 500.57097,111.57516 C 500.0907,102.026 489.21757,98.306537 483.07672,109.75854 L 453.20881,165.45887 C 447.4078,176.27711 446.61353,189.89004 445.50767,204.48284 C 434.33424,351.92573 427.88646,576.91163 396.37949,634.64882 C 362.17453,409.27064 204.24218,311.70295 33.964929,245.89841 C 23.359871,241.80003 10.262391,245.45358 8.950391,253.86678 C -1.767859,322.59714 -31.952209,393.43919 136.76019,446.44661 C 144.94616,449.01854 150.21573,452.01629 150.68325,435.0879 L 151.33178,411.60514 C 151.51203,405.07858 155.0856,404.98982 157.38565,405.77065 C 274.9179,445.6708 366.99286,604.87213 367.08182,685.84603 C 262.31976,795.66941 151.61595,826.04122 51.097473,870.08768 C 44.277823,873.076 35.873593,884.28157 55.864463,884.81805 C 139.08593,887.05142 230.51158,878.71973 306.0899,825.34074 C 411.43837,750.93588 451.98014,566.2441 470.97839,438.1948 C 506.56704,715.89241 485.62489,839.64577 660.99387,819.69689 C 773.76488,806.86877 816.441,735.09953 812.04324,644.97614 C 810.71763,617.81033 801.0623,598.38275 793.38171,578.73997 C 864.69955,623.51883 964.16226,705.53572 1042.2455,762.54823 C 1082.8832,792.21989 1101.4767,794.56413 1122.6602,800 L 1121.5452,703.43476 C 1121.5452,703.43476 1095.9071,715.01161 1054.9088,689.41722 C 976.32366,640.35819 897.78233,571.52001 815.37614,514.82027 C 723.86796,451.85788 668.5626,425.85377 569.83265,384.23283 C 597.88237,341.14454 959.96622,162.65234 1091.8995,110.41514 C 1097.0402,108.37975 1102.0562,104.67523 1103.1914,97.955107 L 1112.9258,40.327461 z"
     id="path2483"
     sodipodi:nodetypes="csscsssscsssssscssscsscsccsscsss" />
  <path
     style="fill:none;fill-rule:evenodd;stroke:#000000;stroke-width:1px;stroke-linecap:butt;stroke-linejoin:miter;stroke-opacity:1"
     d="M 524.57866,472.92418 C 520.08387,471.90347 516.57767,473.48055 517.5699,479.93294 C 529.14117,555.17987 537.59641,689.07764 577.07761,710.67162 C 609.60631,728.46298 732.87545,726.1655 780.00931,653.59463 C 763.92551,615.27121 676.94036,507.52354 524.57866,472.92418 z"
     id="path2722"
     sodipodi:nodetypes="csscs" />
</svg>
