<?xml version="1.0" encoding="UTF-8" standalone="no"?>
<!-- Created with Inkscape (http://www.inkscape.org/) -->

<svg
   xmlns:dc="http://purl.org/dc/elements/1.1/"
   xmlns:cc="http://creativecommons.org/ns#"
   xmlns:rdf="http://www.w3.org/1999/02/22-rdf-syntax-ns#"
   xmlns:svg="http://www.w3.org/2000/svg"
   xmlns="http://www.w3.org/2000/svg"
   xmlns:sodipodi="http://sodipodi.sourceforge.net/DTD/sodipodi-0.dtd"
   xmlns:inkscape="http://www.inkscape.org/namespaces/inkscape"
   version="1.0"
   width="1000"
   height="1000"
   id="svg5496"
   sodipodi:version="0.32"
   inkscape:version="0.47pre0 r21549"
   sodipodi:docname="kaf+lam+alef.fina.svg"
   inkscape:output_extension="org.inkscape.output.svg.inkscape">
  <metadata
     id="metadata5594">
    <rdf:RDF>
      <cc:Work
         rdf:about="">
        <dc:format>image/svg+xml</dc:format>
        <dc:type
           rdf:resource="http://purl.org/dc/dcmitype/StillImage" />
      </cc:Work>
    </rdf:RDF>
  </metadata>
  <sodipodi:namedview
     inkscape:pageshadow="2"
     inkscape:pageopacity="0.0"
     guidetolerance="10.0"
     gridtolerance="10.0"
     objecttolerance="10.0"
     borderopacity="1.0"
     bordercolor="#666666"
     pagecolor="#ffffff"
     id="base"
     showgrid="false"
     showguides="true"
     inkscape:guide-bbox="true"
     inkscape:zoom="0.236"
     inkscape:cx="500"
     inkscape:cy="500"
     inkscape:window-x="0"
     inkscape:window-y="25"
     inkscape:current-layer="svg5496">
    <sodipodi:guide
       orientation="horizontal"
       position="200"
       id="guide5596" />
  </sodipodi:namedview>
  <defs
     id="defs5498">
    <inkscape:perspective
       sodipodi:type="inkscape:persp3d"
       inkscape:vp_x="0 : 500 : 1"
       inkscape:vp_y="0 : 1000 : 0"
       inkscape:vp_z="1000 : 500 : 1"
       inkscape:persp3d-origin="500 : 333.33333 : 1"
       id="perspective8" />
    <inkscape:perspective
       id="perspective2477"
       inkscape:persp3d-origin="372.04724 : 350.78739 : 1"
       inkscape:vp_z="744.09448 : 526.18109 : 1"
       inkscape:vp_y="0 : 1000 : 0"
       inkscape:vp_x="0 : 526.18109 : 1"
       sodipodi:type="inkscape:persp3d" />
    <inkscape:perspective
       sodipodi:type="inkscape:persp3d"
       inkscape:vp_x="0 : 500 : 1"
       inkscape:vp_y="0 : 1000 : 0"
       inkscape:vp_z="1000 : 500 : 1"
       inkscape:persp3d-origin="500 : 333.33333 : 1"
       id="perspective2670" />
    <inkscape:perspective
       id="perspective2457"
       inkscape:persp3d-origin="372.04724 : 350.78739 : 1"
       inkscape:vp_z="744.09448 : 526.18109 : 1"
       inkscape:vp_y="0 : 1000 : 0"
       inkscape:vp_x="0 : 526.18109 : 1"
       sodipodi:type="inkscape:persp3d" />
    <inkscape:perspective
       id="perspective2459"
       inkscape:persp3d-origin="372.04724 : 350.78739 : 1"
       inkscape:vp_z="744.09448 : 526.18109 : 1"
       inkscape:vp_y="0 : 1000 : 0"
       inkscape:vp_x="0 : 526.18109 : 1"
       sodipodi:type="inkscape:persp3d" />
    <inkscape:perspective
       sodipodi:type="inkscape:persp3d"
       inkscape:vp_x="0 : 500 : 1"
       inkscape:vp_y="0 : 1000 : 0"
       inkscape:vp_z="1000 : 500 : 1"
       inkscape:persp3d-origin="500 : 333.33333 : 1"
       id="perspective2611" />
    <inkscape:perspective
       id="perspective2711"
       inkscape:persp3d-origin="372.04724 : 350.78739 : 1"
       inkscape:vp_z="744.09448 : 526.18109 : 1"
       inkscape:vp_y="0 : 1000 : 0"
       inkscape:vp_x="0 : 526.18109 : 1"
       sodipodi:type="inkscape:persp3d" />
    <inkscape:perspective
       sodipodi:type="inkscape:persp3d"
       inkscape:vp_x="0 : 526.18109 : 1"
       inkscape:vp_y="0 : 1000 : 0"
       inkscape:vp_z="744.09448 : 526.18109 : 1"
       inkscape:persp3d-origin="372.04724 : 350.78739 : 1"
       id="perspective2709" />
    <inkscape:perspective
       id="perspective2707"
       inkscape:persp3d-origin="500 : 333.33333 : 1"
       inkscape:vp_z="1000 : 500 : 1"
       inkscape:vp_y="0 : 1000 : 0"
       inkscape:vp_x="0 : 500 : 1"
       sodipodi:type="inkscape:persp3d" />
  </defs>
  <g
     id="layer1"
     transform="translate(125.85766,97.48325)" />
  <path
     style="fill:#000000;fill-rule:evenodd;stroke:#000000;stroke-width:1px;stroke-linecap:butt;stroke-linejoin:miter;stroke-opacity:1"
     d="M 1099.6562 26.78125 C 1097.0197 26.85452 1094.0315 27.542069 1090.7188 29.03125 C 999.23795 70.155061 689.37004 201.42915 572.28125 310.40625 C 549.22863 331.86184 525.64255 360.92042 513.9375 377.46875 L 500.5625 111.5625 C 500.08223 102.01334 489.20335 98.297997 483.0625 109.75 L 453.21875 165.46875 C 447.41774 176.28699 446.60586 189.87595 445.5 204.46875 C 434.32657 351.91164 427.88197 576.91906 396.375 634.65625 C 362.17004 409.27807 204.246 311.71079 33.96875 245.90625 C 23.363692 241.80787 10.2495 245.4618 8.9375 253.875 C -1.78075 322.60536 -31.962399 393.43008 136.75 446.4375 C 144.93597 449.00943 150.21998 452.02214 150.6875 435.09375 L 151.34375 411.59375 C 151.524 405.06719 155.07495 405.00042 157.375 405.78125 C 274.90725 445.6814 367.00479 604.86985 367.09375 685.84375 C 262.33169 795.66713 151.61223 826.04729 51.09375 870.09375 C 44.2741 873.08207 35.88413 884.27602 55.875 884.8125 C 139.09647 887.04587 230.51543 878.72274 306.09375 825.34375 C 411.44222 750.93889 451.9705 566.2368 470.96875 438.1875 C 506.5574 715.88511 485.63102 839.63638 661 819.6875 C 773.77101 806.85938 816.42901 735.09214 812.03125 644.96875 C 810.70564 617.80294 801.05559 598.39278 793.375 578.75 C 864.69284 623.52886 964.16676 705.54999 1042.25 762.5625 C 1082.8877 792.23416 1101.4727 794.56413 1122.6562 800 L 1121.5312 703.4375 C 1121.5312 703.4375 1095.9045 715.00064 1054.9062 689.40625 C 976.32111 640.34722 897.78119 571.51224 815.375 514.8125 C 723.86682 451.85011 668.5737 425.83969 569.84375 384.21875 C 597.89347 341.13046 959.97297 162.64345 1091.9062 110.40625 C 1097.0469 108.37086 1102.0523 104.68887 1103.1875 97.96875 L 1112.9375 40.3125 C 1113.9998 34.023465 1109.0724 26.519572 1099.6562 26.78125 z M 522.1875 472.625 C 522.93763 472.61871 523.75098 472.74612 524.59375 472.9375 C 676.95545 507.53686 763.9162 615.27033 780 653.59375 C 732.86614 726.16462 609.5912 728.44761 577.0625 710.65625 C 537.5813 689.06227 529.13377 555.18443 517.5625 479.9375 C 516.75631 474.69493 518.93695 472.65224 522.1875 472.625 z "
     id="path2483" />
</svg>
