<?xml version="1.0" encoding="UTF-8" standalone="no"?>
<!-- Created with Inkscape (http://www.inkscape.org/) -->
<svg
   xmlns:dc="http://purl.org/dc/elements/1.1/"
   xmlns:cc="http://creativecommons.org/ns#"
   xmlns:rdf="http://www.w3.org/1999/02/22-rdf-syntax-ns#"
   xmlns:svg="http://www.w3.org/2000/svg"
   xmlns="http://www.w3.org/2000/svg"
   xmlns:sodipodi="http://sodipodi.sourceforge.net/DTD/sodipodi-0.dtd"
   xmlns:inkscape="http://www.inkscape.org/namespaces/inkscape"
   version="1.0"
   width="1000"
   height="1000"
   id="svg5496"
   sodipodi:version="0.32"
   inkscape:version="0.46"
   sodipodi:docname="kaf+meem+alef.isol.svg"
   inkscape:output_extension="org.inkscape.output.svg.inkscape">
  <metadata
     id="metadata5594">
    <rdf:RDF>
      <cc:Work
         rdf:about="">
        <dc:format>image/svg+xml</dc:format>
        <dc:type
           rdf:resource="http://purl.org/dc/dcmitype/StillImage" />
      </cc:Work>
    </rdf:RDF>
  </metadata>
  <sodipodi:namedview
     inkscape:pageshadow="2"
     inkscape:pageopacity="0.0"
     guidetolerance="10.0"
     gridtolerance="10.0"
     objecttolerance="10.0"
     borderopacity="1.0"
     bordercolor="#666666"
     pagecolor="#ffffff"
     id="base"
     showgrid="false"
     showguides="true"
     inkscape:guide-bbox="true"
     inkscape:zoom="0.32102648"
     inkscape:cx="67.585161"
     inkscape:cy="641.84972"
     inkscape:window-x="0"
     inkscape:window-y="25"
     inkscape:current-layer="svg5496">
    <sodipodi:guide
       orientation="horizontal"
       position="200"
       id="guide5596" />
  </sodipodi:namedview>
  <defs
     id="defs5498">
    <inkscape:perspective
       sodipodi:type="inkscape:persp3d"
       inkscape:vp_x="0 : 500 : 1"
       inkscape:vp_y="0 : 1000 : 0"
       inkscape:vp_z="1000 : 500 : 1"
       inkscape:persp3d-origin="500 : 333.33333 : 1"
       id="perspective8" />
    <inkscape:perspective
       id="perspective2537"
       inkscape:persp3d-origin="372.04724 : 350.78739 : 1"
       inkscape:vp_z="744.09448 : 526.18109 : 1"
       inkscape:vp_y="0 : 1000 : 0"
       inkscape:vp_x="0 : 526.18109 : 1"
       sodipodi:type="inkscape:persp3d" />
  </defs>
  <g
     id="layer1"
     transform="translate(-37.380094,241.62995)" />
  <path
     style="fill:none;fill-rule:evenodd;stroke:#000000;stroke-width:1px;stroke-linecap:butt;stroke-linejoin:miter;stroke-opacity:1"
     d="M 731.34238,-2.86344 C 735.23882,-18.44918 724.26435,-23.8143 710.41727,-16.62996 C 501.00391,92.02091 158.03764,207.54783 81.562636,329.73568 C 72.342906,234.79642 65.011196,140.36852 51.826954,41.46475 C 49.39053,23.18751 39.991834,27.69674 35.857792,34.03083 L 4.3796999,82.26089 C -0.11970315,89.15477 2.7797029,95.37063 4.2754379,104.99354 C 57.744652,447.73864 30.639451,653.03052 86.921846,789.60635 C 123.64353,878.53521 240.97041,974.30827 337.61991,1003.7445 C 349.50902,1007.3655 349.75797,1002.0502 353.03841,991.62995 L 381.12211,902.4229 C 385.0704,889.88129 380.78421,888.02233 372.8622,885.35242 C 313.07649,865.2032 268.05459,839.29627 233.73248,802.20339 C 220.04014,787.4057 226.92978,775.00355 248.0753,768.09578 C 293.61294,753.21966 448.59542,764.79436 471.94201,687.09832 C 498.20038,599.71207 472.0762,474.74953 108.32112,371.12152 C 103.21491,369.66372 103.70702,365.98686 107.1344,362.87306 C 197.18534,281.06133 595.08378,125.55548 692.24546,89.09691 C 702.00157,85.43606 710.02979,82.38692 715.37322,61.01321 L 731.34238,-2.86344 z"
     id="path2543"
     sodipodi:nodetypes="cscsssssssssssssssss" />
  <path
     style="fill:none;fill-rule:evenodd;stroke:#000000;stroke-width:1px;stroke-linecap:butt;stroke-linejoin:miter;stroke-opacity:1"
     d="M 89.822556,467.40088 C 97.036246,543.03311 87.194076,716.92445 185.63753,800 C 189.68893,802.80142 196.87998,803.79485 196.43468,794.97163 C 195.05567,767.64756 206.5887,727.6671 237.39964,711.3436 C 298.68032,678.87737 371.42421,673.09491 437.3953,658.35828 C 446.70845,656.27791 446.94382,644.83726 439.91795,638.23589 C 336.1923,540.77732 202.42692,496.11874 89.822556,467.40088 z"
     id="path2545"
     sodipodi:nodetypes="ccssssc" />
</svg>
