<?xml version="1.0" encoding="UTF-8" standalone="no"?>
<!-- Created with Inkscape (http://www.inkscape.org/) -->
<svg
   xmlns:dc="http://purl.org/dc/elements/1.1/"
   xmlns:cc="http://creativecommons.org/ns#"
   xmlns:rdf="http://www.w3.org/1999/02/22-rdf-syntax-ns#"
   xmlns:svg="http://www.w3.org/2000/svg"
   xmlns="http://www.w3.org/2000/svg"
   xmlns:sodipodi="http://sodipodi.sourceforge.net/DTD/sodipodi-0.dtd"
   xmlns:inkscape="http://www.inkscape.org/namespaces/inkscape"
   version="1.0"
   width="1000"
   height="1000"
   id="svg5496"
   sodipodi:version="0.32"
   inkscape:version="0.46"
   sodipodi:docname="kaf+meem.init.svg"
   inkscape:output_extension="org.inkscape.output.svg.inkscape">
  <metadata
     id="metadata5594">
    <rdf:RDF>
      <cc:Work
         rdf:about="">
        <dc:format>image/svg+xml</dc:format>
        <dc:type
           rdf:resource="http://purl.org/dc/dcmitype/StillImage" />
      </cc:Work>
    </rdf:RDF>
  </metadata>
  <sodipodi:namedview
     inkscape:pageshadow="2"
     inkscape:pageopacity="0.0"
     guidetolerance="10.0"
     gridtolerance="10.0"
     objecttolerance="10.0"
     borderopacity="1.0"
     bordercolor="#666666"
     pagecolor="#ffffff"
     id="base"
     showgrid="false"
     showguides="true"
     inkscape:guide-bbox="true"
     inkscape:zoom="0.454"
     inkscape:cx="197.69228"
     inkscape:cy="418.87216"
     inkscape:window-x="0"
     inkscape:window-y="25"
     inkscape:current-layer="svg5496">
    <sodipodi:guide
       orientation="horizontal"
       position="200"
       id="guide5596" />
  </sodipodi:namedview>
  <defs
     id="defs5498">
    <inkscape:perspective
       sodipodi:type="inkscape:persp3d"
       inkscape:vp_x="0 : 500 : 1"
       inkscape:vp_y="0 : 1000 : 0"
       inkscape:vp_z="1000 : 500 : 1"
       inkscape:persp3d-origin="500 : 333.33333 : 1"
       id="perspective8" />
    <inkscape:perspective
       id="perspective2388"
       inkscape:persp3d-origin="372.04724 : 350.78739 : 1"
       inkscape:vp_z="744.09448 : 526.18109 : 1"
       inkscape:vp_y="0 : 1000 : 0"
       inkscape:vp_x="0 : 526.18109 : 1"
       sodipodi:type="inkscape:persp3d" />
  </defs>
  <g
     id="layer1"
     transform="translate(-121.79051,-110.44352)" />
  <path
     style="fill:none;fill-rule:evenodd;stroke:#000000;stroke-width:1px;stroke-linecap:butt;stroke-linejoin:miter;stroke-opacity:1"
     d="M 756.64169,0.22174 L 706.80157,53.176872 C 699.88365,60.527156 688.39593,62.068831 681.8815,62.5219 C 589.73201,68.892458 285.58081,99.049554 160.11769,173.49405 C 156.36317,176.55337 160.97655,179.1267 162.93581,181.21178 C 220.34017,242.30251 362.89046,355.30873 369.55338,466.40919 C 372.19004,510.37405 349.39078,591.38321 312.84755,609.66196 C 310.08079,611.04588 310.75274,613.94214 312.03985,616.13475 C 320.42088,630.41195 330.76622,655.79991 331.7918,684.20637 C 331.68448,717.7204 313.95218,755.70429 293.23704,767.79584 C 281.01531,774.92973 252.7578,763.31995 205.65691,739.5688 C 181.94846,727.61355 152.57144,712.75175 119.88065,695.31047 C 116.16849,693.32995 114.2107,692.84501 112.81042,697.08564 C 97.125782,744.5853 54.679072,785.22636 -1.8627176,800 L -1.3120576,704.02456 C 39.336482,694.71106 87.513792,680.25805 106.06124,660.50893 C 123.53979,641.89795 130.40837,577.97824 174.5246,555.47188 C 218.07718,533.25308 287.66244,558.72225 327.44472,544.83983 C 330.98943,543.60287 333.91361,539.95743 333.696,535.346 C 331.08987,480.11988 293.70973,418.86423 205.28444,344.75377 C 202.2258,341.81902 197.09251,340.74799 193.85546,343.27446 C 188.67676,347.3532 186.4327,349.83196 178.57777,354.94844 C 175.34951,357.05124 168.61974,359.09301 163.40544,354.6875 C 138.32809,333.05394 112.46734,314.34419 91.671612,292.30261 C 87.275562,287.64318 81.682232,282.17968 81.597352,274.04753 C 81.391222,254.30025 94.199982,179.18131 129.35699,147.40586 C 277.87307,13.174693 622.34353,-16.732812 747.68605,-21.972691 C 759.11955,-22.450663 764.12605,-7.730394 756.64169,0.22174 z"
     id="path2394"
     sodipodi:nodetypes="csscsssscssssccssssccscsssss" />
  <path
     style="fill:none;fill-rule:evenodd;stroke:#000000;stroke-width:1px;stroke-linecap:butt;stroke-linejoin:miter;stroke-opacity:1"
     d="M 167.68913,626.90647 C 196.96617,648.05107 249.93727,671.61577 273.06728,681.49358 C 278.01064,683.60467 280.94134,680.75713 279.41686,673.51867 C 268.8325,623.26262 218.17993,598.22297 170.59447,615.91387 C 163.05388,618.71724 160.81312,621.94045 167.68913,626.90647 z"
     id="path2396"
     sodipodi:nodetypes="cssss" />
</svg>
