<?xml version="1.0" encoding="UTF-8" standalone="no"?>
<!-- Created with Inkscape (http://www.inkscape.org/) -->
<svg
   xmlns:dc="http://purl.org/dc/elements/1.1/"
   xmlns:cc="http://creativecommons.org/ns#"
   xmlns:rdf="http://www.w3.org/1999/02/22-rdf-syntax-ns#"
   xmlns:svg="http://www.w3.org/2000/svg"
   xmlns="http://www.w3.org/2000/svg"
   xmlns:sodipodi="http://sodipodi.sourceforge.net/DTD/sodipodi-0.dtd"
   xmlns:inkscape="http://www.inkscape.org/namespaces/inkscape"
   version="1.0"
   width="1000"
   height="1000"
   id="svg5496"
   sodipodi:version="0.32"
   inkscape:version="0.46"
   sodipodi:docname="kaf+meem+alef.fina.svg"
   inkscape:output_extension="org.inkscape.output.svg.inkscape">
  <metadata
     id="metadata5594">
    <rdf:RDF>
      <cc:Work
         rdf:about="">
        <dc:format>image/svg+xml</dc:format>
        <dc:type
           rdf:resource="http://purl.org/dc/dcmitype/StillImage" />
      </cc:Work>
    </rdf:RDF>
  </metadata>
  <sodipodi:namedview
     inkscape:pageshadow="2"
     inkscape:pageopacity="0.0"
     guidetolerance="10.0"
     gridtolerance="10.0"
     objecttolerance="10.0"
     borderopacity="1.0"
     bordercolor="#666666"
     pagecolor="#ffffff"
     id="base"
     showgrid="false"
     showguides="true"
     inkscape:guide-bbox="true"
     inkscape:zoom="0.908"
     inkscape:cx="120.96475"
     inkscape:cy="659.48756"
     inkscape:window-x="0"
     inkscape:window-y="25"
     inkscape:current-layer="svg5496">
    <sodipodi:guide
       orientation="horizontal"
       position="200"
       id="guide5596" />
  </sodipodi:namedview>
  <defs
     id="defs5498">
    <inkscape:perspective
       sodipodi:type="inkscape:persp3d"
       inkscape:vp_x="0 : 500 : 1"
       inkscape:vp_y="0 : 1000 : 0"
       inkscape:vp_z="1000 : 500 : 1"
       inkscape:persp3d-origin="500 : 333.33333 : 1"
       id="perspective8" />
    <inkscape:perspective
       id="perspective2497"
       inkscape:persp3d-origin="372.04724 : 350.78739 : 1"
       inkscape:vp_z="744.09448 : 526.18109 : 1"
       inkscape:vp_y="0 : 1000 : 0"
       inkscape:vp_x="0 : 526.18109 : 1"
       sodipodi:type="inkscape:persp3d" />
  </defs>
  <g
     id="layer1"
     transform="matrix(0.5,0,0,0.5,136.83035,291.78593)"
     style="stroke:#000000;stroke-width:2;stroke-miterlimit:4;stroke-dasharray:none;stroke-opacity:1" />
  <path
     style="fill:none;fill-rule:evenodd;stroke:#000000;stroke-width:1;stroke-linecap:butt;stroke-linejoin:miter;stroke-miterlimit:4;stroke-dasharray:none;stroke-opacity:1"
     d="M 750.29225,-17.72674 C 751.7436,-26.3572 742.172,-30.65544 736.08,-28.62926 C 551.98249,32.600895 130.1423,179.74242 71.41519,305.84471 C 72.12423,237.33242 66.51016,139.21277 51.62382,27.920685 C 49.6234,12.9653 41.76839,13.5111 36.04878,22.146845 L 2.88502,72.21912 C -0.58037,77.451325 1.14306,84.704825 2.88502,94.024175 C 17.31816,170.85123 30.51009,268.86502 30.25244,357.10728 C 29.19737,718.45246 63.24632,932.96678 318.47425,964.08483 C 327.41265,965.17698 328.13268,961.61053 328.40334,947.53633 L 329.96084,866.54613 C 330.22536,852.79088 325.08173,848.61518 318.47425,847.46673 C 260.02086,837.30663 192.13972,776.7138 184.62654,755.24655 C 182.63087,749.54437 183.33593,747.32486 186.65081,744.6268 C 234.5784,705.54485 340.64156,763.64498 384.86285,657.06185 C 401.72222,616.42701 396.91825,580.10155 391.80481,544.59899 C 440.79998,583.11669 481.63925,622.28786 532.31096,671.66156 C 589.96076,727.8346 655.6071,786.60542 710.4343,801.13093 L 709.07945,707.03558 C 626.77895,684.07767 546.91151,582.97263 438.71861,488.21775 C 346.20095,407.19119 207.95229,335.4671 123.78626,309.34909 C 325.22343,192.88607 536.70868,125.13146 728.48715,58.006895 C 732.1193,56.735605 737.78715,56.6335 739.38965,47.104365 L 750.29225,-17.72674 z"
     id="path2503"
     sodipodi:nodetypes="cscsssssssssssscsccscsss" />
  <path
     style="fill:none;fill-rule:evenodd;stroke:#000000;stroke-width:1;stroke-linecap:butt;stroke-linejoin:miter;stroke-miterlimit:4;stroke-dasharray:none;stroke-opacity:1"
     d="M 77.65889,400.69117 C 74.50707,668.86696 119.65363,724.66835 158.81012,762.92728 C 160.46621,764.54541 164.31955,764.69524 164.65404,762.01823 C 177.74419,657.25179 267.68949,661.73804 365.92109,642.59218 C 372.70705,641.26956 373.01397,632.37434 370.08613,620.90858 C 348.45241,536.46382 210.49428,433.56981 77.65889,400.69117 z"
     id="path2505"
     sodipodi:nodetypes="cssssc" />
</svg>
