<?xml version="1.0" encoding="UTF-8" standalone="no"?>
<!-- Created with Inkscape (http://www.inkscape.org/) -->

<svg
   xmlns:dc="http://purl.org/dc/elements/1.1/"
   xmlns:cc="http://creativecommons.org/ns#"
   xmlns:rdf="http://www.w3.org/1999/02/22-rdf-syntax-ns#"
   xmlns:svg="http://www.w3.org/2000/svg"
   xmlns="http://www.w3.org/2000/svg"
   xmlns:sodipodi="http://sodipodi.sourceforge.net/DTD/sodipodi-0.dtd"
   xmlns:inkscape="http://www.inkscape.org/namespaces/inkscape"
   version="1.0"
   width="1000"
   height="1000"
   id="svg5496"
   sodipodi:version="0.32"
   inkscape:version="0.47pre0 r21549"
   sodipodi:docname="kaf+kaf.fina.svg"
   inkscape:output_extension="org.inkscape.output.svg.inkscape">
  <metadata
     id="metadata5594">
    <rdf:RDF>
      <cc:Work
         rdf:about="">
        <dc:format>image/svg+xml</dc:format>
        <dc:type
           rdf:resource="http://purl.org/dc/dcmitype/StillImage" />
      </cc:Work>
    </rdf:RDF>
  </metadata>
  <sodipodi:namedview
     inkscape:pageshadow="2"
     inkscape:pageopacity="0.0"
     guidetolerance="10.0"
     gridtolerance="10.0"
     objecttolerance="10.0"
     borderopacity="1.0"
     bordercolor="#666666"
     pagecolor="#ffffff"
     id="base"
     showgrid="false"
     showguides="true"
     inkscape:guide-bbox="true"
     inkscape:zoom="0.236"
     inkscape:cx="500"
     inkscape:cy="500"
     inkscape:window-x="0"
     inkscape:window-y="25"
     inkscape:current-layer="svg5496">
    <sodipodi:guide
       orientation="horizontal"
       position="200"
       id="guide5596" />
  </sodipodi:namedview>
  <defs
     id="defs5498">
    <inkscape:perspective
       sodipodi:type="inkscape:persp3d"
       inkscape:vp_x="0 : 500 : 1"
       inkscape:vp_y="0 : 1000 : 0"
       inkscape:vp_z="1000 : 500 : 1"
       inkscape:persp3d-origin="500 : 333.33333 : 1"
       id="perspective8" />
    <inkscape:perspective
       id="perspective2497"
       inkscape:persp3d-origin="372.04724 : 350.78739 : 1"
       inkscape:vp_z="744.09448 : 526.18109 : 1"
       inkscape:vp_y="0 : 1000 : 0"
       inkscape:vp_x="0 : 526.18109 : 1"
       sodipodi:type="inkscape:persp3d" />
    <inkscape:perspective
       sodipodi:type="inkscape:persp3d"
       inkscape:vp_x="0 : 500 : 1"
       inkscape:vp_y="0 : 1000 : 0"
       inkscape:vp_z="1000 : 500 : 1"
       inkscape:persp3d-origin="500 : 333.33333 : 1"
       id="perspective2677" />
    <inkscape:perspective
       id="perspective2711"
       inkscape:persp3d-origin="372.04724 : 350.78739 : 1"
       inkscape:vp_z="744.09448 : 526.18109 : 1"
       inkscape:vp_y="0 : 1000 : 0"
       inkscape:vp_x="0 : 526.18109 : 1"
       sodipodi:type="inkscape:persp3d" />
    <inkscape:perspective
       sodipodi:type="inkscape:persp3d"
       inkscape:vp_x="0 : 500 : 1"
       inkscape:vp_y="0 : 1000 : 0"
       inkscape:vp_z="1000 : 500 : 1"
       inkscape:persp3d-origin="500 : 333.33333 : 1"
       id="perspective3295" />
    <inkscape:perspective
       sodipodi:type="inkscape:persp3d"
       inkscape:vp_x="0 : 526.18109 : 1"
       inkscape:vp_y="0 : 1000 : 0"
       inkscape:vp_z="744.09448 : 526.18109 : 1"
       inkscape:persp3d-origin="372.04724 : 350.78739 : 1"
       id="perspective2477" />
    <inkscape:perspective
       id="perspective2626"
       inkscape:persp3d-origin="500 : 333.33333 : 1"
       inkscape:vp_z="1000 : 500 : 1"
       inkscape:vp_y="0 : 1000 : 0"
       inkscape:vp_x="0 : 500 : 1"
       sodipodi:type="inkscape:persp3d" />
  </defs>
  <g
     id="layer1"
     transform="translate(53.771186,-41)" />
  <path
     style="fill:#000000;fill-rule:evenodd;stroke:#000000;stroke-width:1px;stroke-linecap:butt;stroke-linejoin:miter;stroke-opacity:1"
     d="M 1070.5 106.84375 C 1070.0901 106.86348 1069.6719 106.88115 1069.25 106.9375 C 913.87907 160.61246 634.37768 306.58703 577.0625 408.59375 L 567.28125 157.09375 C 566.81137 145.03352 552.84464 145.8457 550.34375 154.71875 L 531 223.3125 C 528.07291 233.69767 528.30074 248.926 528.28125 259.40625 C 528.09157 361.39016 537.02612 468.80975 544.25 573.40625 C 503.49862 643.60229 350.76877 692.56494 224.3125 679.34375 C -12.481567 654.66489 27.305689 523.89543 61.71875 467.21875 C 65.905543 460.3233 54.831181 450.88644 49.28125 460.59375 C -19.427539 580.77143 -56.288381 770.85103 234.6875 771.9375 C 472.25541 772.82454 532.91528 649.52975 550.0625 620.53125 C 569.09886 697.37389 566.17631 820.22044 706.875 798.46875 C 815.07628 781.74109 852.4652 694.56159 833.3125 583.5625 C 894.06452 606.44424 1058.4253 801.55505 1130.0312 798.5 L 1130.875 713.25 C 1076.6359 703.9998 963.16909 597.46906 879.875 541.4375 C 796.9086 485.62637 713.02009 434.76985 616.90625 408.59375 C 742.53757 320.25449 923.81211 235.48664 1050.4688 188.8125 C 1056.4779 186.59806 1062.4811 182.34267 1064.375 175.09375 L 1078.8125 119.78125 C 1081.2588 110.41793 1076.6486 106.54787 1070.5 106.84375 z M 582.625 485.34375 C 698.18092 517.92324 778.71059 582.04039 822.09375 652.71875 C 793.22207 687.48064 697.86556 732.4663 640.375 703.5 C 599.15013 682.72907 590.97635 568.7839 582.625 485.34375 z "
     id="path2503" />
  <g
     id="g2634"
     style="stroke:#000000;stroke-opacity:1"
     transform="translate(272.94007,536.51242)" />
  <g
     id="g2608"
     transform="translate(90.53658,1847.7649)"
     style="stroke:#000000;stroke-opacity:1" />
  <g
     id="g3297"
     transform="matrix(0.5,0,0,0.5,285.75212,1966.8337)"
     style="stroke:#000000;stroke-width:2;stroke-miterlimit:4;stroke-dasharray:none;stroke-opacity:1" />
  <path
     style="fill:#000000;fill-rule:evenodd;stroke:#000000;stroke-width:0.77263331;stroke-linecap:butt;stroke-linejoin:miter;stroke-miterlimit:4;stroke-dasharray:none;stroke-opacity:1"
     d="M 333.97025,252.92659 C 295.62306,269.28626 246.51436,329.04342 231.98386,390.11182 C 227.44195,409.20042 239.54113,428.36506 265.67848,431.92929 L 305.39,437.34445 C 312.62873,438.62832 307.40167,443.39315 302.38155,446.06894 C 282.61197,456.60657 224.61379,477.70588 185.05205,492.09827 C 182.51268,493.02203 182.38159,497.314 186.25543,496.91177 C 221.86653,493.21402 266.44878,492.98502 290.07716,486.95051 C 311.73209,481.42001 339.95383,440.75083 348.71163,416.28531 C 351.0684,409.70163 362.74791,374.30043 323.74151,373.26447 C 295.76295,371.18663 260.98587,373.70055 265.97932,347.99357 C 268.77029,333.6253 285.10833,322.92804 308.09761,314.29887 C 310.72882,313.31129 313.79903,315.13671 317.12298,307.07861 L 336.97874,258.94349 C 338.3354,255.15642 338.75008,253.04373 333.97025,252.92659 z"
     id="path2515"
     sodipodi:nodetypes="csscssssscssscc" />
</svg>
