<?xml version="1.0" encoding="UTF-8" standalone="no"?>
<!-- Created with Inkscape (http://www.inkscape.org/) -->

<svg
   xmlns:dc="http://purl.org/dc/elements/1.1/"
   xmlns:cc="http://creativecommons.org/ns#"
   xmlns:rdf="http://www.w3.org/1999/02/22-rdf-syntax-ns#"
   xmlns:svg="http://www.w3.org/2000/svg"
   xmlns="http://www.w3.org/2000/svg"
   xmlns:sodipodi="http://sodipodi.sourceforge.net/DTD/sodipodi-0.dtd"
   xmlns:inkscape="http://www.inkscape.org/namespaces/inkscape"
   version="1.0"
   width="1000"
   height="1000"
   id="svg5496"
   sodipodi:version="0.32"
   inkscape:version="0.47pre0 r21549"
   sodipodi:docname="kaf+lam.init.svg"
   inkscape:output_extension="org.inkscape.output.svg.inkscape">
  <metadata
     id="metadata5594">
    <rdf:RDF>
      <cc:Work
         rdf:about="">
        <dc:format>image/svg+xml</dc:format>
        <dc:type
           rdf:resource="http://purl.org/dc/dcmitype/StillImage" />
      </cc:Work>
    </rdf:RDF>
  </metadata>
  <sodipodi:namedview
     inkscape:pageshadow="2"
     inkscape:pageopacity="0.0"
     guidetolerance="10.0"
     gridtolerance="10.0"
     objecttolerance="10.0"
     borderopacity="1.0"
     bordercolor="#666666"
     pagecolor="#ffffff"
     id="base"
     showgrid="false"
     showguides="true"
     inkscape:guide-bbox="true"
     inkscape:zoom="0.236"
     inkscape:cx="500"
     inkscape:cy="500"
     inkscape:window-x="0"
     inkscape:window-y="25"
     inkscape:current-layer="svg5496">
    <sodipodi:guide
       orientation="horizontal"
       position="200"
       id="guide5596" />
  </sodipodi:namedview>
  <defs
     id="defs5498">
    <inkscape:perspective
       sodipodi:type="inkscape:persp3d"
       inkscape:vp_x="0 : 500 : 1"
       inkscape:vp_y="0 : 1000 : 0"
       inkscape:vp_z="1000 : 500 : 1"
       inkscape:persp3d-origin="500 : 333.33333 : 1"
       id="perspective8" />
    <inkscape:perspective
       id="perspective2477"
       inkscape:persp3d-origin="372.04724 : 350.78739 : 1"
       inkscape:vp_z="744.09448 : 526.18109 : 1"
       inkscape:vp_y="0 : 1000 : 0"
       inkscape:vp_x="0 : 526.18109 : 1"
       sodipodi:type="inkscape:persp3d" />
  </defs>
  <g
     id="layer1"
     transform="translate(-117.25529,67.62115)" />
  <path
     style="fill:#000000;fill-rule:evenodd;stroke:#000000;stroke-width:1px;stroke-linecap:butt;stroke-linejoin:miter;stroke-opacity:1"
     d="M 743.25 -49.75 C 740.81599 -49.811809 738.37273 -49.374972 736.28125 -48.5625 C 608.73 0.987021 228.82194 182.43861 149.53125 342.6875 L 123.375 21.375 C 122.54431 11.170583 110.358 13.399633 108.53125 18.625 L 84.84375 86.34375 C 81.04634 95.769343 82.94089 103.74236 83.46875 110.5625 C 97.41966 290.81412 124.4111 592.8003 119.78125 650.9375 C 117.00491 685.80005 64.60858 709.40585 1.6875 706.375 L 1.875 800 C 56.25866 799.50323 97.80458 752.13781 131.65625 678.3125 C 150.53349 750.62967 187.48752 836.61049 300.15625 812.125 C 358.81365 799.3774 442.18508 760.22388 456.9375 620.15625 C 464.85215 544.80136 399.50318 421.07844 187.8125 350.65625 C 182.76077 348.97571 181.05407 344.03253 186.15625 340.1875 C 351.36733 215.68342 552.64293 119.88133 721.9375 45.59375 C 730.72013 41.739872 736.05022 28.991543 739.5625 16.96875 L 753.875 -32.0625 C 757.61784 -44.87452 750.55204 -49.564572 743.25 -49.75 z M 156.78125 440.78125 C 158.148 440.69815 159.77213 440.93942 161.375 440.96875 C 211.20884 441.88045 377.82072 501.04215 434.53125 627.21875 C 435.32381 629.73441 435.32137 631.87503 432.5625 634.65625 C 382.17143 685.24061 293.36629 730.25522 215.34375 693.71875 C 145.56899 661.04456 161.02992 494.27652 153.65625 446.46875 C 152.96124 441.96257 154.50334 440.91974 156.78125 440.78125 z "
     id="path2483" />
</svg>
