<?xml version="1.0" encoding="UTF-8" standalone="no"?>
<!-- Created with Inkscape (http://www.inkscape.org/) -->

<svg
   xmlns:dc="http://purl.org/dc/elements/1.1/"
   xmlns:cc="http://creativecommons.org/ns#"
   xmlns:rdf="http://www.w3.org/1999/02/22-rdf-syntax-ns#"
   xmlns:svg="http://www.w3.org/2000/svg"
   xmlns="http://www.w3.org/2000/svg"
   xmlns:sodipodi="http://sodipodi.sourceforge.net/DTD/sodipodi-0.dtd"
   xmlns:inkscape="http://www.inkscape.org/namespaces/inkscape"
   version="1.0"
   width="1000"
   height="1000"
   id="svg5496"
   sodipodi:version="0.32"
   inkscape:version="0.47pre0 r21549"
   sodipodi:docname="kaf+lam+meem.medi.svg"
   inkscape:output_extension="org.inkscape.output.svg.inkscape">
  <metadata
     id="metadata5594">
    <rdf:RDF>
      <cc:Work
         rdf:about="">
        <dc:format>image/svg+xml</dc:format>
        <dc:type
           rdf:resource="http://purl.org/dc/dcmitype/StillImage" />
      </cc:Work>
    </rdf:RDF>
  </metadata>
  <sodipodi:namedview
     inkscape:pageshadow="2"
     inkscape:pageopacity="0.0"
     guidetolerance="10.0"
     gridtolerance="10.0"
     objecttolerance="10.0"
     borderopacity="1.0"
     bordercolor="#666666"
     pagecolor="#ffffff"
     id="base"
     showgrid="false"
     showguides="true"
     inkscape:guide-bbox="true"
     inkscape:zoom="0.63"
     inkscape:cx="780.95238"
     inkscape:cy="428.17851"
     inkscape:window-x="0"
     inkscape:window-y="25"
     inkscape:current-layer="svg5496">
    <sodipodi:guide
       orientation="horizontal"
       position="200"
       id="guide5596" />
  </sodipodi:namedview>
  <defs
     id="defs5498">
    <inkscape:perspective
       sodipodi:type="inkscape:persp3d"
       inkscape:vp_x="0 : 500 : 1"
       inkscape:vp_y="0 : 1000 : 0"
       inkscape:vp_z="1000 : 500 : 1"
       inkscape:persp3d-origin="500 : 333.33333 : 1"
       id="perspective8" />
    <inkscape:perspective
       id="perspective2477"
       inkscape:persp3d-origin="372.04724 : 350.78739 : 1"
       inkscape:vp_z="744.09448 : 526.18109 : 1"
       inkscape:vp_y="0 : 1000 : 0"
       inkscape:vp_x="0 : 526.18109 : 1"
       sodipodi:type="inkscape:persp3d" />
  </defs>
  <g
     id="layer1"
     transform="translate(46.725118,-69.72844)" />
  <path
     style="fill:#000000;fill-rule:evenodd;stroke:#000000;stroke-width:1px;stroke-linecap:butt;stroke-linejoin:miter;stroke-opacity:1"
     d="M 1070.5312 -21.875 C 1069.4204 -21.830078 1068.2038 -21.681712 1066.875 -21.375 C 901.68021 52.891551 492.99045 223.88792 438.75 373.78125 C 434.39329 385.82102 430.33878 379.45529 429.78125 373.25 C 421.18753 277.60253 413.30087 181.92872 407.625 86.28125 C 406.99828 75.719994 395.75836 59.121791 386.8125 77.875 L 364.90625 123.75 C 358.44512 137.29448 360.24104 153.80744 359.78125 167.59375 C 358.02746 220.17932 389.61663 531.78359 382.40625 553.25 C 363.54614 609.39946 281.28493 617.65842 261.40625 617.84375 C 231.71567 618.12311 205.07492 600.16553 185.28125 591.46875 C 172.22118 585.73052 158.13676 592.90813 152.125 607.375 C 107.82126 713.98876 28.531277 702.77811 0.625 700.21875 L 0.75 800 C 43.476897 792.89644 58.6653 780.17956 121.96875 718.71875 C 131.95847 709.87654 143.62582 702.2586 151.4375 718.65625 C 174.15965 766.35282 225.78477 826.54821 289.625 826.75 C 294.629 826.76582 298.4464 824.7684 300.25 820.53125 C 313.1362 790.25805 307.09954 730.60759 291.71875 695.59375 C 368.24063 671.61865 394.67699 590.42144 411.1875 584.5 C 434.81427 705.704 420.60826 895.54299 611.3125 836.8125 C 734.01926 799.09995 736.17427 695.69395 722.09375 592.78125 C 816.6288 647.92491 978.10775 843.71301 1041.9688 840.71875 L 1043.0938 730.28125 C 995.95952 727.36121 964.72684 694.94483 923.5625 663.75 C 794.25898 565.76224 657.43613 420.23889 473.46875 388.25 C 602.25604 273.81829 901.18614 136.28836 1069.7188 70.4375 C 1080.4807 65.221013 1083.1255 53.659388 1083.0312 46.15625 L 1082.375 -5.25 C 1082.2982 -11.370695 1081.2697 -22.309245 1070.5312 -21.875 z M 443.875 485.59375 C 561.90498 500.64092 713.12292 608.43885 697.75 676.40625 C 662.80332 709.17813 578.04728 757.89202 509.3125 720.9375 C 474.40727 702.17108 453.3381 593.38518 443.875 485.59375 z "
     id="path2483" />
</svg>
