<?xml version="1.0" encoding="UTF-8" standalone="no"?>
<!-- Created with Inkscape (http://www.inkscape.org/) -->
<svg
   xmlns:dc="http://purl.org/dc/elements/1.1/"
   xmlns:cc="http://creativecommons.org/ns#"
   xmlns:rdf="http://www.w3.org/1999/02/22-rdf-syntax-ns#"
   xmlns:svg="http://www.w3.org/2000/svg"
   xmlns="http://www.w3.org/2000/svg"
   xmlns:sodipodi="http://sodipodi.sourceforge.net/DTD/sodipodi-0.dtd"
   xmlns:inkscape="http://www.inkscape.org/namespaces/inkscape"
   version="1.0"
   width="1000"
   height="1000"
   id="svg5496"
   sodipodi:version="0.32"
   inkscape:version="0.46"
   sodipodi:docname="kaf+raa.isol.svg"
   inkscape:output_extension="org.inkscape.output.svg.inkscape">
  <metadata
     id="metadata5594">
    <rdf:RDF>
      <cc:Work
         rdf:about="">
        <dc:format>image/svg+xml</dc:format>
        <dc:type
           rdf:resource="http://purl.org/dc/dcmitype/StillImage" />
      </cc:Work>
    </rdf:RDF>
  </metadata>
  <sodipodi:namedview
     inkscape:pageshadow="2"
     inkscape:pageopacity="0.0"
     guidetolerance="10.0"
     gridtolerance="10.0"
     objecttolerance="10.0"
     borderopacity="1.0"
     bordercolor="#666666"
     pagecolor="#ffffff"
     id="base"
     showgrid="false"
     showguides="true"
     inkscape:guide-bbox="true"
     inkscape:zoom="0.227"
     inkscape:cx="-96.850186"
     inkscape:cy="82.41477"
     inkscape:window-x="0"
     inkscape:window-y="25"
     inkscape:current-layer="svg5496">
    <sodipodi:guide
       orientation="horizontal"
       position="200"
       id="guide5596" />
  </sodipodi:namedview>
  <defs
     id="defs5498">
    <inkscape:perspective
       sodipodi:type="inkscape:persp3d"
       inkscape:vp_x="0 : 500 : 1"
       inkscape:vp_y="0 : 1000 : 0"
       inkscape:vp_z="1000 : 500 : 1"
       inkscape:persp3d-origin="500 : 333.33333 : 1"
       id="perspective8" />
    <inkscape:perspective
       id="perspective2457"
       inkscape:persp3d-origin="372.04724 : 350.78739 : 1"
       inkscape:vp_z="744.09448 : 526.18109 : 1"
       inkscape:vp_y="0 : 1000 : 0"
       inkscape:vp_x="0 : 526.18109 : 1"
       sodipodi:type="inkscape:persp3d" />
  </defs>
  <g
     id="layer1"
     transform="matrix(0.5,0,0,0.5,206.91257,262.82013)"
     style="stroke:#000000;stroke-opacity:1;stroke-width:2;stroke-miterlimit:4;stroke-dasharray:none" />
  <path
     style="fill:#000000;fill-rule:evenodd;stroke:#000000;stroke-width:1px;stroke-linecap:butt;stroke-linejoin:miter;stroke-miterlimit:4;stroke-dasharray:none;stroke-opacity:1"
     d="M 948.10198,-11.217871 C 949.36948,-16.439446 947.44943,-24.407856 939.29143,-22.332411 C 732.01266,30.400579 467.56614,97.407339 379.61742,142.86583 C 296.17372,185.99578 268.30473,262.67061 253.47389,320.28848 C 252.19589,325.25351 252.2959,338.65731 255.46974,343.26923 C 274.1592,370.42696 292.84866,390.62269 311.53813,413.06627 C 318.57532,421.51701 328.20187,419.17255 332.46323,416.0949 L 342.37513,408.93631 C 348.69,404.37557 357.05212,406.9133 359.99627,411.13895 C 436.91114,521.53264 523.75134,609.85895 498.18669,664.87981 C 444.70258,690.14658 374.06368,697.58406 354.67862,665.26919 C 352.22389,661.17716 350.20732,659.99715 347.10299,666.04794 L 328.69903,738.67618 C 327.53057,743.28732 324.77187,752.33188 328.31371,755.03473 C 350.307,771.81825 382.62017,815.3873 368.87366,861.55185 C 341.76579,919.74755 229.84141,1000.3034 165.06235,1013.1125 C 125.59521,1020.9165 69.799437,1013.3482 18.055488,1006.7397 C 1.3861278,1004.6108 -2.2066072,1023.2791 9.0029928,1027.4562 C 69.562882,1050.0235 161.42466,1099.3632 216.82447,1088.1037 C 331.39298,1064.7068 396.45957,918.5528 414.49213,800 C 497.2104,790.5234 518.68828,719.49602 531.27945,683.58244 C 586.48468,526.1215 437.63659,350.09284 341.27381,245.39006 C 550.07437,144.90838 720.40736,118.78319 917.26498,67.975959 C 923.25098,66.431024 929.53458,65.271379 931.44858,57.386639 L 948.10198,-11.217871 z"
     id="path2492"
     sodipodi:nodetypes="csssssssscscsscsssscscsss" />
</svg>
