<?xml version="1.0" encoding="UTF-8" standalone="no"?>
<!-- Created with Inkscape (http://www.inkscape.org/) -->

<svg
   xmlns:dc="http://purl.org/dc/elements/1.1/"
   xmlns:cc="http://creativecommons.org/ns#"
   xmlns:rdf="http://www.w3.org/1999/02/22-rdf-syntax-ns#"
   xmlns:svg="http://www.w3.org/2000/svg"
   xmlns="http://www.w3.org/2000/svg"
   xmlns:sodipodi="http://sodipodi.sourceforge.net/DTD/sodipodi-0.dtd"
   xmlns:inkscape="http://www.inkscape.org/namespaces/inkscape"
   version="1.0"
   width="1000"
   height="1000"
   id="svg5496"
   sodipodi:version="0.32"
   inkscape:version="0.47pre0 r21549"
   sodipodi:docname="kaf+meem.init.svg"
   inkscape:output_extension="org.inkscape.output.svg.inkscape">
  <metadata
     id="metadata5594">
    <rdf:RDF>
      <cc:Work
         rdf:about="">
        <dc:format>image/svg+xml</dc:format>
        <dc:type
           rdf:resource="http://purl.org/dc/dcmitype/StillImage" />
      </cc:Work>
    </rdf:RDF>
  </metadata>
  <sodipodi:namedview
     inkscape:pageshadow="2"
     inkscape:pageopacity="0.0"
     guidetolerance="10.0"
     gridtolerance="10.0"
     objecttolerance="10.0"
     borderopacity="1.0"
     bordercolor="#666666"
     pagecolor="#ffffff"
     id="base"
     showgrid="false"
     showguides="true"
     inkscape:guide-bbox="true"
     inkscape:zoom="0.236"
     inkscape:cx="368.64407"
     inkscape:cy="500"
     inkscape:window-x="0"
     inkscape:window-y="25"
     inkscape:current-layer="svg5496">
    <sodipodi:guide
       orientation="horizontal"
       position="200"
       id="guide5596" />
  </sodipodi:namedview>
  <defs
     id="defs5498">
    <inkscape:perspective
       sodipodi:type="inkscape:persp3d"
       inkscape:vp_x="0 : 500 : 1"
       inkscape:vp_y="0 : 1000 : 0"
       inkscape:vp_z="1000 : 500 : 1"
       inkscape:persp3d-origin="500 : 333.33333 : 1"
       id="perspective8" />
    <inkscape:perspective
       id="perspective2388"
       inkscape:persp3d-origin="372.04724 : 350.78739 : 1"
       inkscape:vp_z="744.09448 : 526.18109 : 1"
       inkscape:vp_y="0 : 1000 : 0"
       inkscape:vp_x="0 : 526.18109 : 1"
       sodipodi:type="inkscape:persp3d" />
  </defs>
  <g
     id="layer1"
     transform="translate(-121.79051,-110.44352)" />
  <path
     style="fill:#000000;fill-rule:evenodd;stroke:#000000;stroke-width:1px;stroke-linecap:butt;stroke-linejoin:miter;stroke-opacity:1"
     d="M 747.6875 -21.96875 C 622.34498 -16.728871 277.85983 13.175083 129.34375 147.40625 C 94.186742 179.1817 81.38762 254.31522 81.59375 274.0625 C 81.67863 282.19465 87.2602 287.65307 91.65625 292.3125 C 112.45198 314.35408 138.3289 333.05394 163.40625 354.6875 C 168.62055 359.09301 175.33424 357.0403 178.5625 354.9375 C 186.41743 349.82102 188.66505 347.35999 193.84375 343.28125 C 197.0808 340.75478 202.22261 341.81525 205.28125 344.75 C 293.70654 418.86046 331.08137 480.11763 333.6875 535.34375 C 333.90511 539.95518 330.98221 543.60679 327.4375 544.84375 C 287.65522 558.72617 218.08383 533.24995 174.53125 555.46875 C 130.41502 577.97511 123.54105 641.88902 106.0625 660.5 C 87.515052 680.24912 39.33604 694.71775 -1.3125 704.03125 L -1.875 800 C 54.66679 785.22636 97.127862 744.59341 112.8125 697.09375 C 114.21278 692.85312 116.16284 693.33198 119.875 695.3125 C 152.56579 712.75378 181.9478 727.60725 205.65625 739.5625 C 252.75714 763.31365 281.02827 774.91514 293.25 767.78125 C 313.96514 755.6897 331.67393 717.73278 331.78125 684.21875 C 330.75567 655.81229 320.41228 630.4022 312.03125 616.125 C 310.74414 613.93239 310.07699 611.04017 312.84375 609.65625 C 349.38698 591.3775 372.19916 510.37111 369.5625 466.40625 C 362.89958 355.30579 220.34186 242.30948 162.9375 181.21875 C 160.97824 179.13367 156.37048 176.55932 160.125 173.5 C 285.58812 99.055504 589.72551 68.901808 681.875 62.53125 C 688.38943 62.078181 699.89458 60.537784 706.8125 53.1875 L 756.65625 0.21875 C 764.14061 -7.733384 759.121 -22.446722 747.6875 -21.96875 z M 201.8125 610.25 C 238.4244 610.3794 271.13722 634.26871 279.40625 673.53125 C 280.93073 680.76971 278.00586 683.61109 273.0625 681.5 C 249.93249 671.62219 196.96454 648.05085 167.6875 626.90625 C 160.81149 621.94023 163.05316 618.70962 170.59375 615.90625 C 181.00307 612.03637 191.56117 610.21377 201.8125 610.25 z "
     id="path2394" />
</svg>
