<?xml version="1.0" encoding="UTF-8" standalone="no"?>
<!-- Created with Inkscape (http://www.inkscape.org/) -->
<svg
   xmlns:dc="http://purl.org/dc/elements/1.1/"
   xmlns:cc="http://creativecommons.org/ns#"
   xmlns:rdf="http://www.w3.org/1999/02/22-rdf-syntax-ns#"
   xmlns:svg="http://www.w3.org/2000/svg"
   xmlns="http://www.w3.org/2000/svg"
   xmlns:sodipodi="http://sodipodi.sourceforge.net/DTD/sodipodi-0.dtd"
   xmlns:inkscape="http://www.inkscape.org/namespaces/inkscape"
   version="1.0"
   width="1000"
   height="1000"
   id="svg5496"
   sodipodi:version="0.32"
   inkscape:version="0.46"
   sodipodi:docname="kaf+lam+meem.medi.svg"
   inkscape:output_extension="org.inkscape.output.svg.inkscape">
  <metadata
     id="metadata5594">
    <rdf:RDF>
      <cc:Work
         rdf:about="">
        <dc:format>image/svg+xml</dc:format>
        <dc:type
           rdf:resource="http://purl.org/dc/dcmitype/StillImage" />
      </cc:Work>
    </rdf:RDF>
  </metadata>
  <sodipodi:namedview
     inkscape:pageshadow="2"
     inkscape:pageopacity="0.0"
     guidetolerance="10.0"
     gridtolerance="10.0"
     objecttolerance="10.0"
     borderopacity="1.0"
     bordercolor="#666666"
     pagecolor="#ffffff"
     id="base"
     showgrid="false"
     showguides="true"
     inkscape:guide-bbox="true"
     inkscape:zoom="0.64205296"
     inkscape:cx="587.43457"
     inkscape:cy="457.24393"
     inkscape:window-x="0"
     inkscape:window-y="25"
     inkscape:current-layer="svg5496">
    <sodipodi:guide
       orientation="horizontal"
       position="200"
       id="guide5596" />
  </sodipodi:namedview>
  <defs
     id="defs5498">
    <inkscape:perspective
       sodipodi:type="inkscape:persp3d"
       inkscape:vp_x="0 : 500 : 1"
       inkscape:vp_y="0 : 1000 : 0"
       inkscape:vp_z="1000 : 500 : 1"
       inkscape:persp3d-origin="500 : 333.33333 : 1"
       id="perspective8" />
    <inkscape:perspective
       id="perspective2477"
       inkscape:persp3d-origin="372.04724 : 350.78739 : 1"
       inkscape:vp_z="744.09448 : 526.18109 : 1"
       inkscape:vp_y="0 : 1000 : 0"
       inkscape:vp_x="0 : 526.18109 : 1"
       sodipodi:type="inkscape:persp3d" />
  </defs>
  <g
     id="layer1"
     transform="translate(46.725118,-69.72844)" />
  <path
     style="fill:none;fill-rule:evenodd;stroke:#000000;stroke-width:1px;stroke-linecap:butt;stroke-linejoin:miter;stroke-opacity:1"
     d="M 1082.3707,-5.23764 C 1082.2859,-11.99151 1081.0643,-24.63493 1066.8902,-21.36334 C 901.69541,52.903211 493.00037,223.89315 438.75992,373.78648 C 434.40321,385.82625 430.33414,379.44111 429.77661,373.23582 C 421.18289,277.58835 413.28572,181.94087 407.60985,86.293395 C 406.98313,75.732139 395.75749,59.107519 386.81163,77.860728 L 364.92021,123.75175 C 358.45908,137.29623 360.2351,153.79693 359.77531,167.58324 C 358.02152,220.16881 389.61673,531.79472 382.40635,553.26113 C 363.54624,609.41059 281.28833,617.66498 261.40965,617.85031 C 231.71907,618.12967 205.06653,600.15765 185.27286,591.46087 C 172.21279,585.72264 158.12752,592.90606 152.11576,607.37293 C 107.81202,713.98669 28.543311,702.77652 0.6370341,700.21716 L 0.7396181,800 C 43.466515,792.89644 58.65574,780.17361 121.95919,718.7128 C 131.94891,709.87059 143.62283,702.24846 151.43451,718.64611 C 174.15666,766.34268 225.79688,826.54173 289.63711,826.74352 C 294.64111,826.75934 298.45797,824.77147 300.26157,820.53432 C 313.14777,790.26112 307.09021,730.60573 291.70942,695.59189 C 368.2313,671.61679 394.67053,590.42713 411.18104,584.50569 C 434.80781,705.70969 420.61605,895.55181 611.32029,836.82132 C 734.02705,799.10877 736.16444,695.70933 722.08392,592.79663 C 816.61897,647.94029 978.1091,843.70935 1041.9701,840.71509 L 1043.0851,730.27156 C 995.95087,727.35152 964.74039,694.93678 923.57605,663.74195 C 794.27253,565.75419 657.44858,420.24908 473.4812,388.26019 C 602.26849,273.82848 901.19729,136.29388 1069.7299,70.443024 C 1080.4919,65.226537 1083.11,53.655026 1083.0158,46.151888 L 1082.3707,-5.23764 z"
     id="path2483"
     sodipodi:nodetypes="ccsssssssssscccsssccscccsccss" />
  <path
     style="fill:none;fill-rule:evenodd;stroke:#000000;stroke-width:1px;stroke-linecap:butt;stroke-linejoin:miter;stroke-opacity:1"
     d="M 443.88862,485.60419 C 453.35172,593.39562 474.39856,702.16012 509.30379,720.92654 C 578.03857,757.88106 662.81508,709.1703 697.76176,676.39842 C 713.13468,608.43102 561.9186,500.65136 443.88862,485.60419 z"
     id="path2485"
     sodipodi:nodetypes="cscc" />
</svg>
