<?xml version="1.0" encoding="UTF-8" standalone="no"?>
<!-- Created with Inkscape (http://www.inkscape.org/) -->
<svg
   xmlns:dc="http://purl.org/dc/elements/1.1/"
   xmlns:cc="http://creativecommons.org/ns#"
   xmlns:rdf="http://www.w3.org/1999/02/22-rdf-syntax-ns#"
   xmlns:svg="http://www.w3.org/2000/svg"
   xmlns="http://www.w3.org/2000/svg"
   xmlns:sodipodi="http://sodipodi.sourceforge.net/DTD/sodipodi-0.dtd"
   xmlns:inkscape="http://www.inkscape.org/namespaces/inkscape"
   version="1.0"
   width="1000"
   height="1000"
   id="svg5496"
   sodipodi:version="0.32"
   inkscape:version="0.46"
   sodipodi:docname="kaf+heh.isol.svg"
   inkscape:output_extension="org.inkscape.output.svg.inkscape">
  <metadata
     id="metadata5594">
    <rdf:RDF>
      <cc:Work
         rdf:about="">
        <dc:format>image/svg+xml</dc:format>
        <dc:type
           rdf:resource="http://purl.org/dc/dcmitype/StillImage" />
      </cc:Work>
    </rdf:RDF>
  </metadata>
  <sodipodi:namedview
     inkscape:pageshadow="2"
     inkscape:pageopacity="0.0"
     guidetolerance="10.0"
     gridtolerance="10.0"
     objecttolerance="10.0"
     borderopacity="1.0"
     bordercolor="#666666"
     pagecolor="#ffffff"
     id="base"
     showgrid="false"
     showguides="true"
     inkscape:guide-bbox="true"
     inkscape:zoom="0.227"
     inkscape:cx="-587.0044"
     inkscape:cy="118.33883"
     inkscape:window-x="0"
     inkscape:window-y="25"
     inkscape:current-layer="svg5496">
    <sodipodi:guide
       orientation="horizontal"
       position="200"
       id="guide5596" />
  </sodipodi:namedview>
  <defs
     id="defs5498">
    <inkscape:perspective
       sodipodi:type="inkscape:persp3d"
       inkscape:vp_x="0 : 500 : 1"
       inkscape:vp_y="0 : 1000 : 0"
       inkscape:vp_z="1000 : 500 : 1"
       inkscape:persp3d-origin="500 : 333.33333 : 1"
       id="perspective8" />
    <inkscape:perspective
       id="perspective2457"
       inkscape:persp3d-origin="372.04724 : 350.78739 : 1"
       inkscape:vp_z="744.09448 : 526.18109 : 1"
       inkscape:vp_y="0 : 1000 : 0"
       inkscape:vp_x="0 : 526.18109 : 1"
       sodipodi:type="inkscape:persp3d" />
    <inkscape:perspective
       sodipodi:type="inkscape:persp3d"
       inkscape:vp_x="0 : 526.18109 : 1"
       inkscape:vp_y="0 : 1000 : 0"
       inkscape:vp_z="744.09448 : 526.18109 : 1"
       inkscape:persp3d-origin="372.04724 : 350.78739 : 1"
       id="perspective2524" />
    <inkscape:perspective
       id="perspective2389"
       inkscape:persp3d-origin="500 : 333.33333 : 1"
       inkscape:vp_z="1000 : 500 : 1"
       inkscape:vp_y="0 : 1000 : 0"
       inkscape:vp_x="0 : 500 : 1"
       sodipodi:type="inkscape:persp3d" />
  </defs>
  <g
     id="layer1"
     transform="matrix(0.5,0,0,0.5,129.04219,-59.993804)"
     style="stroke:#000000;stroke-width:2;stroke-miterlimit:4;stroke-dasharray:none;stroke-opacity:1" />
  <path
     style="fill:none;fill-rule:evenodd;stroke:#000000;stroke-width:1;stroke-linecap:butt;stroke-linejoin:miter;stroke-miterlimit:4;stroke-dasharray:none;stroke-opacity:1"
     d="M 875.27656,-191.79067 C 874.20666,-191.74356 873.07206,-191.51497 871.88596,-191.0563 C 666.20824,-111.52104 446.18501,-51.999574 261.19844,67.756196 C 232.08231,86.605276 216.22189,117.92164 200.62032,148.16245 C 188.31734,185.60739 186.16087,255.85863 190.99532,261.03745 L 241.24532,314.86558 C 244.74877,318.61859 249.99913,318.92492 253.63594,315.53745 L 263.94844,305.92808 C 268.82323,301.38752 271.37139,302.31365 273.87032,304.8187 C 330.19347,361.27986 456.47314,511.8717 474.85469,633.83427 C 420.40794,684.66607 340.99297,712.94437 295.33907,681.19367 C 264.58991,659.80877 249.3284,622.88377 242.35092,601.83677 C 213.62754,515.19475 192.96407,382.02183 192.96407,382.02183 C 189.1778,373.15399 189.44487,354.56657 176.05782,368.74058 L 156.08907,414.99058 C 153.46652,424.65499 154.7734,437.70256 155.44844,443.5062 L 161.47969,483.3343 C 117.7489,504.1285 79.05294,530.08865 44.66719,564.3812 C 44.66719,564.3812 33.35032,576.30117 27.12032,593.25617 C 23.70174,602.55987 6.67331,645.63327 1.19844,661.67807 C -5.38479,680.97107 9.72401,698.35457 17.60469,705.17807 C 29.72934,715.67617 101.202,719.92407 146.05782,711.25617 C 156.13521,708.54647 163.25771,703.07557 171.65157,687.13117 C 176.31865,678.45237 185.04039,662.65027 194.32344,620.08427 C 199.6357,647.00847 221.40853,757.96367 276.64469,792.45247 C 301.77159,808.14147 478.43209,817.27717 505.69844,673.49057 C 548.75451,446.4385 316.66286,209.44972 253.49532,151.45933 C 337.21463,70.288436 646.37949,-30.639294 855.32346,-106.63442 C 861.67276,-108.94375 865.66536,-113.10123 869.37026,-122.15005 C 876.20886,-138.85216 882.21856,-155.79188 885.44846,-173.52505 C 887.17776,-183.01978 882.76616,-192.12044 875.27656,-191.79067 z"
     id="path2463"
     sodipodi:nodetypes="csscccccscssccccccssscccsscsssc" />
  <g
     id="g3351"
     transform="matrix(0.5,0,0,0.5,489.20514,56.958166)"
     style="stroke:#000000;stroke-width:2;stroke-miterlimit:4;stroke-dasharray:none;stroke-opacity:1">
    <g
       style="stroke:#000000;stroke-width:1;stroke-miterlimit:4;stroke-dasharray:none;stroke-opacity:1"
       transform="matrix(2,0,0,2,-1017.2453,-198.60512)"
       id="g2541">
      <g
         id="g2543"
         transform="matrix(0.5,0,0,0.5,221.36564,169.60355)"
         style="stroke:#000000;stroke-width:2;stroke-miterlimit:4;stroke-dasharray:none;stroke-opacity:1" />
      <path
         style="fill:none;fill-rule:evenodd;stroke:#000000;stroke-width:1;stroke-linecap:butt;stroke-linejoin:miter;stroke-miterlimit:4;stroke-dasharray:none;stroke-opacity:1"
         d="M 193.7198,576.84393 C 165.98958,583.29986 100.99387,610.43407 77.296396,656.27663 C 105.42233,678.51226 166.79387,668.36272 190.21541,659.39164 C 220.56265,647.76782 195.49606,596.80843 193.7198,576.84393 z"
         id="path2552"
         sodipodi:nodetypes="ccsc" />
    </g>
  </g>
</svg>
