<?xml version="1.0" encoding="UTF-8" standalone="no"?>
<!-- Created with Inkscape (http://www.inkscape.org/) -->
<svg
   xmlns:dc="http://purl.org/dc/elements/1.1/"
   xmlns:cc="http://creativecommons.org/ns#"
   xmlns:rdf="http://www.w3.org/1999/02/22-rdf-syntax-ns#"
   xmlns:svg="http://www.w3.org/2000/svg"
   xmlns="http://www.w3.org/2000/svg"
   xmlns:sodipodi="http://sodipodi.sourceforge.net/DTD/sodipodi-0.dtd"
   xmlns:inkscape="http://www.inkscape.org/namespaces/inkscape"
   version="1.0"
   width="1000"
   height="1000"
   id="svg5496"
   sodipodi:version="0.32"
   inkscape:version="0.46"
   sodipodi:docname="kaf.fina.svg"
   inkscape:output_extension="org.inkscape.output.svg.inkscape">
  <metadata
     id="metadata5594">
    <rdf:RDF>
      <cc:Work
         rdf:about="">
        <dc:format>image/svg+xml</dc:format>
        <dc:type
           rdf:resource="http://purl.org/dc/dcmitype/StillImage" />
      </cc:Work>
    </rdf:RDF>
  </metadata>
  <sodipodi:namedview
     inkscape:pageshadow="2"
     inkscape:pageopacity="0.0"
     guidetolerance="10.0"
     gridtolerance="10.0"
     objecttolerance="10.0"
     borderopacity="1.0"
     bordercolor="#666666"
     pagecolor="#ffffff"
     id="base"
     showgrid="false"
     showguides="true"
     inkscape:guide-bbox="true"
     inkscape:zoom="0.32102648"
     inkscape:cx="1169.6845"
     inkscape:cy="382.00842"
     inkscape:window-x="0"
     inkscape:window-y="25"
     inkscape:current-layer="svg5496">
    <sodipodi:guide
       orientation="horizontal"
       position="200"
       id="guide5596" />
  </sodipodi:namedview>
  <defs
     id="defs5498">
    <inkscape:perspective
       sodipodi:type="inkscape:persp3d"
       inkscape:vp_x="0 : 500 : 1"
       inkscape:vp_y="0 : 1000 : 0"
       inkscape:vp_z="1000 : 500 : 1"
       inkscape:persp3d-origin="500 : 333.33333 : 1"
       id="perspective8" />
    <inkscape:perspective
       id="perspective2477"
       inkscape:persp3d-origin="372.04724 : 350.78739 : 1"
       inkscape:vp_z="744.09448 : 526.18109 : 1"
       inkscape:vp_y="0 : 1000 : 0"
       inkscape:vp_x="0 : 526.18109 : 1"
       sodipodi:type="inkscape:persp3d" />
    <inkscape:perspective
       id="perspective3295"
       inkscape:persp3d-origin="500 : 333.33333 : 1"
       inkscape:vp_z="1000 : 500 : 1"
       inkscape:vp_y="0 : 1000 : 0"
       inkscape:vp_x="0 : 500 : 1"
       sodipodi:type="inkscape:persp3d" />
    <inkscape:perspective
       sodipodi:type="inkscape:persp3d"
       inkscape:vp_x="0 : 526.18109 : 1"
       inkscape:vp_y="0 : 1000 : 0"
       inkscape:vp_z="744.09448 : 526.18109 : 1"
       inkscape:persp3d-origin="372.04724 : 350.78739 : 1"
       id="perspective2711" />
    <inkscape:perspective
       id="perspective2677"
       inkscape:persp3d-origin="500 : 333.33333 : 1"
       inkscape:vp_z="1000 : 500 : 1"
       inkscape:vp_y="0 : 1000 : 0"
       inkscape:vp_x="0 : 500 : 1"
       sodipodi:type="inkscape:persp3d" />
  </defs>
  <g
     id="layer1"
     style="stroke:#000000;stroke-opacity:1"
     transform="translate(-84.105212,46.94564)" />
  <g
     id="g2608"
     transform="translate(-266.5087,1358.1981)"
     style="stroke:#000000;stroke-opacity:1" />
  <g
     id="g3297"
     transform="matrix(0.5,0,0,0.5,-71.293162,1477.2669)"
     style="stroke:#000000;stroke-width:2;stroke-miterlimit:4;stroke-dasharray:none;stroke-opacity:1" />
  <path
     style="fill:none;fill-rule:evenodd;stroke:#000000;stroke-width:1;stroke-linecap:butt;stroke-linejoin:miter;stroke-miterlimit:4;stroke-dasharray:none;stroke-opacity:1"
     d="M 370.71922,159.65995 C 321.08741,180.83385 257.52724,258.17605 238.72078,337.21535 C 232.84231,361.92125 248.50198,386.72555 282.33089,391.33865 L 333.72852,398.34735 C 343.09742,400.00905 336.33217,406.17605 329.83476,409.63925 C 304.24749,423.27785 229.18189,450.58615 177.97812,469.21385 C 174.69147,470.40945 174.52181,475.96445 179.53563,475.44385 C 225.62618,470.65795 283.32787,470.36155 313.90948,462.55125 C 341.93692,455.39325 378.46362,402.75615 389.79862,371.09105 C 392.84892,362.56995 407.96542,316.75105 357.48042,315.41025 C 321.26846,312.72095 276.25736,315.97465 282.72026,282.70275 C 286.33254,264.10625 307.47847,250.26105 337.2329,239.09255 C 340.63842,237.81435 344.61212,240.17695 348.91422,229.74755 L 374.61302,167.44745 C 376.36892,162.54595 376.90562,159.81155 370.71922,159.65995 z"
     id="path2515"
     sodipodi:nodetypes="csscssssscssscc" />
  <path
     style="fill:none;fill-rule:evenodd;stroke:#000000;stroke-width:1;stroke-linecap:butt;stroke-linejoin:miter;stroke-miterlimit:4;stroke-dasharray:none;stroke-opacity:1"
     d="M 668.73281,47.1659 C 668.29715,42.25405 661.60102,35.10962 655.51695,44.68793 L 614.76805,108.83991 C 613.09787,111.46932 613.05929,115.22733 613.11607,120.40379 C 615.67851,354.03074 665.6094,547.98437 630.18655,598.92802 C 560.11784,699.69787 310.78315,714.92667 272.25703,714.56678 C 180.98148,713.71929 61.041578,686.10274 50.891378,604.43462 C 48.315328,583.84767 59.522678,541.34415 87.691178,502.91262 C 103.06788,481.93351 85.441578,475.768 73.562978,487.17155 C 57.499628,502.59248 -25.599603,630.41532 21.155698,718.97207 C 51.172428,775.82504 125.97078,818.20517 288.77213,812.79623 C 381.79903,809.70549 468.14934,794.39755 552.71979,750.64996 C 603.2546,724.50871 651.12594,653.75025 672.86276,601.95665 C 690.49202,767.24028 749.70769,789.43898 792.21443,800 L 793.18214,685.93242 C 782.45908,684.79878 731.44199,658.33268 711.68435,538.35533 C 684.68461,374.40065 683.40268,213.34155 668.73281,47.1659 z"
     id="path2613"
     sodipodi:nodetypes="cssssssssssscccss" />
</svg>
