<?xml version="1.0" encoding="UTF-8" standalone="no"?>
<!-- Created with Inkscape (http://www.inkscape.org/) -->
<svg
   xmlns:dc="http://purl.org/dc/elements/1.1/"
   xmlns:cc="http://creativecommons.org/ns#"
   xmlns:rdf="http://www.w3.org/1999/02/22-rdf-syntax-ns#"
   xmlns:svg="http://www.w3.org/2000/svg"
   xmlns="http://www.w3.org/2000/svg"
   xmlns:sodipodi="http://sodipodi.sourceforge.net/DTD/sodipodi-0.dtd"
   xmlns:inkscape="http://www.inkscape.org/namespaces/inkscape"
   version="1.0"
   width="1000"
   height="1000"
   id="svg5496"
   sodipodi:version="0.32"
   inkscape:version="0.46"
   sodipodi:docname="kaf.medi.svg"
   inkscape:output_extension="org.inkscape.output.svg.inkscape">
  <metadata
     id="metadata5594">
    <rdf:RDF>
      <cc:Work
         rdf:about="">
        <dc:format>image/svg+xml</dc:format>
        <dc:type
           rdf:resource="http://purl.org/dc/dcmitype/StillImage" />
      </cc:Work>
    </rdf:RDF>
  </metadata>
  <sodipodi:namedview
     inkscape:pageshadow="2"
     inkscape:pageopacity="0.0"
     guidetolerance="10.0"
     gridtolerance="10.0"
     objecttolerance="10.0"
     borderopacity="1.0"
     bordercolor="#666666"
     pagecolor="#ffffff"
     id="base"
     showgrid="false"
     showguides="true"
     inkscape:guide-bbox="true"
     inkscape:zoom="0.454"
     inkscape:cx="500"
     inkscape:cy="500"
     inkscape:window-x="0"
     inkscape:window-y="25"
     inkscape:current-layer="svg5496">
    <sodipodi:guide
       orientation="horizontal"
       position="200"
       id="guide5596" />
  </sodipodi:namedview>
  <defs
     id="defs5498">
    <inkscape:perspective
       sodipodi:type="inkscape:persp3d"
       inkscape:vp_x="0 : 500 : 1"
       inkscape:vp_y="0 : 1000 : 0"
       inkscape:vp_z="1000 : 500 : 1"
       inkscape:persp3d-origin="500 : 333.33333 : 1"
       id="perspective3159" />
  </defs>
  <g
     id="layer1" />
  <path
     style="fill:none;fill-rule:evenodd;stroke:#000000;stroke-width:1px;stroke-linecap:butt;stroke-linejoin:miter;stroke-miterlimit:4;stroke-dasharray:none;stroke-opacity:1"
     d="M 75.540905,177.75333 C 42.590605,203.96863 9.0401053,256.34094 -3.2035947,305.50664 C -4.9962947,316.73081 -1.1680947,325.54605 1.9805053,334.65252 C 54.525705,416.55773 68.702305,454.682 90.824705,500.86587 C 116.62451,554.72713 118.39551,622.13263 101.42201,652.1476 C 87.300705,677.11885 34.975605,699.15775 2.3030053,700.8811 L 2.3030053,794.4934 C 48.264005,775.3096 143.92411,683.55655 152.53321,535.4412 C 191.38091,582.04202 226.79921,638.33324 262.54691,687.9505 C 299.59586,739.3739 357.29591,793.1938 414.19729,800 L 413.04062,698.0333 C 298.29961,659.044 225.04941,524.30089 182.33601,453.83758 C 116.01711,355.02191 53.030705,258.79495 53.030705,258.79495 C 95.354805,210.34974 418.83919,79.57588 638.86691,48.0727 C 643.13771,48.59965 646.89121,45.50586 650.43076,40.91411 L 675.76116,-5.61672 C 681.19206,-15.59299 674.80831,-26.39939 659.56286,-24.3875 C 415.69734,7.79463 133.18181,131.89429 75.540905,177.75333 z"
     id="path2454"
     sodipodi:nodetypes="cccsscccsccccccsss" />
</svg>
