<?xml version="1.0" encoding="UTF-8" standalone="no"?>
<!-- Created with Inkscape (http://www.inkscape.org/) -->
<svg
   xmlns:dc="http://purl.org/dc/elements/1.1/"
   xmlns:cc="http://creativecommons.org/ns#"
   xmlns:rdf="http://www.w3.org/1999/02/22-rdf-syntax-ns#"
   xmlns:svg="http://www.w3.org/2000/svg"
   xmlns="http://www.w3.org/2000/svg"
   xmlns:sodipodi="http://sodipodi.sourceforge.net/DTD/sodipodi-0.dtd"
   xmlns:inkscape="http://www.inkscape.org/namespaces/inkscape"
   version="1.0"
   width="1000"
   height="1000"
   id="svg5496"
   sodipodi:version="0.32"
   inkscape:version="0.46"
   sodipodi:docname="kaf.isol.svg"
   inkscape:output_extension="org.inkscape.output.svg.inkscape">
  <metadata
     id="metadata5594">
    <rdf:RDF>
      <cc:Work
         rdf:about="">
        <dc:format>image/svg+xml</dc:format>
        <dc:type
           rdf:resource="http://purl.org/dc/dcmitype/StillImage" />
      </cc:Work>
    </rdf:RDF>
  </metadata>
  <sodipodi:namedview
     inkscape:pageshadow="2"
     inkscape:pageopacity="0.0"
     guidetolerance="10.0"
     gridtolerance="10.0"
     objecttolerance="10.0"
     borderopacity="1.0"
     bordercolor="#666666"
     pagecolor="#ffffff"
     id="base"
     showgrid="false"
     showguides="true"
     inkscape:guide-bbox="true"
     inkscape:zoom="0.64205296"
     inkscape:cx="128.88772"
     inkscape:cy="505.54137"
     inkscape:window-x="0"
     inkscape:window-y="25"
     inkscape:current-layer="svg5496">
    <sodipodi:guide
       orientation="horizontal"
       position="200"
       id="guide5596" />
  </sodipodi:namedview>
  <defs
     id="defs5498">
    <inkscape:perspective
       sodipodi:type="inkscape:persp3d"
       inkscape:vp_x="0 : 500 : 1"
       inkscape:vp_y="0 : 1000 : 0"
       inkscape:vp_z="1000 : 500 : 1"
       inkscape:persp3d-origin="500 : 333.33333 : 1"
       id="perspective8" />
    <inkscape:perspective
       id="perspective2477"
       inkscape:persp3d-origin="372.04724 : 350.78739 : 1"
       inkscape:vp_z="744.09448 : 526.18109 : 1"
       inkscape:vp_y="0 : 1000 : 0"
       inkscape:vp_x="0 : 526.18109 : 1"
       sodipodi:type="inkscape:persp3d" />
    <inkscape:perspective
       id="perspective3295"
       inkscape:persp3d-origin="500 : 333.33333 : 1"
       inkscape:vp_z="1000 : 500 : 1"
       inkscape:vp_y="0 : 1000 : 0"
       inkscape:vp_x="0 : 500 : 1"
       sodipodi:type="inkscape:persp3d" />
  </defs>
  <g
     id="layer1"
     transform="matrix(0.5,0,0,0.5,123.42705,318.81883)" />
  <path
     style="fill:none;fill-rule:evenodd;stroke:#000000;stroke-width:1;stroke-linecap:butt;stroke-linejoin:miter;stroke-miterlimit:4;stroke-dasharray:none;stroke-opacity:1"
     d="M 376.73102,152.51928 C 375.08623,141.25443 368.56512,139.77007 364.20349,145.49835 L 343.5537,172.6184 C 339.29232,178.21502 338.88836,189.62082 339.28608,197.26047 C 341.92918,248.03055 361.62121,387.44046 386.90882,506.83512 C 398.81589,562.77868 416.44514,677.28609 413.07463,693.26817 C 359.11651,735.37609 55.908742,724.72235 5.310312,703.18007 C 3.2638418,702.30878 1.3135818,704.76091 1.0426918,707.44769 C -1.3862282,731.5391 0.7113818,755.63051 1.7310218,779.72192 C 1.8479618,782.48505 3.3522118,786.74821 7.375292,787.43117 C 69.818642,798.03149 393.21013,819.24448 419.78388,762.65143 C 447.63254,703.34326 449.45136,649.07427 449.51956,617.27698 C 449.69455,536.79866 413.41026,378.70585 394.62749,260.31113 L 409.22,228.09747 C 411.72496,222.56766 410.20457,216.81224 407.56802,211.99064 C 396.36841,191.50927 378.76567,166.45425 376.73102,152.51928 z"
     id="path2483"
     sodipodi:nodetypes="csssscsssssscsss" />
  <g
     id="g3429"
     transform="translate(225.84996,617.08875)" />
  <g
     id="g3297"
     transform="matrix(0.5,0,0,0.5,421.0655,736.15759)"
     style="stroke:#000000;stroke-width:2;stroke-miterlimit:4;stroke-dasharray:none;stroke-opacity:1" />
  <path
     style="fill:none;fill-rule:evenodd;stroke:#000000;stroke-width:0.76940137;stroke-linecap:butt;stroke-linejoin:miter;stroke-miterlimit:4;stroke-dasharray:none;stroke-opacity:1"
     d="M 206.43284,303.58613 C 168.24606,319.87743 119.34277,379.38461 104.87305,440.19755 C 100.35015,459.20628 112.39872,478.29079 138.42673,481.84006 L 177.97214,487.23262 C 185.18059,488.51112 179.97539,493.25599 174.97629,495.92062 C 155.2894,506.41415 97.53381,527.42527 58.137572,541.75737 C 55.608822,542.67726 55.478282,546.9513 59.335912,546.55075 C 94.79805,542.86846 139.19381,542.64042 162.72335,536.63115 C 184.2877,531.12379 212.39139,490.62469 221.11256,466.26158 C 223.45947,459.70543 235.09012,424.45232 196.2469,423.42071 C 168.38536,421.35149 133.75375,423.8549 138.72632,398.25544 C 141.50561,383.94728 157.77532,373.29476 180.66842,364.70177 C 183.28864,363.71826 186.34601,365.53603 189.65604,357.5117 L 209.42874,309.57787 C 210.77973,305.80663 211.19266,303.70279 206.43284,303.58613 z"
     id="path2515"
     sodipodi:nodetypes="csscssssscssscc" />
</svg>
