<?xml version="1.0" encoding="UTF-8" standalone="no"?>
<!-- Created with Inkscape (http://www.inkscape.org/) -->
<svg
   xmlns:dc="http://purl.org/dc/elements/1.1/"
   xmlns:cc="http://creativecommons.org/ns#"
   xmlns:rdf="http://www.w3.org/1999/02/22-rdf-syntax-ns#"
   xmlns:svg="http://www.w3.org/2000/svg"
   xmlns="http://www.w3.org/2000/svg"
   xmlns:sodipodi="http://sodipodi.sourceforge.net/DTD/sodipodi-0.dtd"
   xmlns:inkscape="http://www.inkscape.org/namespaces/inkscape"
   version="1.0"
   width="1000"
   height="1000"
   id="svg5496"
   sodipodi:version="0.32"
   inkscape:version="0.46"
   sodipodi:docname="lam+waw.fina.svg"
   inkscape:output_extension="org.inkscape.output.svg.inkscape">
  <metadata
     id="metadata5594">
    <rdf:RDF>
      <cc:Work
         rdf:about="">
        <dc:format>image/svg+xml</dc:format>
        <dc:type
           rdf:resource="http://purl.org/dc/dcmitype/StillImage" />
      </cc:Work>
    </rdf:RDF>
  </metadata>
  <sodipodi:namedview
     inkscape:pageshadow="2"
     inkscape:pageopacity="0.0"
     guidetolerance="10.0"
     gridtolerance="10.0"
     objecttolerance="10.0"
     borderopacity="1.0"
     bordercolor="#666666"
     pagecolor="#ffffff"
     id="base"
     showgrid="false"
     showguides="true"
     inkscape:guide-bbox="true"
     inkscape:zoom="0.64205296"
     inkscape:cx="498.97109"
     inkscape:cy="434.54129"
     inkscape:window-x="0"
     inkscape:window-y="25"
     inkscape:current-layer="svg5496">
    <sodipodi:guide
       orientation="horizontal"
       position="200"
       id="guide5596" />
  </sodipodi:namedview>
  <defs
     id="defs5498">
    <inkscape:perspective
       sodipodi:type="inkscape:persp3d"
       inkscape:vp_x="0 : 500 : 1"
       inkscape:vp_y="0 : 1000 : 0"
       inkscape:vp_z="1000 : 500 : 1"
       inkscape:persp3d-origin="500 : 333.33333 : 1"
       id="perspective8" />
    <inkscape:perspective
       id="perspective2388"
       inkscape:persp3d-origin="372.04724 : 350.78739 : 1"
       inkscape:vp_z="744.09448 : 526.18109 : 1"
       inkscape:vp_y="0 : 1000 : 0"
       inkscape:vp_x="0 : 526.18109 : 1"
       sodipodi:type="inkscape:persp3d" />
  </defs>
  <g
     id="layer1"
     transform="translate(-225.83807,39.875)" />
  <path
     style="fill:none;fill-opacity:1;fill-rule:evenodd;stroke:#000000;stroke-width:1px;stroke-linecap:butt;stroke-linejoin:miter;stroke-opacity:1"
     d="M 349.94318,205.875 C 349.11654,205.98131 348.19652,206.62428 347.25568,207.875 L 317.84943,246.96875 C 315.47413,250.12641 315.36285,257.13408 316.00568,263.4375 C 335.3024,452.65722 349.03396,615.40127 342.78693,646.1875 C 338.92311,665.2289 306.09386,689.51709 266.84943,703.34375 C 260.26682,667.55795 243.09777,631.86611 210.63068,597.03125 C 207.36729,593.52985 201.94265,590.93874 197.44318,591 C 126.35611,591.96796 78.873051,762.88378 132.63068,780.5 C 158.3625,788.93223 196.52106,790.36841 233.84943,783.90625 C 234.26777,786.8331 234.61109,789.6037 234.84943,792.125 C 235.86168,802.8334 231.10529,814.24585 225.59943,823.15625 C 199.91744,864.71858 154.45219,904.64175 109.41193,933.625 C 54.430921,969.00508 -0.15748894,968.98742 -69.713069,961.125 C -77.764759,960.21487 -84.269699,969.12826 -69.713069,972.96875 C -17.243799,986.81176 51.691751,1007.9059 97.943181,1006.6875 C 146.97815,1005.3958 230.27737,899.08928 245.00568,852.125 C 255.08738,827.12613 263.06203,801.60179 267.13068,775.875 C 273.4863,773.85631 279.68875,771.57405 285.66193,769.03125 C 333.63189,748.61031 360.38618,693.87457 368.59943,651.9375 C 379.06976,723.25381 407.30804,796.17482 469.09943,800 L 466.88068,715 C 447.81414,709.0867 421.99819,686.86908 411.94318,657.25 C 384.03378,575.03719 371.90761,337.63493 353.81818,212.40625 C 353.19042,208.03344 351.76178,205.64111 349.94318,205.875 z M 170.72443,679.4375 C 172.87923,679.40858 174.82642,679.76538 176.41193,680.5625 C 190.91629,687.85462 202.12957,700.309 210.69318,714.65625 C 186.66755,716.02711 164.11666,712.91764 146.97443,705.625 C 145.27716,704.46248 144.17647,700.29951 144.66193,698.71875 C 148.24141,687.06317 161.38696,679.56283 170.72443,679.4375 z"
     id="path2394" />
</svg>
