<?xml version="1.0" encoding="UTF-8" standalone="no"?>
<!-- Created with Inkscape (http://www.inkscape.org/) -->
<svg
   xmlns:dc="http://purl.org/dc/elements/1.1/"
   xmlns:cc="http://creativecommons.org/ns#"
   xmlns:rdf="http://www.w3.org/1999/02/22-rdf-syntax-ns#"
   xmlns:svg="http://www.w3.org/2000/svg"
   xmlns="http://www.w3.org/2000/svg"
   xmlns:sodipodi="http://sodipodi.sourceforge.net/DTD/sodipodi-0.dtd"
   xmlns:inkscape="http://www.inkscape.org/namespaces/inkscape"
   version="1.0"
   width="1000"
   height="1000"
   id="svg5496"
   sodipodi:version="0.32"
   inkscape:version="0.46"
   sodipodi:docname="lam+meem.medi.svg"
   inkscape:output_extension="org.inkscape.output.svg.inkscape">
  <metadata
     id="metadata5594">
    <rdf:RDF>
      <cc:Work
         rdf:about="">
        <dc:format>image/svg+xml</dc:format>
        <dc:type
           rdf:resource="http://purl.org/dc/dcmitype/StillImage" />
      </cc:Work>
    </rdf:RDF>
  </metadata>
  <sodipodi:namedview
     inkscape:pageshadow="2"
     inkscape:pageopacity="0.0"
     guidetolerance="10.0"
     gridtolerance="10.0"
     objecttolerance="10.0"
     borderopacity="1.0"
     bordercolor="#666666"
     pagecolor="#ffffff"
     id="base"
     showgrid="false"
     showguides="true"
     inkscape:guide-bbox="true"
     inkscape:zoom="0.64205296"
     inkscape:cx="476.79875"
     inkscape:cy="525.10433"
     inkscape:window-x="0"
     inkscape:window-y="25"
     inkscape:current-layer="svg5496">
    <sodipodi:guide
       orientation="horizontal"
       position="200"
       id="guide5596" />
  </sodipodi:namedview>
  <defs
     id="defs5498">
    <inkscape:perspective
       sodipodi:type="inkscape:persp3d"
       inkscape:vp_x="0 : 500 : 1"
       inkscape:vp_y="0 : 1000 : 0"
       inkscape:vp_z="1000 : 500 : 1"
       inkscape:persp3d-origin="500 : 333.33333 : 1"
       id="perspective2389" />
    <inkscape:perspective
       id="perspective2504"
       inkscape:persp3d-origin="372.04724 : 350.78739 : 1"
       inkscape:vp_z="744.09448 : 526.18109 : 1"
       inkscape:vp_y="0 : 1000 : 0"
       inkscape:vp_x="0 : 526.18109 : 1"
       sodipodi:type="inkscape:persp3d" />
  </defs>
  <g
     id="layer1"
     transform="translate(-300,180)" />
  <path
     style="fill:#000000;fill-rule:evenodd;stroke:#000000;stroke-width:1px;stroke-linecap:butt;stroke-linejoin:miter;stroke-opacity:1"
     d="M 329.89137,103.96476 L 303.45965,156.13987 C 299.20749,163.84397 300.10203,183.36958 301.25701,196.47577 C 315.92863,340.97086 354.2987,597.92236 342.96956,625.02753 C 334.86113,642.66429 252.60853,670.22556 200.07308,659.44383 C 162.96562,644.86566 160.74702,605.65567 134.45918,608.19594 C 118.29709,609.75773 105.03076,633.00525 96.411188,641.4097 C 66.392058,670.67964 26.598108,693.69571 -0.5051118,696.47577 L -20.328902,800 C 39.233148,790.14637 90.065558,707.27066 111.82969,707.48899 C 128.75774,707.65881 130.43964,721.66409 133.85612,740.52864 C 147.87904,796.79718 208.1568,873.27457 280.05656,872.96256 C 297.74797,860.87432 295.10064,775.11821 278.12926,743.55727 C 316.15116,731.19852 349.92541,696.11536 356.18541,653.93722 C 365.58433,714.63975 408.94343,781.12117 466.45524,800 C 465.28365,787.35009 466.45524,698.67841 466.45524,698.67841 C 437.41782,686.69943 420.44236,647.2094 410.28784,615.25331 C 385.04829,535.82491 368.43762,281.4897 344.75921,107.26872 C 343.37952,98.86532 335.95477,95.92295 329.89137,103.96476 z"
     id="path2541"
     sodipodi:nodetypes="cccccssccsccccccscc" />
</svg>
