<?xml version="1.0" encoding="UTF-8" standalone="no"?>
<!-- Created with Inkscape (http://www.inkscape.org/) -->
<svg
   xmlns:dc="http://purl.org/dc/elements/1.1/"
   xmlns:cc="http://creativecommons.org/ns#"
   xmlns:rdf="http://www.w3.org/1999/02/22-rdf-syntax-ns#"
   xmlns:svg="http://www.w3.org/2000/svg"
   xmlns="http://www.w3.org/2000/svg"
   xmlns:sodipodi="http://sodipodi.sourceforge.net/DTD/sodipodi-0.dtd"
   xmlns:inkscape="http://www.inkscape.org/namespaces/inkscape"
   version="1.0"
   width="1000"
   height="1000"
   id="svg5496"
   sodipodi:version="0.32"
   inkscape:version="0.46"
   sodipodi:docname="lam+waw.fina.svg"
   inkscape:output_extension="org.inkscape.output.svg.inkscape">
  <metadata
     id="metadata5594">
    <rdf:RDF>
      <cc:Work
         rdf:about="">
        <dc:format>image/svg+xml</dc:format>
        <dc:type
           rdf:resource="http://purl.org/dc/dcmitype/StillImage" />
      </cc:Work>
    </rdf:RDF>
  </metadata>
  <sodipodi:namedview
     inkscape:pageshadow="2"
     inkscape:pageopacity="0.0"
     guidetolerance="10.0"
     gridtolerance="10.0"
     objecttolerance="10.0"
     borderopacity="1.0"
     bordercolor="#666666"
     pagecolor="#ffffff"
     id="base"
     showgrid="false"
     showguides="true"
     inkscape:guide-bbox="true"
     inkscape:zoom="0.51"
     inkscape:cx="500"
     inkscape:cy="421.56863"
     inkscape:window-x="0"
     inkscape:window-y="25"
     inkscape:current-layer="svg5496">
    <sodipodi:guide
       orientation="horizontal"
       position="200"
       id="guide5596" />
  </sodipodi:namedview>
  <defs
     id="defs5498">
    <inkscape:perspective
       sodipodi:type="inkscape:persp3d"
       inkscape:vp_x="0 : 500 : 1"
       inkscape:vp_y="0 : 1000 : 0"
       inkscape:vp_z="1000 : 500 : 1"
       inkscape:persp3d-origin="500 : 333.33333 : 1"
       id="perspective8" />
    <inkscape:perspective
       id="perspective2388"
       inkscape:persp3d-origin="372.04724 : 350.78739 : 1"
       inkscape:vp_z="744.09448 : 526.18109 : 1"
       inkscape:vp_y="0 : 1000 : 0"
       inkscape:vp_x="0 : 526.18109 : 1"
       sodipodi:type="inkscape:persp3d" />
  </defs>
  <g
     id="layer1"
     transform="matrix(1.3,0,0,1.3,-289.45531,-188.1625)" />
  <path
     style="fill:none;fill-opacity:1;fill-rule:evenodd;stroke:#000000;stroke-width:1px;stroke-linecap:butt;stroke-linejoin:miter;stroke-opacity:1"
     d="M 459.06032,27.637499 C 457.98569,27.775702 456.78966,28.611563 455.56657,30.237499 L 417.33844,81.05937 C 414.25055,85.16433 414.10589,94.2743 414.94157,102.46875 C 440.0273,348.45439 457.87833,560.02165 449.75719,600.04375 C 444.73423,624.79757 402.0562,656.37222 351.03844,674.34687 C 342.48105,627.82533 320.16129,581.42594 277.95407,536.14062 C 273.71166,531.5888 266.65963,528.22036 260.81032,528.3 C 168.39713,529.55835 106.66915,751.74891 176.55407,774.65 C 210.00543,785.6119 259.61156,787.47893 308.13844,779.07812 C 308.68229,782.88303 309.1286,786.48481 309.43844,789.7625 C 310.75437,803.68342 304.57106,818.5196 297.41344,830.10312 C 264.02686,884.13415 204.92203,936.03427 146.36969,973.7125 C 74.89438,1019.7066 3.929447,1019.6836 -86.492812,1009.4625 C -96.960002,1008.2793 -105.41642,1019.8667 -86.492812,1024.8594 C -18.282756,1042.8553 71.333459,1070.2777 131.46032,1068.6937 C 195.20578,1067.0145 303.49477,928.81606 322.64157,867.7625 C 335.74778,835.26397 346.11482,802.08233 351.40407,768.6375 C 359.66637,766.0132 367.72956,763.04626 375.49469,759.74062 C 437.85564,733.1934 472.63622,662.03694 483.31344,607.51875 C 496.92487,700.22995 533.63464,795.02727 613.96344,800 L 611.07907,689.5 C 586.29257,681.81271 552.73183,652.9298 539.66032,614.425 C 503.3781,507.54835 487.61408,198.92541 464.09782,36.128124 C 463.28173,30.443471 461.4245,27.333442 459.06032,27.637499 z M 226.07594,643.26875 C 228.87718,643.23115 231.40853,643.69499 233.46969,644.73125 C 252.32536,654.21101 266.90263,670.4017 278.03532,689.05312 C 246.802,690.83524 217.48584,686.79293 195.20094,677.3125 C 192.99449,675.80122 191.5636,670.38936 192.19469,668.33437 C 196.84802,653.18212 213.93723,643.43168 226.07594,643.26875 z"
     id="path2394" />
</svg>
