<?xml version="1.0" encoding="UTF-8" standalone="no"?>
<!-- Created with Inkscape (http://www.inkscape.org/) -->
<svg
   xmlns:dc="http://purl.org/dc/elements/1.1/"
   xmlns:cc="http://creativecommons.org/ns#"
   xmlns:rdf="http://www.w3.org/1999/02/22-rdf-syntax-ns#"
   xmlns:svg="http://www.w3.org/2000/svg"
   xmlns="http://www.w3.org/2000/svg"
   xmlns:sodipodi="http://sodipodi.sourceforge.net/DTD/sodipodi-0.dtd"
   xmlns:inkscape="http://www.inkscape.org/namespaces/inkscape"
   version="1.0"
   width="1000"
   height="1000"
   id="svg5496"
   sodipodi:version="0.32"
   inkscape:version="0.46"
   sodipodi:docname="lam+alef.fina.svg"
   inkscape:output_extension="org.inkscape.output.svg.inkscape">
  <metadata
     id="metadata5594">
    <rdf:RDF>
      <cc:Work
         rdf:about="">
        <dc:format>image/svg+xml</dc:format>
        <dc:type
           rdf:resource="http://purl.org/dc/dcmitype/StillImage" />
      </cc:Work>
    </rdf:RDF>
  </metadata>
  <sodipodi:namedview
     inkscape:pageshadow="2"
     inkscape:pageopacity="0.0"
     guidetolerance="10.0"
     gridtolerance="10.0"
     objecttolerance="10.0"
     borderopacity="1.0"
     bordercolor="#666666"
     pagecolor="#ffffff"
     id="base"
     showgrid="false"
     showguides="true"
     inkscape:guide-bbox="true"
     inkscape:zoom="0.64205296"
     inkscape:cx="531.8413"
     inkscape:cy="540.77254"
     inkscape:window-x="0"
     inkscape:window-y="25"
     inkscape:current-layer="svg5496">
    <sodipodi:guide
       orientation="horizontal"
       position="200"
       id="guide5596" />
  </sodipodi:namedview>
  <defs
     id="defs5498">
    <inkscape:perspective
       sodipodi:type="inkscape:persp3d"
       inkscape:vp_x="0 : 500 : 1"
       inkscape:vp_y="0 : 1000 : 0"
       inkscape:vp_z="1000 : 500 : 1"
       inkscape:persp3d-origin="500 : 333.33333 : 1"
       id="perspective8" />
    <inkscape:perspective
       id="perspective2711"
       inkscape:persp3d-origin="372.04724 : 350.78739 : 1"
       inkscape:vp_z="744.09448 : 526.18109 : 1"
       inkscape:vp_y="0 : 1000 : 0"
       inkscape:vp_x="0 : 526.18109 : 1"
       sodipodi:type="inkscape:persp3d" />
  </defs>
  <g
     id="layer1"
     transform="matrix(0.5,0,0,0.5,221.61944,298.8987)"
     style="stroke-width:2;stroke-miterlimit:4;stroke-dasharray:none" />
  <path
     style="fill:#000000;fill-rule:evenodd;stroke:#000000;stroke-width:1px;stroke-linecap:butt;stroke-linejoin:miter;stroke-miterlimit:4;stroke-dasharray:none;stroke-opacity:1"
     d="M 495.65169,69.823815 L 470.3213,131.49782 C 465.1457,142.33057 460.70179,153.60233 465.72706,170.5556 C 474.97007,254.05584 459.40053,517.49037 418.94105,584.61038 C 396.3723,410.79148 196.07483,285.4847 31.416969,185.27362 C 18.708539,177.49301 1.9907694,183.16858 2.2596194,196.4758 C 2.3513394,201.01574 5.5635894,313.21589 5.5635894,313.21589 C 4.6273494,325.59109 8.6418194,333.98105 26.355079,345.93296 L 114.97234,405.7269 C 134.28358,418.75703 145.86469,412.60619 154.75353,395.815 C 157.38089,390.85187 162.95502,378.71936 165.12161,374.31156 C 170.28085,363.81536 180.17301,370.90821 185.52373,374.24475 C 281.81271,434.28746 367.65717,507.89412 397.63407,630.3965 C 331.93577,736.47294 157.39201,813.38505 83.368039,839.39185 C 75.308889,843.9814 76.782909,847.2999 84.280409,849.81525 C 84.280409,849.81525 175.63239,841.5077 254.76588,823.72475 C 420.14257,786.56116 476.80744,552.82379 492.34773,370.48461 C 496.72799,356.0631 498.76405,366.25566 501.1583,372.68725 C 506.48596,406.62658 521.20302,578.2992 547.52211,684.93711 C 569.02637,772.06666 636.41811,793.50229 658.64731,800 C 657.83841,784.37545 659.61501,686.76432 659.61501,686.76432 C 615.33866,660.49243 589.87241,621.31928 581.02036,573.80534 C 547.76424,395.30181 505.96756,71.460565 509.96888,73.12778 C 507.22956,58.81148 502.54398,57.145805 495.65169,69.823815 z"
     id="path2717"
     sodipodi:nodetypes="cccccssssssscccsccsccscc" />
</svg>
