<?xml version="1.0" encoding="UTF-8" standalone="no"?>
<!-- Created with Inkscape (http://www.inkscape.org/) -->
<svg
   xmlns:dc="http://purl.org/dc/elements/1.1/"
   xmlns:cc="http://creativecommons.org/ns#"
   xmlns:rdf="http://www.w3.org/1999/02/22-rdf-syntax-ns#"
   xmlns:svg="http://www.w3.org/2000/svg"
   xmlns="http://www.w3.org/2000/svg"
   xmlns:sodipodi="http://sodipodi.sourceforge.net/DTD/sodipodi-0.dtd"
   xmlns:inkscape="http://www.inkscape.org/namespaces/inkscape"
   version="1.0"
   width="1000"
   height="1000"
   id="svg5496"
   sodipodi:version="0.32"
   inkscape:version="0.46"
   sodipodi:docname="lam+meem.isol.svg"
   inkscape:output_extension="org.inkscape.output.svg.inkscape">
  <metadata
     id="metadata5594">
    <rdf:RDF>
      <cc:Work
         rdf:about="">
        <dc:format>image/svg+xml</dc:format>
        <dc:type
           rdf:resource="http://purl.org/dc/dcmitype/StillImage" />
      </cc:Work>
    </rdf:RDF>
  </metadata>
  <sodipodi:namedview
     inkscape:pageshadow="2"
     inkscape:pageopacity="0.0"
     guidetolerance="10.0"
     gridtolerance="10.0"
     objecttolerance="10.0"
     borderopacity="1.0"
     bordercolor="#666666"
     pagecolor="#ffffff"
     id="base"
     showgrid="false"
     showguides="true"
     inkscape:guide-bbox="true"
     inkscape:zoom="0.454"
     inkscape:cx="500"
     inkscape:cy="500"
     inkscape:window-x="0"
     inkscape:window-y="25"
     inkscape:current-layer="svg5496">
    <sodipodi:guide
       orientation="horizontal"
       position="200"
       id="guide5596" />
  </sodipodi:namedview>
  <defs
     id="defs5498">
    <inkscape:perspective
       sodipodi:type="inkscape:persp3d"
       inkscape:vp_x="0 : 500 : 1"
       inkscape:vp_y="0 : 1000 : 0"
       inkscape:vp_z="1000 : 500 : 1"
       inkscape:persp3d-origin="500 : 333.33333 : 1"
       id="perspective3416" />
  </defs>
  <g
     id="layer1" />
  <g
     id="g3418"
     transform="matrix(0.5,0,0,0.5,80.396412,768.02993)" />
  <path
     style="fill:none;fill-rule:evenodd;stroke:#000000;stroke-width:1;stroke-linecap:butt;stroke-linejoin:miter;stroke-opacity:1;stroke-miterlimit:4;stroke-dasharray:none"
     d="M 156.75995,115.38926 C 166.08891,188.52026 173.5345,232.22466 193.31313,330.20212 C 213.09175,428.17961 223.89982,491.00463 225.19564,535.36466 C 208.24824,548.88502 138.56933,571.02357 118.05044,592.76422 C 97.531552,614.50487 82.684032,679.62273 82.684032,679.62273 C 91.999742,683.48261 108.33646,689.80895 114.47925,696.75528 C 60.369524,717.95327 33.300054,764.04598 13.690844,834.17732 C 13.690844,834.17732 -6.4403861,886.85915 13.449814,980.58503 C 25.848134,1033.3184 41.925724,1104.11 51.517494,1162.2022 C 61.379904,1221.9336 66.618824,1256.5865 65.057284,1278.0873 C 62.270654,1316.4563 85.592142,1310.5798 89.784682,1294.9489 C 98.056212,1265.8795 101.08156,1208.2156 95.859552,1162.733 C 84.204742,1061.2221 32.825704,851.43929 38.389654,838.84984 C 41.468104,831.88428 60.302564,798.34111 144.5303,781.44426 C 242.42752,761.80518 308.61658,775.77093 308.61658,775.77093 C 322.8526,780.04937 325.26775,765.98408 328.08538,758.63839 C 330.90301,751.2927 338.79017,729.48168 346.38605,703.347 C 351.61261,685.36429 348.07288,676.83427 335.48352,667.52441 C 304.2749,644.44556 269.75172,621.08124 226.15525,605.26339 C 226.15525,605.26339 245.24644,559.25082 249.7642,523.2516 C 254.28195,487.25239 256.22222,433.2464 250.21019,389.50996 C 244.19815,345.77352 204.29218,135.78726 210.07678,137.23341 L 223.78904,122.24081 L 231.52013,100.59296 L 225.47908,81.006805 L 193.36129,53.867855 C 176.62913,30.088605 161.56086,3.4369051 153.64494,35.177805 C 149.02444,53.704855 135.4921,87.393305 143.00964,97.289005 L 156.75995,115.38926 z"
     id="path2566"
     sodipodi:nodetypes="czczcccczscsssczssczzcccccssc" />
</svg>
