<?xml version="1.0" encoding="UTF-8" standalone="no"?>
<!-- Created with Inkscape (http://www.inkscape.org/) -->
<svg
   xmlns:dc="http://purl.org/dc/elements/1.1/"
   xmlns:cc="http://creativecommons.org/ns#"
   xmlns:rdf="http://www.w3.org/1999/02/22-rdf-syntax-ns#"
   xmlns:svg="http://www.w3.org/2000/svg"
   xmlns="http://www.w3.org/2000/svg"
   xmlns:sodipodi="http://sodipodi.sourceforge.net/DTD/sodipodi-0.dtd"
   xmlns:inkscape="http://www.inkscape.org/namespaces/inkscape"
   version="1.0"
   width="1000"
   height="1000"
   id="svg5496"
   sodipodi:version="0.32"
   inkscape:version="0.46"
   sodipodi:docname="lam+haa.init.svg"
   inkscape:output_extension="org.inkscape.output.svg.inkscape">
  <metadata
     id="metadata5594">
    <rdf:RDF>
      <cc:Work
         rdf:about="">
        <dc:format>image/svg+xml</dc:format>
        <dc:type
           rdf:resource="http://purl.org/dc/dcmitype/StillImage" />
      </cc:Work>
    </rdf:RDF>
  </metadata>
  <sodipodi:namedview
     inkscape:pageshadow="2"
     inkscape:pageopacity="0.0"
     guidetolerance="10.0"
     gridtolerance="10.0"
     objecttolerance="10.0"
     borderopacity="1.0"
     bordercolor="#666666"
     pagecolor="#ffffff"
     id="base"
     showgrid="false"
     showguides="true"
     inkscape:guide-bbox="true"
     inkscape:zoom="0.64205296"
     inkscape:cx="510.45387"
     inkscape:cy="620.17278"
     inkscape:window-x="0"
     inkscape:window-y="25"
     inkscape:current-layer="svg5496">
    <sodipodi:guide
       orientation="horizontal"
       position="200"
       id="guide5596" />
  </sodipodi:namedview>
  <defs
     id="defs5498">
    <inkscape:perspective
       sodipodi:type="inkscape:persp3d"
       inkscape:vp_x="0 : 500 : 1"
       inkscape:vp_y="0 : 1000 : 0"
       inkscape:vp_z="1000 : 500 : 1"
       inkscape:persp3d-origin="500 : 333.33333 : 1"
       id="perspective8" />
    <inkscape:perspective
       id="perspective2388"
       inkscape:persp3d-origin="372.04724 : 350.78739 : 1"
       inkscape:vp_z="744.09448 : 526.18109 : 1"
       inkscape:vp_y="0 : 1000 : 0"
       inkscape:vp_x="0 : 526.18109 : 1"
       sodipodi:type="inkscape:persp3d" />
    <inkscape:perspective
       id="perspective2423"
       inkscape:persp3d-origin="372.04724 : 350.78739 : 1"
       inkscape:vp_z="744.09448 : 526.18109 : 1"
       inkscape:vp_y="0 : 1000 : 0"
       inkscape:vp_x="0 : 526.18109 : 1"
       sodipodi:type="inkscape:persp3d" />
    <inkscape:perspective
       id="perspective2436"
       inkscape:persp3d-origin="372.04724 : 350.78739 : 1"
       inkscape:vp_z="744.09448 : 526.18109 : 1"
       inkscape:vp_y="0 : 1000 : 0"
       inkscape:vp_x="0 : 526.18109 : 1"
       sodipodi:type="inkscape:persp3d" />
  </defs>
  <g
     id="layer1"
     transform="translate(-244.49339,198.3005)" />
  <path
     style="fill:#000000;fill-rule:evenodd;stroke:#000000;stroke-width:1px;stroke-linecap:butt;stroke-linejoin:miter;stroke-opacity:1"
     d="M 204.84582,121.20799 C 217.37375,232.18085 231.58876,343.99725 246.17305,455.99829 C 246.45211,472.72757 239.06319,477.91221 226.0935,478.68133 C 179.07914,481.46933 145.19457,482.78089 112.53633,484.40355 C 31.392038,488.4353 -2.0826721,529.54428 5.3061879,590.5046 C 41.795888,587.04639 80.204398,585.13068 118.77198,592.20224 C 165.31598,600.73631 225.35358,613.60942 258.61016,629.7628 C 171.23864,671.38999 85.814008,688.03482 -2.0704849e-06,702.70579 L 1.2902779,800 C 76.564508,780.61363 234.50631,706.7207 322.07538,693.41878 C 409.64446,680.11686 504.4804,676.64379 569.43861,698.68988 C 573.12801,699.94202 584.59712,700.7804 589.00664,694.40674 C 606.02603,669.80635 618.65804,645.56809 629.1772,618.61597 C 634.13912,605.90259 632.10041,599.94171 625.55066,599.18156 C 549.27857,590.32953 491.21203,581.56475 445.01057,571.37685 C 362.79995,553.24855 316.18115,533.00272 258.22078,512.88909 C 307.50272,458.46396 277.22676,309.69429 270.70651,201.51901 C 270.0281,190.26366 272.56915,184.73903 276.91803,180.11621 L 320.02841,134.29023 C 295.34141,99.254397 270.83752,64.09649 240.08811,33.10226 C 224.26716,54.05439 206.57171,75.00652 194.55135,95.95865 C 192.86124,98.904608 190.40005,105.3542 193.90679,109.20274 L 204.84582,121.20799 z"
     id="path2394"
     sodipodi:nodetypes="ccsscsccczssssscssccssc" />
</svg>
