<?xml version="1.0" encoding="UTF-8" standalone="no"?>
<!-- Created with Inkscape (http://www.inkscape.org/) -->
<svg
   xmlns:dc="http://purl.org/dc/elements/1.1/"
   xmlns:cc="http://creativecommons.org/ns#"
   xmlns:rdf="http://www.w3.org/1999/02/22-rdf-syntax-ns#"
   xmlns:svg="http://www.w3.org/2000/svg"
   xmlns="http://www.w3.org/2000/svg"
   xmlns:sodipodi="http://sodipodi.sourceforge.net/DTD/sodipodi-0.dtd"
   xmlns:inkscape="http://www.inkscape.org/namespaces/inkscape"
   version="1.0"
   width="1000"
   height="1000"
   id="svg5496"
   sodipodi:version="0.32"
   inkscape:version="0.46"
   sodipodi:docname="lam+qaf.fina.svg"
   inkscape:output_extension="org.inkscape.output.svg.inkscape">
  <metadata
     id="metadata5594">
    <rdf:RDF>
      <cc:Work
         rdf:about="">
        <dc:format>image/svg+xml</dc:format>
        <dc:type
           rdf:resource="http://purl.org/dc/dcmitype/StillImage" />
      </cc:Work>
    </rdf:RDF>
  </metadata>
  <sodipodi:namedview
     inkscape:pageshadow="2"
     inkscape:pageopacity="0.0"
     guidetolerance="10.0"
     gridtolerance="10.0"
     objecttolerance="10.0"
     borderopacity="1.0"
     bordercolor="#666666"
     pagecolor="#ffffff"
     id="base"
     showgrid="false"
     showguides="true"
     inkscape:guide-bbox="true"
     inkscape:zoom="0.454"
     inkscape:cx="358.41284"
     inkscape:cy="623.81503"
     inkscape:window-x="0"
     inkscape:window-y="25"
     inkscape:current-layer="svg5496">
    <sodipodi:guide
       orientation="horizontal"
       position="200"
       id="guide5596" />
  </sodipodi:namedview>
  <defs
     id="defs5498">
    <inkscape:perspective
       sodipodi:type="inkscape:persp3d"
       inkscape:vp_x="0 : 500 : 1"
       inkscape:vp_y="0 : 1000 : 0"
       inkscape:vp_z="1000 : 500 : 1"
       inkscape:persp3d-origin="500 : 333.33333 : 1"
       id="perspective8" />
    <inkscape:perspective
       id="perspective2388"
       inkscape:persp3d-origin="372.04724 : 350.78739 : 1"
       inkscape:vp_z="744.09448 : 526.18109 : 1"
       inkscape:vp_y="0 : 1000 : 0"
       inkscape:vp_x="0 : 526.18109 : 1"
       sodipodi:type="inkscape:persp3d" />
    <inkscape:perspective
       sodipodi:type="inkscape:persp3d"
       inkscape:vp_x="0 : 526.18109 : 1"
       inkscape:vp_y="0 : 1000 : 0"
       inkscape:vp_z="744.09448 : 526.18109 : 1"
       inkscape:persp3d-origin="372.04724 : 350.78739 : 1"
       id="perspective2405" />
    <inkscape:perspective
       id="perspective2403"
       inkscape:persp3d-origin="500 : 333.33333 : 1"
       inkscape:vp_z="1000 : 500 : 1"
       inkscape:vp_y="0 : 1000 : 0"
       inkscape:vp_x="0 : 500 : 1"
       sodipodi:type="inkscape:persp3d" />
    <inkscape:perspective
       sodipodi:type="inkscape:persp3d"
       inkscape:vp_x="0 : 526.18109 : 1"
       inkscape:vp_y="0 : 1000 : 0"
       inkscape:vp_z="744.09448 : 526.18109 : 1"
       inkscape:persp3d-origin="372.04724 : 350.78739 : 1"
       id="perspective2422" />
    <inkscape:perspective
       id="perspective2420"
       inkscape:persp3d-origin="500 : 333.33333 : 1"
       inkscape:vp_z="1000 : 500 : 1"
       inkscape:vp_y="0 : 1000 : 0"
       inkscape:vp_x="0 : 500 : 1"
       sodipodi:type="inkscape:persp3d" />
  </defs>
  <g
     id="layer1"
     transform="translate(39.647577,224)" />
  <path
     style="fill:none;fill-opacity:1;fill-rule:evenodd;stroke:#000000;stroke-width:1px;stroke-linecap:butt;stroke-linejoin:miter;stroke-opacity:1"
     d="M 587.83508,189.53125 C 585.9025,189.48897 584.09257,190.56477 582.92883,192.53125 C 574.37104,206.99205 563.92449,227.64382 559.02258,240.4375 C 554.65397,251.83927 555.95219,256.09542 556.17883,261.4375 C 561.07661,376.88254 592.39839,553.18714 566.08508,607.25 C 551.04379,638.15358 513.19534,651.82095 470.25321,657.65625 C 462.84049,613.1006 445.94124,579.81604 406.42883,548.40625 C 397.07735,542.28019 383.7284,544.92793 378.61633,547.59375 C 348.17179,563.46982 326.91611,601.32869 315.61633,625.65625 C 282.10874,697.79551 312.24686,737.8821 373.74133,741.84375 C 401.34182,743.46478 425.89326,741.43875 447.30383,737.40625 C 447.65523,738.64706 447.76573,745.80446 447.71008,748.59375 C 445.8844,800.75797 359.89094,879.80857 193.83508,881.5 C 28.458463,883.19571 14.433036,722.04927 78.178827,623.78125 C 84.223265,614.46337 72.192199,606.38327 66.616327,616.0625 C -37.691497,797.13188 -30.735437,960.24898 189.42883,960.78125 C 244.50929,960.91344 409.6018,923.91334 450.52258,814.09375 C 461.68061,784.1488 468.09726,756.74073 470.99133,731.84375 C 490.50704,726.74398 511.44081,717.07904 529.74133,706.28125 C 567.42596,682.60559 584.1669,616.75051 591.80383,597.15625 C 597.91773,684.47982 601.17961,778.50767 696.02258,800 L 696.02258,713.53125 C 661.20738,708.27172 642.7494,678.51317 638.89758,656.5625 C 621.067,555.5006 613.5367,363.66655 596.64758,203.21875 C 595.64823,193.72474 591.52455,189.61196 587.83508,189.53125 z M 397.021,644.65248 C 401.6524,650.93942 401.51821,658.27629 395.72939,659.4057 C 377.92915,662.87856 353.25692,658.92034 344.8104,648.66668 C 343.15145,646.65279 343.51271,641.58605 345.44071,638.73812 C 364.43384,610.68259 379.98269,621.52363 397.021,644.65248 z"
     id="path2426"
     sodipodi:nodetypes="cssssccssccccsscsccccccsccssss" />
</svg>
