<?xml version="1.0" encoding="UTF-8" standalone="no"?>
<!-- Created with Inkscape (http://www.inkscape.org/) -->
<svg
   xmlns:dc="http://purl.org/dc/elements/1.1/"
   xmlns:cc="http://creativecommons.org/ns#"
   xmlns:rdf="http://www.w3.org/1999/02/22-rdf-syntax-ns#"
   xmlns:svg="http://www.w3.org/2000/svg"
   xmlns="http://www.w3.org/2000/svg"
   xmlns:sodipodi="http://sodipodi.sourceforge.net/DTD/sodipodi-0.dtd"
   xmlns:inkscape="http://www.inkscape.org/namespaces/inkscape"
   version="1.0"
   width="1000"
   height="1000"
   id="svg5496"
   sodipodi:version="0.32"
   inkscape:version="0.46"
   sodipodi:docname="lam+dal.isol.svg"
   inkscape:output_extension="org.inkscape.output.svg.inkscape">
  <metadata
     id="metadata5594">
    <rdf:RDF>
      <cc:Work
         rdf:about="">
        <dc:format>image/svg+xml</dc:format>
        <dc:type
           rdf:resource="http://purl.org/dc/dcmitype/StillImage" />
      </cc:Work>
    </rdf:RDF>
  </metadata>
  <sodipodi:namedview
     inkscape:pageshadow="2"
     inkscape:pageopacity="0.0"
     guidetolerance="10.0"
     gridtolerance="10.0"
     objecttolerance="10.0"
     borderopacity="1.0"
     bordercolor="#666666"
     pagecolor="#ffffff"
     id="base"
     showgrid="false"
     showguides="true"
     inkscape:guide-bbox="true"
     inkscape:zoom="0.454"
     inkscape:cx="492.28518"
     inkscape:cy="348.24746"
     inkscape:window-x="0"
     inkscape:window-y="25"
     inkscape:current-layer="svg5496">
    <sodipodi:guide
       orientation="horizontal"
       position="200"
       id="guide5596" />
  </sodipodi:namedview>
  <defs
     id="defs5498">
    <inkscape:perspective
       sodipodi:type="inkscape:persp3d"
       inkscape:vp_x="0 : 500 : 1"
       inkscape:vp_y="0 : 1000 : 0"
       inkscape:vp_z="1000 : 500 : 1"
       inkscape:persp3d-origin="500 : 333.33333 : 1"
       id="perspective8" />
    <inkscape:perspective
       sodipodi:type="inkscape:persp3d"
       inkscape:vp_x="0 : 526.18109 : 1"
       inkscape:vp_y="0 : 1000 : 0"
       inkscape:vp_z="744.09448 : 526.18109 : 1"
       inkscape:persp3d-origin="372.04724 : 350.78739 : 1"
       id="perspective2524" />
    <inkscape:perspective
       id="perspective2389"
       inkscape:persp3d-origin="500 : 333.33333 : 1"
       inkscape:vp_z="1000 : 500 : 1"
       inkscape:vp_y="0 : 1000 : 0"
       inkscape:vp_x="0 : 500 : 1"
       sodipodi:type="inkscape:persp3d" />
    <inkscape:perspective
       id="perspective2583"
       inkscape:persp3d-origin="372.04724 : 350.78739 : 1"
       inkscape:vp_z="744.09448 : 526.18109 : 1"
       inkscape:vp_y="0 : 1000 : 0"
       inkscape:vp_x="0 : 526.18109 : 1"
       sodipodi:type="inkscape:persp3d" />
  </defs>
  <g
     id="layer1"
     transform="translate(-204.84581,-24.229075)" />
  <g
     id="g2481"
     transform="translate(65.165855,11.591)">
    <g
       style="stroke:#000000;stroke-width:2;stroke-miterlimit:4;stroke-dasharray:none;stroke-opacity:1"
       transform="matrix(0.5,0,0,0.5,221.36564,169.60355)"
       id="g2483" />
    <path
       style="fill:none;fill-rule:evenodd;stroke:#000000;stroke-width:1;stroke-linecap:butt;stroke-linejoin:miter;stroke-miterlimit:4;stroke-dasharray:none;stroke-opacity:1"
       d="M 612.875,97 C 609.04124,97.174354 604.93634,99.313399 601.0625,103.75 C 587.75567,118.98993 582.40335,135.30924 577.09375,150.71875 C 572.31606,164.58456 574.83486,175.58261 577.09375,187.0625 C 577.10031,187.09586 584.60502,202.25901 589.96875,229.65625 C 608.36781,323.63649 651.85649,544.25667 671.59375,681.25 C 680.27143,741.48046 679.64809,774.26785 671.8125,789.46875 C 671.23183,790.59528 633.70391,796.45532 599.5,778.40625 C 571.93003,763.85783 554.33648,732.0846 542.34375,700.25 C 541.0764,696.68385 539.9741,693.64966 538.75,690.21875 L 538.90625,690.0625 C 508.14148,599.85708 489.75141,509.64293 468.8125,419.4375 C 466.6272,410.02323 461.89721,407.13379 458.6875,412.8125 L 438.4375,448.65625 C 435.54903,453.76661 435.18383,471.78072 436.8125,479.09375 L 480.5,675.25 C 477.77808,710.03756 439.06422,749.30319 352,761.6875 C 308.93636,767.81302 264.35707,763.94656 240.625,720.4375 C 234.92101,709.83566 226.88367,711.769 223.125,722 C 197.18016,792.62125 200.51634,854.12924 250.75,865.28125 C 301.93495,876.64442 386.52456,851.59142 443.125,821.65625 C 461.87846,811.73783 482.58602,769.76457 495.28125,730.15625 L 495.53125,729.90625 C 513.63662,785.87677 542.88022,848.92583 576.125,884.9375 C 593.4513,903.70585 660.49543,919.84135 684.875,868.53125 C 706.03074,824.00622 708.15625,776.25 708.15625,776.25 C 709.34189,775.91125 715.1493,675.85796 705.65625,609.96875 C 687.78578,485.93343 647.21985,279.92956 638.3125,226.78125 C 666.31317,221.3261 680.73022,203.50027 683.53125,193.46875 C 686.57306,182.57479 679.08669,176.02754 672.59375,169.1875 C 654.63481,150.26856 636.0126,132.71656 626.25,107.75 C 623.48121,100.66919 618.47818,96.745176 612.875,97 z"
       transform="translate(-270.01167,-35.820075)"
       id="path2530" />
  </g>
</svg>
