<?xml version="1.0" encoding="UTF-8" standalone="no"?>
<!-- Created with Inkscape (http://www.inkscape.org/) -->
<svg
   xmlns:dc="http://purl.org/dc/elements/1.1/"
   xmlns:cc="http://creativecommons.org/ns#"
   xmlns:rdf="http://www.w3.org/1999/02/22-rdf-syntax-ns#"
   xmlns:svg="http://www.w3.org/2000/svg"
   xmlns="http://www.w3.org/2000/svg"
   xmlns:sodipodi="http://sodipodi.sourceforge.net/DTD/sodipodi-0.dtd"
   xmlns:inkscape="http://www.inkscape.org/namespaces/inkscape"
   version="1.0"
   width="1000"
   height="1000"
   id="svg5496"
   sodipodi:version="0.32"
   inkscape:version="0.46"
   sodipodi:docname="lam+kaf.isol.svg"
   inkscape:output_extension="org.inkscape.output.svg.inkscape">
  <metadata
     id="metadata5594">
    <rdf:RDF>
      <cc:Work
         rdf:about="">
        <dc:format>image/svg+xml</dc:format>
        <dc:type
           rdf:resource="http://purl.org/dc/dcmitype/StillImage" />
      </cc:Work>
    </rdf:RDF>
  </metadata>
  <sodipodi:namedview
     inkscape:pageshadow="2"
     inkscape:pageopacity="0.0"
     guidetolerance="10.0"
     gridtolerance="10.0"
     objecttolerance="10.0"
     borderopacity="1.0"
     bordercolor="#666666"
     pagecolor="#ffffff"
     id="base"
     showgrid="false"
     showguides="true"
     inkscape:guide-bbox="true"
     inkscape:zoom="0.454"
     inkscape:cx="500"
     inkscape:cy="500"
     inkscape:window-x="0"
     inkscape:window-y="25"
     inkscape:current-layer="svg5496">
    <sodipodi:guide
       orientation="horizontal"
       position="200"
       id="guide5596" />
  </sodipodi:namedview>
  <defs
     id="defs5498">
    <inkscape:perspective
       sodipodi:type="inkscape:persp3d"
       inkscape:vp_x="0 : 500 : 1"
       inkscape:vp_y="0 : 1000 : 0"
       inkscape:vp_z="1000 : 500 : 1"
       inkscape:persp3d-origin="500 : 333.33333 : 1"
       id="perspective3295" />
  </defs>
  <g
     id="layer1" />
  <g
     id="g3297"
     transform="matrix(0.5,0,0,0.5,195.21554,119.06884)"
     style="stroke:#000000;stroke-width:2;stroke-miterlimit:4;stroke-dasharray:none;stroke-opacity:1" />
  <path
     style="fill:none;fill-rule:evenodd;stroke:#000000;stroke-width:1;stroke-linecap:butt;stroke-linejoin:miter;stroke-miterlimit:4;stroke-dasharray:none;stroke-opacity:1"
     d="M 644.94483,26.04922 L 615.35223,96.52628 C 611.61883,105.41754 613.05173,114.74536 614.18413,123.7826 C 640.15183,331.02452 663.56813,476.48278 667.13923,499.14104 C 673.63393,540.34907 654.08113,577.21407 631.67023,596.69997 C 565.47693,654.25369 390.65173,695.25884 275.25988,695.38494 C 155.19007,695.51619 117.14568,677.79759 77.112475,647.10389 C 35.869915,615.48297 36.068635,566.40755 72.172735,497.65051 C 77.344025,487.80226 72.478425,471.48848 58.652045,488.94562 C 0.093454802,562.8815 -1.5155752,686.71429 29.261675,731.55459 C 47.996045,758.84924 86.668795,792.87059 155.53293,800 C 299.01515,814.958 496.76983,785.07499 616.18083,700.54654 C 646.18263,679.30889 668.73193,634.32234 679.59923,600.3788 C 683.52833,589.46393 687.32553,576.95679 690.04563,593.77897 C 708.26493,706.45479 802.90803,852.9435 892.14323,768.58924 C 920.32723,741.94689 931.91273,625.69389 919.59823,554.23618 L 858.92243,202.15464 C 855.20963,187.83067 858.17323,181.30543 861.33043,176.0976 L 885.18983,137.80013 C 886.89213,134.35546 888.80583,133.59695 886.89063,126.5347 L 822.61243,43.43252 C 819.43943,41.69239 816.85873,38.17523 811.92013,41.73173 L 779.27953,106.65005 C 778.42513,111.90857 772.33663,114.17618 777.36843,122.79825 L 794.85453,151.81767 C 813.60443,259.46303 881.79043,626.65254 879.73853,670.78899 C 770.49283,719.05569 737.00243,541.5939 723.25153,484.04954 C 698.55663,363.01221 659.54033,67.82486 655.06853,33.44737 C 653.38693,20.51925 647.83113,19.17523 644.94483,26.04922 z"
     id="path2513"
     sodipodi:nodetypes="cssssssssssscssscccccccccccss" />
  <path
     style="fill:none;fill-rule:evenodd;stroke:#000000;stroke-width:1;stroke-linecap:butt;stroke-linejoin:miter;stroke-miterlimit:4;stroke-dasharray:none;stroke-opacity:1"
     d="M 375.10723,147.14515 C 325.47542,168.31914 261.91525,245.66131 243.10879,324.7006 C 237.23032,349.40646 252.88999,374.21083 286.7189,378.82386 L 338.11653,385.83263 C 347.48543,387.49432 340.72018,393.66127 334.22277,397.12453 C 308.6355,410.76312 233.5699,438.07143 182.36613,456.69906 C 179.07948,457.89472 178.90982,463.44969 183.92364,462.92907 C 230.01419,458.14322 287.71588,457.84676 318.29749,450.03648 C 346.32493,442.87851 382.85163,390.24135 394.18663,358.57631 C 397.23693,350.05522 412.35343,304.23634 361.86843,302.89554 C 325.65647,300.20615 280.64537,303.45987 287.10827,270.18796 C 290.72055,251.59147 311.86648,237.74626 341.62091,226.57785 C 345.02643,225.29958 349.00013,227.66216 353.30223,217.23283 L 379.00103,154.93267 C 380.75693,150.03116 381.29363,147.29676 375.10723,147.14515 z"
     id="path2515"
     sodipodi:nodetypes="csscssssscssscc" />
</svg>
