<?xml version="1.0" encoding="UTF-8" standalone="no"?>
<!-- Created with Inkscape (http://www.inkscape.org/) -->
<svg
   xmlns:dc="http://purl.org/dc/elements/1.1/"
   xmlns:cc="http://creativecommons.org/ns#"
   xmlns:rdf="http://www.w3.org/1999/02/22-rdf-syntax-ns#"
   xmlns:svg="http://www.w3.org/2000/svg"
   xmlns="http://www.w3.org/2000/svg"
   xmlns:sodipodi="http://sodipodi.sourceforge.net/DTD/sodipodi-0.dtd"
   xmlns:inkscape="http://www.inkscape.org/namespaces/inkscape"
   version="1.0"
   width="1000"
   height="1000"
   id="svg5496"
   sodipodi:version="0.32"
   inkscape:version="0.46"
   sodipodi:docname="lam+lam.init.svg"
   inkscape:output_extension="org.inkscape.output.svg.inkscape">
  <metadata
     id="metadata5594">
    <rdf:RDF>
      <cc:Work
         rdf:about="">
        <dc:format>image/svg+xml</dc:format>
        <dc:type
           rdf:resource="http://purl.org/dc/dcmitype/StillImage" />
      </cc:Work>
    </rdf:RDF>
  </metadata>
  <sodipodi:namedview
     inkscape:pageshadow="2"
     inkscape:pageopacity="0.0"
     guidetolerance="10.0"
     gridtolerance="10.0"
     objecttolerance="10.0"
     borderopacity="1.0"
     bordercolor="#666666"
     pagecolor="#ffffff"
     id="base"
     showgrid="false"
     showguides="true"
     inkscape:guide-bbox="true"
     inkscape:zoom="0.64205296"
     inkscape:cx="218.98056"
     inkscape:cy="514.74071"
     inkscape:window-x="0"
     inkscape:window-y="25"
     inkscape:current-layer="svg5496">
    <sodipodi:guide
       orientation="horizontal"
       position="200"
       id="guide5596" />
  </sodipodi:namedview>
  <defs
     id="defs5498">
    <inkscape:perspective
       sodipodi:type="inkscape:persp3d"
       inkscape:vp_x="0 : 500 : 1"
       inkscape:vp_y="0 : 1000 : 0"
       inkscape:vp_z="1000 : 500 : 1"
       inkscape:persp3d-origin="500 : 333.33333 : 1"
       id="perspective8" />
    <inkscape:perspective
       id="perspective2457"
       inkscape:persp3d-origin="372.04724 : 350.78739 : 1"
       inkscape:vp_z="744.09448 : 526.18109 : 1"
       inkscape:vp_y="0 : 1000 : 0"
       inkscape:vp_x="0 : 526.18109 : 1"
       sodipodi:type="inkscape:persp3d" />
  </defs>
  <g
     id="layer1"
     transform="matrix(0.5,0,0,0.5,-129.98485,329.85783)"
     style="stroke:#000000;stroke-opacity:1" />
  <path
     style="fill:none;fill-rule:evenodd;stroke:#000000;stroke-width:1;stroke-linecap:butt;stroke-linejoin:miter;stroke-miterlimit:4;stroke-dasharray:none;stroke-opacity:1"
     d="M 204.81691,125.01202 L 190.43292,188.49929 C 187.86009,199.85514 189.37021,210.71164 190.11035,217.07831 C 208.67866,376.80202 248.32396,616.79307 241.32181,695.53573 C 218.79124,721.20941 153.51764,710.35674 125.77974,620.7613 C 83.277742,483.8661 72.408622,264.13459 58.341142,143.18382 C 56.623782,128.4181 47.480472,122.65006 39.068012,138.50321 L 15.303222,183.28758 C 8.634332,195.85501 10.588312,208.30295 11.999262,220.73252 L 56.850442,615.84449 C 53.103382,673.25561 22.431152,693.57492 1.1277617,710.33677 L 1.3949917,800 C 36.829462,785.94173 62.677072,704.55168 71.557002,676.77413 C 119.98372,795.76006 167.27692,835.56958 211.42484,825.45255 C 253.51366,815.80737 275.47076,737.69313 280.8081,695.4966 C 292.11984,606.06709 256.18874,413.14427 243.36317,271.48779 C 241.60077,263.55941 245.21089,257.78004 248.4804,251.86442 C 248.4804,251.86442 264.94313,234.83583 271.08516,228.66986 C 277.69398,222.03527 277.02114,210.56732 273.03204,207.74475 C 250.73066,191.96492 239.88675,159.57185 226.26501,125.14563 C 221.38342,112.80839 207.98981,111.00761 204.81691,125.01202 z"
     id="path2483"
     sodipodi:nodetypes="csscsssssccccssccssss" />
</svg>
