<?xml version="1.0" encoding="UTF-8" standalone="no"?>
<!-- Created with Inkscape (http://www.inkscape.org/) -->
<svg
   xmlns:dc="http://purl.org/dc/elements/1.1/"
   xmlns:cc="http://creativecommons.org/ns#"
   xmlns:rdf="http://www.w3.org/1999/02/22-rdf-syntax-ns#"
   xmlns:svg="http://www.w3.org/2000/svg"
   xmlns="http://www.w3.org/2000/svg"
   xmlns:sodipodi="http://sodipodi.sourceforge.net/DTD/sodipodi-0.dtd"
   xmlns:inkscape="http://www.inkscape.org/namespaces/inkscape"
   version="1.0"
   width="1000"
   height="1000"
   id="svg5496"
   sodipodi:version="0.32"
   inkscape:version="0.46"
   sodipodi:docname="lam+lam+haa.init.svg"
   inkscape:output_extension="org.inkscape.output.svg.inkscape">
  <metadata
     id="metadata5594">
    <rdf:RDF>
      <cc:Work
         rdf:about="">
        <dc:format>image/svg+xml</dc:format>
        <dc:type
           rdf:resource="http://purl.org/dc/dcmitype/StillImage" />
      </cc:Work>
    </rdf:RDF>
  </metadata>
  <sodipodi:namedview
     inkscape:pageshadow="2"
     inkscape:pageopacity="0.0"
     guidetolerance="10.0"
     gridtolerance="10.0"
     objecttolerance="10.0"
     borderopacity="1.0"
     bordercolor="#666666"
     pagecolor="#ffffff"
     id="base"
     showgrid="false"
     showguides="true"
     inkscape:guide-bbox="true"
     inkscape:zoom="0.454"
     inkscape:cx="625.64125"
     inkscape:cy="706.90305"
     inkscape:window-x="0"
     inkscape:window-y="25"
     inkscape:current-layer="svg5496">
    <sodipodi:guide
       orientation="horizontal"
       position="200"
       id="guide5596" />
  </sodipodi:namedview>
  <defs
     id="defs5498">
    <inkscape:perspective
       sodipodi:type="inkscape:persp3d"
       inkscape:vp_x="0 : 500 : 1"
       inkscape:vp_y="0 : 1000 : 0"
       inkscape:vp_z="1000 : 500 : 1"
       inkscape:persp3d-origin="500 : 333.33333 : 1"
       id="perspective8" />
    <inkscape:perspective
       id="perspective2388"
       inkscape:persp3d-origin="372.04724 : 350.78739 : 1"
       inkscape:vp_z="744.09448 : 526.18109 : 1"
       inkscape:vp_y="0 : 1000 : 0"
       inkscape:vp_x="0 : 526.18109 : 1"
       sodipodi:type="inkscape:persp3d" />
  </defs>
  <g
     id="layer1"
     transform="translate(-220.26432,14.749046)" />
  <path
     style="fill:none;fill-rule:evenodd;stroke:#000000;stroke-width:1px;stroke-linecap:butt;stroke-linejoin:miter;stroke-opacity:1"
     d="M 437.00234,28.849062 L 396.11693,92.291929 C 391.87033,98.881481 392.51621,101.87753 394.18524,108.86703 C 417.00674,204.43793 448.95561,323.5223 457.13519,387.16346 C 459.3145,396.53008 453.72471,407.36815 445.80452,411.52787 C 410.28333,425.60667 362.59586,395.66433 342.18355,350.8043 C 314.35155,289.63803 299.30651,165.92794 286.50353,45.208595 C 285.66458,37.298168 278.34602,36.413178 276.14625,39.222487 L 241.47194,83.50482 C 239.26869,86.318578 237.7594,91.910001 237.9907,95.192919 C 244.9148,193.47063 271.70963,341.88371 252.94035,386.23549 C 238.77385,419.71091 218.99596,445.89815 182.52225,467.84099 C 150.37164,487.18302 106.51377,504.71376 44.952163,507.72023 C 41.900543,507.86926 38.344973,509.63995 36.612003,513.16894 L -2.9533672,593.73907 C -6.1403272,599.13384 -2.8689572,600.74371 2.1959528,600.86145 C 84.802093,602.8152 167.13906,611.3096 230.31049,642.87542 C 167.8457,656.24624 80.333933,697.91008 2.4587428,707.92078 L 1.4518928,800 C 39.911803,800 191.09659,710.72909 271.63159,687.49237 C 335.67419,669.01419 525.40516,662.25806 565.78672,659.63865 C 573.07005,659.1662 575.97995,654.34301 577.17046,648.19972 L 588.47468,589.86737 C 590.10112,584.46489 586.81172,583.04283 582.04254,583.02505 C 449.99163,582.52625 324.78734,579.16718 172.58838,538.88436 C 256.55492,479.19573 281.63151,421.24763 282.80945,345.02236 C 300.75481,437.27836 331.9291,525.26032 415.55899,514.79029 C 471.67752,507.76454 494.97721,421.38731 499.53059,367.14999 C 502.29375,334.62614 481.37888,239.37168 469.70991,177.59069 L 496.96624,124.63556 C 470.58536,99.48843 454.28162,62.405622 437.00234,28.849062 z"
     id="path2394"
     sodipodi:nodetypes="cssccssssssssscccccsssccccssccc" />
</svg>
