<?xml version="1.0" encoding="UTF-8" standalone="no"?>
<!-- Created with Inkscape (http://www.inkscape.org/) -->
<svg
   xmlns:dc="http://purl.org/dc/elements/1.1/"
   xmlns:cc="http://creativecommons.org/ns#"
   xmlns:rdf="http://www.w3.org/1999/02/22-rdf-syntax-ns#"
   xmlns:svg="http://www.w3.org/2000/svg"
   xmlns="http://www.w3.org/2000/svg"
   xmlns:sodipodi="http://sodipodi.sourceforge.net/DTD/sodipodi-0.dtd"
   xmlns:inkscape="http://www.inkscape.org/namespaces/inkscape"
   version="1.0"
   width="1000"
   height="1000"
   id="svg5496"
   sodipodi:version="0.32"
   inkscape:version="0.46"
   sodipodi:docname="lam+meem.fina.svg"
   inkscape:output_extension="org.inkscape.output.svg.inkscape">
  <metadata
     id="metadata5594">
    <rdf:RDF>
      <cc:Work
         rdf:about="">
        <dc:format>image/svg+xml</dc:format>
        <dc:type
           rdf:resource="http://purl.org/dc/dcmitype/StillImage" />
      </cc:Work>
    </rdf:RDF>
  </metadata>
  <sodipodi:namedview
     inkscape:pageshadow="2"
     inkscape:pageopacity="0.0"
     guidetolerance="10.0"
     gridtolerance="10.0"
     objecttolerance="10.0"
     borderopacity="1.0"
     bordercolor="#666666"
     pagecolor="#ffffff"
     id="base"
     showgrid="false"
     showguides="true"
     inkscape:guide-bbox="true"
     inkscape:zoom="0.454"
     inkscape:cx="679.85396"
     inkscape:cy="464.02245"
     inkscape:window-x="0"
     inkscape:window-y="25"
     inkscape:current-layer="svg5496">
    <sodipodi:guide
       orientation="horizontal"
       position="200"
       id="guide5596" />
  </sodipodi:namedview>
  <defs
     id="defs5498">
    <inkscape:perspective
       sodipodi:type="inkscape:persp3d"
       inkscape:vp_x="0 : 500 : 1"
       inkscape:vp_y="0 : 1000 : 0"
       inkscape:vp_z="1000 : 500 : 1"
       inkscape:persp3d-origin="500 : 333.33333 : 1"
       id="perspective3401" />
    <inkscape:perspective
       sodipodi:type="inkscape:persp3d"
       inkscape:vp_x="0 : 526.18109 : 1"
       inkscape:vp_y="0 : 1000 : 0"
       inkscape:vp_z="744.09448 : 526.18109 : 1"
       inkscape:persp3d-origin="372.04724 : 350.78739 : 1"
       id="perspective2504" />
    <inkscape:perspective
       id="perspective2389"
       inkscape:persp3d-origin="500 : 333.33333 : 1"
       inkscape:vp_z="1000 : 500 : 1"
       inkscape:vp_y="0 : 1000 : 0"
       inkscape:vp_x="0 : 500 : 1"
       sodipodi:type="inkscape:persp3d" />
  </defs>
  <g
     id="layer1" />
  <g
     id="g3403"
     transform="translate(330.39648,-667.40088)" />
  <g
     id="g3405"
     transform="matrix(0.5,0,0,0.5,67.180554,807.26875)" />
  <path
     style="fill:none;fill-rule:evenodd;stroke:#000000;stroke-width:1;stroke-linecap:butt;stroke-linejoin:miter;stroke-miterlimit:4;stroke-dasharray:none;stroke-opacity:1"
     d="M 252.68541,549.38318 C 274.62795,690.79379 321.09378,770.31227 386.63077,801.69882 L 389.74577,695.78855 C 343.57277,674.81646 306.47985,587.89862 297.85305,527.57813 C 274.33021,363.10119 260.55613,208.37301 242.56167,49.424448 C 240.80295,30.073648 232.89599,25.8767 225.03974,35.990965 L 200.66754,84.39331 C 197.70203,90.97437 194.06548,94.89405 195.05207,107.40327 C 226.72979,376.5598 227.1206,444.63913 231.41262,513.79666 C 234.53244,564.06642 227.09179,607.903 212.19031,652.17844 C 189.76554,712.26297 161.57081,721.73035 124.05775,738.56456 C 113.44207,743.32841 90.67123,753.21203 88.95283,776 L 84.54182,834.49515 C 92.01354,838.50759 97.99551,840.86375 106.28006,846.08768 C 32.9784,869.39797 3.6972,944.82136 1.81661,994.4083 C 0.06115,1040.6959 8.15593,1113.0726 10.51306,1127.0335 C 16.62782,1163.2501 26.57925,1212.8883 37.17718,1267.3984 C 53.07916,1349.1897 57.73021,1427.2809 57.73021,1427.2809 C 55.94976,1469.853 85.6956,1463.2649 88.70755,1421.5854 C 89.28833,1413.5484 94.66343,1372.4054 87.98784,1300.5377 C 83.72937,1254.6921 71.82995,1209.7706 62.6989,1164.0706 C 47.99016,1090.4547 26.81708,1007.4194 31.78711,986.8528 C 74.62754,923.29904 202.83115,918.77118 274.49046,916.95411 C 286.7469,916.64332 298.94343,919.19134 301.88041,906.80741 C 305.72477,892.19991 316.31499,844.28587 316.31499,844.28587 C 318.96846,829.2597 310.18113,826.246 303.43122,821.56174 C 268.64801,797.42313 266.09723,792.15715 196.84335,758.77298 C 256.2875,661.03932 247.96266,648.77873 252.68541,549.38318 z"
     id="path2572"
     sodipodi:nodetypes="cccsccccscsscczsscssscsccscc" />
</svg>
