<?xml version="1.0" encoding="UTF-8" standalone="no"?>
<!-- Created with Inkscape (http://www.inkscape.org/) -->

<svg
   xmlns:dc="http://purl.org/dc/elements/1.1/"
   xmlns:cc="http://creativecommons.org/ns#"
   xmlns:rdf="http://www.w3.org/1999/02/22-rdf-syntax-ns#"
   xmlns:svg="http://www.w3.org/2000/svg"
   xmlns="http://www.w3.org/2000/svg"
   xmlns:sodipodi="http://sodipodi.sourceforge.net/DTD/sodipodi-0.dtd"
   xmlns:inkscape="http://www.inkscape.org/namespaces/inkscape"
   version="1.0"
   width="1000"
   height="1000"
   id="svg5496"
   sodipodi:version="0.32"
   inkscape:version="0.47pre0 r21549"
   sodipodi:docname="lam+alef.isol.svg"
   inkscape:output_extension="org.inkscape.output.svg.inkscape">
  <metadata
     id="metadata5594">
    <rdf:RDF>
      <cc:Work
         rdf:about="">
        <dc:format>image/svg+xml</dc:format>
        <dc:type
           rdf:resource="http://purl.org/dc/dcmitype/StillImage" />
      </cc:Work>
    </rdf:RDF>
  </metadata>
  <sodipodi:namedview
     inkscape:pageshadow="2"
     inkscape:pageopacity="0.0"
     guidetolerance="10.0"
     gridtolerance="10.0"
     objecttolerance="10.0"
     borderopacity="1.0"
     bordercolor="#666666"
     pagecolor="#ffffff"
     id="base"
     showgrid="false"
     showguides="true"
     inkscape:guide-bbox="true"
     inkscape:zoom="0.236"
     inkscape:cx="368.64407"
     inkscape:cy="500"
     inkscape:window-x="0"
     inkscape:window-y="25"
     inkscape:current-layer="svg5496">
    <sodipodi:guide
       orientation="horizontal"
       position="200"
       id="guide5596" />
  </sodipodi:namedview>
  <defs
     id="defs5498">
    <inkscape:perspective
       sodipodi:type="inkscape:persp3d"
       inkscape:vp_x="0 : 500 : 1"
       inkscape:vp_y="0 : 1000 : 0"
       inkscape:vp_z="1000 : 500 : 1"
       inkscape:persp3d-origin="500 : 333.33333 : 1"
       id="perspective8" />
    <inkscape:perspective
       id="perspective2477"
       inkscape:persp3d-origin="372.04724 : 350.78739 : 1"
       inkscape:vp_z="744.09448 : 526.18109 : 1"
       inkscape:vp_y="0 : 1000 : 0"
       inkscape:vp_x="0 : 526.18109 : 1"
       sodipodi:type="inkscape:persp3d" />
  </defs>
  <g
     id="layer1"
     transform="matrix(0.5,0,0,0.5,83.260624,225.73458)" />
  <path
     style="fill:#000000;fill-rule:evenodd;stroke:#000000;stroke-width:1px;stroke-linecap:butt;stroke-linejoin:miter;stroke-opacity:1;stroke-miterlimit:4;stroke-dasharray:none"
     d="M 493.03125 28.34375 C 490.5325 28.530606 488.02211 29.846017 486 32.5625 C 475.85251 46.194529 466.62918 62.434645 460.1875 82.5 L 457.0625 113.625 C 471.61538 260.95465 467.25133 453.73939 414.09375 551.5625 C 303.5971 304.14085 99.34971 112.79901 36.625 47.40625 C 29.62673 40.110296 13.82817 35.804346 11.625 56 L 2.28125 141.65625 C 0.021609993 162.36957 5.39124 170.4082 15.375 181.4375 L 87.9375 261.59375 C 95.67456 270.14106 106.52002 269.82035 113.3125 265.15625 L 128.53125 254.71875 C 188.87353 308.20516 322.81005 473.06266 388.53125 599.375 C 360.48751 641.93811 326.50743 686.83809 281.96875 712.90625 C 272.75328 715.41997 247.42992 712.7529 233.3125 711.59375 C 230.47988 711.36117 221.70772 718.40616 219.0625 721.6875 C 209.5196 733.52527 204.88216 778.39155 216.15625 796.78125 C 219.61041 802.4155 227.88901 807.3792 236 808.09375 C 252.20272 809.52105 394.99379 809.33035 441.59375 795.4375 C 453.55776 791.87065 471.87328 761.1322 470.53125 729.40625 C 468.93956 691.77838 450.41759 639.13384 434.34375 595 C 489.54922 466.08918 518.64752 328.14482 508.46875 154.125 L 539.59375 126.09375 C 546.53285 119.84856 549.19194 104.87296 539.96875 95.03125 C 524.2435 78.25144 513.80621 57.062889 503.5 35.3125 C 501.37464 30.827116 497.19584 28.032323 493.03125 28.34375 z M 405.5625 644.75 C 412.6507 660.68003 419.31146 677.43039 421.34375 702.75 C 409.63867 707.58632 368.64624 712.24797 352.875 712.53125 C 371.62336 690.20433 390.47739 667.07692 405.5625 644.75 z "
     id="path2483" />
</svg>
