<?xml version="1.0" encoding="UTF-8" standalone="no"?>
<!-- Created with Inkscape (http://www.inkscape.org/) -->
<svg
   xmlns:dc="http://purl.org/dc/elements/1.1/"
   xmlns:cc="http://creativecommons.org/ns#"
   xmlns:rdf="http://www.w3.org/1999/02/22-rdf-syntax-ns#"
   xmlns:svg="http://www.w3.org/2000/svg"
   xmlns="http://www.w3.org/2000/svg"
   xmlns:sodipodi="http://sodipodi.sourceforge.net/DTD/sodipodi-0.dtd"
   xmlns:inkscape="http://www.inkscape.org/namespaces/inkscape"
   version="1.0"
   width="1000"
   height="1000"
   id="svg5496"
   sodipodi:version="0.32"
   inkscape:version="0.46"
   sodipodi:docname="lam+heh.isol.svg"
   inkscape:output_extension="org.inkscape.output.svg.inkscape">
  <metadata
     id="metadata5594">
    <rdf:RDF>
      <cc:Work
         rdf:about="">
        <dc:format>image/svg+xml</dc:format>
        <dc:type
           rdf:resource="http://purl.org/dc/dcmitype/StillImage" />
      </cc:Work>
    </rdf:RDF>
  </metadata>
  <sodipodi:namedview
     inkscape:pageshadow="2"
     inkscape:pageopacity="0.0"
     guidetolerance="10.0"
     gridtolerance="10.0"
     objecttolerance="10.0"
     borderopacity="1.0"
     bordercolor="#666666"
     pagecolor="#ffffff"
     id="base"
     showgrid="false"
     showguides="true"
     inkscape:guide-bbox="true"
     inkscape:zoom="0.32102648"
     inkscape:cx="687.22281"
     inkscape:cy="79.968516"
     inkscape:window-x="0"
     inkscape:window-y="25"
     inkscape:current-layer="svg5496">
    <sodipodi:guide
       orientation="horizontal"
       position="200"
       id="guide5596" />
  </sodipodi:namedview>
  <defs
     id="defs5498">
    <inkscape:perspective
       sodipodi:type="inkscape:persp3d"
       inkscape:vp_x="0 : 500 : 1"
       inkscape:vp_y="0 : 1000 : 0"
       inkscape:vp_z="1000 : 500 : 1"
       inkscape:persp3d-origin="500 : 333.33333 : 1"
       id="perspective2389" />
    <inkscape:perspective
       id="perspective2524"
       inkscape:persp3d-origin="372.04724 : 350.78739 : 1"
       inkscape:vp_z="744.09448 : 526.18109 : 1"
       inkscape:vp_y="0 : 1000 : 0"
       inkscape:vp_x="0 : 526.18109 : 1"
       sodipodi:type="inkscape:persp3d" />
  </defs>
  <g
     id="layer1"
     transform="matrix(0.5,0,0,0.5,221.36564,169.60355)"
     style="stroke:#000000;stroke-opacity:1;stroke-width:2;stroke-miterlimit:4;stroke-dasharray:none" />
  <path
     style="fill:none;fill-rule:evenodd;stroke:#000000;stroke-width:1;stroke-linecap:butt;stroke-linejoin:miter;stroke-opacity:1;stroke-miterlimit:4;stroke-dasharray:none"
     d="M 307.09074,114.88844 C 302.31306,128.75425 304.83185,139.75219 307.09074,151.23208 C 307.09731,151.26544 314.60193,166.43227 319.96566,193.82951 C 338.36475,287.80975 381.84946,508.44 401.58672,645.43333 C 410.2644,705.6638 409.63999,738.45411 401.8044,753.65501 C 401.2237,754.78155 363.67678,760.62955 329.47287,742.58048 C 301.90292,728.03208 284.32638,696.25841 272.33365,664.42381 C 232.8557,559.62988 212.37708,424.35985 212.37708,424.35985 C 208.59081,415.492 208.85494,396.90318 195.46789,411.07719 L 175.51048,457.33269 C 172.88793,466.99709 174.1903,480.04127 174.86534,485.84491 L 180.89494,525.68144 C 137.16415,546.47562 98.473812,572.43051 64.088064,606.72305 C 64.088064,606.72305 52.763752,618.64667 46.533746,635.60172 C 43.115168,644.90542 26.088438,687.98394 20.613572,704.02873 C 14.030336,723.32171 29.142006,740.69124 37.022692,747.51472 C 49.147334,758.01283 120.62062,762.26757 165.47644,753.59967 C 175.55383,750.8899 182.66874,745.42568 191.0626,729.48128 C 195.72968,720.80243 206.46481,702.99797 215.74786,660.43205 C 231.64772,722.69161 265.97776,805.62865 306.12578,849.1181 C 323.45208,867.88645 390.49676,884.03045 414.87633,832.72035 C 436.03207,788.1953 438.14801,740.43915 438.14801,740.43915 C 439.33364,740.10039 445.12598,640.04207 435.63293,574.15286 C 417.76245,450.11757 377.21592,244.0948 368.30857,190.94649 C 396.30925,185.49135 410.72853,167.67112 413.52956,157.6396 C 416.5714,146.74564 409.07609,140.1952 402.58315,133.35516 C 384.62424,114.43622 366.01198,96.903452 356.24938,71.936895 C 351.58615,60.01132 340.5882,57.00012 331.05259,67.920985 C 317.74577,83.160912 312.40034,99.478932 307.09074,114.88844 z"
     id="path2530"
     sodipodi:nodetypes="csssssscccccsssscccsscscsssss" />
  <path
     style="fill:none;fill-rule:evenodd;stroke:#000000;stroke-width:1;stroke-linecap:butt;stroke-linejoin:miter;stroke-opacity:1;stroke-miterlimit:4;stroke-dasharray:none"
     d="M 191.38354,577.62268 C 163.65332,584.07861 100.99387,610.43407 77.296396,656.27663 C 105.42233,678.51226 166.79387,668.36272 190.21541,659.39164 C 220.56265,647.76782 195.49606,601.48094 191.38354,577.62268 z"
     id="path2552"
     sodipodi:nodetypes="ccsc" />
</svg>
