<?xml version="1.0" encoding="UTF-8" standalone="no"?>
<!-- Created with Inkscape (http://www.inkscape.org/) -->
<svg
   xmlns:dc="http://purl.org/dc/elements/1.1/"
   xmlns:cc="http://creativecommons.org/ns#"
   xmlns:rdf="http://www.w3.org/1999/02/22-rdf-syntax-ns#"
   xmlns:svg="http://www.w3.org/2000/svg"
   xmlns="http://www.w3.org/2000/svg"
   xmlns:sodipodi="http://sodipodi.sourceforge.net/DTD/sodipodi-0.dtd"
   xmlns:inkscape="http://www.inkscape.org/namespaces/inkscape"
   version="1.0"
   width="1000"
   height="1000"
   id="svg5496"
   sodipodi:version="0.32"
   inkscape:version="0.46"
   sodipodi:docname="lam+qaf.fina.svg"
   inkscape:output_extension="org.inkscape.output.svg.inkscape">
  <metadata
     id="metadata5594">
    <rdf:RDF>
      <cc:Work
         rdf:about="">
        <dc:format>image/svg+xml</dc:format>
        <dc:type
           rdf:resource="http://purl.org/dc/dcmitype/StillImage" />
      </cc:Work>
    </rdf:RDF>
  </metadata>
  <sodipodi:namedview
     inkscape:pageshadow="2"
     inkscape:pageopacity="0.0"
     guidetolerance="10.0"
     gridtolerance="10.0"
     objecttolerance="10.0"
     borderopacity="1.0"
     bordercolor="#666666"
     pagecolor="#ffffff"
     id="base"
     showgrid="false"
     showguides="true"
     inkscape:guide-bbox="true"
     inkscape:zoom="0.236"
     inkscape:cx="500"
     inkscape:cy="500"
     inkscape:window-x="0"
     inkscape:window-y="25"
     inkscape:current-layer="svg5496">
    <sodipodi:guide
       orientation="horizontal"
       position="200"
       id="guide5596" />
  </sodipodi:namedview>
  <defs
     id="defs5498">
    <inkscape:perspective
       sodipodi:type="inkscape:persp3d"
       inkscape:vp_x="0 : 500 : 1"
       inkscape:vp_y="0 : 1000 : 0"
       inkscape:vp_z="1000 : 500 : 1"
       inkscape:persp3d-origin="500 : 333.33333 : 1"
       id="perspective8" />
    <inkscape:perspective
       id="perspective2388"
       inkscape:persp3d-origin="372.04724 : 350.78739 : 1"
       inkscape:vp_z="744.09448 : 526.18109 : 1"
       inkscape:vp_y="0 : 1000 : 0"
       inkscape:vp_x="0 : 526.18109 : 1"
       sodipodi:type="inkscape:persp3d" />
    <inkscape:perspective
       sodipodi:type="inkscape:persp3d"
       inkscape:vp_x="0 : 526.18109 : 1"
       inkscape:vp_y="0 : 1000 : 0"
       inkscape:vp_z="744.09448 : 526.18109 : 1"
       inkscape:persp3d-origin="372.04724 : 350.78739 : 1"
       id="perspective2405" />
    <inkscape:perspective
       id="perspective2403"
       inkscape:persp3d-origin="500 : 333.33333 : 1"
       inkscape:vp_z="1000 : 500 : 1"
       inkscape:vp_y="0 : 1000 : 0"
       inkscape:vp_x="0 : 500 : 1"
       sodipodi:type="inkscape:persp3d" />
    <inkscape:perspective
       sodipodi:type="inkscape:persp3d"
       inkscape:vp_x="0 : 526.18109 : 1"
       inkscape:vp_y="0 : 1000 : 0"
       inkscape:vp_z="744.09448 : 526.18109 : 1"
       inkscape:persp3d-origin="372.04724 : 350.78739 : 1"
       id="perspective2422" />
    <inkscape:perspective
       id="perspective2420"
       inkscape:persp3d-origin="500 : 333.33333 : 1"
       inkscape:vp_z="1000 : 500 : 1"
       inkscape:vp_y="0 : 1000 : 0"
       inkscape:vp_x="0 : 500 : 1"
       sodipodi:type="inkscape:persp3d" />
  </defs>
  <g
     id="layer1"
     transform="matrix(1.3,0,0,1.3,52.864722,51.2)" />
  <path
     style="fill:#000000;fill-opacity:1;fill-rule:evenodd;stroke:#000000;stroke-width:1px;stroke-linecap:butt;stroke-linejoin:miter;stroke-opacity:1"
     d="M 765.50847,6.390627 C 762.99612,6.335663 760.64321,7.734203 759.13035,10.290627 C 748.00522,29.089667 734.42471,55.93697 728.05222,72.56875 C 722.37303,87.39105 724.06072,92.92405 724.35535,99.86875 C 730.72246,249.9473 771.44078,479.14328 737.23347,549.425 C 717.6798,589.59966 668.47681,607.36724 612.65204,614.95313 C 603.01551,557.03078 581.04648,513.76085 529.68035,472.92813 C 517.52342,464.96425 500.16979,468.40631 493.5241,471.87188 C 453.9462,492.51077 426.31381,541.7273 411.6241,573.35313 C 368.06423,667.13417 407.24379,719.24673 487.1866,724.39688 C 523.06724,726.50422 554.98411,723.87038 582.81785,718.62813 C 583.27467,720.24118 583.41832,729.5458 583.34597,733.17188 C 580.97259,800.98536 469.18109,903.75114 253.30847,905.95 C 38.318874,908.15443 20.085819,698.66405 102.95535,570.91563 C 110.81312,558.80238 95.172731,548.29825 87.924097,560.88125 C -47.676077,796.27145 -38.633197,1008.3237 247.58035,1009.0157 C 319.18495,1009.1874 533.80521,961.08735 587.00222,818.32188 C 601.50766,779.39344 609.84931,743.76295 613.6116,711.39688 C 638.98202,704.76718 666.19592,692.20275 689.9866,678.16563 C 738.97662,647.38727 760.73984,561.77567 770.66785,536.30313 C 778.61592,649.82377 782.85636,772.05997 906.15222,800 L 906.15222,687.59063 C 860.89246,680.75324 836.89709,642.06712 831.88972,613.53125 C 808.70997,482.15078 798.92058,232.76652 776.96472,24.184377 C 775.66557,11.842164 770.30478,6.49555 765.50847,6.390627 z M 517.45017,598.04823 C 523.47099,606.22125 523.29654,615.75918 515.77108,617.22741 C 492.63076,621.74213 460.55687,616.59644 449.57639,603.26669 C 447.41975,600.64863 447.88939,594.06187 450.39579,590.35956 C 475.08686,553.88737 495.30037,567.98072 517.45017,598.04823 z"
     id="path2426"
     sodipodi:nodetypes="cssssccssccccsscsccccccsccssss" />
</svg>
