<?xml version="1.0" encoding="UTF-8" standalone="no"?>
<!-- Created with Inkscape (http://www.inkscape.org/) -->
<svg
   xmlns:dc="http://purl.org/dc/elements/1.1/"
   xmlns:cc="http://creativecommons.org/ns#"
   xmlns:rdf="http://www.w3.org/1999/02/22-rdf-syntax-ns#"
   xmlns:svg="http://www.w3.org/2000/svg"
   xmlns="http://www.w3.org/2000/svg"
   xmlns:sodipodi="http://sodipodi.sourceforge.net/DTD/sodipodi-0.dtd"
   xmlns:inkscape="http://www.inkscape.org/namespaces/inkscape"
   version="1.0"
   width="1000"
   height="1000"
   id="svg5496"
   sodipodi:version="0.32"
   inkscape:version="0.46"
   sodipodi:docname="lam+yaa.isol.svg"
   inkscape:output_extension="org.inkscape.output.svg.inkscape">
  <metadata
     id="metadata5594">
    <rdf:RDF>
      <cc:Work
         rdf:about="">
        <dc:format>image/svg+xml</dc:format>
        <dc:type
           rdf:resource="http://purl.org/dc/dcmitype/StillImage" />
      </cc:Work>
    </rdf:RDF>
  </metadata>
  <sodipodi:namedview
     inkscape:pageshadow="2"
     inkscape:pageopacity="0.0"
     guidetolerance="10.0"
     gridtolerance="10.0"
     objecttolerance="10.0"
     borderopacity="1.0"
     bordercolor="#666666"
     pagecolor="#ffffff"
     id="base"
     showgrid="false"
     showguides="true"
     inkscape:guide-bbox="true"
     inkscape:zoom="0.32102648"
     inkscape:cx="303.73414"
     inkscape:cy="434.48177"
     inkscape:window-x="0"
     inkscape:window-y="25"
     inkscape:current-layer="svg5496">
    <sodipodi:guide
       orientation="horizontal"
       position="200"
       id="guide5596" />
  </sodipodi:namedview>
  <defs
     id="defs5498">
    <inkscape:perspective
       sodipodi:type="inkscape:persp3d"
       inkscape:vp_x="0 : 500 : 1"
       inkscape:vp_y="0 : 1000 : 0"
       inkscape:vp_z="1000 : 500 : 1"
       inkscape:persp3d-origin="500 : 333.33333 : 1"
       id="perspective2389" />
    <inkscape:perspective
       id="perspective2487"
       inkscape:persp3d-origin="372.04724 : 350.78739 : 1"
       inkscape:vp_z="744.09448 : 526.18109 : 1"
       inkscape:vp_y="0 : 1000 : 0"
       inkscape:vp_x="0 : 526.18109 : 1"
       sodipodi:type="inkscape:persp3d" />
  </defs>
  <g
     id="layer1"
     transform="translate(-180,0)" />
  <path
     style="fill:#000000;fill-rule:evenodd;stroke:#000000;stroke-width:1px;stroke-linecap:butt;stroke-linejoin:miter;stroke-opacity:1"
     d="M 413.61234,36.343612 C 413.61234,36.343612 395.27685,91.071917 397.09251,113.43612 C 398.31156,128.45172 415.53965,155.28634 415.53965,155.28634 C 434.94185,279.83595 460.40131,402.18291 479.80351,526.73251 C 482.53753,544.28315 486.92353,560.6396 486.38967,579.29787 C 486.26774,583.55926 483.64377,591.71628 474.70525,597.06025 C 459.32768,606.25385 421.3537,608.13572 401.4145,626.26669 C 389.16199,637.40805 382.53727,660.04824 386.0793,685.02203 C 458.84438,691.9894 525.98416,705.16041 573.59462,721.63406 C 576.72589,722.71751 584.30913,726.80398 585.42,731.95988 C 586.2997,736.04284 581.23299,741.37724 579.94608,742.34089 C 449.16811,840.26889 345.50863,860.35615 264.93392,863.43612 C 154.51039,867.65706 83.06955,783.56347 77.84287,700.57415 C 74.47688,647.12908 115.76982,572.71959 127.54405,549.83481 C 139.31828,526.95002 134.32525,514.41642 113.73029,540.55994 C 93.13533,566.70346 56.47145,640.71248 42.10463,715.11394 C 32.75905,763.51189 34.9982,799.82984 45.77093,837.00441 C 67.02627,910.35243 128.87788,954.06277 206.37177,966.72988 C 265.91219,976.46233 310.49259,967.30171 380.57268,944.93392 C 450.65277,922.56613 550.89249,866.86414 611.17266,800 C 618.46535,779.92247 624.55962,749.52326 626.03378,727.39523 C 627.36441,707.42157 621.04469,690.69148 613.11894,677.7207 C 593.62238,645.81384 524.08351,633.56298 504.7548,629.1772 C 504.7548,629.1772 513.5197,588.36976 515.90488,548.48999 C 518.65631,502.48676 512.97858,456.33093 513.8326,451.54185 C 515.55949,441.85805 472.67713,169.84684 467.85242,161.61894 C 463.25858,153.78476 488.22687,124.17401 488.22687,124.17401 C 497.48239,111.20705 494.83584,100.03359 479.69163,90.583701 C 462.3062,79.735314 448.3483,55.849349 435.63877,26.707049 C 432.80782,20.21582 420.17259,12.354523 413.61234,36.343612 z"
     id="path2513"
     sodipodi:nodetypes="cscsssscssssszzssszcsscsssssss" />
</svg>
