<?xml version="1.0" encoding="UTF-8" standalone="no"?>
<!-- Created with Inkscape (http://www.inkscape.org/) -->
<svg
   xmlns:dc="http://purl.org/dc/elements/1.1/"
   xmlns:cc="http://creativecommons.org/ns#"
   xmlns:rdf="http://www.w3.org/1999/02/22-rdf-syntax-ns#"
   xmlns:svg="http://www.w3.org/2000/svg"
   xmlns="http://www.w3.org/2000/svg"
   xmlns:sodipodi="http://sodipodi.sourceforge.net/DTD/sodipodi-0.dtd"
   xmlns:inkscape="http://www.inkscape.org/namespaces/inkscape"
   version="1.0"
   width="1000"
   height="1000"
   id="svg5496"
   sodipodi:version="0.32"
   inkscape:version="0.46"
   sodipodi:docname="lam_alef.isol.svg"
   inkscape:output_extension="org.inkscape.output.svg.inkscape">
  <metadata
     id="metadata5594">
    <rdf:RDF>
      <cc:Work
         rdf:about="">
        <dc:format>image/svg+xml</dc:format>
        <dc:type
           rdf:resource="http://purl.org/dc/dcmitype/StillImage" />
      </cc:Work>
    </rdf:RDF>
  </metadata>
  <sodipodi:namedview
     inkscape:pageshadow="2"
     inkscape:pageopacity="0.0"
     guidetolerance="10.0"
     gridtolerance="10.0"
     objecttolerance="10.0"
     borderopacity="1.0"
     bordercolor="#666666"
     pagecolor="#ffffff"
     id="base"
     showgrid="false"
     showguides="true"
     inkscape:guide-bbox="true"
     inkscape:zoom="0.606"
     inkscape:cx="486.79868"
     inkscape:cy="500"
     inkscape:window-x="0"
     inkscape:window-y="25"
     inkscape:current-layer="svg5496">
    <sodipodi:guide
       orientation="horizontal"
       position="200"
       id="guide5596" />
  </sodipodi:namedview>
  <defs
     id="defs5498">
    <inkscape:perspective
       sodipodi:type="inkscape:persp3d"
       inkscape:vp_x="0 : 500 : 1"
       inkscape:vp_y="0 : 1000 : 0"
       inkscape:vp_z="1000 : 500 : 1"
       inkscape:persp3d-origin="500 : 333.33333 : 1"
       id="perspective8" />
    <inkscape:perspective
       id="perspective2477"
       inkscape:persp3d-origin="372.04724 : 350.78739 : 1"
       inkscape:vp_z="744.09448 : 526.18109 : 1"
       inkscape:vp_y="0 : 1000 : 0"
       inkscape:vp_x="0 : 526.18109 : 1"
       sodipodi:type="inkscape:persp3d" />
  </defs>
  <g
     id="layer1"
     transform="matrix(0.5,0,0,0.5,83.260624,225.73458)" />
  <path
     style="fill:none;fill-rule:evenodd;stroke:#000000;stroke-width:1px;stroke-linecap:butt;stroke-linejoin:miter;stroke-opacity:1;stroke-miterlimit:4;stroke-dasharray:none"
     d="M 486.009,32.550858 C 475.86151,46.182887 466.61825,62.420102 460.17657,82.485457 L 457.06156,113.63554 C 471.61444,260.96519 467.24607,453.74636 414.08849,551.56947 C 303.59184,304.14782 99.354694,112.79524 36.629984,47.402482 C 29.631714,40.106528 13.818614,35.812238 11.615444,56.007892 L 2.270424,141.67061 C 0.010783993,162.38393 5.391834,170.413 15.375594,181.4423 L 87.933134,261.59841 C 95.670194,270.14572 106.5169,269.8337 113.30938,265.1696 L 128.52271,254.72325 C 188.86499,308.20966 322.81019,473.07546 388.53139,599.3878 C 360.48765,641.95091 326.51466,686.84468 281.97598,712.91284 C 272.76051,715.42656 247.4238,712.74601 233.30638,711.58686 C 230.47376,711.35428 221.71273,718.41617 219.06751,721.69751 C 209.52461,733.53528 204.87409,778.39578 216.14818,796.78548 C 219.60234,802.41973 227.87949,807.38688 235.99048,808.10143 C 252.1932,809.52873 394.98104,809.34533 441.581,795.45248 C 453.54501,791.88563 471.87047,761.11808 470.52844,729.39213 C 468.93675,691.76426 450.40988,639.13256 434.33604,594.99872 C 489.54151,466.0879 518.63796,328.15046 508.45919,154.13064 L 539.60927,126.09557 C 546.54837,119.85038 549.19416,104.88167 539.97097,95.039962 C 524.24572,78.260152 513.80946,57.054547 503.50325,35.304158 C 500.10268,28.127543 491.40129,25.306903 486.009,32.550858 z"
     id="path2483"
     sodipodi:nodetypes="ccccsssssscccssssssccssss" />
  <path
     style="fill:none;fill-rule:evenodd;stroke:#000000;stroke-width:1px;stroke-linecap:butt;stroke-linejoin:miter;stroke-opacity:1;stroke-miterlimit:4;stroke-dasharray:none"
     d="M 405.56946,644.73627 C 390.48435,667.06319 371.63802,690.21611 352.88966,712.54303 C 368.6609,712.25975 409.62837,707.57815 421.33345,702.74183 C 419.30116,677.42222 412.65766,660.6663 405.56946,644.73627 z"
     id="path2485"
     sodipodi:nodetypes="cccc" />
</svg>
