<?xml version="1.0" encoding="UTF-8" standalone="no"?>
<!-- Created with Inkscape (http://www.inkscape.org/) -->
<svg
   xmlns:dc="http://purl.org/dc/elements/1.1/"
   xmlns:cc="http://creativecommons.org/ns#"
   xmlns:rdf="http://www.w3.org/1999/02/22-rdf-syntax-ns#"
   xmlns:svg="http://www.w3.org/2000/svg"
   xmlns="http://www.w3.org/2000/svg"
   xmlns:sodipodi="http://sodipodi.sourceforge.net/DTD/sodipodi-0.dtd"
   xmlns:inkscape="http://www.inkscape.org/namespaces/inkscape"
   version="1.0"
   width="1000"
   height="1000"
   id="svg5496"
   sodipodi:version="0.32"
   inkscape:version="0.46"
   sodipodi:docname="lam.fina.svg"
   inkscape:output_extension="org.inkscape.output.svg.inkscape">
  <metadata
     id="metadata5594">
    <rdf:RDF>
      <cc:Work
         rdf:about="">
        <dc:format>image/svg+xml</dc:format>
        <dc:type
           rdf:resource="http://purl.org/dc/dcmitype/StillImage" />
      </cc:Work>
    </rdf:RDF>
  </metadata>
  <sodipodi:namedview
     inkscape:pageshadow="2"
     inkscape:pageopacity="0.0"
     guidetolerance="10.0"
     gridtolerance="10.0"
     objecttolerance="10.0"
     borderopacity="1.0"
     bordercolor="#666666"
     pagecolor="#ffffff"
     id="base"
     showgrid="false"
     showguides="true"
     inkscape:guide-bbox="true"
     inkscape:zoom="0.227"
     inkscape:cx="343.85635"
     inkscape:cy="-136.60303"
     inkscape:window-x="0"
     inkscape:window-y="28"
     inkscape:current-layer="svg5496"
     inkscape:window-height="743">
    <sodipodi:guide
       orientation="horizontal"
       position="200"
       id="guide5596" />
  </sodipodi:namedview>
  <defs
     id="defs5498">
    <inkscape:perspective
       sodipodi:type="inkscape:persp3d"
       inkscape:vp_x="0 : 500 : 1"
       inkscape:vp_y="0 : 1000 : 0"
       inkscape:vp_z="1000 : 500 : 1"
       inkscape:persp3d-origin="500 : 333.33333 : 1"
       id="perspective2389" />
    <inkscape:perspective
       id="perspective2487"
       inkscape:persp3d-origin="372.04724 : 350.78739 : 1"
       inkscape:vp_z="744.09448 : 526.18109 : 1"
       inkscape:vp_y="0 : 1000 : 0"
       inkscape:vp_x="0 : 526.18109 : 1"
       sodipodi:type="inkscape:persp3d" />
  </defs>
  <g
     id="layer1"
     transform="translate(-220,0)" />
  <path
     style="fill:none;fill-rule:evenodd;stroke:#000000;stroke-width:1px;stroke-linecap:butt;stroke-linejoin:miter;stroke-opacity:1"
     d="M 366.45375,227.42291 C 362.80701,240.9119 360.93816,256.75042 364.2511,278.0837 L 460.06608,974.66961 C 405.29489,1029.0499 335.49861,1072.8732 249.163,1073.9912 C 140.58011,1075.3974 95.66216,1040.5989 77.90749,992.29075 C 51.2752,919.82777 75.89199,870.90914 124.71365,792.84141 C 139.02346,769.95947 118.86908,757.13748 109.84582,768.72247 C 57.26626,836.2295 23.75476,930.52814 17.88546,974.11895 C 8.8593,1041.1555 26.90505,1088.0534 62.40342,1127.3241 C 93.57448,1161.8076 143.35422,1186.9221 200.70485,1185.022 C 269.54698,1182.7411 369.8588,1145.8073 425.72247,1097.3235 C 456.28071,1070.8021 472.51651,1035.7113 480.44053,991.74009 C 495.76392,900.1478 479.54448,807.41985 471.07929,717.51102 C 484.44049,740.43287 536.61034,800 586.71806,800 C 587.31664,788.81949 586.16098,741.679 586.1674,718.06167 C 551.90802,698.21459 523.43967,659.69945 503.56828,627.75331 C 457.39274,553.5194 438.96961,355.67466 414.9119,214.20705 C 410.86505,190.41021 405.87911,148.12646 390.13216,169.60352 C 383.16369,183.19306 374.11544,207.36801 366.45375,227.42291 z"
     id="path2493"
     sodipodi:nodetypes="cccsssssccsccccsscc" />
</svg>
