<?xml version="1.0" encoding="UTF-8" standalone="no"?>
<!-- Created with Inkscape (http://www.inkscape.org/) -->
<svg
   xmlns:dc="http://purl.org/dc/elements/1.1/"
   xmlns:cc="http://creativecommons.org/ns#"
   xmlns:rdf="http://www.w3.org/1999/02/22-rdf-syntax-ns#"
   xmlns:svg="http://www.w3.org/2000/svg"
   xmlns="http://www.w3.org/2000/svg"
   xmlns:sodipodi="http://sodipodi.sourceforge.net/DTD/sodipodi-0.dtd"
   xmlns:inkscape="http://www.inkscape.org/namespaces/inkscape"
   version="1.0"
   width="1000"
   height="1000"
   id="svg5496"
   sodipodi:version="0.32"
   inkscape:version="0.46"
   sodipodi:docname="lellah.svg"
   inkscape:output_extension="org.inkscape.output.svg.inkscape">
  <metadata
     id="metadata5594">
    <rdf:RDF>
      <cc:Work
         rdf:about="">
        <dc:format>image/svg+xml</dc:format>
        <dc:type
           rdf:resource="http://purl.org/dc/dcmitype/StillImage" />
      </cc:Work>
    </rdf:RDF>
  </metadata>
  <sodipodi:namedview
     inkscape:pageshadow="2"
     inkscape:pageopacity="0.0"
     guidetolerance="10.0"
     gridtolerance="10.0"
     objecttolerance="10.0"
     borderopacity="1.0"
     bordercolor="#666666"
     pagecolor="#ffffff"
     id="base"
     showgrid="false"
     showguides="true"
     inkscape:guide-bbox="true"
     inkscape:zoom="0.454"
     inkscape:cx="576.42097"
     inkscape:cy="684.87661"
     inkscape:window-x="0"
     inkscape:window-y="25"
     inkscape:current-layer="svg5496">
    <sodipodi:guide
       orientation="horizontal"
       position="200"
       id="guide5596" />
  </sodipodi:namedview>
  <defs
     id="defs5498">
    <inkscape:perspective
       sodipodi:type="inkscape:persp3d"
       inkscape:vp_x="0 : 500 : 1"
       inkscape:vp_y="0 : 1000 : 0"
       inkscape:vp_z="1000 : 500 : 1"
       inkscape:persp3d-origin="500 : 333.33333 : 1"
       id="perspective8" />
    <inkscape:perspective
       id="perspective2388"
       inkscape:persp3d-origin="372.04724 : 350.78739 : 1"
       inkscape:vp_z="744.09448 : 526.18109 : 1"
       inkscape:vp_y="0 : 1000 : 0"
       inkscape:vp_x="0 : 526.18109 : 1"
       sodipodi:type="inkscape:persp3d" />
  </defs>
  <g
     id="layer1"
     transform="translate(-76.069458,-267.30507)" />
  <path
     style="fill:none;fill-rule:evenodd;stroke:#000000;stroke-width:1px;stroke-linecap:butt;stroke-linejoin:miter;stroke-opacity:1"
     d="M 576.98087,284.1338 C 573.9121,270.9756 563.48072,267.93196 559.39214,274.3994 C 549.28334,290.38978 542.2622,306.91887 537.78177,316.25732 C 531.63458,329.06977 531.15806,341.3206 533.25083,351.10647 C 544.73173,404.79158 565.89705,491.14844 580.48673,552.90995 C 594.5613,612.49088 610.87259,659.23796 599.88725,665.52758 C 581.1079,676.27963 530.99058,661.5393 495.35415,616.94182 C 461.86053,570.03074 441.84059,382.87169 418.57165,281.93116 C 416.58259,273.30265 406.91769,269.44077 402.54043,275.79562 L 368.27534,325.54127 C 361.52195,335.34576 361.919,345.17986 364.24797,357.33648 C 375.36636,415.37158 392.95792,504.37655 405.64591,565.45534 C 413.27508,602.18146 420.8892,628.45928 419.31126,632.82573 C 401.28102,682.71886 317.80567,695.86882 286.82895,675.06728 C 230.14029,636.99961 238.76619,460.01779 232.31632,393.15907 C 231.65855,386.34065 224.02904,378.31767 217.39215,389.49341 C 209.44333,402.87828 193.41103,433.51635 183.31029,456.3716 C 181.08918,461.39736 178.25681,468.82925 178.99948,476.8081 L 183.83901,528.80117 C 126.44378,537.33007 -12.401322,625.60409 1.4163617,715.56238 C 5.6690067,743.36853 85.708322,764.03832 148.21111,752.55315 C 162.48744,749.92981 189.74167,711.80225 206.75112,691.55469 C 215.85707,727.03004 226.2498,799.85435 318.70244,799.38418 C 354.97771,799.1997 403.89158,798.55292 450.82305,691.64917 C 494.37571,752.54121 520.28755,792.38077 584.86286,787.11305 C 639.62356,782.64596 648.27575,649.20017 646.51789,612.12199 C 644.76003,575.04381 601.24447,388.1707 576.98087,284.1338 z"
     id="path2394"
     sodipodi:nodetypes="cssssscssssssssssscsscscszs" />
  <path
     style="fill:none;fill-rule:evenodd;stroke:#000000;stroke-width:1px;stroke-linecap:butt;stroke-linejoin:miter;stroke-opacity:1"
     d="M 187.42403,578.98812 C 189.59957,598.25762 192.03803,617.52712 195.66774,636.79662 C 187.97391,645.71616 173.30266,651.87417 160.67114,652.74146 C 135.64712,654.45963 99.267132,653.93513 85.910952,644.58414 C 102.4091,612.63276 168.63584,583.1377 187.42403,578.98812 z"
     id="path2416"
     sodipodi:nodetypes="ccscc" />
</svg>
