<?xml version="1.0" encoding="UTF-8" standalone="no"?>
<!-- Created with Inkscape (http://www.inkscape.org/) -->

<svg
   xmlns:dc="http://purl.org/dc/elements/1.1/"
   xmlns:cc="http://creativecommons.org/ns#"
   xmlns:rdf="http://www.w3.org/1999/02/22-rdf-syntax-ns#"
   xmlns:svg="http://www.w3.org/2000/svg"
   xmlns="http://www.w3.org/2000/svg"
   xmlns:sodipodi="http://sodipodi.sourceforge.net/DTD/sodipodi-0.dtd"
   xmlns:inkscape="http://www.inkscape.org/namespaces/inkscape"
   version="1.0"
   width="1000"
   height="1000"
   id="svg5496"
   sodipodi:version="0.32"
   inkscape:version="0.47pre0 r21549"
   sodipodi:docname="lellah.svg"
   inkscape:output_extension="org.inkscape.output.svg.inkscape">
  <metadata
     id="metadata5594">
    <rdf:RDF>
      <cc:Work
         rdf:about="">
        <dc:format>image/svg+xml</dc:format>
        <dc:type
           rdf:resource="http://purl.org/dc/dcmitype/StillImage" />
      </cc:Work>
    </rdf:RDF>
  </metadata>
  <sodipodi:namedview
     inkscape:pageshadow="2"
     inkscape:pageopacity="0.0"
     guidetolerance="10.0"
     gridtolerance="10.0"
     objecttolerance="10.0"
     borderopacity="1.0"
     bordercolor="#666666"
     pagecolor="#ffffff"
     id="base"
     showgrid="false"
     showguides="true"
     inkscape:guide-bbox="true"
     inkscape:zoom="0.454"
     inkscape:cx="118.27119"
     inkscape:cy="420.55943"
     inkscape:window-x="0"
     inkscape:window-y="25"
     inkscape:current-layer="svg5496">
    <sodipodi:guide
       orientation="horizontal"
       position="200"
       id="guide5596" />
  </sodipodi:namedview>
  <defs
     id="defs5498">
    <inkscape:perspective
       sodipodi:type="inkscape:persp3d"
       inkscape:vp_x="0 : 500 : 1"
       inkscape:vp_y="0 : 1000 : 0"
       inkscape:vp_z="1000 : 500 : 1"
       inkscape:persp3d-origin="500 : 333.33333 : 1"
       id="perspective8" />
    <inkscape:perspective
       id="perspective2388"
       inkscape:persp3d-origin="372.04724 : 350.78739 : 1"
       inkscape:vp_z="744.09448 : 526.18109 : 1"
       inkscape:vp_y="0 : 1000 : 0"
       inkscape:vp_x="0 : 526.18109 : 1"
       sodipodi:type="inkscape:persp3d" />
  </defs>
  <g
     id="layer1"
     transform="translate(-76.069458,-267.30507)" />
  <path
     style="fill:#000000;fill-rule:evenodd;stroke:#000000;stroke-width:1px;stroke-linecap:butt;stroke-linejoin:miter;stroke-opacity:1"
     d="M 565.3125 271.125 C 562.96477 271.07593 560.8117 272.18307 559.40625 274.40625 C 549.29745 290.39663 542.26168 306.91155 537.78125 316.25 C 531.63406 329.06245 531.15723 341.30788 533.25 351.09375 C 544.7309 404.77886 565.91032 491.14474 580.5 552.90625 C 594.57457 612.48718 610.86034 659.24163 599.875 665.53125 C 581.09565 676.2833 530.98018 661.53498 495.34375 616.9375 C 461.85013 570.02642 441.83144 382.87803 418.5625 281.9375 C 416.57344 273.30899 406.90851 269.4264 402.53125 275.78125 L 368.28125 325.53125 C 361.52786 335.33574 361.92103 345.18713 364.25 357.34375 C 375.36839 415.37885 392.96826 504.38996 405.65625 565.46875 C 413.28542 602.19487 420.89044 628.44605 419.3125 632.8125 C 401.28226 682.70563 317.82047 695.86404 286.84375 675.0625 C 230.15509 636.99483 238.76237 460.01497 232.3125 393.15625 C 231.65473 386.33783 224.04314 378.32426 217.40625 389.5 C 209.45743 402.88487 193.41324 433.51975 183.3125 456.375 C 181.09139 461.40076 178.25733 468.83365 179 476.8125 L 183.84375 528.8125 C 126.44852 537.3414 -12.411434 625.60421 1.40625 715.5625 C 5.658895 743.36865 85.715962 764.04767 148.21875 752.5625 C 162.49508 749.93916 189.74055 711.81006 206.75 691.5625 C 215.85595 727.03785 226.23486 799.84517 318.6875 799.375 C 354.96277 799.19052 403.88103 798.56 450.8125 691.65625 C 494.36516 752.54829 520.29969 792.39272 584.875 787.125 C 639.6357 782.65791 648.28911 649.20318 646.53125 612.125 C 644.77339 575.04682 601.23235 388.1619 576.96875 284.125 C 574.95487 275.48993 569.79454 271.21867 565.3125 271.125 z M 187.4375 579 C 189.61304 598.2695 192.02654 617.51175 195.65625 636.78125 C 187.96242 645.70079 173.28777 651.88271 160.65625 652.75 C 135.63223 654.46817 99.26243 653.94474 85.90625 644.59375 C 102.4044 612.64237 168.64931 583.14958 187.4375 579 z "
     id="path2394" />
</svg>
