<?xml version="1.0" encoding="UTF-8" standalone="no"?>
<!-- Created with Inkscape (http://www.inkscape.org/) -->

<svg
   xmlns:dc="http://purl.org/dc/elements/1.1/"
   xmlns:cc="http://creativecommons.org/ns#"
   xmlns:rdf="http://www.w3.org/1999/02/22-rdf-syntax-ns#"
   xmlns:svg="http://www.w3.org/2000/svg"
   xmlns="http://www.w3.org/2000/svg"
   xmlns:sodipodi="http://sodipodi.sourceforge.net/DTD/sodipodi-0.dtd"
   xmlns:inkscape="http://www.inkscape.org/namespaces/inkscape"
   version="1.0"
   width="1000"
   height="1000"
   id="svg5496"
   sodipodi:version="0.32"
   inkscape:version="0.47pre0 r21549"
   sodipodi:docname="meem+raa.isol.svg"
   inkscape:output_extension="org.inkscape.output.svg.inkscape">
  <metadata
     id="metadata5594">
    <rdf:RDF>
      <cc:Work
         rdf:about="">
        <dc:format>image/svg+xml</dc:format>
        <dc:type
           rdf:resource="http://purl.org/dc/dcmitype/StillImage" />
        <dc:title></dc:title>
      </cc:Work>
    </rdf:RDF>
  </metadata>
  <sodipodi:namedview
     inkscape:window-height="618"
     inkscape:pageshadow="2"
     inkscape:pageopacity="0.0"
     borderopacity="1.0"
     bordercolor="#666666"
     pagecolor="#ffffff"
     id="base"
     showgrid="false"
     showguides="true"
     inkscape:guide-bbox="true"
     inkscape:zoom="0.64205296"
     inkscape:cx="247.0552"
     inkscape:cy="500.12344"
     inkscape:window-x="0"
     inkscape:window-y="25"
     inkscape:current-layer="svg5496">
    <sodipodi:guide
       orientation="horizontal"
       position="200"
       id="guide5596" />
  </sodipodi:namedview>
  <defs
     id="defs5498">
    <inkscape:perspective
       sodipodi:type="inkscape:persp3d"
       inkscape:vp_x="0 : 500 : 1"
       inkscape:vp_y="0 : 1000 : 0"
       inkscape:vp_z="1000 : 500 : 1"
       inkscape:persp3d-origin="500 : 333.33333 : 1"
       id="perspective8" />
    <inkscape:perspective
       id="perspective2836"
       inkscape:persp3d-origin="0.5 : 0.33333333 : 1"
       inkscape:vp_z="1 : 0.5 : 1"
       inkscape:vp_y="0 : 1000 : 0"
       inkscape:vp_x="0 : 0.5 : 1"
       sodipodi:type="inkscape:persp3d" />
  </defs>
  <g
     id="layer1"
     transform="translate(85.662716,0)" />
  <path
     style="color:#000000;fill:none;stroke:#000000;stroke-width:1px;stroke-linecap:butt;stroke-linejoin:miter;stroke-miterlimit:4;stroke-opacity:1;stroke-dasharray:none;stroke-dashoffset:0;marker:none;visibility:visible;display:inline;overflow:visible;enable-background:accumulate"
     d="m 624.93813,486.82884 -20.40983,-7.98645 c -12.8891,-5.04356 -16.39363,-10.01972 -13.34162,-22.0582 8.73948,-34.47233 13.80171,-64.21053 34.43544,-95.12095 5.81594,-8.71259 13.18018,-14.54633 23.50895,-14.92753 26.78833,-0.98868 90.0463,15.47788 119.64207,31.05469 34.84545,20.60156 40.8049,64.32801 36.19569,101.05198 -5.11361,26.46442 -23.45806,53.51452 -55.99815,70.20994 C 661.84697,593.75309 500.96156,633.25552 413.82217,693.8444 363.18255,729.05463 301.81946,801.46105 264.19081,856.4182 210.72673,934.50321 172.43179,1013.1652 91.312435,996.46353 34.063667,984.67656 -4.7918596,935.93344 3.0992604,851.18162 7.7071574,801.69211 26.379989,740.96935 67.634018,666.61771 c 5.516707,-9.9427 18.122267,-3.30422 13.766517,7.15859 -15.059926,36.17501 -45.258924,83.51489 -50.541828,130.09435 -4.250296,37.47494 13.792201,82.82292 62.530418,97.10201 64.896965,19.0132 99.702855,-18.57353 131.530405,-73.28584 36.16856,-65.75476 111.74986,-176.18757 164.99899,-217.1514 79.60491,-61.23897 156.34379,-85.96487 236.31637,-116.74872 4.85415,-1.86851 4.45936,-4.70547 -1.29676,-6.95786 z"
     id="path2842"
     sodipodi:nodetypes="cssssccssssssssscsss" />
</svg>
