<?xml version="1.0" encoding="UTF-8" standalone="no"?>
<!-- Created with Inkscape (http://www.inkscape.org/) -->
<svg
   xmlns:dc="http://purl.org/dc/elements/1.1/"
   xmlns:cc="http://creativecommons.org/ns#"
   xmlns:rdf="http://www.w3.org/1999/02/22-rdf-syntax-ns#"
   xmlns:svg="http://www.w3.org/2000/svg"
   xmlns="http://www.w3.org/2000/svg"
   xmlns:sodipodi="http://sodipodi.sourceforge.net/DTD/sodipodi-0.dtd"
   xmlns:inkscape="http://www.inkscape.org/namespaces/inkscape"
   version="1.0"
   width="1000"
   height="1000"
   id="svg5496"
   sodipodi:version="0.32"
   inkscape:version="0.46"
   sodipodi:docname="meem+haa.init.svg"
   inkscape:output_extension="org.inkscape.output.svg.inkscape">
  <metadata
     id="metadata5594">
    <rdf:RDF>
      <cc:Work
         rdf:about="">
        <dc:format>image/svg+xml</dc:format>
        <dc:type
           rdf:resource="http://purl.org/dc/dcmitype/StillImage" />
      </cc:Work>
    </rdf:RDF>
  </metadata>
  <sodipodi:namedview
     inkscape:pageshadow="2"
     inkscape:pageopacity="0.0"
     guidetolerance="10.0"
     gridtolerance="10.0"
     objecttolerance="10.0"
     borderopacity="1.0"
     bordercolor="#666666"
     pagecolor="#ffffff"
     id="base"
     showgrid="false"
     showguides="true"
     inkscape:guide-bbox="true"
     inkscape:zoom="0.64205296"
     inkscape:cx="417.70864"
     inkscape:cy="606.60223"
     inkscape:window-x="0"
     inkscape:window-y="25"
     inkscape:current-layer="svg5496">
    <sodipodi:guide
       orientation="horizontal"
       position="200"
       id="guide5596" />
  </sodipodi:namedview>
  <defs
     id="defs5498">
    <inkscape:perspective
       sodipodi:type="inkscape:persp3d"
       inkscape:vp_x="0 : 500 : 1"
       inkscape:vp_y="0 : 1000 : 0"
       inkscape:vp_z="1000 : 500 : 1"
       inkscape:persp3d-origin="500 : 333.33333 : 1"
       id="perspective8" />
    <inkscape:perspective
       id="perspective2388"
       inkscape:persp3d-origin="372.04724 : 350.78739 : 1"
       inkscape:vp_z="744.09448 : 526.18109 : 1"
       inkscape:vp_y="0 : 1000 : 0"
       inkscape:vp_x="0 : 526.18109 : 1"
       sodipodi:type="inkscape:persp3d" />
    <inkscape:perspective
       sodipodi:type="inkscape:persp3d"
       inkscape:vp_x="0 : 526.18109 : 1"
       inkscape:vp_y="0 : 1000 : 0"
       inkscape:vp_z="744.09448 : 526.18109 : 1"
       inkscape:persp3d-origin="372.04724 : 350.78739 : 1"
       id="perspective2574" />
    <inkscape:perspective
       sodipodi:type="inkscape:persp3d"
       inkscape:vp_x="0 : 526.18109 : 1"
       inkscape:vp_y="0 : 1000 : 0"
       inkscape:vp_z="744.09448 : 526.18109 : 1"
       inkscape:persp3d-origin="372.04724 : 350.78739 : 1"
       id="perspective2477" />
    <inkscape:perspective
       id="perspective2443"
       inkscape:persp3d-origin="500 : 333.33333 : 1"
       inkscape:vp_z="1000 : 500 : 1"
       inkscape:vp_y="0 : 1000 : 0"
       inkscape:vp_x="0 : 500 : 1"
       sodipodi:type="inkscape:persp3d" />
  </defs>
  <g
     id="layer1"
     transform="translate(-199.3605,120.79736)" />
  <g
     id="g2447"
     transform="translate(-4.2341822,14.86784)">
    <g
       transform="matrix(1.3,0,0,1.3,15.063458,-240)"
       id="g2449" />
    <path
       sodipodi:nodetypes="ccssccsssssssssssssssc"
       id="path2483"
       d="M 325.82282,379.36801 C 262.77535,395.92338 19.533555,463.83582 18.877078,579.98594 C 111.25055,591.90972 202.09261,609.12408 270.98087,633.78231 C 276.70652,635.83179 277.68832,638.13889 271.14777,639.49761 C 199.33282,654.41629 81.915376,683.56887 5.8324313,691.31983 L 6.3467115,785.13216 C 74.762876,777.16954 161.3672,734.13956 258.96535,705.6898 C 346.00228,680.31864 442.44584,664.02808 540.60045,683.11737 C 548.33749,684.62208 557.49267,677.08715 560.07422,670.03786 L 578.84762,618.77431 C 584.29823,603.89063 572.97532,591.18172 562.42419,591.35201 C 427.00181,593.53764 271.95655,554.21768 137.25496,514.08753 C 128.42693,511.45749 130.64245,509.24155 136.15147,505.7048 C 172.38577,482.44268 278.23105,447.50474 450.8065,437.02307 C 457.73125,436.60248 462.76292,435.29588 467.85398,430.95372 C 486.82577,414.77271 508.29689,378.66644 512.95879,350.08351 C 514.71248,339.33133 512.1064,333.25124 506.91294,324.28801 C 491.66478,297.97167 429.73868,248.57651 383.64082,244.1912 C 375.53454,243.42004 368.86181,244.24578 362.22169,249.05372 C 330.22277,272.2233 313.77518,315.95286 307.38251,342.10791 C 306.04355,347.5862 305.07844,352.67523 308.2402,357.28033 C 313.62343,365.12101 320.79999,372.96711 325.82282,379.36801 z"
       style="fill:none;fill-rule:evenodd;stroke:#000000;stroke-width:1px;stroke-linecap:butt;stroke-linejoin:miter;stroke-opacity:1" />
  </g>
</svg>
