<?xml version="1.0" encoding="UTF-8" standalone="no"?>
<!-- Created with Inkscape (http://www.inkscape.org/) -->

<svg
   xmlns:dc="http://purl.org/dc/elements/1.1/"
   xmlns:cc="http://creativecommons.org/ns#"
   xmlns:rdf="http://www.w3.org/1999/02/22-rdf-syntax-ns#"
   xmlns:svg="http://www.w3.org/2000/svg"
   xmlns="http://www.w3.org/2000/svg"
   xmlns:sodipodi="http://sodipodi.sourceforge.net/DTD/sodipodi-0.dtd"
   xmlns:inkscape="http://www.inkscape.org/namespaces/inkscape"
   version="1.0"
   width="1000"
   height="1000"
   id="svg5496"
   sodipodi:version="0.32"
   inkscape:version="0.47pre0 r21549"
   sodipodi:docname="meem.medi.svg"
   inkscape:output_extension="org.inkscape.output.svg.inkscape">
  <metadata
     id="metadata5594">
    <rdf:RDF>
      <cc:Work
         rdf:about="">
        <dc:format>image/svg+xml</dc:format>
        <dc:type
           rdf:resource="http://purl.org/dc/dcmitype/StillImage" />
        <dc:title></dc:title>
      </cc:Work>
    </rdf:RDF>
  </metadata>
  <sodipodi:namedview
     inkscape:window-height="618"
     inkscape:pageshadow="2"
     inkscape:pageopacity="0.0"
     borderopacity="1.0"
     bordercolor="#666666"
     pagecolor="#ffffff"
     id="base"
     showgrid="false"
     showguides="true"
     inkscape:guide-bbox="true"
     inkscape:zoom="0.454"
     inkscape:cx="404.43407"
     inkscape:cy="614.99953"
     inkscape:window-x="0"
     inkscape:window-y="25"
     inkscape:current-layer="svg5496">
    <sodipodi:guide
       orientation="horizontal"
       position="200"
       id="guide5596" />
  </sodipodi:namedview>
  <defs
     id="defs5498">
    <inkscape:perspective
       sodipodi:type="inkscape:persp3d"
       inkscape:vp_x="0 : 500 : 1"
       inkscape:vp_y="0 : 1000 : 0"
       inkscape:vp_z="1000 : 500 : 1"
       inkscape:persp3d-origin="500 : 333.33333 : 1"
       id="perspective8" />
    <inkscape:perspective
       id="perspective2822"
       inkscape:persp3d-origin="0.5 : 0.33333333 : 1"
       inkscape:vp_z="1 : 0.5 : 1"
       inkscape:vp_y="0 : 1000 : 0"
       inkscape:vp_x="0 : 0.5 : 1"
       sodipodi:type="inkscape:persp3d" />
  </defs>
  <g
     id="layer1"
     transform="translate(-191.62996,265.69364)" />
  <path
     style="color:#000000;fill:none;stroke:#000000;stroke-width:1px;stroke-linecap:butt;stroke-linejoin:miter;stroke-miterlimit:4;stroke-opacity:1;stroke-dasharray:none;stroke-dashoffset:0;marker:none;visibility:visible;display:inline;overflow:visible;enable-background:accumulate"
     d="m 512.36181,709.27537 c -52.3385,-8.15135 -104.58945,-32.30944 -149.79985,-68.27894 -36.66362,-29.16967 -68.69703,-66.77363 -92.39201,-104.604 -1.30848,-2.08906 -7.04862,-2.69565 -9.35399,-1.97258 C 184.25173,558.43401 153.75827,658.32752 126.87958,669.55904 97.704324,681.75021 37.532834,692.82188 8.5092941,699.54099 L -0.05697595,800 C 39.203514,779.89565 82.436694,737.99322 121.60292,706.88664 c 4.46933,-3.54962 5.41018,-3.24181 9.30168,0.27361 36.27942,32.77332 116.94096,104.44112 193.77799,109.58292 27.41679,1.83468 33.79712,-46.69952 28.03507,-79.04333 54.85449,40.85527 108.42102,59.81526 161.20166,65.41516 l -1.55751,-93.83963 z"
     id="path2849"
     sodipodi:nodetypes="cssssccsssccc" />
  <path
     style="color:#000000;fill:none;stroke:#000000;stroke-width:1px;stroke-linecap:butt;stroke-linejoin:miter;stroke-miterlimit:4;stroke-opacity:1;stroke-dasharray:none;stroke-dashoffset:0;marker:none;visibility:visible;display:inline;overflow:visible;enable-background:accumulate"
     d="m 260.62931,600.74365 c 13.36353,19.39662 32.96223,67.38531 38.4619,103.34924 0.74014,4.81375 -1.86753,6.37411 -6.01678,4.34141 -32.79138,-16.06443 -71.66908,-43.71231 -97.10975,-62.78139 -4.28365,-3.21082 -4.65918,-6.90633 -1.07408,-10.68672 17.4508,-18.40134 34.34759,-31.04883 58.22361,-38.34611 4.33517,-1.32497 5.12675,0.65698 7.5151,4.12357 z"
     id="path2851"
     sodipodi:nodetypes="cssssss" />
</svg>
