<?xml version="1.0" encoding="UTF-8" standalone="no"?>
<!-- Created with Inkscape (http://www.inkscape.org/) -->
<svg
   xmlns:dc="http://purl.org/dc/elements/1.1/"
   xmlns:cc="http://creativecommons.org/ns#"
   xmlns:rdf="http://www.w3.org/1999/02/22-rdf-syntax-ns#"
   xmlns:svg="http://www.w3.org/2000/svg"
   xmlns="http://www.w3.org/2000/svg"
   xmlns:sodipodi="http://sodipodi.sourceforge.net/DTD/sodipodi-0.dtd"
   xmlns:inkscape="http://www.inkscape.org/namespaces/inkscape"
   version="1.0"
   width="1000"
   height="1000"
   id="svg5496"
   sodipodi:version="0.32"
   inkscape:version="0.46"
   sodipodi:docname="meem+meem.init.svg"
   inkscape:output_extension="org.inkscape.output.svg.inkscape">
  <metadata
     id="metadata5594">
    <rdf:RDF>
      <cc:Work
         rdf:about="">
        <dc:format>image/svg+xml</dc:format>
        <dc:type
           rdf:resource="http://purl.org/dc/dcmitype/StillImage" />
      </cc:Work>
    </rdf:RDF>
  </metadata>
  <sodipodi:namedview
     inkscape:pageshadow="2"
     inkscape:pageopacity="0.0"
     guidetolerance="10.0"
     gridtolerance="10.0"
     objecttolerance="10.0"
     borderopacity="1.0"
     bordercolor="#666666"
     pagecolor="#ffffff"
     id="base"
     showgrid="false"
     showguides="true"
     inkscape:guide-bbox="true"
     inkscape:zoom="0.454"
     inkscape:cx="677.30284"
     inkscape:cy="525.34708"
     inkscape:window-x="0"
     inkscape:window-y="25"
     inkscape:current-layer="svg5496">
    <sodipodi:guide
       orientation="horizontal"
       position="200"
       id="guide5596" />
  </sodipodi:namedview>
  <defs
     id="defs5498">
    <inkscape:perspective
       sodipodi:type="inkscape:persp3d"
       inkscape:vp_x="0 : 500 : 1"
       inkscape:vp_y="0 : 1000 : 0"
       inkscape:vp_z="1000 : 500 : 1"
       inkscape:persp3d-origin="500 : 333.33333 : 1"
       id="perspective8" />
    <inkscape:perspective
       id="perspective2388"
       inkscape:persp3d-origin="372.04724 : 350.78739 : 1"
       inkscape:vp_z="744.09448 : 526.18109 : 1"
       inkscape:vp_y="0 : 1000 : 0"
       inkscape:vp_x="0 : 526.18109 : 1"
       sodipodi:type="inkscape:persp3d" />
  </defs>
  <g
     id="layer1"
     transform="translate(-438.32599,104.74351)" />
  <path
     style="fill:#000000;fill-rule:evenodd;stroke:#000000;stroke-width:1px;stroke-linecap:butt;stroke-linejoin:miter;stroke-opacity:1"
     d="M 222.52804,387.13229 L 201.74227,372.10889 C 193.0662,365.83806 195.45927,355.82899 197.00295,348.20239 C 200.79306,329.47732 230.53496,261.48632 247.08542,253.8781 C 263.63588,246.26988 311.0305,261.19959 337.81164,275.17131 C 372.12286,294.2105 396.92087,319.44502 405.03058,334.98653 C 411.34721,347.09176 409.80411,357.1966 405.67573,372.04208 C 398.58991,397.5224 393.28463,413.57893 387.6652,430.7347 C 379.80045,454.74532 347.56869,455.56915 336.78106,455.48676 C 315.99829,455.32802 279.27839,456.4627 243.55852,464.2458 C 202.82783,473.16313 159.19337,490.33784 143.74371,519.09843 C 140.09837,525.88449 141.28815,529.29552 143.17415,536.10076 C 157.22371,586.79586 198.34687,627.16162 222.0492,637.50373 C 258.49709,653.40714 306.28518,676.4187 330.39648,695.05188 C 333.14445,697.1755 333.45826,701.36199 333.40762,705.04897 C 332.99002,735.45387 329.76791,784.17743 326.76422,805.18404 C 325.97377,810.71208 319.83923,815.49813 312.18554,810.10659 C 274.9109,783.84895 216.90704,748.15 182.79571,737.73258 C 169.53325,733.6823 162.77863,734.71516 153.70292,736.47522 C 138.52664,739.41836 105.98015,754.44682 82.850959,770.99028 C 56.505119,789.8345 29.038179,803.28587 2.0022288,800 L 1.8800688,712.21685 C 65.023259,711.54453 78.390739,678.03095 120.88961,661.36709 C 109.99858,626.36498 93.445889,570.1963 123.97438,497.92708 C 138.38686,463.80886 181.66196,411.88563 221.29789,394.55192 C 226.35005,392.34249 225.52387,389.29759 222.52804,387.13229 z"
     id="path2394"
     sodipodi:nodetypes="csszcssssssssssssssscccsss" />
</svg>
