<?xml version="1.0" encoding="UTF-8" standalone="no"?>
<!-- Created with Inkscape (http://www.inkscape.org/) -->
<svg
   xmlns:dc="http://purl.org/dc/elements/1.1/"
   xmlns:cc="http://creativecommons.org/ns#"
   xmlns:rdf="http://www.w3.org/1999/02/22-rdf-syntax-ns#"
   xmlns:svg="http://www.w3.org/2000/svg"
   xmlns="http://www.w3.org/2000/svg"
   xmlns:sodipodi="http://sodipodi.sourceforge.net/DTD/sodipodi-0.dtd"
   xmlns:inkscape="http://www.inkscape.org/namespaces/inkscape"
   version="1.0"
   width="1000"
   height="1000"
   id="svg5496"
   sodipodi:version="0.32"
   inkscape:version="0.46"
   sodipodi:docname="meem.isol.svg"
   inkscape:output_extension="org.inkscape.output.svg.inkscape">
  <metadata
     id="metadata5594">
    <rdf:RDF>
      <cc:Work
         rdf:about="">
        <dc:format>image/svg+xml</dc:format>
        <dc:type
           rdf:resource="http://purl.org/dc/dcmitype/StillImage" />
      </cc:Work>
    </rdf:RDF>
  </metadata>
  <sodipodi:namedview
     inkscape:pageshadow="2"
     inkscape:pageopacity="0.0"
     guidetolerance="10.0"
     gridtolerance="10.0"
     objecttolerance="10.0"
     borderopacity="1.0"
     bordercolor="#666666"
     pagecolor="#ffffff"
     id="base"
     showgrid="false"
     showguides="true"
     inkscape:guide-bbox="true"
     inkscape:zoom="0.472"
     inkscape:cx="591.96216"
     inkscape:cy="508.95838"
     inkscape:window-x="0"
     inkscape:window-y="25"
     inkscape:current-layer="svg5496">
    <sodipodi:guide
       orientation="horizontal"
       position="200"
       id="guide5596" />
  </sodipodi:namedview>
  <defs
     id="defs5498">
    <inkscape:perspective
       sodipodi:type="inkscape:persp3d"
       inkscape:vp_x="0 : 500 : 1"
       inkscape:vp_y="0 : 1000 : 0"
       inkscape:vp_z="1000 : 500 : 1"
       inkscape:persp3d-origin="500 : 333.33333 : 1"
       id="perspective8" />
    <inkscape:perspective
       id="perspective2388"
       inkscape:persp3d-origin="372.04724 : 350.78739 : 1"
       inkscape:vp_z="744.09448 : 526.18109 : 1"
       inkscape:vp_y="0 : 1000 : 0"
       inkscape:vp_x="0 : 526.18109 : 1"
       sodipodi:type="inkscape:persp3d" />
  </defs>
  <g
     id="layer1"
     transform="translate(-345.33898,252.11864)" />
  <path
     style="fill:none;fill-rule:evenodd;stroke:#000000;stroke-width:1px;stroke-linecap:butt;stroke-linejoin:miter;stroke-opacity:1"
     d="M 97.848517,295.02489 C 100.43597,272.60019 109.48926,251.96158 130.72352,246.08739 C 147.14606,241.54431 170.05999,255.85758 189.03602,271.83739 C 154.66776,276.16295 123.47496,284.00227 97.848517,295.02489 z M 43.067267,333.18114 C 21.064717,359.53034 9.6810168,397.33659 2.6610168,444.64989 C -7.6441832,514.10465 33.596397,640.08989 56.317267,743.89989 C 76.169657,834.60405 90.699607,943.36006 95.286017,977.14989 C 100.60089,1016.3066 131.23697,1010.5455 134.22352,977.33739 C 141.42018,897.31638 78.861897,607.92511 38.223517,458.55614 C 35.860907,449.84144 37.159037,445.27822 43.067267,438.27489 C 121.11883,345.75641 238.56961,359.91954 304.10136,375.43161 C 310.10504,376.85275 319.08188,373.4615 322.28602,364.08739 C 327.72671,348.17 337.65957,284.01056 341.16244,263.73939 C 342.67388,254.99264 336.22307,245.34016 333.66433,242.02915 C 293.41764,189.94986 239.60523,143.51935 196.06727,127.93114 C 190.10934,125.79798 183.31148,124.88978 176.50477,124.83739 C 165.16025,124.75008 153.77788,126.97743 146.28602,129.58739 C 97.373717,146.6271 54.215007,248.14197 43.067267,333.18114 z"
     id="path2414"
     sodipodi:nodetypes="cscccsssscsssssscsc" />
</svg>
