<?xml version="1.0" encoding="UTF-8" standalone="no"?>
<!-- Created with Inkscape (http://www.inkscape.org/) -->

<svg
   xmlns:dc="http://purl.org/dc/elements/1.1/"
   xmlns:cc="http://creativecommons.org/ns#"
   xmlns:rdf="http://www.w3.org/1999/02/22-rdf-syntax-ns#"
   xmlns:svg="http://www.w3.org/2000/svg"
   xmlns="http://www.w3.org/2000/svg"
   xmlns:sodipodi="http://sodipodi.sourceforge.net/DTD/sodipodi-0.dtd"
   xmlns:inkscape="http://www.inkscape.org/namespaces/inkscape"
   version="1.0"
   width="1000"
   height="1000"
   id="svg5496"
   sodipodi:version="0.32"
   inkscape:version="0.47pre0 r21549"
   sodipodi:docname="meem.fina.svg"
   inkscape:output_extension="org.inkscape.output.svg.inkscape">
  <metadata
     id="metadata5594">
    <rdf:RDF>
      <cc:Work
         rdf:about="">
        <dc:format>image/svg+xml</dc:format>
        <dc:type
           rdf:resource="http://purl.org/dc/dcmitype/StillImage" />
        <dc:title></dc:title>
      </cc:Work>
    </rdf:RDF>
  </metadata>
  <sodipodi:namedview
     inkscape:window-height="618"
     inkscape:pageshadow="2"
     inkscape:pageopacity="0.0"
     borderopacity="1.0"
     bordercolor="#666666"
     pagecolor="#ffffff"
     id="base"
     showgrid="false"
     showguides="true"
     inkscape:guide-bbox="true"
     inkscape:zoom="0.2245064"
     inkscape:cx="500"
     inkscape:cy="500"
     inkscape:window-x="0"
     inkscape:window-y="25"
     inkscape:current-layer="svg5496">
    <sodipodi:guide
       orientation="horizontal"
       position="200"
       id="guide5596" />
  </sodipodi:namedview>
  <defs
     id="defs5498">
    <inkscape:perspective
       sodipodi:type="inkscape:persp3d"
       inkscape:vp_x="0 : 500 : 1"
       inkscape:vp_y="0 : 1000 : 0"
       inkscape:vp_z="1000 : 500 : 1"
       inkscape:persp3d-origin="500 : 333.33333 : 1"
       id="perspective8" />
    <inkscape:perspective
       id="perspective2822"
       inkscape:persp3d-origin="0.5 : 0.33333333 : 1"
       inkscape:vp_z="1 : 0.5 : 1"
       inkscape:vp_y="0 : 1000 : 0"
       inkscape:vp_x="0 : 0.5 : 1"
       sodipodi:type="inkscape:persp3d" />
  </defs>
  <g
     id="layer1" />
  <path
     style="color:#000000;fill:#000000;stroke:#000000;stroke-width:1px;stroke-linecap:butt;stroke-linejoin:miter;stroke-miterlimit:4;stroke-opacity:1;stroke-dasharray:none;stroke-dashoffset:0;marker:none;visibility:visible;display:inline;overflow:visible;enable-background:accumulate"
     d="m 193.90404,580.8125 c -3.49951,0.14664 -6.89337,3.15115 -11.03125,9.28125 -6.31683,9.35813 -11.2493,19.96714 -15.03125,31.40625 -58.11919,23.76797 -118.668575,60.54028 -146.750005,131.6875 -28.5678396,72.37959 -25.7338396,154.40122 -5.5625,283.875 17.71792,113.7261 48.64982,234.1975 52.125,337.5938 1.27877,38.0466 23.65485,44.9174 35.843755,-5.875 22.2178,-92.5839 -81.868465,-538.45036 -58.937505,-570.1563 14.55765,-20.12841 77.117425,-65.7352 113.875005,-61 4.27763,77.76439 46.20245,146.23818 72.5625,165.15625 14.31638,10.27457 22.27498,6.67285 29.25,0.9375 36.87143,-30.31826 40.73168,-97.65137 38.8125,-145.3125 -0.12683,-3.11326 1.63933,-4.51051 5.25,-2.65625 54.54701,28.01268 123.51656,44.58239 174.125,44.25 l -4.84375,-97.59375 c -74.66959,-2.61403 -193.02488,-25.36747 -268.125,-113.78125 -4.46452,-5.25598 -8.06299,-7.95914 -11.5625,-7.8125 z"
     id="path2828"
     sodipodi:nodetypes="cscssssscsscsccsc" />
</svg>
