<?xml version="1.0" encoding="UTF-8" standalone="no"?>
<!-- Created with Inkscape (http://www.inkscape.org/) -->
<svg
   xmlns:dc="http://purl.org/dc/elements/1.1/"
   xmlns:cc="http://creativecommons.org/ns#"
   xmlns:rdf="http://www.w3.org/1999/02/22-rdf-syntax-ns#"
   xmlns:svg="http://www.w3.org/2000/svg"
   xmlns="http://www.w3.org/2000/svg"
   xmlns:sodipodi="http://sodipodi.sourceforge.net/DTD/sodipodi-0.dtd"
   xmlns:inkscape="http://www.inkscape.org/namespaces/inkscape"
   version="1.0"
   width="1000"
   height="1000"
   id="svg5496"
   sodipodi:version="0.32"
   inkscape:version="0.46"
   sodipodi:docname="noon.fina.svg"
   inkscape:output_extension="org.inkscape.output.svg.inkscape">
  <metadata
     id="metadata5594">
    <rdf:RDF>
      <cc:Work
         rdf:about="">
        <dc:format>image/svg+xml</dc:format>
        <dc:type
           rdf:resource="http://purl.org/dc/dcmitype/StillImage" />
      </cc:Work>
    </rdf:RDF>
  </metadata>
  <sodipodi:namedview
     inkscape:pageshadow="2"
     inkscape:pageopacity="0.0"
     guidetolerance="10.0"
     gridtolerance="10.0"
     objecttolerance="10.0"
     borderopacity="1.0"
     bordercolor="#666666"
     pagecolor="#ffffff"
     id="base"
     showgrid="false"
     showguides="true"
     inkscape:guide-bbox="true"
     inkscape:zoom="0.51"
     inkscape:cx="500"
     inkscape:cy="264.70588"
     inkscape:window-x="0"
     inkscape:window-y="25"
     inkscape:current-layer="svg5496">
    <sodipodi:guide
       orientation="horizontal"
       position="200"
       id="guide5596" />
  </sodipodi:namedview>
  <defs
     id="defs5498">
    <inkscape:perspective
       sodipodi:type="inkscape:persp3d"
       inkscape:vp_x="0 : 500 : 1"
       inkscape:vp_y="0 : 1000 : 0"
       inkscape:vp_z="1000 : 500 : 1"
       inkscape:persp3d-origin="500 : 333.33333 : 1"
       id="perspective8" />
    <inkscape:perspective
       id="perspective2388"
       inkscape:persp3d-origin="372.04724 : 350.78739 : 1"
       inkscape:vp_z="744.09448 : 526.18109 : 1"
       inkscape:vp_y="0 : 1000 : 0"
       inkscape:vp_x="0 : 526.18109 : 1"
       sodipodi:type="inkscape:persp3d" />
  </defs>
  <g
     id="layer1"
     transform="matrix(1.3,0,0,1.3,-0.4398047,-240)" />
  <path
     style="fill:none;fill-rule:evenodd;stroke:#000000;stroke-width:1.29999995px;stroke-linecap:butt;stroke-linejoin:miter;stroke-opacity:1"
     d="M 515.92888,630.69257 C 511.74186,623.92211 506.90097,618.98323 501.19327,631.43914 L 467.39618,705.19444 C 464.05852,712.47823 470.1026,717.49283 472.63704,723.12072 C 498.76049,781.12934 508.15269,858.96578 491.62723,934.65672 C 489.53008,944.30762 483.50265,952.36516 478.62693,957.19838 C 402.13254,1033.0261 258.94955,1048.0591 163.56536,1024.7478 C -25.364146,978.57471 65.417558,780.51276 96.983547,743.84902 C 105.35849,734.12158 90.691781,722.80017 83.106788,733.96035 C 4.4935003,849.62798 -30.615265,980.73511 32.723221,1060.5941 C 67.787926,1104.8047 108.56185,1127.3375 178.75103,1131.0474 C 297.28593,1137.3396 433.78234,1096.1497 499.60333,986.36602 C 526.22028,941.97126 540.83842,878.69633 554.34309,800 C 554.34309,800 596.35676,792.40717 612.04862,788.86386 C 615.99868,787.9719 614.30848,699.24299 614.30848,699.24299 C 595.0874,699.26113 568.16079,697.47031 557.52674,692.06876 C 550.75063,688.62685 546.33568,686.04256 543.68477,680.086 C 534.82445,660.17699 525.51915,646.20014 515.92888,630.69257 z"
     id="path2394"
     sodipodi:nodetypes="cssssssssssscscsss" />
</svg>
