<?xml version="1.0" encoding="UTF-8" standalone="no"?>
<!-- Created with Inkscape (http://www.inkscape.org/) -->
<svg
   xmlns:dc="http://purl.org/dc/elements/1.1/"
   xmlns:cc="http://creativecommons.org/ns#"
   xmlns:rdf="http://www.w3.org/1999/02/22-rdf-syntax-ns#"
   xmlns:svg="http://www.w3.org/2000/svg"
   xmlns="http://www.w3.org/2000/svg"
   xmlns:sodipodi="http://sodipodi.sourceforge.net/DTD/sodipodi-0.dtd"
   xmlns:inkscape="http://www.inkscape.org/namespaces/inkscape"
   version="1.0"
   width="1000"
   height="1000"
   id="svg5496"
   sodipodi:version="0.32"
   inkscape:version="0.46"
   sodipodi:docname="noon.fina.svg"
   inkscape:output_extension="org.inkscape.output.svg.inkscape">
  <metadata
     id="metadata5594">
    <rdf:RDF>
      <cc:Work
         rdf:about="">
        <dc:format>image/svg+xml</dc:format>
        <dc:type
           rdf:resource="http://purl.org/dc/dcmitype/StillImage" />
      </cc:Work>
    </rdf:RDF>
  </metadata>
  <sodipodi:namedview
     inkscape:pageshadow="2"
     inkscape:pageopacity="0.0"
     guidetolerance="10.0"
     gridtolerance="10.0"
     objecttolerance="10.0"
     borderopacity="1.0"
     bordercolor="#666666"
     pagecolor="#ffffff"
     id="base"
     showgrid="false"
     showguides="true"
     inkscape:guide-bbox="true"
     inkscape:zoom="1.2841059"
     inkscape:cx="368.84814"
     inkscape:cy="145.22904"
     inkscape:window-x="0"
     inkscape:window-y="25"
     inkscape:current-layer="svg5496">
    <sodipodi:guide
       orientation="horizontal"
       position="200"
       id="guide5596" />
  </sodipodi:namedview>
  <defs
     id="defs5498">
    <inkscape:perspective
       sodipodi:type="inkscape:persp3d"
       inkscape:vp_x="0 : 500 : 1"
       inkscape:vp_y="0 : 1000 : 0"
       inkscape:vp_z="1000 : 500 : 1"
       inkscape:persp3d-origin="500 : 333.33333 : 1"
       id="perspective8" />
    <inkscape:perspective
       id="perspective2388"
       inkscape:persp3d-origin="372.04724 : 350.78739 : 1"
       inkscape:vp_z="744.09448 : 526.18109 : 1"
       inkscape:vp_y="0 : 1000 : 0"
       inkscape:vp_x="0 : 526.18109 : 1"
       sodipodi:type="inkscape:persp3d" />
  </defs>
  <g
     id="layer1" />
  <path
     style="fill:none;fill-rule:evenodd;stroke:#000000;stroke-width:1px;stroke-linecap:butt;stroke-linejoin:miter;stroke-opacity:1"
     d="M 397.20668,669.76352 C 393.98589,664.55547 390.26213,660.75633 385.87159,670.3378 L 359.87383,727.07265 C 357.3064,732.67556 361.95569,736.53295 363.90526,740.86209 C 384.00022,785.48411 391.22499,845.35829 378.5131,903.58209 C 376.89991,911.00586 372.26342,917.20397 368.51287,920.92183 C 309.67103,979.25089 199.53027,990.81468 126.15782,972.88294 C -19.17257,937.36516 50.65951,785.00982 74.94104,756.80694 C 81.3833,749.32429 70.10122,740.61552 64.26661,749.20027 C 3.7948505,838.17537 -23.21189,939.02701 25.51002,1000.457 C 52.48287,1034.4652 83.84743,1051.7981 137.8391,1054.6519 C 229.01979,1059.492 334.01703,1027.8075 384.64856,943.35848 C 405.12314,909.20866 416.36786,860.53564 426.75607,800 C 426.75607,800 459.07428,794.15936 471.14494,791.43374 C 474.18345,790.74762 472.88329,722.49461 472.88329,722.49461 C 458.09785,722.50856 437.38507,721.13101 429.20503,716.97597 C 423.99264,714.32835 420.59652,712.34043 418.55736,707.75846 C 411.74173,692.44384 404.58381,681.69242 397.20668,669.76352 z"
     id="path2394"
     sodipodi:nodetypes="cssssssssssscscsss" />
</svg>
