<?xml version="1.0" encoding="UTF-8" standalone="no"?>
<!-- Created with Inkscape (http://www.inkscape.org/) -->
<svg
   xmlns:dc="http://purl.org/dc/elements/1.1/"
   xmlns:cc="http://creativecommons.org/ns#"
   xmlns:rdf="http://www.w3.org/1999/02/22-rdf-syntax-ns#"
   xmlns:svg="http://www.w3.org/2000/svg"
   xmlns="http://www.w3.org/2000/svg"
   xmlns:sodipodi="http://sodipodi.sourceforge.net/DTD/sodipodi-0.dtd"
   xmlns:inkscape="http://www.inkscape.org/namespaces/inkscape"
   version="1.0"
   width="1000"
   height="1000"
   id="svg5496"
   sodipodi:version="0.32"
   inkscape:version="0.46"
   sodipodi:docname="qaf.fina.svg"
   inkscape:output_extension="org.inkscape.output.svg.inkscape">
  <metadata
     id="metadata5594">
    <rdf:RDF>
      <cc:Work
         rdf:about="">
        <dc:format>image/svg+xml</dc:format>
        <dc:type
           rdf:resource="http://purl.org/dc/dcmitype/StillImage" />
      </cc:Work>
    </rdf:RDF>
  </metadata>
  <sodipodi:namedview
     inkscape:pageshadow="2"
     inkscape:pageopacity="0.0"
     guidetolerance="10.0"
     gridtolerance="10.0"
     objecttolerance="10.0"
     borderopacity="1.0"
     bordercolor="#666666"
     pagecolor="#ffffff"
     id="base"
     showgrid="false"
     showguides="true"
     inkscape:guide-bbox="true"
     inkscape:zoom="0.908"
     inkscape:cx="270.7371"
     inkscape:cy="314.01608"
     inkscape:window-x="0"
     inkscape:window-y="25"
     inkscape:current-layer="svg5496">
    <sodipodi:guide
       orientation="horizontal"
       position="200"
       id="guide5596" />
  </sodipodi:namedview>
  <defs
     id="defs5498">
    <inkscape:perspective
       sodipodi:type="inkscape:persp3d"
       inkscape:vp_x="0 : 500 : 1"
       inkscape:vp_y="0 : 1000 : 0"
       inkscape:vp_z="1000 : 500 : 1"
       inkscape:persp3d-origin="500 : 333.33333 : 1"
       id="perspective8" />
    <inkscape:perspective
       id="perspective2388"
       inkscape:persp3d-origin="372.04724 : 350.78739 : 1"
       inkscape:vp_z="744.09448 : 526.18109 : 1"
       inkscape:vp_y="0 : 1000 : 0"
       inkscape:vp_x="0 : 526.18109 : 1"
       sodipodi:type="inkscape:persp3d" />
  </defs>
  <path
     style="fill:none;fill-opacity:1;fill-rule:evenodd;stroke:#000000;stroke-width:1px;stroke-linecap:butt;stroke-linejoin:miter;stroke-opacity:1"
     d="M 352.4386,628.21709 C 329.98088,628.30776 246.00052,744.26416 290.5011,782.93584 C 306.19414,796.57334 347.48488,800.28716 389.59485,800.49834 C 392.41035,811.4264 394.58073,821.84975 395.78235,830.84209 C 396.19646,833.94104 396.83362,839.0486 395.34485,841.96709 C 357.57234,916.01405 197.22861,950.96976 134.3761,942.09209 C 93.899791,936.37494 66.461401,917.92487 52.844851,896.52959 C 10.025303,829.24851 43.020888,770.11005 75.469851,718.52959 C 81.626301,708.74336 71.500731,698.67373 63.876101,711.34209 C 24.492441,776.77821 -17.726129,843.93377 7.1886013,928.87334 C 21.684414,978.29261 69.710651,1027.7413 186.6886,1019.1858 C 244.94589,1014.8848 366.7181,972.39278 412.46985,842.40459 C 417.52523,828.74163 420.20273,814.13957 422.53428,800 C 432.93886,799.69758 442.84244,799.33833 452.09485,798.90459 L 452.09485,736.90459 C 441.33839,738.17721 431.39904,739.053 422.1886,739.62334 C 417.39574,702.81027 404.55858,670.83141 388.78235,652.71709 C 382.72902,645.76665 370.507,628.14503 352.4386,628.21709 z M 362.88187,726.39844 C 364.60422,729.99667 363.6537,734.81144 359.32782,735.0209 C 327.19291,736.57692 316.18407,721.45442 313.02824,708.65134 C 312.03693,704.62965 312.31052,699.27749 316.1588,698.64298 C 344.57215,693.95815 353.87281,705.37069 362.88187,726.39844 z"
     id="path2394"
     sodipodi:nodetypes="cscsssssssccccccsccsssc" />
</svg>
