<?xml version="1.0" encoding="UTF-8" standalone="no"?>
<!-- Created with Inkscape (http://www.inkscape.org/) -->
<svg
   xmlns:dc="http://purl.org/dc/elements/1.1/"
   xmlns:cc="http://creativecommons.org/ns#"
   xmlns:rdf="http://www.w3.org/1999/02/22-rdf-syntax-ns#"
   xmlns:svg="http://www.w3.org/2000/svg"
   xmlns="http://www.w3.org/2000/svg"
   xmlns:sodipodi="http://sodipodi.sourceforge.net/DTD/sodipodi-0.dtd"
   xmlns:inkscape="http://www.inkscape.org/namespaces/inkscape"
   version="1.0"
   width="1000"
   height="1000"
   id="svg5496"
   sodipodi:version="0.32"
   inkscape:version="0.46"
   sodipodi:docname="qaf.isol.svg"
   inkscape:output_extension="org.inkscape.output.svg.inkscape">
  <metadata
     id="metadata5594">
    <rdf:RDF>
      <cc:Work
         rdf:about="">
        <dc:format>image/svg+xml</dc:format>
        <dc:type
           rdf:resource="http://purl.org/dc/dcmitype/StillImage" />
      </cc:Work>
    </rdf:RDF>
  </metadata>
  <sodipodi:namedview
     inkscape:pageshadow="2"
     inkscape:pageopacity="0.0"
     guidetolerance="10.0"
     gridtolerance="10.0"
     objecttolerance="10.0"
     borderopacity="1.0"
     bordercolor="#666666"
     pagecolor="#ffffff"
     id="base"
     showgrid="false"
     showguides="true"
     inkscape:guide-bbox="true"
     inkscape:zoom="0.64205296"
     inkscape:cx="505.54878"
     inkscape:cy="489.31098"
     inkscape:window-x="0"
     inkscape:window-y="25"
     inkscape:current-layer="svg5496">
    <sodipodi:guide
       orientation="horizontal"
       position="200"
       id="guide5596" />
  </sodipodi:namedview>
  <defs
     id="defs5498">
    <inkscape:perspective
       sodipodi:type="inkscape:persp3d"
       inkscape:vp_x="0 : 500 : 1"
       inkscape:vp_y="0 : 1000 : 0"
       inkscape:vp_z="1000 : 500 : 1"
       inkscape:persp3d-origin="500 : 333.33333 : 1"
       id="perspective5018" />
    <inkscape:perspective
       id="perspective5027"
       inkscape:persp3d-origin="372.04724 : 350.78739 : 1"
       inkscape:vp_z="744.09448 : 526.18109 : 1"
       inkscape:vp_y="0 : 1000 : 0"
       inkscape:vp_x="0 : 526.18109 : 1"
       sodipodi:type="inkscape:persp3d" />
  </defs>
  <g
     id="layer1"
     transform="translate(-234.99414,125.22646)" />
  <path
     style="fill:none;fill-rule:evenodd;stroke:#000000;stroke-width:1px;stroke-linecap:butt;stroke-linejoin:miter;stroke-opacity:1"
     d="M 429.10278,625.22646 C 408.06758,654.15645 356.81618,674.17217 322.53035,661.30285 C 296.22477,651.42894 256.20059,626.08588 289.69111,542.54907 C 309.86631,492.22523 337.23207,441.10203 377.21852,440.66061 C 418.32728,440.20681 494.94064,581.43848 469.4623,709.89461 C 447.27911,822.07635 334.84452,899.09797 205.53449,909.36743 C 116.78242,916.41589 -21.69691,871.40348 5.0939597,726.54804 C 17.51859,659.3694 48.18157,598.38278 85.55725,544.18484 C 92.91306,533.51829 107.29243,542.58033 98.89526,554.80869 C 72.73858,592.8993 43.33274,640.25099 41.71915,691.27888 C 39.66711,756.17255 82.48793,822.30551 206.63582,821.2617 C 304.49903,820.43889 442.79867,739.65628 450.80664,681.07129 C 453.40324,662.075 438.57374,629.77998 429.10278,625.22646 z"
     id="path5033"
     sodipodi:nodetypes="csssssssssssc" />
  <path
     style="fill:none;fill-rule:evenodd;stroke:#000000;stroke-width:1px;stroke-linecap:butt;stroke-linejoin:miter;stroke-opacity:1"
     d="M 381.19528,555.8432 C 364.80419,571.05316 339.25051,569.75628 324.47723,553.0899 C 343.72109,524.02977 363.17276,536.22082 381.19528,555.8432 z"
     id="path5035"
     sodipodi:nodetypes="ccc" />
</svg>
