<?xml version="1.0" encoding="UTF-8" standalone="no"?>
<!-- Created with Inkscape (http://www.inkscape.org/) -->
<svg
   xmlns:dc="http://purl.org/dc/elements/1.1/"
   xmlns:cc="http://creativecommons.org/ns#"
   xmlns:rdf="http://www.w3.org/1999/02/22-rdf-syntax-ns#"
   xmlns:svg="http://www.w3.org/2000/svg"
   xmlns="http://www.w3.org/2000/svg"
   xmlns:sodipodi="http://sodipodi.sourceforge.net/DTD/sodipodi-0.dtd"
   xmlns:inkscape="http://www.inkscape.org/namespaces/inkscape"
   version="1.0"
   width="1000"
   height="1000"
   id="svg5496"
   sodipodi:version="0.32"
   inkscape:version="0.46"
   sodipodi:docname="qaf.isol.svg"
   inkscape:output_extension="org.inkscape.output.svg.inkscape">
  <metadata
     id="metadata5594">
    <rdf:RDF>
      <cc:Work
         rdf:about="">
        <dc:format>image/svg+xml</dc:format>
        <dc:type
           rdf:resource="http://purl.org/dc/dcmitype/StillImage" />
      </cc:Work>
    </rdf:RDF>
  </metadata>
  <sodipodi:namedview
     inkscape:pageshadow="2"
     inkscape:pageopacity="0.0"
     guidetolerance="10.0"
     gridtolerance="10.0"
     objecttolerance="10.0"
     borderopacity="1.0"
     bordercolor="#666666"
     pagecolor="#ffffff"
     id="base"
     showgrid="false"
     showguides="true"
     inkscape:guide-bbox="true"
     inkscape:zoom="0.236"
     inkscape:cx="500"
     inkscape:cy="500"
     inkscape:window-x="0"
     inkscape:window-y="25"
     inkscape:current-layer="svg5496">
    <sodipodi:guide
       orientation="horizontal"
       position="200"
       id="guide5596" />
  </sodipodi:namedview>
  <defs
     id="defs5498">
    <inkscape:perspective
       sodipodi:type="inkscape:persp3d"
       inkscape:vp_x="0 : 500 : 1"
       inkscape:vp_y="0 : 1000 : 0"
       inkscape:vp_z="1000 : 500 : 1"
       inkscape:persp3d-origin="500 : 333.33333 : 1"
       id="perspective5018" />
    <inkscape:perspective
       id="perspective5027"
       inkscape:persp3d-origin="372.04724 : 350.78739 : 1"
       inkscape:vp_z="744.09448 : 526.18109 : 1"
       inkscape:vp_y="0 : 1000 : 0"
       inkscape:vp_x="0 : 526.18109 : 1"
       sodipodi:type="inkscape:persp3d" />
  </defs>
  <g
     id="layer1"
     transform="matrix(1.3,0,0,1.3,-304.8962,-226.25555)" />
  <path
     style="fill:none;fill-rule:evenodd;stroke:#000000;stroke-width:1.29999995px;stroke-linecap:butt;stroke-linejoin:miter;stroke-opacity:1"
     d="M 558.42979,423.74444 C 531.08403,461.35343 464.45721,487.37387 419.88563,470.64375 C 385.68838,457.80767 333.65695,424.86169 377.19462,316.26384 C 403.42238,250.84285 438.99787,184.38269 490.98026,183.80884 C 544.42164,183.2189 644.01901,366.82007 610.89717,533.81304 C 582.05902,679.6493 435.89406,779.77741 267.79102,793.12771 C 152.41332,802.2907 -27.609805,743.77457 7.2183253,555.4625 C 23.370345,468.13027 63.232219,388.84766 111.8206,318.39034 C 121.38316,304.52382 140.07634,316.30448 129.16002,332.20134 C 95.156332,381.71914 56.92874,443.27633 54.831073,509.61259 C 52.163421,593.97436 107.83049,679.94721 269.22275,678.59026 C 396.44492,677.5206 576.23445,572.50321 586.64481,496.34272 C 590.02039,471.64755 570.74204,429.66402 558.42979,423.74444 z"
     id="path5033"
     sodipodi:nodetypes="csssssssssssc" />
  <path
     style="fill:none;fill-rule:evenodd;stroke:#000000;stroke-width:1.29999995px;stroke-linecap:butt;stroke-linejoin:miter;stroke-opacity:1"
     d="M 496.15004,333.54621 C 474.84163,353.31915 441.62184,351.63321 422.41658,329.96692 C 447.4336,292.18875 472.72077,308.03711 496.15004,333.54621 z"
     id="path5035"
     sodipodi:nodetypes="ccc" />
</svg>
