<?xml version="1.0" encoding="UTF-8" standalone="no"?>
<!-- Created with Inkscape (http://www.inkscape.org/) -->

<svg
   xmlns:dc="http://purl.org/dc/elements/1.1/"
   xmlns:cc="http://creativecommons.org/ns#"
   xmlns:rdf="http://www.w3.org/1999/02/22-rdf-syntax-ns#"
   xmlns:svg="http://www.w3.org/2000/svg"
   xmlns="http://www.w3.org/2000/svg"
   xmlns:sodipodi="http://sodipodi.sourceforge.net/DTD/sodipodi-0.dtd"
   xmlns:inkscape="http://www.inkscape.org/namespaces/inkscape"
   version="1.0"
   width="1000"
   height="1000"
   id="svg5496"
   sodipodi:version="0.32"
   inkscape:version="0.47pre0 r21549"
   sodipodi:docname="New document 6"
   inkscape:output_extension="org.inkscape.output.svg.inkscape">
  <metadata
     id="metadata5594">
    <rdf:RDF>
      <cc:Work
         rdf:about="">
        <dc:format>image/svg+xml</dc:format>
        <dc:type
           rdf:resource="http://purl.org/dc/dcmitype/StillImage" />
        <dc:title></dc:title>
      </cc:Work>
    </rdf:RDF>
  </metadata>
  <sodipodi:namedview
     inkscape:window-height="618"
     inkscape:pageshadow="2"
     inkscape:pageopacity="0.0"
     borderopacity="1.0"
     bordercolor="#666666"
     pagecolor="#ffffff"
     id="base"
     showgrid="false"
     showguides="true"
     inkscape:guide-bbox="true"
     inkscape:zoom="0.64205296"
     inkscape:cx="535.24229"
     inkscape:cy="160.38333"
     inkscape:window-x="0"
     inkscape:window-y="25"
     inkscape:current-layer="svg5496">
    <sodipodi:guide
       orientation="horizontal"
       position="200"
       id="guide5596" />
  </sodipodi:namedview>
  <defs
     id="defs5498">
    <inkscape:perspective
       sodipodi:type="inkscape:persp3d"
       inkscape:vp_x="0 : 500 : 1"
       inkscape:vp_y="0 : 1000 : 0"
       inkscape:vp_z="1000 : 500 : 1"
       inkscape:persp3d-origin="500 : 333.33333 : 1"
       id="perspective2887" />
    <inkscape:perspective
       id="perspective2897"
       inkscape:persp3d-origin="0.5 : 0.33333333 : 1"
       inkscape:vp_z="1 : 0.5 : 1"
       inkscape:vp_y="0 : 1000 : 0"
       inkscape:vp_x="0 : 0.5 : 1"
       sodipodi:type="inkscape:persp3d" />
    <inkscape:perspective
       sodipodi:type="inkscape:persp3d"
       inkscape:vp_x="0 : 0.5 : 1"
       inkscape:vp_y="0 : 1000 : 0"
       inkscape:vp_z="1 : 0.5 : 1"
       inkscape:persp3d-origin="0.5 : 0.33333333 : 1"
       id="perspective2822" />
    <inkscape:perspective
       id="perspective8"
       inkscape:persp3d-origin="500 : 333.33333 : 1"
       inkscape:vp_z="1000 : 500 : 1"
       inkscape:vp_y="0 : 1000 : 0"
       inkscape:vp_x="0 : 500 : 1"
       sodipodi:type="inkscape:persp3d" />
  </defs>
  <g
     id="layer1"
     transform="translate(-294.36824,266.33317)" />
  <g
     id="g2982"
     transform="translate(0.53652842,2.447751)">
    <g
       transform="translate(116.74009,381.05727)"
       id="layer1-8" />
    <path
       sodipodi:nodetypes="cscccsscsccssccss"
       id="path2828"
       d="m 337.00441,543.77753 c -12.8155,30.13376 -23.65416,59.95135 -33.46692,93.81783 -1.50984,5.21088 0.50275,6.68967 3.3256,9.52636 39.64849,40.27275 56.91227,73.95169 55.49868,87.20942 -12.74462,60.11501 -87.74278,128.20465 -139.28057,164.99616 -35.30635,22.85349 -76.51649,40.25263 -107.97094,44.13501 -32.521959,4.01414 -67.22994,-2.30812 -104.957702,-13.83618 -8.7486199,-2.67322 -14.6063499,9.91458 -6.8485999,13.65581 10.4459299,6.84021 76.9973449,36.06657 132.9646219,52.42099 14.51147,4.24046 33.53353,2.80896 43.85196,0.77038 43.21388,-10.45223 104.16854,-45.29096 142.3467,-95.01976 45.07504,-58.11574 70.32957,-116.78755 72.5843,-186.86178 0.11784,-3.6626 2.05486,-4.97298 4.15104,-5.09011 10.20442,-0.57017 24.33186,-2.25775 34.00025,-3.1124 -0.25408,-22.89307 0.14777,-81.50857 -0.71222,-102.37659 -34.87466,1.45792 -50.38017,-21.65479 -84.6106,-62.34885 -3.90897,-4.64709 -7.36904,-6.13144 -10.8756,2.11371 z"
       style="color:#000000;fill:#000000;stroke:#000000;stroke-width:1px;stroke-linecap:butt;stroke-linejoin:miter;stroke-miterlimit:4;stroke-opacity:1;stroke-dasharray:none;stroke-dashoffset:0;marker:none;visibility:visible;display:inline;overflow:visible;enable-background:accumulate" />
  </g>
</svg>
