<?xml version="1.0" encoding="UTF-8" standalone="no"?>
<!-- Created with Inkscape (http://www.inkscape.org/) -->
<svg
   xmlns:dc="http://purl.org/dc/elements/1.1/"
   xmlns:cc="http://creativecommons.org/ns#"
   xmlns:rdf="http://www.w3.org/1999/02/22-rdf-syntax-ns#"
   xmlns:svg="http://www.w3.org/2000/svg"
   xmlns="http://www.w3.org/2000/svg"
   xmlns:sodipodi="http://sodipodi.sourceforge.net/DTD/sodipodi-0.dtd"
   xmlns:inkscape="http://www.inkscape.org/namespaces/inkscape"
   version="1.0"
   width="1000"
   height="1000"
   id="svg5496"
   sodipodi:version="0.32"
   inkscape:version="0.46"
   sodipodi:docname="raa.alt.fina.svg"
   inkscape:output_extension="org.inkscape.output.svg.inkscape">
  <metadata
     id="metadata5594">
    <rdf:RDF>
      <cc:Work
         rdf:about="">
        <dc:format>image/svg+xml</dc:format>
        <dc:type
           rdf:resource="http://purl.org/dc/dcmitype/StillImage" />
      </cc:Work>
    </rdf:RDF>
  </metadata>
  <sodipodi:namedview
     inkscape:pageshadow="2"
     inkscape:pageopacity="0.0"
     guidetolerance="10.0"
     gridtolerance="10.0"
     objecttolerance="10.0"
     borderopacity="1.0"
     bordercolor="#666666"
     pagecolor="#ffffff"
     id="base"
     showgrid="false"
     showguides="true"
     inkscape:guide-bbox="true"
     inkscape:zoom="0.51"
     inkscape:cx="500"
     inkscape:cy="264.70588"
     inkscape:window-x="0"
     inkscape:window-y="25"
     inkscape:current-layer="svg5496">
    <sodipodi:guide
       orientation="horizontal"
       position="200"
       id="guide5596" />
  </sodipodi:namedview>
  <defs
     id="defs5498">
    <inkscape:perspective
       sodipodi:type="inkscape:persp3d"
       inkscape:vp_x="0 : 500 : 1"
       inkscape:vp_y="0 : 1000 : 0"
       inkscape:vp_z="1000 : 500 : 1"
       inkscape:persp3d-origin="500 : 333.33333 : 1"
       id="perspective8" />
    <inkscape:perspective
       id="perspective2388"
       inkscape:persp3d-origin="372.04724 : 350.78739 : 1"
       inkscape:vp_z="744.09448 : 526.18109 : 1"
       inkscape:vp_y="0 : 1000 : 0"
       inkscape:vp_x="0 : 526.18109 : 1"
       sodipodi:type="inkscape:persp3d" />
    <inkscape:perspective
       id="perspective2418"
       inkscape:persp3d-origin="372.04724 : 350.78739 : 1"
       inkscape:vp_z="744.09448 : 526.18109 : 1"
       inkscape:vp_y="0 : 1000 : 0"
       inkscape:vp_x="0 : 526.18109 : 1"
       sodipodi:type="inkscape:persp3d" />
  </defs>
  <g
     id="layer1"
     transform="matrix(1.3,0,0,1.3,-117.08545,373.68182)" />
  <path
     style="fill:none;fill-rule:evenodd;stroke:#000000;stroke-width:1px;stroke-linecap:butt;stroke-linejoin:miter;stroke-opacity:1"
     d="M 597.6531,800 C 550.46375,807.87206 536.68609,772.93538 518.86135,743.18403 C 490.00482,751.12921 378.8084,782.04133 362.11961,789.22922 C 357.29482,791.30727 352.6398,804.67748 352.11545,809.39148 C 347.204,853.79948 339.11728,891.28873 325.16928,927.54986 C 286.30104,1028.5971 187.10294,1131.5851 129.68904,1140.036 C 83.143617,1146.8873 -20.3263,1106.6737 -52.040188,1090.2993 C -58.458778,1086.9853 -57.173388,1074.8891 -49.509248,1075.3666 C 3.4573614,1078.6669 48.352536,1088.3778 106.64998,1070.3048 C 135.04763,1061.5012 260.4446,996.93897 319.93013,866.78165 C 321.16138,864.08761 320.93832,862.67421 320.09801,860.03743 C 313.37919,838.95478 303.84114,814.63949 285.50068,791.9118 C 283.22743,789.09478 282.08602,782.13037 283.52594,778.93124 L 318.62117,700.95885 C 319.60991,697.00869 328.06177,694.80968 331.00676,693.98968 C 366.43951,684.12389 477.35524,651.53333 547.21502,632.14323 C 552.60397,630.64749 558.44793,630.54791 560.44655,638.3081 C 566.00462,659.88881 573.9397,699.31879 596.66616,707.47974 L 597.6531,800 z"
     id="path2394"
     sodipodi:nodetypes="ccssssssssssssssscc" />
</svg>
