<?xml version="1.0" encoding="UTF-8" standalone="no"?>
<!-- Created with Inkscape (http://www.inkscape.org/) -->
<svg
   xmlns:dc="http://purl.org/dc/elements/1.1/"
   xmlns:cc="http://creativecommons.org/ns#"
   xmlns:rdf="http://www.w3.org/1999/02/22-rdf-syntax-ns#"
   xmlns:svg="http://www.w3.org/2000/svg"
   xmlns="http://www.w3.org/2000/svg"
   xmlns:sodipodi="http://sodipodi.sourceforge.net/DTD/sodipodi-0.dtd"
   xmlns:inkscape="http://www.inkscape.org/namespaces/inkscape"
   version="1.0"
   width="1000"
   height="1000"
   id="svg5496"
   sodipodi:version="0.32"
   inkscape:version="0.46"
   sodipodi:docname="raa.alt.fina.svg"
   inkscape:output_extension="org.inkscape.output.svg.inkscape">
  <metadata
     id="metadata5594">
    <rdf:RDF>
      <cc:Work
         rdf:about="">
        <dc:format>image/svg+xml</dc:format>
        <dc:type
           rdf:resource="http://purl.org/dc/dcmitype/StillImage" />
      </cc:Work>
    </rdf:RDF>
  </metadata>
  <sodipodi:namedview
     inkscape:pageshadow="2"
     inkscape:pageopacity="0.0"
     guidetolerance="10.0"
     gridtolerance="10.0"
     objecttolerance="10.0"
     borderopacity="1.0"
     bordercolor="#666666"
     pagecolor="#ffffff"
     id="base"
     showgrid="false"
     showguides="true"
     inkscape:guide-bbox="true"
     inkscape:zoom="1.2841059"
     inkscape:cx="332.32522"
     inkscape:cy="249.04409"
     inkscape:window-x="0"
     inkscape:window-y="25"
     inkscape:current-layer="svg5496">
    <sodipodi:guide
       orientation="horizontal"
       position="200"
       id="guide5596" />
  </sodipodi:namedview>
  <defs
     id="defs5498">
    <inkscape:perspective
       sodipodi:type="inkscape:persp3d"
       inkscape:vp_x="0 : 500 : 1"
       inkscape:vp_y="0 : 1000 : 0"
       inkscape:vp_z="1000 : 500 : 1"
       inkscape:persp3d-origin="500 : 333.33333 : 1"
       id="perspective8" />
    <inkscape:perspective
       id="perspective2388"
       inkscape:persp3d-origin="372.04724 : 350.78739 : 1"
       inkscape:vp_z="744.09448 : 526.18109 : 1"
       inkscape:vp_y="0 : 1000 : 0"
       inkscape:vp_x="0 : 526.18109 : 1"
       sodipodi:type="inkscape:persp3d" />
    <inkscape:perspective
       id="perspective2418"
       inkscape:persp3d-origin="372.04724 : 350.78739 : 1"
       inkscape:vp_z="744.09448 : 526.18109 : 1"
       inkscape:vp_y="0 : 1000 : 0"
       inkscape:vp_x="0 : 526.18109 : 1"
       sodipodi:type="inkscape:persp3d" />
  </defs>
  <g
     id="layer1"
     transform="translate(-92.290749,472.06294)" />
  <path
     style="fill:none;fill-rule:evenodd;stroke:#000000;stroke-width:1px;stroke-linecap:butt;stroke-linejoin:miter;stroke-opacity:1"
     d="M 457.50814,800 C 421.20864,806.05543 410.61044,779.18106 396.8991,756.29541 C 374.70177,762.40709 289.16606,786.18564 276.32853,791.71479 C 272.61715,793.31329 269.03637,803.59806 268.63302,807.22422 C 264.85498,841.38422 258.63443,870.2221 247.9052,898.11528 C 218.00655,975.84391 141.70032,1055.0654 97.53578,1061.5662 C 61.73161,1066.8364 -17.860634,1035.9029 -42.255935,1023.3071 C -47.193313,1020.7579 -46.204546,1011.4532 -40.309055,1011.8205 C 0.43449,1014.3592 34.96924,1021.8291 79.81343,1007.9268 C 101.65777,1001.1547 198.11698,951.49152 243.87508,851.3705 C 244.8222,849.29816 244.65061,848.21093 244.00422,846.18264 C 238.8359,829.96522 231.49894,811.26115 217.39089,793.77831 C 215.64224,791.61137 214.76423,786.25413 215.87186,783.79326 L 242.86819,723.8145 C 243.62876,720.77592 250.13019,719.08437 252.39557,718.4536 C 279.65153,710.86453 364.97132,685.79487 418.70961,670.87941 C 422.85496,669.72884 427.35031,669.65224 428.88771,675.62162 C 433.16315,692.22216 439.26706,722.55292 456.74895,728.83057 L 457.50814,800 z"
     id="path2394"
     sodipodi:nodetypes="ccssssssssssssssscc" />
</svg>
