<?xml version="1.0" encoding="UTF-8" standalone="no"?>
<!-- Created with Inkscape (http://www.inkscape.org/) -->
<svg
   xmlns:dc="http://purl.org/dc/elements/1.1/"
   xmlns:cc="http://creativecommons.org/ns#"
   xmlns:rdf="http://www.w3.org/1999/02/22-rdf-syntax-ns#"
   xmlns:svg="http://www.w3.org/2000/svg"
   xmlns="http://www.w3.org/2000/svg"
   xmlns:sodipodi="http://sodipodi.sourceforge.net/DTD/sodipodi-0.dtd"
   xmlns:inkscape="http://www.inkscape.org/namespaces/inkscape"
   version="1.0"
   width="1000"
   height="1000"
   id="svg5496"
   sodipodi:version="0.32"
   inkscape:version="0.46"
   sodipodi:docname="sad+haa.init.svg"
   inkscape:output_extension="org.inkscape.output.svg.inkscape">
  <metadata
     id="metadata5594">
    <rdf:RDF>
      <cc:Work
         rdf:about="">
        <dc:format>image/svg+xml</dc:format>
        <dc:type
           rdf:resource="http://purl.org/dc/dcmitype/StillImage" />
      </cc:Work>
    </rdf:RDF>
  </metadata>
  <sodipodi:namedview
     inkscape:pageshadow="2"
     inkscape:pageopacity="0.0"
     guidetolerance="10.0"
     gridtolerance="10.0"
     objecttolerance="10.0"
     borderopacity="1.0"
     bordercolor="#666666"
     pagecolor="#ffffff"
     id="base"
     showgrid="false"
     showguides="true"
     inkscape:guide-bbox="true"
     inkscape:zoom="0.64205296"
     inkscape:cx="519.42906"
     inkscape:cy="492.44172"
     inkscape:window-x="0"
     inkscape:window-y="25"
     inkscape:current-layer="svg5496">
    <sodipodi:guide
       orientation="horizontal"
       position="200"
       id="guide5596" />
  </sodipodi:namedview>
  <defs
     id="defs5498">
    <inkscape:perspective
       sodipodi:type="inkscape:persp3d"
       inkscape:vp_x="0 : 500 : 1"
       inkscape:vp_y="0 : 1000 : 0"
       inkscape:vp_z="1000 : 500 : 1"
       inkscape:persp3d-origin="500 : 333.33333 : 1"
       id="perspective8" />
    <inkscape:perspective
       id="perspective2388"
       inkscape:persp3d-origin="372.04724 : 350.78739 : 1"
       inkscape:vp_z="744.09448 : 526.18109 : 1"
       inkscape:vp_y="0 : 1000 : 0"
       inkscape:vp_x="0 : 526.18109 : 1"
       sodipodi:type="inkscape:persp3d" />
    <inkscape:perspective
       sodipodi:type="inkscape:persp3d"
       inkscape:vp_x="0 : 526.18109 : 1"
       inkscape:vp_y="0 : 1000 : 0"
       inkscape:vp_z="744.09448 : 526.18109 : 1"
       inkscape:persp3d-origin="372.04724 : 350.78739 : 1"
       id="perspective2455" />
    <inkscape:perspective
       id="perspective2453"
       inkscape:persp3d-origin="500 : 333.33333 : 1"
       inkscape:vp_z="1000 : 500 : 1"
       inkscape:vp_y="0 : 1000 : 0"
       inkscape:vp_x="0 : 500 : 1"
       sodipodi:type="inkscape:persp3d" />
    <inkscape:perspective
       sodipodi:type="inkscape:persp3d"
       inkscape:vp_x="0 : 526.18109 : 1"
       inkscape:vp_y="0 : 1000 : 0"
       inkscape:vp_z="744.09448 : 526.18109 : 1"
       inkscape:persp3d-origin="372.04724 : 350.78739 : 1"
       id="perspective2574" />
    <inkscape:perspective
       sodipodi:type="inkscape:persp3d"
       inkscape:vp_x="0 : 526.18109 : 1"
       inkscape:vp_y="0 : 1000 : 0"
       inkscape:vp_z="744.09448 : 526.18109 : 1"
       inkscape:persp3d-origin="372.04724 : 350.78739 : 1"
       id="perspective2477" />
    <inkscape:perspective
       id="perspective2559"
       inkscape:persp3d-origin="500 : 333.33333 : 1"
       inkscape:vp_z="1000 : 500 : 1"
       inkscape:vp_y="0 : 1000 : 0"
       inkscape:vp_x="0 : 500 : 1"
       sodipodi:type="inkscape:persp3d" />
  </defs>
  <g
     id="layer1"
     transform="translate(-65.857918,33.47673)" />
  <path
     style="fill:#000000;fill-rule:evenodd;stroke:#000000;stroke-width:1px;stroke-linecap:butt;stroke-linejoin:miter;stroke-opacity:1"
     d="M 415.4762,497.625 C 400.76785,512.17852 388.10446,525.27302 377.9762,535.6875 C 370.16152,543.723 354.73315,535.81079 363.6637,522.46875 C 372.31492,509.54402 382.52335,495.78598 393.94495,481.5625 C 365.40194,455.76055 342.63309,419.11724 333.8512,408.125 C 331.71507,405.45122 326.20572,406.84801 325.00745,408.25 C 284.41952,455.73812 249.88477,498.91876 191.38245,525.46875 C 185.03429,528.34973 182.52869,537.21268 189.94495,539.59375 C 333.84176,585.79344 553.89748,601.62475 633.31995,592 C 636.82391,591.57539 644.11057,593.30749 638.50745,601.90625 L 590.5387,675.5625 C 589.02718,677.88215 585.07542,678.47975 582.5387,678.34375 C 511.83196,674.51124 393.02085,679.96078 255.31995,719.71875 C 190.24903,738.50651 113.82445,776.99329 1.5074451,800 L 0.60119507,703.71875 C 92.010275,692.31014 177.85267,673.78044 249.7262,645.15625 C 255.57084,642.83487 258.3558,639.77097 249.88245,635.6875 C 182.03758,602.99178 80.227515,600.58118 17.851195,605.625 C 19.622232,580.47815 53.215239,530.49695 79.507445,522.46875 C 207.80525,483.2936 286.58707,411.55594 324.06995,346.9375 C 334.78515,328.46505 350.05873,331.45401 360.4137,348.3125 C 376.63557,374.72266 405.5413,404.68686 447.4137,420.78125 C 541.08986,322.28981 668.37695,223.30079 734.88245,221.8125 C 735.5948,221.79656 736.30917,221.80595 737.00745,221.8125 C 793.25915,222.35027 850.55161,285.5876 839.4137,335.25 C 814.41396,434.2356 750.19736,464.05216 659.25745,492.125 C 574.8624,515.88587 461.20097,522.10072 415.4762,497.625 z M 487.9762,430.96875 C 543.09834,384.45816 608.95154,339.23835 674.2262,322.03125 C 699.85645,315.27484 747.85555,331.39738 773.3512,358.375 C 744.05514,399.64863 580.61069,436.91967 487.9762,430.96875 z"
     id="path2568"
     sodipodi:nodetypes="csscssssscccscccscsssccsccccscc" />
</svg>
