<?xml version="1.0" encoding="UTF-8" standalone="no"?>
<!-- Created with Inkscape (http://www.inkscape.org/) -->
<svg
   xmlns:dc="http://purl.org/dc/elements/1.1/"
   xmlns:cc="http://creativecommons.org/ns#"
   xmlns:rdf="http://www.w3.org/1999/02/22-rdf-syntax-ns#"
   xmlns:svg="http://www.w3.org/2000/svg"
   xmlns="http://www.w3.org/2000/svg"
   xmlns:sodipodi="http://sodipodi.sourceforge.net/DTD/sodipodi-0.dtd"
   xmlns:inkscape="http://www.inkscape.org/namespaces/inkscape"
   version="1.0"
   width="1000"
   height="1000"
   id="svg5496"
   sodipodi:version="0.32"
   inkscape:version="0.46"
   sodipodi:docname="sad.fina.svg"
   inkscape:output_extension="org.inkscape.output.svg.inkscape">
  <metadata
     id="metadata5594">
    <rdf:RDF>
      <cc:Work
         rdf:about="">
        <dc:format>image/svg+xml</dc:format>
        <dc:type
           rdf:resource="http://purl.org/dc/dcmitype/StillImage" />
      </cc:Work>
    </rdf:RDF>
  </metadata>
  <sodipodi:namedview
     inkscape:pageshadow="2"
     inkscape:pageopacity="0.0"
     guidetolerance="10.0"
     gridtolerance="10.0"
     objecttolerance="10.0"
     borderopacity="1.0"
     bordercolor="#666666"
     pagecolor="#ffffff"
     id="base"
     showgrid="false"
     showguides="true"
     inkscape:guide-bbox="true"
     inkscape:zoom="0.64205296"
     inkscape:cx="818.71007"
     inkscape:cy="356.04551"
     inkscape:window-x="0"
     inkscape:window-y="25"
     inkscape:current-layer="svg5496">
    <sodipodi:guide
       orientation="horizontal"
       position="200"
       id="guide5596" />
  </sodipodi:namedview>
  <defs
     id="defs5498">
    <inkscape:perspective
       sodipodi:type="inkscape:persp3d"
       inkscape:vp_x="0 : 500 : 1"
       inkscape:vp_y="0 : 1000 : 0"
       inkscape:vp_z="1000 : 500 : 1"
       inkscape:persp3d-origin="500 : 333.33333 : 1"
       id="perspective3437" />
    <inkscape:perspective
       id="perspective3446"
       inkscape:persp3d-origin="372.04724 : 350.78739 : 1"
       inkscape:vp_z="744.09448 : 526.18109 : 1"
       inkscape:vp_y="0 : 1000 : 0"
       inkscape:vp_x="0 : 526.18109 : 1"
       sodipodi:type="inkscape:persp3d" />
    <inkscape:perspective
       sodipodi:type="inkscape:persp3d"
       inkscape:vp_x="0 : 526.18109 : 1"
       inkscape:vp_y="0 : 1000 : 0"
       inkscape:vp_z="744.09448 : 526.18109 : 1"
       inkscape:persp3d-origin="372.04724 : 350.78739 : 1"
       id="perspective2388" />
    <inkscape:perspective
       id="perspective8"
       inkscape:persp3d-origin="500 : 333.33333 : 1"
       inkscape:vp_z="1000 : 500 : 1"
       inkscape:vp_y="0 : 1000 : 0"
       inkscape:vp_x="0 : 500 : 1"
       sodipodi:type="inkscape:persp3d" />
  </defs>
  <g
     id="layer1"
     transform="translate(-174.70766,246.53923)" />
  <g
     id="g3515"
     transform="translate(-51.388911,274.11196)" />
  <path
     style="fill:none;fill-rule:evenodd;stroke:#000000;stroke-width:1px;stroke-linecap:butt;stroke-linejoin:miter;stroke-opacity:1"
     d="M 812.32455,528.21875 C 811.35483,528.2055 810.40239,528.21841 809.44955,528.25 C 752.4529,528.07063 633.49685,614.57435 545.9183,703.375 C 511.16837,702.114 473.81545,695.99288 452.94955,683.15625 L 422.44955,631.71875 C 419.38334,626.54991 412.20584,622.10991 407.8558,633.65625 L 382.4183,701.21875 C 379.90213,707.8974 383.84685,711.45352 386.94955,715.75 C 406.81094,743.25345 420.45687,778.47541 429.4183,836.4375 C 429.94075,840.88775 430.418,843.32731 428.38705,848.15625 C 392.80335,937.01863 233.99191,959.15712 184.1058,955.84375 C -4.5956412,943.31043 33.631019,748.1609 84.074549,687.09375 C 89.818209,680.14045 87.392539,664.84612 73.074549,680.5 C 34.995809,722.1315 -50.624431,903.67562 40.262049,991.96875 C 82.712529,1033.2006 120.28633,1039.0707 193.1058,1039.5312 C 221.74995,1039.391 350.90703,1016.0958 411.0433,945.28125 C 436.52977,915.31025 457.03906,848.89876 465.8558,777.65625 C 505.80162,786.71384 568.24162,792.51962 632.44955,787.25 C 643.36609,786.35407 654.31395,785.17882 665.2308,783.71875 C 721.59875,803.14565 829.58855,816.49381 914.26205,800 L 915.82455,740.8125 C 885.46055,743.94581 838.24325,751.97192 798.3558,747.59375 C 821.52565,736.68488 840.96125,723.59722 854.54325,708.34375 C 866.34885,695.08542 892.13955,643.92843 895.76205,612.5 C 896.30575,607.7826 895.72845,603.57347 894.35585,598.9375 C 880.07015,550.68564 842.38575,528.62958 812.32455,528.21875 z"
     id="path2394" />
  <path
     style="fill:none;fill-rule:evenodd;stroke:#000000;stroke-width:1px;stroke-linecap:butt;stroke-linejoin:miter;stroke-opacity:1"
     d="M 585.17497,706.93134 C 627.09254,674.83772 681.44844,634.5224 731.83969,621.48444 C 765.21943,612.84795 805.20143,615.23215 845.54305,651.86526 C 779.40375,701.57375 678.03829,712.31124 585.17497,706.93134 z"
     id="path2396"
     sodipodi:nodetypes="cscc" />
</svg>
