<?xml version="1.0" encoding="UTF-8" standalone="no"?>
<!-- Created with Inkscape (http://www.inkscape.org/) -->
<svg
   xmlns:dc="http://purl.org/dc/elements/1.1/"
   xmlns:cc="http://creativecommons.org/ns#"
   xmlns:rdf="http://www.w3.org/1999/02/22-rdf-syntax-ns#"
   xmlns:svg="http://www.w3.org/2000/svg"
   xmlns="http://www.w3.org/2000/svg"
   xmlns:sodipodi="http://sodipodi.sourceforge.net/DTD/sodipodi-0.dtd"
   xmlns:inkscape="http://www.inkscape.org/namespaces/inkscape"
   version="1.0"
   width="1000"
   height="1000"
   id="svg5496"
   sodipodi:version="0.32"
   inkscape:version="0.46"
   sodipodi:docname="sad.medi.svg"
   inkscape:output_extension="org.inkscape.output.svg.inkscape">
  <metadata
     id="metadata5594">
    <rdf:RDF>
      <cc:Work
         rdf:about="">
        <dc:format>image/svg+xml</dc:format>
        <dc:type
           rdf:resource="http://purl.org/dc/dcmitype/StillImage" />
      </cc:Work>
    </rdf:RDF>
  </metadata>
  <sodipodi:namedview
     inkscape:pageshadow="2"
     inkscape:pageopacity="0.0"
     guidetolerance="10.0"
     gridtolerance="10.0"
     objecttolerance="10.0"
     borderopacity="1.0"
     bordercolor="#666666"
     pagecolor="#ffffff"
     id="base"
     showgrid="false"
     showguides="true"
     inkscape:guide-bbox="true"
     inkscape:zoom="0.51"
     inkscape:cx="500"
     inkscape:cy="500"
     inkscape:window-x="0"
     inkscape:window-y="25"
     inkscape:current-layer="svg5496">
    <sodipodi:guide
       orientation="horizontal"
       position="200"
       id="guide5596" />
  </sodipodi:namedview>
  <defs
     id="defs5498">
    <inkscape:perspective
       sodipodi:type="inkscape:persp3d"
       inkscape:vp_x="0 : 500 : 1"
       inkscape:vp_y="0 : 1000 : 0"
       inkscape:vp_z="1000 : 500 : 1"
       inkscape:persp3d-origin="500 : 333.33333 : 1"
       id="perspective8" />
    <inkscape:perspective
       id="perspective2388"
       inkscape:persp3d-origin="372.04724 : 350.78739 : 1"
       inkscape:vp_z="744.09448 : 526.18109 : 1"
       inkscape:vp_y="0 : 1000 : 0"
       inkscape:vp_x="0 : 526.18109 : 1"
       sodipodi:type="inkscape:persp3d" />
  </defs>
  <g
     id="layer1"
     transform="matrix(1.3,0,0,1.3,-205.44461,-82.184593)" />
  <path
     style="fill:none;fill-rule:evenodd;stroke:#000000;stroke-width:1px;stroke-linecap:butt;stroke-linejoin:miter;stroke-opacity:1"
     d="M 284.12678,702.28013 C 368.08747,588.96841 551.53361,468.92942 630.77925,453.47036 C 659.65104,447.83811 776.13732,491.14761 773.52448,556.73287 C 762.11518,601.38355 736.27635,646.21283 718.26306,672.19479 C 696.73959,703.23972 654.06394,726.54321 622.68023,750.09697 C 692.53581,751.1124 753.29015,733.92539 818.06909,724.78753 L 815.03196,836.14907 C 721.72656,833.90258 615.53569,824.10695 516.79993,811.55549 C 439.70196,819.19635 349.04016,816.92779 270.48513,797.43308 C 254.27013,837.9394 244.36073,871.51777 237.68024,907.06637 C 233.09609,931.45987 198.05651,928.32496 199.20989,905.93117 C 201.85227,854.62665 218.01961,814.71698 233.92724,785.53019 C 185.58452,774.20911 151.0138,745.52333 124.59047,706.56474 C 102.00427,715.76637 45.069534,800.62735 -9.5855229,800 L 3.1051561,698.46572 C 59.070937,701.90969 102.15342,646.71572 127.39746,627.18786 C 143.11971,615.0257 149.41284,621.53896 162.5292,637.22568 C 183.0374,661.75278 220.59777,694.56407 284.12678,702.28013 z"
     id="path2394"
     sodipodi:nodetypes="cscscccccssccccssc" />
  <path
     style="fill:none;fill-rule:evenodd;stroke:#000000;stroke-width:1px;stroke-linecap:butt;stroke-linejoin:miter;stroke-opacity:1"
     d="M 338.84605,712.63901 C 382.64605,645.93739 549.03782,575.84206 579.56207,573.25813 C 610.0863,570.6742 662.69717,598.61065 682.38068,615.7226 C 684.33241,617.41935 685.14963,625.79867 682.44201,628.13468 C 642.43987,662.64668 460.28859,717.92067 338.84605,712.63901 z"
     id="path2396"
     sodipodi:nodetypes="czssc" />
</svg>
