<?xml version="1.0" encoding="UTF-8" standalone="no"?>
<!-- Created with Inkscape (http://www.inkscape.org/) -->

<svg
   xmlns:dc="http://purl.org/dc/elements/1.1/"
   xmlns:cc="http://creativecommons.org/ns#"
   xmlns:rdf="http://www.w3.org/1999/02/22-rdf-syntax-ns#"
   xmlns:svg="http://www.w3.org/2000/svg"
   xmlns="http://www.w3.org/2000/svg"
   xmlns:sodipodi="http://sodipodi.sourceforge.net/DTD/sodipodi-0.dtd"
   xmlns:inkscape="http://www.inkscape.org/namespaces/inkscape"
   version="1.0"
   width="1000"
   height="1000"
   id="svg5496"
   sodipodi:version="0.32"
   inkscape:version="0.47pre0 r21549"
   sodipodi:docname="sad.isol.svg"
   inkscape:output_extension="org.inkscape.output.svg.inkscape">
  <metadata
     id="metadata5594">
    <rdf:RDF>
      <cc:Work
         rdf:about="">
        <dc:format>image/svg+xml</dc:format>
        <dc:type
           rdf:resource="http://purl.org/dc/dcmitype/StillImage" />
      </cc:Work>
    </rdf:RDF>
  </metadata>
  <sodipodi:namedview
     inkscape:pageshadow="2"
     inkscape:pageopacity="0.0"
     guidetolerance="10.0"
     gridtolerance="10.0"
     objecttolerance="10.0"
     borderopacity="1.0"
     bordercolor="#666666"
     pagecolor="#ffffff"
     id="base"
     showgrid="false"
     showguides="true"
     inkscape:guide-bbox="true"
     inkscape:zoom="0.236"
     inkscape:cx="-381.35593"
     inkscape:cy="500"
     inkscape:window-x="0"
     inkscape:window-y="25"
     inkscape:current-layer="svg5496">
    <sodipodi:guide
       orientation="horizontal"
       position="200"
       id="guide5596" />
  </sodipodi:namedview>
  <defs
     id="defs5498">
    <inkscape:perspective
       sodipodi:type="inkscape:persp3d"
       inkscape:vp_x="0 : 500 : 1"
       inkscape:vp_y="0 : 1000 : 0"
       inkscape:vp_z="1000 : 500 : 1"
       inkscape:persp3d-origin="500 : 333.33333 : 1"
       id="perspective8" />
    <inkscape:perspective
       id="perspective2388"
       inkscape:persp3d-origin="372.04724 : 350.78739 : 1"
       inkscape:vp_z="744.09448 : 526.18109 : 1"
       inkscape:vp_y="0 : 1000 : 0"
       inkscape:vp_x="0 : 526.18109 : 1"
       sodipodi:type="inkscape:persp3d" />
  </defs>
  <g
     id="layer1"
     transform="matrix(1.3,0,0,1.3,-64.19854,145.37235)" />
  <path
     style="fill:#000000;fill-rule:evenodd;stroke:#000000;stroke-width:1px;stroke-linecap:butt;stroke-linejoin:miter;stroke-opacity:1"
     d="M 1058.6562 475.71875 C 1057.3956 475.70152 1056.1449 475.74019 1054.9062 475.78125 C 980.8106 475.54807 826.16461 587.96539 712.3125 703.40625 C 667.13759 701.76695 618.56314 693.81262 591.4375 677.125 L 551.78125 610.25 C 547.79517 603.53051 538.46758 597.77099 532.8125 612.78125 L 499.75 700.625 C 496.47898 709.30725 501.59152 713.91456 505.625 719.5 C 531.44481 755.25449 549.19385 801.0243 560.84375 876.375 C 561.52293 882.16033 562.17151 885.34739 559.53125 891.625 C 513.27244 1007.1461 306.78946 1035.9011 241.9375 1031.5938 C -3.3743597 1015.3004 46.32968 761.66853 111.90625 682.28125 C 119.37301 673.24196 116.20715 653.33747 97.59375 673.6875 C 48.09139 727.80845 -63.214943 963.81269 54.9375 1078.5938 C 110.12312 1132.1951 158.99095 1139.8075 253.65625 1140.4062 C 290.89364 1140.2239 458.7916 1109.934 536.96875 1017.875 C 570.10117 978.91278 596.72574 892.61526 608.1875 800 C 660.11707 811.77487 741.31096 819.28802 824.78125 812.4375 C 940.59493 802.93252 1060.8134 769.04524 1113.5 709.875 C 1128.8472 692.63917 1162.3845 626.13822 1167.0938 585.28125 C 1167.8005 579.14863 1167.0656 573.65175 1165.2812 567.625 C 1146.7098 504.89758 1097.7358 476.25282 1058.6562 475.71875 z M 992.46875 591.5625 C 1026.6666 591.00191 1064.1183 602.20844 1101.8125 636.4375 C 1015.8314 701.05854 884.06606 715.02512 763.34375 708.03125 C 817.83659 666.30954 888.49138 613.91809 954 596.96875 C 966.20447 593.81103 979.08698 591.78186 992.46875 591.5625 z "
     id="path2394" />
</svg>
