<?xml version="1.0" encoding="UTF-8" standalone="no"?>
<!-- Created with Inkscape (http://www.inkscape.org/) -->
<svg
   xmlns:dc="http://purl.org/dc/elements/1.1/"
   xmlns:cc="http://creativecommons.org/ns#"
   xmlns:rdf="http://www.w3.org/1999/02/22-rdf-syntax-ns#"
   xmlns:svg="http://www.w3.org/2000/svg"
   xmlns="http://www.w3.org/2000/svg"
   xmlns:sodipodi="http://sodipodi.sourceforge.net/DTD/sodipodi-0.dtd"
   xmlns:inkscape="http://www.inkscape.org/namespaces/inkscape"
   version="1.0"
   width="1000"
   height="1000"
   id="svg5496"
   sodipodi:version="0.32"
   inkscape:version="0.46"
   sodipodi:docname="sad.medi.svg"
   inkscape:output_extension="org.inkscape.output.svg.inkscape">
  <metadata
     id="metadata5594">
    <rdf:RDF>
      <cc:Work
         rdf:about="">
        <dc:format>image/svg+xml</dc:format>
        <dc:type
           rdf:resource="http://purl.org/dc/dcmitype/StillImage" />
      </cc:Work>
    </rdf:RDF>
  </metadata>
  <sodipodi:namedview
     inkscape:pageshadow="2"
     inkscape:pageopacity="0.0"
     guidetolerance="10.0"
     gridtolerance="10.0"
     objecttolerance="10.0"
     borderopacity="1.0"
     bordercolor="#666666"
     pagecolor="#ffffff"
     id="base"
     showgrid="false"
     showguides="true"
     inkscape:guide-bbox="true"
     inkscape:zoom="0.64205296"
     inkscape:cx="713.75334"
     inkscape:cy="454.38177"
     inkscape:window-x="0"
     inkscape:window-y="25"
     inkscape:current-layer="svg5496">
    <sodipodi:guide
       orientation="horizontal"
       position="200"
       id="guide5596" />
  </sodipodi:namedview>
  <defs
     id="defs5498">
    <inkscape:perspective
       sodipodi:type="inkscape:persp3d"
       inkscape:vp_x="0 : 500 : 1"
       inkscape:vp_y="0 : 1000 : 0"
       inkscape:vp_z="1000 : 500 : 1"
       inkscape:persp3d-origin="500 : 333.33333 : 1"
       id="perspective8" />
    <inkscape:perspective
       id="perspective2388"
       inkscape:persp3d-origin="372.04724 : 350.78739 : 1"
       inkscape:vp_z="744.09448 : 526.18109 : 1"
       inkscape:vp_y="0 : 1000 : 0"
       inkscape:vp_x="0 : 526.18109 : 1"
       sodipodi:type="inkscape:persp3d" />
  </defs>
  <g
     id="layer1"
     transform="translate(-158.8654,123.37102)" />
  <path
     style="fill:none;fill-rule:evenodd;stroke:#000000;stroke-width:1px;stroke-linecap:butt;stroke-linejoin:miter;stroke-opacity:1"
     d="M 217.72798,726.80542 C 282.31312,639.64256 423.42554,547.30488 484.38372,535.41329 C 506.59279,531.08079 596.19762,564.39579 594.18775,614.84599 C 585.41136,649.19267 565.53534,683.67673 551.67896,703.66285 C 535.12245,727.54357 502.29502,745.46933 478.15371,763.58761 C 531.88877,764.36871 578.62288,751.14793 628.45283,744.11881 L 626.11658,829.78153 C 554.34319,828.05346 472.65791,820.51836 396.70732,810.86339 C 337.40119,816.74098 267.66135,814.99593 207.2344,800 C 194.76132,831.15871 187.13871,856.98822 181.99987,884.3333 C 178.4736,903.09753 151.52008,900.68606 152.40729,883.46007 C 154.43989,843.99505 166.87631,813.29531 179.11295,790.84393 C 141.92624,782.13541 115.33338,760.06942 95.00774,730.10128 C 77.63374,737.17945 33.83779,802.45713 -8.2045602,801.97455 L 1.5574998,723.87126 C 44.6081,726.52047 77.74847,684.06357 97.16696,669.04214 C 109.261,659.68663 114.10187,664.69683 124.19138,676.76354 C 139.96692,695.63054 168.85951,720.86999 217.72798,726.80542 z"
     id="path2394"
     sodipodi:nodetypes="cscscccccssccccssc" />
  <path
     style="fill:none;fill-rule:evenodd;stroke:#000000;stroke-width:1px;stroke-linecap:butt;stroke-linejoin:miter;stroke-opacity:1"
     d="M 259.81972,734.77379 C 293.51203,683.46485 421.5057,629.54537 444.98589,627.55773 C 468.46607,625.57009 508.93597,647.05967 524.07713,660.22271 C 525.57846,661.5279 526.20709,667.97353 524.12431,669.77046 C 493.35343,696.31815 353.23706,738.83661 259.81972,734.77379 z"
     id="path2396"
     sodipodi:nodetypes="czssc" />
</svg>
