<?xml version="1.0" encoding="UTF-8" standalone="no"?>
<!-- Created with Inkscape (http://www.inkscape.org/) -->
<svg
   xmlns:dc="http://purl.org/dc/elements/1.1/"
   xmlns:cc="http://creativecommons.org/ns#"
   xmlns:rdf="http://www.w3.org/1999/02/22-rdf-syntax-ns#"
   xmlns:svg="http://www.w3.org/2000/svg"
   xmlns="http://www.w3.org/2000/svg"
   xmlns:sodipodi="http://sodipodi.sourceforge.net/DTD/sodipodi-0.dtd"
   xmlns:inkscape="http://www.inkscape.org/namespaces/inkscape"
   version="1.0"
   width="1000"
   height="1000"
   id="svg5496"
   sodipodi:version="0.32"
   inkscape:version="0.46"
   sodipodi:docname="sad.fina.svg"
   inkscape:output_extension="org.inkscape.output.svg.inkscape">
  <metadata
     id="metadata5594">
    <rdf:RDF>
      <cc:Work
         rdf:about="">
        <dc:format>image/svg+xml</dc:format>
        <dc:type
           rdf:resource="http://purl.org/dc/dcmitype/StillImage" />
      </cc:Work>
    </rdf:RDF>
  </metadata>
  <sodipodi:namedview
     inkscape:pageshadow="2"
     inkscape:pageopacity="0.0"
     guidetolerance="10.0"
     gridtolerance="10.0"
     objecttolerance="10.0"
     borderopacity="1.0"
     bordercolor="#666666"
     pagecolor="#ffffff"
     id="base"
     showgrid="false"
     showguides="true"
     inkscape:guide-bbox="true"
     inkscape:zoom="0.236"
     inkscape:cx="500"
     inkscape:cy="500"
     inkscape:window-x="0"
     inkscape:window-y="25"
     inkscape:current-layer="svg5496">
    <sodipodi:guide
       orientation="horizontal"
       position="200"
       id="guide5596" />
  </sodipodi:namedview>
  <defs
     id="defs5498">
    <inkscape:perspective
       sodipodi:type="inkscape:persp3d"
       inkscape:vp_x="0 : 500 : 1"
       inkscape:vp_y="0 : 1000 : 0"
       inkscape:vp_z="1000 : 500 : 1"
       inkscape:persp3d-origin="500 : 333.33333 : 1"
       id="perspective3437" />
    <inkscape:perspective
       id="perspective3446"
       inkscape:persp3d-origin="372.04724 : 350.78739 : 1"
       inkscape:vp_z="744.09448 : 526.18109 : 1"
       inkscape:vp_y="0 : 1000 : 0"
       inkscape:vp_x="0 : 526.18109 : 1"
       sodipodi:type="inkscape:persp3d" />
    <inkscape:perspective
       sodipodi:type="inkscape:persp3d"
       inkscape:vp_x="0 : 526.18109 : 1"
       inkscape:vp_y="0 : 1000 : 0"
       inkscape:vp_z="744.09448 : 526.18109 : 1"
       inkscape:persp3d-origin="372.04724 : 350.78739 : 1"
       id="perspective2388" />
    <inkscape:perspective
       id="perspective8"
       inkscape:persp3d-origin="500 : 333.33333 : 1"
       inkscape:vp_z="1000 : 500 : 1"
       inkscape:vp_y="0 : 1000 : 0"
       inkscape:vp_x="0 : 500 : 1"
       sodipodi:type="inkscape:persp3d" />
  </defs>
  <g
     id="layer1"
     transform="matrix(1.3,0,0,1.3,-415.32414,80.501001)" />
  <g
     id="g3515"
     transform="matrix(1.3,0,0,1.3,-255.00976,116.34555)" />
  <path
     style="fill:none;fill-rule:evenodd;stroke:#000000;stroke-width:1px;stroke-linecap:butt;stroke-linejoin:miter;stroke-opacity:1"
     d="M 867.81774,446.68438 C 866.5571,446.66715 865.31893,446.68393 864.08024,446.725 C 789.98459,446.49182 635.34173,558.94666 521.48961,674.3875 C 476.3147,672.7482 427.75591,664.79075 400.63024,648.10313 L 360.98024,581.23438 C 356.99416,574.51488 347.66341,568.74288 342.00836,583.75313 L 308.93961,671.58438 C 305.66859,680.26662 310.79673,684.88958 314.83024,690.475 C 340.65004,726.22949 358.38975,772.01803 370.03961,847.36875 C 370.7188,853.15408 371.33922,856.3255 368.69899,862.60313 C 322.44018,978.12422 115.9853,1006.9042 51.133362,1002.5969 C -194.17851,986.30356 -144.48385,732.60917 -78.907264,653.22188 C -71.440506,644.18259 -74.593877,624.29996 -93.207264,644.65 C -142.70963,698.77095 -254.01594,934.77831 -135.86351,1049.5594 C -80.67789,1103.1608 -31.831949,1110.7919 62.833362,1111.3905 C 100.07076,1111.2083 267.97496,1080.9245 346.15211,988.86563 C 379.28452,949.90333 405.9466,863.56839 417.40836,770.95313 C 469.33793,782.72799 550.50993,790.27551 633.98024,783.425 C 648.17174,782.26029 662.40396,780.73247 676.59586,778.83438 C 749.8742,804.08935 890.26094,821.44195 1000.3364,800 L 1002.3677,723.05625 C 962.89454,727.12955 901.51205,737.5635 849.65836,731.87188 C 879.77917,717.69035 905.04545,700.67639 922.70205,680.84688 C 938.04933,663.61105 971.57724,597.10696 976.28644,556.25 C 976.99334,550.11738 976.24284,544.64551 974.45844,538.61875 C 955.88704,475.89133 906.8973,447.21846 867.81774,446.68438 z"
     id="path2394" />
  <path
     style="fill:none;fill-rule:evenodd;stroke:#000000;stroke-width:1px;stroke-linecap:butt;stroke-linejoin:miter;stroke-opacity:1"
     d="M 572.52328,679.01074 C 627.01612,637.28904 697.67879,584.87912 763.18742,567.92977 C 806.58108,556.70234 858.55768,559.8018 911.00179,607.42484 C 825.0207,672.04588 693.2456,686.00461 572.52328,679.01074 z"
     id="path2396"
     sodipodi:nodetypes="cscc" />
</svg>
