<?xml version="1.0" encoding="UTF-8" standalone="no"?>
<!-- Created with Inkscape (http://www.inkscape.org/) -->
<svg
   xmlns:dc="http://purl.org/dc/elements/1.1/"
   xmlns:cc="http://creativecommons.org/ns#"
   xmlns:rdf="http://www.w3.org/1999/02/22-rdf-syntax-ns#"
   xmlns:svg="http://www.w3.org/2000/svg"
   xmlns="http://www.w3.org/2000/svg"
   xmlns:sodipodi="http://sodipodi.sourceforge.net/DTD/sodipodi-0.dtd"
   xmlns:inkscape="http://www.inkscape.org/namespaces/inkscape"
   version="1.0"
   width="1000"
   height="1000"
   id="svg5496"
   sodipodi:version="0.32"
   inkscape:version="0.46"
   sodipodi:docname="sad.isol.svg"
   inkscape:output_extension="org.inkscape.output.svg.inkscape">
  <metadata
     id="metadata5594">
    <rdf:RDF>
      <cc:Work
         rdf:about="">
        <dc:format>image/svg+xml</dc:format>
        <dc:type
           rdf:resource="http://purl.org/dc/dcmitype/StillImage" />
      </cc:Work>
    </rdf:RDF>
  </metadata>
  <sodipodi:namedview
     inkscape:pageshadow="2"
     inkscape:pageopacity="0.0"
     guidetolerance="10.0"
     gridtolerance="10.0"
     objecttolerance="10.0"
     borderopacity="1.0"
     bordercolor="#666666"
     pagecolor="#ffffff"
     id="base"
     showgrid="false"
     showguides="true"
     inkscape:guide-bbox="true"
     inkscape:zoom="0.908"
     inkscape:cx="451.02353"
     inkscape:cy="440.8584"
     inkscape:window-x="0"
     inkscape:window-y="25"
     inkscape:current-layer="svg5496">
    <sodipodi:guide
       orientation="horizontal"
       position="200"
       id="guide5596" />
  </sodipodi:namedview>
  <defs
     id="defs5498">
    <inkscape:perspective
       sodipodi:type="inkscape:persp3d"
       inkscape:vp_x="0 : 500 : 1"
       inkscape:vp_y="0 : 1000 : 0"
       inkscape:vp_z="1000 : 500 : 1"
       inkscape:persp3d-origin="500 : 333.33333 : 1"
       id="perspective8" />
    <inkscape:perspective
       id="perspective2388"
       inkscape:persp3d-origin="372.04724 : 350.78739 : 1"
       inkscape:vp_z="744.09448 : 526.18109 : 1"
       inkscape:vp_y="0 : 1000 : 0"
       inkscape:vp_x="0 : 526.18109 : 1"
       sodipodi:type="inkscape:persp3d" />
  </defs>
  <g
     id="layer1"
     transform="translate(-50,296)" />
  <path
     style="fill:none;fill-rule:evenodd;stroke:#000000;stroke-width:1px;stroke-linecap:butt;stroke-linejoin:miter;stroke-opacity:1"
     d="M 547.30568,725.25966 C 634.88423,636.459 753.84745,549.97015 810.8441,550.14952 C 841.33497,549.13879 880.99942,571.0059 895.74597,620.81427 C 897.11852,625.45023 897.6886,629.66346 897.14487,634.38086 C 893.52239,665.8093 867.73703,716.98495 855.93149,730.24328 C 815.40333,775.75885 722.9135,801.81137 633.82605,809.12289 C 569.61814,814.39252 507.17759,808.61732 467.23177,799.55973 C 458.41503,870.80224 437.92161,937.18925 412.43514,967.16025 C 352.29887,1037.9748 223.13754,1061.2783 194.49339,1061.4185 C 121.67393,1060.958 84.08904,1055.0876 41.638562,1013.8558 C -49.24793,925.56268 36.370601,744.01916 74.44934,702.38766 C 88.76734,686.73379 91.20622,702.04229 85.46256,708.99559 C 35.019044,770.06273 -3.221266,965.18474 185.48017,977.71806 C 235.36629,981.03143 394.19657,958.89229 429.78027,870.02991 C 431.81124,865.20098 431.32084,862.76339 430.79839,858.31314 C 421.83693,800.35106 408.18738,765.13341 388.32599,737.62996 C 385.22331,733.33347 381.28239,729.79101 383.79856,723.11236 L 409.2511,655.55382 C 413.60116,644.00747 420.75784,648.4381 423.82405,653.60694 L 454.33848,705.04649 C 475.20436,717.88312 512.55575,723.99866 547.30568,725.25966 z"
     id="path2394"
     sodipodi:nodetypes="ccsssscscssssccsssscc" />
  <path
     style="fill:none;fill-rule:evenodd;stroke:#000000;stroke-width:1px;stroke-linecap:butt;stroke-linejoin:miter;stroke-opacity:1"
     d="M 586.56388,728.81938 C 628.48145,696.72576 682.83735,656.41044 733.2286,643.37248 C 766.60834,634.73599 806.59034,637.12019 846.93195,673.7533 C 780.79266,723.46179 679.4272,734.19928 586.56388,728.81938 z"
     id="path2396"
     sodipodi:nodetypes="cscc" />
</svg>
