<?xml version="1.0" encoding="UTF-8" standalone="no"?>
<!-- Created with Inkscape (http://www.inkscape.org/) -->
<svg
   xmlns:dc="http://purl.org/dc/elements/1.1/"
   xmlns:cc="http://creativecommons.org/ns#"
   xmlns:rdf="http://www.w3.org/1999/02/22-rdf-syntax-ns#"
   xmlns:svg="http://www.w3.org/2000/svg"
   xmlns="http://www.w3.org/2000/svg"
   xmlns:sodipodi="http://sodipodi.sourceforge.net/DTD/sodipodi-0.dtd"
   xmlns:inkscape="http://www.inkscape.org/namespaces/inkscape"
   version="1.0"
   width="1000"
   height="1000"
   id="svg5496"
   sodipodi:version="0.32"
   inkscape:version="0.46"
   sodipodi:docname="sad.isol.svg"
   inkscape:output_extension="org.inkscape.output.svg.inkscape">
  <metadata
     id="metadata5594">
    <rdf:RDF>
      <cc:Work
         rdf:about="">
        <dc:format>image/svg+xml</dc:format>
        <dc:type
           rdf:resource="http://purl.org/dc/dcmitype/StillImage" />
      </cc:Work>
    </rdf:RDF>
  </metadata>
  <sodipodi:namedview
     inkscape:pageshadow="2"
     inkscape:pageopacity="0.0"
     guidetolerance="10.0"
     gridtolerance="10.0"
     objecttolerance="10.0"
     borderopacity="1.0"
     bordercolor="#666666"
     pagecolor="#ffffff"
     id="base"
     showgrid="false"
     showguides="true"
     inkscape:guide-bbox="true"
     inkscape:zoom="0.236"
     inkscape:cx="500"
     inkscape:cy="500"
     inkscape:window-x="0"
     inkscape:window-y="25"
     inkscape:current-layer="svg5496">
    <sodipodi:guide
       orientation="horizontal"
       position="200"
       id="guide5596" />
  </sodipodi:namedview>
  <defs
     id="defs5498">
    <inkscape:perspective
       sodipodi:type="inkscape:persp3d"
       inkscape:vp_x="0 : 500 : 1"
       inkscape:vp_y="0 : 1000 : 0"
       inkscape:vp_z="1000 : 500 : 1"
       inkscape:persp3d-origin="500 : 333.33333 : 1"
       id="perspective8" />
    <inkscape:perspective
       id="perspective2388"
       inkscape:persp3d-origin="372.04724 : 350.78739 : 1"
       inkscape:vp_z="744.09448 : 526.18109 : 1"
       inkscape:vp_y="0 : 1000 : 0"
       inkscape:vp_x="0 : 526.18109 : 1"
       sodipodi:type="inkscape:persp3d" />
  </defs>
  <g
     id="layer1"
     transform="matrix(1.3,0,0,1.3,-64.19854,145.37235)" />
  <path
     style="fill:none;fill-rule:evenodd;stroke:#000000;stroke-width:1px;stroke-linecap:butt;stroke-linejoin:miter;stroke-opacity:1"
     d="M 712.29885,703.40991 C 826.15096,587.96905 980.80315,475.53355 1054.8988,475.76673 C 1094.5369,474.45278 1146.1007,502.88002 1165.2712,567.6309 C 1167.0555,573.65765 1167.7966,579.13485 1167.0898,585.26747 C 1162.3805,626.12444 1128.8596,692.65279 1113.5124,709.88862 C 1060.8258,769.05886 940.58901,802.92713 824.77533,812.43211 C 741.30504,819.28263 660.13233,811.77487 608.20276,800 C 596.741,892.61526 570.09956,978.91838 536.96714,1017.8806 C 458.78999,1109.9396 290.88026,1140.2341 253.64287,1140.4164 C 158.97757,1139.8177 110.11721,1132.1862 54.931593,1078.5849 C -63.22085,963.80384 48.083244,727.79726 97.585604,673.67631 C 116.199,653.32628 119.36955,673.22733 111.90279,682.26662 C 46.32622,761.6539 -3.3861797,1015.3125 241.92568,1031.6058 C 306.77764,1035.9132 513.257,1007.1323 559.51581,891.61124 C 562.15607,885.33363 561.51855,882.16476 560.83937,876.37943 C 549.18947,801.02873 531.44506,755.24579 505.62525,719.4913 C 501.59177,713.90586 496.46857,709.30067 499.73959,700.61842 L 532.82789,612.79232 C 538.48297,597.78206 547.78665,603.54188 551.77273,610.26137 L 591.44149,677.13279 C 618.56713,693.82041 667.12394,701.77061 712.29885,703.40991 z"
     id="path2394"
     sodipodi:nodetypes="ccsssscscssssccsssscc" />
  <path
     style="fill:none;fill-rule:evenodd;stroke:#000000;stroke-width:1px;stroke-linecap:butt;stroke-linejoin:miter;stroke-opacity:1"
     d="M 763.33451,708.03755 C 817.82735,666.31584 888.49002,613.90592 953.99864,596.95658 C 997.3923,585.72914 1049.3689,588.8286 1101.813,636.45164 C 1015.8319,701.07268 884.05682,715.03142 763.33451,708.03755 z"
     id="path2396"
     sodipodi:nodetypes="cscc" />
</svg>
