<?xml version="1.0" encoding="UTF-8" standalone="no"?>
<!-- Created with Inkscape (http://www.inkscape.org/) -->
<svg
   xmlns:dc="http://purl.org/dc/elements/1.1/"
   xmlns:cc="http://creativecommons.org/ns#"
   xmlns:rdf="http://www.w3.org/1999/02/22-rdf-syntax-ns#"
   xmlns:svg="http://www.w3.org/2000/svg"
   xmlns="http://www.w3.org/2000/svg"
   xmlns:sodipodi="http://sodipodi.sourceforge.net/DTD/sodipodi-0.dtd"
   xmlns:inkscape="http://www.inkscape.org/namespaces/inkscape"
   version="1.0"
   width="1000"
   height="1000"
   id="svg5496"
   sodipodi:version="0.32"
   inkscape:version="0.46"
   sodipodi:docname="seen.isol.svg"
   inkscape:output_extension="org.inkscape.output.svg.inkscape">
  <metadata
     id="metadata5594">
    <rdf:RDF>
      <cc:Work
         rdf:about="">
        <dc:format>image/svg+xml</dc:format>
        <dc:type
           rdf:resource="http://purl.org/dc/dcmitype/StillImage" />
      </cc:Work>
    </rdf:RDF>
  </metadata>
  <sodipodi:namedview
     inkscape:pageshadow="2"
     inkscape:pageopacity="0.0"
     guidetolerance="10.0"
     gridtolerance="10.0"
     objecttolerance="10.0"
     borderopacity="1.0"
     bordercolor="#666666"
     pagecolor="#ffffff"
     id="base"
     showgrid="false"
     showguides="true"
     inkscape:guide-bbox="true"
     inkscape:zoom="0.64205296"
     inkscape:cx="296.89667"
     inkscape:cy="382.40452"
     inkscape:window-x="0"
     inkscape:window-y="25"
     inkscape:current-layer="svg5496">
    <sodipodi:guide
       orientation="horizontal"
       position="200"
       id="guide5596" />
  </sodipodi:namedview>
  <defs
     id="defs5498">
    <inkscape:perspective
       sodipodi:type="inkscape:persp3d"
       inkscape:vp_x="0 : 500 : 1"
       inkscape:vp_y="0 : 1000 : 0"
       inkscape:vp_z="1000 : 500 : 1"
       inkscape:persp3d-origin="500 : 333.33333 : 1"
       id="perspective2422" />
    <inkscape:perspective
       id="perspective2431"
       inkscape:persp3d-origin="372.04724 : 350.78739 : 1"
       inkscape:vp_z="744.09448 : 526.18109 : 1"
       inkscape:vp_y="0 : 1000 : 0"
       inkscape:vp_x="0 : 526.18109 : 1"
       sodipodi:type="inkscape:persp3d" />
    <inkscape:perspective
       sodipodi:type="inkscape:persp3d"
       inkscape:vp_x="0 : 526.18109 : 1"
       inkscape:vp_y="0 : 1000 : 0"
       inkscape:vp_z="744.09448 : 526.18109 : 1"
       inkscape:persp3d-origin="372.04724 : 350.78739 : 1"
       id="perspective5135" />
    <inkscape:perspective
       id="perspective5126"
       inkscape:persp3d-origin="500 : 333.33333 : 1"
       inkscape:vp_z="1000 : 500 : 1"
       inkscape:vp_y="0 : 1000 : 0"
       inkscape:vp_x="0 : 500 : 1"
       sodipodi:type="inkscape:persp3d" />
    <inkscape:perspective
       id="perspective2506"
       inkscape:persp3d-origin="372.04724 : 350.78739 : 1"
       inkscape:vp_z="744.09448 : 526.18109 : 1"
       inkscape:vp_y="0 : 1000 : 0"
       inkscape:vp_x="0 : 526.18109 : 1"
       sodipodi:type="inkscape:persp3d" />
  </defs>
  <g
     id="layer1"
     transform="matrix(1.3,0,0,1.3,2.4002381,-240)" />
  <g
     id="g2486"
     transform="matrix(1.3,0,0,1.3,1080.1051,-351.76475)">
    <g
       transform="translate(-283.46571,185.03125)"
       id="g2488" />
  </g>
  <path
     style="fill:none;fill-rule:evenodd;stroke:#000000;stroke-width:1.29999995px;stroke-linecap:butt;stroke-linejoin:miter;stroke-opacity:1"
     d="M 906.98527,519.54634 L 878.16664,612.47161 C 876.7655,616.98953 877.17884,618.78517 879.75518,622.08495 C 884.4909,628.15046 887.96615,642.1902 887.76964,648.04322 C 861.47457,650.39638 827.48205,640.33478 796.60714,622.44947 C 799.78457,603.78581 801.16644,584.23908 800.10089,564.19322 C 799.51899,553.2848 787.23288,554.8601 785.06964,563.78697 C 774.80486,606.14643 761.54392,643.8353 735.34464,669.41197 C 700.71818,703.21561 650.81303,709.10908 623.99152,702.92759 C 608.1743,699.28224 588.54295,641.19262 574.76662,628.36203 C 571.30023,625.13362 567.28326,625.17365 564.69628,629.34312 C 550.37208,652.4298 537.69913,675.91515 525.88214,701.58697 C 523.09484,707.64228 525.63997,714.63793 528.92902,719.74634 C 554.98747,760.21917 584.13811,886.92696 567.60402,912.43072 C 501.12918,1014.9678 357.4076,1053.6784 251.82589,1050.7994 C 138.28868,1042.8095 63.2504,983.05846 48.904016,905.80884 C 38.761065,851.19305 63.589102,788.92207 103.62589,730.18697 C 113.35336,715.91648 99.277534,701.71099 90.463391,716.00884 C 2.9267581,858.00628 -37.515932,1009.6808 57.882141,1102.8807 C 105.76752,1149.6628 153.60001,1165.3884 241.26339,1165.362 C 358.09008,1165.3268 447.74854,1121.0429 514.14152,1070.787 C 585.47656,1016.7902 606.24284,940.49261 613.87589,865.83384 C 615.60023,848.96816 616.24842,816.94144 616.42313,800 C 663.45214,809.1687 687.38511,801.2422 717.07199,780.024 C 731.47126,769.73236 741.05583,752.69946 756.18527,728.48072 C 786.09455,742.72378 847.84508,767.68092 877.93839,757.85259 C 902.69311,749.01776 908.96559,733.57158 929.20714,679.56822 C 949.4487,625.56485 938.51932,531.67635 906.98527,519.54634 z"
     id="path2491"
     sodipodi:nodetypes="csscccsssssssscssssssscsccsc" />
</svg>
