<?xml version="1.0" encoding="UTF-8" standalone="no"?>
<!-- Created with Inkscape (http://www.inkscape.org/) -->
<svg
   xmlns:dc="http://purl.org/dc/elements/1.1/"
   xmlns:cc="http://creativecommons.org/ns#"
   xmlns:rdf="http://www.w3.org/1999/02/22-rdf-syntax-ns#"
   xmlns:svg="http://www.w3.org/2000/svg"
   xmlns="http://www.w3.org/2000/svg"
   xmlns:sodipodi="http://sodipodi.sourceforge.net/DTD/sodipodi-0.dtd"
   xmlns:inkscape="http://www.inkscape.org/namespaces/inkscape"
   version="1.0"
   width="1000"
   height="1000"
   id="svg5496"
   sodipodi:version="0.32"
   inkscape:version="0.46"
   sodipodi:docname="seen.init.svg"
   inkscape:output_extension="org.inkscape.output.svg.inkscape">
  <metadata
     id="metadata5594">
    <rdf:RDF>
      <cc:Work
         rdf:about="">
        <dc:format>image/svg+xml</dc:format>
        <dc:type
           rdf:resource="http://purl.org/dc/dcmitype/StillImage" />
      </cc:Work>
    </rdf:RDF>
  </metadata>
  <sodipodi:namedview
     inkscape:pageshadow="2"
     inkscape:pageopacity="0.0"
     guidetolerance="10.0"
     gridtolerance="10.0"
     objecttolerance="10.0"
     borderopacity="1.0"
     bordercolor="#666666"
     pagecolor="#ffffff"
     id="base"
     showgrid="false"
     showguides="true"
     inkscape:guide-bbox="true"
     inkscape:zoom="0.236"
     inkscape:cx="500"
     inkscape:cy="500"
     inkscape:window-x="0"
     inkscape:window-y="25"
     inkscape:current-layer="svg5496">
    <sodipodi:guide
       orientation="horizontal"
       position="200"
       id="guide5596" />
  </sodipodi:namedview>
  <defs
     id="defs5498">
    <inkscape:perspective
       sodipodi:type="inkscape:persp3d"
       inkscape:vp_x="0 : 500 : 1"
       inkscape:vp_y="0 : 1000 : 0"
       inkscape:vp_z="1000 : 500 : 1"
       inkscape:persp3d-origin="500 : 333.33333 : 1"
       id="perspective5126" />
    <inkscape:perspective
       id="perspective5135"
       inkscape:persp3d-origin="372.04724 : 350.78739 : 1"
       inkscape:vp_z="744.09448 : 526.18109 : 1"
       inkscape:vp_y="0 : 1000 : 0"
       inkscape:vp_x="0 : 526.18109 : 1"
       sodipodi:type="inkscape:persp3d" />
  </defs>
  <g
     id="layer1"
     transform="matrix(1.3,0,0,1.3,-368.87924,0.54063)" />
  <path
     style="fill:none;fill-rule:evenodd;stroke:#000000;stroke-width:1.29999995px;stroke-linecap:butt;stroke-linejoin:miter;stroke-opacity:1"
     d="M 529.94888,488.08125 C 528.86963,488.12818 527.78127,488.83005 526.69888,490.55938 C 516.25137,507.2512 506.05075,523.80445 497.48951,539.55313 C 494.94062,544.24184 493.47749,545.81428 495.37701,550.2375 C 502.80285,567.5293 510.38038,605.97166 504.80201,614.14063 C 493.08716,631.29586 420.67063,614.76982 387.68013,580.4625 C 393.78255,564.55652 399.6235,548.89148 405.39263,533.94688 C 410.10136,521.74917 394.89364,514.24888 388.37076,526.06563 C 359.79323,577.83622 342.22914,659.83276 251.70826,672.88438 C 208.5132,679.11241 178.65019,652.74665 166.11138,630.10625 C 171.84746,618.93149 177.38883,606.93703 182.60513,593.90938 C 185.10736,587.66007 174.73848,578.94949 166.39576,591.63438 C 124.96966,654.62172 72.959073,686.58485 0.64575303,693.60313 L 0.64575303,800 C 31.767871,792.80153 75.229172,762.87787 114.47701,712.16875 C 142.20934,760.28641 191.39407,787.27256 242.60826,775.625 C 290.87109,761.72059 322.91934,719.07017 349.24888,668.33438 C 386.44472,706.66517 458.63351,726.67978 484.04263,722.56875 C 493.40263,721.05438 503.85548,715.20747 508.98638,706.76563 C 570.20248,606.04735 554.84987,525.62679 536.08326,493.6875 C 534.55099,491.07969 532.32323,487.97801 529.94888,488.08125 z"
     id="path5141" />
</svg>
