<?xml version="1.0" encoding="UTF-8" standalone="no"?>
<!-- Created with Inkscape (http://www.inkscape.org/) -->
<svg
   xmlns:dc="http://purl.org/dc/elements/1.1/"
   xmlns:cc="http://creativecommons.org/ns#"
   xmlns:rdf="http://www.w3.org/1999/02/22-rdf-syntax-ns#"
   xmlns:svg="http://www.w3.org/2000/svg"
   xmlns="http://www.w3.org/2000/svg"
   xmlns:sodipodi="http://sodipodi.sourceforge.net/DTD/sodipodi-0.dtd"
   xmlns:inkscape="http://www.inkscape.org/namespaces/inkscape"
   version="1.0"
   width="1000"
   height="1000"
   id="svg5496"
   sodipodi:version="0.32"
   inkscape:version="0.46"
   sodipodi:docname="seen.isol.svg"
   inkscape:output_extension="org.inkscape.output.svg.inkscape">
  <metadata
     id="metadata5594">
    <rdf:RDF>
      <cc:Work
         rdf:about="">
        <dc:format>image/svg+xml</dc:format>
        <dc:type
           rdf:resource="http://purl.org/dc/dcmitype/StillImage" />
      </cc:Work>
    </rdf:RDF>
  </metadata>
  <sodipodi:namedview
     inkscape:pageshadow="2"
     inkscape:pageopacity="0.0"
     guidetolerance="10.0"
     gridtolerance="10.0"
     objecttolerance="10.0"
     borderopacity="1.0"
     bordercolor="#666666"
     pagecolor="#ffffff"
     id="base"
     showgrid="false"
     showguides="true"
     inkscape:guide-bbox="true"
     inkscape:zoom="0.64205296"
     inkscape:cx="296.89667"
     inkscape:cy="382.40452"
     inkscape:window-x="0"
     inkscape:window-y="25"
     inkscape:current-layer="svg5496">
    <sodipodi:guide
       orientation="horizontal"
       position="200"
       id="guide5596" />
  </sodipodi:namedview>
  <defs
     id="defs5498">
    <inkscape:perspective
       sodipodi:type="inkscape:persp3d"
       inkscape:vp_x="0 : 500 : 1"
       inkscape:vp_y="0 : 1000 : 0"
       inkscape:vp_z="1000 : 500 : 1"
       inkscape:persp3d-origin="500 : 333.33333 : 1"
       id="perspective2422" />
    <inkscape:perspective
       id="perspective2431"
       inkscape:persp3d-origin="372.04724 : 350.78739 : 1"
       inkscape:vp_z="744.09448 : 526.18109 : 1"
       inkscape:vp_y="0 : 1000 : 0"
       inkscape:vp_x="0 : 526.18109 : 1"
       sodipodi:type="inkscape:persp3d" />
    <inkscape:perspective
       sodipodi:type="inkscape:persp3d"
       inkscape:vp_x="0 : 526.18109 : 1"
       inkscape:vp_y="0 : 1000 : 0"
       inkscape:vp_z="744.09448 : 526.18109 : 1"
       inkscape:persp3d-origin="372.04724 : 350.78739 : 1"
       id="perspective5135" />
    <inkscape:perspective
       id="perspective5126"
       inkscape:persp3d-origin="500 : 333.33333 : 1"
       inkscape:vp_z="1000 : 500 : 1"
       inkscape:vp_y="0 : 1000 : 0"
       inkscape:vp_x="0 : 500 : 1"
       sodipodi:type="inkscape:persp3d" />
    <inkscape:perspective
       id="perspective2506"
       inkscape:persp3d-origin="372.04724 : 350.78739 : 1"
       inkscape:vp_z="744.09448 : 526.18109 : 1"
       inkscape:vp_y="0 : 1000 : 0"
       inkscape:vp_x="0 : 526.18109 : 1"
       sodipodi:type="inkscape:persp3d" />
  </defs>
  <g
     id="layer1" />
  <g
     id="g2486"
     transform="translate(829.00375,-85.972887)">
    <g
       transform="translate(-283.46571,185.03125)"
       id="g2488" />
  </g>
  <path
     style="fill:none;fill-rule:evenodd;stroke:#000000;stroke-width:1px;stroke-linecap:butt;stroke-linejoin:miter;stroke-opacity:1"
     d="M 695.83464,584.26642 L 673.66646,655.74739 C 672.58866,659.22272 672.90662,660.60398 674.88842,663.14227 C 678.53128,667.80805 681.20455,678.60785 681.05339,683.11017 C 660.82641,684.92029 634.67832,677.1806 610.92839,663.42267 C 613.37256,649.06601 614.43554,634.03006 613.61589,618.61017 C 613.16827,610.21908 603.71742,611.43085 602.05339,618.29767 C 594.1574,650.88187 583.95668,679.87331 563.80339,699.54767 C 537.16765,725.55047 498.77907,730.08391 478.14714,725.32892 C 465.98005,722.5248 450.87901,677.84048 440.28183,667.97079 C 437.61538,665.4874 434.5254,665.51819 432.53542,668.72548 C 421.5168,686.48446 411.76838,704.55012 402.67839,724.29767 C 400.53431,728.9556 402.4921,734.33687 405.02214,738.26642 C 425.0671,769.39936 447.49067,866.86689 434.77214,886.48517 C 383.63765,965.35987 273.08259,995.13724 191.86589,992.92267 C 104.52957,986.77659 46.807819,940.8142 35.772139,881.39142 C 27.969869,839.37927 47.068359,791.47852 77.865889,746.29767 C 85.348559,735.32037 74.520999,724.39307 67.740889,735.39142 C 0.40501902,844.62022 -30.704741,961.29291 42.678389,1032.9852 C 79.513299,1068.9714 116.30752,1081.068 183.74089,1081.0477 C 273.60757,1081.0206 342.57562,1046.9561 393.64714,1008.2977 C 448.52025,966.7617 464.49431,908.07124 470.36589,850.64142 C 471.6923,837.66782 472.19091,813.03188 472.3253,800 C 508.50146,807.05285 526.91144,800.95554 549.7475,784.63385 C 560.82386,776.7172 568.19661,763.61497 579.83464,744.98517 C 602.84178,755.94137 650.34219,775.13917 673.49089,767.57892 C 692.53298,760.78289 697.35796,748.90122 712.92839,707.36017 C 728.49882,665.81912 720.0916,593.59719 695.83464,584.26642 z"
     id="path2491"
     sodipodi:nodetypes="csscccsssssssscssssssscsccsc" />
</svg>
