<?xml version="1.0" encoding="UTF-8" standalone="no"?>
<!-- Created with Inkscape (http://www.inkscape.org/) -->

<svg
   xmlns:dc="http://purl.org/dc/elements/1.1/"
   xmlns:cc="http://creativecommons.org/ns#"
   xmlns:rdf="http://www.w3.org/1999/02/22-rdf-syntax-ns#"
   xmlns:svg="http://www.w3.org/2000/svg"
   xmlns="http://www.w3.org/2000/svg"
   xmlns:sodipodi="http://sodipodi.sourceforge.net/DTD/sodipodi-0.dtd"
   xmlns:inkscape="http://www.inkscape.org/namespaces/inkscape"
   version="1.0"
   width="1000"
   height="1000"
   id="svg5496"
   sodipodi:version="0.32"
   inkscape:version="0.47pre0 r21549"
   sodipodi:docname="seen+meem.init.svg"
   inkscape:output_extension="org.inkscape.output.svg.inkscape">
  <metadata
     id="metadata5594">
    <rdf:RDF>
      <cc:Work
         rdf:about="">
        <dc:format>image/svg+xml</dc:format>
        <dc:type
           rdf:resource="http://purl.org/dc/dcmitype/StillImage" />
        <dc:title></dc:title>
      </cc:Work>
    </rdf:RDF>
  </metadata>
  <sodipodi:namedview
     inkscape:window-height="618"
     inkscape:pageshadow="2"
     inkscape:pageopacity="0.0"
     borderopacity="1.0"
     bordercolor="#666666"
     pagecolor="#ffffff"
     id="base"
     showgrid="false"
     showguides="true"
     inkscape:guide-bbox="true"
     inkscape:zoom="0.64205296"
     inkscape:cx="354.73336"
     inkscape:cy="373.02969"
     inkscape:window-x="0"
     inkscape:window-y="25"
     inkscape:current-layer="svg5496">
    <sodipodi:guide
       orientation="horizontal"
       position="200"
       id="guide5596" />
  </sodipodi:namedview>
  <defs
     id="defs5498">
    <inkscape:perspective
       sodipodi:type="inkscape:persp3d"
       inkscape:vp_x="0 : 500 : 1"
       inkscape:vp_y="0 : 1000 : 0"
       inkscape:vp_z="1000 : 500 : 1"
       inkscape:persp3d-origin="500 : 333.33333 : 1"
       id="perspective2857" />
    <inkscape:perspective
       id="perspective2867"
       inkscape:persp3d-origin="0.5 : 0.33333333 : 1"
       inkscape:vp_z="1 : 0.5 : 1"
       inkscape:vp_y="0 : 1000 : 0"
       inkscape:vp_x="0 : 0.5 : 1"
       sodipodi:type="inkscape:persp3d" />
  </defs>
  <g
     id="layer1" />
  <path
     style="color:#000000;fill:none;stroke:#000000;stroke-width:1px;stroke-linecap:butt;stroke-linejoin:miter;stroke-miterlimit:4;stroke-opacity:1;stroke-dasharray:none;stroke-dashoffset:0;marker:none;visibility:visible;display:inline;overflow:visible;enable-background:accumulate"
     d="m 653.38002,343.00028 c -14.1097,20.62607 -26.76222,41.83502 -39.05219,63.18899 -1.67072,2.90289 -1.50126,4.55971 0.54378,6.81135 8.10527,8.92408 15.27425,16.40335 21.47336,29.54852 1.46678,3.11031 0.51019,5.50621 -2.52467,6.75103 -14.541,5.96433 -61.85544,-2.24802 -90.58411,-14.67767 -8.77502,-3.79657 -17.13897,-11.89742 -17.03634,-22.60807 0.0526,-5.68511 7.24989,-18.21119 10.84884,-25.32943 12.41526,-24.55575 -6.86082,-37.08476 -18.78563,-20.84436 -39.14316,53.30905 -74.31471,122.97502 -145.80148,118.84617 -63.41233,-3.6625 -63.10924,-83.38797 -112.98284,-85.28813 -49.76196,-1.89591 -99.4788,36.61769 -129.43005,94.56757 -34.390213,66.53841 -32.189413,128.48419 -17.13,185.73313 -37.8975,15.81222 -76.963126,25.4565 -114.8606228,28.8125 L 1.5586792,800 C 56.672641,788.80613 82.670007,764.99102 154.98619,768.09125 c 51.13038,2.19198 91.00784,30.65603 125.45034,53.75168 5.1821,3.47489 8.88921,3.40741 12.31969,-1.23724 17.67811,-23.93504 32.73363,-49.73962 43.56707,-79.94248 2.51537,-7.01267 2.88211,-10.41241 -2.22276,-15.42701 -34.82371,-34.20803 -67.07005,-47.1312 -112.92684,-62.3012 -23.05968,-7.62843 -89.23451,-69.50129 -80.53541,-131.19195 0.34299,-5.04476 4.38967,-9.38377 7.94658,-12.65353 21.77403,-18.3183 59.8394,-26.56957 84.23336,-22.28183 13.14464,2.31043 24.69229,12.88676 31.0428,23.86577 18.90086,32.67656 32.98917,61.66886 74.3285,64.61713 61.05545,4.31513 96.52025,-17.33674 133.45127,-69.66644 1.70409,-2.45536 4.31324,-1.89432 5.82686,-0.80806 31.99098,22.95859 130.50508,56.21749 156.14354,28.96266 16.35411,-17.38515 29.22505,-51.80393 37.8601,-83.05434 12.38055,-44.80549 8.40852,-92.68656 -11.90699,-116.99772 -1.57218,-1.88139 -3.4563,-4.71427 -6.18428,-0.72641 z"
     id="path2873"
     sodipodi:nodetypes="cssssssssssscccssssssccssscsssss" />
</svg>
