<?xml version="1.0" encoding="UTF-8" standalone="no"?>
<!-- Created with Inkscape (http://www.inkscape.org/) -->
<svg
   xmlns:dc="http://purl.org/dc/elements/1.1/"
   xmlns:cc="http://creativecommons.org/ns#"
   xmlns:rdf="http://www.w3.org/1999/02/22-rdf-syntax-ns#"
   xmlns:svg="http://www.w3.org/2000/svg"
   xmlns="http://www.w3.org/2000/svg"
   xmlns:sodipodi="http://sodipodi.sourceforge.net/DTD/sodipodi-0.dtd"
   xmlns:inkscape="http://www.inkscape.org/namespaces/inkscape"
   version="1.0"
   width="1000"
   height="1000"
   id="svg5496"
   sodipodi:version="0.32"
   inkscape:version="0.46"
   sodipodi:docname="seen.init.svg"
   inkscape:output_extension="org.inkscape.output.svg.inkscape">
  <metadata
     id="metadata5594">
    <rdf:RDF>
      <cc:Work
         rdf:about="">
        <dc:format>image/svg+xml</dc:format>
        <dc:type
           rdf:resource="http://purl.org/dc/dcmitype/StillImage" />
      </cc:Work>
    </rdf:RDF>
  </metadata>
  <sodipodi:namedview
     inkscape:pageshadow="2"
     inkscape:pageopacity="0.0"
     guidetolerance="10.0"
     gridtolerance="10.0"
     objecttolerance="10.0"
     borderopacity="1.0"
     bordercolor="#666666"
     pagecolor="#ffffff"
     id="base"
     showgrid="false"
     showguides="true"
     inkscape:guide-bbox="true"
     inkscape:zoom="1.2841059"
     inkscape:cx="433.13827"
     inkscape:cy="322.22318"
     inkscape:window-x="0"
     inkscape:window-y="25"
     inkscape:current-layer="svg5496">
    <sodipodi:guide
       orientation="horizontal"
       position="200"
       id="guide5596" />
  </sodipodi:namedview>
  <defs
     id="defs5498">
    <inkscape:perspective
       sodipodi:type="inkscape:persp3d"
       inkscape:vp_x="0 : 500 : 1"
       inkscape:vp_y="0 : 1000 : 0"
       inkscape:vp_z="1000 : 500 : 1"
       inkscape:persp3d-origin="500 : 333.33333 : 1"
       id="perspective5126" />
    <inkscape:perspective
       id="perspective5135"
       inkscape:persp3d-origin="372.04724 : 350.78739 : 1"
       inkscape:vp_z="744.09448 : 526.18109 : 1"
       inkscape:vp_y="0 : 1000 : 0"
       inkscape:vp_x="0 : 526.18109 : 1"
       sodipodi:type="inkscape:persp3d" />
  </defs>
  <g
     id="layer1"
     transform="translate(-283.46571,185.03125)" />
  <path
     style="fill:none;fill-rule:evenodd;stroke:#000000;stroke-width:1px;stroke-linecap:butt;stroke-linejoin:miter;stroke-opacity:1"
     d="M 407.94054,560.0625 C 407.11035,560.0986 406.27315,560.6385 405.44054,561.96875 C 397.40399,574.80861 389.55736,587.54188 382.97179,599.65625 C 381.01111,603.26295 379.88562,604.47252 381.34679,607.875 C 387.05898,621.17638 392.88785,650.74743 388.59679,657.03125 C 379.58537,670.22758 323.88035,657.51524 298.50304,631.125 C 303.19721,618.88963 307.69025,606.8396 312.12804,595.34375 C 315.75014,585.9609 304.05189,580.19144 299.03429,589.28125 C 277.05158,629.10478 263.54074,692.17904 193.90929,702.21875 C 160.68232,707.00954 137.71078,686.72819 128.06554,669.3125 C 132.47791,660.71653 136.7405,651.49002 140.75304,641.46875 C 142.67783,636.66159 134.70177,629.96114 128.28429,639.71875 C 96.418057,688.17055 56.409916,712.75757 0.78428564,718.15625 L 0.78428564,800 C 24.724376,794.46271 58.156146,771.44451 88.346787,732.4375 C 109.67935,769.45108 147.51376,790.20966 186.90929,781.25 C 224.03455,770.5543 248.68705,737.74628 268.94054,698.71875 C 297.55272,728.20397 353.08256,743.59983 372.62804,740.4375 C 379.82804,739.2726 387.86869,734.77497 391.81554,728.28125 C 438.90485,650.80565 427.09515,588.94368 412.65929,564.375 C 411.48062,562.36899 409.76696,559.98308 407.94054,560.0625 z"
     id="path5141" />
</svg>
