<?xml version="1.0" encoding="UTF-8" standalone="no"?>
<!-- Created with Inkscape (http://www.inkscape.org/) -->

<svg
   xmlns:dc="http://purl.org/dc/elements/1.1/"
   xmlns:cc="http://creativecommons.org/ns#"
   xmlns:rdf="http://www.w3.org/1999/02/22-rdf-syntax-ns#"
   xmlns:svg="http://www.w3.org/2000/svg"
   xmlns="http://www.w3.org/2000/svg"
   xmlns:sodipodi="http://sodipodi.sourceforge.net/DTD/sodipodi-0.dtd"
   xmlns:inkscape="http://www.inkscape.org/namespaces/inkscape"
   version="1.0"
   width="1000"
   height="1000"
   id="svg5496"
   sodipodi:version="0.32"
   inkscape:version="0.47pre0 r21549"
   sodipodi:docname="seen.fina.svg"
   inkscape:output_extension="org.inkscape.output.svg.inkscape">
  <metadata
     id="metadata5594">
    <rdf:RDF>
      <cc:Work
         rdf:about="">
        <dc:format>image/svg+xml</dc:format>
        <dc:type
           rdf:resource="http://purl.org/dc/dcmitype/StillImage" />
        <dc:title></dc:title>
      </cc:Work>
    </rdf:RDF>
  </metadata>
  <sodipodi:namedview
     inkscape:window-height="618"
     inkscape:pageshadow="2"
     inkscape:pageopacity="0.0"
     borderopacity="1.0"
     bordercolor="#666666"
     pagecolor="#ffffff"
     id="base"
     showgrid="false"
     showguides="true"
     inkscape:guide-bbox="true"
     inkscape:zoom="0.454"
     inkscape:cx="667.14749"
     inkscape:cy="417.18118"
     inkscape:window-x="0"
     inkscape:window-y="25"
     inkscape:current-layer="svg5496">
    <sodipodi:guide
       orientation="horizontal"
       position="200"
       id="guide5596" />
  </sodipodi:namedview>
  <defs
     id="defs5498">
    <inkscape:perspective
       sodipodi:type="inkscape:persp3d"
       inkscape:vp_x="0 : 500 : 1"
       inkscape:vp_y="0 : 1000 : 0"
       inkscape:vp_z="1000 : 500 : 1"
       inkscape:persp3d-origin="500 : 333.33333 : 1"
       id="perspective8" />
    <inkscape:perspective
       id="perspective2822"
       inkscape:persp3d-origin="0.5 : 0.33333333 : 1"
       inkscape:vp_z="1 : 0.5 : 1"
       inkscape:vp_y="0 : 1000 : 0"
       inkscape:vp_x="0 : 0.5 : 1"
       sodipodi:type="inkscape:persp3d" />
  </defs>
  <g
     id="layer1"
     transform="translate(15.973568,462.27313)" />
  <path
     style="color:#000000;fill:none;stroke:#000000;stroke-width:1px;stroke-linecap:butt;stroke-linejoin:miter;stroke-miterlimit:4;stroke-opacity:1;stroke-dasharray:none;stroke-dashoffset:0;marker:none;visibility:visible;display:inline;overflow:visible;enable-background:accumulate"
     d="m 1037.4494,707.31718 -0.5507,94.163 c -55.56186,0.7563 -93.53664,-93.06755 -105.45156,-115.36343 -1.75784,-3.28937 -7.67138,-3.77299 -8.9109,0.63256 -25.59385,90.96653 -53.31723,130.44186 -88.0054,130.70003 -24.51842,0.18248 -74.34176,-5.19831 -108.81945,-46.02742 -1.60569,-1.90148 -3.23972,-0.59695 -3.88363,0.10995 C 671.25051,827.05707 624.14187,819.79729 589.76212,818 587.36781,890.7364 577.80902,948.03833 557.54425,995.19518 507.90022,1110.7186 336.24023,1152.0278 227.42731,1159.4097 52.185865,1171.2981 -19.268764,1046.4127 5.108828,922.87217 19.131268,851.80938 58.441596,779.84893 84.711689,737.28095 c 7.120921,-11.53872 24.703741,-8.4327 14.962321,8.03183 -36.005933,60.85568 -55.654802,112.00089 -52.619392,157.54612 5.955138,89.35468 95.377052,149.1512 200.196482,145.3173 97.68371,-3.5729 227.58947,-31.5818 299.91477,-132.52262 1.85553,-2.58967 1.98353,-6.44618 1.94352,-11.0417 -0.38568,-44.29454 -18.49304,-112.11943 -52.07223,-167.59493 -2.46242,-4.06812 -2.02503,-8.79051 -1.10154,-11.41787 l 29.27303,-83.28294 c 1.04531,-2.97394 3.47205,-6.71412 7.27875,-1.79902 13.13708,16.96221 24.4248,34.7008 34.97295,56.61284 11.63959,24.17932 61.27453,26.62162 83.99458,24.04218 66.70689,-5.23592 81.80691,-28.18845 113.41732,-83.78888 7.81031,-13.70286 23.92362,-4.42171 20.37445,5.50661 -3.51451,9.83138 -13.32149,27.02895 7.98458,39.09691 18.67333,10.57676 60.61666,27.60276 88.38106,12.66521 15.39431,-8.28231 28.35008,-59.35416 41.85022,-89.20705 6.17852,-13.66258 15.69284,-9.27109 21.47577,0.82599 21.43219,37.49091 52.18847,83.08322 92.51107,101.04625 z"
     id="path2828"
     sodipodi:nodetypes="ccssssscssssssssssssssccsssssc" />
</svg>
