<?xml version="1.0" encoding="UTF-8" standalone="no"?>
<!-- Created with Inkscape (http://www.inkscape.org/) -->

<svg
   xmlns:dc="http://purl.org/dc/elements/1.1/"
   xmlns:cc="http://creativecommons.org/ns#"
   xmlns:rdf="http://www.w3.org/1999/02/22-rdf-syntax-ns#"
   xmlns:svg="http://www.w3.org/2000/svg"
   xmlns="http://www.w3.org/2000/svg"
   xmlns:sodipodi="http://sodipodi.sourceforge.net/DTD/sodipodi-0.dtd"
   xmlns:inkscape="http://www.inkscape.org/namespaces/inkscape"
   version="1.0"
   width="1000"
   height="1000"
   id="svg5496"
   sodipodi:version="0.32"
   inkscape:version="0.47pre0 r21549"
   sodipodi:docname="New document 6"
   inkscape:output_extension="org.inkscape.output.svg.inkscape">
  <metadata
     id="metadata5594">
    <rdf:RDF>
      <cc:Work
         rdf:about="">
        <dc:format>image/svg+xml</dc:format>
        <dc:type
           rdf:resource="http://purl.org/dc/dcmitype/StillImage" />
        <dc:title></dc:title>
      </cc:Work>
    </rdf:RDF>
  </metadata>
  <sodipodi:namedview
     inkscape:window-height="618"
     inkscape:pageshadow="2"
     inkscape:pageopacity="0.0"
     borderopacity="1.0"
     bordercolor="#666666"
     pagecolor="#ffffff"
     id="base"
     showgrid="false"
     showguides="true"
     inkscape:guide-bbox="true"
     inkscape:zoom="0.454"
     inkscape:cx="887.67117"
     inkscape:cy="427.68062"
     inkscape:window-x="0"
     inkscape:window-y="25"
     inkscape:current-layer="svg5496">
    <sodipodi:guide
       orientation="horizontal"
       position="200"
       id="guide5596" />
  </sodipodi:namedview>
  <defs
     id="defs5498">
    <inkscape:perspective
       sodipodi:type="inkscape:persp3d"
       inkscape:vp_x="0 : 500 : 1"
       inkscape:vp_y="0 : 1000 : 0"
       inkscape:vp_z="1000 : 500 : 1"
       inkscape:persp3d-origin="500 : 333.33333 : 1"
       id="perspective2884" />
    <inkscape:perspective
       id="perspective2873"
       inkscape:persp3d-origin="0.5 : 0.33333333 : 1"
       inkscape:vp_z="1 : 0.5 : 1"
       inkscape:vp_y="0 : 1000 : 0"
       inkscape:vp_x="0 : 0.5 : 1"
       sodipodi:type="inkscape:persp3d" />
  </defs>
  <g
     id="layer1"
     transform="translate(-409.69163,142.90039)" />
  <path
     style="color:#000000;fill:none;stroke:#000000;stroke-width:1px;stroke-linecap:butt;stroke-linejoin:miter;stroke-miterlimit:4;stroke-opacity:1;stroke-dasharray:none;stroke-dashoffset:0;marker:none;visibility:visible;display:inline;overflow:visible;enable-background:accumulate"
     d="m 624.03467,358.21954 -39.52217,48.93971 c -4.77695,4.54442 -4.66554,9.39204 -2.2151,14.81424 6.17867,13.74295 8.07927,33.26169 7.35213,39.79158 -0.21729,1.95122 -2.12693,5.40986 -5.43183,5.47453 -26.61456,0.52079 -71.82059,-10.41777 -70.0618,-45.15419 0.44205,-8.73072 4.04154,-19.10649 8.28758,-29.2208 5.69304,-13.56112 -12.53572,-20.61597 -20.44125,-10.05361 -29.36,39.22702 -40.84198,90.81365 -120.81134,86.33634 -56.55024,-3.18161 -78.94452,-39.1391 -97.23888,-80.2514 -3.27242,-7.354 -14.62746,-5.7501 -22.24838,0.3958 -40.72672,32.8441 -75.52857,84.15314 -120.1736,117.81041 C 92.09386,544.37139 16.72674,559.10068 -0.79610996,619.53734 -1.44361,621.77058 -1.01867,624.6258 1.16813,625.27924 c 59.50854,17.78166 127.03678,36.93709 176.89165,58.5458 3.52077,1.52602 2.75432,4.1029 -0.9791,4.98211 -49.00352,11.54023 -116.10819,27.96211 -176.69129996,34.3561 L 1.5575,800 c 153.80038,-34.30786 303.18898,-104.12419 468.09562,-68.0848 5.95143,1.30065 10.85915,-1.21178 14.44954,-5.21812 11.5642,-12.9039 24.57243,-36.29602 31.57161,-53.95507 3.84564,-9.70261 0.41043,-12.5984 -7.31055,-12.99443 -110.12777,-5.64873 -259.36322,-28.94476 -395.27413,-80.38935 -4.57398,-1.73133 -1.79153,-6.65569 0.75734,-8.34149 48.84135,-32.30311 99.58692,-83.30727 131.86906,-121.81401 1.3805,-1.6467 5.23629,-1.98308 6.76198,0.96638 12.69501,24.54188 38.39703,85.25825 85.77016,100.64894 48.22253,13.65533 91.78938,-17.44872 124.26441,-49.99704 2.88939,-3.26543 4.64613,-3.37985 7.45971,-0.45306 18.22647,18.95987 42.78615,45.09244 75.21148,47.53987 8.58031,0.64763 26.39072,0.91628 35.68038,-7.43608 16.95886,-15.24773 27.30896,-35.45599 36.53136,-53.7137 27.8093,-55.05467 26.8468,-114.60806 13.8269,-129.5159 -2.3492,-2.68981 -5.4023,-1.23333 -7.1877,0.9774 z"
     id="path2895"
     sodipodi:nodetypes="cccsssssssssssssccssssssssccssssss" />
</svg>
