<?xml version="1.0" encoding="UTF-8" standalone="no"?>
<!-- Created with Inkscape (http://www.inkscape.org/) -->
<svg
   xmlns:dc="http://purl.org/dc/elements/1.1/"
   xmlns:cc="http://creativecommons.org/ns#"
   xmlns:rdf="http://www.w3.org/1999/02/22-rdf-syntax-ns#"
   xmlns:svg="http://www.w3.org/2000/svg"
   xmlns="http://www.w3.org/2000/svg"
   xmlns:sodipodi="http://sodipodi.sourceforge.net/DTD/sodipodi-0.dtd"
   xmlns:inkscape="http://www.inkscape.org/namespaces/inkscape"
   version="1.0"
   width="1000"
   height="1000"
   id="svg5496"
   sodipodi:version="0.32"
   inkscape:version="0.46"
   sodipodi:docname="small_hamza.svg"
   inkscape:output_extension="org.inkscape.output.svg.inkscape">
  <metadata
     id="metadata5594">
    <rdf:RDF>
      <cc:Work
         rdf:about="">
        <dc:format>image/svg+xml</dc:format>
        <dc:type
           rdf:resource="http://purl.org/dc/dcmitype/StillImage" />
      </cc:Work>
    </rdf:RDF>
  </metadata>
  <sodipodi:namedview
     inkscape:pageshadow="2"
     inkscape:pageopacity="0.0"
     guidetolerance="10.0"
     gridtolerance="10.0"
     objecttolerance="10.0"
     borderopacity="1.0"
     bordercolor="#666666"
     pagecolor="#ffffff"
     id="base"
     showgrid="false"
     showguides="true"
     inkscape:guide-bbox="true"
     inkscape:zoom="0.454"
     inkscape:cx="500"
     inkscape:cy="500"
     inkscape:window-x="0"
     inkscape:window-y="25"
     inkscape:current-layer="svg5496">
    <sodipodi:guide
       orientation="horizontal"
       position="200"
       id="guide5596" />
  </sodipodi:namedview>
  <defs
     id="defs5498">
    <inkscape:perspective
       sodipodi:type="inkscape:persp3d"
       inkscape:vp_x="0 : 500 : 1"
       inkscape:vp_y="0 : 1000 : 0"
       inkscape:vp_z="1000 : 500 : 1"
       inkscape:persp3d-origin="500 : 333.33333 : 1"
       id="perspective2568" />
  </defs>
  <g
     id="layer1" />
  <g
     id="g2535"
     transform="translate(2.1651813,-0.1069258)">
    <g
       id="g2537" />
    <path
       sodipodi:nodetypes="cssscszsszczcssss"
       id="path2574"
       d="M 219.12489,733.2391 C 217.42644,738.42684 213.72517,743.56765 206.4589,744.47321 C 145.62116,752.05511 48.456734,783.90798 14.984489,799.37665 C 1.1426716,805.77343 -2.7184355,800.76652 3.0344421,791.30861 C 12.474099,775.78951 42.223543,747.33152 72.970921,739.35179 C 27.476865,719.3135 14.922316,692.40102 11.625107,681.53004 C 6.3304457,664.07341 24.530907,623.84355 44.659419,597.94082 C 64.787929,572.03809 98.289169,534.21578 125.12245,537.35988 C 137.98614,538.86715 157.27531,554.28247 163.83576,564.8942 C 168.82656,572.96699 166.01347,584.22262 157.38942,606.16262 C 148.71427,628.2326 145.89267,647.26626 129.52705,636.48364 C 118.60807,627.50657 101.6999,614.23974 84.751249,613.47754 C 68.077364,612.7277 56.047905,621.31914 51.880828,633.83951 C 54.913244,653.15022 105.57499,687.69772 171.65477,689.12943 C 195.60413,689.64618 205.37445,686.31751 224.35655,683.12689 C 231.82472,681.8716 234.66149,685.78401 232.25904,693.12207 L 219.12489,733.2391 z"
       style="fill:none;fill-rule:evenodd;stroke:#000000;stroke-width:1px;stroke-linecap:butt;stroke-linejoin:miter;stroke-miterlimit:4;stroke-dasharray:none;stroke-opacity:1" />
  </g>
</svg>
