<?xml version="1.0" encoding="UTF-8" standalone="no"?>
<!-- Created with Inkscape (http://www.inkscape.org/) -->
<svg
   xmlns:dc="http://purl.org/dc/elements/1.1/"
   xmlns:cc="http://creativecommons.org/ns#"
   xmlns:rdf="http://www.w3.org/1999/02/22-rdf-syntax-ns#"
   xmlns:svg="http://www.w3.org/2000/svg"
   xmlns="http://www.w3.org/2000/svg"
   xmlns:sodipodi="http://sodipodi.sourceforge.net/DTD/sodipodi-0.dtd"
   xmlns:inkscape="http://www.inkscape.org/namespaces/inkscape"
   version="1.0"
   width="1000"
   height="1000"
   id="svg5496"
   sodipodi:version="0.32"
   inkscape:version="0.46"
   sodipodi:docname="taa.init.svg"
   inkscape:output_extension="org.inkscape.output.svg.inkscape">
  <metadata
     id="metadata5594">
    <rdf:RDF>
      <cc:Work
         rdf:about="">
        <dc:format>image/svg+xml</dc:format>
        <dc:type
           rdf:resource="http://purl.org/dc/dcmitype/StillImage" />
      </cc:Work>
    </rdf:RDF>
  </metadata>
  <sodipodi:namedview
     inkscape:pageshadow="2"
     inkscape:pageopacity="0.0"
     guidetolerance="10.0"
     gridtolerance="10.0"
     objecttolerance="10.0"
     borderopacity="1.0"
     bordercolor="#666666"
     pagecolor="#ffffff"
     id="base"
     showgrid="false"
     showguides="true"
     inkscape:guide-bbox="true"
     inkscape:zoom="0.236"
     inkscape:cx="500"
     inkscape:cy="500"
     inkscape:window-x="0"
     inkscape:window-y="25"
     inkscape:current-layer="svg5496">
    <sodipodi:guide
       orientation="horizontal"
       position="200"
       id="guide5596" />
  </sodipodi:namedview>
  <defs
     id="defs5498">
    <inkscape:perspective
       sodipodi:type="inkscape:persp3d"
       inkscape:vp_x="0 : 500 : 1"
       inkscape:vp_y="0 : 1000 : 0"
       inkscape:vp_z="1000 : 500 : 1"
       inkscape:persp3d-origin="500 : 333.33333 : 1"
       id="perspective3564" />
    <inkscape:perspective
       id="perspective3573"
       inkscape:persp3d-origin="372.04724 : 350.78739 : 1"
       inkscape:vp_z="744.09448 : 526.18109 : 1"
       inkscape:vp_y="0 : 1000 : 0"
       inkscape:vp_x="0 : 526.18109 : 1"
       sodipodi:type="inkscape:persp3d" />
    <inkscape:perspective
       sodipodi:type="inkscape:persp3d"
       inkscape:vp_x="0 : 500 : 1"
       inkscape:vp_y="0 : 1000 : 0"
       inkscape:vp_z="1000 : 500 : 1"
       inkscape:persp3d-origin="500 : 333.33333 : 1"
       id="perspective2389" />
    <inkscape:perspective
       id="perspective2485"
       inkscape:persp3d-origin="372.04724 : 350.78739 : 1"
       inkscape:vp_z="744.09448 : 526.18109 : 1"
       inkscape:vp_y="0 : 1000 : 0"
       inkscape:vp_x="0 : 526.18109 : 1"
       sodipodi:type="inkscape:persp3d" />
    <inkscape:perspective
       id="perspective2474"
       inkscape:persp3d-origin="372.04724 : 350.78739 : 1"
       inkscape:vp_z="744.09448 : 526.18109 : 1"
       inkscape:vp_y="0 : 1000 : 0"
       inkscape:vp_x="0 : 526.18109 : 1"
       sodipodi:type="inkscape:persp3d" />
    <inkscape:perspective
       id="perspective3343"
       inkscape:persp3d-origin="372.04724 : 350.78739 : 1"
       inkscape:vp_z="744.09448 : 526.18109 : 1"
       inkscape:vp_y="0 : 1000 : 0"
       inkscape:vp_x="0 : 526.18109 : 1"
       sodipodi:type="inkscape:persp3d" />
    <inkscape:perspective
       id="perspective3220"
       inkscape:persp3d-origin="372.04724 : 350.78739 : 1"
       inkscape:vp_z="744.09448 : 526.18109 : 1"
       inkscape:vp_y="0 : 1000 : 0"
       inkscape:vp_x="0 : 526.18109 : 1"
       sodipodi:type="inkscape:persp3d" />
    <inkscape:perspective
       sodipodi:type="inkscape:persp3d"
       inkscape:vp_x="0 : 526.18109 : 1"
       inkscape:vp_y="0 : 1000 : 0"
       inkscape:vp_z="744.09448 : 526.18109 : 1"
       inkscape:persp3d-origin="372.04724 : 350.78739 : 1"
       id="perspective2388" />
    <inkscape:perspective
       id="perspective8"
       inkscape:persp3d-origin="500 : 333.33333 : 1"
       inkscape:vp_z="1000 : 500 : 1"
       inkscape:vp_y="0 : 1000 : 0"
       inkscape:vp_x="0 : 500 : 1"
       sodipodi:type="inkscape:persp3d" />
    <inkscape:perspective
       sodipodi:type="inkscape:persp3d"
       inkscape:vp_x="0 : 500 : 1"
       inkscape:vp_y="0 : 1000 : 0"
       inkscape:vp_z="1000 : 500 : 1"
       inkscape:persp3d-origin="500 : 333.33333 : 1"
       id="perspective4294" />
    <inkscape:perspective
       id="perspective4292"
       inkscape:persp3d-origin="372.04724 : 350.78739 : 1"
       inkscape:vp_z="744.09448 : 526.18109 : 1"
       inkscape:vp_y="0 : 1000 : 0"
       inkscape:vp_x="0 : 526.18109 : 1"
       sodipodi:type="inkscape:persp3d" />
    <inkscape:perspective
       id="perspective4290"
       inkscape:persp3d-origin="372.04724 : 350.78739 : 1"
       inkscape:vp_z="744.09448 : 526.18109 : 1"
       inkscape:vp_y="0 : 1000 : 0"
       inkscape:vp_x="0 : 526.18109 : 1"
       sodipodi:type="inkscape:persp3d" />
    <inkscape:perspective
       id="perspective4288"
       inkscape:persp3d-origin="372.04724 : 350.78739 : 1"
       inkscape:vp_z="744.09448 : 526.18109 : 1"
       inkscape:vp_y="0 : 1000 : 0"
       inkscape:vp_x="0 : 526.18109 : 1"
       sodipodi:type="inkscape:persp3d" />
    <inkscape:perspective
       id="perspective4286"
       inkscape:persp3d-origin="372.04724 : 350.78739 : 1"
       inkscape:vp_z="744.09448 : 526.18109 : 1"
       inkscape:vp_y="0 : 1000 : 0"
       inkscape:vp_x="0 : 526.18109 : 1"
       sodipodi:type="inkscape:persp3d" />
    <inkscape:perspective
       sodipodi:type="inkscape:persp3d"
       inkscape:vp_x="0 : 526.18109 : 1"
       inkscape:vp_y="0 : 1000 : 0"
       inkscape:vp_z="744.09448 : 526.18109 : 1"
       inkscape:persp3d-origin="372.04724 : 350.78739 : 1"
       id="perspective4284" />
    <inkscape:perspective
       id="perspective4282"
       inkscape:persp3d-origin="500 : 333.33333 : 1"
       inkscape:vp_z="1000 : 500 : 1"
       inkscape:vp_y="0 : 1000 : 0"
       inkscape:vp_x="0 : 500 : 1"
       sodipodi:type="inkscape:persp3d" />
  </defs>
  <g
     id="layer1"
     transform="translate(3.048094,20.26955)" />
  <path
     style="fill:none;fill-opacity:1;fill-rule:evenodd;stroke:#000000;stroke-width:1.14017546px;stroke-linecap:butt;stroke-linejoin:miter;stroke-opacity:1"
     d="M 157.60491,206.0625 C 155.24668,206.0309 152.99189,206.86242 151.34866,208.9375 C 139.83201,223.48082 127.9659,237.2008 117.79241,254.84375 C 113.29741,262.63902 112.25588,269.43167 113.52678,276.15625 C 136.37685,397.05957 163.58125,604.97129 141.80179,673.5625 C 115.57632,689.40506 89.451197,705.34622 63.314281,721.28125 L 49.379906,722.28125 L 49.379906,722.46875 C 31.863104,723.53919 14.348065,724.51999 -3.188845,725.375 L -2.213845,800 C 45.424916,798.06 92.939656,794.37974 140.29866,789.96875 C 190.64116,785.27975 240.8345,779.69072 290.81428,773.09375 C 313.35108,770.11875 335.84371,766.91027 358.25178,763.40625 C 377.14988,760.45225 395.98331,757.28727 414.67991,753.65625 C 428.53401,750.96425 442.35302,748.11001 455.79241,744.375 C 460.36451,743.105 464.93402,741.73648 469.27991,740.0625 C 472.13211,738.9645 474.95832,737.77548 477.24241,736.0625 C 477.95481,735.5285 478.58952,734.92676 479.23303,734.34375 C 480.37833,733.30675 481.49859,732.2495 482.60491,731.1875 C 486.04991,727.8845 489.41202,724.54124 492.72053,721.15625 C 502.58623,711.06125 512.06452,700.73375 521.15803,690.21875 C 531.66463,678.06775 541.70617,665.66824 550.61116,652.78125 C 554.71916,646.83625 558.56812,640.77451 561.94553,634.5625 C 564.82113,629.2755 567.37271,623.86424 569.05491,618.28125 C 569.30191,617.46225 569.20572,616.61324 569.05491,615.78125 C 568.81831,614.48225 568.35777,613.1955 567.87678,611.9375 C 566.44938,608.2105 564.49387,604.62799 562.31116,601.125 C 555.91906,590.865 547.64033,581.32227 538.05803,572.65625 C 526.36193,562.07825 512.48247,552.83575 496.70178,546.09375 C 479.06598,538.55875 458.94263,534.45676 438.77053,534.59375 C 428.44983,534.66475 418.23542,536.23799 408.34241,538.5 C 396.00411,541.321 384.1244,545.22749 372.55178,549.5625 C 341.58058,561.1625 312.67572,575.77524 284.39553,590.90625 C 249.88416,609.3711 216.39348,628.94291 183.15803,648.75 C 219.08968,545.87557 181.43662,411.09504 180.63928,320.40625 L 226.46428,285.96875 C 231.07868,282.50175 233.77618,278.03472 229.67366,275.3125 C 197.86543,254.20623 183.75387,232.81024 167.88303,211.375 C 165.76659,208.51653 161.53528,206.11517 157.60491,206.0625 z M 387.54241,609 C 392.73222,608.99411 397.94143,609.33125 403.06116,609.96875 C 416.54606,611.64775 429.53891,615.38149 441.32991,620.6875 C 452.46831,625.6985 462.62163,632.11724 470.62053,639.90625 C 477.65223,646.75325 483.08753,654.7895 484.59553,663.4375 C 480.73063,665.8395 476.37042,667.73751 471.92053,669.4375 C 466.12123,671.6535 460.09539,673.49749 454.00491,675.1875 C 437.98631,679.6295 421.4669,682.97576 404.88928,685.96875 C 384.13218,689.71775 363.20771,692.83025 342.20491,695.65625 C 318.48381,698.84925 294.67918,701.66075 270.82678,704.21875 C 236.58963,707.89149 202.25372,711.05985 167.88303,713.90625 L 167.88303,713.71875 L 153.46116,714.75 C 161.82917,709.39263 170.21252,704.07524 178.64866,698.78125 C 197.27116,687.09525 216.17413,675.6485 235.64553,664.8125 C 255.63433,653.6885 276.23186,643.17324 297.76116,633.90625 C 318.25306,625.08525 339.58247,617.3435 361.98928,611.9375 C 370.23696,609.9475 378.89273,609.00982 387.54241,609 z"
     id="path3680" />
</svg>
