<?xml version="1.0" encoding="UTF-8" standalone="no"?>
<!-- Created with Inkscape (http://www.inkscape.org/) -->
<svg
   xmlns:dc="http://purl.org/dc/elements/1.1/"
   xmlns:cc="http://creativecommons.org/ns#"
   xmlns:rdf="http://www.w3.org/1999/02/22-rdf-syntax-ns#"
   xmlns:svg="http://www.w3.org/2000/svg"
   xmlns="http://www.w3.org/2000/svg"
   xmlns:sodipodi="http://sodipodi.sourceforge.net/DTD/sodipodi-0.dtd"
   xmlns:inkscape="http://www.inkscape.org/namespaces/inkscape"
   version="1.0"
   width="1000"
   height="1000"
   id="svg5496"
   sodipodi:version="0.32"
   inkscape:version="0.46"
   sodipodi:docname="taa.init.svg"
   inkscape:output_extension="org.inkscape.output.svg.inkscape">
  <metadata
     id="metadata5594">
    <rdf:RDF>
      <cc:Work
         rdf:about="">
        <dc:format>image/svg+xml</dc:format>
        <dc:type
           rdf:resource="http://purl.org/dc/dcmitype/StillImage" />
      </cc:Work>
    </rdf:RDF>
  </metadata>
  <sodipodi:namedview
     inkscape:pageshadow="2"
     inkscape:pageopacity="0.0"
     guidetolerance="10.0"
     gridtolerance="10.0"
     objecttolerance="10.0"
     borderopacity="1.0"
     bordercolor="#666666"
     pagecolor="#ffffff"
     id="base"
     showgrid="false"
     showguides="true"
     inkscape:guide-bbox="true"
     inkscape:zoom="0.86267027"
     inkscape:cx="185.32603"
     inkscape:cy="482.44151"
     inkscape:window-x="0"
     inkscape:window-y="25"
     inkscape:current-layer="svg5496">
    <sodipodi:guide
       orientation="horizontal"
       position="200"
       id="guide5596" />
  </sodipodi:namedview>
  <defs
     id="defs5498">
    <inkscape:perspective
       sodipodi:type="inkscape:persp3d"
       inkscape:vp_x="0 : 500 : 1"
       inkscape:vp_y="0 : 1000 : 0"
       inkscape:vp_z="1000 : 500 : 1"
       inkscape:persp3d-origin="500 : 333.33333 : 1"
       id="perspective3564" />
    <inkscape:perspective
       id="perspective3573"
       inkscape:persp3d-origin="372.04724 : 350.78739 : 1"
       inkscape:vp_z="744.09448 : 526.18109 : 1"
       inkscape:vp_y="0 : 1000 : 0"
       inkscape:vp_x="0 : 526.18109 : 1"
       sodipodi:type="inkscape:persp3d" />
    <inkscape:perspective
       sodipodi:type="inkscape:persp3d"
       inkscape:vp_x="0 : 500 : 1"
       inkscape:vp_y="0 : 1000 : 0"
       inkscape:vp_z="1000 : 500 : 1"
       inkscape:persp3d-origin="500 : 333.33333 : 1"
       id="perspective2389" />
    <inkscape:perspective
       id="perspective2485"
       inkscape:persp3d-origin="372.04724 : 350.78739 : 1"
       inkscape:vp_z="744.09448 : 526.18109 : 1"
       inkscape:vp_y="0 : 1000 : 0"
       inkscape:vp_x="0 : 526.18109 : 1"
       sodipodi:type="inkscape:persp3d" />
    <inkscape:perspective
       id="perspective2474"
       inkscape:persp3d-origin="372.04724 : 350.78739 : 1"
       inkscape:vp_z="744.09448 : 526.18109 : 1"
       inkscape:vp_y="0 : 1000 : 0"
       inkscape:vp_x="0 : 526.18109 : 1"
       sodipodi:type="inkscape:persp3d" />
    <inkscape:perspective
       id="perspective3343"
       inkscape:persp3d-origin="372.04724 : 350.78739 : 1"
       inkscape:vp_z="744.09448 : 526.18109 : 1"
       inkscape:vp_y="0 : 1000 : 0"
       inkscape:vp_x="0 : 526.18109 : 1"
       sodipodi:type="inkscape:persp3d" />
    <inkscape:perspective
       id="perspective3220"
       inkscape:persp3d-origin="372.04724 : 350.78739 : 1"
       inkscape:vp_z="744.09448 : 526.18109 : 1"
       inkscape:vp_y="0 : 1000 : 0"
       inkscape:vp_x="0 : 526.18109 : 1"
       sodipodi:type="inkscape:persp3d" />
    <inkscape:perspective
       sodipodi:type="inkscape:persp3d"
       inkscape:vp_x="0 : 526.18109 : 1"
       inkscape:vp_y="0 : 1000 : 0"
       inkscape:vp_z="744.09448 : 526.18109 : 1"
       inkscape:persp3d-origin="372.04724 : 350.78739 : 1"
       id="perspective2388" />
    <inkscape:perspective
       id="perspective8"
       inkscape:persp3d-origin="500 : 333.33333 : 1"
       inkscape:vp_z="1000 : 500 : 1"
       inkscape:vp_y="0 : 1000 : 0"
       inkscape:vp_x="0 : 500 : 1"
       sodipodi:type="inkscape:persp3d" />
    <inkscape:perspective
       sodipodi:type="inkscape:persp3d"
       inkscape:vp_x="0 : 500 : 1"
       inkscape:vp_y="0 : 1000 : 0"
       inkscape:vp_z="1000 : 500 : 1"
       inkscape:persp3d-origin="500 : 333.33333 : 1"
       id="perspective4294" />
    <inkscape:perspective
       id="perspective4292"
       inkscape:persp3d-origin="372.04724 : 350.78739 : 1"
       inkscape:vp_z="744.09448 : 526.18109 : 1"
       inkscape:vp_y="0 : 1000 : 0"
       inkscape:vp_x="0 : 526.18109 : 1"
       sodipodi:type="inkscape:persp3d" />
    <inkscape:perspective
       id="perspective4290"
       inkscape:persp3d-origin="372.04724 : 350.78739 : 1"
       inkscape:vp_z="744.09448 : 526.18109 : 1"
       inkscape:vp_y="0 : 1000 : 0"
       inkscape:vp_x="0 : 526.18109 : 1"
       sodipodi:type="inkscape:persp3d" />
    <inkscape:perspective
       id="perspective4288"
       inkscape:persp3d-origin="372.04724 : 350.78739 : 1"
       inkscape:vp_z="744.09448 : 526.18109 : 1"
       inkscape:vp_y="0 : 1000 : 0"
       inkscape:vp_x="0 : 526.18109 : 1"
       sodipodi:type="inkscape:persp3d" />
    <inkscape:perspective
       id="perspective4286"
       inkscape:persp3d-origin="372.04724 : 350.78739 : 1"
       inkscape:vp_z="744.09448 : 526.18109 : 1"
       inkscape:vp_y="0 : 1000 : 0"
       inkscape:vp_x="0 : 526.18109 : 1"
       sodipodi:type="inkscape:persp3d" />
    <inkscape:perspective
       sodipodi:type="inkscape:persp3d"
       inkscape:vp_x="0 : 526.18109 : 1"
       inkscape:vp_y="0 : 1000 : 0"
       inkscape:vp_z="744.09448 : 526.18109 : 1"
       inkscape:persp3d-origin="372.04724 : 350.78739 : 1"
       id="perspective4284" />
    <inkscape:perspective
       id="perspective4282"
       inkscape:persp3d-origin="500 : 333.33333 : 1"
       inkscape:vp_z="1000 : 500 : 1"
       inkscape:vp_y="0 : 1000 : 0"
       inkscape:vp_x="0 : 500 : 1"
       sodipodi:type="inkscape:persp3d" />
  </defs>
  <g
     id="layer1"
     transform="translate(-60.511228,20.26955)" />
  <path
     style="fill:none;fill-opacity:1;fill-rule:evenodd;stroke:#000000;stroke-width:1px;stroke-linecap:butt;stroke-linejoin:miter;stroke-opacity:1"
     d="M 122.98492,206.0625 C 121.1709,206.0309 119.43644,206.86242 118.17242,208.9375 C 109.31346,223.48082 100.18568,237.2008 92.359917,254.84375 C 88.902227,262.63902 88.101047,269.43167 89.078667,276.15625 C 106.65564,397.05957 127.58211,604.97129 110.82867,673.5625 C 90.655237,689.40506 70.558987,705.34622 50.453667,721.28125 L 39.734917,722.28125 L 39.734917,722.46875 C 26.260454,723.53919 12.787347,724.51999 -0.70258346,725.375 L 0.04741654,800 C 36.692617,798.06 73.242417,794.37974 109.67242,789.96875 C 148.39742,785.27975 187.00768,779.69072 225.45367,773.09375 C 242.78967,770.11875 260.09169,766.91027 277.32867,763.40625 C 291.86567,760.45225 306.35292,757.28727 320.73492,753.65625 C 331.39192,750.96425 342.02193,748.11001 352.35992,744.375 C 355.87692,743.105 359.39193,741.73648 362.73492,740.0625 C 364.92892,738.9645 367.10293,737.77548 368.85992,736.0625 C 369.40792,735.5285 369.89616,734.92676 370.39117,734.34375 C 371.27217,733.30675 372.13391,732.2495 372.98492,731.1875 C 375.63492,727.8845 378.22116,724.54124 380.76617,721.15625 C 388.35517,711.06125 395.64616,700.73375 402.64117,690.21875 C 410.72317,678.06775 418.44743,665.66824 425.29742,652.78125 C 428.45742,646.83625 431.41816,640.77451 434.01617,634.5625 C 436.22817,629.2755 438.19092,623.86424 439.48492,618.28125 C 439.67492,617.46225 439.60093,616.61324 439.48492,615.78125 C 439.30292,614.48225 438.94866,613.1955 438.57867,611.9375 C 437.48067,608.2105 435.97643,604.62799 434.29742,601.125 C 429.38042,590.865 423.01217,581.32227 415.64117,572.65625 C 406.64417,562.07825 395.96766,552.83575 383.82867,546.09375 C 370.26267,538.55875 354.78317,534.45676 339.26617,534.59375 C 331.32717,534.66475 323.46993,536.23799 315.85992,538.5 C 306.36892,541.321 297.23068,545.22749 288.32867,549.5625 C 264.50467,561.1625 242.27016,575.77524 220.51617,590.90625 C 193.96896,609.3711 168.2069,628.94291 142.64117,648.75 C 170.2809,545.87557 141.31701,411.09504 140.70367,320.40625 L 175.95367,285.96875 C 179.50321,282.50175 181.57821,278.03472 178.42242,275.3125 C 153.95455,254.20623 143.09951,232.81024 130.89117,211.375 C 129.26314,208.51653 126.00828,206.11517 122.98492,206.0625 z M 299.85992,609 C 303.85208,608.99411 307.85917,609.33125 311.79742,609.96875 C 322.17042,611.64775 332.16492,615.38149 341.23492,620.6875 C 349.80292,625.6985 357.61317,632.11724 363.76617,639.90625 C 369.17517,646.75325 373.35617,654.7895 374.51617,663.4375 C 371.54317,665.8395 368.18916,667.73751 364.76617,669.4375 C 360.30517,671.6535 355.66991,673.49749 350.98492,675.1875 C 338.66292,679.6295 325.95568,682.97576 313.20367,685.96875 C 297.23667,689.71775 281.14092,692.83025 264.98492,695.65625 C 246.73792,698.84925 228.42667,701.66075 210.07867,704.21875 C 183.7424,707.89149 157.33016,711.05985 130.89117,713.90625 L 130.89117,713.71875 L 119.79742,714.75 C 126.23435,709.39263 132.68308,704.07524 139.17242,698.78125 C 153.49742,687.09525 168.03817,675.6485 183.01617,664.8125 C 198.39217,653.6885 214.23642,643.17324 230.79742,633.90625 C 246.56042,625.08525 262.96766,617.3435 280.20367,611.9375 C 286.54804,609.9475 293.20632,609.00982 299.85992,609 z"
     id="path3680" />
</svg>
