<?xml version="1.0" encoding="UTF-8" standalone="no"?>
<!-- Created with Inkscape (http://www.inkscape.org/) -->

<svg
   xmlns:dc="http://purl.org/dc/elements/1.1/"
   xmlns:cc="http://creativecommons.org/ns#"
   xmlns:rdf="http://www.w3.org/1999/02/22-rdf-syntax-ns#"
   xmlns:svg="http://www.w3.org/2000/svg"
   xmlns="http://www.w3.org/2000/svg"
   xmlns:sodipodi="http://sodipodi.sourceforge.net/DTD/sodipodi-0.dtd"
   xmlns:inkscape="http://www.inkscape.org/namespaces/inkscape"
   version="1.0"
   width="1000"
   height="1000"
   id="svg5496"
   sodipodi:version="0.32"
   inkscape:version="0.47pre0 r21549"
   sodipodi:docname="waw.isol.svg"
   inkscape:output_extension="org.inkscape.output.svg.inkscape">
  <metadata
     id="metadata5594">
    <rdf:RDF>
      <cc:Work
         rdf:about="">
        <dc:format>image/svg+xml</dc:format>
        <dc:type
           rdf:resource="http://purl.org/dc/dcmitype/StillImage" />
      </cc:Work>
    </rdf:RDF>
  </metadata>
  <sodipodi:namedview
     inkscape:pageshadow="2"
     inkscape:pageopacity="0.0"
     guidetolerance="10.0"
     gridtolerance="10.0"
     objecttolerance="10.0"
     borderopacity="1.0"
     bordercolor="#666666"
     pagecolor="#ffffff"
     id="base"
     showgrid="false"
     showguides="true"
     inkscape:guide-bbox="true"
     inkscape:zoom="0.51"
     inkscape:cx="92.156863"
     inkscape:cy="107.84314"
     inkscape:window-x="0"
     inkscape:window-y="25"
     inkscape:current-layer="svg5496">
    <sodipodi:guide
       orientation="horizontal"
       position="200"
       id="guide5596" />
  </sodipodi:namedview>
  <defs
     id="defs5498">
    <inkscape:perspective
       sodipodi:type="inkscape:persp3d"
       inkscape:vp_x="0 : 500 : 1"
       inkscape:vp_y="0 : 1000 : 0"
       inkscape:vp_z="1000 : 500 : 1"
       inkscape:persp3d-origin="500 : 333.33333 : 1"
       id="perspective8" />
    <inkscape:perspective
       id="perspective2388"
       inkscape:persp3d-origin="372.04724 : 350.78739 : 1"
       inkscape:vp_z="744.09448 : 526.18109 : 1"
       inkscape:vp_y="0 : 1000 : 0"
       inkscape:vp_x="0 : 526.18109 : 1"
       sodipodi:type="inkscape:persp3d" />
  </defs>
  <g
     id="layer1"
     transform="matrix(1.3,0,0,1.3,-434.31486,162.09492)" />
  <path
     style="fill:#000000;fill-rule:evenodd;stroke:#000000;stroke-width:1px;stroke-linecap:butt;stroke-linejoin:miter;stroke-opacity:1"
     d="M 338.6875 528.09375 C 307.61038 527.42622 268.42469 578.49979 248.28125 636.90625 C 225.06842 704.21242 222.36461 767.57677 271.53125 789.4375 C 315.99724 809.20823 349.4072 796.34672 374.625 757.71875 C 380.35938 761.08048 392.2474 778.43326 394.8125 800 C 376.55015 859.2148 206.25727 1013.0417 147.8125 1021.7188 C 85.331947 1030.9949 35.735515 1028.1157 -13.15625 1025.75 C -23.116577 1025.268 -23.951763 1042.2787 -10.5 1045.5938 C 42.157033 1058.5703 147.41044 1087.702 201.71875 1081.5 C 256.02705 1075.2978 389.1304 939.48172 418.09375 804.0625 C 428.69207 754.69485 437.29395 713.79764 434.90625 678.46875 C 428.52447 585.05527 366.03025 530.13662 340.15625 528.1875 C 339.66716 528.15066 339.18079 528.10435 338.6875 528.09375 z M 315.4375 644.875 C 327.43342 645.35452 338.6158 654.90965 349.09375 671.125 C 330.25593 685.10732 301.92665 693.36035 281.6875 666.4375 C 293.64054 651.10871 304.85286 644.4519 315.4375 644.875 z "
     id="path2394" />
</svg>
