<?xml version="1.0" encoding="UTF-8" standalone="no"?>
<!-- Created with Inkscape (http://www.inkscape.org/) -->
<svg
   xmlns:dc="http://purl.org/dc/elements/1.1/"
   xmlns:cc="http://creativecommons.org/ns#"
   xmlns:rdf="http://www.w3.org/1999/02/22-rdf-syntax-ns#"
   xmlns:svg="http://www.w3.org/2000/svg"
   xmlns="http://www.w3.org/2000/svg"
   xmlns:sodipodi="http://sodipodi.sourceforge.net/DTD/sodipodi-0.dtd"
   xmlns:inkscape="http://www.inkscape.org/namespaces/inkscape"
   version="1.0"
   width="1000"
   height="1000"
   id="svg5496"
   sodipodi:version="0.32"
   inkscape:version="0.46"
   sodipodi:docname="waw.fina.svg"
   inkscape:output_extension="org.inkscape.output.svg.inkscape">
  <metadata
     id="metadata5594">
    <rdf:RDF>
      <cc:Work
         rdf:about="">
        <dc:format>image/svg+xml</dc:format>
        <dc:type
           rdf:resource="http://purl.org/dc/dcmitype/StillImage" />
      </cc:Work>
    </rdf:RDF>
  </metadata>
  <sodipodi:namedview
     inkscape:pageshadow="2"
     inkscape:pageopacity="0.0"
     guidetolerance="10.0"
     gridtolerance="10.0"
     objecttolerance="10.0"
     borderopacity="1.0"
     bordercolor="#666666"
     pagecolor="#ffffff"
     id="base"
     showgrid="false"
     showguides="true"
     inkscape:guide-bbox="true"
     inkscape:zoom="0.64205296"
     inkscape:cx="478.83867"
     inkscape:cy="453.96336"
     inkscape:window-x="0"
     inkscape:window-y="25"
     inkscape:current-layer="svg5496">
    <sodipodi:guide
       orientation="horizontal"
       position="200"
       id="guide5596" />
  </sodipodi:namedview>
  <defs
     id="defs5498">
    <inkscape:perspective
       sodipodi:type="inkscape:persp3d"
       inkscape:vp_x="0 : 500 : 1"
       inkscape:vp_y="0 : 1000 : 0"
       inkscape:vp_z="1000 : 500 : 1"
       inkscape:persp3d-origin="500 : 333.33333 : 1"
       id="perspective2538" />
    <inkscape:perspective
       id="perspective2547"
       inkscape:persp3d-origin="372.04724 : 350.78739 : 1"
       inkscape:vp_z="744.09448 : 526.18109 : 1"
       inkscape:vp_y="0 : 1000 : 0"
       inkscape:vp_x="0 : 526.18109 : 1"
       sodipodi:type="inkscape:persp3d" />
    <inkscape:perspective
       sodipodi:type="inkscape:persp3d"
       inkscape:vp_x="0 : 526.18109 : 1"
       inkscape:vp_y="0 : 1000 : 0"
       inkscape:vp_z="744.09448 : 526.18109 : 1"
       inkscape:persp3d-origin="372.04724 : 350.78739 : 1"
       id="perspective2388" />
    <inkscape:perspective
       id="perspective8"
       inkscape:persp3d-origin="500 : 333.33333 : 1"
       inkscape:vp_z="1000 : 500 : 1"
       inkscape:vp_y="0 : 1000 : 0"
       inkscape:vp_x="0 : 500 : 1"
       sodipodi:type="inkscape:persp3d" />
  </defs>
  <g
     id="layer1"
     transform="translate(-471.92369,318.71875)" />
  <path
     style="fill:none;fill-opacity:1;fill-rule:evenodd;stroke:#000000;stroke-width:1px;stroke-linecap:butt;stroke-linejoin:miter;stroke-opacity:1"
     d="M 227.85756,610.78125 C 202.00716,611.43503 167.46331,646.46614 151.85756,690.28125 C 135.69298,735.66526 145.53403,770.30163 164.70131,781.65625 C 191.25548,797.38684 233.26684,799.826 263.89749,799.88883 C 266.52375,799.64924 266.75511,802.63123 266.13162,803.97375 C 213.48523,915.88159 62.058811,1025.0049 -41.236189,971.5625 C -49.706469,967.18018 -58.891739,974.19774 -45.986189,982.875 C -17.438999,1002.0691 33.287021,1039.6329 68.920061,1036.0312 C 112.28531,1031.648 233.73079,991.44941 285.01381,808.625 C 285.78887,805.86189 286.48287,802.98533 287.13881,800 C 290.98964,800.21602 296.30375,799.64806 303.01381,799.5625 L 303.45131,722.34375 C 299.28578,722.63483 294.9785,722.89964 290.60756,723.15625 C 290.60998,723.17748 290.63411,723.19674 290.63881,723.21875 L 290.57631,723.21875 C 290.58405,723.19623 290.59984,723.17892 290.60756,723.15625 C 284.10069,666.02895 260.14425,612.71966 230.32631,610.84375 C 229.51143,610.79248 228.69144,610.76016 227.85756,610.78125 z M 245.13578,714.66058 C 247.26009,719.49124 242.94494,721.09097 241.04048,721.01102 C 217.71964,720.03202 192.14406,714.71966 182.95131,702.75 C 179.98901,698.89285 177.48215,696.92593 180.95131,693.15625 C 206.33934,665.56899 232.74245,686.47829 245.13578,714.66058 z"
     id="path2553"
     sodipodi:nodetypes="cssccsssscccccccsccssss" />
</svg>
