<?xml version="1.0" encoding="UTF-8" standalone="no"?>
<!-- Created with Inkscape (http://www.inkscape.org/) -->

<svg
   xmlns:dc="http://purl.org/dc/elements/1.1/"
   xmlns:cc="http://creativecommons.org/ns#"
   xmlns:rdf="http://www.w3.org/1999/02/22-rdf-syntax-ns#"
   xmlns:svg="http://www.w3.org/2000/svg"
   xmlns="http://www.w3.org/2000/svg"
   xmlns:sodipodi="http://sodipodi.sourceforge.net/DTD/sodipodi-0.dtd"
   xmlns:inkscape="http://www.inkscape.org/namespaces/inkscape"
   version="1.0"
   width="1000"
   height="1000"
   id="svg5496"
   sodipodi:version="0.32"
   inkscape:version="0.47pre0 r21549"
   sodipodi:docname="yaa.isol.svg"
   inkscape:output_extension="org.inkscape.output.svg.inkscape">
  <metadata
     id="metadata5594">
    <rdf:RDF>
      <cc:Work
         rdf:about="">
        <dc:format>image/svg+xml</dc:format>
        <dc:type
           rdf:resource="http://purl.org/dc/dcmitype/StillImage" />
        <dc:title></dc:title>
      </cc:Work>
    </rdf:RDF>
  </metadata>
  <sodipodi:namedview
     inkscape:window-height="618"
     inkscape:pageshadow="2"
     inkscape:pageopacity="0.0"
     borderopacity="1.0"
     bordercolor="#666666"
     pagecolor="#ffffff"
     id="base"
     showgrid="false"
     showguides="true"
     inkscape:guide-bbox="true"
     inkscape:zoom="0.454"
     inkscape:cx="799.42375"
     inkscape:cy="-11.125731"
     inkscape:window-x="0"
     inkscape:window-y="25"
     inkscape:current-layer="svg5496">
    <sodipodi:guide
       orientation="horizontal"
       position="200"
       id="guide5596" />
  </sodipodi:namedview>
  <defs
     id="defs5498">
    <inkscape:perspective
       sodipodi:type="inkscape:persp3d"
       inkscape:vp_x="0 : 500 : 1"
       inkscape:vp_y="0 : 1000 : 0"
       inkscape:vp_z="1000 : 500 : 1"
       inkscape:persp3d-origin="500 : 333.33333 : 1"
       id="perspective8" />
    <inkscape:perspective
       id="perspective2822"
       inkscape:persp3d-origin="0.5 : 0.33333333 : 1"
       inkscape:vp_z="1 : 0.5 : 1"
       inkscape:vp_y="0 : 1000 : 0"
       inkscape:vp_x="0 : 0.5 : 1"
       sodipodi:type="inkscape:persp3d" />
  </defs>
  <g
     id="layer1"
     transform="matrix(0.5,0,0,0.5,29.735647,653.08372)" />
  <path
     style="color:#000000;fill:none;stroke:#000000;stroke-width:1;stroke-linecap:butt;stroke-linejoin:miter;stroke-miterlimit:4;stroke-opacity:1;stroke-dasharray:none;stroke-dashoffset:0;marker:none;visibility:visible;display:inline;overflow:visible;enable-background:accumulate"
     d="m 635.2112,491.1478 c -31.15295,-61.62018 -186.68317,19.36716 -252.19985,129.09695 -4.18462,7.00857 -3.45755,11.72721 0.0349,16.14182 64.16523,81.10645 220.4859,33.92222 240.3017,107.00551 8.12975,29.98362 -20.5132,117.87559 -38.8135,137.98777 C 524.39157,947.47737 359.58391,1000.4332 250.05987,1000.2778 38.625767,999.97875 -12.539883,894.59371 9.4326367,760.0374 20.222527,693.96181 59.374817,597.01697 112.33477,546.25552 c 12.35315,-11.84034 18.99654,0.81143 12.11454,9.9119 -28.107923,37.16871 -103.062163,145.35971 -65.986373,237.37011 21.16959,52.53624 76.379743,117.50413 202.550253,111.74883 106.93624,-4.87793 228.08821,-30.78513 316.82241,-102.03905 5.44385,-4.37145 3.14475,-7.55351 -1.9208,-12.00989 C 543.2591,762.50905 387.87516,778.2844 346.91627,709.25112 328.87099,678.83709 351.9957,602.0182 378.42134,564.95506 471.35777,434.60756 567.4035,379.46225 611.3989,380.63819 c 31.114,0.83164 45.1422,21.6312 48.03695,41.36841 2.73735,18.66393 -7.3083,44.8879 -15.13795,66.50959 -2.46655,6.81146 -5.4957,9.73453 -9.0867,2.63161 z"
     id="path2828"
     sodipodi:nodetypes="cssssssssssssssssss" />
</svg>
