<?xml version="1.0" encoding="UTF-8" standalone="no"?>
<!-- Created with Inkscape (http://www.inkscape.org/) -->

<svg
   xmlns:dc="http://purl.org/dc/elements/1.1/"
   xmlns:cc="http://creativecommons.org/ns#"
   xmlns:rdf="http://www.w3.org/1999/02/22-rdf-syntax-ns#"
   xmlns:svg="http://www.w3.org/2000/svg"
   xmlns="http://www.w3.org/2000/svg"
   xmlns:sodipodi="http://sodipodi.sourceforge.net/DTD/sodipodi-0.dtd"
   xmlns:inkscape="http://www.inkscape.org/namespaces/inkscape"
   version="1.0"
   width="1000"
   height="1000"
   id="svg5496"
   sodipodi:version="0.32"
   inkscape:version="0.47pre0 r21549"
   sodipodi:docname="New document 8"
   inkscape:output_extension="org.inkscape.output.svg.inkscape">
  <metadata
     id="metadata5594">
    <rdf:RDF>
      <cc:Work
         rdf:about="">
        <dc:format>image/svg+xml</dc:format>
        <dc:type
           rdf:resource="http://purl.org/dc/dcmitype/StillImage" />
        <dc:title></dc:title>
      </cc:Work>
    </rdf:RDF>
  </metadata>
  <sodipodi:namedview
     inkscape:window-height="618"
     inkscape:pageshadow="2"
     inkscape:pageopacity="0.0"
     borderopacity="1.0"
     bordercolor="#666666"
     pagecolor="#ffffff"
     id="base"
     showgrid="false"
     showguides="true"
     inkscape:guide-bbox="true"
     inkscape:zoom="0.64205296"
     inkscape:cx="644.45849"
     inkscape:cy="502.05364"
     inkscape:window-x="0"
     inkscape:window-y="25"
     inkscape:current-layer="svg5496">
    <sodipodi:guide
       orientation="horizontal"
       position="200"
       id="guide5596" />
  </sodipodi:namedview>
  <defs
     id="defs5498">
    <inkscape:perspective
       sodipodi:type="inkscape:persp3d"
       inkscape:vp_x="0 : 500 : 1"
       inkscape:vp_y="0 : 1000 : 0"
       inkscape:vp_z="1000 : 500 : 1"
       inkscape:persp3d-origin="500 : 333.33333 : 1"
       id="perspective3678" />
    <inkscape:perspective
       id="perspective3644"
       inkscape:persp3d-origin="0.5 : 0.33333333 : 1"
       inkscape:vp_z="1 : 0.5 : 1"
       inkscape:vp_y="0 : 1000 : 0"
       inkscape:vp_x="0 : 0.5 : 1"
       sodipodi:type="inkscape:persp3d" />
  </defs>
  <g
     id="layer1"
     transform="translate(-180.67046,327.07582)" />
  <g
     id="layer1-8"
     transform="matrix(0.5,0,0,0.5,25.276705,662.9789)" />
  <path
     style="color:#000000;fill:#000000;stroke:#000000;stroke-width:1;stroke-linecap:butt;stroke-linejoin:miter;stroke-miterlimit:4;stroke-opacity:1;stroke-dasharray:none;stroke-dashoffset:0;marker:none;visibility:visible;display:inline;overflow:visible;enable-background:accumulate"
     d="m 116.76704,551.35707 c -2.39714,0.0793 -5.43193,1.45115 -8.90625,4.78125 C 54.900845,606.89977 15.775685,703.84398 4.9857948,769.91957 -16.986725,904.47588 34.176695,1009.8705 245.61079,1010.1696 c 109.52404,0.1554 274.32587,-52.80876 334.46875,-118.90628 18.3003,-20.11218 46.94225,-107.98513 38.8125,-137.96875 -13.20489,-48.70141 -86.98189,-44.22795 -153.80024,-59.46181 -5.70719,-1.30118 -3.97514,-4.32103 0.77228,-5.59714 35.09576,-9.4338 74.19947,-11.18711 95.62171,-12.9723 l 2.93031,-83.34125 c -45.44847,1.17761 -134.07462,38.18846 -172.93031,94.7475 -12.87397,18.73959 -31.10292,47.06265 -14.98562,60.91374 17.97668,15.44904 55.97956,23.04246 87.09506,28.26104 46.80317,7.84966 91.92913,11.27961 107.85931,25.29397 5.06557,4.45636 7.38135,7.62855 1.9375,12 -88.7342,71.25392 -209.90751,97.15332 -316.84375,102.03125 -126.17051,5.7553 -181.361655,-59.21376 -202.531245,-111.75 -37.07579,-92.0104 37.86083,-200.17504 65.968745,-237.34375 4.94644,-6.54096 2.90729,-14.9213 -3.21875,-14.71875 z"
     id="path2828"
     sodipodi:nodetypes="csscssssccssssssssc" />
</svg>
